<svg version="1.1" id="WL_932_SG_7-Gipfel-Tour_Flumserberg_svg__Logo_x5F_932" x="0" y="0" xml:space="preserve" xmlns="http://www.w3.org/2000/svg" viewBox="0 0 212.5 212.9"><style type="text/css" id="style2">.WL_932_SG_7-Gipfel-Tour_Flumserberg_svg__st0{fill:#4aac24}.WL_932_SG_7-Gipfel-Tour_Flumserberg_svg__st1{fill:#fff}</style><g id="WL_932_SG_7-Gipfel-Tour_Flumserberg_svg__g126" transform="translate(-190.2 -181.7)"><path class="WL_932_SG_7-Gipfel-Tour_Flumserberg_svg__st0" d="M305 244c-.7 0-1 .4-1.2 1h1.9v-.3c0-.5-.2-.7-.7-.7z" id="WL_932_SG_7-Gipfel-Tour_Flumserberg_svg__path4"/><path class="WL_932_SG_7-Gipfel-Tour_Flumserberg_svg__st0" d="M347.9 223.5c-2.3 0-3.5 3-3.5 5.2 0 1.6.6 3 2.2 3 2.8 0 3.7-3.5 3.7-5.5 0-1.5-.8-2.7-2.4-2.7z" id="WL_932_SG_7-Gipfel-Tour_Flumserberg_svg__path6"/><path class="WL_932_SG_7-Gipfel-Tour_Flumserberg_svg__st0" d="M364.7 225.5c0-1.4-.7-2.1-2.1-2.1-2.1 0-3 1.2-3.6 3h5.7v-.9z" id="WL_932_SG_7-Gipfel-Tour_Flumserberg_svg__path8"/><path class="WL_932_SG_7-Gipfel-Tour_Flumserberg_svg__st0" d="M384.8 231.5c2.7 0 3.8-2.8 3.8-5.3 0-1.5-.9-2.7-2.4-2.7-2.4 0-3.5 3.2-3.5 5.1 0 1.6.6 2.9 2.1 2.9z" id="WL_932_SG_7-Gipfel-Tour_Flumserberg_svg__path10"/><path class="WL_932_SG_7-Gipfel-Tour_Flumserberg_svg__st0" d="M277.2 244.2c-.8 0-1.1 1.1-1.1 1.7 0 .4.1 1 .7 1 .8 0 1.3-.9 1.3-1.7-.1-.5-.3-1-.9-1z" id="WL_932_SG_7-Gipfel-Tour_Flumserberg_svg__path12"/><path class="WL_932_SG_7-Gipfel-Tour_Flumserberg_svg__st0" d="M233.2 330.9c-6.8 0-10.1 7-10.1 13 0 5.4 2.8 9.9 8.2 9.9 7.7 0 10.9-7.2 10.9-12.5 0-5.4-2.4-10.3-9-10.4z" id="WL_932_SG_7-Gipfel-Tour_Flumserberg_svg__path14"/><path class="WL_932_SG_7-Gipfel-Tour_Flumserberg_svg__st0" d="M241.7 246.7c0 .3.3.4.6.4.8 0 1.1-.6 1.2-1.3h-.4c-.6.1-1.4.2-1.4.9z" id="WL_932_SG_7-Gipfel-Tour_Flumserberg_svg__path16"/><path class="WL_932_SG_7-Gipfel-Tour_Flumserberg_svg__st0" d="M323.7 223.4c-2.1 0-3 1.2-3.6 3h5.7c.1-.3.1-.6.1-.9-.1-1.4-.8-2.1-2.2-2.1z" id="WL_932_SG_7-Gipfel-Tour_Flumserberg_svg__path18"/><path class="WL_932_SG_7-Gipfel-Tour_Flumserberg_svg__st0" d="M266.3 246.6c0 .3.3.4.6.4.8 0 1.1-.6 1.2-1.3h-.4c-.6.1-1.4.2-1.4.9z" id="WL_932_SG_7-Gipfel-Tour_Flumserberg_svg__path20"/><path class="WL_932_SG_7-Gipfel-Tour_Flumserberg_svg__st0" d="M252.6 244.4c-.8 0-1.1 1.1-1.1 1.7 0 .4.1 1 .7 1 .8 0 1.3-.9 1.3-1.7-.1-.5-.3-1-.9-1z" id="WL_932_SG_7-Gipfel-Tour_Flumserberg_svg__path22"/><path class="WL_932_SG_7-Gipfel-Tour_Flumserberg_svg__st0" d="M257.7 244.3c-.7 0-1 .4-1.2 1h1.9v-.3c0-.5-.3-.7-.7-.7z" id="WL_932_SG_7-Gipfel-Tour_Flumserberg_svg__path24"/><path class="WL_932_SG_7-Gipfel-Tour_Flumserberg_svg__st0" d="M190.2 394.3H214c-5.4-.7-10.7-2.5-15.4-5.2l4.6-13.2c4.5 3.1 10.4 4.8 15.9 4.9 12.7.1 17.5-8.4 19.7-18l-.2-.2c-3.6 2.8-8.1 4.1-12.6 4.1-12.5-.1-21-8.3-21-22.2.1-16.2 11.1-26.2 27.3-26.1 17.3.1 27.1 10.7 27 27.4-.1 23.4-9.5 45.5-33.4 48.7h49.4c-5-.8-9.8-2.1-13.7-4l3.8-14.2c6.4 3 12.2 4.3 19.4 4.4 6.8 0 14.3-2.2 14.4-10 0-7.2-7.2-7.9-12.6-7.9-2.1 0-4.8.1-6.9.3l2.7-13.4c2.1.4 5 .5 7.6.5 5.1 0 15.3-.5 15.3-8.6 0-6.3-6.3-8-12-8-5.5 0-12.6 1.5-16.9 3.3l2-15.4c5.5-1.3 14-2.6 21.1-2.5 12 .1 25.6 4.8 25.5 18.6-.1 11.4-8.5 18.2-19.6 19.2v.2c8.4 2 13.4 6.4 13.4 15.1-.1 14.3-11.1 20.5-23.2 22.5h30l2.5-13.1c28.2-19.7 40.6-28.1 40.6-37.1 0-7.4-4.6-10.5-10.3-10.6-5.8 0-12.8 2.5-17.9 5.3l2-16.7c6.5-2 13.3-3.2 21.3-3.2 12.3.1 24.8 6.1 24.7 21.3-.1 18.9-18.4 30-32.7 39.7v.2l26.1.2-2.6 13.9h23.4V181.7H190.2Zm46.9-146.4-.1-4.6-2 4.6h-1.4l-.4-5.7h1.1l.2 4.4 1.9-4.4h1.5l.1 4.4 2-4.4h1.2l-2.7 5.7zm7 0h-.9l.1-.6c-.4.5-.7.8-1.4.8-.8 0-1.3-.4-1.3-1.2 0-1.4 1.5-1.5 2.6-1.5h.4v-.4c0-.4-.5-.5-.8-.5-.5 0-1 .1-1.4.3l.1-.9c.5-.2.9-.3 1.4-.3.8 0 1.6.3 1.6 1.3.1.5-.3 2.2-.4 3zm5.4-2.1-.4 2.1H248l.4-2c.1-.3.1-.6.1-.9 0-.4-.2-.6-.6-.6-.8 0-1 .7-1.2 1.4l-.4 2.1h-1.1l.8-3.6c0-.3.1-.5.1-.6h1.1l-.2.3c.3-.3.7-.5 1.2-.5.8 0 1.4.5 1.4 1.3 0 .4 0 .7-.1 1zm4.6 2h-1l.1-.6c-.3.5-.7.7-1.4.7-1 0-1.5-.8-1.5-1.7 0-1.3.7-2.7 2.1-2.7.5 0 1 .2 1.3.6l.5-2.4h1.1l-1.1 5.2c0 .3-.1.7-.1.9zm5.2-1.8h-3c0 .8.4 1.1 1.2 1.1.5 0 .9-.1 1.3-.3l-.1.9c-.4.1-.9.2-1.3.2-1.2 0-2-.6-2-1.8 0-1.3 1-2.6 2.4-2.6 1 0 1.7.5 1.7 1.6-.1.3-.1.6-.2.9zm3.2-1.5c-.8 0-1.2.7-1.3 1.4l-.4 1.9h-1.1l.7-3.7c0-.2.1-.4.1-.6h1l-.1.8c.2-.5.7-.9 1.2-.9h.4l-.2 1.1h-.3zm-1.9-10.4 4-18.7h3.3l-4 18.7zm2.3 13.7 1.3-6.2h1.1l-1.3 6.2zm5.8-.1h-.9l.1-.6c-.4.5-.7.8-1.4.8-.8 0-1.3-.4-1.3-1.2 0-1.4 1.5-1.5 2.6-1.5h.4v-.4c0-.4-.5-.5-.8-.5-.5 0-1 .1-1.4.3l.1-.9c.5-.2.9-.3 1.4-.3.8 0 1.6.3 1.6 1.3.1.6-.3 2.2-.4 3zm-.3-17.4c0-1 .2-2 .4-2.8l1.3-6.2h3.3l-1.2 6.1c-.2.9-.4 1.7-.4 2.7 0 1.1.8 1.8 1.8 1.8 2.3 0 3.2-2.2 3.6-4.1l1.4-6.5h3.3l-2.4 11c-.2.8-.3 1.4-.3 1.8H276l.2-1.2c-.9.8-2.2 1.5-3.6 1.5-2.6 0-4.2-1.6-4.2-4.1zm5.7 15.3-.4 2.1h-1.1l.4-2c.1-.3.1-.6.1-.9 0-.4-.2-.6-.6-.6-.8 0-1 .7-1.2 1.4l-.4 2.1h-1.1l.8-3.6c0-.3.1-.5.1-.6h1.1l-.1.4c.3-.3.7-.5 1.2-.5.8 0 1.4.5 1.4 1.3-.1.3-.1.7-.2.9zm4.8 1.1c-.1.4-.1.7-.1.9h-1l.1-.6c-.3.5-.7.7-1.4.7-1 0-1.5-.8-1.5-1.7 0-1.3.7-2.7 2.1-2.7.5 0 1 .2 1.3.6l.5-2.4h1.1zm7.2-3.7c-.3-.2-.8-.3-1.2-.3-.4 0-1 .2-1 .7 0 .9 2 .8 2 2.4 0 1.4-1.1 1.9-2.3 1.9-.5 0-1.1-.1-1.6-.3l.3-1c.4.2.9.4 1.4.4.5 0 1.1-.3 1.1-.9 0-1-2-.9-2-2.4 0-1.2 1-1.7 2.1-1.7.5 0 1 .1 1.5.2zm2.8 3.9c.3 0 .6-.1.9-.2l-.1.9c-.3.2-.7.2-1.1.2-1.1 0-1.8-.7-1.8-1.8 0-1.5 1-2.6 2.5-2.6.4 0 .8.1 1.1.2l-.3.9c-.2-.1-.5-.2-.8-.2-.9 0-1.4.8-1.4 1.6 0 .4.2 1 1 1zm5.7-1.4-.4 2.1h-1.1l.4-2c.1-.3.1-.6.1-.9 0-.4-.2-.6-.6-.6-.8 0-1 .7-1.2 1.4l-.4 2.1h-1.1l1.3-6.2h1.1l-.5 2.3c.3-.3.7-.5 1.2-.5.8 0 1.4.5 1.4 1.3-.1.4-.1.8-.2 1zm4.7 2-.3-3.2-1.5 3.2h-1.2l-.6-4.2h1.1l.3 3.2 1.5-3.2h1.2l.2 3.2 1.6-3.2h1.1l-2.3 4.2zm7.4-1.8h-3c0 .8.4 1.1 1.2 1.1.5 0 .9-.1 1.3-.3l-.1.9c-.4.1-.9.2-1.3.2-1.2 0-2-.6-2-1.8 0-1.3 1-2.6 2.4-2.6 1 0 1.7.5 1.7 1.6-.1.3-.1.6-.2.9zm1.5 1.8h-1.1l.9-4.2h1.1zm0-5 .2-1h1.1l-.2 1zm5.1 1.6-2.6 2.5h2.1l-.2.9h-3.5l.2-.9 2.6-2.5H310l.2-.9h3.3zm1.5-20.1c-.9-.3-1.8-.6-2.7-.6-1 0-2.2.3-2.2 1.3 0 1.6 4.3 2.2 4.3 5.4 0 3.3-2.9 4.3-5.8 4.3-1.3 0-2.7-.2-3.9-.8l.7-2.7c1 .5 1.9 1 3.2 1 1.1 0 2.3-.4 2.3-1.4 0-2.1-4.3-2.3-4.3-5.5 0-3 2.9-4.1 5.6-4.1 1.2 0 2.5.2 3.6.5zm32.3 10.4c-1.8 0-2.6-.3-3.7-2.1l-.4 1.8h-3.1l4-18.7h3.4l-1.6 7.1c.8-.9 2-1.6 3.4-1.6 3.2 0 4.7 2.2 4.7 5.2 0 4.1-2.3 8.3-6.7 8.3zm38.6-13.5c1.7 0 3.1.8 3.9 2.2l.4-1.9h3.2c-.1.4-.2 1-.4 1.8l-2 9.7c-.8 4.2-2.6 6.9-7.3 6.9-1.7 0-3.5-.2-5.1-.9l.8-2.7c1.3.5 2.6 1 4 1 3.5 0 4.1-2.5 4.9-5.4-.8 1.5-2.5 2.4-4.3 2.4-3.1 0-4.5-2.6-4.5-5.4-.1-3.8 2.2-7.7 6.4-7.7zm-14.5 2c.1-.5.2-1.1.3-1.7h3.2l-.4 2.4c.6-1.4 2.2-2.7 3.8-2.7.4 0 .9 0 1.3.1l-.7 3.3c-.4-.1-.9-.2-1.3-.2-2.4 0-3.5 2.1-3.9 4.2l-1.2 5.8H369Zm-8.6-2c3.2 0 5.3 1.6 5.3 4.9 0 1-.1 1.9-.3 2.9h-9.1c0 2.4 1.3 3.2 3.6 3.2 1.4 0 2.7-.4 3.9-.9l-.4 2.6c-1.3.4-2.7.7-4.1.7-3.7 0-6.2-1.8-6.2-5.6 0-3.9 3.1-7.8 7.3-7.8zm-15.3-23c.1-.5.2-1.1.3-1.7h3.2l-.4 2.4c.6-1.4 2.2-2.7 3.8-2.7.4 0 .9 0 1.3.1l-.7 3.3c-.4-.1-.9-.2-1.3-.2-2.4 0-3.5 2.1-3.9 4.2l-1.2 5.8H345Zm-16.3 4.6 1.3-6.2h3.3l-1.2 6.1c-.2.9-.4 1.7-.4 2.7 0 1.1.8 1.8 1.8 1.8 2.3 0 3.2-2.2 3.6-4.1l1.4-6.5h3.3l-2.4 11c-.2.8-.3 1.4-.3 1.8h-3.3l.2-1.2c-.9.8-2.2 1.5-3.6 1.5-2.5 0-4.2-1.6-4.2-4.1 0-1 .3-2 .5-2.8zm1.3 20.4c.1-.5.2-1.1.3-1.7h3.2l-.4 2.4c.6-1.4 2.2-2.7 3.8-2.7.4 0 .9 0 1.3.1l-.7 3.3c-.4-.1-.9-.2-1.3-.2-2.4 0-3.5 2.1-3.9 4.2l-1.2 5.8H330Zm-3.6 5.8h-9.1c0 2.4 1.3 3.2 3.6 3.2 1.4 0 2.7-.4 3.9-.9l-.4 2.6c-1.3.4-2.7.7-4.1.7-3.7 0-6.2-1.8-6.2-5.6 0-4 3.1-7.8 7.3-7.8 3.2 0 5.3 1.6 5.3 4.9 0 1-.1 1.9-.3 2.9zm-.2-27.1c0 4.5-3.1 7.8-7.7 7.8-3.6 0-5.8-2.2-5.8-5.9 0-4.3 3.3-7.6 7.6-7.6 3.4 0 5.9 2.1 5.9 5.7zm-23.9-10H318l-.6 2.7h-4.9l-3.2 14.7h-3.6l3.2-14.7H304Zm-10.4 9.4h6.6l-.6 2.7h-6.6zm-4.5-10.7h3.3l-4 18.7h-3.3zm-4.3 30.9h3.1l-.3 1.7c.9-1.3 2.4-2 3.9-2s3.1.9 3.3 2.4c.8-1.7 2.7-2.4 4.5-2.4 1.9 0 3.6 1.6 3.6 3.5 0 1.1-.3 2.4-.6 3.5l-1.3 6.1h-3.3l1.3-6.3c.2-.8.4-2 .4-2.7 0-.9-.7-1.5-1.6-1.5-2.3 0-2.9 2.7-3.3 4.4l-1.3 6.1h-3.3l1.3-6.3c.2-.8.4-2 .4-2.7 0-.9-.7-1.5-1.6-1.5-2.3 0-2.9 2.7-3.3 4.4L286 234h-3.3l2.3-11.4c.3-.5.4-1 .4-1.4zm-6-25.3c3.2 0 5.3 1.6 5.3 4.9 0 1-.1 1.9-.3 2.9h-9.1c0 2.4 1.3 3.2 3.6 3.2 1.4 0 2.7-.4 3.9-.9l-.4 2.6c-1.3.4-2.7.7-4.1.7-3.7 0-6.2-1.8-6.2-5.6 0-3.9 3.1-7.8 7.3-7.8zm-16 .3h2.6c.7-3.3 1.8-6.2 5.7-6.2.8 0 1.5.1 2.1.3l-.8 2.5c-.3-.1-.7-.2-1-.2-1.8 0-2.3 2.2-2.6 3.6h3l-.5 2.4h-3l-2.2 10.4h-3.3l2.2-10.4H263Zm-2.4 23.2h-6.1l-.9 4.3h5.8l-.5 2.7h-5.8l-1.6 7.6h-3.5l3.7-17.4h9.6zm-11.6-23.2h3.2l-.4 1.7c1-1.4 2.2-2 3.9-2 3.2 0 4.7 2.2 4.7 5.2 0 4-2.2 8.2-6.7 8.2-1.5 0-3-.5-3.5-2.3l-1.5 7.2h-3.3l3.4-16.4c0-.5.1-1 .2-1.6zm-5.6-5.5h3.3l-.7 3.2h-3.3zm-1.2 5.5h3.3l-2.7 12.9h-3.3zm-9-4.9c1.9 0 4 .3 5.8 1l-.9 3c-1.4-.9-3-1.2-4.8-1.2-4.2 0-6.9 3.3-6.9 7.4 0 2.8 1.9 5.1 4.9 5.1.8 0 1.3 0 1.7-.2l1-4.6h-3.7l.6-2.7h7.1l-2 9.5c-1 .4-3 .8-4.7.8-5.1 0-8.5-2.3-8.5-7.7-.1-6.4 4.1-10.4 10.4-10.4zm-20 9.7h6.6l-.6 2.7H213Zm-13.4-6.6.5-2.7h11.6l-.6 3.2-9 14.3h-4l9.4-14.7h-7.9z" id="WL_932_SG_7-Gipfel-Tour_Flumserberg_svg__path26"/><path class="WL_932_SG_7-Gipfel-Tour_Flumserberg_svg__st0" d="M253.6 206.8c2.8 0 3.7-3.5 3.7-5.5 0-1.6-.8-2.7-2.3-2.7-2.3 0-3.5 3-3.5 5.2-.1 1.6.5 3 2.1 3z" id="WL_932_SG_7-Gipfel-Tour_Flumserberg_svg__path28"/><path class="WL_932_SG_7-Gipfel-Tour_Flumserberg_svg__st0" d="M321.1 206.8c2.6 0 3.9-3 3.9-5.2 0-1.7-.6-3.1-2.5-3.1-2.6 0-4 2.9-4 5.2-.1 1.8.6 3.1 2.6 3.1z" id="WL_932_SG_7-Gipfel-Tour_Flumserberg_svg__path30"/><path class="WL_932_SG_7-Gipfel-Tour_Flumserberg_svg__st0" d="M281.5 200.5c0-1.4-.7-2.1-2.1-2.1-2.1 0-3 1.2-3.6 3h5.7v-.9z" id="WL_932_SG_7-Gipfel-Tour_Flumserberg_svg__path32"/><path class="WL_932_SG_7-Gipfel-Tour_Flumserberg_svg__st1" d="M259.3 345.6c.1-16.7-9.7-27.3-27-27.4-16.2-.1-27.2 9.9-27.3 26.1-.1 13.9 8.5 22.1 21 22.2 4.6 0 9-1.2 12.6-4.1l.2.2c-2.2 9.6-7 18.1-19.7 18-5.5 0-11.3-1.8-15.9-4.9l-4.6 13.2c4.6 2.8 10 4.5 15.4 5.2h11.9c23.9-3 33.3-25.1 33.4-48.5zm-28 8.2c-5.4 0-8.2-4.5-8.2-9.9 0-5.9 3.4-13 10.1-13 6.6 0 9 4.9 8.9 10.3.1 5.4-3.1 12.7-10.8 12.6z" id="WL_932_SG_7-Gipfel-Tour_Flumserberg_svg__path34"/><path class="WL_932_SG_7-Gipfel-Tour_Flumserberg_svg__st1" d="M318.9 371.7c.1-8.7-5-13.2-13.4-15.1v-.2c11.1-1 19.6-7.7 19.6-19.2.1-13.8-13.6-18.5-25.5-18.6-7.1 0-15.6 1.2-21.1 2.5l-2 15.4c4.3-1.8 11.4-3.3 16.9-3.3 5.7 0 12.1 1.8 12 8 0 8.1-10.2 8.6-15.3 8.6-2.6 0-5.5 0-7.6-.5l-2.7 13.4c2.1-.2 4.8-.3 6.9-.3 5.4 0 12.6.7 12.6 7.9 0 7.7-7.6 10-14.4 10-7.2 0-12.9-1.3-19.4-4.4l-3.8 14.2c3.9 1.9 8.7 3.3 13.7 4h20.3c12-1.8 23.1-8 23.2-22.4z" id="WL_932_SG_7-Gipfel-Tour_Flumserberg_svg__path36"/><path class="WL_932_SG_7-Gipfel-Tour_Flumserberg_svg__st1" d="M355.9 380.2v-.2c14.3-9.7 32.6-20.8 32.7-39.7.1-15.3-12.4-21.3-24.7-21.3-8.1 0-14.8 1.2-21.3 3.2l-2 16.7c5.1-2.8 12.1-5.3 17.9-5.3 5.7 0 10.4 3.1 10.3 10.6-.1 9-12.4 17.4-40.6 37.1l-2.5 13.1h53.6l2.6-13.9z" id="WL_932_SG_7-Gipfel-Tour_Flumserberg_svg__path38"/><path id="WL_932_SG_7-Gipfel-Tour_Flumserberg_svg__polygon40" d="M212.3 191.6h-11.6l-.5 2.8h7.9l-9.5 14.7h4.1l9-14.3z"/><path id="WL_932_SG_7-Gipfel-Tour_Flumserberg_svg__polygon42" d="M213 203.7h6.6l.6-2.7h-6.6z"/><path d="M231.7 209.4c1.7 0 3.6-.3 4.7-.8l2-9.5h-7.1l-.6 2.7h3.7l-1 4.6c-.4.2-.9.2-1.7.2-3 0-4.9-2.3-4.9-5.1 0-4.1 2.7-7.4 6.9-7.4 1.8 0 3.5.4 4.8 1.2l.9-3c-1.8-.7-3.9-1-5.8-1-6.3 0-10.5 3.9-10.5 10.3 0 5.4 3.5 7.8 8.6 7.8z" id="WL_932_SG_7-Gipfel-Tour_Flumserberg_svg__path44"/><path id="WL_932_SG_7-Gipfel-Tour_Flumserberg_svg__polygon46" d="M239.9 209.1h3.3l2.8-12.9h-3.4z"/><path id="WL_932_SG_7-Gipfel-Tour_Flumserberg_svg__polygon48" d="M243.1 193.9h3.4l.7-3.2h-3.4z"/><path d="m249 214.3 1.5-7.2c.5 1.8 2.1 2.3 3.5 2.3 4.5 0 6.7-4.2 6.7-8.2 0-3-1.5-5.2-4.7-5.2-1.7 0-2.9.6-3.9 2l.4-1.7h-3.2c0 .6-.1 1-.3 1.7l-3.4 16.4h3.4zm6-15.8c1.5 0 2.3 1.2 2.3 2.7 0 2-.9 5.5-3.7 5.5-1.6 0-2.2-1.4-2.2-3 0-2.2 1.3-5.2 3.6-5.2z" id="WL_932_SG_7-Gipfel-Tour_Flumserberg_svg__path50"/><path d="M263.3 209.1h3.3l2.2-10.4h3l.5-2.4h-3c.3-1.3.8-3.6 2.6-3.6.3 0 .7.1 1 .2l.8-2.5c-.5-.2-1.3-.3-2.1-.3-3.9 0-5 2.9-5.7 6.2h-2.6l-.5 2.4h2.6z" id="WL_932_SG_7-Gipfel-Tour_Flumserberg_svg__path52"/><path d="M278.3 209.4c1.4 0 2.8-.3 4.1-.7l.4-2.6c-1.2.6-2.6.9-3.9.9-2.3 0-3.6-.9-3.6-3.2h9.1c.2-1 .3-1.9.3-2.9 0-3.3-2.1-4.9-5.3-4.9-4.2 0-7.3 3.8-7.3 7.8 0 3.8 2.5 5.6 6.2 5.6zm1.1-11c1.4 0 2.1.8 2.1 2.1 0 .3 0 .6-.1.9h-5.7c.7-1.8 1.6-3 3.7-3z" id="WL_932_SG_7-Gipfel-Tour_Flumserberg_svg__path54"/><path id="WL_932_SG_7-Gipfel-Tour_Flumserberg_svg__polygon56" d="M285.7 209.1h3.4l3.9-18.8h-3.3z"/><path id="WL_932_SG_7-Gipfel-Tour_Flumserberg_svg__polygon58" d="M293.6 203.7h6.6l.6-2.7h-6.6z"/><path id="WL_932_SG_7-Gipfel-Tour_Flumserberg_svg__polygon60" d="M312.5 194.4h5l.5-2.8h-13.4l-.6 2.8h4.9l-3.2 14.7h3.7z"/><path d="M314.9 203.5c0 3.6 2.2 5.9 5.8 5.9 4.5 0 7.7-3.3 7.7-7.8 0-3.5-2.4-5.6-5.9-5.6-4.3-.1-7.6 3.2-7.6 7.5zm7.5-5c2 0 2.5 1.4 2.5 3.1 0 2.2-1.3 5.2-3.9 5.2-1.9 0-2.6-1.3-2.6-3 0-2.4 1.4-5.3 4-5.3z" id="WL_932_SG_7-Gipfel-Tour_Flumserberg_svg__path62"/><path d="M334.7 209.4c1.4 0 2.7-.7 3.6-1.5l-.2 1.2h3.3c0-.4.2-1.1.3-1.8l2.4-11h-3.3l-1.4 6.5c-.4 1.9-1.3 4.1-3.6 4.1-1.1 0-1.8-.7-1.8-1.8 0-.9.2-1.8.4-2.7l1.2-6.1h-3.3l-1.3 6.2c-.2.8-.4 1.8-.4 2.8-.1 2.5 1.6 4.1 4.1 4.1z" id="WL_932_SG_7-Gipfel-Tour_Flumserberg_svg__path64"/><path d="M349.5 203.3c.4-2.1 1.6-4.2 3.9-4.2.4 0 .9.1 1.3.2l.7-3.3c-.4-.1-.8-.1-1.3-.1-1.5 0-3.2 1.3-3.8 2.7l.4-2.4h-3.2c-.1.6-.2 1.2-.3 1.7l-2.3 11.1h3.3z" id="WL_932_SG_7-Gipfel-Tour_Flumserberg_svg__path66"/><path id="WL_932_SG_7-Gipfel-Tour_Flumserberg_svg__polygon68" d="M253.4 226.4h5.9l.5-2.7H254l.9-4.3h6.1l.6-2.8H252l-3.7 17.5h3.5z"/><path id="WL_932_SG_7-Gipfel-Tour_Flumserberg_svg__polygon70" d="M260.6 234.1h3.3l4-18.8h-3.3z"/><path d="m276.2 232.8-.2 1.2h3.3c0-.4.2-1.1.3-1.8l2.4-11h-3.3l-1.4 6.5c-.4 1.9-1.3 4.1-3.6 4.1-1.1 0-1.8-.7-1.8-1.8 0-.9.2-1.8.4-2.7l1.2-6.1h-3.3l-1.3 6.2c-.2.8-.4 1.8-.4 2.8 0 2.5 1.7 4.1 4.2 4.1 1.3.1 2.6-.6 3.5-1.5z" id="WL_932_SG_7-Gipfel-Tour_Flumserberg_svg__path72"/><path d="m286.2 234.1 1.3-6.1c.4-1.7 1-4.4 3.3-4.4.9 0 1.6.6 1.6 1.5 0 .8-.2 2-.4 2.7l-1.3 6.3h3.3l1.3-6.1c.4-1.7 1-4.4 3.3-4.4.8 0 1.6.6 1.6 1.5 0 .8-.2 2-.4 2.7l-1.3 6.3h3.3l1.3-6.1c.3-1 .6-2.3.6-3.5 0-1.9-1.6-3.5-3.6-3.5-1.8 0-3.7.8-4.5 2.4-.2-1.5-1.8-2.4-3.3-2.4-1.6 0-3 .7-3.9 2l.3-1.7h-3.1c-.1.4-.2.9-.3 1.4l-2.3 11.4z" id="WL_932_SG_7-Gipfel-Tour_Flumserberg_svg__path74"/><path d="M306.3 225c0 3.2 4.3 3.4 4.3 5.5 0 1-1.2 1.4-2.3 1.4-1.3 0-2.2-.5-3.2-1l-.7 2.7c1.2.6 2.6.8 3.9.8 2.9 0 5.8-1 5.8-4.3 0-3.1-4.3-3.7-4.3-5.4 0-1 1.2-1.3 2.2-1.3.9 0 1.9.3 2.7.6l.7-2.5c-1.2-.3-2.4-.5-3.6-.5-2.5-.1-5.5 1-5.5 4z" id="WL_932_SG_7-Gipfel-Tour_Flumserberg_svg__path76"/><path d="M323.7 220.9c-4.2 0-7.3 3.8-7.3 7.8 0 3.8 2.5 5.6 6.2 5.6 1.4 0 2.8-.3 4.1-.7l.4-2.6c-1.2.6-2.6.9-3.9.9-2.3 0-3.6-.9-3.6-3.2h9.1c.2-1 .3-1.9.3-2.9 0-3.3-2.1-4.9-5.3-4.9zm2 5.5H320c.6-1.8 1.5-3 3.6-3 1.4 0 2.1.8 2.1 2.1.1.3.1.6 0 .9z" id="WL_932_SG_7-Gipfel-Tour_Flumserberg_svg__path78"/><path d="M334.6 228.3c.4-2.1 1.6-4.2 3.9-4.2.4 0 .9.1 1.3.2l.7-3.3c-.4-.1-.8-.1-1.3-.1-1.5 0-3.2 1.3-3.8 2.7l.4-2.4h-3.2c-.1.6-.2 1.2-.3 1.7L330 234h3.3z" id="WL_932_SG_7-Gipfel-Tour_Flumserberg_svg__path80"/><path d="M349 220.9c-1.5 0-2.6.7-3.4 1.6l1.6-7.1h-3.4l-4 18.7h3.1l.4-1.8c1 1.8 1.9 2.1 3.7 2.1 4.5 0 6.7-4.2 6.7-8.2.1-3.1-1.5-5.3-4.7-5.3zm-2.4 10.9c-1.6 0-2.2-1.4-2.2-3 0-2.2 1.3-5.2 3.5-5.2 1.5 0 2.3 1.2 2.3 2.7.1 2-.8 5.5-3.6 5.5z" id="WL_932_SG_7-Gipfel-Tour_Flumserberg_svg__path82"/><path d="M361.5 234.4c1.4 0 2.8-.3 4.1-.7l.4-2.6c-1.2.6-2.6.9-3.9.9-2.3 0-3.6-.9-3.6-3.2h9.1c.2-1 .3-1.9.3-2.9 0-3.3-2.1-4.9-5.3-4.9-4.2 0-7.3 3.8-7.3 7.8 0 3.8 2.5 5.6 6.2 5.6zm1.1-11c1.4 0 2.1.8 2.1 2.1 0 .3 0 .6-.1.9H359c.6-1.8 1.5-3 3.6-3z" id="WL_932_SG_7-Gipfel-Tour_Flumserberg_svg__path84"/><path d="M373.5 228.3c.4-2.1 1.6-4.2 3.9-4.2.4 0 .9.1 1.3.2l.7-3.3c-.4-.1-.8-.1-1.3-.1-1.5 0-3.2 1.3-3.8 2.7l.4-2.4h-3.2c-.1.6-.2 1.2-.3 1.7l-2.3 11.1h3.3z" id="WL_932_SG_7-Gipfel-Tour_Flumserberg_svg__path86"/><path d="M383.7 234.1c1.8 0 3.5-.9 4.3-2.4-.8 2.9-1.3 5.4-4.9 5.4-1.4 0-2.7-.4-4-1l-.8 2.7c1.6.6 3.4.9 5.1.9 4.7 0 6.5-2.7 7.3-6.9l2-9.7c.2-.8.3-1.4.4-1.8H390l-.4 1.9c-.8-1.4-2.2-2.2-3.9-2.2-4.2 0-6.5 3.9-6.5 7.7 0 2.8 1.3 5.4 4.5 5.4zm2.5-10.6c1.5 0 2.4 1.2 2.4 2.7 0 2.4-1.1 5.3-3.8 5.3-1.5 0-2.1-1.3-2.1-2.9 0-1.9 1-5.1 3.5-5.1z" id="WL_932_SG_7-Gipfel-Tour_Flumserberg_svg__path88"/><path id="WL_932_SG_7-Gipfel-Tour_Flumserberg_svg__polygon90" d="m238.1 246.6-.1-4.4h-1.5l-1.9 4.4-.2-4.4h-1.2l.4 5.7h1.4l2-4.6h.1v4.6h1.5l2.7-5.7h-1.2l-2 4.4z"/><path d="M243 243.6c-.5 0-1 .1-1.4.3l-.1.9c.4-.2.9-.3 1.4-.3.4 0 .8.1.8.5v.4h-.4c-1 0-2.6.1-2.6 1.5 0 .8.5 1.2 1.3 1.2.6 0 1-.3 1.4-.8l-.1.6h.9c.1-.8.5-2.5.5-3-.1-1-.9-1.3-1.7-1.3zm-.8 3.6c-.3 0-.6-.1-.6-.4 0-.7.9-.8 1.4-.8h.4c-.1.6-.4 1.2-1.2 1.2z" id="WL_932_SG_7-Gipfel-Tour_Flumserberg_svg__path92"/><path d="M248.2 243.5c-.5 0-.9.2-1.2.5l.1-.4H246c0 .1-.1.4-.1.6l-.8 3.6h1.1l.4-2.1c.1-.6.4-1.3 1.2-1.4.4 0 .6.2.6.6 0 .3-.1.6-.1.9l-.4 2h1.1l.4-2.1c.1-.3.1-.6.1-.9.1-.8-.4-1.3-1.3-1.3z" id="WL_932_SG_7-Gipfel-Tour_Flumserberg_svg__path94"/><path d="m254.3 241.7-.5 2.4c-.3-.4-.8-.6-1.3-.6-1.4 0-2.1 1.4-2.1 2.7 0 .9.5 1.8 1.5 1.7.6 0 1-.3 1.4-.7l-.1.6h1c0-.2.1-.6.1-.9l1.1-5.2zm-2.1 5.4c-.5 0-.7-.6-.7-1 0-.6.4-1.7 1.1-1.7.6 0 .8.5.8 1 0 .7-.4 1.7-1.2 1.7z" id="WL_932_SG_7-Gipfel-Tour_Flumserberg_svg__path96"/><path d="M257.7 243.5c-1.4 0-2.4 1.3-2.4 2.6s.8 1.8 2 1.8c.5 0 .9-.1 1.3-.2l.1-.9c-.4.2-.8.3-1.3.3-.8 0-1.2-.3-1.2-1.1h3c.1-.3.1-.6.1-.9.1-1.1-.6-1.6-1.6-1.6zm.6 1.8h-1.9c.2-.6.5-1 1.2-1 .5 0 .7.3.7.7.1.1 0 .2 0 .3z" id="WL_932_SG_7-Gipfel-Tour_Flumserberg_svg__path98"/><path d="M262.7 243.4c-.5 0-1 .4-1.2.9l.1-.8h-1c0 .2-.1.4-.1.6l-.7 3.7h1.1l.4-1.9c.1-.7.5-1.4 1.3-1.4.1 0 .3 0 .4.1l.2-1.1c-.2 0-.3-.1-.5-.1z" id="WL_932_SG_7-Gipfel-Tour_Flumserberg_svg__path100"/><path id="WL_932_SG_7-Gipfel-Tour_Flumserberg_svg__polygon102" d="m264 247.8 1.3-6.2h-1.1l-1.3 6.2z"/><path d="M267.6 243.4c-.5 0-1 .1-1.4.3l-.1.9c.4-.2.9-.3 1.4-.3.4 0 .8.1.8.5v.4h-.4c-1 0-2.6.1-2.6 1.5 0 .8.5 1.2 1.3 1.2.6 0 1-.3 1.4-.8l-.1.6h.9c.1-.8.5-2.5.5-3-.1-1-.9-1.3-1.7-1.3zm-.8 3.6c-.3 0-.6-.1-.6-.4 0-.7.9-.8 1.4-.8h.4c-.1.7-.4 1.2-1.2 1.2z" id="WL_932_SG_7-Gipfel-Tour_Flumserberg_svg__path104"/><path d="M272.9 243.4c-.5 0-.9.2-1.2.5l.1-.4h-1.1c0 .1-.1.4-.1.6l-.8 3.6h1.1l.4-2.1c.1-.6.4-1.3 1.2-1.4.4 0 .6.2.6.6 0 .3-.1.6-.1.9l-.4 2h1.1l.4-2.1c.1-.3.1-.6.1-.9 0-.8-.5-1.3-1.3-1.3z" id="WL_932_SG_7-Gipfel-Tour_Flumserberg_svg__path106"/><path d="M278.4 244c-.3-.4-.8-.6-1.3-.6-1.4 0-2.1 1.4-2.1 2.7 0 .9.5 1.8 1.5 1.7.6 0 1-.3 1.4-.7l-.1.6h1c0-.2.1-.6.1-.9l1.1-5.2h-1.1zm-1.6 2.9c-.5 0-.7-.6-.7-1 0-.6.4-1.7 1.1-1.7.6 0 .8.5.8 1 0 .8-.4 1.7-1.2 1.7z" id="WL_932_SG_7-Gipfel-Tour_Flumserberg_svg__path108"/><path d="M282.8 243.6c0 1.5 2 1.3 2 2.4 0 .6-.5.9-1.1.9-.5 0-1-.2-1.4-.4l-.3 1c.5.2 1.1.3 1.6.3 1.3 0 2.3-.5 2.3-1.9 0-1.6-2-1.5-2-2.4 0-.5.5-.7 1-.7.4 0 .9.1 1.2.3l.3-.9c-.5-.2-1-.2-1.5-.2-1.1-.2-2.1.4-2.1 1.6z" id="WL_932_SG_7-Gipfel-Tour_Flumserberg_svg__path110"/><path d="M289.3 244.1c.3 0 .6.1.8.2l.3-.9c-.3-.1-.7-.2-1.1-.2-1.5 0-2.5 1.1-2.5 2.6 0 1.1.7 1.8 1.8 1.8.4 0 .7 0 1.1-.2l.1-.9c-.3.1-.6.2-.9.2-.8 0-.9-.5-.9-1.1-.1-.6.4-1.5 1.3-1.5z" id="WL_932_SG_7-Gipfel-Tour_Flumserberg_svg__path112"/><path d="M293.4 243.3c-.5 0-.9.2-1.2.5l.5-2.3h-1.1l-1.3 6.2h1.1l.4-2.1c.1-.6.4-1.3 1.2-1.4.4 0 .6.2.6.6 0 .3-.1.6-.1.9l-.4 2h1.1l.4-2.1c.1-.3.1-.6.1-.9 0-.9-.5-1.4-1.3-1.4z" id="WL_932_SG_7-Gipfel-Tour_Flumserberg_svg__path114"/><path id="WL_932_SG_7-Gipfel-Tour_Flumserberg_svg__polygon116" d="m300.1 246.5-.3-3.2h-1.2l-1.5 3.2-.4-3.2h-1.1l.6 4.3h1.3l1.5-3.3.3 3.2h1.2l2.3-4.2h-1.1l-1.6 3.2z"/><path d="M305 243.2c-1.4 0-2.4 1.3-2.4 2.6s.8 1.8 2 1.8c.5 0 .9-.1 1.3-.2l.1-.9c-.4.2-.8.3-1.3.3-.8 0-1.2-.3-1.2-1.1h3c.1-.3.1-.6.1-.9.2-1.1-.5-1.6-1.6-1.6zm.7 1.8h-1.9c.2-.6.5-1 1.2-1 .5 0 .7.3.7.7v.3z" id="WL_932_SG_7-Gipfel-Tour_Flumserberg_svg__path118"/><path id="WL_932_SG_7-Gipfel-Tour_Flumserberg_svg__polygon120" d="M308.2 242.5h1.1l.2-1.1-1.1.1z"/><path id="WL_932_SG_7-Gipfel-Tour_Flumserberg_svg__polygon122" d="M309.1 243.3H308l-.9 4.2h1.1z"/><path id="WL_932_SG_7-Gipfel-Tour_Flumserberg_svg__polygon124" d="m309.3 246.6-.2.9h3.6l.1-.9h-2.1l2.6-2.5.1-.9-3.3.1-.2.8h2z"/></g><g id="WL_932_SG_7-Gipfel-Tour_Flumserberg_svg__Ziffer" transform="translate(-190.2 -181.7)"><g id="WL_932_SG_7-Gipfel-Tour_Flumserberg_svg__g142"><g id="WL_932_SG_7-Gipfel-Tour_Flumserberg_svg__g130"><path class="WL_932_SG_7-Gipfel-Tour_Flumserberg_svg__st1" id="WL_932_SG_7-Gipfel-Tour_Flumserberg_svg__polygon128" d="m357.1 310.2-29.6 24-27.8-34.7 29.5-23.8z"/></g><g id="WL_932_SG_7-Gipfel-Tour_Flumserberg_svg__g140"><path d="m299.7 299.5 27.8 34.7 29.7-23.9-27.9-34.6m-13.4 14.8c-.2-.3-.2-.7.1-.9.3-.3.7-.2.9.1l.7.9-1 .8zm-3 5.3c-.7-.9-1.1-1.9-1.4-2.9 2.3.5 4 .1 5.6-1.2l1.8-1.5 1.5 1.9-2 1.6c-1.5 1.2-2.3 2.5-2.5 4.5-1.1-.6-2.1-1.3-3-2.4zm6.9-2.6 1.8 2.2-.6.3c-.2.1-.3.3-.4.5l-1.8-2.2zm6.8 14.5 2 .4v2.1zm9 11.9c.2.2.2.6-.1.8-.3.2-.6.2-.8-.1l-.9-1.1.9-.7zm-2.6-3.3-.9.7-.9-1.1v-1.7zm-4.4-5.5v1.7l-4.3-5.3 1.7.3zm-5.5-6.7-1.7-.3-.9-1.1.9-.7zm-3.4-4.2-.9.7-.9-1.1c-.2-.2-.2-.6.1-.8.3-.2.6-.2.8.1zm17.4 18.3c.3.3.2.8-.1 1-.3.3-.8.2-1-.1l-.8-1 1.2-.9zm-2.6-3.1-1.2 1-2-2.5v-2.3zm-8.4-10.4-2.3-.4-2-2.5 1.2-1zm-4.9-6-1.2 1-.8-1c-.3-.3-.2-.8.1-1 .3-.3.8-.2 1 .1zm20.4 22.4c-.3.3-.7.2-.9-.1l-2.2-2.7.6-.3c.2-.1.3-.3.4-.5l2.2 2.7c.2.3.2.7-.1.9zM339 316c.5.6.5 1.2-.2 1.7-.6.5-1.3.4-1.7-.2l-.5-.6 1.9-1.5zm-2.2-2.7-1.9 1.5-3.5-4.3v-1.9l1.8.3zm-8.1-10v1.9l-1.8-.4-3.5-4.3 1.9-1.5zm-5.2-6.4-1.9 1.5-.5-.6c-.5-.6-.5-1.2.2-1.7.6-.5 1.3-.4 1.7.2zm17.3 18.3c.3.3.2.8-.1 1-.3.3-.8.2-1-.1l-.8-1 1.2-1zm-2.5-3.2-1.2.9-3.2-3.9 2.3.4zm-4.8-5.9-2-.4v-2.1zm-4.7-5.8v2.3l-3.2-3.9 1.2-.9zm-3.8-4.7-1.2.9-.8-1c-.3-.3-.2-.8.1-1 .3-.3.8-.2 1 .1zm17.1 18.7c.2.2.2.6-.1.8-.3.2-.6.2-.8-.1l-.9-1.1.9-.7zm-2.6-3.3-.9.7-1.7-2.1 1.7.3zm-3.6-4.4-1.7-.3-2.7-3.3v-1.7zm-7.1-8.7v1.7l-1.7-2.1.9-.7zm-2.6-3.3-.9.7-.9-1.1c-.2-.2-.2-.6.1-.8.3-.2.6-.2.8.1z" id="WL_932_SG_7-Gipfel-Tour_Flumserberg_svg__path132" style="fill:#008b55"/><g id="WL_932_SG_7-Gipfel-Tour_Flumserberg_svg__g138"><g id="WL_932_SG_7-Gipfel-Tour_Flumserberg_svg__g136"><path d="M341 316.5c.3-.3.5-.6.5-.9.3.1.6 0 .9-.2.5-.4.5-1 .2-1.4l-.9-1.1.2-.1c.1-.1.1-.2 0-.3l-1.5-1.8c-.1-.1-.2-.1-.3 0l-.2.1-.5-.6.2-.1c.1-.1.1-.2 0-.3l-2.3-2.8-.7-.1-5-6.2v-.7l-2.3-2.8c-.1-.1-.2-.1-.3 0l-.2.1-.5-.6.2-.1c.1-.1.1-.2 0-.3l-1.5-1.8c-.1-.1-.2-.1-.3 0l-.2.1-.9-1.1c-.4-.4-.9-.5-1.4-.1-.3.2-.4.5-.4.8-.3-.1-.7 0-1 .3-.4.3-.5.8-.4 1.1-.1 0-.3-.1-.4-.1l-1.9-2.4 1-.8-2.1-2.6-1 .8-.7-.9c-.4-.5-1-.5-1.5-.1s-.6 1.1-.2 1.5l.7.9c-1.4.9-3.3 1.1-5.5.4.2 1.4.7 2.8 1.7 4 1.1 1.4 2.4 2.2 4 2.7.1-1.7.7-3.3 2-4.5l1.9 2.4v.4c-.3-.1-.8-.1-1.2.2-.3.3-.5.6-.5.9-.3-.1-.6 0-.9.2-.5.4-.5 1-.2 1.4l.9 1.1-.2.1c-.1.1-.1.2 0 .3l1.5 1.8c.1.1.2.1.3 0l.2-.1.5.6-.2.1c-.1.1-.1.2 0 .3l2.3 2.8.7.1 5 6.1v.7l2.3 2.8c.1.1.2.1.3 0l.2-.1.5.6-.2.1c-.1.1-.1.2 0 .3l1.5 1.8c.1.1.2.1.3 0l.2-.1.9 1.1c.4.4.9.5 1.4.1.3-.2.4-.5.4-.8.3.1.7 0 1-.3.4-.3.5-.8.4-1.1.1 0 .3.1.4.1l2.3 2.8c.4.5 1.1.6 1.6.2.5-.4.6-1.1.2-1.6L340 317v-.4c.1.3.6.2 1-.1zm1.1-2.2c.2.2.2.6-.1.8-.3.2-.6.2-.8-.1l-.9-1.1.9-.7zm-2.6-3.3-.9.7-1.7-2.1 1.7.3zm-8.1-.5v-1.9l1.8.3 3.5 4.3-1.9 1.5zm3.1 4.6-1.2 1-2-2.5v-2.3zm-.5-6 2.3.4 2 2.5-1.2.9zm-2.4-7.8 4.3 5.3-1.7-.3-2.7-3.3zm-.1 2.4 2 2.4-2-.4zm-2.2-6 1.8 2.3-.1 5.7-1.9-.4zm-.5.2v1.7l-1.7-2.1.9-.7zm-5.5 2.6 1.9-1.5 3.5 4.3v1.9l-1.8-.4zm2.8 4.2-2.3-.4-2-2.5 1.2-1zm-.5-6 1.2-.9 2 2.5v2.3zm-1-5.2c.3-.2.6-.2.8.1l.9 1.1-.9.7-.9-1.1c-.2-.3-.2-.6.1-.8zm-1.4 1.1c.3-.3.8-.2 1 .1l.8 1-1.2.9-.8-1c-.2-.3-.2-.8.2-1zm-.2 1.7.5.6-1.9 1.5-.5-.6c-.5-.6-.5-1.2.2-1.7.6-.6 1.2-.4 1.7.2zm-7.1-5.8c-.2-.3-.2-.7.1-.9.3-.3.7-.2.9.1l.7.9-1 .8zm.1 7.6c-1.2-.5-2.2-1.2-3.1-2.3-.7-.9-1.1-1.9-1.4-2.9 2.3.5 4 .1 5.6-1.2l1.8-1.5 1.5 1.9-2 1.6c-1.3 1.1-2.2 2.4-2.4 4.4zm2.8-4.1 1-.8 1.8 2.2-.6.3c-.2.1-.3.3-.4.5zm.6 3.6c.3-.3.8-.2 1 .1l.8 1-1.2 1-.8-1c-.2-.4-.1-.8.2-1.1zm-1.4 1.9c-.2-.2-.2-.6.1-.8.3-.2.6-.2.8.1l.9 1.1-.9.7zm1.9 3.2-1.2-1.4 8.1-6.5 1.2 1.4zm.7 0 .9-.7 1.7 2.1-1.7-.3zm7.9 9.8-4.3-5.3 1.7.3 2.7 3.3zm.1-2.4-2-2.4 2 .4zm2.2 6-1.9-2.3.1-5.6 1.9.4zm-7.7-9.6-1.8-2.3 15.8 3 1.9 2.3zm8.2 9.4v-1.7l1.7 2.1-.9.7zm1.9 3.2-1.2-1.4 8.1-6.5 1.2 1.4zm2.3 1.2c-.3.2-.6.2-.8-.1l-.9-1.1.9-.7.9 1.1c.2.3.2.6-.1.8zm1.4-1.1c-.3.3-.8.2-1-.1l-.8-1 1.2-.9.8 1c.2.3.2.8-.2 1zm.2-1.7-.5-.6 1.9-1.5.5.6c.5.6.5 1.2-.2 1.7-.6.5-1.2.4-1.7-.2zm4.6 2.7c.2.3.2.7-.1.9-.3.3-.7.2-.9-.1l-2.2-2.7.6-.3c.2-.1.3-.3.4-.5zm-2-4.1-.8-1 1.2-1 .8 1c.3.3.2.8-.1 1-.4.4-.9.3-1.1 0z" id="WL_932_SG_7-Gipfel-Tour_Flumserberg_svg__path134"/></g></g></g></g></g></svg>