<svg xmlns="http://www.w3.org/2000/svg" width="580" height="552" viewBox="-10 -286 580 552"><path d="M308-234c0-23 19-42 42-42s42 19 42 42-19 42-42 42-42-19-42-42zM293-90c26 41 71 66 119 66h8c16 0 28-12 28-28 0-15-12-28-28-28h-8c-29 0-56-15-71-39l-29-47c-10-16-28-26-47-26-16 0-32 7-42 19l-69 80c-9 11-14 24-14 38 0 20 10 39 27 50l46 28c24 15 39 42 39 71v50c0 15 13 28 28 28 16 0 28-13 28-28V94c0-48-25-93-66-119l-3-2 54-63zM31 63c21-21 49-31 81-31s60 10 81 31 31 49 31 81-10 60-31 81-49 31-81 31-60-10-81-31-31-49-31-81 10-60 31-81zm336 0c21-21 49-31 81-31s60 10 81 31 31 49 31 81-10 60-31 81-49 31-81 31-60-10-81-31-31-49-31-81 10-60 31-81z" fill="#1e3050"/></svg>