<svg xmlns="http://www.w3.org/2000/svg" width="375" height="599" viewBox="19 -290 375 599"><path d="M192-168c31 0 56-25 56-56s-25-56-56-56-56 25-56 56 25 56 56 56zM105-20l23-23v70c0 28 12 54 34 73l71 61c6 5 10 12 11 20l12 88c3 17 19 29 37 27 17-3 29-19 27-36l-13-88c-3-24-15-45-32-60l-35-29V-33l4 5c18 23 46 36 75 36h33c18 0 32-14 32-32s-14-32-32-32h-33c-10 0-19-4-25-12l-18-22c-23-29-58-46-95-46-32 0-63 13-86 36L60-65C42-47 32-23 32 3v37c0 18 14 32 32 32s32-14 32-32V3c0-9 3-17 9-23zm13 179c-2 6-4 10-8 14l-69 68c-12 13-12 33 0 46 13 12 33 12 46 0l68-69c12-11 20-25 24-41l3-8-46-39c-3-2-5-4-8-7l-10 36z" fill="#1e3050"/></svg>