<svg xmlns="http://www.w3.org/2000/svg" width="439" height="584" viewBox="-13 -290 439 584"><path d="M257-280c30 0 56 25 56 56s-26 56-56 56c-31 0-56-25-56-56s25-56 56-56zM124-72c-4 0-7 2-8 5L94-12C88 4 69 12 53 6 36-1 28-19 35-36l22-55c11-27 37-45 67-45h97c28 0 55 15 69 40l33 56h61c18 0 32 14 32 32s-14 32-32 32h-61c-23 0-44-12-55-32l-10-17-21 71 75 22c28 8 42 39 30 66l-56 127c-7 16-26 23-42 16-17-7-24-26-17-42l50-111-96-29c-33-9-52-43-44-76l23-91h-36zm-8 181c13 15 30 26 51 32l5 2-7 19c-6 16-16 31-30 42l-82 68c-14 11-34 9-45-4-11-14-9-34 4-45l83-68c4-4 7-9 9-14l12-32z" fill="#1e3050"/></svg>