<svg xmlns="http://www.w3.org/2000/svg" width="436" height="600" viewBox="-10 -290 436 600"><path d="M192-280c31 0 56 25 56 56s-25 56-56 56-56-25-56-56 25-56 56-56zM128-74c0-34 28-62 62-62 20 0 39 8 54 22l48 49c6 6 14 9 22 9h38c6 0 11 2 16 4v-76c0-13 11-24 24-24s24 11 24 24v400c0 13-11 24-24 24s-24-11-24-24V4c-5 2-10 4-16 4h-38c-25 0-49-10-67-28l-7-7V83l34 29c18 15 30 36 33 59l13 89c2 17-10 33-28 36-17 2-33-10-36-27l-12-89c-1-7-5-14-11-19l-72-62c-21-18-33-44-33-72V-74zm-5 203 7 7 45 38c-3 9-8 17-14 24l-72 87c-12 13-32 15-45 4-14-12-16-32-5-45l73-87c2-3 4-7 6-11l5-17zM0-88c0-35 29-64 64-64 18 0 32 14 32 32V8c0 18-14 32-32 32H32C14 40 0 26 0 8v-96z" fill="#1e3050"/></svg>