<?xml version="1.0" encoding="UTF-8" standalone="no"?>
<!-- Created with Inkscape (http://www.inkscape.org/) -->

<svg
   width="128"
   height="128"
   viewBox="0 0 33.866666 33.866666"
   version="1.1"
   id="svg5"
   xml:space="preserve"
   sodipodi:docname="gutkato_rozo_ruĝa.svg"
   inkscape:version="1.2.2 (b0a8486541, 2022-12-01)"
   xmlns:inkscape="http://www.inkscape.org/namespaces/inkscape"
   xmlns:sodipodi="http://sodipodi.sourceforge.net/DTD/sodipodi-0.dtd"
   xmlns:xlink="http://www.w3.org/1999/xlink"
   xmlns="http://www.w3.org/2000/svg"
   xmlns:svg="http://www.w3.org/2000/svg"
   xmlns:rdf="http://www.w3.org/1999/02/22-rdf-syntax-ns#"
   xmlns:cc="http://creativecommons.org/ns#"
   xmlns:dc="http://purl.org/dc/elements/1.1/"><sodipodi:namedview
     id="namedview15"
     pagecolor="#505050"
     bordercolor="#eeeeee"
     borderopacity="1"
     inkscape:showpageshadow="0"
     inkscape:pageopacity="0"
     inkscape:pagecheckerboard="0"
     inkscape:deskcolor="#505050"
     showgrid="false"
     showguides="true"
     inkscape:zoom="3.6875001"
     inkscape:cx="98.169489"
     inkscape:cy="71.728812"
     inkscape:window-width="1232"
     inkscape:window-height="750"
     inkscape:window-x="48"
     inkscape:window-y="26"
     inkscape:window-maximized="1"
     inkscape:current-layer="layer1" /><title
     id="title4279">Gutkato, rozo ruĝa</title><defs
     id="defs2" /><g
     id="layer1"><path
       style="fill:#ffdb26;fill-opacity:1;stroke:#000000;stroke-width:1.05833;stroke-linecap:round;stroke-linejoin:round;stroke-dasharray:none;paint-order:normal;stop-color:#000000"
       d="M 6.3460128,10.987509 C 6.0131876,8.1033126 6.9112569,5.0355095 7.1713329,3.7040818 c 1.6823697,0.883682 3.1509471,1.8173157 5.1540591,3.4426941 3.460025,-0.9271224 7.675181,-0.4344139 10.458981,0.611344 2.188665,-1.101117 4.320882,-1.7567683 7.249119,-1.9517024 0.321474,1.7913943 -0.0283,5.5961075 -1.06115,7.5149165 1.483302,5.222627 1.500916,12.296756 -0.04318,13.840869 C 24.518229,31.573194 5.6799495,31.273305 4.0639285,25.242152 3.064468,21.512066 4.2865251,13.752064 6.3460128,10.987509 Z"
       id="path236" /><ellipse
       style="fill:#000000;fill-opacity:1;stroke:none;stroke-width:2.11668;stroke-linecap:round;stroke-linejoin:round;stroke-dasharray:none;paint-order:stroke markers fill;stop-color:#000000"
       id="path6982"
       cx="12.96371"
       cy="12.570978"
       rx="1.6752723"
       ry="2.1418331"
       transform="rotate(8)" /><use
       x="0"
       y="0"
       xlink:href="#path6982"
       id="use7712"
       transform="translate(8.953004,0.69247082)"
       style="stroke-width:1.07136" /><path
       style="fill:none;fill-opacity:1;stroke:#000000;stroke-width:0.79375;stroke-linecap:round;stroke-linejoin:round;stroke-dasharray:none;stroke-opacity:1;paint-order:normal;stop-color:#000000"
       d="m 22.889183,18.104059 4.87622,-0.734341"
       id="path7889" /><path
       style="fill:none;fill-opacity:1;stroke:#000000;stroke-width:0.79375;stroke-linecap:round;stroke-linejoin:round;stroke-dasharray:none;stroke-opacity:1;paint-order:normal;stop-color:#000000"
       d="m 22.899838,20.260593 4.684517,0.851137"
       id="path7891" /><path
       style="fill:none;fill-opacity:1;stroke:#000000;stroke-width:0.79375;stroke-linecap:round;stroke-linejoin:round;stroke-dasharray:none;stroke-opacity:1;paint-order:normal;stop-color:#000000"
       d="M 8.2565339,17.019465 5.9675926,15.975012"
       id="path7893" /><path
       style="fill:none;fill-opacity:1;stroke:#000000;stroke-width:0.79375;stroke-linecap:round;stroke-linejoin:round;stroke-dasharray:none;stroke-opacity:1;paint-order:normal;stop-color:#000000"
       d="M 7.7354506,18.902572 5.5452359,18.75928"
       id="path7895" /><g
       id="g9015"
       transform="rotate(2,591.64066,161.57623)"><path
         style="color:#000000;fill:#2ba23c;stroke:#000000;stroke-width:0.529167;stroke-linecap:round;stroke-linejoin:round;stroke-miterlimit:8;stroke-dasharray:none;stroke-opacity:1;paint-order:markers fill stroke"
         d="m 4.3203125,40.621094 c -2.1783713,0.167135 -4.29045749,0.506893 -6.2109375,1.021484 a 0.52916664,0.52916664 0 0 0 -0.3730469,0.648438 0.52916664,0.52916664 0 0 0 0.6464844,0.375 C 5.7570394,40.690098 16.437909,41.494916 21.859375,44.625 a 0.52916664,0.52916664 0 0 0 0.722656,-0.193359 0.52916664,0.52916664 0 0 0 -0.193359,-0.722657 C 17.993023,41.171156 10.855426,40.119687 4.3203125,40.621094 Z"
         id="path1947" /><path
         id="path8969"
         style="fill:#e50013;fill-opacity:1;stroke:#000000;stroke-width:0.527506;stroke-linecap:round;stroke-linejoin:round;stroke-miterlimit:8;stroke-dasharray:none;paint-order:markers fill stroke;stop-color:#000000"
         d="m 19.116865,34.757814 c -0.09809,0.0096 -0.199485,0.04066 -0.306546,0.102468 -0.37855,0.218556 -0.387568,0.565931 -0.446497,0.941548 -0.164506,0.160218 -0.381723,0.51458 -0.386036,0.844773 -0.345365,0.353263 -0.801388,0.501898 -0.801388,1.044175 0,0.457611 0.324687,0.634886 0.633654,0.891316 0.007,0.258022 0.0566,0.493281 0.138295,0.607691 0.09993,0.139954 0.244929,0.220571 0.396268,0.276937 0.08037,0.418134 0.04967,0.813894 0.465913,1.054209 0.353223,0.203933 0.642655,0.0732 0.967988,-0.05635 0.224624,0.07399 0.707411,0.09152 1.008203,-0.112247 0.472168,0.124829 0.826482,0.437305 1.291892,0.1686 0.54395,-0.314049 0.324673,-0.893804 0.587645,-1.44166 1.31e-4,-9e-5 1.79e-4,-2.84e-4 3.1e-4,-3.74e-4 0.170647,-0.118375 0.303375,-0.247569 0.352083,-0.354258 0.01911,-0.04186 0.03284,-0.08453 0.04231,-0.127425 0.314289,-0.264822 0.651948,-0.439833 0.651948,-0.90647 0,-0.406559 -0.256442,-0.592119 -0.530313,-0.808191 0.02832,-0.114568 0.04419,-0.226332 0.03457,-0.326204 -0.02244,-0.233102 -0.303553,-0.792698 -0.71505,-0.907972 -0.04575,-0.315504 -0.09696,-0.599673 -0.423372,-0.788128 -0.416017,-0.240187 -0.743269,-0.0158 -1.145274,0.123677 -0.203443,-0.10119 -0.400805,-0.160374 -0.526546,-0.148308 -0.15061,0.01445 -0.278697,0.082 -0.392132,0.167883 -0.324035,-0.102819 -0.596404,-0.275332 -0.897928,-0.245686 z"
         transform="matrix(1.4960166,0.1438939,-0.14402061,1.4996261,-2.8550356,-15.245416)" /><g
         id="g1192"
         transform="matrix(1.0495246,0,0,1.0496537,4.5414616,2.5557791)"
         style="stroke-width:0.952754"><path
           sodipodi:type="star"
           style="fill:#e50013;fill-opacity:1;stroke:#000000;stroke-width:0.351671;stroke-linecap:round;stroke-linejoin:round;stroke-miterlimit:8;paint-order:markers fill stroke;stop-color:#000000"
           id="path1180"
           inkscape:flatsided="false"
           sodipodi:sides="6"
           sodipodi:cx="20.444601"
           sodipodi:cy="37.690636"
           sodipodi:r1="3.2682688"
           sodipodi:r2="2.614615"
           sodipodi:arg1="1.0471976"
           sodipodi:arg2="1.5707963"
           inkscape:rounded="0.4"
           inkscape:randomized="0"
           d="m 22.078735,40.52104 c -0.570995,0.329664 -0.974806,-0.215789 -1.634134,-0.215789 -0.659328,0 -1.063139,0.545453 -1.634134,0.215788 -0.570995,-0.329664 -0.300525,-0.952101 -0.630189,-1.523096 -0.329664,-0.570995 -1.003946,-0.647979 -1.003946,-1.307307 0,-0.659329 0.674282,-0.736313 1.003946,-1.307308 0.329664,-0.570995 0.05919,-1.193432 0.630189,-1.523096 0.570995,-0.329664 0.974806,0.215789 1.634134,0.215789 0.659328,0 1.06314,-0.545453 1.634135,-0.215789 0.570994,0.329664 0.300524,0.952101 0.630188,1.523096 0.329664,0.570995 1.003946,0.64798 1.003946,1.307308 0,0.659328 -0.674282,0.736312 -1.003946,1.307307 -0.329664,0.570995 -0.05919,1.193432 -0.630189,1.523097 z"
           transform="matrix(1.4254231,0.13708702,-0.13722462,1.4286865,-7.0474739,-16.959112)" /><path
           style="fill:#e50013;fill-opacity:1;stroke:#000000;stroke-width:0.504166;stroke-linecap:round;stroke-linejoin:round;stroke-miterlimit:8;paint-order:markers fill stroke;stop-color:#000000"
           d="m 17.514249,42.166309 c 0,0 0.06161,0.929159 -0.298364,1.25479 -0.466553,0.422052 -1.392621,0.280949 -1.690931,0.108563 -0.409376,-0.236564 -0.740468,-0.901486 -0.997641,-1.18467 -0.248612,-0.273768 -1.050309,-0.301769 -1.368638,-0.853647 -0.224359,-0.388955 -0.139315,-1.612019 0.2711,-2.10706 0.262801,-0.316994 1.07797,-0.549705 1.07797,-0.549705"
           id="path1095"
           sodipodi:nodetypes="csssssc" /><path
           style="fill:#e50013;fill-opacity:1;stroke:#000000;stroke-width:0.504166;stroke-linecap:round;stroke-linejoin:round;stroke-miterlimit:8;paint-order:markers fill stroke;stop-color:#000000"
           d="m 18.856185,37.408636 c 0,0 0.773143,-0.517978 1.234872,-0.368772 0.598453,0.193388 0.9394,1.066669 0.939399,1.411441 0,0.473135 -0.409764,1.092591 -0.5262,1.457105 -0.112569,0.352384 0.26405,1.061306 -0.05429,1.613176 -0.224359,0.388955 -1.325122,0.926771 -1.958657,0.818538 -0.405676,-0.0693 -1.01461,-0.659547 -1.01461,-0.659547"
           id="path1093"
           sodipodi:nodetypes="csssssc" /><path
           style="fill:#e50013;fill-opacity:1;stroke:#000000;stroke-width:0.504166;stroke-linecap:round;stroke-linejoin:round;stroke-miterlimit:8;paint-order:markers fill stroke;stop-color:#000000"
           d="m 14.498999,39.045524 c 0,0 -0.834746,-0.411181 -0.936512,-0.886018 -0.131899,-0.615441 0.453224,-1.347619 0.751534,-1.520005 0.409374,-0.236567 1.150232,-0.191105 1.523841,-0.272434 0.361178,-0.07862 0.786257,-0.759535 1.422923,-0.759535 0.448717,0 1.464438,0.685248 1.687557,1.288522 0.142871,0.386299 -0.06336,1.209252 -0.06336,1.209252"
           id="path1070"
           sodipodi:nodetypes="csssssc" /><path
           style="fill:#e50013;fill-opacity:1;stroke:#000000;stroke-width:0.504166;stroke-linecap:round;stroke-linejoin:round;stroke-miterlimit:8;paint-order:markers fill stroke;stop-color:#000000"
           d="m 18.621728,39.945347 c 0,0 0.535232,0.542079 0.535232,1.137733 0,0.520455 -0.29434,0.741778 -0.555082,0.929722 -0.26902,0.193913 -0.440713,0.739981 -1.085773,0.739981 -0.252355,0 -0.685181,-0.296256 -1.102138,-0.391448 -0.78736,-0.179763 -0.905964,-1.077176 -0.905964,-1.077176"
           id="path1068"
           sodipodi:nodetypes="cssssc" /><path
           style="fill:#e50013;fill-opacity:1;stroke:#000000;stroke-width:0.504166;stroke-linecap:round;stroke-linejoin:round;stroke-miterlimit:8;paint-order:markers fill stroke;stop-color:#000000"
           d="m 16.580469,37.627457 c 0,0 0.115434,-0.529389 0.714075,-0.650109 0.509737,-0.102803 0.843926,-0.03809 1.294242,0.222125 0.287103,0.165911 0.227114,0.590107 0.299149,0.735396 0.112181,0.226255 0.554031,0.37359 0.638502,0.793214 0.159504,0.792396 -0.721095,1.2147 -0.721095,1.2147"
           id="path1066"
           sodipodi:nodetypes="cssssc" /><path
           style="fill:#e50013;fill-opacity:1;stroke:#000000;stroke-width:0.504166;stroke-linecap:round;stroke-linejoin:round;stroke-miterlimit:8;paint-order:markers fill stroke;stop-color:#000000"
           d="m 15.807637,38.102616 c 0,0 -0.495936,-0.450462 -1.060118,-0.216556 -0.4804,0.199169 -0.878216,0.704244 -0.878217,1.224698 0,0.162199 0.173019,0.374085 0.19417,0.534896 0.02121,0.161272 -0.290307,0.295471 -0.126649,0.690945 0.309045,0.74679 1.082926,0.474204 1.082926,0.474204"
           id="path1064"
           sodipodi:nodetypes="cssssc" /><path
           style="fill:#e50013;fill-opacity:1;stroke:#000000;stroke-width:0.504166;stroke-linecap:round;stroke-linejoin:round;stroke-miterlimit:8;paint-order:markers fill stroke;stop-color:#000000"
           d="m 15.60414,39.287143 c 0.194174,0.72533 0.877046,1.419973 1.702333,1.64131 0,0 -0.607408,0.63325 -1.395879,0.454608 -0.422095,-0.09564 -0.749897,-0.34086 -0.906813,-0.612894 -0.489665,-0.848896 0.600359,-1.483024 0.600359,-1.483024 z"
           id="path297"
           sodipodi:nodetypes="ccssc" /><path
           style="fill:#e50013;fill-opacity:1;stroke:#000000;stroke-width:0.504166;stroke-linecap:round;stroke-linejoin:round;stroke-miterlimit:8;paint-order:markers fill stroke;stop-color:#000000"
           d="m 17.689639,38.885076 c -0.72467,-0.194351 -1.56165,-0.182569 -2.165801,0.422129 0,0 -0.340694,-0.787365 0.208113,-1.381502 0.293798,-0.318059 0.765205,-0.386296 1.151518,-0.282691 0.636464,0.170696 0.613845,0.523641 0.80617,1.242064 z"
           id="path1006"
           sodipodi:nodetypes="ccssc" /><path
           style="fill:#e50013;fill-opacity:1;stroke:#000000;stroke-width:0.504166;stroke-linecap:round;stroke-linejoin:round;stroke-miterlimit:8;paint-order:markers fill stroke;stop-color:#000000"
           d="m 17.065173,40.863073 c 0.480709,-0.576518 0.986183,-1.21073 0.691828,-2.01355 0,0 1.06319,-0.111645 1.371227,0.636473 0.164898,0.400494 -0.121464,0.833895 -0.377722,1.14123 -0.422198,0.506345 -0.953192,0.363051 -1.685333,0.235847 z"
           id="path1008"
           sodipodi:nodetypes="ccssc" /></g></g><path
       style="fill:#ffdb26;fill-opacity:1;stroke:#000000;stroke-width:0.79375;stroke-linecap:round;stroke-linejoin:round;stroke-dasharray:none;stroke-opacity:1;paint-order:normal;stop-color:#000000"
       d="m 10.004075,19.121173 c -1.4238886,3.039424 2.342169,4.371724 4.594902,1.690642 3.202672,3.608669 6.496348,1.194297 5.575255,-1.100462"
       id="path7824" /></g><metadata
     id="metadata4277"><rdf:RDF><cc:Work
         rdf:about=""><dc:title>Gutkato, rozo ruĝa</dc:title><dc:creator><cc:Agent><dc:title>Tirifto</dc:title></cc:Agent></dc:creator><dc:subject><rdf:Bag><rdf:li>gutkato</rdf:li><rdf:li>gutkatoj</rdf:li><rdf:li>federujo</rdf:li></rdf:Bag></dc:subject><cc:license
           rdf:resource="http://artlibre.org/licence/lal" /><dc:description>Gutkato, destinita al uzo kiel glumarko aŭ propra bildosigno, ekzemple en Federujo aŭ aliaj retaj komunikiloj.</dc:description><dc:date>2024</dc:date></cc:Work><cc:License
         rdf:about="http://artlibre.org/licence/lal"><cc:permits
           rdf:resource="http://creativecommons.org/ns#Reproduction" /><cc:permits
           rdf:resource="http://creativecommons.org/ns#Distribution" /><cc:permits
           rdf:resource="http://creativecommons.org/ns#DerivativeWorks" /><cc:requires
           rdf:resource="http://creativecommons.org/ns#ShareAlike" /><cc:requires
           rdf:resource="http://creativecommons.org/ns#Notice" /><cc:requires
           rdf:resource="http://creativecommons.org/ns#Attribution" /></cc:License></rdf:RDF></metadata><g
     id="g8935"
     transform="translate(0.98908471,1.545638)" /></svg>
