<?xml version="1.0" encoding="UTF-8" standalone="no"?>
<!-- Created with Inkscape (http://www.inkscape.org/) -->

<svg
   width="128"
   height="128"
   viewBox="0 0 33.866666 33.866666"
   version="1.1"
   id="svg5"
   xml:space="preserve"
   sodipodi:docname="gutkato_purpura.svg"
   inkscape:version="1.2.2 (b0a8486541, 2022-12-01)"
   xmlns:inkscape="http://www.inkscape.org/namespaces/inkscape"
   xmlns:sodipodi="http://sodipodi.sourceforge.net/DTD/sodipodi-0.dtd"
   xmlns:xlink="http://www.w3.org/1999/xlink"
   xmlns="http://www.w3.org/2000/svg"
   xmlns:svg="http://www.w3.org/2000/svg"
   xmlns:rdf="http://www.w3.org/1999/02/22-rdf-syntax-ns#"
   xmlns:cc="http://creativecommons.org/ns#"
   xmlns:dc="http://purl.org/dc/elements/1.1/"><sodipodi:namedview
     id="namedview17"
     pagecolor="#505050"
     bordercolor="#eeeeee"
     borderopacity="1"
     inkscape:showpageshadow="0"
     inkscape:pageopacity="0"
     inkscape:pagecheckerboard="0"
     inkscape:deskcolor="#505050"
     showgrid="false"
     inkscape:zoom="1.3037282"
     inkscape:cx="83.989902"
     inkscape:cy="110.83599"
     inkscape:window-width="1232"
     inkscape:window-height="750"
     inkscape:window-x="48"
     inkscape:window-y="26"
     inkscape:window-maximized="1"
     inkscape:current-layer="g7243" /><title
     id="title4279">Gutkato pura</title><defs
     id="defs2"><linearGradient
       inkscape:collect="always"
       id="linearGradient8699"><stop
         style="stop-color:#ff2626;stop-opacity:0;"
         offset="0"
         id="stop8695" /><stop
         style="stop-color:#6e26ff;stop-opacity:0;"
         offset="0.60226071"
         id="stop8711" /><stop
         style="stop-color:#6e26ff;stop-opacity:1;"
         offset="0.65937889"
         id="stop8707" /><stop
         style="stop-color:#2693ff;stop-opacity:1;"
         offset="0.74224907"
         id="stop8713" /><stop
         style="stop-color:#26ff6e;stop-opacity:1;"
         offset="0.82035089"
         id="stop8703" /><stop
         style="stop-color:#ffed26;stop-opacity:1;"
         offset="0.87777418"
         id="stop8715" /><stop
         style="stop-color:#ff6e26;stop-opacity:1;"
         offset="0.92098421"
         id="stop8705" /><stop
         style="stop-color:#ff2626;stop-opacity:1;"
         offset="0.9605915"
         id="stop8717" /><stop
         style="stop-color:#ff2626;stop-opacity:0;"
         offset="1"
         id="stop8697" /></linearGradient><radialGradient
       inkscape:collect="always"
       xlink:href="#linearGradient8699"
       id="radialGradient8701"
       cx="72.177666"
       cy="13.113784"
       fx="72.177666"
       fy="13.113784"
       r="33.866665"
       gradientUnits="userSpaceOnUse"
       gradientTransform="matrix(0.43750005,0,0,0.43750005,-14.644398,9.0793872)" /></defs><path
     style="fill:#ffdb26;fill-opacity:1;stroke:#000000;stroke-width:1.05833;stroke-linecap:round;stroke-linejoin:round;stroke-dasharray:none;paint-order:normal;stop-color:#000000"
     d="M 6.3460128,10.987509 C 6.0131876,8.1033126 6.9112569,5.0355095 7.1713329,3.7040818 c 1.6823697,0.883682 3.1509471,1.8173157 5.1540591,3.4426941 3.460025,-0.9271224 7.675181,-0.4344139 10.458981,0.611344 2.188665,-1.101117 4.320882,-1.7567683 7.249119,-1.9517024 0.321474,1.7913943 -0.0283,5.5961075 -1.06115,7.5149165 1.483302,5.222627 1.500916,12.296756 -0.04318,13.840869 C 24.518229,31.573194 5.6799495,31.273305 4.0639285,25.242152 3.064468,21.512066 4.2865251,13.752064 6.3460128,10.987509 Z"
     id="path236" /><circle
     style="opacity:0.1;fill:url(#radialGradient8701);fill-opacity:1;stroke:none;stroke-width:1.05833;stroke-linecap:round;stroke-linejoin:round;stroke-opacity:1;stop-color:#000000"
     id="path8693"
     cx="16.933332"
     cy="14.816667"
     r="14.816667" /><path
     style="fill:none;fill-opacity:1;stroke:#000000;stroke-width:0.79375;stroke-linecap:round;stroke-linejoin:round;stroke-dasharray:none;stroke-opacity:1;paint-order:normal;stop-color:#000000"
     d="m 22.889183,18.104059 4.87622,-0.734341"
     id="path7889" /><path
     style="fill:none;fill-opacity:1;stroke:#000000;stroke-width:0.79375;stroke-linecap:round;stroke-linejoin:round;stroke-dasharray:none;stroke-opacity:1;paint-order:normal;stop-color:#000000"
     d="m 22.899838,20.260593 4.684517,0.851137"
     id="path7891" /><path
     style="fill:none;fill-opacity:1;stroke:#000000;stroke-width:0.79375;stroke-linecap:round;stroke-linejoin:round;stroke-dasharray:none;stroke-opacity:1;paint-order:normal;stop-color:#000000"
     d="M 8.2565339,17.019465 5.9675926,15.975012"
     id="path7893" /><path
     style="fill:none;fill-opacity:1;stroke:#000000;stroke-width:0.79375;stroke-linecap:round;stroke-linejoin:round;stroke-dasharray:none;stroke-opacity:1;paint-order:normal;stop-color:#000000"
     d="M 7.7354506,18.902572 5.5452359,18.75928"
     id="path7895" /><metadata
     id="metadata4277"><rdf:RDF><cc:Work
         rdf:about=""><dc:title>Gutkato pura</dc:title><dc:creator><cc:Agent><dc:title>Tirifto</dc:title></cc:Agent></dc:creator><dc:subject><rdf:Bag><rdf:li>gutkato</rdf:li><rdf:li>gutkatoj</rdf:li><rdf:li>federujo</rdf:li></rdf:Bag></dc:subject><cc:license
           rdf:resource="http://artlibre.org/licence/lal" /><dc:description>Gutkato, destinita al uzo kiel glumarko aŭ propra bildosigno, ekzemple en Federujo aŭ aliaj retaj komunikiloj.</dc:description><dc:date>2024</dc:date></cc:Work><cc:License
         rdf:about="http://artlibre.org/licence/lal"><cc:permits
           rdf:resource="http://creativecommons.org/ns#Reproduction" /><cc:permits
           rdf:resource="http://creativecommons.org/ns#Distribution" /><cc:permits
           rdf:resource="http://creativecommons.org/ns#DerivativeWorks" /><cc:requires
           rdf:resource="http://creativecommons.org/ns#ShareAlike" /><cc:requires
           rdf:resource="http://creativecommons.org/ns#Notice" /><cc:requires
           rdf:resource="http://creativecommons.org/ns#Attribution" /></cc:License></rdf:RDF></metadata><path
     style="fill:none;fill-opacity:0.6;stroke:#000000;stroke-width:0.79375;stroke-linecap:round;stroke-linejoin:round;paint-order:markers fill stroke;stop-color:#000000"
     d="m 9.3849149,14.378834 c 0.9021801,-1.154738 2.8479581,-0.902945 3.4061821,0.478707"
     id="path304" /><use
     x="0"
     y="0"
     xlink:href="#path304"
     id="use470"
     transform="translate(8.9530039,0.69247088)" /><path
     style="fill:#c2748e;fill-opacity:1;stroke:#382129;stroke-width:0.79375;stroke-linecap:round;stroke-linejoin:round;stroke-dasharray:none;stroke-opacity:1;paint-order:markers fill stroke;stop-color:#000000"
     d="m 9.5948498,19.024864 c -0.5114313,6.761462 10.9230342,6.853091 11.2916232,0.678656 -1.606805,0.37096 -5.515031,-0.327349 -6.439437,-0.904978 -0.915123,0.48658 -3.469525,0.649045 -4.8521862,0.226322 z"
     id="path2839" /><g
     id="g7271"
     transform="translate(2.2180317,-8.8705534)"
     style="opacity:0.8"><g
       id="g7195"
       transform="translate(-33.580734,12.513202)"
       style="stroke:#800d0d;stroke-opacity:1;fill:#e57373;fill-opacity:1"><g
         id="g7097"
         transform="translate(9.0337451,7.8590196)"
         style="stroke:#800d0d;stroke-opacity:1;fill:#e57373;fill-opacity:1"><path
           sodipodi:type="spiral"
           style="fill:#e57373;fill-opacity:1;fill-rule:evenodd;stroke:#800d0d;stroke-width:1.50041;stroke-linecap:round;stroke-linejoin:round;stroke-dasharray:none;stroke-opacity:1"
           id="path1834"
           sodipodi:cx="44.793747"
           sodipodi:cy="5.9240394"
           sodipodi:expansion="1.34"
           sodipodi:revolution="1.5484091"
           sodipodi:radius="7.1259093"
           sodipodi:argument="-9.4101362"
           sodipodi:t0="0.229"
           d="m 45.409025,5.1502443 c 0.935411,0.122563 1.233094,1.2599949 0.966527,2.0315583 -0.50061,1.4489909 -2.295556,1.8428163 -3.581657,1.2573183 -2.011502,-0.9157368 -2.513649,-3.4842753 -1.547357,-5.3356236 1.366983,-2.61904172 4.794101,-3.23645455 7.25458,-1.8419728 2.400242,1.3603422 3.550743,4.2255532 3.059468,6.8960036"
           transform="matrix(-0.61087412,0.35647324,0.34890344,0.61087413,73.882097,-6.6636759)" /><path
           sodipodi:type="spiral"
           style="fill:#e57373;fill-opacity:1;fill-rule:evenodd;stroke:#800d0d;stroke-width:1.50041;stroke-linecap:round;stroke-linejoin:round;stroke-dasharray:none;stroke-opacity:1"
           id="path7070"
           sodipodi:cx="44.793747"
           sodipodi:cy="5.9240394"
           sodipodi:expansion="1.34"
           sodipodi:revolution="1.5878316"
           sodipodi:radius="7.3700695"
           sodipodi:argument="-9.4101362"
           sodipodi:t0="0.22400001"
           d="m 45.416858,5.1513029 c 0.936679,0.1305436 1.226924,1.2725201 0.953852,2.0443518 -0.512252,1.4478656 -2.313002,1.8298359 -3.597416,1.2340003 -2.00773,-0.9313801 -2.492762,-3.506867 -1.512042,-5.3541128 1.386923,-2.61235359 4.822087,-3.20679951 7.275699,-1.7935471 2.969501,1.7103984 3.873577,5.5729772 2.47553,8.5974539"
           transform="matrix(-0.35079589,0.61415194,0.60759631,0.3545808,57.915673,-16.774807)" /><path
           sodipodi:type="spiral"
           style="fill:#e57373;fill-opacity:1;fill-rule:evenodd;stroke:#800d0d;stroke-width:1.50041;stroke-linecap:round;stroke-linejoin:round;stroke-dasharray:none;stroke-opacity:1"
           id="path7072"
           sodipodi:cx="44.793747"
           sodipodi:cy="5.9240394"
           sodipodi:expansion="1.34"
           sodipodi:revolution="1.6133507"
           sodipodi:radius="7.5292273"
           sodipodi:argument="-9.4101362"
           sodipodi:t0="0.20057641"
           d="m 45.195352,5.1471069 c 0.873369,-0.092593 1.361914,0.8984278 1.271442,1.6417489 -0.175749,1.4439563 -1.776035,2.1478769 -3.077307,1.851821 -2.069404,-0.4708153 -3.025871,-2.7973477 -2.470999,-4.719802 0.792786,-2.7467512 3.930218,-3.97981751 6.527065,-3.12693541 3.470177,1.13970971 4.999212,5.15624191 3.816792,8.47379061 -0.208861,0.5860096 -0.493322,1.144598 -0.8422,1.659599"
           transform="matrix(0.00327782,0.70726913,0.70348424,0.00327783,39.060828,-17.561511)" /></g><path
         style="opacity:1;fill:#e57373;fill-opacity:1;stroke:#800d0d;stroke-width:1.00542;stroke-linecap:round;stroke-linejoin:round;stroke-dasharray:none;stroke-opacity:1;stop-color:#000000"
         d="m 55.972081,26.001101 c -2.119513,-2.119513 -0.342903,-3.551323 0.332755,-4.226982"
         id="path7188"
         sodipodi:nodetypes="cc" /></g><g
       id="g7207"
       transform="translate(-30.629525,15.350192)"><g
         id="g7203"
         transform="translate(9.0337451,7.8590196)"
         style="fill:#e57373;fill-opacity:1;stroke:#800d0d;stroke-opacity:1"><path
           sodipodi:type="spiral"
           style="fill:#e57373;fill-opacity:1;fill-rule:evenodd;stroke:#800d0d;stroke-width:1.50041;stroke-linecap:round;stroke-linejoin:round;stroke-dasharray:none;stroke-opacity:1"
           id="path7197"
           sodipodi:cx="44.793747"
           sodipodi:cy="5.9240394"
           sodipodi:expansion="1.34"
           sodipodi:revolution="1.5484091"
           sodipodi:radius="7.1259093"
           sodipodi:argument="-9.4101362"
           sodipodi:t0="0.229"
           d="m 45.409025,5.1502443 c 0.935411,0.122563 1.233094,1.2599949 0.966527,2.0315583 -0.50061,1.4489909 -2.295556,1.8428163 -3.581657,1.2573183 -2.011502,-0.9157368 -2.513649,-3.4842753 -1.547357,-5.3356236 1.366983,-2.61904172 4.794101,-3.23645455 7.25458,-1.8419728 2.400242,1.3603422 3.550743,4.2255532 3.059468,6.8960036"
           transform="matrix(-0.61087412,0.35647324,0.34890344,0.61087413,73.882097,-6.6636759)" /><path
           sodipodi:type="spiral"
           style="fill:#e57373;fill-opacity:1;fill-rule:evenodd;stroke:#800d0d;stroke-width:1.50041;stroke-linecap:round;stroke-linejoin:round;stroke-dasharray:none;stroke-opacity:1"
           id="path7199"
           sodipodi:cx="44.793747"
           sodipodi:cy="5.9240394"
           sodipodi:expansion="1.34"
           sodipodi:revolution="1.5878316"
           sodipodi:radius="7.3700695"
           sodipodi:argument="-9.4101362"
           sodipodi:t0="0.22400001"
           d="m 45.416858,5.1513029 c 0.936679,0.1305436 1.226924,1.2725201 0.953852,2.0443518 -0.512252,1.4478656 -2.313002,1.8298359 -3.597416,1.2340003 -2.00773,-0.9313801 -2.492762,-3.506867 -1.512042,-5.3541128 1.386923,-2.61235359 4.822087,-3.20679951 7.275699,-1.7935471 2.969501,1.7103984 3.873577,5.5729772 2.47553,8.5974539"
           transform="matrix(-0.35079589,0.61415194,0.60759631,0.3545808,57.915673,-16.774807)" /><path
           sodipodi:type="spiral"
           style="fill:#e57373;fill-opacity:1;fill-rule:evenodd;stroke:#800d0d;stroke-width:1.50041;stroke-linecap:round;stroke-linejoin:round;stroke-dasharray:none;stroke-opacity:1"
           id="path7201"
           sodipodi:cx="44.793747"
           sodipodi:cy="5.9240394"
           sodipodi:expansion="1.34"
           sodipodi:revolution="1.6133507"
           sodipodi:radius="7.5292273"
           sodipodi:argument="-9.4101362"
           sodipodi:t0="0.20057641"
           d="m 45.195352,5.1471069 c 0.873369,-0.092593 1.361914,0.8984278 1.271442,1.6417489 -0.175749,1.4439563 -1.776035,2.1478769 -3.077307,1.851821 -2.069404,-0.4708153 -3.025871,-2.7973477 -2.470999,-4.719802 0.792786,-2.7467512 3.930218,-3.97981751 6.527065,-3.12693541 3.470177,1.13970971 4.999212,5.15624191 3.816792,8.47379061 -0.208861,0.5860096 -0.493322,1.144598 -0.8422,1.659599"
           transform="matrix(0.00327782,0.70726913,0.70348424,0.00327783,39.060828,-17.561511)" /></g><path
         style="opacity:1;fill:none;fill-opacity:1;stroke:#800d0d;stroke-width:1.00542;stroke-linecap:round;stroke-linejoin:round;stroke-dasharray:none;stroke-opacity:1;stop-color:#000000"
         d="m 55.972081,26.001101 c -2.119513,-2.119513 -0.342903,-3.551323 0.332755,-4.226982"
         id="path7205"
         sodipodi:nodetypes="cc" /></g></g><g
     id="g7257"
     transform="translate(3.8055319,-8.870553)"
     style="opacity:0.8"><g
       id="g7231"
       transform="matrix(-1,0,0,1,59.836337,12.513202)"
       style="fill:#e57373;fill-opacity:1;stroke:#800d0d;stroke-opacity:1"><g
         id="g7227"
         transform="translate(9.0337451,7.8590196)"
         style="fill:#e57373;fill-opacity:1;stroke:#800d0d;stroke-opacity:1"><path
           sodipodi:type="spiral"
           style="fill:#e57373;fill-opacity:1;fill-rule:evenodd;stroke:#800d0d;stroke-width:1.50041;stroke-linecap:round;stroke-linejoin:round;stroke-dasharray:none;stroke-opacity:1"
           id="path7221"
           sodipodi:cx="44.793747"
           sodipodi:cy="5.9240394"
           sodipodi:expansion="1.34"
           sodipodi:revolution="1.5484091"
           sodipodi:radius="7.1259093"
           sodipodi:argument="-9.4101362"
           sodipodi:t0="0.229"
           d="m 45.409025,5.1502443 c 0.935411,0.122563 1.233094,1.2599949 0.966527,2.0315583 -0.50061,1.4489909 -2.295556,1.8428163 -3.581657,1.2573183 -2.011502,-0.9157368 -2.513649,-3.4842753 -1.547357,-5.3356236 1.366983,-2.61904172 4.794101,-3.23645455 7.25458,-1.8419728 2.400242,1.3603422 3.550743,4.2255532 3.059468,6.8960036"
           transform="matrix(-0.61087412,0.35647324,0.34890344,0.61087413,73.882097,-6.6636759)" /><path
           sodipodi:type="spiral"
           style="fill:#e57373;fill-opacity:1;fill-rule:evenodd;stroke:#800d0d;stroke-width:1.50041;stroke-linecap:round;stroke-linejoin:round;stroke-dasharray:none;stroke-opacity:1"
           id="path7223"
           sodipodi:cx="44.793747"
           sodipodi:cy="5.9240394"
           sodipodi:expansion="1.34"
           sodipodi:revolution="1.5878316"
           sodipodi:radius="7.3700695"
           sodipodi:argument="-9.4101362"
           sodipodi:t0="0.22400001"
           d="m 45.416858,5.1513029 c 0.936679,0.1305436 1.226924,1.2725201 0.953852,2.0443518 -0.512252,1.4478656 -2.313002,1.8298359 -3.597416,1.2340003 -2.00773,-0.9313801 -2.492762,-3.506867 -1.512042,-5.3541128 1.386923,-2.61235359 4.822087,-3.20679951 7.275699,-1.7935471 2.969501,1.7103984 3.873577,5.5729772 2.47553,8.5974539"
           transform="matrix(-0.35079589,0.61415194,0.60759631,0.3545808,57.915673,-16.774807)" /><path
           sodipodi:type="spiral"
           style="fill:#e57373;fill-opacity:1;fill-rule:evenodd;stroke:#800d0d;stroke-width:1.50041;stroke-linecap:round;stroke-linejoin:round;stroke-dasharray:none;stroke-opacity:1"
           id="path7225"
           sodipodi:cx="44.793747"
           sodipodi:cy="5.9240394"
           sodipodi:expansion="1.34"
           sodipodi:revolution="1.6133507"
           sodipodi:radius="7.5292273"
           sodipodi:argument="-9.4101362"
           sodipodi:t0="0.20057641"
           d="m 45.195352,5.1471069 c 0.873369,-0.092593 1.361914,0.8984278 1.271442,1.6417489 -0.175749,1.4439563 -1.776035,2.1478769 -3.077307,1.851821 -2.069404,-0.4708153 -3.025871,-2.7973477 -2.470999,-4.719802 0.792786,-2.7467512 3.930218,-3.97981751 6.527065,-3.12693541 3.470177,1.13970971 4.999212,5.15624191 3.816792,8.47379061 -0.208861,0.5860096 -0.493322,1.144598 -0.8422,1.659599"
           transform="matrix(0.00327782,0.70726913,0.70348424,0.00327783,39.060828,-17.561511)" /></g><path
         style="opacity:1;fill:#e57373;fill-opacity:1;stroke:#800d0d;stroke-width:1.00542;stroke-linecap:round;stroke-linejoin:round;stroke-dasharray:none;stroke-opacity:1;stop-color:#000000"
         d="m 55.972081,26.001101 c -2.119513,-2.119513 -0.342903,-3.551323 0.332755,-4.226982"
         id="path7229"
         sodipodi:nodetypes="cc" /></g><g
       id="g7243"
       transform="matrix(-1,0,0,1,56.885128,15.350192)"><g
         id="g7239"
         transform="translate(9.0337451,7.8590196)"
         style="stroke:#800d0d;stroke-opacity:1;fill:#e57373;fill-opacity:1"><path
           sodipodi:type="spiral"
           style="fill:#e57373;fill-opacity:1;fill-rule:evenodd;stroke:#800d0d;stroke-width:1.50041;stroke-linecap:round;stroke-linejoin:round;stroke-dasharray:none;stroke-opacity:1"
           id="path7233"
           sodipodi:cx="44.793747"
           sodipodi:cy="5.9240394"
           sodipodi:expansion="1.34"
           sodipodi:revolution="1.5484091"
           sodipodi:radius="7.1259093"
           sodipodi:argument="-9.4101362"
           sodipodi:t0="0.229"
           d="m 45.409025,5.1502443 c 0.935411,0.122563 1.233094,1.2599949 0.966527,2.0315583 -0.50061,1.4489909 -2.295556,1.8428163 -3.581657,1.2573183 -2.011502,-0.9157368 -2.513649,-3.4842753 -1.547357,-5.3356236 1.366983,-2.61904172 4.794101,-3.23645455 7.25458,-1.8419728 2.400242,1.3603422 3.550743,4.2255532 3.059468,6.8960036"
           transform="matrix(-0.61087412,0.35647324,0.34890344,0.61087413,73.882097,-6.6636759)" /><path
           sodipodi:type="spiral"
           style="fill:#e57373;fill-opacity:1;fill-rule:evenodd;stroke:#800d0d;stroke-width:1.50041;stroke-linecap:round;stroke-linejoin:round;stroke-dasharray:none;stroke-opacity:1"
           id="path7235"
           sodipodi:cx="44.793747"
           sodipodi:cy="5.9240394"
           sodipodi:expansion="1.34"
           sodipodi:revolution="1.5878316"
           sodipodi:radius="7.3700695"
           sodipodi:argument="-9.4101362"
           sodipodi:t0="0.22400001"
           d="m 45.416858,5.1513029 c 0.936679,0.1305436 1.226924,1.2725201 0.953852,2.0443518 -0.512252,1.4478656 -2.313002,1.8298359 -3.597416,1.2340003 -2.00773,-0.9313801 -2.492762,-3.506867 -1.512042,-5.3541128 1.386923,-2.61235359 4.822087,-3.20679951 7.275699,-1.7935471 2.969501,1.7103984 3.873577,5.5729772 2.47553,8.5974539"
           transform="matrix(-0.35079589,0.61415194,0.60759631,0.3545808,57.915673,-16.774807)" /><path
           sodipodi:type="spiral"
           style="fill:#e57373;fill-opacity:1;fill-rule:evenodd;stroke:#800d0d;stroke-width:1.50041;stroke-linecap:round;stroke-linejoin:round;stroke-dasharray:none;stroke-opacity:1"
           id="path7237"
           sodipodi:cx="44.793747"
           sodipodi:cy="5.9240394"
           sodipodi:expansion="1.34"
           sodipodi:revolution="1.6133507"
           sodipodi:radius="7.5292273"
           sodipodi:argument="-9.4101362"
           sodipodi:t0="0.20057641"
           d="m 45.195352,5.1471069 c 0.873369,-0.092593 1.361914,0.8984278 1.271442,1.6417489 -0.175749,1.4439563 -1.776035,2.1478769 -3.077307,1.851821 -2.069404,-0.4708153 -3.025871,-2.7973477 -2.470999,-4.719802 0.792786,-2.7467512 3.930218,-3.97981751 6.527065,-3.12693541 3.470177,1.13970971 4.999212,5.15624191 3.816792,8.47379061 -0.208861,0.5860096 -0.493322,1.144598 -0.8422,1.659599"
           transform="matrix(0.00327782,0.70726913,0.70348424,0.00327783,39.060828,-17.561511)" /></g><path
         style="opacity:1;fill:none;fill-opacity:1;stroke:#800d0d;stroke-width:1.00542;stroke-linecap:round;stroke-linejoin:round;stroke-dasharray:none;stroke-opacity:1;stop-color:#000000"
         d="m 55.972081,26.001101 c -2.119513,-2.119513 -0.342903,-3.551323 0.332755,-4.226982"
         id="path7241"
         sodipodi:nodetypes="cc" /></g></g><path
     style="fill:#ffffff;fill-opacity:1;stroke:none;stroke-width:0.622592;stroke-linecap:round;stroke-linejoin:round;stroke-dasharray:none;stroke-opacity:1;paint-order:markers fill stroke;stop-color:#000000"
     id="path2893"
     d="m 17.272345,21.517428 -1.048133,-1.81542 2.096266,0 z"
     transform="matrix(0.84787223,0.059289,-0.059289,0.84787223,4.7120143,1.8917128)" /><use
     x="0"
     y="0"
     xlink:href="#path2893"
     id="use2895"
     transform="translate(-6.2774815,-0.46438696)" /><path
     style="fill:none;fill-opacity:1;stroke:#382226;stroke-width:0.79375;stroke-linecap:round;stroke-linejoin:round;stroke-dasharray:none;stroke-opacity:1;paint-order:markers fill stroke;stop-color:#000000"
     d="m 21.151185,19.65051 c -1.761637,0.406706 -5.529568,-0.118013 -6.704149,-0.851968 -1.099304,0.58451 -3.73403,0.580351 -5.1166907,0.157628"
     id="path1289" /><path
     sodipodi:type="star"
     style="fill:#fff6e5;fill-opacity:1;stroke:#d1cabc;stroke-width:0.924954;stroke-linecap:round;stroke-linejoin:round;stroke-opacity:1;paint-order:markers fill stroke;stop-color:#000000;opacity:0.8"
     id="path1779"
     inkscape:flatsided="false"
     sodipodi:sides="4"
     sodipodi:cx="10.937749"
     sodipodi:cy="14.307776"
     sodipodi:r1="3.2374179"
     sodipodi:r2="1.2949672"
     sodipodi:arg1="1.5707963"
     sodipodi:arg2="2.3561945"
     inkscape:rounded="0"
     inkscape:randomized="0"
     d="m 10.937749,17.545194 -0.91568,-2.321737 -2.321738,-0.91568 2.321738,-0.915681 0.91568,-2.321737 0.91568,2.321737 2.321738,0.91568 -2.321738,0.915681 z"
     transform="matrix(0.85815098,0,0,0.85815098,16.961227,13.433774)" /><path
     sodipodi:type="star"
     style="opacity:0.8;fill:#fff6e5;fill-opacity:1;stroke:#d1cabc;stroke-width:0.924954;stroke-linecap:round;stroke-linejoin:round;stroke-opacity:1;paint-order:markers fill stroke;stop-color:#000000"
     id="path1011"
     inkscape:flatsided="false"
     sodipodi:sides="4"
     sodipodi:cx="10.937749"
     sodipodi:cy="14.307776"
     sodipodi:r1="3.2374179"
     sodipodi:r2="1.2949672"
     sodipodi:arg1="1.5707963"
     sodipodi:arg2="2.3561945"
     inkscape:rounded="0"
     inkscape:randomized="0"
     d="m 10.937749,17.545194 -0.91568,-2.321737 -2.321738,-0.91568 2.321738,-0.915681 0.91568,-2.321737 0.91568,2.321737 2.321738,0.91568 -2.321738,0.915681 z"
     transform="matrix(0.85815098,0,0,0.85815098,-2.8912463,-6.6561284)" /><path
     sodipodi:type="star"
     style="fill:#fff6e5;fill-opacity:1;stroke:#d1cabc;stroke-width:0.924954;stroke-linecap:round;stroke-linejoin:round;stroke-opacity:1;paint-order:markers fill stroke;stop-color:#000000;opacity:0.8"
     id="path1013"
     inkscape:flatsided="false"
     sodipodi:sides="4"
     sodipodi:cx="10.937749"
     sodipodi:cy="14.307776"
     sodipodi:r1="3.2374179"
     sodipodi:r2="1.2949672"
     sodipodi:arg1="1.5707963"
     sodipodi:arg2="2.3561945"
     inkscape:rounded="0"
     inkscape:randomized="0"
     d="m 10.937749,17.545194 -0.91568,-2.321737 -2.321738,-0.91568 2.321738,-0.915681 0.91568,-2.321737 0.91568,2.321737 2.321738,0.91568 -2.321738,0.915681 z"
     transform="matrix(0.85815098,0,0,0.85815098,-2.9281041,14.132886)" /><path
     sodipodi:type="star"
     style="fill:#fff6e5;fill-opacity:1;stroke:#d1cabc;stroke-width:0.924954;stroke-linecap:round;stroke-linejoin:round;stroke-opacity:1;paint-order:markers fill stroke;stop-color:#000000;opacity:0.8"
     id="path1015"
     inkscape:flatsided="false"
     sodipodi:sides="4"
     sodipodi:cx="10.937749"
     sodipodi:cy="14.307776"
     sodipodi:r1="3.2374179"
     sodipodi:r2="1.2949672"
     sodipodi:arg1="1.5707963"
     sodipodi:arg2="2.3561945"
     inkscape:rounded="0"
     inkscape:randomized="0"
     d="m 10.937749,17.545194 -0.91568,-2.321737 -2.321738,-0.91568 2.321738,-0.915681 0.91568,-2.321737 0.91568,2.321737 2.321738,0.91568 -2.321738,0.915681 z"
     transform="matrix(0.85815098,0,0,0.85815098,14.02584,-1.6330891)" /><path
     sodipodi:type="star"
     style="opacity:0.8;fill:#ffd8b3;fill-opacity:1;stroke:#e8e0d1;stroke-width:3.88449;stroke-linecap:round;stroke-linejoin:round;stroke-opacity:1;paint-order:markers fill stroke;stop-color:#000000"
     id="path2146"
     inkscape:flatsided="false"
     sodipodi:sides="4"
     sodipodi:cx="10.937749"
     sodipodi:cy="14.307776"
     sodipodi:r1="3.2374179"
     sodipodi:r2="1.2949672"
     sodipodi:arg1="1.5707963"
     sodipodi:arg2="2.3561945"
     inkscape:rounded="0"
     inkscape:randomized="0"
     d="m 10.937749,17.545194 -0.91568,-2.321737 -2.321738,-0.91568 2.321738,-0.915681 0.91568,-2.321737 0.91568,2.321737 2.321738,0.91568 -2.321738,0.915681 z"
     transform="matrix(0.20384018,0.01425389,-0.01425389,0.20384018,24.74306,0.580017)" /><path
     sodipodi:type="star"
     style="fill:#ffd8b3;fill-opacity:1;stroke:#e8e0d1;stroke-width:3.88449;stroke-linecap:round;stroke-linejoin:round;stroke-opacity:1;paint-order:markers fill stroke;stop-color:#000000;opacity:0.8"
     id="path1765"
     inkscape:flatsided="false"
     sodipodi:sides="4"
     sodipodi:cx="10.937749"
     sodipodi:cy="14.307776"
     sodipodi:r1="3.2374179"
     sodipodi:r2="1.2949672"
     sodipodi:arg1="1.5707963"
     sodipodi:arg2="2.3561945"
     inkscape:rounded="0"
     inkscape:randomized="0"
     d="m 10.937749,17.545194 -0.91568,-2.321737 -2.321738,-0.91568 2.321738,-0.915681 0.91568,-2.321737 0.91568,2.321737 2.321738,0.91568 -2.321738,0.915681 z"
     transform="matrix(0.20384018,0.01425389,-0.01425389,0.20384018,26.360016,5.8614643)" /><path
     sodipodi:type="star"
     style="opacity:0.8;fill:#ffd8b3;fill-opacity:1;stroke:#e8e0d1;stroke-width:3.88449;stroke-linecap:round;stroke-linejoin:round;stroke-opacity:1;paint-order:markers fill stroke;stop-color:#000000"
     id="path1767"
     inkscape:flatsided="false"
     sodipodi:sides="4"
     sodipodi:cx="10.937749"
     sodipodi:cy="14.307776"
     sodipodi:r1="3.2374179"
     sodipodi:r2="1.2949672"
     sodipodi:arg1="1.5707963"
     sodipodi:arg2="2.3561945"
     inkscape:rounded="0"
     inkscape:randomized="0"
     d="m 10.937749,17.545194 -0.91568,-2.321737 -2.321738,-0.91568 2.321738,-0.915681 0.91568,-2.321737 0.91568,2.321737 2.321738,0.91568 -2.321738,0.915681 z"
     transform="matrix(0.20384018,0.01425389,-0.01425389,0.20384018,0.74242585,0.59468888)" /><path
     sodipodi:type="star"
     style="fill:#ffd8b3;fill-opacity:1;stroke:#e8e0d1;stroke-width:3.88449;stroke-linecap:round;stroke-linejoin:round;stroke-opacity:1;paint-order:markers fill stroke;stop-color:#000000;opacity:0.8"
     id="path1769"
     inkscape:flatsided="false"
     sodipodi:sides="4"
     sodipodi:cx="10.937749"
     sodipodi:cy="14.307776"
     sodipodi:r1="3.2374179"
     sodipodi:r2="1.2949672"
     sodipodi:arg1="1.5707963"
     sodipodi:arg2="2.3561945"
     inkscape:rounded="0"
     inkscape:randomized="0"
     d="m 10.937749,17.545194 -0.91568,-2.321737 -2.321738,-0.91568 2.321738,-0.915681 0.91568,-2.321737 0.91568,2.321737 2.321738,0.91568 -2.321738,0.915681 z"
     transform="matrix(0.20384018,0.01425389,-0.01425389,0.20384018,8.2570132,26.208715)" /><path
     sodipodi:type="star"
     style="opacity:0.8;fill:#ffd8b3;fill-opacity:1;stroke:#c2b59c;stroke-width:3.88449;stroke-linecap:round;stroke-linejoin:round;stroke-opacity:1;paint-order:markers fill stroke;stop-color:#000000"
     id="path1771"
     inkscape:flatsided="false"
     sodipodi:sides="4"
     sodipodi:cx="10.937749"
     sodipodi:cy="14.307776"
     sodipodi:r1="3.2374179"
     sodipodi:r2="1.2949672"
     sodipodi:arg1="1.5707963"
     sodipodi:arg2="2.3561945"
     inkscape:rounded="0"
     inkscape:randomized="0"
     d="m 10.937749,17.545194 -0.91568,-2.321737 -2.321738,-0.91568 2.321738,-0.915681 0.91568,-2.321737 0.91568,2.321737 2.321738,0.91568 -2.321738,0.915681 z"
     transform="matrix(0.20384018,0.01425389,-0.01425389,0.20384018,7.2822366,7.4054291)" /><path
     sodipodi:type="star"
     style="opacity:0.8;fill:#ffd8b3;fill-opacity:1;stroke:#e8e0d1;stroke-width:3.88449;stroke-linecap:round;stroke-linejoin:round;stroke-opacity:1;paint-order:markers fill stroke;stop-color:#000000"
     id="path1773"
     inkscape:flatsided="false"
     sodipodi:sides="4"
     sodipodi:cx="10.937749"
     sodipodi:cy="14.307776"
     sodipodi:r1="3.2374179"
     sodipodi:r2="1.2949672"
     sodipodi:arg1="1.5707963"
     sodipodi:arg2="2.3561945"
     inkscape:rounded="0"
     inkscape:randomized="0"
     d="m 10.937749,17.545194 -0.91568,-2.321737 -2.321738,-0.91568 2.321738,-0.915681 0.91568,-2.321737 0.91568,2.321737 2.321738,0.91568 -2.321738,0.915681 z"
     transform="matrix(0.20384018,0.01425389,-0.01425389,0.20384018,19.280424,20.46862)" /><path
     sodipodi:type="star"
     style="opacity:0.8;fill:#fff2e5;fill-opacity:1;stroke:#e8e0d1;stroke-width:3.88449;stroke-linecap:round;stroke-linejoin:round;stroke-opacity:1;paint-order:markers fill stroke;stop-color:#000000"
     id="path1775"
     inkscape:flatsided="false"
     sodipodi:sides="4"
     sodipodi:cx="10.937749"
     sodipodi:cy="14.307776"
     sodipodi:r1="3.2374179"
     sodipodi:r2="1.2949672"
     sodipodi:arg1="1.5707963"
     sodipodi:arg2="2.3561945"
     inkscape:rounded="0"
     inkscape:randomized="0"
     d="m 10.937749,17.545194 -0.91568,-2.321737 -2.321738,-0.91568 2.321738,-0.915681 0.91568,-2.321737 0.91568,2.321737 2.321738,0.91568 -2.321738,0.915681 z"
     transform="matrix(0.20384018,0.01425389,-0.01425389,0.20384018,9.9034209,16.830244)" /><path
     sodipodi:type="star"
     style="opacity:0.8;fill:#ffd8b3;fill-opacity:1;stroke:#e8e0d1;stroke-width:3.88449;stroke-linecap:round;stroke-linejoin:round;stroke-opacity:1;paint-order:markers fill stroke;stop-color:#000000"
     id="path1777"
     inkscape:flatsided="false"
     sodipodi:sides="4"
     sodipodi:cx="10.937749"
     sodipodi:cy="14.307776"
     sodipodi:r1="3.2374179"
     sodipodi:r2="1.2949672"
     sodipodi:arg1="1.5707963"
     sodipodi:arg2="2.3561945"
     inkscape:rounded="0"
     inkscape:randomized="0"
     d="m 10.937749,17.545194 -0.91568,-2.321737 -2.321738,-0.91568 2.321738,-0.915681 0.91568,-2.321737 0.91568,2.321737 2.321738,0.91568 -2.321738,0.915681 z"
     transform="matrix(0.20384018,0.01425389,-0.01425389,0.20384018,29.359342,9.6490336)" /><path
     sodipodi:type="star"
     style="opacity:0.8;fill:#ffd8b3;fill-opacity:1;stroke:#e8e0d1;stroke-width:3.88449;stroke-linecap:round;stroke-linejoin:round;stroke-opacity:1;paint-order:markers fill stroke;stop-color:#000000"
     id="path1780"
     inkscape:flatsided="false"
     sodipodi:sides="4"
     sodipodi:cx="10.937749"
     sodipodi:cy="14.307776"
     sodipodi:r1="3.2374179"
     sodipodi:r2="1.2949672"
     sodipodi:arg1="1.5707963"
     sodipodi:arg2="2.3561945"
     inkscape:rounded="0"
     inkscape:randomized="0"
     d="m 10.937749,17.545194 -0.91568,-2.321737 -2.321738,-0.91568 2.321738,-0.915681 0.91568,-2.321737 0.91568,2.321737 2.321738,0.91568 -2.321738,0.915681 z"
     transform="matrix(0.20384018,0.01425389,-0.01425389,0.20384018,-0.16821922,21.32597)" /><path
     sodipodi:type="star"
     style="opacity:0.8;fill:#ffd8b3;fill-opacity:1;stroke:#e8e0d1;stroke-width:3.88449;stroke-linecap:round;stroke-linejoin:round;stroke-opacity:1;paint-order:markers fill stroke;stop-color:#000000"
     id="path1782"
     inkscape:flatsided="false"
     sodipodi:sides="4"
     sodipodi:cx="10.937749"
     sodipodi:cy="14.307776"
     sodipodi:r1="3.2374179"
     sodipodi:r2="1.2949672"
     sodipodi:arg1="1.5707963"
     sodipodi:arg2="2.3561945"
     inkscape:rounded="0"
     inkscape:randomized="0"
     d="m 10.937749,17.545194 -0.91568,-2.321737 -2.321738,-0.91568 2.321738,-0.915681 0.91568,-2.321737 0.91568,2.321737 2.321738,0.91568 -2.321738,0.915681 z"
     transform="matrix(0.20384018,0.01425389,-0.01425389,0.20384018,0.89939508,10.406173)" /><path
     sodipodi:type="star"
     style="opacity:0.8;fill:#ffd8b3;fill-opacity:1;stroke:#e8e0d1;stroke-width:3.88449;stroke-linecap:round;stroke-linejoin:round;stroke-opacity:1;paint-order:markers fill stroke;stop-color:#000000"
     id="path1784"
     inkscape:flatsided="false"
     sodipodi:sides="4"
     sodipodi:cx="10.937749"
     sodipodi:cy="14.307776"
     sodipodi:r1="3.2374179"
     sodipodi:r2="1.2949672"
     sodipodi:arg1="1.5707963"
     sodipodi:arg2="2.3561945"
     inkscape:rounded="0"
     inkscape:randomized="0"
     d="m 10.937749,17.545194 -0.91568,-2.321737 -2.321738,-0.91568 2.321738,-0.915681 0.91568,-2.321737 0.91568,2.321737 2.321738,0.91568 -2.321738,0.915681 z"
     transform="matrix(0.20384018,0.01425389,-0.01425389,0.20384018,7.8445158,0.52550657)" /><path
     sodipodi:type="star"
     style="opacity:0.8;fill:#ffd8b3;fill-opacity:1;stroke:#e8e0d1;stroke-width:3.88449;stroke-linecap:round;stroke-linejoin:round;stroke-opacity:1;paint-order:markers fill stroke;stop-color:#000000"
     id="path326"
     inkscape:flatsided="false"
     sodipodi:sides="4"
     sodipodi:cx="10.937749"
     sodipodi:cy="14.307776"
     sodipodi:r1="3.2374179"
     sodipodi:r2="1.2949672"
     sodipodi:arg1="1.5707963"
     sodipodi:arg2="2.3561945"
     inkscape:rounded="0"
     inkscape:randomized="0"
     d="m 10.937749,17.545194 -0.91568,-2.321737 -2.321738,-0.91568 2.321738,-0.915681 0.91568,-2.321737 0.91568,2.321737 2.321738,0.91568 -2.321738,0.915681 z"
     transform="matrix(0.20384018,0.01425389,-0.01425389,0.20384018,30.3658,19.211802)" /><path
     style="opacity:1;fill:#fff2e5;stroke:#000000;stroke-width:1.05833;stroke-linecap:round;stroke-linejoin:round;stroke-dasharray:none;stroke-opacity:1;stop-color:#000000"
     d="M 39.687499,21.39981 H 50.270832 Z"
     id="path327" /></svg>
