<?xml version="1.0" encoding="UTF-8" standalone="no"?>
<!-- Created with Inkscape (http://www.inkscape.org/) -->

<svg
   width="128"
   height="128"
   viewBox="0 0 33.866666 33.866666"
   version="1.1"
   id="svg5"
   xml:space="preserve"
   sodipodi:docname="gutkato_datreveno.svg"
   inkscape:version="1.2.2 (b0a8486541, 2022-12-01)"
   inkscape:export-filename="gutkato_salutas.png"
   inkscape:export-xdpi="96"
   inkscape:export-ydpi="96"
   xmlns:inkscape="http://www.inkscape.org/namespaces/inkscape"
   xmlns:sodipodi="http://sodipodi.sourceforge.net/DTD/sodipodi-0.dtd"
   xmlns:xlink="http://www.w3.org/1999/xlink"
   xmlns="http://www.w3.org/2000/svg"
   xmlns:svg="http://www.w3.org/2000/svg"
   xmlns:rdf="http://www.w3.org/1999/02/22-rdf-syntax-ns#"
   xmlns:cc="http://creativecommons.org/ns#"
   xmlns:dc="http://purl.org/dc/elements/1.1/"><sodipodi:namedview
     id="namedview9395"
     pagecolor="#505050"
     bordercolor="#eeeeee"
     borderopacity="1"
     inkscape:showpageshadow="0"
     inkscape:pageopacity="0"
     inkscape:pagecheckerboard="0"
     inkscape:deskcolor="#505050"
     showgrid="false"
     inkscape:zoom="1.84375"
     inkscape:cx="79.186441"
     inkscape:cy="88.677966"
     inkscape:window-width="1232"
     inkscape:window-height="750"
     inkscape:window-x="48"
     inkscape:window-y="26"
     inkscape:window-maximized="1"
     inkscape:current-layer="g4915"
     showguides="true"><sodipodi:guide
       position="1.3004607,38.434469"
       orientation="0,-1"
       id="guide2081"
       inkscape:locked="false" /></sodipodi:namedview><title
     id="title4279">Gutkato, datreveno</title><defs
     id="defs2" /><path
     id="path236"
     style="fill:#ffdb26;fill-opacity:1;stroke:#000000;stroke-width:1.05833;stroke-linecap:round;stroke-linejoin:round;stroke-dasharray:none;paint-order:normal;stop-color:#000000"
     d="M 10.535567,3.5207153 C 10.147914,4.8207386 8.9573044,7.7874405 9.0095622,10.690304 8.0154143,11.785314 7.0855022,14.030927 6.4257406,16.531807 6.2240111,15.940592 6.0360692,15.449148 5.9218954,15.18822 5.5676856,14.378723 5.217515,13.779893 4.8563274,13.356808 4.1339491,12.510639 3.3665066,12.367339 2.4275352,12.647807 c -0.9389716,0.280467 -1.49875115,0.832641 -1.63607582,1.942 -0.0686619,0.55468 -0.0317375,1.248531 0.11627197,2.1177 0.0740055,0.434584 0.30219405,1.427221 0.60926505,2.453597 0.6377161,2.131546 1.9618151,5.858997 4.5361572,7.414535 3.0027112,5.244642 20.3254814,5.321586 24.5313184,1.115694 1.544094,-1.544112 1.690462,-7.147543 0.719336,-12.48916 1.213623,-1.809894 1.930026,-5.5632386 1.783354,-7.3773277 -2.933359,-0.089247 -5.119283,0.3570392 -7.4042,1.2412678 C 23.013384,7.7559667 18.865654,6.8579933 15.332173,7.446057 13.49569,5.6345298 12.124561,4.5629981 10.535567,3.5207153 Z" /><ellipse
     style="fill:#000000;fill-opacity:1;stroke:none;stroke-width:2.11668;stroke-linecap:round;stroke-linejoin:round;stroke-dasharray:none;paint-order:stroke markers fill;stop-color:#000000"
     id="path6982"
     cx="15.733004"
     cy="12.040848"
     rx="1.6752723"
     ry="2.1418331"
     transform="rotate(10)" /><use
     x="0"
     y="0"
     xlink:href="#path6982"
     id="use7712"
     transform="translate(8.9233832,1.0045043)"
     style="stroke-width:1.07136" /><path
     style="fill:none;fill-opacity:1;stroke:#000000;stroke-width:0.79375;stroke-linecap:round;stroke-linejoin:round;stroke-dasharray:none;stroke-opacity:1;paint-order:normal;stop-color:#000000"
     d="m 25.062694,18.850658 4.898877,-0.563716"
     id="path7889" /><path
     style="fill:none;fill-opacity:1;stroke:#000000;stroke-width:0.79375;stroke-linecap:round;stroke-linejoin:round;stroke-dasharray:none;stroke-opacity:1;paint-order:normal;stop-color:#000000"
     d="m 24.99808,21.00625 4.651959,1.014106"
     id="path7891" /><path
     style="fill:none;fill-opacity:1;stroke:#000000;stroke-width:0.79375;stroke-linecap:round;stroke-linejoin:round;stroke-dasharray:none;stroke-opacity:1;paint-order:normal;stop-color:#000000"
     d="M 10.476811,17.256052 8.2257151,16.132353"
     id="path7893" /><path
     style="fill:none;fill-opacity:1;stroke:#000000;stroke-width:0.79375;stroke-linecap:round;stroke-linejoin:round;stroke-dasharray:none;stroke-opacity:1;paint-order:normal;stop-color:#000000"
     d="M 9.8903258,19.119826 7.7064462,18.900184"
     id="path7895" /><metadata
     id="metadata4277"><rdf:RDF><cc:Work
         rdf:about=""><dc:title>Gutkato, datreveno</dc:title><dc:creator><cc:Agent><dc:title>Tirifto</dc:title></cc:Agent></dc:creator><dc:subject><rdf:Bag><rdf:li>gutkato</rdf:li><rdf:li>gutkatoj</rdf:li><rdf:li>federujo</rdf:li></rdf:Bag></dc:subject><cc:license
           rdf:resource="http://artlibre.org/licence/lal" /><dc:description>Gutkato, destinita al uzo kiel glumarko aŭ propra bildosigno, ekzemple en Federujo aŭ aliaj retaj komunikiloj.</dc:description><dc:date>2024</dc:date></cc:Work><cc:License
         rdf:about="http://artlibre.org/licence/lal"><cc:permits
           rdf:resource="http://creativecommons.org/ns#Reproduction" /><cc:permits
           rdf:resource="http://creativecommons.org/ns#Distribution" /><cc:permits
           rdf:resource="http://creativecommons.org/ns#DerivativeWorks" /><cc:requires
           rdf:resource="http://creativecommons.org/ns#ShareAlike" /><cc:requires
           rdf:resource="http://creativecommons.org/ns#Notice" /><cc:requires
           rdf:resource="http://creativecommons.org/ns#Attribution" /></cc:License></rdf:RDF></metadata><path
     style="fill:#c2748e;fill-opacity:1;stroke:#382129;stroke-width:0.79375;stroke-linecap:round;stroke-linejoin:round;stroke-dasharray:none;stroke-opacity:1;paint-order:markers fill stroke;stop-color:#000000"
     d="m 11.730252,19.594465 c -0.817385,5.341071 10.922078,5.919973 11.261059,1.072315 -1.618771,0.314656 -5.500246,-0.519619 -6.403931,-1.12916 -0.931547,0.454346 -3.490062,0.527565 -4.857128,0.05685 z"
     id="path2839"
     sodipodi:nodetypes="ccccc" /><path
     style="fill:#ffffff;fill-opacity:1;stroke:none;stroke-width:0.529167;stroke-linecap:round;stroke-linejoin:round;stroke-dasharray:none;stroke-opacity:1;paint-order:markers fill stroke;stop-color:#000000"
     id="path2893"
     d="m 20.141567,22.001257 -0.724684,-1.62767 1.771945,0.186239 z" /><use
     x="0"
     y="0"
     xlink:href="#path2893"
     id="use2895"
     transform="translate(-6.2574506,-0.68318504)" /><path
     style="fill:none;fill-opacity:1;stroke:#382226;stroke-width:0.79375;stroke-linecap:round;stroke-linejoin:round;stroke-dasharray:none;stroke-opacity:1;paint-order:markers fill stroke;stop-color:#000000"
     d="m 23.262547,20.600031 c -1.774758,0.344978 -5.522081,-0.31092 -6.670332,-1.08542 -1.119034,0.545788 -3.752009,0.449681 -5.119074,-0.02104"
     id="path1289" /><g
     id="g10107"
     transform="rotate(53.343868,11.162503,18.556218)"><circle
       style="fill:#c2748e;fill-opacity:1;stroke:none;stroke-width:0.891479;stroke-linecap:round;stroke-linejoin:round;paint-order:markers fill stroke;stop-color:#000000"
       id="circle1002"
       cx="21.432327"
       cy="10.351334"
       r="0.33072916"
       transform="matrix(-0.34202014,0.93969262,0.93969262,0.34202014,0,0)" /><path
       id="path978"
       style="fill:#c2748e;fill-opacity:1;stroke:none;stroke-width:1.2795;stroke-linecap:round;stroke-linejoin:round;paint-order:markers fill stroke;stop-color:#000000"
       d="M 2.672936,22.551242 A 0.84504452,0.84504452 0 0 0 3.0422118,23.57034 0.84504452,0.84504452 0 0 0 3.5055487,23.980196 0.84504452,0.84504452 0 0 0 4.588953,23.475646 0.84504452,0.84504452 0 0 0 4.63556,23.264792 0.84504452,0.84504452 0 0 0 4.734815,23.074864 0.84504452,0.84504452 0 0 0 4.2294845,21.991178 0.84504452,0.84504452 0 0 0 3.6100306,22.007718 0.84504452,0.84504452 0 0 0 2.672867,22.551311 Z" /><use
       x="0"
       y="0"
       xlink:href="#circle1002"
       id="use1004"
       transform="translate(-0.27004874,-0.87258957)" /><use
       x="0"
       y="0"
       xlink:href="#circle1002"
       id="use1008"
       transform="translate(0.02459657,-1.6821205)" /><use
       x="0"
       y="0"
       xlink:href="#circle1002"
       id="use1010"
       transform="translate(0.79051461,-2.1719201)"
       style="stroke-width:1.00012;stroke-dasharray:none" /></g><g
     id="g2092"
     transform="rotate(20,21.327759,11.017304)"><path
       style="fill:#ffffff;fill-opacity:1;stroke:none;stroke-width:0.79375;stroke-linecap:round;stroke-linejoin:round;stroke-opacity:1;paint-order:markers fill stroke;stop-color:#000000"
       d="m 15.875,9.7553935 c 2.14309,2.1430895 7.350183,2.1748165 9.524999,0 L 20.6375,0.18521512 Z"
       id="path309"
       sodipodi:nodetypes="cccc" /><path
       style="fill:none;fill-opacity:1;stroke:#cc1000;stroke-width:0.79375;stroke-linecap:round;stroke-linejoin:round;stroke-opacity:1;paint-order:markers fill stroke;stop-color:#000000"
       d="M 21.302869,11.202682 24.435536,8.0700157"
       id="path1071" /><path
       style="fill:none;fill-opacity:1;stroke:#008000;stroke-width:0.793749;stroke-linecap:round;stroke-linejoin:round;stroke-opacity:1;paint-order:markers fill stroke;stop-color:#000000"
       d="M 19.186202,11.202682 23.672285,6.7165996"
       id="path1343" /><path
       style="fill:none;fill-opacity:1;stroke:#000499;stroke-width:0.793749;stroke-linecap:round;stroke-linejoin:round;stroke-opacity:1;paint-order:markers fill stroke;stop-color:#000000"
       d="M 17.61775,10.654468 22.942329,5.32989"
       id="path1345" /><path
       style="fill:none;fill-opacity:1;stroke:#cc1100;stroke-width:0.79375;stroke-linecap:round;stroke-linejoin:round;stroke-opacity:1;paint-order:markers fill stroke;stop-color:#000000"
       d="M 16.348885,9.8066644 22.317308,3.8382423"
       id="path1347" /><path
       style="fill:none;fill-opacity:1;stroke:#008000;stroke-width:0.793748;stroke-linecap:round;stroke-linejoin:round;stroke-opacity:1;paint-order:markers fill stroke;stop-color:#000000"
       d="M 17.58935,6.4495321 21.594881,2.4440023"
       id="path1349" /><path
       style="fill:none;fill-opacity:1;stroke:#000599;stroke-width:0.793751;stroke-linecap:round;stroke-linejoin:round;stroke-opacity:1;paint-order:markers fill stroke;stop-color:#000000"
       d="M 19.644458,2.277757 20.888475,1.0337397"
       id="path1351" /><path
       style="fill:none;fill-opacity:1;stroke:#000599;stroke-width:0.793747;stroke-linecap:round;stroke-linejoin:round;stroke-opacity:1;paint-order:markers fill stroke;stop-color:#000000"
       d="M 23.898866,10.723352 25.079728,9.5424895"
       id="path1353" /><path
       style="fill:none;fill-opacity:1;stroke:#000000;stroke-width:0.79375;stroke-linecap:round;stroke-linejoin:round;stroke-opacity:1;paint-order:markers fill stroke;stop-color:#000000"
       d="m 15.875,9.7553935 c 2.14309,2.1430895 7.350183,2.1748165 9.524999,0 L 20.6375,0.18521512 Z"
       id="path1015"
       sodipodi:nodetypes="cccc" /></g><g
     id="g4915"
     transform="rotate(4,-63.072768,226.22837)"><path
       style="fill:#52c1ff;fill-opacity:1;stroke:#000000;stroke-width:0.79375;stroke-linecap:round;stroke-linejoin:round;stroke-opacity:1;paint-order:markers fill stroke;stop-color:#000000"
       d="m -14.435931,6.236229 c 1.163028,-1.1630284 3.064389,-2.6640796 5.1965117,-2.817159 l 3.6754965,5.1944402"
       id="path1135"
       sodipodi:nodetypes="ccc" /><path
       style="fill:#d7d198;fill-opacity:1;stroke:none;stroke-width:0.79375;stroke-linecap:round;stroke-linejoin:round;stroke-opacity:1;paint-order:markers fill stroke;stop-color:#000000"
       d="m -14.435915,11.134629 8.8718739,2.377211 1.183e-4,-4.898268 -8.8720082,-2.377211 z"
       id="path1130"
       sodipodi:nodetypes="ccccc" /><g
       id="g2607"
       transform="translate(0,-0.0849626)"><path
         style="fill:none;fill-opacity:1;stroke:#c73232;stroke-width:0.79375;stroke-linecap:round;stroke-linejoin:round;stroke-opacity:1;paint-order:markers fill stroke;stop-color:#000000"
         d="m -14.374801,9.5812993 8.7443008,2.3430277"
         id="path1251" /><path
         style="fill:none;fill-opacity:1;stroke:#c73232;stroke-width:0.79375;stroke-linecap:round;stroke-linejoin:round;stroke-opacity:1;paint-order:markers fill stroke;stop-color:#000000"
         d="m -14.374801,7.9937992 8.7443008,2.3430268"
         id="path2603" /></g><path
       style="fill:none;fill-opacity:1;stroke:#000000;stroke-width:0.79375;stroke-linecap:round;stroke-linejoin:round;stroke-opacity:1;paint-order:markers fill stroke;stop-color:#000000"
       d="m -14.435915,11.134629 8.8718739,2.377211 1.183e-4,-4.898268 -8.8720082,-2.377211 z"
       id="path1137"
       sodipodi:nodetypes="ccccc" /><path
       style="fill:#ff7000;fill-opacity:1;stroke:#361800;stroke-width:0.529167;stroke-linecap:round;stroke-linejoin:round;stroke-dasharray:none;stroke-opacity:1;paint-order:markers fill stroke;stop-color:#000000"
       d="m -10.944346,0.96028347 c 0.158524,0.13780293 0.817992,0.14359113 0.918301,-0.0620731 0,0 0.442878,-0.60095947 0.401903,-1.14773202 -0.040344,-0.53835797 -0.57125,-0.82369135 -1.06775,-1.50320565 -0.25811,0.7136067 -0.780121,0.97296107 -0.731918,1.6622927 0.01614,0.23085025 0.09863,0.71966753 0.479464,1.05071807 z"
       id="path4917"
       sodipodi:nodetypes="ccscsc" /><path
       id="rect2723"
       style="fill:#e5e5e5;stroke:#000000;stroke-width:0.529167;stroke-linecap:round;stroke-linejoin:round;paint-order:markers fill stroke;stop-color:#000000"
       d="m -11.244578,1.2936345 c 0.199433,-0.3843902 1.133774,-0.42052285 1.5134217,-0.1058135 0.015798,0.013096 0.037039,0.01652 0.037039,0.037039 v 4.1592539 c 0,0.02052 -0.023525,0.021599 -0.037039,0.037039 -0.3818657,0.4362809 -1.2764267,0.3851105 -1.5134217,0.1058135 -0.01328,-0.015646 -0.03704,-0.016519 -0.03704,-0.037039 V 1.3306739 c 0,-0.02052 0.01652,-0.037039 0.03704,-0.037039 z"
       sodipodi:nodetypes="csssssssc" /><path
       style="fill:#e5e5e5;fill-opacity:1;stroke:#000000;stroke-width:0.529167;stroke-linecap:round;stroke-linejoin:round;stroke-dasharray:none;stroke-opacity:1;paint-order:markers fill stroke;stop-color:#000000"
       d="M -10.471592,0.9301988 V 0.20450723"
       id="path4905" /></g></svg>
