<?xml version="1.0" encoding="UTF-8" standalone="no"?>
<!-- Created with Inkscape (http://www.inkscape.org/) -->

<svg
   width="128"
   height="128"
   viewBox="0 0 33.866666 33.866666"
   version="1.1"
   id="svg5"
   xml:space="preserve"
   sodipodi:docname="gutkato_salutas.svg"
   inkscape:version="1.2.2 (b0a8486541, 2022-12-01)"
   inkscape:export-filename="gutkato_salutas.png"
   inkscape:export-xdpi="96"
   inkscape:export-ydpi="96"
   xmlns:inkscape="http://www.inkscape.org/namespaces/inkscape"
   xmlns:sodipodi="http://sodipodi.sourceforge.net/DTD/sodipodi-0.dtd"
   xmlns:xlink="http://www.w3.org/1999/xlink"
   xmlns="http://www.w3.org/2000/svg"
   xmlns:svg="http://www.w3.org/2000/svg"
   xmlns:rdf="http://www.w3.org/1999/02/22-rdf-syntax-ns#"
   xmlns:cc="http://creativecommons.org/ns#"
   xmlns:dc="http://purl.org/dc/elements/1.1/"><sodipodi:namedview
     id="namedview9395"
     pagecolor="#505050"
     bordercolor="#eeeeee"
     borderopacity="1"
     inkscape:showpageshadow="0"
     inkscape:pageopacity="0"
     inkscape:pagecheckerboard="0"
     inkscape:deskcolor="#505050"
     showgrid="false"
     inkscape:zoom="1.84375"
     inkscape:cx="54.237288"
     inkscape:cy="55.59322"
     inkscape:window-width="1232"
     inkscape:window-height="750"
     inkscape:window-x="48"
     inkscape:window-y="26"
     inkscape:window-maximized="1"
     inkscape:current-layer="svg5" /><title
     id="title4279">Gutkato salutas</title><defs
     id="defs2" /><path
     id="path236"
     style="fill:#ffdb26;fill-opacity:1;stroke:#000000;stroke-width:1.05833;stroke-linecap:round;stroke-linejoin:round;stroke-dasharray:none;paint-order:normal;stop-color:#000000"
     d="M 10.535567,2.9915486 C 10.147914,4.2915719 8.9573044,7.2582738 9.0095622,10.161137 8.0154143,11.256147 7.0855022,13.50176 6.4257406,16.00264 6.2240111,15.411425 6.0360692,14.919981 5.9218954,14.659053 5.5676856,13.849556 5.217515,13.250726 4.8563274,12.827641 4.1339491,11.981472 3.3665066,11.838172 2.4275352,12.11864 c -0.9389716,0.280467 -1.49875115,0.832641 -1.63607582,1.942 -0.0686619,0.55468 -0.0317375,1.248531 0.11627197,2.1177 0.0740055,0.434584 0.30219405,1.427221 0.60926505,2.453597 0.6377161,2.131546 1.9618151,5.858997 4.5361572,7.414535 3.0027112,5.244642 20.3254814,5.321586 24.5313184,1.115694 1.544094,-1.544112 1.690462,-7.147543 0.719336,-12.48916 1.213623,-1.809894 1.930026,-5.5632383 1.783354,-7.3773274 -2.933359,-0.089247 -5.119283,0.3570392 -7.4042,1.2412678 C 23.013384,7.2268 18.865654,6.3288266 15.332173,6.9168903 13.49569,5.1053631 12.124561,4.0338314 10.535567,2.9915486 Z" /><ellipse
     style="fill:#000000;fill-opacity:1;stroke:none;stroke-width:2.11668;stroke-linecap:round;stroke-linejoin:round;stroke-dasharray:none;paint-order:stroke markers fill;stop-color:#000000"
     id="path6982"
     cx="15.641115"
     cy="11.51972"
     rx="1.6752723"
     ry="2.1418331"
     transform="rotate(10)" /><use
     x="0"
     y="0"
     xlink:href="#path6982"
     id="use7712"
     transform="translate(8.9233832,1.0045043)"
     style="stroke-width:1.07136" /><path
     style="fill:none;fill-opacity:1;stroke:#000000;stroke-width:0.79375;stroke-linecap:round;stroke-linejoin:round;stroke-dasharray:none;stroke-opacity:1;paint-order:normal;stop-color:#000000"
     d="m 25.062694,18.321491 4.898877,-0.563716"
     id="path7889" /><path
     style="fill:none;fill-opacity:1;stroke:#000000;stroke-width:0.79375;stroke-linecap:round;stroke-linejoin:round;stroke-dasharray:none;stroke-opacity:1;paint-order:normal;stop-color:#000000"
     d="m 24.99808,20.477083 4.651959,1.014106"
     id="path7891" /><path
     style="fill:none;fill-opacity:1;stroke:#000000;stroke-width:0.79375;stroke-linecap:round;stroke-linejoin:round;stroke-dasharray:none;stroke-opacity:1;paint-order:normal;stop-color:#000000"
     d="M 10.476811,16.726885 8.2257151,15.603186"
     id="path7893" /><path
     style="fill:none;fill-opacity:1;stroke:#000000;stroke-width:0.79375;stroke-linecap:round;stroke-linejoin:round;stroke-dasharray:none;stroke-opacity:1;paint-order:normal;stop-color:#000000"
     d="M 9.8903258,18.590659 7.7064462,18.371017"
     id="path7895" /><metadata
     id="metadata4277"><rdf:RDF><cc:Work
         rdf:about=""><dc:title>Gutkato salutas</dc:title><dc:creator><cc:Agent><dc:title>Tirifto</dc:title></cc:Agent></dc:creator><dc:subject><rdf:Bag><rdf:li>gutkato</rdf:li><rdf:li>gutkatoj</rdf:li><rdf:li>federujo</rdf:li></rdf:Bag></dc:subject><cc:license
           rdf:resource="http://artlibre.org/licence/lal" /><dc:description>Gutkato, destinita al uzo kiel glumarko aŭ propra bildosigno, ekzemple en Federujo aŭ aliaj retaj komunikiloj.</dc:description><dc:date>2024</dc:date></cc:Work><cc:License
         rdf:about="http://artlibre.org/licence/lal"><cc:permits
           rdf:resource="http://creativecommons.org/ns#Reproduction" /><cc:permits
           rdf:resource="http://creativecommons.org/ns#Distribution" /><cc:permits
           rdf:resource="http://creativecommons.org/ns#DerivativeWorks" /><cc:requires
           rdf:resource="http://creativecommons.org/ns#ShareAlike" /><cc:requires
           rdf:resource="http://creativecommons.org/ns#Notice" /><cc:requires
           rdf:resource="http://creativecommons.org/ns#Attribution" /></cc:License></rdf:RDF></metadata><path
     style="fill:#c2748e;fill-opacity:1;stroke:#382129;stroke-width:0.79375;stroke-linecap:round;stroke-linejoin:round;stroke-dasharray:none;stroke-opacity:1;paint-order:markers fill stroke;stop-color:#000000"
     d="m 11.730252,19.065298 c -0.817385,5.341071 10.922078,5.919973 11.261059,1.072315 -1.618771,0.314656 -5.500246,-0.519619 -6.403931,-1.12916 -0.931547,0.454346 -3.490062,0.527565 -4.857128,0.05685 z"
     id="path2839"
     sodipodi:nodetypes="ccccc" /><path
     style="fill:#ffffff;fill-opacity:1;stroke:none;stroke-width:0.529167;stroke-linecap:round;stroke-linejoin:round;stroke-dasharray:none;stroke-opacity:1;paint-order:markers fill stroke;stop-color:#000000"
     id="path2893"
     d="m 20.141567,21.47209 -0.724684,-1.62767 1.771945,0.186239 z" /><use
     x="0"
     y="0"
     xlink:href="#path2893"
     id="use2895"
     transform="translate(-6.2574506,-0.68318501)" /><path
     style="fill:none;fill-opacity:1;stroke:#382226;stroke-width:0.79375;stroke-linecap:round;stroke-linejoin:round;stroke-dasharray:none;stroke-opacity:1;paint-order:markers fill stroke;stop-color:#000000"
     d="m 23.262547,20.070864 c -1.774758,0.344978 -5.522081,-0.31092 -6.670332,-1.08542 -1.119034,0.545788 -3.752009,0.449681 -5.119074,-0.02104"
     id="path1289" /><g
     id="g10107"
     transform="rotate(53.343868,11.689211,18.291635)"><circle
       style="fill:#c2748e;fill-opacity:1;stroke:none;stroke-width:0.891479;stroke-linecap:round;stroke-linejoin:round;paint-order:markers fill stroke;stop-color:#000000"
       id="circle1002"
       cx="21.432327"
       cy="10.351334"
       r="0.33072916"
       transform="matrix(-0.34202014,0.93969262,0.93969262,0.34202014,0,0)" /><path
       id="path978"
       style="fill:#c2748e;fill-opacity:1;stroke:none;stroke-width:1.2795;stroke-linecap:round;stroke-linejoin:round;paint-order:markers fill stroke;stop-color:#000000"
       d="M 2.672936,22.551242 A 0.84504452,0.84504452 0 0 0 3.0422118,23.57034 0.84504452,0.84504452 0 0 0 3.5055487,23.980196 0.84504452,0.84504452 0 0 0 4.588953,23.475646 0.84504452,0.84504452 0 0 0 4.63556,23.264792 0.84504452,0.84504452 0 0 0 4.734815,23.074864 0.84504452,0.84504452 0 0 0 4.2294845,21.991178 0.84504452,0.84504452 0 0 0 3.6100306,22.007718 0.84504452,0.84504452 0 0 0 2.672867,22.551311 Z" /><use
       x="0"
       y="0"
       xlink:href="#circle1002"
       id="use1004"
       transform="translate(-0.27004874,-0.87258957)" /><use
       x="0"
       y="0"
       xlink:href="#circle1002"
       id="use1008"
       transform="translate(0.02459657,-1.6821205)" /><use
       x="0"
       y="0"
       xlink:href="#circle1002"
       id="use1010"
       transform="translate(0.79051461,-2.1719201)"
       style="stroke-width:1.00012;stroke-dasharray:none" /></g></svg>
