<?xml version="1.0" encoding="UTF-8" standalone="no"?>
<!-- Created with Inkscape (http://www.inkscape.org/) -->

<svg
   width="128"
   height="128"
   viewBox="0 0 33.866666 33.866666"
   version="1.1"
   id="svg5"
   xml:space="preserve"
   sodipodi:docname="gutkato_ideo.svg"
   inkscape:version="1.2.2 (b0a8486541, 2022-12-01)"
   inkscape:export-filename="gutkato_pensas.png"
   inkscape:export-xdpi="96"
   inkscape:export-ydpi="96"
   xmlns:inkscape="http://www.inkscape.org/namespaces/inkscape"
   xmlns:sodipodi="http://sodipodi.sourceforge.net/DTD/sodipodi-0.dtd"
   xmlns:xlink="http://www.w3.org/1999/xlink"
   xmlns="http://www.w3.org/2000/svg"
   xmlns:svg="http://www.w3.org/2000/svg"
   xmlns:rdf="http://www.w3.org/1999/02/22-rdf-syntax-ns#"
   xmlns:cc="http://creativecommons.org/ns#"
   xmlns:dc="http://purl.org/dc/elements/1.1/"><sodipodi:namedview
     id="namedview4310"
     pagecolor="#505050"
     bordercolor="#eeeeee"
     borderopacity="1"
     inkscape:showpageshadow="0"
     inkscape:pageopacity="0"
     inkscape:pagecheckerboard="0"
     inkscape:deskcolor="#505050"
     showgrid="false"
     inkscape:zoom="0.453125"
     inkscape:cx="57.37931"
     inkscape:cy="76.137931"
     inkscape:window-width="1232"
     inkscape:window-height="750"
     inkscape:window-x="48"
     inkscape:window-y="26"
     inkscape:window-maximized="1"
     inkscape:current-layer="g2370"
     showguides="false" /><title
     id="title4279">Gutkato, ideo</title><defs
     id="defs2" /><metadata
     id="metadata4277"><rdf:RDF><cc:Work
         rdf:about=""><dc:title>Gutkato, ideo</dc:title><dc:creator><cc:Agent><dc:title>Tirifto</dc:title></cc:Agent></dc:creator><dc:subject><rdf:Bag><rdf:li>gutkato</rdf:li><rdf:li>gutkatoj</rdf:li><rdf:li>federujo</rdf:li></rdf:Bag></dc:subject><cc:license
           rdf:resource="http://artlibre.org/licence/lal" /><dc:description>Gutkato, destinita al uzo kiel glumarko aŭ propra bildosigno, ekzemple en Federujo aŭ aliaj retaj komunikiloj.</dc:description><dc:date>2024</dc:date></cc:Work><cc:License
         rdf:about="http://artlibre.org/licence/lal"><cc:permits
           rdf:resource="http://creativecommons.org/ns#Reproduction" /><cc:permits
           rdf:resource="http://creativecommons.org/ns#Distribution" /><cc:permits
           rdf:resource="http://creativecommons.org/ns#DerivativeWorks" /><cc:requires
           rdf:resource="http://creativecommons.org/ns#ShareAlike" /><cc:requires
           rdf:resource="http://creativecommons.org/ns#Notice" /><cc:requires
           rdf:resource="http://creativecommons.org/ns#Attribution" /></cc:License></rdf:RDF></metadata><g
     id="g2370"
     transform="translate(1.0697807,20.791498)"><path
       sodipodi:type="star"
       style="opacity:0.8;fill:#ffe666;fill-opacity:1;stroke:#998a3d;stroke-width:0.529167;stroke-linecap:round;stroke-linejoin:round;stroke-dasharray:none;stroke-opacity:1;paint-order:markers fill stroke;stop-color:#000000"
       id="path2306"
       inkscape:flatsided="false"
       sodipodi:sides="8"
       sodipodi:cx="16.41181"
       sodipodi:cy="-14.291964"
       sodipodi:r1="6.1026907"
       sodipodi:r2="3.6616147"
       sodipodi:arg1="0.78539816"
       sodipodi:arg2="1.1780972"
       inkscape:rounded="0"
       inkscape:randomized="0"
       d="m 20.727064,-9.9767096 -2.914015,-0.9323634 -1.401239,2.7198001 -1.401239,-2.7198001 -2.914015,0.9323634 0.932363,-2.9140144 -2.7198,-1.40124 2.7198,-1.401239 -0.932363,-2.914015 2.914015,0.932364 1.401239,-2.7198 1.401239,2.7198 2.914015,-0.932364 -0.932363,2.914015 2.7198,1.401239 -2.7198,1.40124 z"
       transform="translate(-0.01909092)" /><path
       style="opacity:1;fill:#ffffff;fill-opacity:0.2;stroke:#000000;stroke-width:0.79375;stroke-linecap:round;stroke-linejoin:round;stroke-dasharray:none;stroke-opacity:1;paint-order:markers fill stroke;stop-color:#000000"
       d="m 15.202071,-10.245202 c 0,-1.810685 -1.587499,-2.102806 -1.5875,-4.101041 0,-1.534316 1.243809,-2.778125 2.778125,-2.778125 1.534316,0 2.778125,1.243809 2.778171,2.778125 4.6e-5,1.998235 -1.587453,2.290356 -1.587453,4.101041"
       id="path2089"
       sodipodi:nodetypes="ccscc" /><rect
       style="fill:#d9ccc3;fill-opacity:1;stroke:#000000;stroke-width:0.79375;stroke-linecap:round;stroke-linejoin:round;stroke-dasharray:none;stroke-opacity:1;paint-order:markers fill stroke;stop-color:#000000"
       id="rect571"
       width="2.3812499"
       height="2.3812499"
       x="15.202071"
       y="-10.245202" /><path
       style="opacity:1;fill:none;fill-opacity:0.2;stroke:#000000;stroke-width:0.529167;stroke-linecap:round;stroke-linejoin:round;stroke-dasharray:none;stroke-opacity:1;paint-order:markers fill stroke;stop-color:#000000"
       d="m 16.689096,-10.431689 c 0,0 0.745714,-2.101971 0.745714,-2.783043 0,-0.982885 -1.978589,-0.157723 -1.142335,0.678531 0.05093,0.05093 0.150976,0.04951 0.200489,0 0.836254,-0.836254 -1.142335,-1.661416 -1.142335,-0.678531 0,0.681072 0.745714,2.783043 0.745714,2.783043"
       id="path2364"
       sodipodi:nodetypes="csccsc" /></g><g
     id="layer1"
     transform="matrix(0.73981744,0,0,0.7399986,4.4046041,9.6943303)"
     style="stroke-width:1.35152"><path
       style="fill:#ffdb26;fill-opacity:1;stroke:#000000;stroke-width:1.43035;stroke-linecap:round;stroke-linejoin:round;stroke-dasharray:none;paint-order:normal;stop-color:#000000"
       d="M 6.3460128,10.987509 C 6.0131876,8.1033126 6.9112569,5.0355095 7.1713329,3.7040818 c 1.6823697,0.883682 3.1509471,1.8173157 5.1540591,3.4426941 3.460025,-0.9271224 7.675181,-0.4344139 10.458981,0.611344 2.188665,-1.101117 4.320882,-1.7567683 7.249119,-1.9517024 0.321474,1.7913943 -0.0283,5.5961075 -1.06115,7.5149165 1.483302,5.222627 1.500916,12.296756 -0.04318,13.840869 C 24.518229,31.573194 5.6799495,31.273305 4.0639285,25.242152 3.064468,21.512066 4.2865251,13.752064 6.3460128,10.987509 Z"
       id="path236" /><ellipse
       style="fill:#000000;fill-opacity:1;stroke:none;stroke-width:2.86073;stroke-linecap:round;stroke-linejoin:round;stroke-dasharray:none;paint-order:stroke markers fill;stop-color:#000000"
       id="path6982"
       cx="12.96371"
       cy="12.570978"
       rx="1.6752723"
       ry="2.1418331"
       transform="rotate(8)" /><use
       x="0"
       y="0"
       xlink:href="#path6982"
       id="use7712"
       transform="translate(8.953004,0.69247082)"
       style="stroke-width:1.44796" /><path
       style="fill:none;fill-opacity:1;stroke:#000000;stroke-width:0.893974;stroke-linecap:round;stroke-linejoin:round;stroke-dasharray:none;stroke-opacity:1;paint-order:normal;stop-color:#000000"
       d="m 22.889183,18.104059 4.87622,-0.734341"
       id="path7889" /><path
       style="fill:none;fill-opacity:1;stroke:#000000;stroke-width:0.893974;stroke-linecap:round;stroke-linejoin:round;stroke-dasharray:none;stroke-opacity:1;paint-order:normal;stop-color:#000000"
       d="m 22.899838,20.260593 4.684517,0.851137"
       id="path7891" /><path
       style="fill:none;fill-opacity:1;stroke:#000000;stroke-width:0.893974;stroke-linecap:round;stroke-linejoin:round;stroke-dasharray:none;stroke-opacity:1;paint-order:normal;stop-color:#000000"
       d="M 8.2565339,17.019465 5.9675926,15.975012"
       id="path7893" /><path
       style="fill:none;fill-opacity:1;stroke:#000000;stroke-width:0.893974;stroke-linecap:round;stroke-linejoin:round;stroke-dasharray:none;stroke-opacity:1;paint-order:normal;stop-color:#000000"
       d="M 7.7354506,18.902572 5.5452359,18.75928"
       id="path7895" /><g
       id="g1303"
       transform="rotate(76.822959,14.236723,26.294202)"
       style="stroke-width:1.35152"><path
         style="fill:#ffdb26;fill-opacity:1;stroke:#000000;stroke-width:0.893974;stroke-linecap:round;stroke-linejoin:round;stroke-dasharray:none;stroke-opacity:1;paint-order:markers fill stroke;stop-color:#000000"
         d="m 11.506204,32.810968 c -1.138288,-1.971572 -1.7029335,-4.30486 -1.5485994,-5.846417 0.095136,-0.950264 0.2440254,-1.674922 0.4590394,-2.218767 0.430028,-1.087691 1.124555,-1.452131 2.182548,-1.451661 1.057993,4.7e-4 1.75252,0.366916 2.182548,1.455374 0.215014,0.54423 0.363903,1.268962 0.459039,2.218703 0.09514,0.949741 0.355114,1.813896 1.077244,3.064662"
         id="path915"
         sodipodi:nodetypes="csssssc" /><g
         id="g1296"
         transform="translate(-0.0585258)"
         style="stroke-width:1.35152"><path
           style="fill:#ffdb26;fill-opacity:1;stroke:#000000;stroke-width:0.715179;stroke-linecap:round;stroke-linejoin:round;stroke-dasharray:none;stroke-opacity:1;paint-order:markers fill stroke;stop-color:#000000"
           d="m 11.599399,23.694455 v 1.058284"
           id="path1283" /><path
           style="fill:#ffdb26;fill-opacity:1;stroke:#000000;stroke-width:0.715179;stroke-linecap:round;stroke-linejoin:round;stroke-dasharray:none;stroke-opacity:1;paint-order:markers fill stroke;stop-color:#000000"
           d="m 12.657717,23.661518 v 1.058284"
           id="use1287" /><path
           style="fill:#ffdb26;fill-opacity:1;stroke:#000000;stroke-width:0.715179;stroke-linecap:round;stroke-linejoin:round;stroke-dasharray:none;stroke-opacity:1;paint-order:markers fill stroke;stop-color:#000000"
           d="m 13.716036,23.694455 v 1.058284"
           id="use1291" /></g></g><path
       style="fill:none;fill-opacity:1;stroke:#000000;stroke-width:0.893974;stroke-linecap:round;stroke-linejoin:round;stroke-dasharray:none;stroke-opacity:1;paint-order:stroke markers fill;stop-color:#000000"
       d="m 10.004075,19.121173 c -1.4238886,3.039424 2.342169,4.371724 4.594902,1.690642 3.202672,3.608669 6.496348,1.194297 5.575255,-1.100462"
       id="path7824" /></g></svg>
