<?xml version="1.0" encoding="UTF-8" standalone="no"?>
<!-- Created with Inkscape (http://www.inkscape.org/) -->

<svg
   width="128"
   height="128"
   viewBox="0 0 33.866666 33.866666"
   version="1.1"
   id="svg5"
   xml:space="preserve"
   sodipodi:docname="gutkato_morta_fantomiĝas.svg"
   inkscape:version="1.2.2 (b0a8486541, 2022-12-01)"
   inkscape:export-filename="gutkato_dormas.png"
   inkscape:export-xdpi="96"
   inkscape:export-ydpi="96"
   xmlns:inkscape="http://www.inkscape.org/namespaces/inkscape"
   xmlns:sodipodi="http://sodipodi.sourceforge.net/DTD/sodipodi-0.dtd"
   xmlns:xlink="http://www.w3.org/1999/xlink"
   xmlns="http://www.w3.org/2000/svg"
   xmlns:svg="http://www.w3.org/2000/svg"
   xmlns:rdf="http://www.w3.org/1999/02/22-rdf-syntax-ns#"
   xmlns:cc="http://creativecommons.org/ns#"
   xmlns:dc="http://purl.org/dc/elements/1.1/"><sodipodi:namedview
     id="namedview15"
     pagecolor="#505050"
     bordercolor="#eeeeee"
     borderopacity="1"
     inkscape:showpageshadow="0"
     inkscape:pageopacity="0"
     inkscape:pagecheckerboard="0"
     inkscape:deskcolor="#505050"
     showgrid="false"
     inkscape:zoom="2.6074562"
     inkscape:cx="70.566862"
     inkscape:cy="51.966357"
     inkscape:window-width="1232"
     inkscape:window-height="750"
     inkscape:window-x="48"
     inkscape:window-y="26"
     inkscape:window-maximized="1"
     inkscape:current-layer="layer1" /><title
     id="title4279">Gutkato morta fantomiĝas</title><defs
     id="defs2" /><g
     id="layer1"><g
       id="g527"
       transform="translate(4.8439792,2.6458334)"><path
         style="fill:#ffdb26;fill-opacity:1;stroke:#000000;stroke-width:1.05833;stroke-linecap:round;stroke-linejoin:round;stroke-dasharray:none;paint-order:normal;stop-color:#000000"
         d="M 2.3283941,14.061517 C 1.2604246,11.361739 1.3338871,8.1660314 1.2405024,6.8126583 3.0942605,7.2308003 4.7544395,7.7525254 7.109976,8.8040768 10.212146,7.013025 14.411197,6.3979822 17.370803,6.6876063 19.199901,5.0575408 21.08977,3.8723719 23.867777,2.9261965 24.641944,4.5733469 25.28882,8.3389458 24.787788,10.459694 27.572263,15.120458 28.01839,25.61809 26.474294,27.162203 22.063361,31.573194 3.2250817,31.273305 1.6090607,25.242152 0.6096002,21.512066 1.0546012,17.264907 2.3283941,14.061517 Z"
         id="path236"
         sodipodi:nodetypes="ccccccssc" /><path
         style="fill:none;fill-opacity:1;stroke:#000000;stroke-width:0.79375;stroke-linecap:round;stroke-linejoin:round;stroke-dasharray:none;stroke-opacity:1;paint-order:normal;stop-color:#000000"
         d="m 19.945894,17.051177 4.674623,-1.569933"
         id="path7889" /><path
         style="fill:none;fill-opacity:1;stroke:#000000;stroke-width:0.79375;stroke-linecap:round;stroke-linejoin:round;stroke-dasharray:none;stroke-opacity:1;paint-order:normal;stop-color:#000000"
         d="m 20.330865,19.173097 4.761148,0.02475"
         id="path7891" /><path
         style="fill:none;fill-opacity:1;stroke:#000000;stroke-width:0.79375;stroke-linecap:round;stroke-linejoin:round;stroke-dasharray:none;stroke-opacity:1;paint-order:normal;stop-color:#000000"
         d="M 5.3472102,18.523993 2.9116758,17.892877"
         id="path7893" /><path
         style="fill:none;fill-opacity:1;stroke:#000000;stroke-width:0.79375;stroke-linecap:round;stroke-linejoin:round;stroke-dasharray:none;stroke-opacity:1;paint-order:normal;stop-color:#000000"
         d="M 5.1610416,20.468976 2.9792187,20.708188"
         id="path7895" /><path
         style="fill:#c2748e;fill-opacity:1;stroke:#382129;stroke-width:0.79375;stroke-linecap:round;stroke-linejoin:round;stroke-dasharray:none;stroke-opacity:1;paint-order:markers fill stroke;stop-color:#000000"
         d="m 12.591411,19.740668 c -1.546069,0.135263 -4.7357798,2.406814 -3.9680548,3.49108 1.157713,1.635048 8.2842858,0.859149 9.1522168,-0.976907 0.544851,-1.1526 -3.240461,-2.684225 -5.184162,-2.514173 z"
         id="path1062"
         sodipodi:nodetypes="cssc" /><path
         style="fill:#c2748e;fill-opacity:1;stroke:#382129;stroke-width:0.79375;stroke-linecap:round;stroke-linejoin:round;stroke-dasharray:none;stroke-opacity:1;paint-order:markers fill stroke;stop-color:#000000"
         d="m 12.419305,19.740668 c -1.546069,0.135263 -4.7357798,2.406814 -3.9680548,3.49108 1.157713,1.635048 8.2842858,0.859149 9.1522168,-0.976907 0.544851,-1.1526 -3.240461,-2.684225 -5.184162,-2.514173 z"
         id="path4026"
         sodipodi:nodetypes="cssc" /><g
         id="g1635"
         transform="matrix(1.132973,-0.15922897,0.15922897,1.132973,-12.896705,6.37231)"
         style="stroke-width:0.874044"><path
           style="fill:#000000;fill-opacity:1;stroke:#000000;stroke-width:0.693772;stroke-linecap:round;stroke-linejoin:round;stroke-dasharray:none;stop-color:#000000"
           d="M 15.337185,12.459433 18.139003,9.6576134"
           id="path1629" /><path
           style="fill:#000000;fill-opacity:1;stroke:#000000;stroke-width:0.693772;stroke-linecap:round;stroke-linejoin:round;stroke-dasharray:none;stop-color:#000000"
           d="M 18.139003,12.459433 15.337185,9.6576134"
           id="path1631" /></g><use
         x="0"
         y="0"
         xlink:href="#g1635"
         id="use510"
         transform="translate(8.9370954,-0.87272214)" /></g><g
       id="g729"
       style="opacity:0.75"
       transform="translate(-1.5875,-2.6458334)"><path
         style="fill:#f2f2f2;fill-opacity:1;stroke:#000000;stroke-width:1.05833;stroke-linecap:round;stroke-linejoin:round;stroke-dasharray:none;paint-order:normal;stop-color:#000000"
         d="M 6.3460128,10.987509 C 6.0131876,8.1033126 6.9112569,5.0355095 7.1713329,3.7040818 c 1.68237,0.883682 3.1509471,1.8173157 5.1540591,3.4426941 3.460025,-0.9271224 7.675181,-0.4344139 10.458981,0.611344 2.188665,-1.101117 4.320882,-1.7567683 7.249119,-1.9517024 0.321474,1.7913943 -0.0283,5.5961075 -1.06115,7.5149165 1.483302,5.222627 1.478427,10.376931 0.991528,14.593914 -0.162817,1.353095 -1.246825,1.934075 -1.962918,2.125952 -1.702007,0.456051 -2.835459,-0.699978 -4.133693,-0.452456 -1.298234,0.247523 -2.693018,1.872308 -4.156134,1.962289 -1.463116,0.08998 -2.925658,-1.077703 -4.414621,-1.149007 -1.488962,-0.07131 -2.766338,0.894805 -4.142113,0.658469 C 9.7786163,30.824156 8.8702179,29.543934 7.7466661,29.138822 6.6231139,28.733711 5.5029867,29.907347 4.1066348,28.80591 3.062186,27.982053 3.1269888,26.699228 3.1269888,25.964277 3.0535258,20.469501 4.2865251,13.752064 6.3460128,10.987509 Z"
         id="path713"
         sodipodi:nodetypes="cccccccssssssscc" /><ellipse
         style="fill:#000000;fill-opacity:1;stroke:none;stroke-width:2.11668;stroke-linecap:round;stroke-linejoin:round;stroke-dasharray:none;paint-order:stroke markers fill;stop-color:#000000"
         id="ellipse715"
         cx="12.96371"
         cy="12.570978"
         rx="1.6752723"
         ry="2.1418331"
         transform="rotate(8)" /><ellipse
         style="fill:#000000;fill-opacity:1;stroke:none;stroke-width:2.11668;stroke-linecap:round;stroke-linejoin:round;stroke-dasharray:none;paint-order:stroke markers fill;stop-color:#000000"
         id="ellipse717"
         cx="21.925957"
         cy="12.010693"
         rx="1.6752723"
         ry="2.1418331"
         transform="rotate(8)" /><path
         style="fill:none;fill-opacity:1;stroke:#000000;stroke-width:0.79375;stroke-linecap:round;stroke-linejoin:round;stroke-dasharray:none;stroke-opacity:1;paint-order:stroke markers fill;stop-color:#000000"
         d="m 10.004075,19.121173 c -1.4238886,3.039424 2.342169,4.371724 4.594902,1.690642 3.202672,3.608669 6.496348,1.194297 5.575255,-1.100462"
         id="path719" /><path
         style="fill:none;fill-opacity:1;stroke:#000000;stroke-width:0.79375;stroke-linecap:round;stroke-linejoin:round;stroke-dasharray:none;stroke-opacity:1;paint-order:normal;stop-color:#000000"
         d="m 22.889183,18.104059 4.87622,-0.734341"
         id="path721" /><path
         style="fill:none;fill-opacity:1;stroke:#000000;stroke-width:0.79375;stroke-linecap:round;stroke-linejoin:round;stroke-dasharray:none;stroke-opacity:1;paint-order:normal;stop-color:#000000"
         d="m 22.899838,20.260593 4.684517,0.851137"
         id="path723" /><path
         style="fill:none;fill-opacity:1;stroke:#000000;stroke-width:0.79375;stroke-linecap:round;stroke-linejoin:round;stroke-dasharray:none;stroke-opacity:1;paint-order:normal;stop-color:#000000"
         d="M 8.2565339,17.019465 5.9675926,15.975012"
         id="path725" /><path
         style="fill:none;fill-opacity:1;stroke:#000000;stroke-width:0.79375;stroke-linecap:round;stroke-linejoin:round;stroke-dasharray:none;stroke-opacity:1;paint-order:normal;stop-color:#000000"
         d="M 7.7354506,18.902572 5.5452359,18.75928"
         id="path727" /></g></g><metadata
     id="metadata4277"><rdf:RDF><cc:Work
         rdf:about=""><dc:title>Gutkato morta fantomiĝas</dc:title><dc:creator><cc:Agent><dc:title>Tirifto</dc:title></cc:Agent></dc:creator><dc:subject><rdf:Bag><rdf:li>gutkato</rdf:li><rdf:li>gutkatoj</rdf:li><rdf:li>federujo</rdf:li></rdf:Bag></dc:subject><cc:license
           rdf:resource="http://artlibre.org/licence/lal" /><dc:description>Gutkato, destinita al uzo kiel glumarko aŭ propra bildosigno, ekzemple en Federujo aŭ aliaj retaj komunikiloj.</dc:description><dc:date>2024</dc:date></cc:Work><cc:License
         rdf:about="http://artlibre.org/licence/lal"><cc:permits
           rdf:resource="http://creativecommons.org/ns#Reproduction" /><cc:permits
           rdf:resource="http://creativecommons.org/ns#Distribution" /><cc:permits
           rdf:resource="http://creativecommons.org/ns#DerivativeWorks" /><cc:requires
           rdf:resource="http://creativecommons.org/ns#ShareAlike" /><cc:requires
           rdf:resource="http://creativecommons.org/ns#Notice" /><cc:requires
           rdf:resource="http://creativecommons.org/ns#Attribution" /></cc:License></rdf:RDF></metadata></svg>
