<?xml version="1.0" encoding="UTF-8" standalone="no"?>
<!-- Created with Inkscape (http://www.inkscape.org/) -->

<svg
   width="128"
   height="128"
   viewBox="0 0 33.866666 33.866666"
   version="1.1"
   id="svg5"
   xml:space="preserve"
   sodipodi:docname="gutkato_trinkas_bieron.svg"
   inkscape:version="1.2.2 (b0a8486541, 2022-12-01)"
   inkscape:export-filename="gutkato_trinkas_teon.png"
   inkscape:export-xdpi="96"
   inkscape:export-ydpi="96"
   xmlns:inkscape="http://www.inkscape.org/namespaces/inkscape"
   xmlns:sodipodi="http://sodipodi.sourceforge.net/DTD/sodipodi-0.dtd"
   xmlns:xlink="http://www.w3.org/1999/xlink"
   xmlns="http://www.w3.org/2000/svg"
   xmlns:svg="http://www.w3.org/2000/svg"
   xmlns:rdf="http://www.w3.org/1999/02/22-rdf-syntax-ns#"
   xmlns:cc="http://creativecommons.org/ns#"
   xmlns:dc="http://purl.org/dc/elements/1.1/"><sodipodi:namedview
     id="namedview478"
     pagecolor="#505050"
     bordercolor="#eeeeee"
     borderopacity="1"
     inkscape:showpageshadow="0"
     inkscape:pageopacity="0"
     inkscape:pagecheckerboard="0"
     inkscape:deskcolor="#505050"
     showgrid="false"
     inkscape:zoom="0.88388348"
     inkscape:cx="25.455844"
     inkscape:cy="88.812612"
     inkscape:window-width="1232"
     inkscape:window-height="750"
     inkscape:window-x="48"
     inkscape:window-y="26"
     inkscape:window-maximized="1"
     inkscape:current-layer="g6920"
     showguides="false" /><title
     id="title4279">Gutkato trinkas bieron</title><defs
     id="defs2"><pattern
   inkscape:collect="always"
   xlink:href="#pattern6720"
   id="pattern6755"
   patternTransform="matrix(0.2634138,0,0,0.2634138,-12.245979,35.54478)" /><pattern
   inkscape:collect="always"
   xlink:href="#pattern6720"
   id="pattern6753"
   patternTransform="matrix(0.26489452,0,0,0.26489452,-11.522222,31.570368)" /><pattern
   inkscape:collect="always"
   xlink:href="#pattern6585"
   id="pattern6619"
   patternTransform="matrix(0.26394098,0,0,0.26394098,-11.953775,38.160515)" />
		
		
		
		
		
		
	<pattern
   patternUnits="userSpaceOnUse"
   width="63.999998"
   height="48"
   patternTransform="translate(27.739872,148.76844)"
   id="pattern14353"><g
     id="g14351"
     transform="matrix(3.7795276,0,0,3.7795276,-27.739872,-148.76844)"><rect
       style="fill:#ffffff;fill-opacity:1;stroke:none;stroke-width:0.79375;stroke-linecap:round;stroke-linejoin:round;stroke-opacity:1;paint-order:markers fill stroke;stop-color:#000000"
       id="rect14347"
       width="16.933332"
       height="12.7"
       x="7.3395076"
       y="39.361649" /><path
       id="path13967"
       style="fill:#151c47;fill-opacity:1;stroke:none;stroke-width:0.264583"
       d="m 16.808805,51.549121 c -0.677349,-0.01856 -1.354698,-0.03713 -2.032046,-0.05569 0.315216,-0.09005 0.605927,-0.257376 0.849524,-0.475922 0.162483,-0.189647 0.203693,-0.4757 0.09253,-0.700697 -0.132134,-0.211192 -0.395058,-0.338536 -0.642299,-0.287677 -0.237454,0.0829 -0.386771,0.325647 -0.409493,0.568692 -0.03017,0.263497 -0.02195,0.528917 -0.02157,0.793558 -0.346542,-0.673444 -0.693084,-1.346891 -1.039626,-2.020335 0.307177,0.233229 0.611252,0.479768 0.966992,0.636184 0.222537,0.06737 0.513263,0.0024 0.614623,-0.226115 0.09058,-0.198834 0.03946,-0.446647 -0.111539,-0.602056 -0.187189,-0.173553 -0.453464,-0.243417 -0.704069,-0.213588 -0.269817,0.03184 -0.51611,0.157379 -0.763452,0.261827 0.03215,-0.363656 0.05501,-0.74554 -0.08673,-1.090816 -0.08326,-0.217059 -0.270308,-0.411559 -0.509311,-0.441369 -0.183689,-0.01283 -0.381198,0.07791 -0.467321,0.245018 -0.08928,0.166847 -0.05625,0.374399 0.03285,0.534507 0.132103,0.231961 0.352805,0.393979 0.561433,0.552478 0.114605,0.09423 0.256799,0.162478 0.355047,0.271538 -0.463524,-0.07742 -0.935189,-0.08681 -1.4035,-0.117204 -0.224459,-0.0096 -0.448964,-0.01835 -0.67344,-0.02764 0.307871,-0.174614 0.629143,-0.341251 0.877294,-0.599292 0.113557,-0.169772 0.16367,-0.393194 0.08952,-0.588644 -0.09208,-0.224544 -0.344421,-0.342049 -0.577148,-0.341604 -0.267491,0.124415 -0.469827,0.388007 -0.499434,0.684121 -0.02671,0.25576 -0.02049,0.51309 -0.02114,0.769804 -0.345538,-0.59849 -0.691076,-1.19698 -1.036614,-1.79547 0.304402,0.182704 0.612259,0.376997 0.963098,0.455697 0.203477,0.01162 0.421875,-0.05496 0.554488,-0.216472 0.148806,-0.191027 0.119172,-0.467514 0.0019,-0.666512 -0.241476,-0.169463 -0.570957,-0.212935 -0.842164,-0.0904 -0.234887,0.104689 -0.454619,0.238787 -0.677308,0.366516 0.345538,-0.598489 0.691076,-1.196979 1.036614,-1.795468 -0.006,0.354956 -0.02016,0.718676 0.08699,1.06186 0.09743,0.206976 0.298707,0.363344 0.526017,0.397326 0.202492,-0.02983 0.404037,-0.148787 0.486568,-0.342485 0.0721,-0.197174 0.0056,-0.420184 -0.113148,-0.584935 -0.134329,-0.181309 -0.333976,-0.296612 -0.521273,-0.415242 -0.111414,-0.06404 -0.222829,-0.128072 -0.334243,-0.192109 0.680379,0.04535 1.36076,0.0907 2.04114,0.136052 -0.68038,-0.04669 -1.360761,-0.09338 -2.04114,-0.140067 0.306529,-0.174612 0.627098,-0.339039 0.877355,-0.593085 0.133449,-0.189193 0.164871,-0.448841 0.06716,-0.660549 -0.145097,-0.191231 -0.414861,-0.319499 -0.648321,-0.218236 -0.235332,0.105385 -0.370882,0.355374 -0.40192,0.60291 -0.03531,0.262933 -0.02534,0.52883 -0.02519,0.793376 -0.345538,-0.598489 -0.691076,-1.196979 -1.036614,-1.795468 0.301974,0.177668 0.603292,0.371673 0.947343,0.456882 0.205182,0.01236 0.426864,-0.04931 0.563855,-0.210176 0.153868,-0.191083 0.125391,-0.471805 0.0083,-0.673871 -0.241391,-0.169631 -0.570907,-0.21301 -0.842134,-0.09058 -0.234859,0.104785 -0.454634,0.238835 -0.677338,0.366576 0.345538,-0.598489 0.691076,-1.196979 1.036614,-1.795468 -0.006,0.354956 -0.02016,0.718676 0.08699,1.06186 0.09755,0.206996 0.298599,0.363079 0.525592,0.398452 0.245603,-0.02785 0.497368,-0.208919 0.518474,-0.46993 0.01591,-0.23389 -0.115761,-0.451282 -0.284806,-0.602655 -0.211223,-0.196219 -0.477066,-0.316742 -0.715644,-0.474627 0.689465,0.08614 1.380527,0.16765 2.070948,0.24917 -0.255666,0.07718 -0.509029,0.166974 -0.742398,0.298413 -0.193367,0.148372 -0.298823,0.41211 -0.234722,0.650968 0.08045,0.240459 0.315463,0.408215 0.563795,0.434708 0.204197,-0.0019 0.392892,-0.141491 0.47007,-0.327725 0.07879,-0.205353 0.07858,-0.43179 0.07529,-0.649102 0.0099,-0.07877 -0.02736,-0.168338 -0.0021,-0.238057 0.08373,-0.05371 0.12204,0.08014 0.19107,0.106213 0.19987,0.167158 0.413793,0.316921 0.635217,0.454054 0.174735,0.09686 0.402284,0.135249 0.582835,0.03163 0.213892,-0.126977 0.249837,-0.43412 0.124283,-0.635247 -0.130907,-0.227269 -0.39597,-0.342776 -0.649739,-0.357244 -0.309525,-0.02075 -0.60368,0.09921 -0.899512,0.169002 0.139051,-0.192018 0.262941,-0.405682 0.396294,-0.605717 0.213693,-0.33201 0.427387,-0.66402 0.641081,-0.99603 -1.84e-4,0.384873 -0.01482,0.7761 0.08121,1.152287 0.100224,0.229784 0.28903,0.422467 0.524254,0.513152 0.240479,-0.0062 0.487451,-0.177558 0.522094,-0.425614 0.03669,-0.265276 -0.09526,-0.526432 -0.28362,-0.706147 -0.218435,-0.220448 -0.469277,-0.404509 -0.709834,-0.599469 0.690022,-0.002 1.380044,-0.0039 2.070066,-0.0059 -0.313577,0.251943 -0.63848,0.496461 -0.897491,0.807185 -0.10668,0.199917 -0.136295,0.444374 -0.05928,0.659636 0.11343,0.180536 0.346781,0.278447 0.554095,0.222893 0.205886,-0.0622 0.345898,-0.250524 0.425793,-0.441586 0.124135,-0.304807 0.106938,-0.641322 0.112449,-0.963938 0.01758,-0.06616 -0.03898,-0.166073 0.02427,-0.213351 0.003,0.09305 0.105497,0.149105 0.133582,0.237264 0.291693,0.458913 0.583387,0.917827 0.87508,1.376741 -0.317703,-0.112157 -0.651371,-0.220645 -0.992998,-0.181402 -0.253008,0.03736 -0.473729,0.203783 -0.607107,0.418162 -0.06291,0.213506 0.0023,0.488549 0.217548,0.588442 0.234509,0.107225 0.494074,-0.01057 0.692766,-0.141748 0.220537,-0.139857 0.422744,-0.305848 0.624244,-0.471148 0.02498,-0.0032 0.116469,-0.0965 0.07229,-0.006 -0.05018,0.218063 -0.03111,0.444005 -0.02076,0.665381 0.03141,0.235693 0.174244,0.489713 0.420781,0.546865 0.275512,0.06227 0.576661,-0.113651 0.671819,-0.377312 0.06852,-0.173801 0.02882,-0.373709 -0.07509,-0.524754 -0.143312,-0.203392 -0.380448,-0.305884 -0.608786,-0.382046 -0.09043,-0.03406 -0.182989,-0.06202 -0.274379,-0.09333 0.687447,-0.07598 1.374894,-0.151959 2.06234,-0.227939 -0.304732,0.170586 -0.621913,0.33733 -0.860292,0.598804 -0.113737,0.172116 -0.178457,0.39359 -0.111506,0.59561 0.08382,0.232727 0.348813,0.344217 0.582197,0.336191 0.267278,-0.125158 0.468492,-0.388805 0.499617,-0.684578 0.02568,-0.256038 0.02029,-0.513516 0.0209,-0.770442 0.345538,0.598489 0.691076,1.196979 1.036614,1.795468 -0.301915,-0.177752 -0.60323,-0.371788 -0.947313,-0.456882 -0.205252,-0.01255 -0.426963,0.04948 -0.563764,0.210572 -0.153612,0.191295 -0.12599,0.472191 -0.0084,0.674327 0.241865,0.168774 0.571099,0.212086 0.842316,0.08964 0.234798,-0.104755 0.454503,-0.238792 0.677156,-0.366484 -0.345538,0.598489 -0.691076,1.196979 -1.036614,1.795468 0.006,-0.354956 0.02016,-0.718676 -0.08699,-1.06186 -0.09659,-0.206926 -0.298442,-0.363419 -0.526018,-0.394346 -0.237952,0.04518 -0.488909,0.218834 -0.514341,0.476242 -0.02346,0.261247 0.127841,0.513868 0.337958,0.660746 0.211046,0.143161 0.434374,0.267248 0.65483,0.395167 -0.67221,0.04925 -1.344859,0.0942 -2.015408,0.163335 0.673019,-0.05323 1.346039,-0.106456 2.019058,-0.159685 -0.31681,0.169104 -0.636413,0.352014 -0.876686,0.624597 -0.10779,0.171791 -0.163541,0.39176 -0.09149,0.587884 0.08927,0.225484 0.349953,0.328055 0.578638,0.319554 0.266674,-0.126451 0.468027,-0.389609 0.499495,-0.685551 0.02573,-0.256187 0.02032,-0.513821 0.02096,-0.770899 0.345538,0.598489 0.691076,1.196979 1.036614,1.795468 -0.305012,-0.181837 -0.612454,-0.376489 -0.962886,-0.456882 -0.203488,-0.01143 -0.422257,0.05514 -0.554122,0.217507 -0.147729,0.192549 -0.119292,0.469237 -0.0023,0.669613 0.242871,0.167041 0.571174,0.208706 0.842559,0.08769 0.234267,-0.105688 0.454235,-0.239019 0.676791,-0.366759 -0.345538,0.59849 -0.691076,1.19698 -1.036614,1.79547 0.006,-0.354957 0.02016,-0.718677 -0.08699,-1.06186 -0.09609,-0.206452 -0.298193,-0.362878 -0.525805,-0.390788 -0.229012,0.04182 -0.430787,0.206401 -0.516376,0.42309 -0.02874,0.280826 0.108785,0.5728 0.348059,0.724048 0.209341,0.139217 0.431569,0.257429 0.650201,0.381125 -0.689292,0.06656 -1.378584,0.13312 -2.067876,0.199681 0.305582,-0.229082 0.624561,-0.448893 0.873554,-0.742155 0.104891,-0.172484 0.163232,-0.390071 0.09374,-0.586546 -0.08387,-0.225908 -0.356684,-0.319459 -0.57952,-0.277639 -0.265261,0.172849 -0.459917,0.460685 -0.494795,0.77799 -0.03156,0.229628 -0.02984,0.462295 -0.01483,0.69318 -0.256417,0.02894 -0.465214,-0.172682 -0.71761,-0.173918 -0.235477,-0.04171 -0.506374,-0.02407 -0.690655,0.145271 -0.169587,0.149139 -0.254037,0.409128 -0.154794,0.620609 0.100654,0.238569 0.396423,0.342796 0.631375,0.245276 0.354101,-0.114154 0.627264,-0.377835 0.923604,-0.590258 0.07676,-0.07319 -0.02896,0.06308 -0.01206,0.05333 -0.349306,0.637159 -0.673815,1.28737 -1.003214,1.93492 0.0047,-0.357416 0.02132,-0.723556 -0.08519,-1.069556 -0.108148,-0.211381 -0.343923,-0.361711 -0.584904,-0.334729 -0.236063,0.05835 -0.449297,0.264063 -0.456152,0.516527 -0.0056,0.268419 0.155069,0.520169 0.377823,0.661448 0.194487,0.132476 0.412234,0.2245 0.623509,0.326074 -0.01198,0.01218 -0.03214,-0.0031 -0.04806,-0.0042 z m -0.26891,-2.409602 c 0.243222,-0.152765 0.401751,-0.425387 0.422991,-0.710866 0.02657,-0.221695 0.02795,-0.445611 0.01689,-0.668388 0.208347,-0.07968 0.375919,0.133895 0.579616,0.141561 0.217182,0.07271 0.470081,0.08431 0.672222,-0.03802 0.206563,-0.104046 0.367022,-0.325645 0.348767,-0.563603 -0.0032,-0.189426 -0.140101,-0.375316 -0.326622,-0.420766 -0.238624,-0.04405 -0.476169,0.05426 -0.670268,0.186751 -0.220813,0.13834 -0.427482,0.297352 -0.636869,0.45202 0.06093,-0.233833 0.04489,-0.477948 0.03693,-0.71688 -0.02294,-0.22649 -0.120494,-0.45524 -0.305592,-0.595549 -0.221312,-0.114157 -0.508401,-0.06842 -0.688227,0.102077 -0.145746,0.156991 -0.171207,0.400457 -0.08561,0.592952 0.135452,0.280094 0.416761,0.44643 0.686402,0.577774 0.08447,0.04135 0.167076,0.0863 0.250193,0.130266 -0.278912,0.184712 -0.554906,0.375772 -0.803353,0.60066 -0.152364,0.169331 -0.226913,0.417574 -0.155579,0.638649 0.0603,0.181999 0.236707,0.307121 0.422199,0.334924 0.08668,0.02356 0.163015,0.01017 0.235917,-0.04357 z m -1.125217,0.01344 c 0.235735,-0.0629 0.404924,-0.318141 0.3613,-0.559756 -0.04096,-0.27245 -0.246431,-0.480356 -0.454591,-0.643024 -0.174624,-0.141464 -0.361028,-0.267208 -0.54256,-0.399455 0.302814,-0.117393 0.621156,-0.241483 0.843882,-0.488382 0.238203,-0.228432 0.200061,-0.679208 -0.0881,-0.849628 -0.206896,-0.146284 -0.526494,-0.134282 -0.69422,0.06689 -0.166853,0.194699 -0.20083,0.462033 -0.196221,0.709448 -0.0016,0.140809 -0.0032,0.281619 -0.0047,0.42243 -0.291961,-0.204214 -0.575949,-0.42853 -0.908198,-0.564921 -0.187933,-0.06328 -0.415899,-0.04216 -0.566137,0.09572 -0.149204,0.146626 -0.163145,0.392511 -0.06882,0.572343 0.105755,0.223477 0.353972,0.3469 0.592591,0.36396 0.346925,0.01996 0.66645,-0.13951 0.97852,-0.268211 -0.02582,0.285611 -0.03041,0.574008 0.0073,0.858802 0.04285,0.222029 0.157332,0.430649 0.327157,0.580797 0.124181,0.07048 0.266994,0.132928 0.41287,0.10299 z m 3.200241,-2.271847 c 0.227937,-0.04589 0.42152,-0.219891 0.499191,-0.437964 0.05526,-0.271089 -0.09081,-0.55614 -0.319225,-0.702026 -0.205369,-0.137003 -0.440397,-0.218623 -0.665044,-0.317616 0.312048,-0.2318 0.638687,-0.453989 0.889005,-0.7556 0.106655,-0.183812 0.150797,-0.426934 0.04042,-0.619147 -0.09659,-0.170002 -0.317868,-0.240236 -0.501559,-0.190408 -0.211364,0.04938 -0.361191,0.236816 -0.447129,0.426196 -0.132672,0.290834 -0.120415,0.61715 -0.123786,0.929391 -0.0026,0.0511 -0.0082,0.101884 -0.01615,0.152416 -0.30104,-0.126022 -0.61287,-0.273585 -0.947926,-0.248668 -0.226121,0.01808 -0.449826,0.137578 -0.565189,0.33721 -0.11947,0.217603 -0.05761,0.527997 0.168741,0.649497 0.203451,0.109682 0.454348,0.0525 0.646437,-0.05561 0.213733,-0.117374 0.411122,-0.262739 0.601101,-0.414907 0.04478,-0.03529 0.09298,-0.06744 0.147905,-0.08454 -0.02965,0.275656 -0.05087,0.557146 0.0026,0.831214 0.04553,0.189743 0.154899,0.382087 0.339658,0.464212 0.07969,0.03184 0.165534,0.04324 0.250903,0.03635 z m -5.407272,-0.06892 c 0.219074,-0.08724 0.36281,-0.307171 0.395511,-0.535714 0.03676,-0.226509 0.01941,-0.457099 0.03448,-0.685344 0.254139,0.02784 0.394907,0.284012 0.629353,0.364809 0.204035,0.120324 0.458752,0.239988 0.694604,0.138518 0.187614,-0.07526 0.307124,-0.281295 0.264743,-0.481306 -0.03497,-0.217552 -0.204109,-0.402012 -0.412338,-0.468347 -0.280743,-0.10441 -0.588834,-0.03918 -0.861949,0.05776 -0.09424,0.0387 -0.18555,0.09238 -0.28865,0.102868 -0.09871,-0.138068 0.0059,-0.318243 -0.03456,-0.474643 -0.01023,-0.211508 -0.05216,-0.423918 -0.140091,-0.617329 -0.09676,-0.202791 -0.291539,-0.377526 -0.523865,-0.387656 -0.223271,-0.01321 -0.445937,0.156655 -0.471931,0.382942 -0.02918,0.228569 0.09592,0.445846 0.249778,0.604917 0.221628,0.219588 0.486949,0.387025 0.731388,0.579094 -0.266412,0.123119 -0.554599,0.222456 -0.773393,0.425553 -0.143255,0.140775 -0.241462,0.345809 -0.204159,0.549423 0.03317,0.221515 0.223521,0.395299 0.43429,0.451571 0.09159,0.01908 0.188275,0.03215 0.276785,-0.0071 z m 3.232209,-1.531851 c 0.264827,-0.09887 0.454255,-0.351679 0.501198,-0.627152 0.05589,-0.255123 0.03603,-0.518108 0.05408,-0.776982 0.162208,-0.04704 0.297681,0.104012 0.458813,0.11024 0.225011,0.06839 0.478355,0.113519 0.700318,0.0097 0.192604,-0.08207 0.376504,-0.236557 0.413257,-0.452823 0.05106,-0.217945 -0.06545,-0.493239 -0.302914,-0.534029 -0.206684,-0.05085 -0.419501,0.03552 -0.590341,0.14849 -0.218252,0.135401 -0.427671,0.284762 -0.626665,0.447148 -0.01904,0.01988 -0.114871,0.06994 -0.08717,-0.0026 0.03545,-0.23176 0.02944,-0.467475 0.0032,-0.699846 -0.04859,-0.21924 -0.21392,-0.421297 -0.438541,-0.472121 -0.239987,-0.0421 -0.508574,0.07202 -0.624323,0.290901 -0.08481,0.170221 -0.04743,0.380072 0.06083,0.530782 0.131489,0.195962 0.356131,0.298231 0.56596,0.388274 0.109865,0.04838 0.23501,0.07316 0.327704,0.153419 -0.257701,0.125727 -0.479302,0.310346 -0.709762,0.478204 -0.18931,0.150361 -0.336506,0.392533 -0.281021,0.641435 0.04954,0.216255 0.259376,0.387332 0.483106,0.379454 0.03076,-0.0042 0.06152,-0.0084 0.09228,-0.01253 z m -1.020433,-0.0029 c 0.199171,-0.06603 0.34744,-0.258934 0.360097,-0.46841 0.0052,-0.195127 -0.113094,-0.368622 -0.247223,-0.49986 -0.232625,-0.211108 -0.501428,-0.376826 -0.757941,-0.556617 0.314093,-0.104064 0.636993,-0.224608 0.876351,-0.462478 0.15539,-0.195 0.16813,-0.508526 -0.01524,-0.690113 -0.159337,-0.157693 -0.407927,-0.22149 -0.620825,-0.145937 -0.199817,0.07627 -0.321032,0.281404 -0.354036,0.485105 -0.0357,0.237174 -0.01,0.478384 -0.0072,0.717035 -0.313368,-0.237007 -0.621975,-0.487951 -0.98001,-0.655683 -0.236431,-0.07297 -0.549701,0.02443 -0.617814,0.284088 -0.05657,0.218858 0.0487,0.458472 0.229363,0.587333 0.213177,0.168461 0.506172,0.1872 0.763841,0.134452 0.212408,-0.03652 0.409943,-0.132172 0.622991,-0.166173 -0.04368,0.25677 -0.04985,0.522788 0.0032,0.778564 0.05209,0.225435 0.163961,0.451844 0.366455,0.577148 0.114707,0.06018 0.246378,0.114995 0.377952,0.08155 z" /></g></pattern><pattern
   patternUnits="userSpaceOnUse"
   width="15"
   height="15.000001"
   patternTransform="translate(-79.980063,104.60006)"
   id="pattern6585"><g
     id="g6583"
     transform="matrix(3.7795696,0,0,3.7795276,80.941137,-152.91993)"><rect
       style="fill:#eaae24;fill-opacity:1;stroke:none;stroke-width:0.529164;stroke-linecap:round;stroke-linejoin:round;stroke-miterlimit:8;stroke-opacity:1;stop-color:#000000"
       id="rect4545"
       width="3.9687059"
       height="3.9687502"
       x="-21.415438"
       y="40.460064" /><ellipse
       style="fill:none;fill-opacity:1;stroke:#f5cc6e;stroke-width:0.264582;stroke-linecap:round;stroke-linejoin:round;stroke-miterlimit:8;stroke-dasharray:none;stroke-opacity:1;stop-color:#000000"
       id="path4599"
       cx="-20.885313"
       cy="43.814156"
       rx="0.26457959"
       ry="0.26458353" /><use
       x="0"
       y="0"
       xlink:href="#path4599"
       id="use6441"
       transform="translate(1.7552328,-1.6359983)" /><use
       x="0"
       y="0"
       xlink:href="#use6441"
       id="use6443"
       transform="translate(0.50651869,1.6896364)" /><use
       x="0"
       y="0"
       xlink:href="#use6443"
       id="use6445"
       transform="translate(0.4900357,-1.0196967)" /><use
       x="0"
       y="0"
       xlink:href="#use6445"
       id="use6447"
       transform="translate(-0.16768897,-1.5697696)" /><use
       x="0"
       y="0"
       xlink:href="#use6447"
       id="use6449"
       transform="translate(-1.5255417,-0.10740098)" /><use
       x="0"
       y="0"
       xlink:href="#use6449"
       id="use6451"
       transform="translate(-0.86228154,0.82610428)" /><use
       x="0"
       y="0"
       xlink:href="#use6451"
       id="use6453"
       transform="translate(-0.23158334,-1.0744792)" /><use
       x="0"
       y="0"
       xlink:href="#use6441"
       id="use6455"
       transform="translate(-0.57684871,1.0213943)" /></g></pattern><pattern
   patternUnits="userSpaceOnUse"
   width="14.999999"
   height="14.999999"
   patternTransform="translate(-79.979234,83.022824)"
   id="pattern6608"><g
     id="g6606"
     transform="matrix(3.7795696,0,0,3.7795276,80.940308,-131.34269)"><rect
       style="fill:#f2f2f2;fill-opacity:1;stroke:none;stroke-width:0.264582;stroke-linecap:round;stroke-linejoin:round;stroke-miterlimit:8;stroke-dasharray:none;stroke-opacity:1;stop-color:#000000"
       id="rect6509"
       width="3.9687057"
       height="3.9687498"
       x="-21.415218"
       y="34.751087" /><ellipse
       style="fill:#e5e5e5;fill-opacity:1;stroke:none;stroke-width:0.264583;stroke-linecap:round;stroke-linejoin:round;stroke-miterlimit:8;stroke-dasharray:none;stroke-opacity:1;stop-color:#000000"
       id="path6563"
       cx="-20.671011"
       cy="37.909187"
       rx="0.5291608"
       ry="0.52916664" /><use
       x="0"
       y="0"
       xlink:href="#path6563"
       id="use6565"
       transform="translate(1.0875204,-1.2004197)" /><use
       x="0"
       y="0"
       xlink:href="#use6565"
       id="use6567"
       transform="translate(1.19003,1.0206523)" /><use
       x="0"
       y="0"
       xlink:href="#use6567"
       id="use6569"
       transform="translate(-0.08735158,-2.1901404)" /><use
       x="0"
       y="0"
       xlink:href="#use6569"
       id="use6571"
       transform="translate(-2.0307263,0.0799172)" /></g></pattern><pattern
   patternUnits="userSpaceOnUse"
   width="15.000001"
   height="15.000002"
   patternTransform="translate(-79.979234,83.022824)"
   id="pattern6720"><g
     id="g6718"
     transform="matrix(3.7795696,0,0,3.7795276,80.940308,-131.34269)"><rect
       style="fill:none;stroke:none;stroke-width:0.999994"
       width="14.999999"
       height="14.999999"
       x="-79.979233"
       y="83.022827"
       id="rect6617"
       transform="matrix(0.26458039,0,0,0.26458333,-0.25428131,12.784632)" /><rect
       style="fill:#f2f2f2;fill-opacity:1;stroke:none;stroke-width:1;stroke-linecap:round;stroke-linejoin:round;stroke-miterlimit:8;stroke-dasharray:none;stroke-opacity:1;stop-color:#000000"
       id="rect6623"
       width="3.9687057"
       height="3.9687498"
       x="-21.415218"
       y="34.751087" /><ellipse
       style="fill:#e5e5e5;fill-opacity:1;stroke:none;stroke-width:0.132291;stroke-linecap:round;stroke-linejoin:round;stroke-miterlimit:8;stroke-dasharray:none;stroke-opacity:1;stop-color:#000000"
       id="use6627"
       cx="-20.922787"
       cy="38.200905"
       rx="0.2645804"
       ry="0.26458332" /><use
       x="0"
       y="0"
       xlink:href="#use6627"
       id="use6639"
       transform="translate(0.55032707,-0.50560929)" /><use
       x="0"
       y="0"
       xlink:href="#use6639"
       id="use6641"
       transform="translate(0.63133245,0.53700122)" /><use
       x="0"
       y="0"
       xlink:href="#use6641"
       id="use6643"
       transform="translate(0.66090473,-1.2029)" /><use
       x="0"
       y="0"
       xlink:href="#use6643"
       id="use6645"
       transform="translate(0.43940084,0.68981409)" /><use
       x="0"
       y="0"
       xlink:href="#use6641"
       id="use6647"
       transform="translate(0.0773662,-0.68578833)" /><use
       x="0"
       y="0"
       xlink:href="#use6647"
       id="use6649"
       transform="translate(-0.35015247,-0.64020745)" /><use
       x="0"
       y="0"
       xlink:href="#use6649"
       id="use6651"
       transform="translate(0.46938448,-0.51097649)" /><use
       x="0"
       y="0"
       xlink:href="#use6651"
       id="use6653"
       transform="translate(1.1907544,0.71996935)" /><use
       x="0"
       y="0"
       xlink:href="#use6653"
       id="use6655"
       transform="translate(-0.18818051,-0.65688231)" /><use
       x="0"
       y="0"
       xlink:href="#use6655"
       id="use6657"
       transform="translate(-0.24180263,-0.6342356)" /><use
       x="0"
       y="0"
       xlink:href="#use6657"
       id="use6659"
       transform="translate(0.84683973,0.15892858)" /><use
       x="0"
       y="0"
       xlink:href="#use6659"
       id="use6661"
       transform="translate(-1.0729345,-0.88972968)" /><use
       x="0"
       y="0"
       xlink:href="#use6661"
       id="use6663"
       transform="translate(-0.45814318,0.51439049)" /><use
       x="0"
       y="0"
       xlink:href="#use6663"
       id="use6665"
       transform="translate(-0.78666377,0.33356314)" /><use
       x="0"
       y="0"
       xlink:href="#use6665"
       id="use6667"
       transform="translate(0.07739902,-0.76765698)" /><use
       x="0"
       y="0"
       xlink:href="#use6667"
       id="use6669"
       transform="translate(-0.80619943,0.04449465)" /><use
       x="0"
       y="0"
       xlink:href="#use6669"
       id="use6671"
       transform="translate(0.28760624,1.4958038)" /><use
       x="0"
       y="0"
       xlink:href="#use6671"
       id="use6673"
       transform="translate(-0.357081,0.58227265)" /><use
       x="0"
       y="0"
       xlink:href="#use6673"
       id="use6675"
       transform="translate(2.1420051,1.1161131)" /><use
       x="0"
       y="0"
       xlink:href="#use6675"
       id="use6677"
       transform="translate(0.71822312,-0.04682412)" /><use
       x="0"
       y="0"
       xlink:href="#use6677"
       id="use6679"
       transform="translate(-2.7916926,-2.294904)" /><use
       x="0"
       y="0"
       xlink:href="#use6661"
       id="use6681"
       transform="translate(0.72681467,0.27923103)" /><use
       x="0"
       y="0"
       xlink:href="#use6659"
       id="use6683"
       transform="translate(0.14287391,0.63272002)" /><use
       x="0"
       y="0"
       xlink:href="#use6683"
       id="use6685"
       transform="translate(-0.03149093,1.1442709)" /><use
       x="0"
       y="0"
       xlink:href="#use6685"
       id="use6687"
       transform="translate(0.06554824,-2.6818376)" /></g></pattern></defs><g
     id="layer1"><path
       style="fill:#ffdb26;fill-opacity:1;stroke:#000000;stroke-width:1.05833;stroke-linecap:round;stroke-linejoin:round;stroke-dasharray:none;paint-order:normal;stop-color:#000000"
       d="M 6.3460128,10.987509 C 6.0131876,8.1033126 6.9112569,5.0355095 7.1713329,3.7040818 c 1.6823697,0.883682 3.1509471,1.8173157 5.1540591,3.4426941 3.460025,-0.9271224 7.675181,-0.4344139 10.458981,0.611344 2.188665,-1.101117 4.320882,-1.7567683 7.249119,-1.9517024 0.321474,1.7913943 -0.0283,5.5961075 -1.06115,7.5149165 1.483302,5.222627 1.500916,12.296756 -0.04318,13.840869 C 24.518229,31.573194 5.6799495,31.273305 4.0639285,25.242152 3.064468,21.512066 4.2865251,13.752064 6.3460128,10.987509 Z"
       id="path236" /><ellipse
       style="fill:#000000;fill-opacity:1;stroke:none;stroke-width:2.11668;stroke-linecap:round;stroke-linejoin:round;stroke-dasharray:none;paint-order:stroke markers fill;stop-color:#000000"
       id="path6982"
       cx="12.96371"
       cy="12.570978"
       rx="1.6752723"
       ry="2.1418331"
       transform="rotate(8)" /><use
       x="0"
       y="0"
       xlink:href="#path6982"
       id="use7712"
       transform="translate(8.953004,0.69247082)"
       style="stroke-width:1.07136" /><path
       style="fill:none;fill-opacity:1;stroke:#000000;stroke-width:0.79375;stroke-linecap:round;stroke-linejoin:round;stroke-dasharray:none;stroke-opacity:1;paint-order:stroke markers fill;stop-color:#000000"
       d="m 10.004075,18.459715 c -1.4238886,3.039424 2.342169,4.371724 4.594902,1.690642 3.202672,3.608669 6.496348,1.194297 5.575255,-1.100462"
       id="path7824" /><path
       style="fill:none;fill-opacity:1;stroke:#000000;stroke-width:0.79375;stroke-linecap:round;stroke-linejoin:round;stroke-dasharray:none;stroke-opacity:1;paint-order:normal;stop-color:#000000"
       d="m 22.889183,18.104059 4.87622,-0.734341"
       id="path7889" /><path
       style="fill:none;fill-opacity:1;stroke:#000000;stroke-width:0.79375;stroke-linecap:round;stroke-linejoin:round;stroke-dasharray:none;stroke-opacity:1;paint-order:normal;stop-color:#000000"
       d="m 22.899838,20.260593 4.684517,0.851137"
       id="path7891" /><path
       style="fill:none;fill-opacity:1;stroke:#000000;stroke-width:0.79375;stroke-linecap:round;stroke-linejoin:round;stroke-dasharray:none;stroke-opacity:1;paint-order:normal;stop-color:#000000"
       d="M 8.2565339,17.019465 5.9675926,15.975012"
       id="path7893" /><path
       style="fill:none;fill-opacity:1;stroke:#000000;stroke-width:0.79375;stroke-linecap:round;stroke-linejoin:round;stroke-dasharray:none;stroke-opacity:1;paint-order:normal;stop-color:#000000"
       d="M 7.7354506,18.902572 5.5452359,18.75928"
       id="path7895" /></g><metadata
     id="metadata4277"><rdf:RDF><cc:Work
         rdf:about=""><dc:title>Gutkato trinkas bieron</dc:title><dc:creator><cc:Agent><dc:title>Tirifto</dc:title></cc:Agent></dc:creator><dc:subject><rdf:Bag><rdf:li>gutkato</rdf:li><rdf:li>gutkatoj</rdf:li><rdf:li>federujo</rdf:li></rdf:Bag></dc:subject><cc:license
           rdf:resource="http://artlibre.org/licence/lal" /><dc:description>Gutkato, destinita al uzo kiel glumarko aŭ propra bildosigno, ekzemple en Federujo aŭ aliaj retaj komunikiloj.</dc:description><dc:date>2024</dc:date></cc:Work><cc:License
         rdf:about="http://artlibre.org/licence/lal"><cc:permits
           rdf:resource="http://creativecommons.org/ns#Reproduction" /><cc:permits
           rdf:resource="http://creativecommons.org/ns#Distribution" /><cc:permits
           rdf:resource="http://creativecommons.org/ns#DerivativeWorks" /><cc:requires
           rdf:resource="http://creativecommons.org/ns#ShareAlike" /><cc:requires
           rdf:resource="http://creativecommons.org/ns#Notice" /><cc:requires
           rdf:resource="http://creativecommons.org/ns#Attribution" /></cc:License></rdf:RDF></metadata><g
     id="g6765"
     transform="matrix(1.0000111,0,0,1,0.25428413,-12.784632)"
     style="stroke-width:0.999994"><g
       id="g6920"
       transform="translate(22.78914,-0.8912587)"
       style="stroke-width:1.00011943;stroke-dasharray:none"><path
         id="rect6910"
         style="fill:#ffffff;fill-opacity:0.3;stroke:#000000;stroke-width:0.79374558;stroke-linecap:round;stroke-linejoin:round;stroke-miterlimit:8;stroke-dasharray:none;stroke-opacity:1;stop-color:#000000"
         d="m -4.3242719,36.65084 c -0.7414191,0 -1.3384047,0.655669 -1.3384047,1.469678 v 0.06046 c 0.032953,-0.0022 0.066428,-0.0036 0.1002512,-0.0036 h 1.4965328 c 0.5609343,0 1.0123301,0.315463 1.0123301,0.70745 v 2.13062 c 0,0.391987 -0.4513958,0.70745 -1.0123301,0.70745 h -1.4965328 c -0.033823,0 -0.067298,-0.0014 -0.1002512,-0.0036 v 0.06046 c 0,0.814009 0.5969856,1.469678 1.3384047,1.469678 h 1.3213517 c 0.7414191,0 1.3384047,-0.655669 1.3384047,-1.469678 V 38.12055 c 0,-0.814009 -0.5969856,-1.469678 -1.3384047,-1.469678 z" /><path
         id="rect434"
         style="fill:url(#pattern6619);fill-opacity:1;stroke:none;stroke-width:1.00011943;stroke-linecap:round;stroke-linejoin:round;stroke-miterlimit:8;stop-color:#000000;stroke-dasharray:none"
         d="m -13.469795,34.260893 c 1.378479,2.387623 7.1073423,2.354276 8.4665693,0 0.1482096,3.708354 0.2533605,6.357409 0,10.056752 -1.4248852,2.468001 -7.0581143,2.439542 -8.4665693,0 -0.416469,-3.705028 -0.190217,-6.351724 0,-10.056752 z"
         sodipodi:nodetypes="ccccc" /><path
         id="path4200"
         style="fill:url(#pattern6755);fill-opacity:1;stroke:none;stroke-width:1.00011943;stroke-linecap:round;stroke-linejoin:round;stroke-miterlimit:8;stop-color:#000000;stroke-dasharray:none"
         d="m -13.469795,33.731726 c 2.05651,1.18734 6.5169016,1.125654 8.4665693,0 0.049466,0.738059 0.044753,2.524146 0,3.177586 -1.4248852,2.468001 -7.0581143,2.439542 -8.4665693,0 -0.127151,-1.131169 -0.04013,-2.395994 0,-3.177586 z"
         sodipodi:nodetypes="ccccc" /><path
         id="path4198"
         style="fill:none;fill-opacity:1;stroke:#000000;stroke-width:0.79374558;stroke-linecap:round;stroke-linejoin:round;stroke-miterlimit:8;stroke-dasharray:none;stroke-opacity:1;stop-color:#000000"
         d="m -13.469795,34.260893 c 1.378479,2.387623 7.1073423,2.354276 8.4665693,0 0.1482096,3.708354 0.2533605,6.357409 0,10.056752 -1.4248852,2.468001 -7.0581143,2.439542 -8.4665693,0 -0.416469,-3.705028 -0.190217,-6.351724 0,-10.056752 z"
         sodipodi:nodetypes="ccccc" /><path
         style="fill:url(#pattern6753);fill-opacity:1;stroke:#333333;stroke-width:0.793746;stroke-linecap:round;stroke-linejoin:round;stroke-miterlimit:8;stroke-dasharray:none;stroke-opacity:1;stop-color:#000000"
         d="m -13.326173,34.132482 c -0.407262,0.378287 -1.472692,-0.139002 -1.369869,-1.136151 0.102822,-0.997148 0.808527,-1.224049 1.461078,-1.049197 0,-0.664746 0.594937,-1.462609 1.452843,-1.446136 0.857906,0.01647 1.388671,0.598652 1.388671,0.598652 0,0 -0.0092,-1.215379 1.0456262,-1.215379 1.0548203,0 1.2278204,1.012681 1.2278204,1.012681 0,0 0.6422477,-0.538606 1.228911,-0.422667 0.5866632,0.115939 1.0285686,0.55567 1.2205184,1.272045 0.3609956,-0.208423 1.0996385,-0.124039 1.4775658,0.530558 0.3779273,0.654597 0.025633,1.714093 -0.7315138,1.916972 -0.2961784,0.423593 -0.6986233,0.908995 -0.7294535,1.506359 -0.027601,0.534793 -0.1685242,0.999122 -1.0122074,1.225189 -0.8436832,0.226067 -1.1184957,-0.778387 -1.1184957,-0.778387 0,0 -0.4934421,0.562649 -1.3742195,0.360014 C -10.039676,36.3044 -10.45969,35.655074 -10.545184,35.336001"
         id="path3332"
         sodipodi:nodetypes="czczczczczcszczc" /></g><rect
       style="stroke:none;fill:url(#pattern6585)"
       transform="matrix(0.26458039,0,0,0.26458333,-0.25428131,12.784632)"
       width="15"
       height="15.000001"
       x="-79.980063"
       y="104.60006"
       id="rect6598" /><g
       id="g6635"
       style="stroke-width:3.77953"><rect
         style="stroke:none;fill:url(#pattern6720)"
         transform="matrix(0.26458039,0,0,0.26458333,-0.25428131,12.784632)"
         width="15.000001"
         height="15.000002"
         x="-79.979234"
         y="83.022824"
         id="rect6751" /></g></g><g
     id="g1303"
     transform="rotate(-108,16.830638,22.851706)"><path
       style="fill:#ffdb26;fill-opacity:1;stroke:#000000;stroke-width:0.79375;stroke-linecap:round;stroke-linejoin:round;stroke-dasharray:none;stroke-opacity:1;paint-order:markers fill stroke;stop-color:#000000"
       d="m 9.8210863,28.420283 c 0,-3.556877 0.8181757,-5.12703 2.7781057,-5.12616 1.95993,8.7e-4 2.778105,1.565647 2.778105,5.12616"
       id="path915"
       sodipodi:nodetypes="csc" /><g
       id="g1296"
       transform="translate(-0.0585258)"><path
         style="fill:#ffdb26;fill-opacity:1;stroke:#000000;stroke-width:0.529167;stroke-linecap:round;stroke-linejoin:round;stroke-dasharray:none;stroke-opacity:1;paint-order:markers fill stroke;stop-color:#000000"
         d="m 11.599399,23.694455 v 1.058284"
         id="path1283" /><path
         style="fill:#ffdb26;fill-opacity:1;stroke:#000000;stroke-width:0.529167;stroke-linecap:round;stroke-linejoin:round;stroke-dasharray:none;stroke-opacity:1;paint-order:markers fill stroke;stop-color:#000000"
         d="m 12.657717,23.661518 v 1.058284"
         id="use1287" /><path
         style="fill:#ffdb26;fill-opacity:1;stroke:#000000;stroke-width:0.529167;stroke-linecap:round;stroke-linejoin:round;stroke-dasharray:none;stroke-opacity:1;paint-order:markers fill stroke;stop-color:#000000"
         d="m 13.716036,23.694455 v 1.058284"
         id="use1291" /></g></g></svg>
