<?xml version="1.0" encoding="UTF-8" standalone="no"?>
<!-- Created with Inkscape (http://www.inkscape.org/) -->

<svg
   width="128"
   height="128"
   viewBox="0 0 33.866666 33.866666"
   version="1.1"
   id="svg5"
   xml:space="preserve"
   sodipodi:docname="gutkato_fornogantoj.svg"
   inkscape:version="1.2.2 (b0a8486541, 2022-12-01)"
   xmlns:inkscape="http://www.inkscape.org/namespaces/inkscape"
   xmlns:sodipodi="http://sodipodi.sourceforge.net/DTD/sodipodi-0.dtd"
   xmlns:xlink="http://www.w3.org/1999/xlink"
   xmlns="http://www.w3.org/2000/svg"
   xmlns:svg="http://www.w3.org/2000/svg"
   xmlns:rdf="http://www.w3.org/1999/02/22-rdf-syntax-ns#"
   xmlns:cc="http://creativecommons.org/ns#"
   xmlns:dc="http://purl.org/dc/elements/1.1/"><sodipodi:namedview
     id="namedview3241"
     pagecolor="#505050"
     bordercolor="#eeeeee"
     borderopacity="1"
     inkscape:showpageshadow="0"
     inkscape:pageopacity="0"
     inkscape:pagecheckerboard="0"
     inkscape:deskcolor="#505050"
     showgrid="false"
     inkscape:zoom="3.6875"
     inkscape:cx="74.711864"
     inkscape:cy="93.966102"
     inkscape:window-width="1232"
     inkscape:window-height="750"
     inkscape:window-x="48"
     inkscape:window-y="26"
     inkscape:window-maximized="1"
     inkscape:current-layer="svg5" /><title
     id="title4279">Gutkato, fornogantoj</title><defs
     id="defs2" /><metadata
     id="metadata4277"><rdf:RDF><cc:Work
         rdf:about=""><dc:title>Gutkato, fornogantoj</dc:title><dc:creator><cc:Agent><dc:title>Tirifto</dc:title></cc:Agent></dc:creator><dc:subject><rdf:Bag><rdf:li>gutkato</rdf:li><rdf:li>gutkatoj</rdf:li><rdf:li>federujo</rdf:li></rdf:Bag></dc:subject><cc:license
           rdf:resource="http://artlibre.org/licence/lal" /><dc:description>Gutkato, destinita al uzo kiel glumarko aŭ propra bildosigno, ekzemple en Federujo aŭ aliaj retaj komunikiloj.</dc:description><dc:date>2024</dc:date></cc:Work><cc:License
         rdf:about="http://artlibre.org/licence/lal"><cc:permits
           rdf:resource="http://creativecommons.org/ns#Reproduction" /><cc:permits
           rdf:resource="http://creativecommons.org/ns#Distribution" /><cc:permits
           rdf:resource="http://creativecommons.org/ns#DerivativeWorks" /><cc:requires
           rdf:resource="http://creativecommons.org/ns#ShareAlike" /><cc:requires
           rdf:resource="http://creativecommons.org/ns#Notice" /><cc:requires
           rdf:resource="http://creativecommons.org/ns#Attribution" /></cc:License></rdf:RDF></metadata><g
     id="g311"
     transform="matrix(-1,0,0,1,52.844841,1.1271069)"><path
       style="fill:#ffdb26;fill-opacity:1;stroke:#000000;stroke-width:0.79375;stroke-linecap:round;stroke-linejoin:round;stroke-dasharray:none;stroke-opacity:1;paint-order:markers fill stroke;stop-color:#000000"
       d="m 7.8361683,29.645983 c 0,-4.572106 0.8181757,-6.185364 2.7781057,-6.184494 1.95993,8.7e-4 2.778105,1.614295 2.778105,6.184494"
       id="path309" /></g><path
     style="fill:#10446e;fill-opacity:1;stroke:#000000;stroke-width:0.79375;stroke-linecap:round;stroke-linejoin:round;stroke-miterlimit:8;stroke-dasharray:none;stroke-opacity:1;stop-color:#000000"
     d="m 39.037323,29.736608 h 6.45538 c 0,0 0.667465,-6.323618 -3.133546,-6.323618 -2.824788,0 -2.519075,2.007203 -2.519075,2.688249 0,0 -0.385231,-0.875613 -1.134668,-0.44225 -0.849893,0.491451 -0.0955,1.585939 0.148325,3.007375 z"
     id="path367"
     sodipodi:nodetypes="ccscssc" /><g
     id="g2519"
     transform="translate(0.81432296)"><path
       id="path236"
       style="fill:#ffdb26;fill-opacity:1;stroke:#000000;stroke-width:1.05833;stroke-linecap:round;stroke-linejoin:round;stroke-dasharray:none;paint-order:normal;stop-color:#000000"
       d="M 7.1711384,3.7041666 C 6.9110626,5.035593 6.0130409,8.1032493 6.3458658,10.987443 4.9821773,12.817991 3.9864817,16.83846 3.7589436,20.429244 c -1.325936,-0.03572 -2.1427633,0.486335 -2.5512654,1.607137 -0.62890375,1.725515 0.4009891,2.98825 3.2649169,4.134631 3.099932,4.954483 19.1885839,5.155292 24.0093869,1.384411 2.027688,-0.827075 2.654001,-1.811614 2.336808,-3.182751 C 30.687748,23.806214 30.441085,23.369303 30.04261,23.062158 30.219096,20.197737 29.855689,16.431196 28.972391,13.32115 30.00524,11.402343 30.354782,7.5977563 30.033308,5.8063638 27.105074,6.0012977 24.972801,6.6570667 22.784139,7.7581826 20.000341,6.7124258 15.785367,6.219729 12.325346,7.1468504 10.322236,5.5214737 8.8535064,4.5878477 7.1711384,3.7041666 Z" /><ellipse
       style="fill:#000000;fill-opacity:1;stroke:none;stroke-width:2.11668;stroke-linecap:round;stroke-linejoin:round;stroke-dasharray:none;paint-order:stroke markers fill;stop-color:#000000"
       id="path6982"
       cx="12.96371"
       cy="12.570978"
       rx="1.6752723"
       ry="2.1418331"
       transform="rotate(8)" /><use
       x="0"
       y="0"
       xlink:href="#path6982"
       id="use7712"
       transform="translate(8.953004,0.69247082)"
       style="stroke-width:1.07136" /><path
       style="fill:none;fill-opacity:1;stroke:#000000;stroke-width:0.79375;stroke-linecap:round;stroke-linejoin:round;stroke-dasharray:none;stroke-opacity:1;paint-order:stroke markers fill;stop-color:#000000"
       d="m 10.004075,19.121173 c -1.4238886,3.039424 2.342169,4.371724 4.594902,1.690642 3.202672,3.608669 6.496348,1.194297 5.575255,-1.100462"
       id="path7824" /><path
       style="fill:none;fill-opacity:1;stroke:#000000;stroke-width:0.79375;stroke-linecap:round;stroke-linejoin:round;stroke-dasharray:none;stroke-opacity:1;paint-order:normal;stop-color:#000000"
       d="m 22.889183,18.104059 4.87622,-0.734341"
       id="path7889" /><path
       style="fill:none;fill-opacity:1;stroke:#000000;stroke-width:0.79375;stroke-linecap:round;stroke-linejoin:round;stroke-dasharray:none;stroke-opacity:1;paint-order:normal;stop-color:#000000"
       d="m 22.899838,20.260593 4.684517,0.851137"
       id="path7891" /><path
       style="fill:none;fill-opacity:1;stroke:#000000;stroke-width:0.79375;stroke-linecap:round;stroke-linejoin:round;stroke-dasharray:none;stroke-opacity:1;paint-order:normal;stop-color:#000000"
       d="M 8.2565339,17.019465 5.9675926,15.975012"
       id="path7893" /><path
       style="fill:none;fill-opacity:1;stroke:#000000;stroke-width:0.79375;stroke-linecap:round;stroke-linejoin:round;stroke-dasharray:none;stroke-opacity:1;paint-order:normal;stop-color:#000000"
       d="M 7.7354506,18.902572 5.5452359,18.75928"
       id="path7895" /><path
       style="fill:#ffdb26;fill-opacity:1;stroke:#000000;stroke-width:0.79375;stroke-linecap:round;stroke-linejoin:round;stroke-dasharray:none;stroke-opacity:1;paint-order:markers fill stroke;stop-color:#000000"
       d="M 5.0744982,26.400303 C 1.7543396,25.191864 0.53649852,23.877922 1.2076516,22.036488 1.8788047,20.195054 3.6515924,19.969612 6.9748342,21.179173"
       id="path915" /><circle
       style="fill:#c2748e;fill-opacity:1;stroke:none;stroke-width:0.891479;stroke-linecap:round;stroke-linejoin:round;paint-order:markers fill stroke;stop-color:#000000"
       id="circle1002"
       cx="21.432327"
       cy="10.351334"
       r="0.33072916"
       transform="matrix(-0.34202014,0.93969262,0.93969262,0.34202014,0,0)" /><path
       id="path978"
       style="fill:#c2748e;fill-opacity:1;stroke:none;stroke-width:1.2795;stroke-linecap:round;stroke-linejoin:round;paint-order:markers fill stroke;stop-color:#000000"
       d="M 2.672936,22.551242 A 0.84504452,0.84504452 0 0 0 3.0422118,23.57034 0.84504452,0.84504452 0 0 0 3.5055487,23.980196 0.84504452,0.84504452 0 0 0 4.588953,23.475646 0.84504452,0.84504452 0 0 0 4.63556,23.264792 0.84504452,0.84504452 0 0 0 4.734815,23.074864 0.84504452,0.84504452 0 0 0 4.2294845,21.991178 0.84504452,0.84504452 0 0 0 3.6100306,22.007718 0.84504452,0.84504452 0 0 0 2.672867,22.551311 Z" /><use
       x="0"
       y="0"
       xlink:href="#circle1002"
       id="use1004"
       transform="translate(-0.27004874,-0.87258957)" /><use
       x="0"
       y="0"
       xlink:href="#circle1002"
       id="use1008"
       transform="translate(0.02459657,-1.6821205)" /><use
       x="0"
       y="0"
       xlink:href="#circle1002"
       id="use1010"
       transform="translate(0.79051461,-2.1719201)"
       style="stroke-width:1.00012;stroke-dasharray:none" /><g
       id="g476"
       transform="matrix(-0.22495105,-0.97437007,-0.97437007,0.22495105,56.066772,29.437218)"><path
         style="fill:#ffdb26;fill-opacity:1;stroke:#000000;stroke-width:0.79375;stroke-linecap:round;stroke-linejoin:round;stroke-dasharray:none;stroke-opacity:1;paint-order:markers fill stroke;stop-color:#000000"
         d="m 7.8361683,29.645983 c 0,-4.572106 0.8181757,-6.185364 2.7781057,-6.184494 1.95993,8.7e-4 2.778105,1.614295 2.778105,6.184494"
         id="path466" /></g><circle
       style="fill:#c2748e;fill-opacity:1;stroke:none;stroke-width:0.891479;stroke-linecap:round;stroke-linejoin:round;paint-order:markers fill stroke;stop-color:#000000"
       id="circle1031"
       cx="31.837284"
       cy="-22.842051"
       r="0.33072916"
       transform="rotate(77)" /><path
       id="path1033"
       style="fill:#c2748e;fill-opacity:1;stroke:none;stroke-width:1.2795;stroke-linecap:round;stroke-linejoin:round;paint-order:markers fill stroke;stop-color:#000000"
       d="m 29.281929,24.728792 a 0.84504452,0.84504452 0 0 1 -0.490721,0.966499 0.84504452,0.84504452 0 0 1 -0.509832,0.350333 0.84504452,0.84504452 0 0 1 -1.013839,-0.632822 0.84504452,0.84504452 0 0 1 -0.02056,-0.214963 0.84504452,0.84504452 0 0 1 -0.07536,-0.200608 0.84504452,0.84504452 0 0 1 0.633632,-1.014024 0.84504452,0.84504452 0 0 1 0.61282,0.09191 0.84504452,0.84504452 0 0 1 0.863931,0.653752 z" /><circle
       style="fill:#c2748e;fill-opacity:1;stroke:none;stroke-width:0.891479;stroke-linecap:round;stroke-linejoin:round;paint-order:markers fill stroke;stop-color:#000000"
       id="use1035"
       cx="31.109682"
       cy="-23.394257"
       r="0.33072916"
       transform="rotate(77.000001)" /><circle
       style="fill:#c2748e;fill-opacity:1;stroke:none;stroke-width:0.891479;stroke-linecap:round;stroke-linejoin:round;paint-order:markers fill stroke;stop-color:#000000"
       id="use1037"
       cx="30.248196"
       cy="-23.394257"
       r="0.33072916"
       transform="rotate(77.000001)" /><circle
       style="fill:#c2748e;fill-opacity:1;stroke:none;stroke-width:0.891479;stroke-linecap:round;stroke-linejoin:round;paint-order:markers fill stroke;stop-color:#000000"
       id="use1039"
       cx="29.525976"
       cy="-22.842051"
       r="0.33072916"
       transform="rotate(77.000001)" /><path
       style="fill:#10446e;fill-opacity:1;stroke:#000000;stroke-width:0.79375;stroke-linecap:round;stroke-linejoin:round;stroke-miterlimit:8;stroke-dasharray:none;stroke-opacity:1;stop-color:#000000"
       d="m 24.561015,22.53467 1.452605,6.284815 c 0,0 6.304094,-0.769307 5.448782,-4.469887 -0.63564,-2.75015 -2.52018,-2.002062 -3.182947,-1.849223 0,0 0.765427,-0.571556 0.175054,-1.203937 -0.669505,-0.717146 -1.564863,0.262939 -2.893284,0.819316 z"
       id="path1027"
       sodipodi:nodetypes="ccscssc" /><path
       style="fill:#10446e;fill-opacity:1;stroke:#000000;stroke-width:0.79375;stroke-linecap:round;stroke-linejoin:round;stroke-miterlimit:8;stroke-dasharray:none;stroke-opacity:1;stop-color:#000000"
       d="m 6.5835186,20.557993 -2.1015061,6.097401 c 0,0 -5.9205406,-1.286665 -4.68314756,-4.876892 0.91959049,-2.668139 2.71481566,-1.727587 3.35770596,-1.506434 0,0 -0.701147,-0.648202 -0.048092,-1.215355 0.7405937,-0.643176 1.2620926,0.288462 2.5245174,0.980341 z"
       id="path1029"
       sodipodi:nodetypes="ccscssc" /></g></svg>
