<?xml version="1.0" encoding="UTF-8" standalone="no"?>
<!-- Created with Inkscape (http://www.inkscape.org/) -->

<svg
   width="128"
   height="128"
   viewBox="0 0 33.866666 33.866666"
   version="1.1"
   id="svg5"
   xml:space="preserve"
   sodipodi:docname="gutkato_manĝas_bastontorteton.svg"
   inkscape:version="1.2.2 (b0a8486541, 2022-12-01)"
   inkscape:export-filename="gutkato_manĝas_kuketon.png"
   inkscape:export-xdpi="96"
   inkscape:export-ydpi="96"
   xmlns:inkscape="http://www.inkscape.org/namespaces/inkscape"
   xmlns:sodipodi="http://sodipodi.sourceforge.net/DTD/sodipodi-0.dtd"
   xmlns:xlink="http://www.w3.org/1999/xlink"
   xmlns="http://www.w3.org/2000/svg"
   xmlns:svg="http://www.w3.org/2000/svg"
   xmlns:rdf="http://www.w3.org/1999/02/22-rdf-syntax-ns#"
   xmlns:cc="http://creativecommons.org/ns#"
   xmlns:dc="http://purl.org/dc/elements/1.1/"><sodipodi:namedview
     id="namedview15"
     pagecolor="#505050"
     bordercolor="#eeeeee"
     borderopacity="1"
     inkscape:showpageshadow="0"
     inkscape:pageopacity="0"
     inkscape:pagecheckerboard="0"
     inkscape:deskcolor="#505050"
     showgrid="false"
     showguides="false"
     inkscape:zoom="1"
     inkscape:cx="29.999999"
     inkscape:cy="110.5"
     inkscape:window-width="1232"
     inkscape:window-height="750"
     inkscape:window-x="48"
     inkscape:window-y="26"
     inkscape:window-maximized="1"
     inkscape:current-layer="g12524" /><title
     id="title4279">Gutkato manĝas bastontorteton</title><defs
     id="defs2"><inkscape:path-effect
       effect="bspline"
       id="path-effect12642"
       is_visible="true"
       lpeversion="1"
       weight="33.333333"
       steps="2"
       helper_size="0"
       apply_no_weight="true"
       apply_with_weight="true"
       only_selected="false" /><inkscape:path-effect
       effect="bspline"
       id="path-effect12638"
       is_visible="true"
       lpeversion="1"
       weight="33.333333"
       steps="2"
       helper_size="0"
       apply_no_weight="true"
       apply_with_weight="true"
       only_selected="false" /></defs><g
     id="layer1"><path
       style="fill:#ffdb26;fill-opacity:1;stroke:#000000;stroke-width:1.05833;stroke-linecap:round;stroke-linejoin:round;stroke-dasharray:none;paint-order:normal;stop-color:#000000"
       d="M 6.3460128,10.987509 C 6.0131876,8.1033126 6.9112569,5.0355095 7.1713329,3.7040818 c 1.6823697,0.883682 3.1509471,1.8173157 5.1540591,3.4426941 3.460025,-0.9271224 7.675181,-0.4344139 10.458981,0.611344 2.188665,-1.101117 4.320882,-1.7567683 7.249119,-1.9517024 0.321474,1.7913943 -0.0283,5.5961075 -1.06115,7.5149165 1.483302,5.222627 1.500916,12.296756 -0.04318,13.840869 C 24.518229,31.573194 5.6799495,31.273305 4.0639285,25.242152 3.064468,21.512066 4.2865251,13.752064 6.3460128,10.987509 Z"
       id="path236" /><ellipse
       style="fill:#000000;fill-opacity:1;stroke:none;stroke-width:2.11668;stroke-linecap:round;stroke-linejoin:round;stroke-dasharray:none;paint-order:stroke markers fill;stop-color:#000000"
       id="path6982"
       cx="12.96371"
       cy="12.570978"
       rx="1.6752723"
       ry="2.1418331"
       transform="rotate(8)" /><use
       x="0"
       y="0"
       xlink:href="#path6982"
       id="use7712"
       transform="translate(8.953004,0.69247082)"
       style="stroke-width:1.07136" /><g
       id="g3195"
       transform="matrix(1.1318671,0.07978879,-0.07914786,1.1410329,3.8553778,-24.111806)"
       style="stroke-width:0.877797"><g
         id="g12746"
         transform="matrix(0.99748575,0.0692016,-0.07031588,0.99764235,2.1050841,-12.583214)"><path
           style="fill:#dce78d;fill-opacity:1;stroke:#000000;stroke-width:0.464501;stroke-linecap:round;stroke-linejoin:round;stroke-miterlimit:8;stroke-dasharray:none;stroke-opacity:1;stop-color:#000000"
           d="M 24.38712,51.701575 3.6811395,53.149478 c 0,0 -0.3232252,0.371828 -0.2771986,1.03004 0.046027,0.658212 0.422421,1.046733 0.422421,1.046733 L 24.532335,53.778346 c 0,0 0.324261,-0.357078 0.275436,-1.055312 C 24.758946,52.0248 24.38712,51.701575 24.38712,51.701575 Z"
           id="path10957"
           sodipodi:nodetypes="cczcczc" /><g
           id="g12524"><path
             style="fill:none;fill-opacity:1;stroke:#acb858;stroke-width:0.464501;stroke-linecap:round;stroke-linejoin:round;stroke-miterlimit:8;stroke-dasharray:none;stroke-opacity:1;stop-color:#000000"
             d="m 4.176701,55.201752 c 1.1569212,-0.495759 1.7116715,-1.282594 1.9483683,-2.22317"
             id="path12469"
             sodipodi:nodetypes="cc" /><use
             x="0"
             y="0"
             xlink:href="#path12469"
             id="use12499"
             transform="translate(17.446474,-1.2199762)" /><use
             x="0"
             y="0"
             xlink:href="#use12499"
             id="use12501"
             transform="translate(-2.1808092,0.15249705)" /><use
             x="0"
             y="0"
             xlink:href="#use12501"
             id="use12503"
             transform="translate(-2.1808093,0.15249705)" /><use
             x="0"
             y="0"
             xlink:href="#use12503"
             id="use12505"
             transform="translate(-2.1808092,0.15249705)" /><use
             x="0"
             y="0"
             xlink:href="#use12505"
             id="use12507"
             transform="translate(-2.1808093,0.15249705)" /><use
             x="0"
             y="0"
             xlink:href="#use12507"
             id="use12509"
             transform="translate(-2.1808092,0.15249706)" /><use
             x="0"
             y="0"
             xlink:href="#use12509"
             id="use12511"
             transform="translate(-2.1808093,0.15249705)" /><use
             x="0"
             y="0"
             xlink:href="#use12511"
             id="use12513"
             transform="translate(-2.1808092,0.15249705)" /></g><path
           id="rect355"
           style="fill:#d8b160;fill-opacity:1;stroke:none;stroke-width:0.696751;stroke-linecap:round;stroke-linejoin:round;stroke-miterlimit:8;stroke-dasharray:none;stroke-opacity:1;stop-color:#000000"
           d="M 5.6019951,50.813652 C 4.453025,50.893992 3.5850795,51.775757 3.6560533,52.79073 l 0.025086,0.358748 20.7059797,-1.447904 -0.02509,-0.358747 c -0.07097,-1.014974 -1.05319,-1.767358 -2.202161,-1.687015 z" /><path
           id="rect10899"
           style="fill:#d8b160;fill-opacity:1;stroke:none;stroke-width:0.696751;stroke-linecap:round;stroke-linejoin:round;stroke-miterlimit:8;stroke-dasharray:none;stroke-opacity:1;stop-color:#000000"
           d="m 3.8263614,55.22625 0.025086,0.358747 c 0.070974,1.014973 1.0531901,1.767358 2.2021602,1.687014 L 22.611483,56.114172 c 1.14897,-0.08034 2.016916,-0.962105 1.945942,-1.977078 l -0.02509,-0.358748 z" /><g
           id="g12652"
           transform="translate(0.05305468,0.04574459)"><path
             style="fill:none;fill-opacity:1;stroke:#8d733c;stroke-width:0.348376;stroke-linecap:round;stroke-linejoin:round;stroke-miterlimit:8;stroke-dasharray:none;stroke-opacity:1;stop-color:#000000"
             d="m 4.764906,55.276453 c 0.034433,0.492408 0.5442187,1.096893 1.458969,1.115351 0.9147501,0.01846 6.402471,-0.273794 8.060348,-0.389724 1.657877,-0.11593 7.144604,-0.423219 8.036202,-0.735856 0.891598,-0.312637 1.314408,-0.951973 1.289544,-1.307547"
             id="path12644"
             sodipodi:nodetypes="czszc" /><path
             style="fill:none;fill-opacity:1;stroke:#8d733c;stroke-width:0.348376;stroke-linecap:round;stroke-linejoin:round;stroke-miterlimit:8;stroke-dasharray:none;stroke-opacity:1;stop-color:#000000"
             d="m 6.1525631,55.063477 c 0.048978,0.700416 1.7241492,0.62603 2.3928887,0.579267 0.6687396,-0.04676 4.0324862,-0.216991 5.6903632,-0.332921 1.657877,-0.11593 5.02447,-0.394814 5.731956,-0.444286 0.707486,-0.04947 2.290676,-0.177103 2.238404,-0.924637"
             id="path12646"
             sodipodi:nodetypes="czszc" /></g><path
           id="path12648"
           style="fill:none;fill-opacity:1;stroke:#000000;stroke-width:0.696751;stroke-linecap:round;stroke-linejoin:round;stroke-miterlimit:8;stroke-dasharray:none;stroke-opacity:1;stop-color:#000000"
           d="m 3.8263614,55.22625 0.025086,0.358747 c 0.070974,1.014973 1.0531901,1.767358 2.2021602,1.687014 L 22.611483,56.114172 c 1.14897,-0.08034 2.016916,-0.962105 1.945942,-1.977078 l -0.02509,-0.358748 z" /><use
           x="0"
           y="0"
           xlink:href="#g12652"
           id="use12664"
           transform="matrix(0.99026807,-0.1391731,-0.1391731,-0.99026807,7.5775881,108.36457)" /><path
           id="path12724"
           style="fill:#523428;fill-opacity:1;stroke:none;stroke-width:0.696751;stroke-linecap:round;stroke-linejoin:round;stroke-miterlimit:8;stroke-dasharray:none;stroke-opacity:1;stop-color:#000000"
           d="m 5.6019951,50.813652 c -0.6747014,0.04718 -1.0605634,0.389973 -1.3735728,0.74713 0.1136957,0.05496 1.0802016,0.274342 1.6489243,0.281642 0.5687228,0.0073 0.7111064,-0.311512 1.6052313,-0.343202 0.4470624,-0.01584 1.1361214,0.18126 1.6402296,0.1573 0.5041083,-0.02396 1.0621355,-0.285665 1.6070865,-0.316665 0.544951,-0.031 1.068897,0.169318 1.638487,0.132378 0.569591,-0.03695 1.027301,-0.300008 1.605328,-0.341817 0.578027,-0.04181 1.066436,0.152353 1.636696,0.106765 0.57026,-0.04559 1.057231,-0.319384 1.603522,-0.367661 0.54629,-0.04828 1.128755,0.130576 1.634872,0.08069 0.506117,-0.04989 1.151924,-0.34379 1.601665,-0.394198 0.899483,-0.100816 1.058953,0.189081 1.635712,0.09269 0.576759,-0.09639 1.467123,-0.455794 1.591534,-0.539081 -0.382968,-0.330207 -0.75051,-0.514705 -1.517842,-0.453801 z"
           sodipodi:nodetypes="ccsssssssssssccc" /><path
           id="path12668"
           style="fill:none;fill-opacity:1;stroke:#000000;stroke-width:0.696751;stroke-linecap:round;stroke-linejoin:round;stroke-miterlimit:8;stroke-dasharray:none;stroke-opacity:1;stop-color:#000000"
           d="M 5.6019951,50.813652 C 4.453025,50.893992 3.5850795,51.775757 3.6560533,52.79073 l 0.025086,0.358748 20.7059797,-1.447904 -0.02509,-0.358747 c -0.07097,-1.014974 -1.05319,-1.767358 -2.202161,-1.687015 z" /></g></g><path
       style="fill:#ffdb26;fill-opacity:1;stroke:#000000;stroke-width:0.79375;stroke-linecap:round;stroke-linejoin:round;stroke-dasharray:none;stroke-opacity:1;paint-order:normal;stop-color:#000000"
       d="m 10.004075,19.121173 c -1.4238886,3.039424 2.342169,4.371724 4.594902,1.690642 3.202672,3.608669 6.496348,1.194297 5.575255,-1.100462"
       id="path7824" /><path
       style="fill:none;fill-opacity:1;stroke:#000000;stroke-width:0.79375;stroke-linecap:round;stroke-linejoin:round;stroke-dasharray:none;stroke-opacity:1;paint-order:normal;stop-color:#000000"
       d="m 22.889183,18.104059 4.87622,-0.734341"
       id="path7889" /><path
       style="fill:none;fill-opacity:1;stroke:#000000;stroke-width:0.79375;stroke-linecap:round;stroke-linejoin:round;stroke-dasharray:none;stroke-opacity:1;paint-order:normal;stop-color:#000000"
       d="m 22.899838,20.260593 4.684517,0.851137"
       id="path7891" /><path
       style="fill:none;fill-opacity:1;stroke:#000000;stroke-width:0.79375;stroke-linecap:round;stroke-linejoin:round;stroke-dasharray:none;stroke-opacity:1;paint-order:normal;stop-color:#000000"
       d="M 8.2565339,17.019465 5.9675926,15.975012"
       id="path7893" /><path
       style="fill:none;fill-opacity:1;stroke:#000000;stroke-width:0.79375;stroke-linecap:round;stroke-linejoin:round;stroke-dasharray:none;stroke-opacity:1;paint-order:normal;stop-color:#000000"
       d="M 7.7354506,18.902572 5.5452359,18.75928"
       id="path7895" /></g><metadata
     id="metadata4277"><rdf:RDF><cc:Work
         rdf:about=""><dc:title>Gutkato manĝas bastontorteton</dc:title><dc:creator><cc:Agent><dc:title>Tirifto</dc:title></cc:Agent></dc:creator><dc:subject><rdf:Bag><rdf:li>gutkato</rdf:li><rdf:li>gutkatoj</rdf:li><rdf:li>federujo</rdf:li></rdf:Bag></dc:subject><cc:license
           rdf:resource="http://artlibre.org/licence/lal" /><dc:description>Gutkato, destinita al uzo kiel glumarko aŭ propra bildosigno, ekzemple en Federujo aŭ aliaj retaj komunikiloj.</dc:description><dc:date>2024</dc:date></cc:Work><cc:License
         rdf:about="http://artlibre.org/licence/lal"><cc:permits
           rdf:resource="http://creativecommons.org/ns#Reproduction" /><cc:permits
           rdf:resource="http://creativecommons.org/ns#Distribution" /><cc:permits
           rdf:resource="http://creativecommons.org/ns#DerivativeWorks" /><cc:requires
           rdf:resource="http://creativecommons.org/ns#ShareAlike" /><cc:requires
           rdf:resource="http://creativecommons.org/ns#Notice" /><cc:requires
           rdf:resource="http://creativecommons.org/ns#Attribution" /></cc:License></rdf:RDF></metadata></svg>
