<?xml version="1.0" encoding="UTF-8" standalone="no"?>
<!-- Created with Inkscape (http://www.inkscape.org/) -->

<svg
   width="128"
   height="128"
   viewBox="0 0 33.866666 33.866666"
   version="1.1"
   id="svg5"
   xml:space="preserve"
   sodipodi:docname="gutkato_profito.svg"
   inkscape:version="1.2.2 (b0a8486541, 2022-12-01)"
   xmlns:inkscape="http://www.inkscape.org/namespaces/inkscape"
   xmlns:sodipodi="http://sodipodi.sourceforge.net/DTD/sodipodi-0.dtd"
   xmlns:xlink="http://www.w3.org/1999/xlink"
   xmlns="http://www.w3.org/2000/svg"
   xmlns:svg="http://www.w3.org/2000/svg"
   xmlns:rdf="http://www.w3.org/1999/02/22-rdf-syntax-ns#"
   xmlns:cc="http://creativecommons.org/ns#"
   xmlns:dc="http://purl.org/dc/elements/1.1/"><g
     id="g328"
     transform="translate(3.1749805,3.1749431)"><g
       id="g4695"
       transform="translate(1.4862571,1.0490002)"><rect
         style="fill:#f2f2f2;fill-opacity:1;stroke:none;stroke-width:1.05833;stroke-linecap:round;stroke-linejoin:round;stroke-dasharray:none;stroke-opacity:1;paint-order:markers fill stroke;stop-color:#000000"
         id="rect1077"
         width="22.754169"
         height="14.816669"
         x="-1.8875235"
         y="-2.3625138" /><g
         id="g4598"
         transform="translate(0,-1.0583333)"><g
           id="path4600"><path
             style="color:#000000;fill:#00802b;fill-rule:evenodd;stroke-width:0.260886pt;-inkscape-stroke:none"
             d="M 17.600498,0.24705554 16.927167,2.7651273 15.082426,0.92038607 Z"
             id="path4604" /><path
             style="color:#000000;fill:#00802b;fill-rule:evenodd;-inkscape-stroke:none"
             d="M 17.845703,0.00195313 17.554687,0.078125 14.746094,0.83007813 17.017578,3.1015625 Z M 17.353516,0.49414063 16.837891,2.4296875 15.417969,1.0097656 Z"
             id="path4606" /></g></g><path
         style="color:#000000;fill:#00802b;stroke-linecap:round;stroke-linejoin:round;-inkscape-stroke:none;paint-order:markers fill stroke"
         d="M -0.0356373,6.2895952 1.9120474,4.3419105 4.300532,6.7288449 c 0.1549322,0.1545834 0.4057571,0.1545834 0.5606893,0 L 8.4294789,3.1605873 11.02932,5.7599118 c 0.155109,0.1556177 0.407131,0.1556177 0.56224,0 l 5.225004,-5.22655426 c 0.154605,-0.15492306 0.154605,-0.40576616 0,-0.56068926 -0.07458,-0.074875 -0.175953,-0.11691066 -0.281637,-0.11678866 -0.104788,5.627e-4 -0.205101,0.042546 -0.279053,0.11678866 L 11.31044,4.9160357 8.7111155,2.3187782 c -0.1549322,-0.1545834 -0.4057571,-0.1545834 -0.5606893,0 L 4.5821686,5.8870358 2.1931672,3.5001014 c -0.1551092,-0.1556175 -0.4071304,-0.1556175 -0.5622396,0 l -1.6665649,1.6675985"
         id="path4667" /><rect
         style="fill:none;fill-opacity:1;stroke:#000000;stroke-width:1.05833;stroke-linecap:round;stroke-linejoin:round;stroke-dasharray:none;stroke-opacity:1;paint-order:markers fill stroke;stop-color:#000000"
         id="rect1805"
         width="22.754169"
         height="14.816669"
         x="-1.8875235"
         y="-2.3625138" /><path
         style="fill:#f2f2f2;fill-opacity:1;stroke:#999999;stroke-width:0.529166;stroke-linecap:round;stroke-linejoin:round;stroke-dasharray:none;stroke-opacity:1;paint-order:markers fill stroke;stop-color:#000000"
         d="M -0.03544048,-0.24584958 V 10.337491"
         id="path4545" /><path
         style="fill:#f2f2f2;fill-opacity:1;stroke:#999999;stroke-width:0.529164;stroke-linecap:round;stroke-linejoin:round;stroke-dasharray:none;stroke-opacity:1;paint-order:markers fill stroke;stop-color:#000000"
         d="M 18.485336,10.337492 H -0.03544146"
         id="path4547" /><path
         style="fill:#ffdb26;fill-opacity:1;stroke:#000000;stroke-width:1.05833;stroke-linecap:round;stroke-linejoin:round;stroke-dasharray:none;paint-order:normal;stop-color:#000000"
         d="M 8.7559403,11.475071 C 8.5089818,9.3407706 9.1753556,7.0706004 9.3683336,6.0853457 c 1.2483294,0.6539235 2.3380234,1.3448111 3.8243454,2.5475892 2.567362,-0.6860697 5.695035,-0.3214657 7.760633,0.4523937 1.624004,-0.8148254 3.206123,-1.3000064 5.378895,-1.4442574 0.238536,1.3256294 -0.021,4.1411108 -0.787381,5.5610268 1.10062,3.864737 1.11369,9.099583 -0.03204,10.242224 C 22.239845,26.708449 8.2617169,26.486532 7.0626187,22.023487 6.3210123,19.263229 7.2277868,13.520838 8.7559403,11.475071 Z"
         id="path236" /><path
         style="fill:none;fill-opacity:1;stroke:#000000;stroke-width:0.661458;stroke-linecap:round;stroke-linejoin:round;stroke-dasharray:none;stroke-opacity:1;paint-order:stroke markers fill;stop-color:#000000"
         d="m 11.470247,17.493971 c -1.056535,2.24917 1.737905,3.23507 3.409447,1.251073 2.376404,2.67041 4.820334,0.883778 4.136876,-0.814341"
         id="path7824" /><ellipse
         style="fill:#000000;fill-opacity:1;stroke:none;stroke-width:2.11668;stroke-linecap:round;stroke-linejoin:round;stroke-dasharray:none;paint-order:stroke markers fill;stop-color:#000000"
         id="path6982"
         cx="14.092894"
         cy="12.053194"
         rx="1.2429981"
         ry="1.5850369"
         transform="matrix(0.99031991,0.13880374,-0.13954341,0.99021595,0,0)" /><use
         x="0"
         y="0"
         xlink:href="#path6982"
         id="use7712"
         transform="translate(6.6431882,0.51242744)"
         style="stroke-width:1.44583" /><path
         style="fill:none;fill-opacity:1;stroke:#000000;stroke-width:0.661458;stroke-linecap:round;stroke-linejoin:round;stroke-dasharray:none;stroke-opacity:1;paint-order:normal;stop-color:#000000"
         d="M 21.031082,16.741308 24.64927,16.197897"
         id="path7889" /><path
         style="fill:none;fill-opacity:1;stroke:#000000;stroke-width:0.661458;stroke-linecap:round;stroke-linejoin:round;stroke-dasharray:none;stroke-opacity:1;paint-order:normal;stop-color:#000000"
         d="m 21.038988,18.33714 3.475943,0.62984"
         id="path7891" /><path
         style="fill:none;fill-opacity:1;stroke:#000000;stroke-width:0.661458;stroke-linecap:round;stroke-linejoin:round;stroke-dasharray:none;stroke-opacity:1;paint-order:normal;stop-color:#000000"
         d="M 10.17356,15.93871 8.47515,15.165816"
         id="path7893" /><path
         style="fill:none;fill-opacity:1;stroke:#000000;stroke-width:0.661458;stroke-linecap:round;stroke-linejoin:round;stroke-dasharray:none;stroke-opacity:1;paint-order:normal;stop-color:#000000"
         d="M 9.7869123,17.332207 8.1617585,17.226171"
         id="path7895" /><g
         id="g9586"
         transform="matrix(0.69725814,0.25309443,-0.25378121,0.69537122,5.3525253,-1.2811027)"
         style="stroke-width:1.34952"><g
           id="g9788"
           transform="rotate(-80,12.599192,26.650953)"
           style="stroke-width:0.892654;stroke-dasharray:none"><path
             style="fill:#ffdb26;fill-opacity:1;stroke:#000000;stroke-width:0.892654;stroke-linecap:round;stroke-linejoin:round;stroke-dasharray:none;stroke-opacity:1;paint-order:markers fill stroke;stop-color:#000000"
             d="m 9.8210863,28.949451 c 0,-3.977729 0.8181757,-5.656198 2.7781057,-5.655328 1.95993,8.7e-4 2.778105,1.678866 2.778105,5.655328"
             id="path9576"
             sodipodi:nodetypes="csc" /><g
             id="g2360"
             transform="matrix(-0.34202014,0.93969262,0.93969262,0.34202014,-2.0894044,23.535565)"
             style="stroke-width:0.892654;stroke-dasharray:none"><circle
               style="fill:#c2748e;fill-opacity:1;stroke:none;stroke-width:0.892654;stroke-linecap:round;stroke-linejoin:round;stroke-dasharray:none;paint-order:markers fill stroke;stop-color:#000000"
               id="circle1002"
               cx="15.844251"
               cy="1.3037357"
               r="0.33072916"
               transform="matrix(-0.34202014,0.93969262,0.93969262,0.34202014,0,0)" /><path
               id="path978"
               style="fill:#c2748e;fill-opacity:1;stroke:none;stroke-width:0.892654;stroke-linecap:round;stroke-linejoin:round;stroke-dasharray:none;paint-order:markers fill stroke;stop-color:#000000"
               d="m -3.9177901,14.205707 a 0.84504452,0.84504452 0 0 0 0.3692758,1.019098 0.84504452,0.84504452 0 0 0 0.4633369,0.409856 0.84504452,0.84504452 0 0 0 1.0834043,-0.50455 0.84504452,0.84504452 0 0 0 0.046607,-0.210854 0.84504452,0.84504452 0 0 0 0.099255,-0.189928 0.84504452,0.84504452 0 0 0 -0.5053305,-1.083686 0.84504452,0.84504452 0 0 0 -0.6194539,0.01654 0.84504452,0.84504452 0 0 0 -0.9371636,0.543593 z" /><use
               x="0"
               y="0"
               xlink:href="#circle1002"
               id="use1004"
               transform="translate(-0.2700487,-0.8725896)"
               style="stroke-width:0.892654;stroke-dasharray:none" /><use
               x="0"
               y="0"
               xlink:href="#circle1002"
               id="use1008"
               transform="translate(0.0245966,-1.6821205)"
               style="stroke-width:0.892654;stroke-dasharray:none" /><use
               x="0"
               y="0"
               xlink:href="#circle1002"
               id="use1010"
               transform="translate(0.7905146,-2.1719201)"
               style="stroke-width:0.892654;stroke-dasharray:none" /></g></g></g><g
         id="g4860"
         transform="translate(0.26471261,0.52916664)"><path
           style="fill:#b84b4b;fill-opacity:1;stroke:#361616;stroke-width:0.661458;stroke-linecap:round;stroke-linejoin:round;stroke-dasharray:none;stroke-opacity:1;paint-order:markers fill stroke;stop-color:#000000"
           d="m 15.335756,22.416854 1.031983,3.85141 -1.606828,1.62615 -1.606828,-1.62615 1.031983,-3.85141"
           id="path4856"
           sodipodi:nodetypes="ccccc" /><ellipse
           style="fill:#b84b4b;fill-opacity:1;stroke:#361616;stroke-width:0.661458;stroke-linecap:round;stroke-linejoin:round;stroke-dasharray:none;stroke-opacity:1;paint-order:markers fill stroke;stop-color:#000000"
           id="path4798"
           cx="14.760911"
           cy="21.635794"
           rx="1.3229165"
           ry="0.82419419" /></g><g
         id="g5773"
         transform="rotate(4,10.683076,15.010351)"><g
           id="g5702"
           transform="translate(-0.07752655,-16.362683)"><rect
             style="opacity:0.4;fill:#ffffff;fill-opacity:1;stroke:none;stroke-width:0.661458;stroke-linecap:round;stroke-linejoin:round;stroke-dasharray:none;stroke-opacity:1;paint-order:markers fill stroke;stop-color:#000000"
             id="rect4914"
             width="3.5718749"
             height="2.6458333"
             x="10.565801"
             y="29.523396"
             ry="0.47351354"
             rx="0" /><path
             style="fill:none;fill-opacity:1;stroke:#361616;stroke-width:0.661458;stroke-linecap:round;stroke-linejoin:round;stroke-dasharray:none;stroke-opacity:1;paint-order:markers fill stroke;stop-color:#000000"
             d="m 10.565801,30.713912 v 1.455209 h 3.571875 v -1.455209"
             id="path5698" /></g><use
           x="0"
           y="0"
           xlink:href="#g5702"
           id="use5710"
           transform="translate(6.4822915)" /><path
           style="opacity:1;fill:none;fill-opacity:1;stroke:#361616;stroke-width:0.661458;stroke-linecap:round;stroke-linejoin:round;stroke-dasharray:none;stroke-opacity:1;paint-order:markers fill stroke;stop-color:#000000"
           d="m 14.118607,15.264419 c 0.958249,-0.304806 1.813182,-0.287865 2.774351,-0.004"
           id="path5766"
           sodipodi:nodetypes="cc" /></g></g></g><sodipodi:namedview
     id="namedview9438"
     pagecolor="#505050"
     bordercolor="#eeeeee"
     borderopacity="1"
     inkscape:showpageshadow="0"
     inkscape:pageopacity="0"
     inkscape:pagecheckerboard="0"
     inkscape:deskcolor="#505050"
     showgrid="false"
     inkscape:zoom="1.84375"
     inkscape:cx="74.847458"
     inkscape:cy="85.423729"
     inkscape:window-width="1232"
     inkscape:window-height="750"
     inkscape:window-x="48"
     inkscape:window-y="26"
     inkscape:window-maximized="1"
     inkscape:current-layer="g4695"
     showguides="false" /><title
     id="title4279">Gutkato, profito</title><defs
     id="defs2" /><metadata
     id="metadata4277"><rdf:RDF><cc:Work
         rdf:about=""><dc:title>Gutkato, profito</dc:title><dc:creator><cc:Agent><dc:title>Tirifto</dc:title></cc:Agent></dc:creator><dc:subject><rdf:Bag><rdf:li>gutkato</rdf:li><rdf:li>gutkatoj</rdf:li><rdf:li>federujo</rdf:li></rdf:Bag></dc:subject><cc:license
           rdf:resource="http://artlibre.org/licence/lal" /><dc:description>Gutkato, destinita al uzo kiel glumarko aŭ propra bildosigno, ekzemple en Federujo aŭ aliaj retaj komunikiloj.</dc:description><dc:date>2024</dc:date></cc:Work><cc:License
         rdf:about="http://artlibre.org/licence/lal"><cc:permits
           rdf:resource="http://creativecommons.org/ns#Reproduction" /><cc:permits
           rdf:resource="http://creativecommons.org/ns#Distribution" /><cc:permits
           rdf:resource="http://creativecommons.org/ns#DerivativeWorks" /><cc:requires
           rdf:resource="http://creativecommons.org/ns#ShareAlike" /><cc:requires
           rdf:resource="http://creativecommons.org/ns#Notice" /><cc:requires
           rdf:resource="http://creativecommons.org/ns#Attribution" /></cc:License></rdf:RDF></metadata></svg>
