<?xml version="1.0" encoding="UTF-8" standalone="no"?>
<!-- Created with Inkscape (http://www.inkscape.org/) -->

<svg
   width="128"
   height="128"
   viewBox="0 0 33.866666 33.866666"
   version="1.1"
   id="svg5"
   xml:space="preserve"
   sodipodi:docname="gutkato_brulas.svg"
   inkscape:version="1.2.2 (b0a8486541, 2022-12-01)"
   xmlns:inkscape="http://www.inkscape.org/namespaces/inkscape"
   xmlns:sodipodi="http://sodipodi.sourceforge.net/DTD/sodipodi-0.dtd"
   xmlns:xlink="http://www.w3.org/1999/xlink"
   xmlns="http://www.w3.org/2000/svg"
   xmlns:svg="http://www.w3.org/2000/svg"
   xmlns:rdf="http://www.w3.org/1999/02/22-rdf-syntax-ns#"
   xmlns:cc="http://creativecommons.org/ns#"
   xmlns:dc="http://purl.org/dc/elements/1.1/"><sodipodi:namedview
     id="namedview15"
     pagecolor="#505050"
     bordercolor="#eeeeee"
     borderopacity="1"
     inkscape:showpageshadow="0"
     inkscape:pageopacity="0"
     inkscape:pagecheckerboard="0"
     inkscape:deskcolor="#505050"
     showgrid="false"
     inkscape:zoom="2.6074563"
     inkscape:cx="85.332208"
     inkscape:cy="84.948693"
     inkscape:window-width="1232"
     inkscape:window-height="750"
     inkscape:window-x="48"
     inkscape:window-y="26"
     inkscape:window-maximized="1"
     inkscape:current-layer="layer1" /><title
     id="title4279">Gutkato brulas senzorge</title><defs
     id="defs2"><linearGradient
       inkscape:collect="always"
       id="linearGradient2538"><stop
         style="stop-color:#4f190f;stop-opacity:1;"
         offset="0"
         id="stop2534" /><stop
         style="stop-color:#000000;stop-opacity:1;"
         offset="0.60000002"
         id="stop2542" /><stop
         style="stop-color:#000000;stop-opacity:1;"
         offset="1"
         id="stop2536" /></linearGradient><linearGradient
       inkscape:collect="always"
       id="linearGradient2505"><stop
         style="stop-color:#ff6e26;stop-opacity:1;"
         offset="0"
         id="stop2501" /><stop
         style="stop-color:#ffdb26;stop-opacity:1;"
         offset="0.60000002"
         id="stop2509" /><stop
         style="stop-color:#ffdb26;stop-opacity:1;"
         offset="1"
         id="stop2503" /></linearGradient><linearGradient
       inkscape:collect="always"
       xlink:href="#linearGradient2505"
       id="linearGradient2507"
       x1="17.053156"
       y1="5.2204185"
       x2="17.053156"
       y2="30.653349"
       gradientUnits="userSpaceOnUse" /><linearGradient
       inkscape:collect="always"
       xlink:href="#linearGradient2538"
       id="linearGradient2540"
       x1="21.111549"
       y1="3.4432847"
       x2="21.111549"
       y2="30.78129"
       gradientUnits="userSpaceOnUse" /></defs><path
     style="fill:#ff8066;stroke:#6b362a;stroke-width:0.79374998;stroke-linecap:round;stroke-linejoin:round;stroke-miterlimit:16;paint-order:normal;stop-color:#000000;stroke-dasharray:none;stroke-opacity:1;fill-opacity:1"
     d="m 25.991746,11.966377 c 0,0 2.836757,-3.7303306 3.428296,-5.9379841 0.318584,-1.188973 0,-3.6927462 0,-3.6927462 0,0 2.172127,2.5482813 2.379155,4.1208145 0.312885,2.3765988 -1.861251,6.9462808 -1.861251,6.9462808"
     id="path470"
     sodipodi:nodetypes="cscsc" /><path
     style="fill:#ffb266;stroke:#6b4b2b;stroke-width:0.79374998;stroke-linecap:round;stroke-linejoin:round;stroke-miterlimit:16;paint-order:normal;stop-color:#000000;stroke-dasharray:none;stroke-opacity:1;fill-opacity:1"
     d="M 29.203158,10.882332 C 28.874358,7.1055675 28.343612,3.4741218 26.498515,0.78847075 25.494801,4.1682302 24.551217,7.5940127 21.515824,9.4187458"
     id="path468"
     sodipodi:nodetypes="ccc" /><path
     style="fill:#ffb266;stroke:#6b4b2b;stroke-width:0.79374998;stroke-linecap:round;stroke-linejoin:round;stroke-miterlimit:16;paint-order:normal;stop-color:#000000;stroke-dasharray:none;fill-opacity:1;stroke-opacity:1"
     d="m 12.708254,11.747906 c 0,0 2.134951,-5.2181422 2.134951,-7.9677491 0,-0.8562376 -0.664831,-2.4811861 -0.664831,-2.4811861 0,0 2.441712,1.2202809 3.14056,2.4307216 2.009996,3.481415 0.490762,11.7257986 0.490762,11.7257986"
     id="path462"
     sodipodi:nodetypes="cscsc" /><path
     style="fill:#ff9966;stroke:#6b402b;stroke-width:0.79374998;stroke-linecap:round;stroke-linejoin:round;stroke-miterlimit:16;paint-order:normal;stop-color:#000000;stroke-dasharray:none;fill-opacity:1;stroke-opacity:1"
     d="m 23.490699,10.569053 c 0,0 -1.176597,-2.8757792 -1.176597,-4.3911197 0,-1.6685187 1.295533,-4.8349961 1.295533,-4.8349961 0,0 -3.679176,2.5339371 -4.488983,4.4889835 -1.031145,2.4894043 0,8.0835353 0,8.0835353"
     id="path464"
     sodipodi:nodetypes="cscsc" /><path
     style="fill:#ffb266;stroke:#6b4b2b;stroke-width:0.79374998;stroke-linecap:round;stroke-linejoin:round;stroke-miterlimit:16;paint-order:normal;stop-color:#000000;stroke-dasharray:none;fill-opacity:1;stroke-opacity:1"
     d="m 5.5911121,11.346753 c 0,0 1.5273832,-5.2170324 1.835261,-7.9043117 0.098791,-0.8622892 0,-2.60378982 0,-2.60378982 0,0 2.2362187,2.03695762 2.9079969,3.35592672 1.617693,3.1761782 2.418473,10.4161578 2.418473,10.4161578"
     id="path460"
     sodipodi:nodetypes="cscsc" /><path
     style="fill:#ff7f66;stroke:#6b362b;stroke-width:0.79374998;stroke-linecap:round;stroke-linejoin:round;stroke-miterlimit:16;paint-order:normal;stop-color:#000000;stroke-dasharray:none;fill-opacity:1;stroke-opacity:1"
     d="m 4.0233123,25.769554 c 0,0 -2.6520618,-3.111331 -2.9048329,-5.031319 -0.33221345,-2.523412 1.9762284,-4.830198 1.9762285,-7.375385 10e-8,-2.281754 -1.771684,-6.6120159 -1.771684,-6.6120159 3.5524148,2.1143152 4.8609807,4.5924129 6.9448186,6.9448199"
     id="path298"
     sodipodi:nodetypes="csscc" /><path
     style="fill:#ff9966;stroke:#6b402b;stroke-width:0.79374998;stroke-linecap:round;stroke-linejoin:round;stroke-miterlimit:16;paint-order:normal;stop-color:#000000;stroke-dasharray:none;stroke-opacity:1;fill-opacity:1"
     d="m 6.2309406,16.045394 c 0,0 -2.8433924,-5.976353 -2.4341928,-9.0845331 0.1732716,-1.3161286 1.9912279,-3.4489083 1.9912279,-3.4489083 0,0 -0.3221353,2.531681 0,3.7339066 0.6664675,2.4872911 3.8625491,6.6901328 3.8625491,6.6901328"
     id="path300"
     sodipodi:nodetypes="cscsc" /><path
     style="fill:#ff9966;stroke:#6b402b;stroke-width:0.79374998;stroke-linecap:round;stroke-linejoin:round;stroke-miterlimit:16;paint-order:normal;stop-color:#000000;stroke-dasharray:none;stroke-opacity:1;fill-opacity:1"
     d="m 9.2096165,11.387468 c 0,0 2.3064775,-3.033014 2.7874385,-4.8279872 0.309172,-1.1538466 0,-3.5836496 0,-3.5836496 0,0 2.975814,2.0495146 3.630807,3.6308073 1.128234,2.7237975 0,8.8446515 0,8.8446515"
     id="path302"
     sodipodi:nodetypes="cscsc" /><path
     style="fill:#ff7f66;stroke:#6b352a;stroke-width:0.79374998;stroke-linecap:round;stroke-linejoin:round;stroke-miterlimit:16;paint-order:normal;stop-color:#000000;stroke-dasharray:none;fill-opacity:1;stroke-opacity:1"
     d="m 19.27077,14.082631 c 0,0 -2.050216,-4.3619928 -1.778024,-6.6356778 0.180667,-1.5091548 2.186455,-4.0013891 2.186455,-4.0013891 0,0 -0.220942,3.137026 0.211592,4.6149747 0.827237,2.8266312 4.41779,7.6518382 4.41779,7.6518382"
     id="path304"
     sodipodi:nodetypes="cscsc" /><path
     style="fill:#ff9966;stroke:#6b402b;stroke-width:0.79374998;stroke-linecap:round;stroke-linejoin:round;stroke-miterlimit:16;paint-order:normal;stop-color:#000000;stroke-dasharray:none;fill-opacity:1;stroke-opacity:1"
     d="m 23.607375,12.372217 c 0,0 2.319921,-3.0506919 2.803686,-4.8561272 0.322481,-1.2035159 0,-3.737914 0,-3.737914 0,0 1.962431,2.5805944 2.37165,4.1078203 0.503852,1.8804039 0,5.8402119 0,5.8402119"
     id="path306"
     sodipodi:nodetypes="cscsc" /><path
     style="fill:#ffb266;stroke:#6b4b2b;stroke-width:0.79374998;stroke-linecap:round;stroke-linejoin:round;stroke-miterlimit:16;paint-order:normal;stop-color:#000000;stroke-dasharray:none;stroke-opacity:1;fill-opacity:1"
     d="m 27.68365,27.395833 c 0,0 4.623146,-5.423754 5.063784,-8.770728 0.294501,-2.236957 -1.462104,-3.573599 -1.462104,-5.456644 0,-1.734365 1.346661,-5.0258038 1.346661,-5.0258038 l -6.461906,6.4619068"
     id="path308"
     sodipodi:nodetypes="csscc" /><g
     id="layer1"
     transform="translate(0,2.6458334)"><path
       style="fill:url(#linearGradient2507);fill-opacity:1;stroke:url(#linearGradient2540);stroke-width:1.05833;stroke-linecap:round;stroke-linejoin:round;stroke-dasharray:none;paint-order:normal;stop-color:#000000"
       d="M 6.3460128,10.987509 C 6.0131876,8.1033126 6.9112569,5.0355095 7.1713329,3.7040818 c 1.6823697,0.883682 3.1509471,1.8173157 5.1540591,3.4426941 3.460025,-0.9271224 7.675181,-0.4344139 10.458981,0.611344 2.188665,-1.101117 4.320882,-1.7567683 7.249119,-1.9517024 0.321474,1.7913943 -0.0283,5.5961075 -1.06115,7.5149165 1.483302,5.222627 1.500916,12.296756 -0.04318,13.840869 C 24.518229,31.573194 5.6799495,31.273305 4.0639285,25.242152 3.064468,21.512066 4.2865251,13.752064 6.3460128,10.987509 Z"
       id="path236" /><ellipse
       style="fill:#000000;fill-opacity:1;stroke:none;stroke-width:2.11668;stroke-linecap:round;stroke-linejoin:round;stroke-dasharray:none;paint-order:stroke markers fill;stop-color:#000000"
       id="path6982"
       cx="12.96371"
       cy="12.570978"
       rx="1.6752723"
       ry="2.1418331"
       transform="rotate(8)" /><use
       x="0"
       y="0"
       xlink:href="#path6982"
       id="use7712"
       transform="translate(8.953004,0.69247082)"
       style="stroke-width:1.07136" /><path
       style="fill:none;fill-opacity:1;stroke:#000000;stroke-width:0.79375;stroke-linecap:round;stroke-linejoin:round;stroke-dasharray:none;stroke-opacity:1;paint-order:stroke markers fill;stop-color:#000000"
       d="m 10.004075,19.121173 c -1.4238886,3.039424 2.342169,4.371724 4.594902,1.690642 3.202672,3.608669 6.496348,1.194297 5.575255,-1.100462"
       id="path7824" /><path
       style="fill:none;fill-opacity:1;stroke:#000000;stroke-width:0.79375;stroke-linecap:round;stroke-linejoin:round;stroke-dasharray:none;stroke-opacity:1;paint-order:normal;stop-color:#000000"
       d="m 22.889183,18.104059 4.87622,-0.734341"
       id="path7889" /><path
       style="fill:none;fill-opacity:1;stroke:#000000;stroke-width:0.79375;stroke-linecap:round;stroke-linejoin:round;stroke-dasharray:none;stroke-opacity:1;paint-order:normal;stop-color:#000000"
       d="m 22.899838,20.260593 4.684517,0.851137"
       id="path7891" /><path
       style="fill:none;fill-opacity:1;stroke:#000000;stroke-width:0.79375;stroke-linecap:round;stroke-linejoin:round;stroke-dasharray:none;stroke-opacity:1;paint-order:normal;stop-color:#000000"
       d="M 8.2565339,17.019465 5.9675926,15.975012"
       id="path7893" /><path
       style="fill:none;fill-opacity:1;stroke:#000000;stroke-width:0.79375;stroke-linecap:round;stroke-linejoin:round;stroke-dasharray:none;stroke-opacity:1;paint-order:normal;stop-color:#000000"
       d="M 7.7354506,18.902572 5.5452359,18.75928"
       id="path7895" /></g><metadata
     id="metadata4277"><rdf:RDF><cc:Work
         rdf:about=""><dc:title>Gutkato brulas senzorge</dc:title><dc:creator><cc:Agent><dc:title>Tirifto</dc:title></cc:Agent></dc:creator><dc:subject><rdf:Bag><rdf:li>gutkato</rdf:li><rdf:li>gutkatoj</rdf:li><rdf:li>federujo</rdf:li></rdf:Bag></dc:subject><cc:license
           rdf:resource="http://artlibre.org/licence/lal" /><dc:description>Gutkato, destinita al uzo kiel glumarko aŭ propra bildosigno, ekzemple en Federujo aŭ aliaj retaj komunikiloj.</dc:description><dc:date>2024</dc:date></cc:Work><cc:License
         rdf:about="http://artlibre.org/licence/lal"><cc:permits
           rdf:resource="http://creativecommons.org/ns#Reproduction" /><cc:permits
           rdf:resource="http://creativecommons.org/ns#Distribution" /><cc:permits
           rdf:resource="http://creativecommons.org/ns#DerivativeWorks" /><cc:requires
           rdf:resource="http://creativecommons.org/ns#ShareAlike" /><cc:requires
           rdf:resource="http://creativecommons.org/ns#Notice" /><cc:requires
           rdf:resource="http://creativecommons.org/ns#Attribution" /></cc:License></rdf:RDF></metadata></svg>
