<?xml version="1.0" encoding="UTF-8" standalone="no"?>
<!-- Created with Inkscape (http://www.inkscape.org/) -->

<svg
   width="128"
   height="128"
   viewBox="0 0 33.866666 33.866666"
   version="1.1"
   id="svg5"
   xml:space="preserve"
   sodipodi:docname="gutkato_kuracisto.svg"
   inkscape:version="1.2.2 (b0a8486541, 2022-12-01)"
   xmlns:inkscape="http://www.inkscape.org/namespaces/inkscape"
   xmlns:sodipodi="http://sodipodi.sourceforge.net/DTD/sodipodi-0.dtd"
   xmlns:xlink="http://www.w3.org/1999/xlink"
   xmlns="http://www.w3.org/2000/svg"
   xmlns:svg="http://www.w3.org/2000/svg"
   xmlns:rdf="http://www.w3.org/1999/02/22-rdf-syntax-ns#"
   xmlns:cc="http://creativecommons.org/ns#"
   xmlns:dc="http://purl.org/dc/elements/1.1/"><sodipodi:namedview
     id="namedview15"
     pagecolor="#505050"
     bordercolor="#eeeeee"
     borderopacity="1"
     inkscape:showpageshadow="0"
     inkscape:pageopacity="0"
     inkscape:pagecheckerboard="0"
     inkscape:deskcolor="#505050"
     showgrid="false"
     inkscape:zoom="1.4142136"
     inkscape:cx="7.4246213"
     inkscape:cy="92.984542"
     inkscape:window-width="1232"
     inkscape:window-height="750"
     inkscape:window-x="48"
     inkscape:window-y="26"
     inkscape:window-maximized="1"
     inkscape:current-layer="layer1" /><title
     id="title4279">Gutkato kuracisto</title><defs
     id="defs2" /><g
     id="layer1"><path
       style="fill:#ffdb26;fill-opacity:1;stroke:none;stroke-width:1.05833;stroke-linecap:round;stroke-linejoin:round;stroke-dasharray:none;paint-order:normal;stop-color:#000000"
       d="M 6.3460128,10.987509 C 6.0131876,8.1033126 6.9112569,5.0355095 7.1713329,3.7040818 c 1.6823697,0.883682 3.1509471,1.8173157 5.1540591,3.4426941 3.460025,-0.9271224 7.675181,-0.4344139 10.458981,0.611344 2.188665,-1.101117 4.320882,-1.7567683 7.249119,-1.9517024 0.321474,1.7913943 -0.0283,5.5961075 -1.06115,7.5149165 1.483302,5.222627 1.500916,12.296756 -0.04318,13.840869 C 24.518229,31.573194 5.6799495,31.273305 4.0639285,25.242152 3.064468,21.512066 4.2865251,13.752064 6.3460128,10.987509 Z"
       id="path236" /><circle
       style="fill:#999999;fill-opacity:1;stroke:#000000;stroke-width:0.529167;stroke-linecap:round;stroke-linejoin:round;stroke-miterlimit:8;stroke-dasharray:none;stroke-opacity:1;stop-color:#000000"
       id="circle1299"
       cx="8.8563976"
       cy="7.6377268"
       r="1.0583332" /><path
       style="fill:#f2f2f2;fill-opacity:1;stroke:none;stroke-width:1.05833;stroke-linecap:round;stroke-linejoin:round;stroke-dasharray:none;paint-order:normal;stop-color:#000000"
       d="m 30.067065,22.578246 c -0.01225,0.310625 -0.03043,0.612264 -0.05458,0.903114 -0.04829,0.5817 -0.120418,1.120244 -0.216573,1.601216 -0.192311,0.961944 -0.480728,1.693599 -0.866752,2.079627 C 24.518224,31.573189 5.67995,31.273305 4.0639285,25.242152 3.8140634,24.30963 3.7030413,23.125239 3.7092413,21.83 c 0.00155,-0.32381 0.010426,-0.654548 0.02629,-0.990011 0.9566749,1.507774 2.7170948,2.599541 4.9105046,3.331759 1.0967051,0.366109 2.3016571,0.642331 3.5685131,0.835722 0.633428,0.0967 1.282331,3.347685 1.940917,3.403848 0.658587,0.05616 1.326855,-3.0825 1.999014,-3.065105 2.688635,0.06958 5.439504,-0.163936 7.881853,-0.644083 2.44235,-0.480147 4.576178,-1.206928 6.030732,-2.123884 z"
       id="path298"
       sodipodi:nodetypes="cssssscsssssc" /><path
       style="fill:none;fill-opacity:1;stroke:#000000;stroke-width:0.79374998;stroke-linecap:round;stroke-linejoin:round;stroke-dasharray:none;paint-order:normal;stop-color:#000000;stroke-opacity:1"
       d="m 30.067065,22.578246 c -0.01225,0.310625 -0.03043,0.612264 -0.05458,0.903114 -0.04829,0.5817 -0.120418,1.120244 -0.216573,1.601216 -0.192311,0.961944 -0.480728,1.693599 -0.866752,2.079627 C 24.518224,31.573189 5.67995,31.273305 4.0639285,25.242152 3.8140634,24.30963 3.7030413,23.125239 3.7092413,21.83 c 0.00155,-0.32381 0.010426,-0.654548 0.02629,-0.990011 0.9566749,1.507774 2.7170948,2.599541 4.9105046,3.331759 1.0967051,0.366109 2.3016571,0.642331 3.5685131,0.835722 0.633428,0.0967 1.282331,3.347685 1.940917,3.403848 0.658587,0.05616 1.326855,-3.0825 1.999014,-3.065105 2.688635,0.06958 5.439504,-0.163936 7.881853,-0.644083 2.44235,-0.480147 4.576178,-1.206928 6.030732,-2.123884 z"
       id="path866"
       sodipodi:nodetypes="cssssscsssssc" /><path
       style="fill:none;fill-opacity:1;stroke:#000000;stroke-width:1.05833;stroke-linecap:round;stroke-linejoin:round;stroke-dasharray:none;paint-order:normal;stop-color:#000000;stroke-opacity:1"
       d="M 6.3460128,10.987509 C 6.0131876,8.1033126 6.9112569,5.0355095 7.1713329,3.7040818 c 1.6823697,0.883682 3.1509471,1.8173157 5.1540591,3.4426941 3.460025,-0.9271224 7.675181,-0.4344139 10.458981,0.611344 2.188665,-1.101117 4.320882,-1.7567683 7.249119,-1.9517024 0.321474,1.7913943 -0.0283,5.5961075 -1.06115,7.5149165 1.483302,5.222627 1.500916,12.296756 -0.04318,13.840869 C 24.518229,31.573194 5.6799495,31.273305 4.0639285,25.242152 3.064468,21.512066 4.2865251,13.752064 6.3460128,10.987509 Z"
       id="path860" /><ellipse
       style="fill:#000000;fill-opacity:1;stroke:none;stroke-width:2.11668;stroke-linecap:round;stroke-linejoin:round;stroke-dasharray:none;paint-order:stroke markers fill;stop-color:#000000"
       id="path6982"
       cx="12.96371"
       cy="12.570978"
       rx="1.6752723"
       ry="2.1418331"
       transform="rotate(8)" /><use
       x="0"
       y="0"
       xlink:href="#path6982"
       id="use7712"
       transform="translate(8.953004,0.69247082)"
       style="stroke-width:1.07136" /><path
       style="fill:none;fill-opacity:1;stroke:#000000;stroke-width:0.79375;stroke-linecap:round;stroke-linejoin:round;stroke-dasharray:none;stroke-opacity:1;paint-order:stroke markers fill;stop-color:#000000"
       d="m 10.004075,19.121173 c -1.4238886,3.039424 2.342169,4.371724 4.594902,1.690642 3.202672,3.608669 6.496348,1.194297 5.575255,-1.100462"
       id="path7824" /><path
       style="fill:none;fill-opacity:1;stroke:#000000;stroke-width:0.79375;stroke-linecap:round;stroke-linejoin:round;stroke-dasharray:none;stroke-opacity:1;paint-order:normal;stop-color:#000000"
       d="m 22.889183,18.104059 4.87622,-0.734341"
       id="path7889" /><path
       style="fill:none;fill-opacity:1;stroke:#000000;stroke-width:0.79375;stroke-linecap:round;stroke-linejoin:round;stroke-dasharray:none;stroke-opacity:1;paint-order:normal;stop-color:#000000"
       d="m 22.899838,20.260593 4.684517,0.851137"
       id="path7891" /><path
       style="fill:none;fill-opacity:1;stroke:#000000;stroke-width:0.79375;stroke-linecap:round;stroke-linejoin:round;stroke-dasharray:none;stroke-opacity:1;paint-order:normal;stop-color:#000000"
       d="M 8.2565339,17.019465 5.9675926,15.975012"
       id="path7893" /><path
       style="fill:none;fill-opacity:1;stroke:#000000;stroke-width:0.79375;stroke-linecap:round;stroke-linejoin:round;stroke-dasharray:none;stroke-opacity:1;paint-order:normal;stop-color:#000000"
       d="M 7.7354506,18.902572 5.5452359,18.75928"
       id="path7895" /><path
       style="fill:#cccccc;fill-opacity:1;stroke:#000000;stroke-width:0.79374998;stroke-linecap:round;stroke-linejoin:round;stroke-dasharray:none;paint-order:normal;stop-color:#000000"
       d="m 8.6460359,24.171748 c 1.0967051,0.366109 2.3016571,0.642331 3.5685131,0.835722 0.633428,0.0967 1.282331,3.347685 1.940917,3.403848 0.658587,0.05616 1.326855,-3.0825 1.999014,-3.065105 1.344318,0.03479 2.704194,-0.0062 4.033284,-0.115894 -3.019481,2.241515 -5.12988,3.284591 -6.031936,3.181048 -0.902056,-0.103543 -2.807674,-0.904569 -5.5097921,-4.239619 z"
       id="path1678"
       sodipodi:nodetypes="csssczc" /><circle
       style="fill:#999999;fill-opacity:1;stroke:#000000;stroke-width:0.529168;stroke-linecap:round;stroke-linejoin:round;stroke-miterlimit:8;stroke-dasharray:none;stroke-opacity:1;stop-color:#000000"
       id="circle1297"
       cx="27.358446"
       cy="9.1865978"
       r="1.0583327" /><path
       id="path1128"
       style="color:#000000;fill:#2e7599;stroke:#000000;stroke-width:0.529167;stroke-linecap:round;stroke-linejoin:round;stroke-miterlimit:8;stroke-dasharray:none;stroke-opacity:1;fill-opacity:1"
       d="M 8.6542511,7.1778564 A 0.66145831,0.66145831 0 0 0 8.1855459,7.3731933 C 3.4257363,12.133003 2.2510706,16.897169 3.6912467,20.503658 c 1.3888079,3.477853 5.1212033,5.703646 9.8066363,5.85804 0.548246,2.599585 -0.303216,4.4389 -1.746147,5.155757 -1.53039,0.760309 -4.0127445,0.364249 -6.7928665,-2.415873 a 0.66145831,0.66145831 0 0 0 -0.9353434,0 0.66145831,0.66145831 0 0 0 0,0.935344 c 3.019663,3.019663 6.1220369,3.754554 8.3162879,2.664436 2.006636,-0.996909 3.014821,-3.430914 2.503723,-6.336047 4.574709,-0.05952 9.609788,-0.64941 12.835909,-2.996199 1.710239,-1.244086 2.886856,-3.048881 3.039091,-5.412073 0.152235,-2.363191 -0.667156,-5.236686 -2.720248,-8.7927446 A 0.66145831,0.66145831 0 0 0 27.093952,8.921936 0.66145831,0.66145831 0 0 0 26.851589,9.8262735 c 1.97423,3.4194655 2.674493,6.0599065 2.546615,8.0449865 -0.127877,1.985079 -1.030757,3.361791 -2.495972,4.427637 C 23.971803,24.43059 18.698448,25.0486 14.021365,25.0486 9.4915453,25.0486 6.1208113,23.020556 4.9201122,20.013765 3.719413,17.006974 4.592354,12.835005 9.1208893,8.3064697 a 0.66145831,0.66145831 0 0 0 0,-0.9332764 0.66145831,0.66145831 0 0 0 -0.4666382,-0.1953369 z" /><circle
       style="fill:#ccc4c4;fill-opacity:1;stroke:#000000;stroke-width:0.79375;stroke-linecap:round;stroke-linejoin:round;stroke-miterlimit:8;stroke-opacity:1;stop-color:#000000"
       id="path362"
       cx="4.4912415"
       cy="29.570251"
       r="3.3072917" /></g><metadata
     id="metadata4277"><rdf:RDF><cc:Work
         rdf:about=""><dc:title>Gutkato kuracisto</dc:title><dc:creator><cc:Agent><dc:title>Tirifto</dc:title></cc:Agent></dc:creator><dc:subject><rdf:Bag><rdf:li>gutkato</rdf:li><rdf:li>gutkatoj</rdf:li><rdf:li>federujo</rdf:li></rdf:Bag></dc:subject><cc:license
           rdf:resource="http://artlibre.org/licence/lal" /><dc:description>Gutkato, destinita al uzo kiel glumarko aŭ propra bildosigno, ekzemple en Federujo aŭ aliaj retaj komunikiloj.</dc:description><dc:date>2024</dc:date></cc:Work><cc:License
         rdf:about="http://artlibre.org/licence/lal"><cc:permits
           rdf:resource="http://creativecommons.org/ns#Reproduction" /><cc:permits
           rdf:resource="http://creativecommons.org/ns#Distribution" /><cc:permits
           rdf:resource="http://creativecommons.org/ns#DerivativeWorks" /><cc:requires
           rdf:resource="http://creativecommons.org/ns#ShareAlike" /><cc:requires
           rdf:resource="http://creativecommons.org/ns#Notice" /><cc:requires
           rdf:resource="http://creativecommons.org/ns#Attribution" /></cc:License></rdf:RDF></metadata></svg>
