<?xml version="1.0" encoding="UTF-8" standalone="no"?>
<!-- Created with Inkscape (http://www.inkscape.org/) -->

<svg
   width="128"
   height="128"
   viewBox="0 0 33.866666 33.866666"
   version="1.1"
   id="svg5"
   xml:space="preserve"
   sodipodi:docname="gutkato_anĝelo.svg"
   inkscape:version="1.2.2 (b0a8486541, 2022-12-01)"
   xmlns:inkscape="http://www.inkscape.org/namespaces/inkscape"
   xmlns:sodipodi="http://sodipodi.sourceforge.net/DTD/sodipodi-0.dtd"
   xmlns:xlink="http://www.w3.org/1999/xlink"
   xmlns="http://www.w3.org/2000/svg"
   xmlns:svg="http://www.w3.org/2000/svg"
   xmlns:rdf="http://www.w3.org/1999/02/22-rdf-syntax-ns#"
   xmlns:cc="http://creativecommons.org/ns#"
   xmlns:dc="http://purl.org/dc/elements/1.1/"><sodipodi:namedview
     id="namedview15"
     pagecolor="#505050"
     bordercolor="#eeeeee"
     borderopacity="1"
     inkscape:showpageshadow="0"
     inkscape:pageopacity="0"
     inkscape:pagecheckerboard="0"
     inkscape:deskcolor="#505050"
     showgrid="false"
     showguides="true"
     inkscape:zoom="0.92187502"
     inkscape:cx="59.661016"
     inkscape:cy="60.203389"
     inkscape:window-width="1232"
     inkscape:window-height="750"
     inkscape:window-x="48"
     inkscape:window-y="26"
     inkscape:window-maximized="1"
     inkscape:current-layer="svg5" /><title
     id="title4279">Gutkato anĝelo</title><defs
     id="defs2"><linearGradient
       inkscape:collect="always"
       id="linearGradient3887"><stop
         style="stop-color:#dbd37b;stop-opacity:1;"
         offset="0"
         id="stop3883" /><stop
         style="stop-color:#c4bd6e;stop-opacity:1;"
         offset="1"
         id="stop3885" /></linearGradient><linearGradient
       inkscape:collect="always"
       id="linearGradient3854"><stop
         style="stop-color:#fffbcc;stop-opacity:1;"
         offset="0.66502523"
         id="stop3850" /><stop
         style="stop-color:#ffffff;stop-opacity:1;"
         offset="0.8301456"
         id="stop3858" /><stop
         style="stop-color:#fffbcc;stop-opacity:1;"
         offset="0.99912196"
         id="stop3852" /></linearGradient><linearGradient
       inkscape:collect="always"
       xlink:href="#linearGradient3887"
       id="linearGradient3891"
       x1="8.8072786"
       y1="1.2763007"
       x2="27.716578"
       y2="8.087944"
       gradientUnits="userSpaceOnUse"
       gradientTransform="rotate(2,18.210473,2.6627917)" /><linearGradient
       inkscape:collect="always"
       xlink:href="#linearGradient3854"
       id="linearGradient18311"
       x1="8.717145"
       y1="4.5978317"
       x2="27.767143"
       y2="4.5978317"
       gradientUnits="userSpaceOnUse"
       gradientTransform="rotate(2,18.210473,2.6627917)" /><linearGradient
       inkscape:collect="always"
       xlink:href="#linearGradient10511"
       id="linearGradient19952"
       x1="11.609857"
       y1="10.218996"
       x2="13.032334"
       y2="11.641474"
       gradientUnits="userSpaceOnUse" /><linearGradient
       inkscape:collect="always"
       id="linearGradient10511"><stop
         style="stop-color:#ff2626;stop-opacity:1;"
         offset="0"
         id="stop10507" /><stop
         style="stop-color:#ff6e26;stop-opacity:1;"
         offset="0.18000001"
         id="stop10615" /><stop
         style="stop-color:#ffed26;stop-opacity:1;"
         offset="0.35805014"
         id="stop10611" /><stop
         style="stop-color:#26ff6e;stop-opacity:1;"
         offset="0.57999998"
         id="stop10617" /><stop
         style="stop-color:#2693ff;stop-opacity:1;"
         offset="0.77999997"
         id="stop10613" /><stop
         style="stop-color:#6e26ff;stop-opacity:1;"
         offset="1"
         id="stop10509" /></linearGradient></defs><g
     id="g1805"
     transform="matrix(-0.99939083,-0.0348995,-0.0348995,0.99939083,34.423791,1.1179982)"><path
       style="fill:#ffffff;fill-opacity:1;stroke:#6b6b6b;stroke-width:0.79375;stroke-linecap:round;stroke-linejoin:round;stroke-dasharray:none;stroke-opacity:1;paint-order:fill markers stroke;stop-color:#000000"
       d="m 6.8084035,14.873336 c 0,0 -0.9144403,-2.690795 -2.8546596,-1.997785 -1.9402193,0.69301 -0.2444947,5.900926 -2.4458532,12.470373 -0.80411572,2.399698 4.4117443,0.444167 4.4117443,-8.776209"
       id="path1799"
       sodipodi:nodetypes="czsc" /><path
       style="fill:#ffffff;fill-opacity:1;stroke:#6b6b6b;stroke-width:0.79375;stroke-linecap:round;stroke-linejoin:round;stroke-dasharray:none;stroke-opacity:1;paint-order:fill markers stroke;stop-color:#000000"
       d="m 6.9329937,13.914506 c 0,0 -2.5325738,-4.0529692 -3.3623016,-3.830645 -3.20209979,0.858 -0.1275082,2.764478 -2.85089495,12.928296 C 0.31811028,24.511273 5.70177,20.789516 5.70177,15.155771"
       id="path1801"
       sodipodi:nodetypes="cssc" /><path
       style="fill:#ffffff;fill-opacity:1;stroke:#6b6b6b;stroke-width:0.79375;stroke-linecap:round;stroke-linejoin:round;stroke-dasharray:none;stroke-opacity:1;paint-order:fill markers stroke;stop-color:#000000"
       d="m 6.544337,13.505707 c 0,0 -0.3813245,-5.2566935 -3.1463653,-4.9853227 C 0.63293097,8.7917552 1.9335888,12.825291 0.48113396,18.245926 -0.65663934,22.492154 3.2289609,19.527588 4.437239,11.891855 Z"
       id="path1803"
       sodipodi:nodetypes="csscc" /></g><g
     id="g1797"
     transform="rotate(2,16.662285,22.768431)"><path
       style="fill:#ffffff;fill-opacity:1;stroke:#6b6b6b;stroke-width:0.79375;stroke-linecap:round;stroke-linejoin:round;stroke-dasharray:none;stroke-opacity:1;paint-order:fill markers stroke;stop-color:#000000"
       d="m 6.8084035,14.873336 c 0,0 -0.9144403,-2.690795 -2.8546596,-1.997785 -1.9402193,0.69301 -0.2444947,5.900926 -2.4458532,12.470373 -0.80411572,2.399698 4.4117443,0.444167 4.4117443,-8.776209"
       id="path1792"
       sodipodi:nodetypes="czsc" /><path
       style="fill:#ffffff;fill-opacity:1;stroke:#6b6b6b;stroke-width:0.79375;stroke-linecap:round;stroke-linejoin:round;stroke-dasharray:none;stroke-opacity:1;paint-order:fill markers stroke;stop-color:#000000"
       d="m 6.9329937,13.914506 c 0,0 -2.5325738,-4.0529692 -3.3623016,-3.830645 -3.20209979,0.858 -0.1275082,2.764478 -2.85089495,12.928296 C 0.31811028,24.511273 5.70177,20.789516 5.70177,15.155771"
       id="path1062"
       sodipodi:nodetypes="cssc" /><path
       style="fill:#ffffff;fill-opacity:1;stroke:#6b6b6b;stroke-width:0.79375;stroke-linecap:round;stroke-linejoin:round;stroke-dasharray:none;stroke-opacity:1;paint-order:fill markers stroke;stop-color:#000000"
       d="m 6.544337,13.505707 c 0,0 -0.3813245,-5.2566935 -3.1463653,-4.9853227 C 0.63293097,8.7917552 1.9335888,12.825291 0.48113396,18.245926 -0.65663934,22.492154 3.2289609,19.527588 4.437239,11.891855 Z"
       id="path300"
       sodipodi:nodetypes="csscc" /></g><g
     id="layer1"><path
       style="fill:#ffdb26;fill-opacity:1;stroke:#000000;stroke-width:1.05833;stroke-linecap:round;stroke-linejoin:round;stroke-dasharray:none;paint-order:normal;stop-color:#000000"
       d="M 6.3460128,10.987509 C 6.0131876,8.1033126 6.9112569,5.0355095 7.1713329,3.7040818 c 1.6823697,0.883682 3.1509471,1.8173157 5.1540591,3.4426941 3.460025,-0.9271224 7.675181,-0.4344139 10.458981,0.611344 2.188665,-1.101117 4.320882,-1.7567683 7.249119,-1.9517024 0.321474,1.7913943 -0.0283,5.5961075 -1.06115,7.5149165 1.483302,5.222627 1.500916,12.296756 -0.04318,13.840869 C 24.518229,31.573194 5.6799495,31.273305 4.0639285,25.242152 3.064468,21.512066 4.2865251,13.752064 6.3460128,10.987509 Z"
       id="path236" /><ellipse
       style="fill:#000000;fill-opacity:1;stroke:none;stroke-width:2.11668;stroke-linecap:round;stroke-linejoin:round;stroke-dasharray:none;paint-order:stroke markers fill;stop-color:#000000"
       id="path6982"
       cx="12.963636"
       cy="12.570908"
       rx="1.6752093"
       ry="2.1417525"
       transform="rotate(8)" /><use
       x="0"
       y="0"
       xlink:href="#path6982"
       id="use7712"
       transform="translate(8.953004,0.69247082)"
       style="stroke-width:1.07136" /><path
       style="fill:none;fill-opacity:1;stroke:#000000;stroke-width:0.79375;stroke-linecap:round;stroke-linejoin:round;stroke-dasharray:none;stroke-opacity:1;paint-order:stroke markers fill;stop-color:#000000"
       d="m 10.004075,19.121173 c -1.4238886,3.039424 2.342169,4.371724 4.594902,1.690642 3.202672,3.608669 6.496348,1.194297 5.575255,-1.100462"
       id="path7824" /><path
       style="fill:none;fill-opacity:1;stroke:#000000;stroke-width:0.79375;stroke-linecap:round;stroke-linejoin:round;stroke-dasharray:none;stroke-opacity:1;paint-order:normal;stop-color:#000000"
       d="m 22.889183,18.104059 4.87622,-0.734341"
       id="path7889" /><path
       style="fill:none;fill-opacity:1;stroke:#000000;stroke-width:0.79375;stroke-linecap:round;stroke-linejoin:round;stroke-dasharray:none;stroke-opacity:1;paint-order:normal;stop-color:#000000"
       d="m 22.899838,20.260593 4.684517,0.851137"
       id="path7891" /><path
       style="fill:none;fill-opacity:1;stroke:#000000;stroke-width:0.79375;stroke-linecap:round;stroke-linejoin:round;stroke-dasharray:none;stroke-opacity:1;paint-order:normal;stop-color:#000000"
       d="M 8.2565339,17.019465 5.9675926,15.975012"
       id="path7893" /><path
       style="fill:none;fill-opacity:1;stroke:#000000;stroke-width:0.79375;stroke-linecap:round;stroke-linejoin:round;stroke-dasharray:none;stroke-opacity:1;paint-order:normal;stop-color:#000000"
       d="M 7.7354506,18.902572 5.5452359,18.75928"
       id="path7895" /></g><metadata
     id="metadata4277"><rdf:RDF><cc:Work
         rdf:about=""><dc:title>Gutkato anĝelo</dc:title><dc:creator><cc:Agent><dc:title>Tirifto</dc:title></cc:Agent></dc:creator><dc:subject><rdf:Bag><rdf:li>gutkato</rdf:li><rdf:li>gutkatoj</rdf:li><rdf:li>federujo</rdf:li></rdf:Bag></dc:subject><cc:license
           rdf:resource="http://artlibre.org/licence/lal" /><dc:description>Gutkato, destinita al uzo kiel glumarko aŭ propra bildosigno, ekzemple en Federujo aŭ aliaj retaj komunikiloj.</dc:description><dc:date>2024</dc:date></cc:Work><cc:License
         rdf:about="http://artlibre.org/licence/lal"><cc:permits
           rdf:resource="http://creativecommons.org/ns#Reproduction" /><cc:permits
           rdf:resource="http://creativecommons.org/ns#Distribution" /><cc:permits
           rdf:resource="http://creativecommons.org/ns#DerivativeWorks" /><cc:requires
           rdf:resource="http://creativecommons.org/ns#ShareAlike" /><cc:requires
           rdf:resource="http://creativecommons.org/ns#Notice" /><cc:requires
           rdf:resource="http://creativecommons.org/ns#Attribution" /></cc:License></rdf:RDF></metadata><path
     id="path3845"
     style="fill:url(#linearGradient18311);fill-opacity:1;stroke:url(#linearGradient3891);stroke-width:0.79375;stroke-linecap:round;stroke-linejoin:round;stroke-dasharray:none;stroke-opacity:1;paint-order:fill markers stroke;stop-color:#000000"
     d="M 18.280784,1.5569039 A 9.1281252,3.0427084 2 0 0 9.0520298,4.2791914 9.1281252,3.0427084 2 0 0 18.068406,7.6386129 9.1281252,3.0427084 2 0 0 27.297158,4.9163254 9.1281252,3.0427084 2 0 0 18.280784,1.5569039 Z m -0.05097,1.4594864 A 6.3017311,1.4500079 2 0 1 24.476797,4.6854635 6.3017311,1.4500079 2 0 1 18.128606,5.9147047 6.3017311,1.4500079 2 0 1 11.88111,4.2456125 6.3017311,1.4500079 2 0 1 18.229818,3.0163903 Z" /><path
     sodipodi:type="star"
     style="opacity:1;fill:url(#linearGradient19952);fill-opacity:1;stroke:none;stroke-width:0.748601;stroke-linecap:round;stroke-linejoin:round;stroke-dasharray:none;stroke-opacity:1;paint-order:fill markers stroke;stop-color:#000000"
     id="path19944"
     inkscape:flatsided="false"
     sodipodi:sides="4"
     sodipodi:cx="12.324831"
     sodipodi:cy="10.91778"
     sodipodi:r1="1.3303894"
     sodipodi:r2="0.53215575"
     sodipodi:arg1="1.5707963"
     sodipodi:arg2="2.3561945"
     inkscape:rounded="0"
     inkscape:randomized="0"
     d="M 12.324831,12.248169 11.94854,11.294071 10.994442,10.91778 11.94854,10.541489 12.324831,9.5873905 12.701122,10.541489 13.65522,10.91778 12.701122,11.294071 Z"
     transform="matrix(1.0499917,0.14756671,-0.14756671,1.0499917,-0.24192665,0.97044458)" /><use
     x="0"
     y="0"
     xlink:href="#path19944"
     id="use20829"
     transform="translate(8.953004,0.69247087)" /><path
     sodipodi:type="star"
     style="opacity:0.2;fill:#ffffff;fill-opacity:1;stroke:none;stroke-width:0.748601;stroke-linecap:round;stroke-linejoin:round;stroke-dasharray:none;stroke-opacity:1;paint-order:fill markers stroke;stop-color:#000000"
     id="path20831"
     inkscape:flatsided="false"
     sodipodi:sides="4"
     sodipodi:cx="12.324831"
     sodipodi:cy="10.91778"
     sodipodi:r1="1.3303894"
     sodipodi:r2="0.53215575"
     sodipodi:arg1="1.5707963"
     sodipodi:arg2="2.3561945"
     inkscape:rounded="0"
     inkscape:randomized="0"
     d="M 12.324831,12.248169 11.94854,11.294071 10.994442,10.91778 11.94854,10.541489 12.324831,9.5873905 12.701122,10.541489 13.65522,10.91778 12.701122,11.294071 Z"
     transform="matrix(1.0499917,0.14756671,-0.14756671,1.0499917,-0.24192665,0.97044458)" /><use
     x="0"
     y="0"
     xlink:href="#path20831"
     id="use20833"
     transform="translate(8.953004,0.69247087)" /></svg>
