<?xml version="1.0" encoding="UTF-8" standalone="no"?>
<!-- Created with Inkscape (http://www.inkscape.org/) -->

<svg
   width="128"
   height="128"
   viewBox="0 0 33.866666 33.866666"
   version="1.1"
   id="svg5"
   xml:space="preserve"
   sodipodi:docname="gutkato_malsata_manĝbastonetoj.svg"
   inkscape:version="1.2.2 (b0a8486541, 2022-12-01)"
   xmlns:inkscape="http://www.inkscape.org/namespaces/inkscape"
   xmlns:sodipodi="http://sodipodi.sourceforge.net/DTD/sodipodi-0.dtd"
   xmlns:xlink="http://www.w3.org/1999/xlink"
   xmlns="http://www.w3.org/2000/svg"
   xmlns:svg="http://www.w3.org/2000/svg"
   xmlns:rdf="http://www.w3.org/1999/02/22-rdf-syntax-ns#"
   xmlns:cc="http://creativecommons.org/ns#"
   xmlns:dc="http://purl.org/dc/elements/1.1/"><sodipodi:namedview
     id="namedview3241"
     pagecolor="#505050"
     bordercolor="#eeeeee"
     borderopacity="1"
     inkscape:showpageshadow="0"
     inkscape:pageopacity="0"
     inkscape:pagecheckerboard="0"
     inkscape:deskcolor="#505050"
     showgrid="false"
     inkscape:zoom="1.3037282"
     inkscape:cx="-12.272497"
     inkscape:cy="82.455837"
     inkscape:window-width="1232"
     inkscape:window-height="750"
     inkscape:window-x="48"
     inkscape:window-y="26"
     inkscape:window-maximized="1"
     inkscape:current-layer="layer1" /><title
     id="title4279">Gutkato malsata, manĝbastonetoj</title><defs
     id="defs2" /><metadata
     id="metadata4277"><rdf:RDF><cc:Work
         rdf:about=""><dc:title>Gutkato malsata, manĝbastonetoj</dc:title><dc:creator><cc:Agent><dc:title>Tirifto</dc:title></cc:Agent></dc:creator><dc:subject><rdf:Bag><rdf:li>gutkato</rdf:li><rdf:li>gutkatoj</rdf:li><rdf:li>federujo</rdf:li></rdf:Bag></dc:subject><cc:license
           rdf:resource="http://artlibre.org/licence/lal" /><dc:description>Gutkato, destinita al uzo kiel glumarko aŭ propra bildosigno, ekzemple en Federujo aŭ aliaj retaj komunikiloj.</dc:description><dc:date>2024</dc:date></cc:Work><cc:License
         rdf:about="http://artlibre.org/licence/lal"><cc:permits
           rdf:resource="http://creativecommons.org/ns#Reproduction" /><cc:permits
           rdf:resource="http://creativecommons.org/ns#Distribution" /><cc:permits
           rdf:resource="http://creativecommons.org/ns#DerivativeWorks" /><cc:requires
           rdf:resource="http://creativecommons.org/ns#ShareAlike" /><cc:requires
           rdf:resource="http://creativecommons.org/ns#Notice" /><cc:requires
           rdf:resource="http://creativecommons.org/ns#Attribution" /></cc:License></rdf:RDF></metadata><g
     id="layer1"
     transform="translate(1.8656352e-5)"><path
       id="path236-3"
       style="fill:#ffdb26;fill-opacity:1;stroke:#000000;stroke-width:1.05833;stroke-linecap:round;stroke-linejoin:round;stroke-dasharray:none;paint-order:normal;stop-color:#000000"
       d="M 7.1711197 3.7041666 C 6.911044 5.035593 6.0130222 8.1032493 6.3458471 10.987443 C 4.9821587 12.817991 3.986463 16.83846 3.758925 20.429244 C 2.4329889 20.393523 1.6161616 20.915579 1.2076595 22.036381 C 0.57875583 23.761896 1.6086483 25.024631 4.4725765 26.171012 C 7.6766025 31.291864 24.756738 31.334447 28.928964 27.162166 C 30.473059 25.618054 30.455673 18.543772 28.972373 13.32115 C 30.005222 11.402343 30.354763 7.5977563 30.03329 5.8063638 C 27.105056 6.0012977 24.972783 6.6570667 22.78412 7.7581826 C 20.000323 6.7124258 15.785349 6.219729 12.325327 7.1468504 C 10.322217 5.5214737 8.8534877 4.5878477 7.1711197 3.7041666 z " /><path
       style="fill:none;fill-opacity:1;stroke:#000000;stroke-width:0.79375;stroke-linecap:round;stroke-linejoin:round;stroke-dasharray:none;stroke-opacity:1;paint-order:normal;stop-color:#000000"
       d="m 22.889183,18.104059 4.87622,-0.734341"
       id="path7889-3" /><path
       style="fill:none;fill-opacity:1;stroke:#000000;stroke-width:0.79375;stroke-linecap:round;stroke-linejoin:round;stroke-dasharray:none;stroke-opacity:1;paint-order:normal;stop-color:#000000"
       d="m 22.899838,20.260593 4.684517,0.851137"
       id="path7891-5" /><path
       style="fill:none;fill-opacity:1;stroke:#000000;stroke-width:0.79375;stroke-linecap:round;stroke-linejoin:round;stroke-dasharray:none;stroke-opacity:1;paint-order:normal;stop-color:#000000"
       d="M 8.2565339,17.019465 5.9675926,15.975012"
       id="path7893-6" /><path
       style="fill:none;fill-opacity:1;stroke:#000000;stroke-width:0.79375;stroke-linecap:round;stroke-linejoin:round;stroke-dasharray:none;stroke-opacity:1;paint-order:normal;stop-color:#000000"
       d="M 7.7354506,18.902572 5.5452359,18.75928"
       id="path7895-2" /><path
       style="fill:none;fill-opacity:1;stroke:#66ffff;stroke-width:1.5875;stroke-linecap:round;stroke-linejoin:round;stroke-dasharray:none;stroke-opacity:1;paint-order:markers fill stroke;stop-color:#000000"
       d="m 19.929542,21.153548 v 4.206455"
       id="path4022" /><path
       style="fill:none;fill-opacity:1;stroke:#66ffff;stroke-width:1.5875;stroke-linecap:round;stroke-linejoin:round;stroke-dasharray:none;stroke-opacity:1;paint-order:markers fill stroke;stop-color:#000000"
       d="m 18.871208,21.486185 v 3.036292"
       id="path1355" /><path
       style="fill:#ffdb26;fill-opacity:1;stroke:#000000;stroke-width:0.79375;stroke-linecap:round;stroke-linejoin:round;stroke-dasharray:none;stroke-opacity:1;paint-order:normal;stop-color:#000000"
       d="m 10.004056,19.121173 c -1.4238883,3.039424 2.342169,4.371724 4.594902,1.690642 3.202672,3.608669 6.496348,1.194297 5.575255,-1.100462"
       id="path7824" /><g
       id="g7421"
       transform="translate(-4.987924,0.4078129)"><circle
         style="fill:#000000;fill-opacity:1;stroke:none;stroke-width:0.79375;stroke-linecap:round;stroke-linejoin:round;paint-order:markers fill stroke;stop-color:#000000"
         id="path379"
         cx="16.075838"
         cy="13.845025"
         r="2.4418788" /><circle
         style="fill:#ffffff;fill-opacity:1;stroke:none;stroke-width:0.793749;stroke-linecap:round;stroke-linejoin:round;paint-order:markers fill stroke;stop-color:#000000"
         id="path3848"
         cx="15.326144"
         cy="13.152761"
         r="0.90922391" /><use
         x="0"
         y="0"
         xlink:href="#path3848"
         id="use7413"
         transform="matrix(0.77726379,0,0,0.77726379,5.0209783,4.3397258)"
         style="stroke-width:1.28656" /><use
         x="0"
         y="0"
         xlink:href="#path3848"
         id="use7415"
         transform="matrix(0.73159205,0,0,0.73159205,5.4309887,5.2006037)"
         style="stroke-width:1.36688" /></g><use
       x="0"
       y="0"
       xlink:href="#g7421"
       id="use7429"
       transform="translate(8.953077,0.6924552)" /></g><path
     style="fill:#ffdb26;fill-opacity:1;stroke:#000000;stroke-width:0.79375;stroke-linecap:round;stroke-linejoin:round;stroke-dasharray:none;stroke-opacity:1;paint-order:markers fill stroke;stop-color:#000000"
     d="m 5.0745885,26.400303 c -3.320159,-1.208439 -4.53800004,-2.522381 -3.866847,-4.363815 0.671153,-1.841434 2.443941,-2.066876 5.767183,-0.857315"
     id="path1225" /><g
     id="g2360"
     transform="matrix(0.64278761,0.76604444,0.76604444,-0.64278761,-5.5588576,34.265288)"><circle
       style="fill:#c2748e;fill-opacity:1;stroke:none;stroke-width:0.891479;stroke-linecap:round;stroke-linejoin:round;paint-order:markers fill stroke;stop-color:#000000"
       id="circle1002"
       cx="15.844251"
       cy="1.3037357"
       r="0.33072916"
       transform="matrix(-0.34202014,0.93969262,0.93969262,0.34202014,0,0)" /><path
       id="path978"
       style="fill:#c2748e;fill-opacity:1;stroke:none;stroke-width:1.2795;stroke-linecap:round;stroke-linejoin:round;paint-order:markers fill stroke;stop-color:#000000"
       d="m -3.9177901,14.205707 a 0.84504452,0.84504452 0 0 0 0.3692758,1.019098 0.84504452,0.84504452 0 0 0 0.4633369,0.409856 0.84504452,0.84504452 0 0 0 1.0834043,-0.50455 0.84504452,0.84504452 0 0 0 0.046607,-0.210854 0.84504452,0.84504452 0 0 0 0.099255,-0.189928 0.84504452,0.84504452 0 0 0 -0.5053305,-1.083686 0.84504452,0.84504452 0 0 0 -0.6194539,0.01654 0.84504452,0.84504452 0 0 0 -0.9371636,0.543593 z" /><use
       x="0"
       y="0"
       xlink:href="#circle1002"
       id="use1004"
       transform="translate(-0.2700487,-0.8725896)" /><use
       x="0"
       y="0"
       xlink:href="#circle1002"
       id="use1008"
       transform="translate(0.0245966,-1.6821205)" /><use
       x="0"
       y="0"
       xlink:href="#circle1002"
       id="use1010"
       transform="translate(0.7905146,-2.1719201)"
       style="stroke-width:1.00012;stroke-dasharray:none" /></g><g
     id="g1099"
     transform="translate(35.796008,2.9165592)"><use
       x="0"
       y="0"
       xlink:href="#rect364"
       id="use1023"
       transform="matrix(-0.99026807,0.1391731,0.1391731,0.99026807,-66.016185,4.6163012)" /><path
       id="rect364"
       style="fill:#dab366;stroke:#000000;stroke-width:0.79375;stroke-linecap:round;stroke-linejoin:round;stop-color:#000000"
       d="m -33.410595,21.922203 c 0.426307,0.345216 1.509989,0.216328 1.841938,-0.193599 l -0.345707,-3.289174 -1.99173,-16.4182064 c -0.394806,-0.3197079 -1.010161,-0.2389875 -1.31567,0.1382823 l 1.465463,16.4735191 z"
       sodipodi:nodetypes="ccccccc" /></g></svg>
