<?xml version="1.0" encoding="UTF-8" standalone="no"?>
<!-- Created with Inkscape (http://www.inkscape.org/) -->

<svg
   width="128"
   height="128"
   viewBox="0 0 33.866666 33.866666"
   version="1.1"
   id="svg5"
   xml:space="preserve"
   sodipodi:docname="gutkato_manĝas_kuketon.svg"
   inkscape:version="1.2.2 (b0a8486541, 2022-12-01)"
   inkscape:export-filename="gutkato_manĝas_kuketon.png"
   inkscape:export-xdpi="96"
   inkscape:export-ydpi="96"
   xmlns:inkscape="http://www.inkscape.org/namespaces/inkscape"
   xmlns:sodipodi="http://sodipodi.sourceforge.net/DTD/sodipodi-0.dtd"
   xmlns:xlink="http://www.w3.org/1999/xlink"
   xmlns="http://www.w3.org/2000/svg"
   xmlns:svg="http://www.w3.org/2000/svg"
   xmlns:rdf="http://www.w3.org/1999/02/22-rdf-syntax-ns#"
   xmlns:cc="http://creativecommons.org/ns#"
   xmlns:dc="http://purl.org/dc/elements/1.1/"><sodipodi:namedview
     id="namedview15"
     pagecolor="#505050"
     bordercolor="#eeeeee"
     borderopacity="1"
     inkscape:showpageshadow="0"
     inkscape:pageopacity="0"
     inkscape:pagecheckerboard="0"
     inkscape:deskcolor="#505050"
     showgrid="false"
     showguides="false"
     inkscape:zoom="1.3037282"
     inkscape:cx="74.018498"
     inkscape:cy="113.13708"
     inkscape:window-width="1232"
     inkscape:window-height="750"
     inkscape:window-x="48"
     inkscape:window-y="26"
     inkscape:window-maximized="1"
     inkscape:current-layer="layer1" /><title
     id="title4279">Gutkato manĝas kuketon</title><defs
     id="defs2" /><g
     id="layer1"><path
       style="fill:#ffdb26;fill-opacity:1;stroke:#000000;stroke-width:1.05833;stroke-linecap:round;stroke-linejoin:round;stroke-dasharray:none;paint-order:normal;stop-color:#000000"
       d="M 6.3460128,10.987509 C 6.0131876,8.1033126 6.9112569,5.0355095 7.1713329,3.7040818 c 1.6823697,0.883682 3.1509471,1.8173157 5.1540591,3.4426941 3.460025,-0.9271224 7.675181,-0.4344139 10.458981,0.611344 2.188665,-1.101117 4.320882,-1.7567683 7.249119,-1.9517024 0.321474,1.7913943 -0.0283,5.5961075 -1.06115,7.5149165 1.483302,5.222627 1.500916,12.296756 -0.04318,13.840869 C 24.518229,31.573194 5.6799495,31.273305 4.0639285,25.242152 3.064468,21.512066 4.2865251,13.752064 6.3460128,10.987509 Z"
       id="path236" /><ellipse
       style="fill:#000000;fill-opacity:1;stroke:none;stroke-width:2.11668;stroke-linecap:round;stroke-linejoin:round;stroke-dasharray:none;paint-order:stroke markers fill;stop-color:#000000"
       id="path6982"
       cx="12.96371"
       cy="12.570978"
       rx="1.6752723"
       ry="2.1418331"
       transform="rotate(8)" /><use
       x="0"
       y="0"
       xlink:href="#path6982"
       id="use7712"
       transform="translate(8.953004,0.69247082)"
       style="stroke-width:1.07136" /><g
       id="g12139"
       transform="rotate(-60,15.833292,24.659032)"><g
         id="g12161"
         transform="rotate(-60,-5.6253757,29.38918)"><g
           id="g17805"
           transform="rotate(15,-62.782615,108.9766)"><path
             id="path14553"
             style="fill:#8b6536;fill-opacity:1;stroke:#000000;stroke-width:0.79375;stroke-linecap:round;stroke-linejoin:round;stop-color:#000000"
             d="m -14.249506,32.875153 c -0.373794,-0.21581 -0.643461,-0.556388 -0.952174,-0.835679 -0.308711,-0.279294 -0.78783,-0.481805 -1.02861,-0.812756 -0.240778,-0.330955 -0.383336,-0.615079 -0.553324,-0.985882 -0.169988,-0.370803 -0.19108,-0.842693 -0.287424,-1.241526 -0.09634,-0.398834 -0.382826,-0.73348 -0.441604,-1.144823 -0.05246,-0.367103 -0.02342,-0.879953 0.193268,-1.243984 0.223425,-0.375343 0.481968,-0.864287 0.59769,-1.295901 0.112836,-0.420852 0.227177,-0.800527 0.399843,-1.258215 0.160093,-0.424361 0.266052,-0.796149 0.554702,-1.164524 0.268742,-0.342968 0.712458,-0.569493 1.045954,-0.830751 0.333497,-0.261258 0.566659,-0.613307 0.92847,-0.817638 0.321621,-0.181634 0.816727,-0.436858 1.206935,-0.466352 0.409139,-0.03093 0.964193,-0.0659 1.358204,0.03968 0.382251,0.102425 0.775553,0.05822 1.190903,-0.05307 0.395328,-0.105928 0.8281443,0.09449 1.2079041,0.216212 0.2972692,0.09528 0.6797924,0.21651 1.0535864,0.43232 0.373793,0.215809 0.7173249,0.373915 0.9582237,0.685063 0.2548555,0.329175 0.4803866,0.813689 0.7211646,1.144644 0.240777,0.330955 0.6559679,0.530536 0.9150419,0.896902 0.235517,0.333052 0.3542871,0.663771 0.4506321,1.062605 0.09634,0.398834 0.1339872,0.780225 0.1538312,1.195274 0.01985,0.415047 -0.106426,0.82981 -0.261221,1.224163 -0.167746,0.427345 -0.266404,0.956303 -0.294293,1.308139 -0.03443,0.434353 -0.215573,0.883351 -0.44235,1.276141 -0.226778,0.39279 -0.486068,0.754414 -0.772033,1.083158 -0.285964,0.328745 -0.598659,0.492035 -0.932156,0.753294 -0.333496,0.261258 -0.583199,0.501251 -0.902755,0.766848 -0.353855,0.294102 -0.779014,0.419535 -1.1725864,0.535517 -0.3935719,0.11598 -0.7984926,0.247134 -1.2050966,0.214501 -0.409487,-0.03287 -0.885765,-0.17857 -1.29121,-0.122716 -0.423092,0.05828 -0.83556,0.08459 -1.23179,-0.04312 -0.39623,-0.127704 -0.793933,-0.301719 -1.167726,-0.517528 z"
             sodipodi:nodetypes="ssssssssssssssssssssssssssssssssss" /><path
             id="path14608"
             style="fill:#20170d;stroke-width:0.79375;stroke-linecap:round;stroke-linejoin:round;stop-color:#000000"
             d="m -10.326266,31.548448 c -0.259372,-0.149748 -0.460442,-0.282647 -0.53228,-0.550757 -0.07184,-0.268107 -0.04319,-0.552542 0.106563,-0.811913 0.149749,-0.259372 0.424319,-0.483134 0.692426,-0.554972 0.2681088,-0.07184 0.5190977,-0.06223 0.7784692,0.08752 0.2593713,0.149748 0.4003878,0.392195 0.472227,0.660304 0.07184,0.268108 0.056029,0.567535 -0.093719,0.826907 -0.1497482,0.259372 -0.3224497,0.353848 -0.5905576,0.425687 -0.2681086,0.07184 -0.5737576,0.06698 -0.8331296,-0.08277 z"
             sodipodi:nodetypes="zzzzzzzzz" /><use
             x="0"
             y="0"
             xlink:href="#path14608"
             id="use17785"
             transform="rotate(34.097283,2.4062893,27.829754)" /><use
             x="0"
             y="0"
             xlink:href="#use17785"
             id="use17787"
             transform="rotate(-44.567025,-8.3293974,31.531351)" /><use
             x="0"
             y="0"
             xlink:href="#use17787"
             id="use17789"
             transform="rotate(29.805558,-13.380054,33.959812)" /><use
             x="0"
             y="0"
             xlink:href="#use17789"
             id="use17791"
             transform="rotate(-51.384473,-8.4135448,31.678324)" /><use
             x="0"
             y="0"
             xlink:href="#use17791"
             id="use17793"
             transform="rotate(11.120789,10.116676,64.26247)" /><use
             x="0"
             y="0"
             xlink:href="#use17793"
             id="use17795"
             transform="rotate(-7.6596374,-35.239765,68.602427)" /></g></g></g><path
       style="fill:#ffdb26;fill-opacity:1;stroke:#000000;stroke-width:0.79375;stroke-linecap:round;stroke-linejoin:round;stroke-dasharray:none;stroke-opacity:1;paint-order:normal;stop-color:#000000"
       d="m 10.004075,19.121173 c -1.4238886,3.039424 2.342169,4.371724 4.594902,1.690642 3.202672,3.608669 6.496348,1.194297 5.575255,-1.100462"
       id="path7824" /><path
       style="fill:none;fill-opacity:1;stroke:#000000;stroke-width:0.79375;stroke-linecap:round;stroke-linejoin:round;stroke-dasharray:none;stroke-opacity:1;paint-order:normal;stop-color:#000000"
       d="m 22.889183,18.104059 4.87622,-0.734341"
       id="path7889" /><path
       style="fill:none;fill-opacity:1;stroke:#000000;stroke-width:0.79375;stroke-linecap:round;stroke-linejoin:round;stroke-dasharray:none;stroke-opacity:1;paint-order:normal;stop-color:#000000"
       d="m 22.899838,20.260593 4.684517,0.851137"
       id="path7891" /><path
       style="fill:none;fill-opacity:1;stroke:#000000;stroke-width:0.79375;stroke-linecap:round;stroke-linejoin:round;stroke-dasharray:none;stroke-opacity:1;paint-order:normal;stop-color:#000000"
       d="M 8.2565339,17.019465 5.9675926,15.975012"
       id="path7893" /><path
       style="fill:none;fill-opacity:1;stroke:#000000;stroke-width:0.79375;stroke-linecap:round;stroke-linejoin:round;stroke-dasharray:none;stroke-opacity:1;paint-order:normal;stop-color:#000000"
       d="M 7.7354506,18.902572 5.5452359,18.75928"
       id="path7895" /></g><metadata
     id="metadata4277"><rdf:RDF><cc:Work
         rdf:about=""><dc:title>Gutkato manĝas kuketon</dc:title><dc:creator><cc:Agent><dc:title>Tirifto</dc:title></cc:Agent></dc:creator><dc:subject><rdf:Bag><rdf:li>gutkato</rdf:li><rdf:li>gutkatoj</rdf:li><rdf:li>federujo</rdf:li></rdf:Bag></dc:subject><cc:license
           rdf:resource="http://artlibre.org/licence/lal" /><dc:description>Gutkato, destinita al uzo kiel glumarko aŭ propra bildosigno, ekzemple en Federujo aŭ aliaj retaj komunikiloj.</dc:description><dc:date>2024</dc:date></cc:Work><cc:License
         rdf:about="http://artlibre.org/licence/lal"><cc:permits
           rdf:resource="http://creativecommons.org/ns#Reproduction" /><cc:permits
           rdf:resource="http://creativecommons.org/ns#Distribution" /><cc:permits
           rdf:resource="http://creativecommons.org/ns#DerivativeWorks" /><cc:requires
           rdf:resource="http://creativecommons.org/ns#ShareAlike" /><cc:requires
           rdf:resource="http://creativecommons.org/ns#Notice" /><cc:requires
           rdf:resource="http://creativecommons.org/ns#Attribution" /></cc:License></rdf:RDF></metadata></svg>
