<?xml version="1.0" encoding="UTF-8" standalone="no"?>
<!-- Created with Inkscape (http://www.inkscape.org/) -->

<svg
   width="128"
   height="128"
   viewBox="0 0 33.866666 33.866666"
   version="1.1"
   id="svg5"
   xml:space="preserve"
   sodipodi:docname="gutkato_policano.svg"
   inkscape:version="1.2.2 (b0a8486541, 2022-12-01)"
   inkscape:export-filename="gutkato_policano.png"
   inkscape:export-xdpi="96"
   inkscape:export-ydpi="96"
   xmlns:inkscape="http://www.inkscape.org/namespaces/inkscape"
   xmlns:sodipodi="http://sodipodi.sourceforge.net/DTD/sodipodi-0.dtd"
   xmlns:xlink="http://www.w3.org/1999/xlink"
   xmlns="http://www.w3.org/2000/svg"
   xmlns:svg="http://www.w3.org/2000/svg"
   xmlns:rdf="http://www.w3.org/1999/02/22-rdf-syntax-ns#"
   xmlns:cc="http://creativecommons.org/ns#"
   xmlns:dc="http://purl.org/dc/elements/1.1/"><sodipodi:namedview
     id="namedview15"
     pagecolor="#505050"
     bordercolor="#eeeeee"
     borderopacity="1"
     inkscape:showpageshadow="0"
     inkscape:pageopacity="0"
     inkscape:pagecheckerboard="0"
     inkscape:deskcolor="#505050"
     showgrid="false"
     inkscape:zoom="5.2149125"
     inkscape:cx="67.498735"
     inkscape:cy="35.187551"
     inkscape:window-width="1232"
     inkscape:window-height="750"
     inkscape:window-x="48"
     inkscape:window-y="26"
     inkscape:window-maximized="1"
     inkscape:current-layer="g2194"
     showguides="false" /><title
     id="title4279">Gutkato policano</title><defs
     id="defs2" /><path
     style="fill:#ffdb26;fill-opacity:1;stroke:#000000;stroke-width:1.05833;stroke-linecap:round;stroke-linejoin:round;stroke-dasharray:none;paint-order:normal;stop-color:#000000"
     d="M 6.3460128,10.987509 C 6.0131876,8.1033126 6.9112569,5.0355095 7.1713329,3.7040818 c 1.6823697,0.883682 3.1509471,1.8173157 5.1540591,3.4426941 3.460025,-0.9271224 7.675181,-0.4344139 10.458981,0.611344 2.188665,-1.101117 4.320882,-1.7567683 7.249119,-1.9517024 0.321474,1.7913943 -0.0283,5.5961075 -1.06115,7.5149165 1.483302,5.222627 1.500916,12.296756 -0.04318,13.840869 C 24.518229,31.573194 5.6799495,31.273305 4.0639285,25.242152 3.064468,21.512066 4.2865251,13.752064 6.3460128,10.987509 Z"
     id="path236" /><ellipse
     style="fill:#000000;fill-opacity:1;stroke:none;stroke-width:2.11668;stroke-linecap:round;stroke-linejoin:round;stroke-dasharray:none;paint-order:stroke markers fill;stop-color:#000000"
     id="path6982"
     cx="12.96371"
     cy="12.570978"
     rx="1.6752723"
     ry="2.1418331"
     transform="rotate(8)" /><use
     x="0"
     y="0"
     xlink:href="#path6982"
     id="use7712"
     transform="translate(8.953004,0.69247082)"
     style="stroke-width:1.07136" /><path
     style="fill:none;fill-opacity:1;stroke:#000000;stroke-width:0.79375;stroke-linecap:round;stroke-linejoin:round;stroke-dasharray:none;stroke-opacity:1;paint-order:normal;stop-color:#000000"
     d="m 22.889183,18.104059 4.87622,-0.734341"
     id="path7889" /><path
     style="fill:none;fill-opacity:1;stroke:#000000;stroke-width:0.79375;stroke-linecap:round;stroke-linejoin:round;stroke-dasharray:none;stroke-opacity:1;paint-order:normal;stop-color:#000000"
     d="m 22.899838,20.260593 4.684517,0.851137"
     id="path7891" /><path
     style="fill:none;fill-opacity:1;stroke:#000000;stroke-width:0.79375;stroke-linecap:round;stroke-linejoin:round;stroke-dasharray:none;stroke-opacity:1;paint-order:normal;stop-color:#000000"
     d="M 8.2565339,17.019465 5.9675926,15.975012"
     id="path7893" /><path
     style="fill:none;fill-opacity:1;stroke:#000000;stroke-width:0.79375;stroke-linecap:round;stroke-linejoin:round;stroke-dasharray:none;stroke-opacity:1;paint-order:normal;stop-color:#000000"
     d="M 7.7354506,18.902572 5.5452359,18.75928"
     id="path7895" /><metadata
     id="metadata4277"><rdf:RDF><cc:Work
         rdf:about=""><dc:title>Gutkato policano</dc:title><dc:creator><cc:Agent><dc:title>Tirifto</dc:title></cc:Agent></dc:creator><dc:subject><rdf:Bag><rdf:li>gutkato</rdf:li><rdf:li>gutkatoj</rdf:li><rdf:li>federujo</rdf:li></rdf:Bag></dc:subject><cc:license
           rdf:resource="http://artlibre.org/licence/lal" /><dc:description>Gutkato, destinita al uzo kiel glumarko aŭ propra bildosigno, ekzemple en Federujo aŭ aliaj retaj komunikiloj.</dc:description><dc:date>2024</dc:date></cc:Work><cc:License
         rdf:about="http://artlibre.org/licence/lal"><cc:permits
           rdf:resource="http://creativecommons.org/ns#Reproduction" /><cc:permits
           rdf:resource="http://creativecommons.org/ns#Distribution" /><cc:permits
           rdf:resource="http://creativecommons.org/ns#DerivativeWorks" /><cc:requires
           rdf:resource="http://creativecommons.org/ns#ShareAlike" /><cc:requires
           rdf:resource="http://creativecommons.org/ns#Notice" /><cc:requires
           rdf:resource="http://creativecommons.org/ns#Attribution" /></cc:License></rdf:RDF></metadata><g
     id="g4036"
     transform="rotate(2,-331.37853,-38.082998)" /><g
     id="g2194"><path
       style="fill:#3d3d3d;fill-opacity:1;stroke:#000000;stroke-width:1.05833;stroke-linecap:round;stroke-linejoin:round;stroke-dasharray:none;stroke-opacity:1;paint-order:normal;stop-color:#000000"
       d="M 10.825962,7.6780411 C 5.2787205,12.162464 23.515987,12.766342 25.157459,8.1119004"
       id="path4032"
       sodipodi:nodetypes="cc" /><path
       id="path1830"
       style="fill:#292929;fill-opacity:1;stroke:none;stroke-width:1.05833;stroke-linecap:round;stroke-linejoin:round;stroke-dasharray:none;stroke-opacity:1;paint-order:normal;stop-color:#000000"
       d="M 13.026561,1.2951651 C 11.371307,1.7111592 8.8952063,2.5562858 8.8373059,3.9936637 8.7942366,5.0628607 10.896579,5.6615356 10.896579,5.6615356 l -0.07061,2.0165056 c 2.41138,2.241733 11.75029,2.5205228 14.331497,0.4338592 l 0.07061,-2.0165055 c 0,0 2.144766,-0.4702508 2.187826,-1.5392988 C 27.474238,3.1082351 25.162665,2.1548647 23.453987,1.6108358 22.01953,1.1541156 19.801033,0.93404755 18.263054,0.88748825 16.725076,0.84092895 14.494276,0.92630255 13.026561,1.2951651 Z"
       sodipodi:nodetypes="ssccccsszs" /><path
       id="path6309"
       style="fill:#292929;fill-opacity:1;stroke:#000000;stroke-width:0.529167;stroke-linecap:round;stroke-linejoin:round;stroke-dasharray:none;stroke-opacity:1;paint-order:normal;stop-color:#000000"
       d="m 10.825962,7.6780411 c 2.41138,2.241733 11.750289,2.5205229 14.331497,0.4338592"
       sodipodi:nodetypes="cc" /><path
       id="path6311"
       style="fill:none;fill-opacity:1;stroke:#000000;stroke-width:1.05833;stroke-linecap:round;stroke-linejoin:round;stroke-dasharray:none;stroke-opacity:1;paint-order:normal;stop-color:#000000"
       d="m 25.157459,8.1119004 0.07057,-2.0165055 c 0,0 1.880188,-0.4702508 1.923248,-1.5392988 C 27.209603,3.1082351 25.162611,2.1548647 23.453933,1.6108358 22.019479,1.1541157 19.800982,0.9340476 18.263003,0.8874883 16.725025,0.840929 14.494225,0.9263026 13.02651,1.2951651 11.371256,1.7111592 9.1598315,2.5562858 9.1019311,3.9936637 9.058866,5.0628608 10.896528,5.6615356 10.896528,5.6615356 l -0.07056,2.0165056"
       sodipodi:nodetypes="ccsszsscc" /><ellipse
       style="fill:#3d3d3d;fill-opacity:1;stroke:none;stroke-width:0.529177;stroke-linecap:round;stroke-linejoin:round;stop-color:#000000"
       id="path358"
       cy="3.3817182"
       cx="18.217411"
       ry="1.9802424"
       rx="7.6013823"
       transform="matrix(0.999521,0.0309478,-0.03935437,0.99922532,0,0)" /><ellipse
       style="fill:#ebb345;fill-opacity:1;stroke:#000000;stroke-width:0.529167;stroke-linecap:round;stroke-linejoin:round;stroke-dasharray:none;stroke-opacity:1;paint-order:normal;stop-color:#000000"
       id="path4092"
       cx="15.522304"
       cy="6.3666773"
       rx="1.2002124"
       ry="1.3687342"
       transform="rotate(4)" /></g><g
     id="g3034"
     transform="matrix(0.96169512,0.06724827,-0.06724827,0.96169512,5.4251566,-15.992882)"
     style="stroke-width:1.03729"><path
       id="path372"
       style="fill:#c0955b;fill-opacity:1;stroke:none;stroke-width:0.823355;stroke-linecap:round;stroke-linejoin:round;stroke-dasharray:none;stop-color:#000000"
       d="m 12.433866,36.426716 a 7.0114579,7.0114579 0 0 0 -7.0114581,7.011459 7.0114579,7.0114579 0 0 0 7.0114581,7.011458 7.0114579,7.0114579 0 0 0 7.011458,-7.011458 7.0114579,7.0114579 0 0 0 -7.011458,-7.011459 z m 0,4.630209 a 2.3812499,2.3812499 0 0 1 2.38125,2.38125 2.3812499,2.3812499 0 0 1 -2.38125,2.38125 2.3812499,2.3812499 0 0 1 -2.38125,-2.38125 2.3812499,2.3812499 0 0 1 2.38125,-2.38125 z" /><path
       id="path990"
       style="fill:#c251b4;fill-opacity:1;stroke:none;stroke-width:0.823355;stroke-linecap:round;stroke-linejoin:round;stroke-dasharray:none;stroke-opacity:1;stop-color:#000000"
       d="m 12.433866,36.426716 a 7.0114579,7.0114579 0 0 0 -6.6548907,4.816244 6.7469368,6.7469368 0 0 0 -0.091984,1.093473 6.7469368,6.7469368 0 0 0 6.7468747,6.746875 6.7469368,6.7469368 0 0 0 6.746875,-6.746875 6.7469368,6.7469368 0 0 0 -0.09043,-1.098641 7.0114579,7.0114579 0 0 0 -6.656441,-4.811076 z m 0,4.630209 a 2.3812499,2.3812499 0 0 1 2.38125,2.38125 2.3812499,2.3812499 0 0 1 -2.38125,2.38125 2.3812499,2.3812499 0 0 1 -2.38125,-2.38125 2.3812499,2.3812499 0 0 1 2.38125,-2.38125 z" /><path
       id="path936"
       style="fill:none;fill-opacity:1;stroke:#000000;stroke-width:0.823355;stroke-linecap:round;stroke-linejoin:round;stroke-dasharray:none;stop-color:#000000"
       d="m 12.433866,36.426716 a 7.0114579,7.0114579 0 0 0 -7.0114581,7.011459 7.0114579,7.0114579 0 0 0 7.0114581,7.011458 7.0114579,7.0114579 0 0 0 7.011458,-7.011458 7.0114579,7.0114579 0 0 0 -7.011458,-7.011459 z m 0,4.630209 a 2.3812499,2.3812499 0 0 1 2.38125,2.38125 2.3812499,2.3812499 0 0 1 -2.38125,2.38125 2.3812499,2.3812499 0 0 1 -2.38125,-2.38125 2.3812499,2.3812499 0 0 1 2.38125,-2.38125 z" /><path
       sodipodi:type="star"
       style="fill:#91ddff;fill-opacity:1;stroke:none;stroke-width:0.631886;stroke-linecap:round;stroke-linejoin:round;stroke-dasharray:none;stroke-opacity:1;stop-color:#000000"
       id="path1270"
       inkscape:flatsided="false"
       sodipodi:sides="5"
       sodipodi:cx="9.184516"
       sodipodi:cy="39.411934"
       sodipodi:r1="0.74512094"
       sodipodi:r2="0.4470726"
       sodipodi:arg1="-1.5707963"
       sodipodi:arg2="-0.9424778"
       inkscape:rounded="0.2"
       inkscape:randomized="0"
       d="m 9.184516,38.666813 c 0.092968,0 0.1875702,0.328787 0.2627826,0.383432 0.075212,0.05465 0.4171409,0.04302 0.4458695,0.131434 0.028729,0.08842 -0.2547323,0.27999 -0.2834608,0.368408 -0.028729,0.08842 0.087992,0.410017 0.01278,0.464662 -0.075212,0.05465 -0.3450034,-0.155743 -0.437971,-0.155743 -0.092968,0 -0.3627588,0.210388 -0.4379712,0.155743 -0.075212,-0.05465 0.041508,-0.376245 0.01278,-0.464662 -0.028728,-0.08842 -0.3121893,-0.279991 -0.2834608,-0.368408 0.028729,-0.08842 0.3706571,-0.07679 0.4458695,-0.131434 0.075212,-0.05464 0.169815,-0.383432 0.2627827,-0.383432 z"
       inkscape:transform-center-y="0.058599954"
       transform="matrix(1.1284403,0.6515053,-0.6515053,1.1284403,31.622321,-10.529879)"
       inkscape:transform-center-x="-0.029510438" /><use
       x="0"
       y="0"
       xlink:href="#path1270"
       inkscape:transform-center-y="0.058599332"
       id="use1274"
       transform="rotate(-60,15.085436,48.423555)"
       inkscape:transform-center-x="0.029509357"
       style="stroke-width:1.03729" /><use
       x="0"
       y="0"
       xlink:href="#use1274"
       id="use1276"
       transform="rotate(120,10.913675,41.427419)"
       inkscape:transform-center-x="-0.086804871"
       style="stroke-width:1.03729" /><use
       x="0"
       y="0"
       xlink:href="#use1276"
       id="use1278"
       transform="rotate(180,12.677452,42.630339)"
       inkscape:transform-center-y="-2.2804457e-06"
       inkscape:transform-center-x="0.086806089"
       style="stroke-width:1.03729" /><path
       style="fill:none;fill-opacity:1;stroke:#b1ffa7;stroke-width:0.686128;stroke-linecap:square;stroke-linejoin:round;stroke-dasharray:none;stroke-opacity:1;stop-color:#000000"
       d="M 7.8535928,45.309995 8.8901712,44.711527"
       id="path1334" /><use
       x="0"
       y="0"
       xlink:href="#path1334"
       id="use2256"
       transform="rotate(-120,11.294337,45.242905)"
       style="stroke-width:1.03729" /><use
       x="0"
       y="0"
       xlink:href="#use2256"
       id="use2258"
       transform="rotate(120,15.937313,47.571635)"
       style="stroke-width:1.03729" /><use
       x="0"
       y="0"
       xlink:href="#use2256"
       id="use2260"
       transform="rotate(180,13.259793,43.035764)"
       style="stroke-width:1.03729" /><path
       style="fill:none;fill-opacity:1;stroke:#fff67d;stroke-width:0.686128;stroke-linecap:square;stroke-linejoin:round;stroke-dasharray:none;stroke-opacity:1;stop-color:#000000"
       d="m 7.9493023,39.602524 0.598468,1.036578"
       id="path2262" /><use
       x="0"
       y="0"
       xlink:href="#path2262"
       id="use2264"
       transform="matrix(-0.96592583,0.25881905,0.25881905,0.96592583,15.297006,1.1684527)"
       style="stroke-width:1.03729" /><use
       x="0"
       y="0"
       xlink:href="#path2262"
       id="use2266"
       transform="matrix(-0.70710679,-0.70710678,-0.70710678,0.70710679,47.027415,17.202512)"
       style="stroke-width:1.03729" /><use
       x="0"
       y="0"
       xlink:href="#path2262"
       id="use2268"
       transform="matrix(-0.70710678,0.70710679,0.70710679,0.70710678,-13.247627,12.663324)"
       style="stroke-width:1.03729" /><path
       style="fill:none;fill-opacity:1;stroke:#e5e5e5;stroke-width:0.686128;stroke-linecap:square;stroke-linejoin:round;stroke-dasharray:none;stroke-opacity:1;stop-color:#000000"
       d="m 6.5953093,42.485873 0.598469,-1.036578"
       id="path2278" /><path
       style="fill:none;fill-opacity:1;stroke:#e5e5e5;stroke-width:0.686128;stroke-linecap:square;stroke-linejoin:round;stroke-dasharray:none;stroke-opacity:1;stop-color:#000000"
       d="m 9.5762609,39.806407 1.0365781,0.598469"
       id="path2280" /><path
       style="fill:none;fill-opacity:1;stroke:#e5e5e5;stroke-width:0.686128;stroke-linecap:square;stroke-linejoin:round;stroke-dasharray:none;stroke-opacity:1;stop-color:#000000"
       d="m 15.79537,45.697744 1.036578,0.598469"
       id="path2282" /><path
       style="fill:none;fill-opacity:1;stroke:#e5e5e5;stroke-width:0.686128;stroke-linecap:square;stroke-linejoin:round;stroke-dasharray:none;stroke-opacity:1;stop-color:#000000"
       d="m 15.457543,41.511528 0.846362,0.846363"
       id="path2284" /><path
       style="fill:none;fill-opacity:1;stroke:#e5e5e5;stroke-width:0.686128;stroke-linecap:square;stroke-linejoin:round;stroke-dasharray:none;stroke-opacity:1;stop-color:#000000"
       d="m 11.009761,46.768497 -0.309792,1.156151"
       id="path2286" /></g><path
     style="fill:#ffdb26;fill-opacity:1;stroke:#000000;stroke-width:0.79375;stroke-linecap:round;stroke-linejoin:round;stroke-dasharray:none;stroke-opacity:1;paint-order:normal;stop-color:#000000"
     d="m 10.004075,19.121173 c -1.4238886,3.039424 2.342169,4.371724 4.594902,1.690642 3.202672,3.608669 6.496348,1.194297 5.575255,-1.100462"
     id="path7824" /></svg>
