<?xml version="1.0" encoding="UTF-8" standalone="no"?>
<!-- Created with Inkscape (http://www.inkscape.org/) -->

<svg
   width="128"
   height="128"
   viewBox="0 0 33.866666 33.866666"
   version="1.1"
   id="svg5"
   xml:space="preserve"
   sodipodi:docname="gutkato_pentristo.svg"
   inkscape:version="1.2.2 (b0a8486541, 2022-12-01)"
   xmlns:inkscape="http://www.inkscape.org/namespaces/inkscape"
   xmlns:sodipodi="http://sodipodi.sourceforge.net/DTD/sodipodi-0.dtd"
   xmlns:xlink="http://www.w3.org/1999/xlink"
   xmlns="http://www.w3.org/2000/svg"
   xmlns:svg="http://www.w3.org/2000/svg"
   xmlns:rdf="http://www.w3.org/1999/02/22-rdf-syntax-ns#"
   xmlns:cc="http://creativecommons.org/ns#"
   xmlns:dc="http://purl.org/dc/elements/1.1/"><sodipodi:namedview
     id="namedview15"
     pagecolor="#505050"
     bordercolor="#eeeeee"
     borderopacity="1"
     inkscape:showpageshadow="0"
     inkscape:pageopacity="0"
     inkscape:pagecheckerboard="0"
     inkscape:deskcolor="#505050"
     showgrid="false"
     showguides="true"
     inkscape:zoom="1.3037281"
     inkscape:cx="42.953741"
     inkscape:cy="54.075691"
     inkscape:window-width="1232"
     inkscape:window-height="750"
     inkscape:window-x="48"
     inkscape:window-y="26"
     inkscape:window-maximized="1"
     inkscape:current-layer="svg5" /><title
     id="title4279">Gutkato pentristo</title><defs
     id="defs2" /><g
     id="layer1"><path
       style="fill:#ffdb26;fill-opacity:1;stroke:#000000;stroke-width:1.05833;stroke-linecap:round;stroke-linejoin:round;stroke-dasharray:none;paint-order:normal;stop-color:#000000"
       d="M 6.3460128,10.987509 C 6.0131876,8.1033126 6.9112569,5.0355095 7.1713329,3.7040818 c 1.6823697,0.883682 3.1509471,1.8173157 5.1540591,3.4426941 3.460025,-0.9271224 7.675181,-0.4344139 10.458981,0.611344 2.188665,-1.101117 4.320882,-1.7567683 7.249119,-1.9517024 0.321474,1.7913943 -0.0283,5.5961075 -1.06115,7.5149165 1.483302,5.222627 1.500916,12.296756 -0.04318,13.840869 C 24.518229,31.573194 5.6799495,31.273305 4.0639285,25.242152 3.064468,21.512066 4.2865251,13.752064 6.3460128,10.987509 Z"
       id="path236" /><ellipse
       style="fill:#000000;fill-opacity:1;stroke:none;stroke-width:2.11668;stroke-linecap:round;stroke-linejoin:round;stroke-dasharray:none;paint-order:stroke markers fill;stop-color:#000000"
       id="path6982"
       cx="12.96371"
       cy="12.570978"
       rx="1.6752723"
       ry="2.1418331"
       transform="rotate(8)" /><use
       x="0"
       y="0"
       xlink:href="#path6982"
       id="use7712"
       transform="translate(8.953004,0.69247082)"
       style="stroke-width:1.07136" /><path
       style="fill:none;fill-opacity:1;stroke:#000000;stroke-width:0.79375;stroke-linecap:round;stroke-linejoin:round;stroke-dasharray:none;stroke-opacity:1;paint-order:normal;stop-color:#000000"
       d="m 22.889183,18.104059 4.87622,-0.734341"
       id="path7889" /><path
       style="fill:none;fill-opacity:1;stroke:#000000;stroke-width:0.79375;stroke-linecap:round;stroke-linejoin:round;stroke-dasharray:none;stroke-opacity:1;paint-order:normal;stop-color:#000000"
       d="m 22.899838,20.260593 4.684517,0.851137"
       id="path7891" /><path
       style="fill:none;fill-opacity:1;stroke:#000000;stroke-width:0.79375;stroke-linecap:round;stroke-linejoin:round;stroke-dasharray:none;stroke-opacity:1;paint-order:normal;stop-color:#000000"
       d="M 8.2565339,17.019465 5.9675926,15.975012"
       id="path7893" /><path
       style="fill:none;fill-opacity:1;stroke:#000000;stroke-width:0.79375;stroke-linecap:round;stroke-linejoin:round;stroke-dasharray:none;stroke-opacity:1;paint-order:normal;stop-color:#000000"
       d="M 7.7354506,18.902572 5.5452359,18.75928"
       id="path7895" /><g
       id="g3492"
       transform="rotate(94,0.45205044,31.080613)"><path
         style="fill:#292a33;fill-opacity:1;stroke:none;stroke-width:0.79375;stroke-linecap:round;stroke-linejoin:round;stroke-miterlimit:8;stroke-dasharray:none;stroke-opacity:1;stop-color:#000000"
         d="m -10.477107,9.4743383 c 0,0 -1.827169,-1.528696 -1.827169,-3.2186487 0,-1.7160306 1.280509,-2.0659992 1.680264,-3.5579055 0.337471,-1.259458 -0.106555,-2.09546939 -0.434181,-3.12310683 2.8731716,0.9601466 4.701537,4.49356443 4.4286572,6.92321473 -0.2279857,1.5882472 -1.8761902,2.9192619 -1.8761902,2.9192619"
         id="path3478"
         sodipodi:nodetypes="cssccc" /><path
         style="fill:#0062ff;fill-opacity:1;stroke:none;stroke-width:0.79375;stroke-linecap:round;stroke-linejoin:round;stroke-miterlimit:8;stroke-dasharray:none;stroke-opacity:1;stop-color:#000000"
         d="m -10.624012,2.6977841 c 0.337471,-1.259458 -0.106555,-2.09546939 -0.434181,-3.12310683 2.8731716,0.9601466 3.7282355,3.38208953 4.1104182,4.80841473 -0.6004178,1.0399541 -3.6762372,0.3152799 -3.6762372,-1.6853079 z"
         id="path3486"
         sodipodi:nodetypes="cccc" /><path
         style="fill:none;fill-opacity:1;stroke:#000000;stroke-width:0.79375;stroke-linecap:round;stroke-linejoin:round;stroke-miterlimit:8;stroke-dasharray:none;stroke-opacity:1;stop-color:#000000"
         d="m -10.477107,9.4743383 c 0,0 -1.827169,-1.528696 -1.827169,-3.2186487 0,-1.7160306 1.280509,-2.0659992 1.680264,-3.5579055 0.337471,-1.259458 -0.106555,-2.09546939 -0.434181,-3.12310683 2.8731716,0.9601466 4.701537,4.49356443 4.4286572,6.92321473 -0.2279857,1.5882472 -1.8761902,2.9192619 -1.8761902,2.9192619"
         id="path3482"
         sodipodi:nodetypes="cssccc" /><path
         id="use1023"
         style="fill:#dab366;stroke:#000000;stroke-width:0.79375;stroke-linecap:round;stroke-linejoin:round;stop-color:#000000"
         d="m -8.5571308,9.2616145 c -0.3878868,-0.3878858 -1.4791042,-0.3729788 -1.8520842,7e-6 0,3.3585785 0.181182,12.8739215 0.26465,18.2562465 0.3592246,0.359225 0.9796463,0.343269 1.3229171,0 0.068536,-5.406352 0.2645171,-14.856949 0.2645171,-18.2562535 z"
         sodipodi:nodetypes="ccccc" /></g><path
       style="fill:#ffdb26;fill-opacity:1;stroke:#000000;stroke-width:0.79375;stroke-linecap:round;stroke-linejoin:round;stroke-dasharray:none;stroke-opacity:1;paint-order:markers fill stroke;stop-color:#000000"
       d="m 10.004075,19.121173 c -1.4238886,3.039424 2.342169,4.371724 4.594902,1.690642 3.202672,3.608669 6.496348,1.194297 5.575255,-1.100462"
       id="path7824" /></g><metadata
     id="metadata4277"><rdf:RDF><cc:Work
         rdf:about=""><dc:title>Gutkato pentristo</dc:title><dc:creator><cc:Agent><dc:title>Tirifto</dc:title></cc:Agent></dc:creator><dc:subject><rdf:Bag><rdf:li>gutkato</rdf:li><rdf:li>gutkatoj</rdf:li><rdf:li>federujo</rdf:li></rdf:Bag></dc:subject><cc:license
           rdf:resource="http://artlibre.org/licence/lal" /><dc:description>Gutkato, destinita al uzo kiel glumarko aŭ propra bildosigno, ekzemple en Federujo aŭ aliaj retaj komunikiloj.</dc:description><dc:date>2024</dc:date></cc:Work><cc:License
         rdf:about="http://artlibre.org/licence/lal"><cc:permits
           rdf:resource="http://creativecommons.org/ns#Reproduction" /><cc:permits
           rdf:resource="http://creativecommons.org/ns#Distribution" /><cc:permits
           rdf:resource="http://creativecommons.org/ns#DerivativeWorks" /><cc:requires
           rdf:resource="http://creativecommons.org/ns#ShareAlike" /><cc:requires
           rdf:resource="http://creativecommons.org/ns#Notice" /><cc:requires
           rdf:resource="http://creativecommons.org/ns#Attribution" /></cc:License></rdf:RDF></metadata><path
     style="fill:#292a33;fill-opacity:1;stroke:#000000;stroke-width:0.79375;stroke-linecap:round;stroke-linejoin:round;stroke-miterlimit:8;stroke-dasharray:none;stroke-opacity:1;stop-color:#000000"
     d="M 16.598684,4.6273958 C 10.388028,4.3977017 3.720849,4.6284012 3.720849,9.6827967 c 0,1.7257163 1.4157867,3.3864183 3.7746827,2.7543543 2.9196383,-0.782315 6.1099733,-1.792389 9.8254163,-1.54798 9.605262,0.631855 11.642506,3.657789 12.282688,1.591754 C 30.93603,7.5083588 19.423003,4.73185 16.598684,4.6273958 Z"
     id="path349"
     sodipodi:nodetypes="sssscs" /><path
     style="fill:#292a33;fill-opacity:1;stroke:#000000;stroke-width:0.79375;stroke-linecap:round;stroke-linejoin:round;stroke-miterlimit:8;stroke-dasharray:none;stroke-opacity:1;stop-color:#000000"
     d="M 16.214795,5.2521905 15.94654,2.4483938 17.907696,2.5855312 17.26642,5.2415466"
     id="path3240"
     sodipodi:nodetypes="cccc" /></svg>
