<?xml version="1.0" encoding="UTF-8" standalone="no"?>
<!-- Created with Inkscape (http://www.inkscape.org/) -->

<svg
   width="128"
   height="128"
   viewBox="0 0 33.866666 33.866666"
   version="1.1"
   id="svg5"
   xml:space="preserve"
   sodipodi:docname="gutkato_kuraĝigas.svg"
   inkscape:version="1.2.2 (b0a8486541, 2022-12-01)"
   xmlns:inkscape="http://www.inkscape.org/namespaces/inkscape"
   xmlns:sodipodi="http://sodipodi.sourceforge.net/DTD/sodipodi-0.dtd"
   xmlns:xlink="http://www.w3.org/1999/xlink"
   xmlns="http://www.w3.org/2000/svg"
   xmlns:svg="http://www.w3.org/2000/svg"
   xmlns:rdf="http://www.w3.org/1999/02/22-rdf-syntax-ns#"
   xmlns:cc="http://creativecommons.org/ns#"
   xmlns:dc="http://purl.org/dc/elements/1.1/"><sodipodi:namedview
     id="namedview15"
     pagecolor="#505050"
     bordercolor="#eeeeee"
     borderopacity="1"
     inkscape:showpageshadow="0"
     inkscape:pageopacity="0"
     inkscape:pagecheckerboard="0"
     inkscape:deskcolor="#505050"
     showgrid="false"
     showguides="true"
     inkscape:zoom="3.6875001"
     inkscape:cx="57.491524"
     inkscape:cy="59.254236"
     inkscape:window-width="1232"
     inkscape:window-height="750"
     inkscape:window-x="48"
     inkscape:window-y="26"
     inkscape:window-maximized="1"
     inkscape:current-layer="g3962" /><title
     id="title4279">Gutkato kuraĝigas</title><defs
     id="defs2" /><metadata
     id="metadata4277"><rdf:RDF><cc:Work
         rdf:about=""><dc:title>Gutkato kuraĝigas</dc:title><dc:creator><cc:Agent><dc:title>Tirifto</dc:title></cc:Agent></dc:creator><dc:subject><rdf:Bag><rdf:li>gutkato</rdf:li><rdf:li>gutkatoj</rdf:li><rdf:li>federujo</rdf:li></rdf:Bag></dc:subject><cc:license
           rdf:resource="http://artlibre.org/licence/lal" /><dc:description>Gutkato, destinita al uzo kiel glumarko aŭ propra bildosigno, ekzemple en Federujo aŭ aliaj retaj komunikiloj.</dc:description><dc:date>2024</dc:date></cc:Work><cc:License
         rdf:about="http://artlibre.org/licence/lal"><cc:permits
           rdf:resource="http://creativecommons.org/ns#Reproduction" /><cc:permits
           rdf:resource="http://creativecommons.org/ns#Distribution" /><cc:permits
           rdf:resource="http://creativecommons.org/ns#DerivativeWorks" /><cc:requires
           rdf:resource="http://creativecommons.org/ns#ShareAlike" /><cc:requires
           rdf:resource="http://creativecommons.org/ns#Notice" /><cc:requires
           rdf:resource="http://creativecommons.org/ns#Attribution" /></cc:License></rdf:RDF></metadata><g
     id="g3962"
     transform="translate(0,3.6220891)"><path
       style="fill:#ffdb26;fill-opacity:1;stroke:#000000;stroke-width:1.05833;stroke-linecap:round;stroke-linejoin:round;stroke-dasharray:none;stroke-opacity:1;paint-order:markers fill stroke;stop-color:#000000"
       d="M 8.1032254,19.991427 C 7.6213223,19.086755 6.132829,16.558278 5.4230985,14.87565 4.4192634,12.495761 4.5231106,11.185599 5.8534241,10.622642 c 1.3386914,-0.566503 2.3579683,0.279754 3.3831155,2.690436"
       id="path441"
       sodipodi:nodetypes="cssc" /><ellipse
       style="fill:#c2748e;fill-opacity:1;stroke:none;stroke-width:0.891478;stroke-linecap:round;stroke-linejoin:round;paint-order:markers fill stroke;stop-color:#000000"
       id="circle443"
       cx="-0.38566428"
       cy="13.308623"
       transform="matrix(-0.92076148,0.39012601,0.39133685,0.92024751,0,0)"
       rx="0.24529202"
       ry="0.24498063" /><path
       id="path445"
       style="fill:#c2748e;fill-opacity:1;stroke:none;stroke-width:1.2795;stroke-linecap:round;stroke-linejoin:round;paint-order:markers fill stroke;stop-color:#000000"
       d="m 6.3155054,11.676184 a 0.62691923,0.62577387 0 0 0 -0.366098,0.714674 0.62691923,0.62577387 0 0 0 0.012053,0.457926 0.62691923,0.62577387 0 0 0 0.821914,0.331938 0.62691923,0.62577387 0 0 0 0.1379858,-0.08124 A 0.62691923,0.62577387 0 0 0 7.07463,13.05732 0.62691923,0.62577387 0 0 0 7.406932,12.236337 0.62691923,0.62577387 0 0 0 7.0845396,11.909204 0.62691923,0.62577387 0 0 0 6.3154343,11.676182 Z" /><ellipse
       style="fill:#c2748e;fill-opacity:1;stroke:none;stroke-width:0.891478;stroke-linecap:round;stroke-linejoin:round;paint-order:markers fill stroke;stop-color:#000000"
       id="use447"
       cx="-0.92530638"
       cy="12.899588"
       transform="matrix(-0.92076148,0.39012601,0.39133685,0.92024751,0,0)"
       rx="0.24529202"
       ry="0.24498063" /><ellipse
       style="fill:#c2748e;fill-opacity:1;stroke:none;stroke-width:0.891478;stroke-linecap:round;stroke-linejoin:round;paint-order:markers fill stroke;stop-color:#000000"
       id="use449"
       cx="-1.5642439"
       cy="12.899588"
       transform="matrix(-0.92076148,0.39012601,0.39133685,0.92024751,0,0)"
       rx="0.24529202"
       ry="0.24498063" /><ellipse
       style="fill:#c2748e;fill-opacity:1;stroke:none;stroke-width:0.891478;stroke-linecap:round;stroke-linejoin:round;stroke-dasharray:none;paint-order:markers fill stroke;stop-color:#000000"
       id="use451"
       cx="-2.099894"
       cy="13.308623"
       transform="matrix(-0.92076148,0.39012601,0.39133685,0.92024751,0,0)"
       rx="0.24529202"
       ry="0.24498063" /><path
       style="fill:#ffdb26;fill-opacity:1;stroke:#000000;stroke-width:0.79375;stroke-linecap:round;stroke-linejoin:round;stroke-dasharray:none;stroke-opacity:1;paint-order:markers fill stroke;stop-color:#000000"
       d="M 5.8928171,8.4408616 C 4.7957322,8.1479562 4.0254186,8.7368126 3.3228585,10.68292 3.1714411,11.102344 3.0479968,11.416963 2.8104936,11.827581"
       id="path1371"
       sodipodi:nodetypes="csc" /><ellipse
       style="fill:#c2748e;fill-opacity:1;stroke:none;stroke-width:0.891477;stroke-linecap:round;stroke-linejoin:round;paint-order:markers fill stroke;stop-color:#000000"
       id="ellipse1373"
       cx="8.6941795"
       cy="7.8299975"
       transform="matrix(0.96604395,0.25837779,-0.25926095,0.96580731,0,0)"
       rx="0.23290862"
       ry="0.23254007" /><path
       id="path1375"
       style="fill:#c2748e;fill-opacity:1;stroke:none;stroke-width:1.2795;stroke-linecap:round;stroke-linejoin:round;paint-order:markers fill stroke;stop-color:#000000"
       d="M 5.6060674,9.5124578 A 0.59517649,0.59408912 0 0 1 6.044844,10.13606 0.59517649,0.59408912 0 0 1 6.0941256,10.56816 0.59517649,0.59408912 0 0 1 5.3653601,10.988623 0.59517649,0.59408912 0 0 1 5.2248822,10.930436 0.59517649,0.59408912 0 0 1 5.0752117,10.911003 0.59517649,0.59408912 0 0 1 4.6541322,10.183004 0.59517649,0.59408912 0 0 1 4.9139208,9.8329404 0.59517649,0.59408912 0 0 1 5.6061338,9.5124388 Z" /><ellipse
       style="fill:#c2748e;fill-opacity:1;stroke:none;stroke-width:0.891477;stroke-linecap:round;stroke-linejoin:round;paint-order:markers fill stroke;stop-color:#000000"
       id="ellipse1377"
       cx="8.1817818"
       cy="7.4417338"
       transform="matrix(0.96604395,0.2583778,-0.25926096,0.96580731,0,0)"
       rx="0.23290862"
       ry="0.23254007" /><ellipse
       style="fill:#c2748e;fill-opacity:1;stroke:none;stroke-width:0.891477;stroke-linecap:round;stroke-linejoin:round;paint-order:markers fill stroke;stop-color:#000000"
       id="ellipse1379"
       cx="7.5750999"
       cy="7.4417338"
       transform="matrix(0.96604395,0.2583778,-0.25926096,0.96580731,0,0)"
       rx="0.23290862"
       ry="0.23254007" /><ellipse
       style="fill:#c2748e;fill-opacity:1;stroke:none;stroke-width:0.891477;stroke-linecap:round;stroke-linejoin:round;paint-order:markers fill stroke;stop-color:#000000"
       id="ellipse1381"
       cx="7.0664935"
       cy="7.8299975"
       transform="matrix(0.96604395,0.2583778,-0.25926096,0.96580731,0,0)"
       rx="0.23290862"
       ry="0.23254007" /><path
       sodipodi:type="star"
       style="fill:#ff4c5b;fill-opacity:1;stroke:#401d20;stroke-width:0.673013;stroke-linecap:square;stroke-linejoin:round;stroke-miterlimit:8;stroke-dasharray:none;stroke-opacity:1;stop-color:#000000"
       id="path1383"
       inkscape:flatsided="false"
       sodipodi:sides="12"
       sodipodi:cx="27.053526"
       sodipodi:cy="7.5988746"
       sodipodi:r1="4.2063341"
       sodipodi:r2="3.7857006"
       sodipodi:arg1="1.0471976"
       sodipodi:arg2="1.3089969"
       inkscape:rounded="0.5"
       inkscape:randomized="0"
       d="m 29.156693,11.241667 c -0.486465,0.28086 -0.580775,-0.131471 -1.123356,0.01391 -0.54258,0.145385 -0.41809,0.549629 -0.979811,0.549629 -0.561721,0 -0.437231,-0.404244 -0.979811,-0.549628 -0.542581,-0.145385 -0.636892,0.266946 -1.123356,-0.01391 C 24.463894,10.960806 24.773828,10.672966 24.376631,10.275769 23.979435,9.8785724 23.691594,10.188506 23.410734,9.7020414 23.129873,9.215577 23.542204,9.1212667 23.39682,8.5786861 23.251436,8.0361052 22.847192,8.1605954 22.847192,7.5988744 c 0,-0.5617208 0.404244,-0.4372305 0.549628,-0.9798111 0.145384,-0.5425809 -0.266947,-0.6368912 0.01391,-1.123356 0.28086,-0.4864644 0.568701,-0.1765306 0.965897,-0.5737272 0.397197,-0.3971967 0.08726,-0.6850373 0.573728,-0.9658978 0.486464,-0.2808604 0.580775,0.1314704 1.123355,-0.013914 0.542581,-0.1453841 0.418091,-0.5496282 0.979812,-0.5496282 0.561721,-10e-8 0.437231,0.404244 0.979811,0.5496281 0.542581,0.1453841 0.636891,-0.2669466 1.123356,0.013914 0.486465,0.2808603 0.176531,0.5687009 0.573727,0.9658974 0.397197,0.3971968 0.685038,0.087263 0.965898,0.5737278 0.280861,0.4864644 -0.13147,0.5807747 0.01391,1.1233553 0.145384,0.5425809 0.549628,0.4180907 0.549628,0.9798118 0,0.5617207 -0.404244,0.4372305 -0.549628,0.979811 -0.145384,0.5425809 0.266947,0.6368913 -0.01391,1.123356 -0.28086,0.4864642 -0.568701,0.1765307 -0.965897,0.5737272 -0.397197,0.397197 -0.08726,0.685037 -0.573728,0.965898 z"
       transform="matrix(1.1793969,0,0,1.1793969,-25.560279,0.69524866)" /><path
       sodipodi:type="star"
       style="fill:#ff4c5b;fill-opacity:1;stroke:#e13c4a;stroke-width:0.595255;stroke-linecap:square;stroke-linejoin:round;stroke-miterlimit:8;stroke-dasharray:none;stroke-opacity:1;stop-color:#000000"
       id="path1385"
       inkscape:flatsided="false"
       sodipodi:sides="12"
       sodipodi:cx="27.053526"
       sodipodi:cy="7.5988746"
       sodipodi:r1="4.2063341"
       sodipodi:r2="1.6825336"
       sodipodi:arg1="1.0471976"
       sodipodi:arg2="1.3089969"
       inkscape:rounded="0.15"
       inkscape:randomized="0"
       d="m 29.156693,11.241667 c -0.340038,0.196321 -1.288433,-2.1192128 -1.667695,-2.0175898 -0.379263,0.1016231 -0.04283,2.5811318 -0.435472,2.5811318 -0.392642,0 -0.05621,-2.4795087 -0.435472,-2.5811317 C 26.238792,9.1224542 25.290396,11.437987 24.950359,11.241667 24.610321,11.045346 26.141434,9.0662449 25.863795,8.7886055 25.586156,8.5109662 23.607054,10.042079 23.410734,9.7020414 23.214413,9.3620041 25.529946,8.4136087 25.428323,8.0343464 25.3267,7.655084 22.847192,7.9915157 22.847192,7.5988744 c 0,-0.3926413 2.479508,-0.056209 2.581131,-0.4354715 0.101623,-0.3792624 -2.21391,-1.3276582 -2.017589,-1.6676956 0.19632,-0.3400373 2.175422,1.1910757 2.453061,0.9134364 0.277639,-0.2776393 -1.253473,-2.2567408 -0.913436,-2.4530614 0.340037,-0.1963207 1.288433,2.1192126 1.667695,2.0175896 0.379263,-0.101623 0.04283,-2.5811314 0.435472,-2.5811314 0.392641,-10e-8 0.05621,2.4795083 0.435472,2.5811314 0.379262,0.101623 1.327658,-2.2139101 1.667695,-2.0175894 0.340037,0.1963206 -1.191075,2.1754218 -0.913436,2.4530611 0.277639,0.2776393 2.256741,-1.2534733 2.453061,-0.9134359 0.196321,0.3400373 -2.119212,1.2884327 -2.017589,1.6676951 0.101623,0.3792623 2.581131,0.042831 2.581131,0.435472 0,0.3926413 -2.479508,0.056209 -2.581131,0.4354715 -0.101623,0.3792623 2.21391,1.3276581 2.017589,1.6676955 -0.196321,0.3400372 -2.175422,-1.1910756 -2.453061,-0.9134363 -0.277639,0.2776393 1.253473,2.2567405 0.913436,2.4530615 z"
       transform="matrix(0.88897479,0,0,0.88897479,-17.703336,2.9021302)" /><circle
       style="fill:#e13c4a;fill-opacity:1;stroke:none;stroke-width:0.529167;stroke-linecap:square;stroke-linejoin:round;stroke-miterlimit:8;stroke-dasharray:none;stroke-opacity:1;stop-color:#000000"
       id="circle1387"
       cx="6.3465662"
       cy="9.6573381"
       r="0.75356007" /><path
       id="path236"
       style="fill:#ffdb26;fill-opacity:1;stroke:#000000;stroke-width:1.05833;stroke-linecap:round;stroke-linejoin:round;stroke-dasharray:none;paint-order:normal;stop-color:#000000"
       d="M 9.7398264,5.8659332 C 9.4765542,6.8355364 8.6486596,9.0539738 8.7415162,11.201957 c -1.6710114,1.932588 -2.5053875,8.93273 -1.7639113,11.694937 1.1988879,4.466196 15.1745191,4.68807 18.4468851,1.421639 0.495652,-0.494752 0.703243,-1.733199 0.713463,-3.29713 0.649573,-0.659547 1.905428,-2.293058 2.359293,-3.988241 0.872108,-3.257302 0.593936,-4.563704 -0.808156,-4.938041 -0.635542,-0.169681 -1.166987,-0.05838 -1.639697,0.417115 0.406778,-1.355949 0.59357,-2.9596936 0.495704,-3.8795609 -2.177167,-0.0115 -3.789973,0.3598595 -5.468086,1.0569491 C 19.07272,8.7693994 15.980016,8.1813541 13.370394,8.6824229 11.974619,7.3755345 10.937717,6.6079631 9.7398264,5.8659332 Z" /><ellipse
       style="fill:#000000;fill-opacity:1;stroke:none;stroke-width:2.11668;stroke-linecap:round;stroke-linejoin:round;stroke-dasharray:none;paint-order:stroke markers fill;stop-color:#000000"
       id="path6982"
       cx="14.540048"
       cy="11.852424"
       rx="1.2427779"
       ry="1.5861616"
       transform="matrix(0.98486196,0.17334047,-0.1739564,0.98475336,0,0)" /><use
       x="0"
       y="0"
       xlink:href="#path6982"
       id="use7712"
       transform="translate(6.6200542,0.74385728)"
       style="stroke-width:1.44544" /><path
       style="fill:none;fill-opacity:1;stroke:#000000;stroke-width:0.661458;stroke-linecap:round;stroke-linejoin:round;stroke-dasharray:none;stroke-opacity:1;paint-order:normal;stop-color:#000000"
       d="m 20.908111,17.347257 3.634366,-0.417444"
       id="path7889" /><path
       style="fill:none;fill-opacity:1;stroke:#000000;stroke-width:0.661458;stroke-linecap:round;stroke-linejoin:round;stroke-dasharray:none;stroke-opacity:1;paint-order:normal;stop-color:#000000"
       d="m 20.860176,18.94352 3.451183,0.750968"
       id="path7891" /><path
       style="fill:none;fill-opacity:1;stroke:#000000;stroke-width:0.661458;stroke-linecap:round;stroke-linejoin:round;stroke-dasharray:none;stroke-opacity:1;paint-order:normal;stop-color:#000000"
       d="M 10.087178,16.166417 8.4171415,15.334293"
       id="path7893" /><path
       style="fill:none;fill-opacity:1;stroke:#000000;stroke-width:0.661458;stroke-linecap:round;stroke-linejoin:round;stroke-dasharray:none;stroke-opacity:1;paint-order:normal;stop-color:#000000"
       d="M 9.6520782,17.546583 8.0319077,17.383933"
       id="path7895" /><path
       style="fill:#c2748e;fill-opacity:1;stroke:#382129;stroke-width:0.661458;stroke-linecap:round;stroke-linejoin:round;stroke-dasharray:none;stroke-opacity:1;paint-order:markers fill stroke;stop-color:#000000"
       d="m 11.027517,17.685142 c -0.55425,4.990742 7.921179,5.354065 8.354323,0.794072 -1.200931,0.233011 -4.080508,-0.384791 -4.75093,-0.836167 -0.691094,0.336453 -2.589198,0.390673 -3.603393,0.04209 z"
       id="path2839" /><path
       style="fill:#ffffff;fill-opacity:1;stroke:none;stroke-width:0.529167;stroke-linecap:round;stroke-linejoin:round;stroke-dasharray:none;stroke-opacity:1;paint-order:markers fill stroke;stop-color:#000000"
       id="path2893"
       d="m 17.264093,19.484462 -0.537626,-1.205325 1.314565,0.137914 z" /><use
       x="0"
       y="0"
       xlink:href="#path2893"
       id="use2895"
       transform="translate(-4.6422597,-0.5059134)"
       style="stroke-width:1.34917" /><path
       style="fill:none;fill-opacity:1;stroke:#382226;stroke-width:0.661458;stroke-linecap:round;stroke-linejoin:round;stroke-dasharray:none;stroke-opacity:1;paint-order:markers fill stroke;stop-color:#000000"
       d="m 19.579477,18.446824 c -1.316653,0.255464 -4.096706,-0.230243 -4.948567,-0.803777 -0.830185,0.404168 -2.78353,0.332998 -3.797724,-0.01558"
       id="path1289" /><path
       style="fill:#ffdb26;fill-opacity:1;stroke:#000000;stroke-width:1.05833;stroke-linecap:round;stroke-linejoin:round;stroke-dasharray:none;stroke-opacity:1;paint-order:markers fill stroke;stop-color:#000000"
       d="m 27.689268,12.09496 c -1.155596,-0.308527 -1.966993,0.311735 -2.707023,2.361635 -0.159493,0.441793 -0.289521,0.773192 -0.539691,1.205709"
       id="path453"
       sodipodi:nodetypes="csc" /><ellipse
       style="fill:#c2748e;fill-opacity:1;stroke:none;stroke-width:0.891477;stroke-linecap:round;stroke-linejoin:round;paint-order:markers fill stroke;stop-color:#000000"
       id="circle457"
       cx="30.736164"
       cy="5.7922082"
       transform="matrix(0.96604395,0.25837779,-0.25926095,0.96580731,0,0)"
       rx="0.24533041"
       ry="0.2449422" /><path
       id="path459"
       style="fill:#c2748e;fill-opacity:1;stroke:none;stroke-width:1.2795;stroke-linecap:round;stroke-linejoin:round;paint-order:markers fill stroke;stop-color:#000000"
       d="m 27.387225,13.223708 a 0.62691923,0.62577387 0 0 1 0.462178,0.656861 0.62691923,0.62577387 0 0 1 0.05191,0.455145 0.62691923,0.62577387 0 0 1 -0.767633,0.442888 0.62691923,0.62577387 0 0 1 -0.14797,-0.06129 0.62691923,0.62577387 0 0 1 -0.157653,-0.02047 0.62691923,0.62577387 0 0 1 -0.443537,-0.766825 0.62691923,0.62577387 0 0 1 0.273644,-0.368734 0.62691923,0.62577387 0 0 1 0.729131,-0.337595 z" /><ellipse
       style="fill:#c2748e;fill-opacity:1;stroke:none;stroke-width:0.891477;stroke-linecap:round;stroke-linejoin:round;paint-order:markers fill stroke;stop-color:#000000"
       id="circle461"
       cx="30.196438"
       cy="5.3832369"
       transform="matrix(0.96604395,0.2583778,-0.25926096,0.96580731,0,0)"
       rx="0.24533041"
       ry="0.2449422" /><ellipse
       style="fill:#c2748e;fill-opacity:1;stroke:none;stroke-width:0.891477;stroke-linecap:round;stroke-linejoin:round;paint-order:markers fill stroke;stop-color:#000000"
       id="circle463"
       cx="29.5574"
       cy="5.3832369"
       transform="matrix(0.96604395,0.2583778,-0.25926096,0.96580731,0,0)"
       rx="0.24533041"
       ry="0.2449422" /><ellipse
       style="fill:#c2748e;fill-opacity:1;stroke:none;stroke-width:0.891477;stroke-linecap:round;stroke-linejoin:round;paint-order:markers fill stroke;stop-color:#000000"
       id="circle465"
       cx="29.021667"
       cy="5.7922077"
       transform="matrix(0.96604395,0.2583778,-0.25926096,0.96580731,0,0)"
       rx="0.24533041"
       ry="0.2449422" /><path
       sodipodi:type="star"
       style="fill:#4c96ff;fill-opacity:1;stroke:#1d2b40;stroke-width:0.638937;stroke-linecap:square;stroke-linejoin:round;stroke-miterlimit:8;stroke-dasharray:none;stroke-opacity:1;stop-color:#000000"
       id="path1045"
       inkscape:flatsided="false"
       sodipodi:sides="12"
       sodipodi:cx="27.053526"
       sodipodi:cy="7.5988746"
       sodipodi:r1="4.2063341"
       sodipodi:r2="3.7857006"
       sodipodi:arg1="1.0471976"
       sodipodi:arg2="1.3089969"
       inkscape:rounded="0.5"
       inkscape:randomized="0"
       d="m 29.156693,11.241667 c -0.486465,0.28086 -0.580775,-0.131471 -1.123356,0.01391 -0.54258,0.145385 -0.41809,0.549629 -0.979811,0.549629 -0.561721,0 -0.437231,-0.404244 -0.979811,-0.549628 -0.542581,-0.145385 -0.636892,0.266946 -1.123356,-0.01391 C 24.463894,10.960806 24.773828,10.672966 24.376631,10.275769 23.979435,9.8785724 23.691594,10.188506 23.410734,9.7020414 23.129873,9.215577 23.542204,9.1212667 23.39682,8.5786861 23.251436,8.0361052 22.847192,8.1605954 22.847192,7.5988744 c 0,-0.5617208 0.404244,-0.4372305 0.549628,-0.9798111 0.145384,-0.5425809 -0.266947,-0.6368912 0.01391,-1.123356 0.28086,-0.4864644 0.568701,-0.1765306 0.965897,-0.5737272 0.397197,-0.3971967 0.08726,-0.6850373 0.573728,-0.9658978 0.486464,-0.2808604 0.580775,0.1314704 1.123355,-0.013914 0.542581,-0.1453841 0.418091,-0.5496282 0.979812,-0.5496282 0.561721,-10e-8 0.437231,0.404244 0.979811,0.5496281 0.542581,0.1453841 0.636891,-0.2669466 1.123356,0.013914 0.486465,0.2808603 0.176531,0.5687009 0.573727,0.9658974 0.397197,0.3971968 0.685038,0.087263 0.965898,0.5737278 0.280861,0.4864644 -0.13147,0.5807747 0.01391,1.1233553 0.145384,0.5425809 0.549628,0.4180907 0.549628,0.9798118 0,0.5617207 -0.404244,0.4372305 -0.549628,0.979811 -0.145384,0.5425809 0.266947,0.6368913 -0.01391,1.123356 -0.28086,0.4864642 -0.568701,0.1765307 -0.965897,0.5737272 -0.397197,0.397197 -0.08726,0.685037 -0.573728,0.965898 z"
       transform="matrix(1.2422981,0,0,1.2422981,-5.4413262,3.9362478)" /><path
       sodipodi:type="star"
       style="fill:#4c96ff;fill-opacity:1;stroke:#3c7ee1;stroke-width:0.565035;stroke-linecap:square;stroke-linejoin:round;stroke-miterlimit:8;stroke-dasharray:none;stroke-opacity:1;stop-color:#000000"
       id="path1049"
       inkscape:flatsided="false"
       sodipodi:sides="12"
       sodipodi:cx="27.053526"
       sodipodi:cy="7.5988746"
       sodipodi:r1="4.2063341"
       sodipodi:r2="1.6825336"
       sodipodi:arg1="1.0471976"
       sodipodi:arg2="1.3089969"
       inkscape:rounded="0.15"
       inkscape:randomized="0"
       d="m 29.156693,11.241667 c -0.340038,0.196321 -1.288433,-2.1192128 -1.667695,-2.0175898 -0.379263,0.1016231 -0.04283,2.5811318 -0.435472,2.5811318 -0.392642,0 -0.05621,-2.4795087 -0.435472,-2.5811317 C 26.238792,9.1224542 25.290396,11.437987 24.950359,11.241667 24.610321,11.045346 26.141434,9.0662449 25.863795,8.7886055 25.586156,8.5109662 23.607054,10.042079 23.410734,9.7020414 23.214413,9.3620041 25.529946,8.4136087 25.428323,8.0343464 25.3267,7.655084 22.847192,7.9915157 22.847192,7.5988744 c 0,-0.3926413 2.479508,-0.056209 2.581131,-0.4354715 0.101623,-0.3792624 -2.21391,-1.3276582 -2.017589,-1.6676956 0.19632,-0.3400373 2.175422,1.1910757 2.453061,0.9134364 0.277639,-0.2776393 -1.253473,-2.2567408 -0.913436,-2.4530614 0.340037,-0.1963207 1.288433,2.1192126 1.667695,2.0175896 0.379263,-0.101623 0.04283,-2.5811314 0.435472,-2.5811314 0.392641,-10e-8 0.05621,2.4795083 0.435472,2.5811314 0.379262,0.101623 1.327658,-2.2139101 1.667695,-2.0175894 0.340037,0.1963206 -1.191075,2.1754218 -0.913436,2.4530611 0.277639,0.2776393 2.256741,-1.2534733 2.453061,-0.9134359 0.196321,0.3400373 -2.119212,1.2884327 -2.017589,1.6676951 0.101623,0.3792623 2.581131,0.042831 2.581131,0.435472 0,0.3926413 -2.479508,0.056209 -2.581131,0.4354715 -0.101623,0.3792623 2.21391,1.3276581 2.017589,1.6676955 -0.196321,0.3400372 -2.175422,-1.1910756 -2.453061,-0.9134363 -0.277639,0.2776393 1.253473,2.2567405 0.913436,2.4530615 z"
       transform="matrix(0.93652096,0,0,0.93652096,2.8310237,6.2598099)" /><circle
       style="fill:#3c7ee1;fill-opacity:1;stroke:none;stroke-width:0.529167;stroke-linecap:square;stroke-linejoin:round;stroke-miterlimit:8;stroke-dasharray:none;stroke-opacity:1;stop-color:#000000"
       id="path1254"
       cx="28.167217"
       cy="13.376315"
       r="0.79374993" /></g></svg>
