<?xml version="1.0" encoding="UTF-8" standalone="no"?>
<!-- Created with Inkscape (http://www.inkscape.org/) -->

<svg
   width="128"
   height="128"
   viewBox="0 0 33.866666 33.866666"
   version="1.1"
   id="svg5"
   xml:space="preserve"
   sodipodi:docname="gutkato_leterportisto.svg"
   inkscape:version="1.2.2 (b0a8486541, 2022-12-01)"
   inkscape:export-filename="gutkato_policano.png"
   inkscape:export-xdpi="96"
   inkscape:export-ydpi="96"
   xmlns:inkscape="http://www.inkscape.org/namespaces/inkscape"
   xmlns:sodipodi="http://sodipodi.sourceforge.net/DTD/sodipodi-0.dtd"
   xmlns:xlink="http://www.w3.org/1999/xlink"
   xmlns="http://www.w3.org/2000/svg"
   xmlns:svg="http://www.w3.org/2000/svg"
   xmlns:rdf="http://www.w3.org/1999/02/22-rdf-syntax-ns#"
   xmlns:cc="http://creativecommons.org/ns#"
   xmlns:dc="http://purl.org/dc/elements/1.1/"><sodipodi:namedview
     id="namedview15"
     pagecolor="#505050"
     bordercolor="#eeeeee"
     borderopacity="1"
     inkscape:showpageshadow="0"
     inkscape:pageopacity="0"
     inkscape:pagecheckerboard="0"
     inkscape:deskcolor="#505050"
     showgrid="false"
     inkscape:zoom="0.65186406"
     inkscape:cx="72.100922"
     inkscape:cy="105.08326"
     inkscape:window-width="1232"
     inkscape:window-height="750"
     inkscape:window-x="48"
     inkscape:window-y="26"
     inkscape:window-maximized="1"
     inkscape:current-layer="svg5"
     showguides="false" /><title
     id="title4279">Gutkato leterportisto</title><defs
     id="defs2" /><path
     style="fill:#ffdb26;fill-opacity:1;stroke:#000000;stroke-width:1.05833;stroke-linecap:round;stroke-linejoin:round;stroke-dasharray:none;paint-order:normal;stop-color:#000000"
     d="M 6.3460128,10.987509 C 6.0131876,8.1033126 6.9112569,5.0355095 7.1713329,3.7040818 c 1.6823697,0.883682 3.1509471,1.8173157 5.1540591,3.4426941 3.460025,-0.9271224 7.675181,-0.4344139 10.458981,0.611344 2.188665,-1.101117 4.320882,-1.7567683 7.249119,-1.9517024 0.321474,1.7913943 -0.0283,5.5961075 -1.06115,7.5149165 1.483302,5.222627 1.500916,12.296756 -0.04318,13.840869 C 24.518229,31.573194 5.6799495,31.273305 4.0639285,25.242152 3.064468,21.512066 4.2865251,13.752064 6.3460128,10.987509 Z"
     id="path236" /><ellipse
     style="fill:#000000;fill-opacity:1;stroke:none;stroke-width:2.11668;stroke-linecap:round;stroke-linejoin:round;stroke-dasharray:none;paint-order:stroke markers fill;stop-color:#000000"
     id="path6982"
     cx="12.96371"
     cy="12.570978"
     rx="1.6752723"
     ry="2.1418331"
     transform="rotate(8)" /><use
     x="0"
     y="0"
     xlink:href="#path6982"
     id="use7712"
     transform="translate(8.953004,0.69247082)"
     style="stroke-width:1.07136" /><path
     style="fill:none;fill-opacity:1;stroke:#000000;stroke-width:0.79375;stroke-linecap:round;stroke-linejoin:round;stroke-dasharray:none;stroke-opacity:1;paint-order:normal;stop-color:#000000"
     d="m 22.889183,18.104059 4.87622,-0.734341"
     id="path7889" /><path
     style="fill:none;fill-opacity:1;stroke:#000000;stroke-width:0.79375;stroke-linecap:round;stroke-linejoin:round;stroke-dasharray:none;stroke-opacity:1;paint-order:normal;stop-color:#000000"
     d="m 22.899838,20.260593 4.684517,0.851137"
     id="path7891" /><path
     style="fill:none;fill-opacity:1;stroke:#000000;stroke-width:0.79375;stroke-linecap:round;stroke-linejoin:round;stroke-dasharray:none;stroke-opacity:1;paint-order:normal;stop-color:#000000"
     d="M 8.2565339,17.019465 5.9675926,15.975012"
     id="path7893" /><path
     style="fill:none;fill-opacity:1;stroke:#000000;stroke-width:0.79375;stroke-linecap:round;stroke-linejoin:round;stroke-dasharray:none;stroke-opacity:1;paint-order:normal;stop-color:#000000"
     d="M 7.7354506,18.902572 5.5452359,18.75928"
     id="path7895" /><metadata
     id="metadata4277"><rdf:RDF><cc:Work
         rdf:about=""><dc:title>Gutkato leterportisto</dc:title><dc:creator><cc:Agent><dc:title>Tirifto</dc:title></cc:Agent></dc:creator><dc:subject><rdf:Bag><rdf:li>gutkato</rdf:li><rdf:li>gutkatoj</rdf:li><rdf:li>federujo</rdf:li></rdf:Bag></dc:subject><cc:license
           rdf:resource="http://artlibre.org/licence/lal" /><dc:description>Gutkato, destinita al uzo kiel glumarko aŭ propra bildosigno, ekzemple en Federujo aŭ aliaj retaj komunikiloj.</dc:description><dc:date>2024</dc:date></cc:Work><cc:License
         rdf:about="http://artlibre.org/licence/lal"><cc:permits
           rdf:resource="http://creativecommons.org/ns#Reproduction" /><cc:permits
           rdf:resource="http://creativecommons.org/ns#Distribution" /><cc:permits
           rdf:resource="http://creativecommons.org/ns#DerivativeWorks" /><cc:requires
           rdf:resource="http://creativecommons.org/ns#ShareAlike" /><cc:requires
           rdf:resource="http://creativecommons.org/ns#Notice" /><cc:requires
           rdf:resource="http://creativecommons.org/ns#Attribution" /></cc:License></rdf:RDF></metadata><g
     id="g4036"
     transform="rotate(2,-331.37853,-38.082998)" /><g
     id="g2194"><path
       style="fill:#2f2f4d;fill-opacity:1;stroke:#000000;stroke-width:1.05833;stroke-linecap:round;stroke-linejoin:round;stroke-dasharray:none;stroke-opacity:1;paint-order:normal;stop-color:#000000"
       d="M 10.825962,7.6780411 C 5.2787205,12.162464 23.515987,12.766342 25.157459,8.1119004"
       id="path4032"
       sodipodi:nodetypes="cc" /><path
       id="path1830"
       style="fill:#1f1f33;fill-opacity:1;stroke:none;stroke-width:1.05833;stroke-linecap:round;stroke-linejoin:round;stroke-dasharray:none;stroke-opacity:1;paint-order:normal;stop-color:#000000"
       d="M 13.026561,1.2951651 C 11.371307,1.7111592 8.8952063,2.5562858 8.8373059,3.9936637 8.7942366,5.0628607 10.896579,5.6615356 10.896579,5.6615356 l -0.07061,2.0165056 c 2.41138,2.241733 11.75029,2.5205228 14.331497,0.4338592 l 0.07061,-2.0165055 c 0,0 2.144766,-0.4702508 2.187826,-1.5392988 C 27.474238,3.1082351 25.162665,2.1548647 23.453987,1.6108358 22.01953,1.1541156 19.801033,0.93404755 18.263054,0.88748825 16.725076,0.84092895 14.494276,0.92630255 13.026561,1.2951651 Z"
       sodipodi:nodetypes="ssccccsszs" /><path
       id="path6309"
       style="fill:#1f1f33;fill-opacity:1;stroke:#000000;stroke-width:0.529167;stroke-linecap:round;stroke-linejoin:round;stroke-dasharray:none;stroke-opacity:1;paint-order:normal;stop-color:#000000"
       d="m 10.825962,7.6780411 c 2.41138,2.241733 11.750289,2.5205229 14.331497,0.4338592"
       sodipodi:nodetypes="cc" /><path
       id="path6311"
       style="fill:none;fill-opacity:1;stroke:#000000;stroke-width:1.05833;stroke-linecap:round;stroke-linejoin:round;stroke-dasharray:none;stroke-opacity:1;paint-order:normal;stop-color:#000000"
       d="m 25.157459,8.1119004 0.07057,-2.0165055 c 0,0 1.880188,-0.4702508 1.923248,-1.5392988 C 27.209603,3.1082351 25.162611,2.1548647 23.453933,1.6108358 22.019479,1.1541157 19.800982,0.9340476 18.263003,0.8874883 16.725025,0.840929 14.494225,0.9263026 13.02651,1.2951651 11.371256,1.7111592 9.1598315,2.5562858 9.1019311,3.9936637 9.058866,5.0628608 10.896528,5.6615356 10.896528,5.6615356 l -0.07056,2.0165056"
       sodipodi:nodetypes="ccsszsscc" /><ellipse
       style="fill:#2f2f4d;fill-opacity:1;stroke:none;stroke-width:0.529177;stroke-linecap:round;stroke-linejoin:round;stop-color:#000000"
       id="path358"
       cy="3.3817182"
       cx="18.217411"
       ry="1.9802424"
       rx="7.6013823"
       transform="matrix(0.999521,0.0309478,-0.03935437,0.99922532,0,0)" /><g
       id="g8078"
       transform="rotate(4,-140.06178,-16.517964)"><path
         style="fill:#ebb345;fill-opacity:1;stroke:#000000;stroke-width:0.529167;stroke-linecap:round;stroke-linejoin:round;stroke-miterlimit:8;stroke-opacity:1;stop-color:#000000"
         d="m 17.621794,-2.3326083 c 1.244731,0.7186459 2.202521,0.3068472 3.038535,-0.5291667 l -0.149301,-1.4713062 c -0.732364,0.8424888 -1.060975,1.2141765 -1.755809,1.2126004"
         id="path8074"
         sodipodi:nodetypes="cccc" /><path
         style="fill:#ebb345;fill-opacity:1;stroke:#000000;stroke-width:0.529167;stroke-linecap:round;stroke-linejoin:round;stroke-miterlimit:8;stroke-opacity:1;stop-color:#000000"
         d="m 17.423998,-3.5853933 c -0.81364,-0.5761396 0.573442,-1.4055166 0.400745,-0.4825018 -0.09677,0.3611433 -0.500131,0.7402556 -1.433824,0.5653975 -0.933692,-0.174858 -1.79968,-2.6823534 -1.79968,-2.6823534 -0.861386,0.4973217 -1.843131,2.6196334 -1.843131,3.4138429 1.409459,0.1069836 2.922109,0.6741404 3.817365,0.6741404 0.895256,0 2.435756,-0.7080906 2.589578,-1.8821466 0.153823,-1.1740561 -0.72401,-1.7866452 -1.746411,-1.8300121 -1.022401,-0.043367 -1.643037,1.515769 -1.22912,2.232695"
         id="path7655"
         sodipodi:nodetypes="cczcczzzc" /></g></g><g
     id="g11166"
     transform="matrix(0.94507752,0.06602046,-0.06608626,0.9441366,3.9061394,-16.907323)"
     style="stroke-width:1.05606"><rect
       style="fill:#f2f2f2;fill-opacity:1;stroke:#000000;stroke-width:0.83825;stroke-linecap:round;stroke-linejoin:round;stroke-miterlimit:8;stroke-dasharray:none;stroke-opacity:1;stop-color:#000000"
       id="rect8150"
       width="18.256248"
       height="11.90625"
       x="5.2981267"
       y="39.188766" /><path
       style="fill:none;fill-opacity:1;stroke:#000000;stroke-width:0.83825;stroke-linecap:round;stroke-linejoin:round;stroke-miterlimit:8;stroke-dasharray:none;stroke-opacity:1;stop-color:#000000"
       d="m 5.2981267,39.188768 c 0,0.93372 6.2078533,7.9375 9.1281243,7.9375 2.920271,0 9.128124,-6.971134 9.128124,-7.9375"
       id="path10384"
       sodipodi:nodetypes="czc" /></g><path
     style="fill:#ffdb26;fill-opacity:1;stroke:#000000;stroke-width:0.79375;stroke-linecap:round;stroke-linejoin:round;stroke-dasharray:none;stroke-opacity:1;paint-order:normal;stop-color:#000000"
     d="m 10.004075,19.121173 c -1.4238886,3.039424 2.342169,4.371724 4.594902,1.690642 3.202672,3.608669 6.496348,1.194297 5.575255,-1.100462"
     id="path7824" /></svg>
