<?xml version="1.0" encoding="UTF-8" standalone="no"?>
<!-- Created with Inkscape (http://www.inkscape.org/) -->

<svg
   width="128"
   height="128"
   viewBox="0 0 33.866666 33.866666"
   version="1.1"
   id="svg5"
   xml:space="preserve"
   sodipodi:docname="gutkato_manĝas_muson.svg"
   inkscape:version="1.2.2 (b0a8486541, 2022-12-01)"
   inkscape:export-filename="gutkato_manĝas_kuketon.png"
   inkscape:export-xdpi="96"
   inkscape:export-ydpi="96"
   xmlns:inkscape="http://www.inkscape.org/namespaces/inkscape"
   xmlns:sodipodi="http://sodipodi.sourceforge.net/DTD/sodipodi-0.dtd"
   xmlns:xlink="http://www.w3.org/1999/xlink"
   xmlns="http://www.w3.org/2000/svg"
   xmlns:svg="http://www.w3.org/2000/svg"
   xmlns:rdf="http://www.w3.org/1999/02/22-rdf-syntax-ns#"
   xmlns:cc="http://creativecommons.org/ns#"
   xmlns:dc="http://purl.org/dc/elements/1.1/"><sodipodi:namedview
     id="namedview15"
     pagecolor="#505050"
     bordercolor="#eeeeee"
     borderopacity="1"
     inkscape:showpageshadow="0"
     inkscape:pageopacity="0"
     inkscape:pagecheckerboard="0"
     inkscape:deskcolor="#505050"
     showgrid="false"
     showguides="true"
     inkscape:zoom="1.3037282"
     inkscape:cx="59.06139"
     inkscape:cy="120.80739"
     inkscape:window-width="1232"
     inkscape:window-height="750"
     inkscape:window-x="48"
     inkscape:window-y="26"
     inkscape:window-maximized="1"
     inkscape:current-layer="layer1" /><title
     id="title4279">Gutkato manĝas muson</title><defs
     id="defs2"><inkscape:path-effect
       effect="bspline"
       id="path-effect13140"
       is_visible="true"
       lpeversion="1"
       weight="33.333333"
       steps="2"
       helper_size="0"
       apply_no_weight="true"
       apply_with_weight="true"
       only_selected="false" /></defs><g
     id="layer1"><path
       style="fill:#ffdb26;fill-opacity:1;stroke:#000000;stroke-width:1.05833;stroke-linecap:round;stroke-linejoin:round;stroke-dasharray:none;paint-order:normal;stop-color:#000000"
       d="M 6.3460128,10.987509 C 6.0131876,8.1033126 6.9112569,5.0355095 7.1713329,3.7040818 c 1.6823697,0.883682 3.1509471,1.8173157 5.1540591,3.4426941 3.460025,-0.9271224 7.675181,-0.4344139 10.458981,0.611344 2.188665,-1.101117 4.320882,-1.7567683 7.249119,-1.9517024 0.321474,1.7913943 -0.0283,5.5961075 -1.06115,7.5149165 1.483302,5.222627 1.500916,12.296756 -0.04318,13.840869 C 24.518229,31.573194 5.6799495,31.273305 4.0639285,25.242152 3.064468,21.512066 4.2865251,13.752064 6.3460128,10.987509 Z"
       id="path236" /><ellipse
       style="fill:#000000;fill-opacity:1;stroke:none;stroke-width:2.11668;stroke-linecap:round;stroke-linejoin:round;stroke-dasharray:none;paint-order:stroke markers fill;stop-color:#000000"
       id="path6982"
       cx="12.96371"
       cy="12.570978"
       rx="1.6752723"
       ry="2.1418331"
       transform="rotate(8)" /><use
       x="0"
       y="0"
       xlink:href="#path6982"
       id="use7712"
       transform="translate(8.953004,0.69247082)"
       style="stroke-width:1.07136" /><path
       style="fill:none;fill-opacity:1;stroke:#000000;stroke-width:0.79375;stroke-linecap:round;stroke-linejoin:round;stroke-dasharray:none;stroke-opacity:1;paint-order:normal;stop-color:#000000"
       d="m 22.889183,18.104059 4.87622,-0.734341"
       id="path7889" /><path
       style="fill:none;fill-opacity:1;stroke:#000000;stroke-width:0.79375;stroke-linecap:round;stroke-linejoin:round;stroke-dasharray:none;stroke-opacity:1;paint-order:normal;stop-color:#000000"
       d="m 22.899838,20.260593 4.684517,0.851137"
       id="path7891" /><path
       style="fill:none;fill-opacity:1;stroke:#000000;stroke-width:0.79375;stroke-linecap:round;stroke-linejoin:round;stroke-dasharray:none;stroke-opacity:1;paint-order:normal;stop-color:#000000"
       d="M 8.2565339,17.019465 5.9675926,15.975012"
       id="path7893" /><path
       style="fill:none;fill-opacity:1;stroke:#000000;stroke-width:0.79375;stroke-linecap:round;stroke-linejoin:round;stroke-dasharray:none;stroke-opacity:1;paint-order:normal;stop-color:#000000"
       d="M 7.7354506,18.902572 5.5452359,18.75928"
       id="path7895" /><path
       style="color:#000000;fill:#292929;stroke:#000000;stroke-width:0.264583;stroke-linecap:round;stroke-linejoin:round;stroke-miterlimit:8;stroke-dasharray:none;stroke-opacity:1"
       d="m 9.7304688,20.082031 c -0.2188742,2.37e-4 -0.3962476,0.177611 -0.3964844,0.396485 v 2.535156 c 2.155e-4,0.218883 0.1776015,0.396269 0.3964844,0.396484 0.2196451,8.65e-4 0.3982222,-0.176837 0.3984372,-0.396484 V 20.875 h 9.728516 v 10.210937 c 2.15e-4,0.218883 0.177601,0.396269 0.396484,0.396485 0.219646,8.65e-4 0.398224,-0.176838 0.398438,-0.396485 V 20.478516 c -2.36e-4,-0.219638 -0.178801,-0.397328 -0.398438,-0.396485 z"
       id="path13142"
       sodipodi:nodetypes="ccccccccccccc" /><g
       id="g12408"
       transform="translate(-5.6364247,-13.533999)"><rect
         style="fill:#e5e5e5;fill-opacity:1;stroke:none;stroke-width:0.79375;stroke-linecap:round;stroke-linejoin:round;stroke-miterlimit:8;stroke-dasharray:none;stroke-opacity:1;stop-color:#000000"
         id="rect318"
         width="7.6729164"
         height="10.318749"
         x="11.531225"
         y="36.546967"
         rx="3.8364582"
         ry="3.8046899" /><path
         style="fill:#97e546;fill-opacity:1;stroke:none;stroke-width:0.529167;stroke-linecap:round;stroke-linejoin:round;stroke-miterlimit:8;stroke-dasharray:none;stroke-opacity:1;stop-color:#000000"
         d="m 14.949448,36.704383 c -1.190846,0.126254 -2.299779,0.866026 -2.856136,1.929252 -0.207423,0.403013 -0.367676,1.37318 -0.391106,1.829115 -0.0184,0.313558 0.181958,0.607544 0.467083,0.729424 0.479274,0.219708 1.017064,0.247031 1.534155,0.298419 0.476108,0.03377 0.955654,0.05356 1.431859,0.04188 0.177339,-0.01254 0.259024,-0.207087 0.232952,-0.365098 -0.0025,-1.233181 0.005,-2.9966 -0.0038,-4.229111 -0.0078,-0.184621 -0.209213,-0.281956 -0.374567,-0.237633 -0.01349,0.0013 -0.02698,0.0024 -0.04046,0.0038 z"
         id="path7918"
         sodipodi:nodetypes="ccccccccccc" /><path
         style="fill:#45b0e5;fill-opacity:1;stroke:none;stroke-width:2;stroke-linecap:round;stroke-linejoin:round;stroke-miterlimit:8;stroke-dasharray:none;stroke-opacity:1;stop-color:#000000"
         d="m 58.797799,138.73026 c -0.617919,0.21842 -0.74227,0.9121 -0.679158,1.48954 0.0095,4.60898 -0.01904,11.22201 0.01427,15.82846 0.02981,0.6789 0.74628,1.03157 1.360122,0.94627 2.958604,0.11443 5.954435,0.14967 8.81891,0.92089 0.830664,0.20602 1.576933,0.63498 2.309451,1.05323 0.67083,0.34301 1.47611,-0.29899 1.396767,-1.02374 -0.03087,-2.37515 0.252309,-6.81029 -0.446511,-9.12237 -0.668901,-2.41596 -1.989598,-4.65709 -3.851845,-6.34519 -1.889442,-1.88956 -4.409438,-3.08729 -7.014388,-3.60475 -0.62757,-0.0909 -1.274425,-0.24492 -1.907618,-0.14234 z"
         id="path9441"
         transform="scale(0.26458333)"
         sodipodi:nodetypes="ccccccccccc" /><path
         style="fill:none;fill-opacity:1;stroke:#000000;stroke-width:0.529167;stroke-linecap:round;stroke-linejoin:round;stroke-miterlimit:8;stroke-dasharray:none;stroke-opacity:1;stop-color:#000000"
         d="m 11.680825,39.98587 c 0,1.035183 -0.1496,1.554819 3.695528,1.554819 3.845128,0 3.695607,0.694819 3.695607,2.083985"
         id="path3261"
         sodipodi:nodetypes="czc" /><path
         style="fill:none;fill-opacity:1;stroke:#000000;stroke-width:0.529167;stroke-linecap:round;stroke-linejoin:round;stroke-miterlimit:8;stroke-dasharray:none;stroke-opacity:1;stop-color:#000000"
         d="M 15.376353,41.540689 V 36.546977"
         id="path5596"
         sodipodi:nodetypes="cc" /><rect
         style="fill:none;fill-opacity:1;stroke:#000000;stroke-width:0.79375;stroke-linecap:round;stroke-linejoin:round;stroke-miterlimit:8;stroke-dasharray:none;stroke-opacity:1;stop-color:#000000"
         id="rect7845"
         width="7.6729164"
         height="10.318749"
         x="11.531225"
         y="36.546967"
         rx="3.8364582"
         ry="3.8046899" /><rect
         style="fill:#edd8b7;fill-opacity:1;stroke:#000000;stroke-width:0.264583;stroke-linecap:round;stroke-linejoin:round;stroke-miterlimit:8;stroke-dasharray:none;stroke-opacity:1;stop-color:#000000"
         id="rect10947"
         width="1.0583336"
         height="2.1166666"
         x="14.838516"
         y="37.807606"
         rx="0.38859907"
         ry="0.38859907" /></g><path
       style="fill:#ffdb26;fill-opacity:1;stroke:#000000;stroke-width:0.79375;stroke-linecap:round;stroke-linejoin:round;stroke-dasharray:none;stroke-opacity:1;paint-order:normal;stop-color:#000000"
       d="m 10.004075,19.121173 c -1.4238886,3.039424 2.342169,4.371724 4.594902,1.690642 3.202672,3.608669 6.496348,1.194297 5.575255,-1.100462"
       id="path7824" /><rect
       style="fill:#e5e5e5;fill-opacity:1;stroke:#000000;stroke-width:0.264583;stroke-linecap:round;stroke-linejoin:round;stroke-miterlimit:8;stroke-dasharray:none;stroke-opacity:1;stop-color:#000000"
       id="rect13228"
       width="1.4951607"
       height="1.7266901"
       x="19.50676"
       y="31.659246"
       rx="0"
       ry="0" /><path
       style="fill:#292929;fill-opacity:1;stroke:#000000;stroke-width:0.264583;stroke-linecap:round;stroke-linejoin:round;stroke-miterlimit:8;stroke-dasharray:none;stroke-opacity:1;stop-color:#000000"
       d="m 20.651258,30.556728 0.482912,0.482912 v 0.937488 H 20.25434 19.37451 V 31.03964 l 0.482912,-0.482912"
       id="path13174"
       sodipodi:nodetypes="ccccccc" /></g><metadata
     id="metadata4277"><rdf:RDF><cc:Work
         rdf:about=""><dc:title>Gutkato manĝas muson</dc:title><dc:creator><cc:Agent><dc:title>Tirifto</dc:title></cc:Agent></dc:creator><dc:subject><rdf:Bag><rdf:li>gutkato</rdf:li><rdf:li>gutkatoj</rdf:li><rdf:li>federujo</rdf:li></rdf:Bag></dc:subject><cc:license
           rdf:resource="http://artlibre.org/licence/lal" /><dc:description>Gutkato, destinita al uzo kiel glumarko aŭ propra bildosigno, ekzemple en Federujo aŭ aliaj retaj komunikiloj.</dc:description><dc:date>2024</dc:date></cc:Work><cc:License
         rdf:about="http://artlibre.org/licence/lal"><cc:permits
           rdf:resource="http://creativecommons.org/ns#Reproduction" /><cc:permits
           rdf:resource="http://creativecommons.org/ns#Distribution" /><cc:permits
           rdf:resource="http://creativecommons.org/ns#DerivativeWorks" /><cc:requires
           rdf:resource="http://creativecommons.org/ns#ShareAlike" /><cc:requires
           rdf:resource="http://creativecommons.org/ns#Notice" /><cc:requires
           rdf:resource="http://creativecommons.org/ns#Attribution" /></cc:License></rdf:RDF></metadata></svg>
