<?xml version="1.0" encoding="UTF-8" standalone="no"?>
<!-- Created with Inkscape (http://www.inkscape.org/) -->

<svg
   width="128"
   height="128"
   viewBox="0 0 33.866666 33.866666"
   version="1.1"
   id="svg5"
   xml:space="preserve"
   sodipodi:docname="gutkato_manĝas_picon.svg"
   inkscape:version="1.2.2 (b0a8486541, 2022-12-01)"
   inkscape:export-filename="gutkato_manĝas_kuketon.png"
   inkscape:export-xdpi="96"
   inkscape:export-ydpi="96"
   xmlns:inkscape="http://www.inkscape.org/namespaces/inkscape"
   xmlns:sodipodi="http://sodipodi.sourceforge.net/DTD/sodipodi-0.dtd"
   xmlns:xlink="http://www.w3.org/1999/xlink"
   xmlns="http://www.w3.org/2000/svg"
   xmlns:svg="http://www.w3.org/2000/svg"
   xmlns:rdf="http://www.w3.org/1999/02/22-rdf-syntax-ns#"
   xmlns:cc="http://creativecommons.org/ns#"
   xmlns:dc="http://purl.org/dc/elements/1.1/"><sodipodi:namedview
     id="namedview15"
     pagecolor="#505050"
     bordercolor="#eeeeee"
     borderopacity="1"
     inkscape:showpageshadow="0"
     inkscape:pageopacity="0"
     inkscape:pagecheckerboard="0"
     inkscape:deskcolor="#505050"
     showgrid="false"
     showguides="false"
     inkscape:zoom="1.8437501"
     inkscape:cx="55.864404"
     inkscape:cy="88.135588"
     inkscape:window-width="1232"
     inkscape:window-height="750"
     inkscape:window-x="48"
     inkscape:window-y="26"
     inkscape:window-maximized="1"
     inkscape:current-layer="layer1" /><title
     id="title4279">Gutkato manĝas picon</title><defs
     id="defs2" /><g
     id="layer1"><path
       style="fill:#ffdb26;fill-opacity:1;stroke:#000000;stroke-width:1.05833;stroke-linecap:round;stroke-linejoin:round;stroke-dasharray:none;paint-order:normal;stop-color:#000000"
       d="M 6.3460128,10.987509 C 6.0131876,8.1033126 6.9112569,5.0355095 7.1713329,3.7040818 c 1.6823697,0.883682 3.1509471,1.8173157 5.1540591,3.4426941 3.460025,-0.9271224 7.675181,-0.4344139 10.458981,0.611344 2.188665,-1.101117 4.320882,-1.7567683 7.249119,-1.9517024 0.321474,1.7913943 -0.0283,5.5961075 -1.06115,7.5149165 1.483302,5.222627 1.500916,12.296756 -0.04318,13.840869 C 24.518229,31.573194 5.6799495,31.273305 4.0639285,25.242152 3.064468,21.512066 4.2865251,13.752064 6.3460128,10.987509 Z"
       id="path236" /><ellipse
       style="fill:#000000;fill-opacity:1;stroke:none;stroke-width:2.11668;stroke-linecap:round;stroke-linejoin:round;stroke-dasharray:none;paint-order:stroke markers fill;stop-color:#000000"
       id="path6982"
       cx="12.96371"
       cy="12.570978"
       rx="1.6752723"
       ry="2.1418331"
       transform="rotate(8)" /><use
       x="0"
       y="0"
       xlink:href="#path6982"
       id="use7712"
       transform="translate(8.953004,0.69247082)"
       style="stroke-width:1.07136" /><g
       id="g2803"
       transform="matrix(-0.75365219,-0.20303668,0.20115416,-0.75481235,38.255301,75.735721)"
       style="stroke-width:1.28068"><path
         id="path386"
         style="fill:#e2a95f;fill-opacity:1;stroke:none;stroke-width:1.01654;stroke-linecap:round;stroke-linejoin:round;paint-order:markers fill stroke;stop-color:#000000"
         inkscape:transform-center-y="2.1180117"
         d="m 46.082806,39.404372 -7.344732,-15.88307 c 3.335443,-1.925719 11.393927,-1.90268 14.689465,-10e-7 z"
         sodipodi:nodetypes="cccc" /><path
         id="path1053"
         style="fill:#ab3219;fill-opacity:1;stroke:none;stroke-width:1.01654;stroke-linecap:round;stroke-linejoin:round;paint-order:markers fill stroke;stop-color:#000000"
         inkscape:transform-center-y="1.9074605"
         d="M 46.082806,38.862162 39.468213,24.558024 c 3.003867,-1.734283 10.261259,-1.713534 13.229187,-1e-6 z"
         sodipodi:nodetypes="cccc" /><path
         id="path2759"
         style="fill:#d98299;fill-opacity:1;stroke:#000000;stroke-width:0.338845;stroke-linecap:round;stroke-linejoin:round;stroke-dasharray:none;stroke-opacity:1;paint-order:markers fill stroke;stop-color:#000000"
         d="m 48.481278,33.915759 a 2.3812499,2.3812499 0 0 0 -1.684135,0.697115 2.3812499,2.3812499 0 0 0 -0.01189,3.354834 L 48.65594,33.92196 a 2.3812499,2.3812499 0 0 0 -0.174666,-0.0062 z" /><path
         id="use2764"
         style="fill:#e0e15f;fill-opacity:1;stroke:#000000;stroke-width:0.338845;stroke-linecap:round;stroke-linejoin:round;stroke-dasharray:none;stroke-opacity:1;paint-order:markers fill stroke;stop-color:#000000"
         d="m 28.906788,50.47674 c -0.0017,-7.17e-4 -0.0035,-7.93e-4 -0.0055,-7.93e-4 l -2.088291,-3.25e-4 c -0.0079,0 -0.01429,0.0066 -0.01429,0.01442 l 2.77e-4,1.8237 c 0,0.0079 0.0061,0.01403 0.01397,0.01403 l 0.139156,-2.14e-4 1.963695,-1.383771 -9.6e-5,-0.453553 c 0,-0.0059 -0.0038,-0.01135 -0.0089,-0.0135 z"
         transform="rotate(-30)" /><path
         id="path2775"
         style="fill:#d98299;fill-opacity:1;stroke:#000000;stroke-width:0.338845;stroke-linecap:round;stroke-linejoin:round;stroke-dasharray:none;stroke-opacity:1;paint-order:markers fill stroke;stop-color:#000000"
         d="m 40.278161,26.595275 1.173572,2.538347 a 2.3812499,2.3812499 0 0 0 1.593184,-1.385962 z" /><path
         id="use2784"
         style="fill:#e0e15f;fill-opacity:1;stroke:#000000;stroke-width:0.338845;stroke-linecap:round;stroke-linejoin:round;stroke-dasharray:none;stroke-opacity:1;paint-order:markers fill stroke;stop-color:#000000"
         d="m 7.2404867,-55.208978 c 0.00255,0.0038 0.00703,0.0062 0.01195,0.0062 l 0.5818119,3.7e-5 1.3057503,-1.851818 -1.8876049,-3.76e-4 c -0.00787,0 -0.014422,0.0064 -0.014422,0.01429 l 1.711e-4,1.823441 c 0,0.003 8.15e-4,0.0059 0.00234,0.0082 z"
         transform="rotate(120)" /><path
         id="path1051"
         style="fill:none;fill-opacity:1;stroke:#000000;stroke-width:1.01654;stroke-linecap:round;stroke-linejoin:round;paint-order:markers fill stroke;stop-color:#000000"
         inkscape:transform-center-y="2.1180117"
         d="m 46.082806,39.404372 -7.344732,-15.88307 c 3.335443,-1.925719 11.393927,-1.90268 14.689465,-10e-7 z"
         sodipodi:nodetypes="cccc" /><rect
         style="fill:#e0e15f;fill-opacity:1;stroke:#000000;stroke-width:0.338845;stroke-linecap:round;stroke-linejoin:round;stroke-dasharray:none;stroke-opacity:1;paint-order:markers fill stroke;stop-color:#000000"
         id="rect1159"
         width="2.1166663"
         height="1.852083"
         x="44.829407"
         y="31.45274"
         ry="0.01420875" /><use
         x="0"
         y="0"
         xlink:href="#rect1159"
         id="use1918"
         transform="rotate(45,53.037167,25.161169)"
         style="stroke-width:1.28068" /><use
         x="0"
         y="0"
         xlink:href="#rect1159"
         id="use1922"
         transform="rotate(-30,38.045243,26.4824)"
         style="stroke-width:1.28068" /><path
         id="path2702"
         style="fill:#d98299;fill-opacity:1;stroke:#000000;stroke-width:0.338845;stroke-linecap:round;stroke-linejoin:round;stroke-dasharray:none;stroke-opacity:1;paint-order:markers fill stroke;stop-color:#000000"
         d="m 44.544903,26.457254 -1.232625,4.600221 a 2.3812499,2.3812499 0 0 0 2.916423,-1.683798 2.3812499,2.3812499 0 0 0 -1.683798,-2.916423 z" /><path
         id="path2771"
         style="fill:#d98299;fill-opacity:1;stroke:#000000;stroke-width:0.338845;stroke-linecap:round;stroke-linejoin:round;stroke-dasharray:none;stroke-opacity:1;paint-order:markers fill stroke;stop-color:#000000"
         d="m 46.727465,25.110325 4.396411,1.83111 a 2.3812499,2.3812499 0 0 0 -1.28265,-3.113761 2.3812499,2.3812499 0 0 0 -3.113761,1.282651 z" /></g><path
       id="path3535"
       style="fill:#e2a95f;fill-opacity:1;stroke:none;stroke-width:0.865821;stroke-linecap:round;stroke-linejoin:round;paint-order:markers fill stroke;stop-color:#000000"
       inkscape:transform-center-y="2.1180117"
       d="m 14.599109,20.282483 c -0.618844,0.736514 -1.352055,1.169649 -2.06034,1.348238 l -6.5835771,7.908044 c 2.2929413,2.295195 8.9162341,4.097853 12.0824661,3.251481 L 16.084289,21.552689 c -0.486525,-0.292998 -0.98684,-0.708692 -1.48518,-1.270206 z"
       sodipodi:nodetypes="cccccc" /><path
       id="path3537"
       style="fill:#ab3219;fill-opacity:1;stroke:none;stroke-width:0.865821;stroke-linecap:round;stroke-linejoin:round;paint-order:markers fill stroke;stop-color:#000000"
       inkscape:transform-center-y="1.9074605"
       d="m 14.729325,20.087633 c -0.52018,0.61909 -1.12128,1.023834 -1.720309,1.243334 l -6.0952351,7.321 c 2.0649997,2.067029 8.0295111,3.690737 10.8809901,2.928504 L 15.99333,21.215729 c -0.416309,-0.280652 -0.840948,-0.651408 -1.264005,-1.128096 z"
       sodipodi:nodetypes="cccccc" /><path
       id="path3541"
       style="fill:#e0e15f;fill-opacity:1;stroke:#000000;stroke-width:0.288606;stroke-linecap:round;stroke-linejoin:round;stroke-dasharray:none;stroke-opacity:1;paint-order:markers fill stroke;stop-color:#000000"
       d="m 10.08128,25.212489 c 0.0016,2.17e-4 0.003,-1.16e-4 0.0047,-5.55e-4 l 1.716839,-0.458645 c 0.0065,-0.0017 0.01029,-0.0086 0.0086,-0.01501 L 11.407903,23.23683 c -0.0017,-0.0065 -0.0081,-0.01021 -0.01459,-0.0085 l -0.114352,0.03076 -1.3083341,1.570834 0.1003761,0.373404 c 0.0013,0.0049 0.0056,0.0085 0.0103,0.0092 z" /><path
       id="path3543"
       style="fill:#d98299;fill-opacity:1;stroke:#000000;stroke-width:0.288606;stroke-linecap:round;stroke-linejoin:round;stroke-dasharray:none;stroke-opacity:1;paint-order:markers fill stroke;stop-color:#000000"
       d="m 17.445848,29.919604 -0.40803,-2.348588 a 2.0304025,2.0259814 58.443533 0 0 -1.614695,0.787858 z" /><path
       id="path3545"
       style="fill:#e0e15f;fill-opacity:1;stroke:#000000;stroke-width:0.288606;stroke-linecap:round;stroke-linejoin:round;stroke-dasharray:none;stroke-opacity:1;paint-order:markers fill stroke;stop-color:#000000"
       d="m 15.824667,23.062779 c 0.0038,7.57e-4 0.008,-4.93e-4 0.01092,-0.0035 l 0.349914,-0.350217 -0.330567,-1.902956 -1.135402,1.136072 c -0.0047,0.0047 -0.0048,0.01254 -6.3e-5,0.0173 l 1.098829,1.099703 c 0.0018,0.0018 0.004,0.0031 0.0063,0.0035 z" /><path
       id="path3547"
       style="fill:none;fill-opacity:1;stroke:#000000;stroke-width:0.865821;stroke-linecap:round;stroke-linejoin:round;paint-order:markers fill stroke;stop-color:#000000"
       inkscape:transform-center-y="2.1180117"
       d="m 14.599109,20.282483 c -0.0352,0.04189 -0.07106,0.08305 -0.106971,0.122989 -0.0034,0.0038 -0.0069,0.0076 -0.01034,0.01137 -0.007,0.0077 -0.01415,0.01506 -0.02119,0.02274 -0.03047,0.03323 -0.06105,0.06581 -0.09198,0.09767 -0.0023,0.0023 -0.0044,0.0049 -0.0067,0.0072 -0.0079,0.0081 -0.01587,0.01579 -0.02377,0.02377 -0.02879,0.02909 -0.05766,0.05786 -0.08682,0.08578 -0.01365,0.01307 -0.02762,0.02543 -0.04134,0.03824 -0.02452,0.0229 -0.04914,0.0456 -0.0739,0.0677 -0.01601,0.01428 -0.03196,0.02843 -0.04806,0.04237 -0.0249,0.02157 -0.04983,0.04279 -0.07493,0.06356 -0.018,0.01489 -0.03615,0.02945 -0.05426,0.04393 -0.0196,0.01568 -0.03921,0.0313 -0.05891,0.04651 -0.01992,0.01536 -0.03991,0.0306 -0.05994,0.04547 -0.03381,0.02513 -0.06771,0.04962 -0.101803,0.07338 -0.0017,0.0012 -0.0035,0.0024 -0.0052,0.0036 -5.09e-4,3.53e-4 -0.001,6.81e-4 -0.0016,0.001 -0.04284,0.02973 -0.08597,0.0582 -0.129191,0.08578 -0.03706,0.02365 -0.07433,0.04613 -0.111621,0.06821 -0.0066,0.0039 -0.01301,0.0085 -0.01964,0.0124 -0.0044,0.0026 -0.009,0.0052 -0.01344,0.0078 -0.08346,0.04832 -0.167444,0.09268 -0.251664,0.133326 -0.04447,0.02146 -0.08875,0.04162 -0.133325,0.06098 -0.0445,0.01932 -0.0893,0.03753 -0.133842,0.05478 -0.04451,0.01723 -0.08884,0.03339 -0.133325,0.04858 -0.04464,0.01524 -0.08929,0.02917 -0.133842,0.04237 -0.04329,0.01282 -0.08657,0.02473 -0.129708,0.03566 -0.001,2.66e-4 -0.0021,7.69e-4 -0.0031,0.001 l -6.5835771,7.908044 c 2.292939,2.295193 8.9162381,4.097852 12.0824661,3.251481 L 16.084289,21.552689 c -0.0086,-0.0052 -0.01721,-0.01127 -0.02584,-0.01654 -0.04761,-0.02907 -0.09529,-0.05899 -0.143144,-0.09043 -0.0148,-0.0097 -0.02962,-0.02002 -0.04444,-0.02997 -0.03868,-0.02598 -0.07745,-0.05254 -0.116272,-0.0801 -0.02478,-0.01759 -0.04958,-0.0355 -0.07441,-0.05374 -0.0321,-0.02358 -0.06446,-0.04766 -0.09663,-0.07235 -0.02327,-0.01785 -0.04646,-0.03531 -0.06976,-0.05374 -0.05476,-0.04331 -0.109403,-0.08831 -0.164331,-0.134875 -2.8e-4,-2.38e-4 -7.53e-4,-2.79e-4 -0.001,-5.17e-4 -0.0055,-0.0047 -0.01103,-0.0098 -0.01654,-0.01447 -0.05211,-0.0445 -0.104364,-0.09049 -0.156579,-0.137977 -0.01608,-0.01463 -0.03197,-0.03004 -0.04806,-0.04496 -0.04361,-0.04041 -0.08709,-0.082 -0.130742,-0.12454 -0.0146,-0.01423 -0.02932,-0.02842 -0.04392,-0.04289 -0.05281,-0.05232 -0.105816,-0.106243 -0.158646,-0.161747 -0.0035,-0.0037 -0.0073,-0.0071 -0.01085,-0.01085 -0.06147,-0.06483 -0.122534,-0.131282 -0.183968,-0.200504 z"
       sodipodi:nodetypes="cssssssscccccccsscssscssssssccccsssssssscsscscscc" /><rect
       style="fill:#e0e15f;fill-opacity:1;stroke:#000000;stroke-width:0.288606;stroke-linecap:round;stroke-linejoin:round;stroke-dasharray:none;stroke-opacity:1;paint-order:markers fill stroke;stop-color:#000000"
       id="rect3549"
       width="1.8029448"
       height="1.57739"
       x="-20.691952"
       y="-20.221081"
       ry="0.012101369"
       transform="matrix(-0.96564389,-0.25986895,0.25776649,-0.96620724,0,0)" /><rect
       style="fill:#e0e15f;fill-opacity:1;stroke:#000000;stroke-width:0.288606;stroke-linecap:round;stroke-linejoin:round;stroke-dasharray:none;stroke-opacity:1;paint-order:markers fill stroke;stop-color:#000000"
       id="use3551"
       width="1.8047991"
       height="1.5757656"
       x="-34.568871"
       y="-2.9298887"
       ry="0.012088907"
       transform="matrix(-0.50005219,-0.86599527,0.86605445,-0.49994969,0,0)" /><rect
       style="fill:#e0e15f;fill-opacity:1;stroke:#000000;stroke-width:0.288606;stroke-linecap:round;stroke-linejoin:round;stroke-dasharray:none;stroke-opacity:1;paint-order:markers fill stroke;stop-color:#000000"
       id="use3553"
       width="1.8011916"
       height="1.5789227"
       x="-4.9482851"
       y="-29.624441"
       ry="0.012113128"
       transform="matrix(-0.96607961,0.25824445,-0.2593947,-0.9657714,0,0)" /><path
       id="path3555"
       style="fill:#d98299;fill-opacity:1;stroke:#000000;stroke-width:0.288606;stroke-linecap:round;stroke-linejoin:round;stroke-dasharray:none;stroke-opacity:1;paint-order:markers fill stroke;stop-color:#000000"
       d="m 13.906062,29.088728 2.023773,-3.512694 a 2.0304025,2.0259814 58.443533 0 0 -2.768473,0.740046 2.0304025,2.0259814 58.443533 0 0 0.7447,2.772648 z" /><path
       id="path3557"
       style="fill:#d98299;fill-opacity:1;stroke:#000000;stroke-width:0.288606;stroke-linecap:round;stroke-linejoin:round;stroke-dasharray:none;stroke-opacity:1;paint-order:markers fill stroke;stop-color:#000000"
       d="M 12.155831,29.460302 8.9416837,26.980319 a 2.0304025,2.0259814 58.443533 0 0 0.371425,2.846242 2.0304025,2.0259814 58.443533 0 0 2.8427223,-0.366259 z" /><path
       style="fill:#ffdb26;fill-opacity:1;stroke:#000000;stroke-width:0.79375;stroke-linecap:round;stroke-linejoin:round;stroke-dasharray:none;stroke-opacity:1;paint-order:normal;stop-color:#000000"
       d="m 10.004075,19.121173 c -1.4238886,3.039424 2.342169,4.371724 4.594902,1.690642 3.202672,3.608669 6.496348,1.194297 5.575255,-1.100462"
       id="path7824" /><path
       style="fill:none;fill-opacity:1;stroke:#000000;stroke-width:0.79375;stroke-linecap:round;stroke-linejoin:round;stroke-dasharray:none;stroke-opacity:1;paint-order:normal;stop-color:#000000"
       d="m 22.889183,18.104059 4.87622,-0.734341"
       id="path7889" /><path
       style="fill:none;fill-opacity:1;stroke:#000000;stroke-width:0.79375;stroke-linecap:round;stroke-linejoin:round;stroke-dasharray:none;stroke-opacity:1;paint-order:normal;stop-color:#000000"
       d="m 22.899838,20.260593 4.684517,0.851137"
       id="path7891" /><path
       style="fill:none;fill-opacity:1;stroke:#000000;stroke-width:0.79375;stroke-linecap:round;stroke-linejoin:round;stroke-dasharray:none;stroke-opacity:1;paint-order:normal;stop-color:#000000"
       d="M 8.2565339,17.019465 5.9675926,15.975012"
       id="path7893" /><path
       style="fill:none;fill-opacity:1;stroke:#000000;stroke-width:0.79375;stroke-linecap:round;stroke-linejoin:round;stroke-dasharray:none;stroke-opacity:1;paint-order:normal;stop-color:#000000"
       d="M 7.7354506,18.902572 5.5452359,18.75928"
       id="path7895" /></g><metadata
     id="metadata4277"><rdf:RDF><cc:Work
         rdf:about=""><dc:title>Gutkato manĝas picon</dc:title><dc:creator><cc:Agent><dc:title>Tirifto</dc:title></cc:Agent></dc:creator><dc:subject><rdf:Bag><rdf:li>gutkato</rdf:li><rdf:li>gutkatoj</rdf:li><rdf:li>federujo</rdf:li></rdf:Bag></dc:subject><cc:license
           rdf:resource="http://artlibre.org/licence/lal" /><dc:description>Gutkato, destinita al uzo kiel glumarko aŭ propra bildosigno, ekzemple en Federujo aŭ aliaj retaj komunikiloj.</dc:description><dc:date>2024</dc:date></cc:Work><cc:License
         rdf:about="http://artlibre.org/licence/lal"><cc:permits
           rdf:resource="http://creativecommons.org/ns#Reproduction" /><cc:permits
           rdf:resource="http://creativecommons.org/ns#Distribution" /><cc:permits
           rdf:resource="http://creativecommons.org/ns#DerivativeWorks" /><cc:requires
           rdf:resource="http://creativecommons.org/ns#ShareAlike" /><cc:requires
           rdf:resource="http://creativecommons.org/ns#Notice" /><cc:requires
           rdf:resource="http://creativecommons.org/ns#Attribution" /></cc:License></rdf:RDF></metadata></svg>
