<?xml version="1.0" encoding="UTF-8" standalone="no"?>
<!-- Created with Inkscape (http://www.inkscape.org/) -->

<svg
   width="128"
   height="128"
   viewBox="0 0 33.866666 33.866666"
   version="1.1"
   id="svg5"
   xml:space="preserve"
   sodipodi:docname="gutkato_tablotamburas.svg"
   inkscape:version="1.2.2 (b0a8486541, 2022-12-01)"
   xmlns:inkscape="http://www.inkscape.org/namespaces/inkscape"
   xmlns:sodipodi="http://sodipodi.sourceforge.net/DTD/sodipodi-0.dtd"
   xmlns:xlink="http://www.w3.org/1999/xlink"
   xmlns="http://www.w3.org/2000/svg"
   xmlns:svg="http://www.w3.org/2000/svg"
   xmlns:rdf="http://www.w3.org/1999/02/22-rdf-syntax-ns#"
   xmlns:cc="http://creativecommons.org/ns#"
   xmlns:dc="http://purl.org/dc/elements/1.1/"><sodipodi:namedview
     id="namedview15"
     pagecolor="#505050"
     bordercolor="#eeeeee"
     borderopacity="1"
     inkscape:showpageshadow="0"
     inkscape:pageopacity="0"
     inkscape:pagecheckerboard="0"
     inkscape:deskcolor="#505050"
     showgrid="false"
     showguides="true"
     inkscape:zoom="1.3037282"
     inkscape:cx="85.90748"
     inkscape:cy="123.87552"
     inkscape:window-width="1232"
     inkscape:window-height="750"
     inkscape:window-x="48"
     inkscape:window-y="26"
     inkscape:window-maximized="1"
     inkscape:current-layer="g1853" /><title
     id="title4279">Gutkato tablotamburas</title><defs
     id="defs2" /><g
     id="g1853"
     transform="translate(15.817686,1.189911)"><use
       x="0"
       y="0"
       xlink:href="#use1686"
       id="use1843"
       transform="matrix(0,-1,-1,0,33.443429,35.921484)" /><g
       aria-label="!"
       id="g1847"
       style="font-size:5.64444px;line-height:0.01%;font-family:'Komika Axis';-inkscape-font-specification:'Komika Axis';text-align:center;letter-spacing:0px;word-spacing:0px;text-anchor:middle;opacity:1;fill:#ff5c26;stroke-width:0;stroke-linecap:round;stroke-linejoin:round;stop-color:#000000"
       transform="matrix(0.59865196,1.0368956,-0.80570741,0.46517539,27.917473,2.0497362)"><path
         d="m 12.554223,25.829825 q -0.146755,-0.1016 -0.349955,-0.186267 -0.197556,-0.08467 -0.366889,-0.129822 -0.180622,-0.06209 -0.270933,-0.02258 -0.08467,0.03951 -0.129822,0.214489 -0.09596,0.361244 -0.2032,0.818444 -0.107244,0.4572 -0.208844,0.925688 -0.1016,0.468489 -0.186267,0.914399 -0.07902,0.440267 -0.124177,0.767644 -0.02822,0.163689 0.01129,0.248356 0.04516,0.07902 0.174978,0.146755 0.124178,0.06209 0.254,0.107245 0.135466,0.03951 0.293511,0.06773 0.129822,0.03387 0.186266,0.0056 0.06209,-0.02822 0.09031,-0.146755 0.08467,-0.338667 0.191911,-0.728133 0.112889,-0.395111 0.242711,-0.818444 0.135467,-0.423333 0.276578,-0.857955 0.146755,-0.434622 0.293511,-0.857955 0.0508,-0.152399 0.01129,-0.253999 -0.03387,-0.107245 -0.186267,-0.214489 z m -2.116665,4.515552 q -0.01129,0.270933 0.174978,0.417689 0.186266,0.146755 0.451555,0.141111 0.124177,0 0.220133,-0.04516 0.1016,-0.03951 0.169333,-0.1016 0.07338,-0.05644 0.118533,-0.124178 0.0508,-0.07338 0.06773,-0.124177 0.02258,-0.06773 0.01693,-0.158045 0,-0.09031 -0.04516,-0.180622 -0.04516,-0.09031 -0.141111,-0.163688 -0.09596,-0.07902 -0.248355,-0.118534 -0.180622,-0.0508 -0.327377,-0.02822 -0.141111,0.01693 -0.242711,0.09031 -0.1016,0.06773 -0.1524,0.174978 -0.05645,0.1016 -0.06209,0.220133 z"
         id="path1845"
         style="stroke-width:0" /></g><use
       x="0"
       y="0"
       xlink:href="#text1262"
       id="use1849"
       transform="matrix(0.76714436,0.13526824,-0.13526824,0.76714436,5.1054562,6.6126517)"
       style="stroke-width:1.28373" /><use
       x="0"
       y="0"
       xlink:href="#text1262"
       id="use1851"
       transform="matrix(-1,0,0,1,14.005659,1.5371286)" /></g><g
     id="g1699"><use
       x="0"
       y="0"
       xlink:href="#use1686"
       id="use1692"
       transform="matrix(-0.08715574,-0.9961947,-0.9961947,0.08715574,34.753691,33.071372)" /><g
       aria-label="!"
       id="text1262"
       style="font-size:5.64444px;line-height:0.01%;font-family:'Komika Axis';-inkscape-font-specification:'Komika Axis';text-align:center;letter-spacing:0px;word-spacing:0px;text-anchor:middle;opacity:1;fill:#ff5c26;stroke-width:0;stroke-linecap:round;stroke-linejoin:round;stop-color:#000000"
       transform="matrix(-0.10435191,1.1927478,-0.92681051,-0.08108541,39.586244,17.856467)"><path
         d="m 12.554223,25.829825 q -0.146755,-0.1016 -0.349955,-0.186267 -0.197556,-0.08467 -0.366889,-0.129822 -0.180622,-0.06209 -0.270933,-0.02258 -0.08467,0.03951 -0.129822,0.214489 -0.09596,0.361244 -0.2032,0.818444 -0.107244,0.4572 -0.208844,0.925688 -0.1016,0.468489 -0.186267,0.914399 -0.07902,0.440267 -0.124177,0.767644 -0.02822,0.163689 0.01129,0.248356 0.04516,0.07902 0.174978,0.146755 0.124178,0.06209 0.254,0.107245 0.135466,0.03951 0.293511,0.06773 0.129822,0.03387 0.186266,0.0056 0.06209,-0.02822 0.09031,-0.146755 0.08467,-0.338667 0.191911,-0.728133 0.112889,-0.395111 0.242711,-0.818444 0.135467,-0.423333 0.276578,-0.857955 0.146755,-0.434622 0.293511,-0.857955 0.0508,-0.152399 0.01129,-0.253999 -0.03387,-0.107245 -0.186267,-0.214489 z m -2.116665,4.515552 q -0.01129,0.270933 0.174978,0.417689 0.186266,0.146755 0.451555,0.141111 0.124177,0 0.220133,-0.04516 0.1016,-0.03951 0.169333,-0.1016 0.07338,-0.05644 0.118533,-0.124178 0.0508,-0.07338 0.06773,-0.124177 0.02258,-0.06773 0.01693,-0.158045 0,-0.09031 -0.04516,-0.180622 -0.04516,-0.09031 -0.141111,-0.163688 -0.09596,-0.07902 -0.248355,-0.118534 -0.180622,-0.0508 -0.327377,-0.02822 -0.141111,0.01693 -0.242711,0.09031 -0.1016,0.06773 -0.1524,0.174978 -0.05645,0.1016 -0.06209,0.220133 z"
         id="path1468"
         style="stroke-width:0" /></g><use
       x="0"
       y="0"
       xlink:href="#text1262"
       id="use1686"
       transform="matrix(0.59673238,0.50071791,-0.50071791,0.59673238,16.950588,8.0849017)"
       style="stroke-width:1.28373" /><use
       x="0"
       y="0"
       xlink:href="#text1262"
       id="use1688"
       transform="matrix(-0.93969262,0.34202014,0.34202014,0.93969262,3.9321563,-0.3211137)" /></g><path
     id="path236"
     style="fill:#ffdb26;fill-opacity:1;stroke:#000000;stroke-width:1.05833;stroke-linecap:round;stroke-linejoin:round;stroke-dasharray:none;paint-order:normal;stop-color:#000000"
     d="M 29.680358,25.58035 C 30.403497,22.798107 30.152239,17.475333 28.972391,13.32115 30.00524,11.402343 30.354782,7.5977563 30.033308,5.8063638 27.105074,6.0012977 24.972801,6.6570667 22.784139,7.7581826 20.000341,6.7124258 15.785367,6.219729 12.325346,7.1468504 10.322236,5.5214737 8.8535064,4.5878477 7.1711384,3.7041666 6.9110626,5.035593 6.0130409,8.1032493 6.3458658,10.987443 4.5286094,13.426838 3.3646602,19.754009 3.8023518,23.771675"
     sodipodi:nodetypes="cccccccc" /><ellipse
     style="fill:#000000;fill-opacity:1;stroke:none;stroke-width:2.11668;stroke-linecap:round;stroke-linejoin:round;stroke-dasharray:none;paint-order:stroke markers fill;stop-color:#000000"
     id="path6982"
     cx="12.96371"
     cy="12.570978"
     rx="1.6752723"
     ry="2.1418331"
     transform="rotate(8)" /><use
     x="0"
     y="0"
     xlink:href="#path6982"
     id="use7712"
     transform="translate(8.953004,0.69247082)"
     style="stroke-width:1.07136" /><path
     style="fill:none;fill-opacity:1;stroke:#000000;stroke-width:0.79375;stroke-linecap:round;stroke-linejoin:round;stroke-dasharray:none;stroke-opacity:1;paint-order:stroke markers fill;stop-color:#000000"
     d="m 10.004075,19.121173 c -1.4238886,3.039424 2.342169,4.371724 4.594902,1.690642 3.202672,3.608669 6.496348,1.194297 5.575255,-1.100462"
     id="path7824" /><path
     style="fill:none;fill-opacity:1;stroke:#000000;stroke-width:0.79375;stroke-linecap:round;stroke-linejoin:round;stroke-dasharray:none;stroke-opacity:1;paint-order:normal;stop-color:#000000"
     d="m 22.889183,18.104059 4.87622,-0.734341"
     id="path7889" /><path
     style="fill:none;fill-opacity:1;stroke:#000000;stroke-width:0.79375;stroke-linecap:round;stroke-linejoin:round;stroke-dasharray:none;stroke-opacity:1;paint-order:normal;stop-color:#000000"
     d="m 22.899838,20.260593 4.684517,0.851137"
     id="path7891" /><path
     style="fill:none;fill-opacity:1;stroke:#000000;stroke-width:0.79375;stroke-linecap:round;stroke-linejoin:round;stroke-dasharray:none;stroke-opacity:1;paint-order:normal;stop-color:#000000"
     d="M 8.2565339,17.019465 5.9675926,15.975012"
     id="path7893" /><path
     style="fill:none;fill-opacity:1;stroke:#000000;stroke-width:0.79375;stroke-linecap:round;stroke-linejoin:round;stroke-dasharray:none;stroke-opacity:1;paint-order:normal;stop-color:#000000"
     d="M 7.7354506,18.902572 5.5452359,18.75928"
     id="path7895" /><metadata
     id="metadata4277"><rdf:RDF><cc:Work
         rdf:about=""><dc:title>Gutkato tablotamburas</dc:title><dc:creator><cc:Agent><dc:title>Tirifto</dc:title></cc:Agent></dc:creator><dc:subject><rdf:Bag><rdf:li>gutkato</rdf:li><rdf:li>gutkatoj</rdf:li><rdf:li>federujo</rdf:li></rdf:Bag></dc:subject><cc:license
           rdf:resource="http://artlibre.org/licence/lal" /><dc:description>Gutkato, destinita al uzo kiel glumarko aŭ propra bildosigno, ekzemple en Federujo aŭ aliaj retaj komunikiloj.</dc:description><dc:date>2024</dc:date></cc:Work><cc:License
         rdf:about="http://artlibre.org/licence/lal"><cc:permits
           rdf:resource="http://creativecommons.org/ns#Reproduction" /><cc:permits
           rdf:resource="http://creativecommons.org/ns#Distribution" /><cc:permits
           rdf:resource="http://creativecommons.org/ns#DerivativeWorks" /><cc:requires
           rdf:resource="http://creativecommons.org/ns#ShareAlike" /><cc:requires
           rdf:resource="http://creativecommons.org/ns#Notice" /><cc:requires
           rdf:resource="http://creativecommons.org/ns#Attribution" /></cc:License></rdf:RDF></metadata><path
     style="opacity:1;fill:none;stroke:#000000;stroke-width:0.79375;stroke-linecap:round;stroke-linejoin:round;stroke-opacity:1;stop-color:#000000"
     d="M 0.89208373,23.899547 32.974582,26.142973"
     id="path540" /><g
     id="g1303"
     transform="rotate(-163,9.7553071,26.970244)"><path
       style="fill:#ffdb26;fill-opacity:1;stroke:#000000;stroke-width:0.79375;stroke-linecap:round;stroke-linejoin:round;stroke-dasharray:none;stroke-opacity:1;paint-order:markers fill stroke;stop-color:#000000"
       d="m 9.8210863,30.007784 c 0,-5.108613 0.8181757,-6.714531 2.7781057,-6.713661 1.95993,8.7e-4 2.778105,1.584391 2.778105,6.713661"
       id="path915" /><g
       id="g1296"
       transform="translate(-0.0585258)"><path
         style="fill:#ffdb26;fill-opacity:1;stroke:#000000;stroke-width:0.529167;stroke-linecap:round;stroke-linejoin:round;stroke-dasharray:none;stroke-opacity:1;paint-order:markers fill stroke;stop-color:#000000"
         d="m 11.599399,23.694455 v 1.058284"
         id="path1283" /><path
         style="fill:#ffdb26;fill-opacity:1;stroke:#000000;stroke-width:0.529167;stroke-linecap:round;stroke-linejoin:round;stroke-dasharray:none;stroke-opacity:1;paint-order:markers fill stroke;stop-color:#000000"
         d="m 12.657717,23.661518 v 1.058284"
         id="use1287" /><path
         style="fill:#ffdb26;fill-opacity:1;stroke:#000000;stroke-width:0.529167;stroke-linecap:round;stroke-linejoin:round;stroke-dasharray:none;stroke-opacity:1;paint-order:markers fill stroke;stop-color:#000000"
         d="m 13.716036,23.694455 v 1.058284"
         id="use1291" /></g></g><use
     x="0"
     y="0"
     xlink:href="#g1303"
     id="use414"
     transform="matrix(-0.95630476,-0.29237171,-0.29237171,0.95630476,36.637617,4.7437247)" /></svg>
