<?xml version="1.0" encoding="UTF-8" standalone="no"?>
<!-- Created with Inkscape (http://www.inkscape.org/) -->

<svg
   width="128"
   height="128"
   viewBox="0 0 33.866666 33.866666"
   version="1.1"
   id="svg5"
   xml:space="preserve"
   sodipodi:docname="gutkato_manĝas_fiŝon.svg"
   inkscape:version="1.2.2 (b0a8486541, 2022-12-01)"
   xmlns:inkscape="http://www.inkscape.org/namespaces/inkscape"
   xmlns:sodipodi="http://sodipodi.sourceforge.net/DTD/sodipodi-0.dtd"
   xmlns:xlink="http://www.w3.org/1999/xlink"
   xmlns="http://www.w3.org/2000/svg"
   xmlns:svg="http://www.w3.org/2000/svg"
   xmlns:rdf="http://www.w3.org/1999/02/22-rdf-syntax-ns#"
   xmlns:cc="http://creativecommons.org/ns#"
   xmlns:dc="http://purl.org/dc/elements/1.1/"><sodipodi:namedview
     id="namedview15"
     pagecolor="#505050"
     bordercolor="#eeeeee"
     borderopacity="1"
     inkscape:showpageshadow="0"
     inkscape:pageopacity="0"
     inkscape:pagecheckerboard="0"
     inkscape:deskcolor="#505050"
     showgrid="false"
     showguides="false"
     inkscape:zoom="1.8437501"
     inkscape:cx="23.322033"
     inkscape:cy="98.983045"
     inkscape:window-width="1232"
     inkscape:window-height="750"
     inkscape:window-x="48"
     inkscape:window-y="26"
     inkscape:window-maximized="1"
     inkscape:current-layer="g4604" /><title
     id="title4279">Gutkato manĝas fiŝon</title><defs
     id="defs2"><clipPath
       clipPathUnits="userSpaceOnUse"
       id="clipPath4478"><use
         x="0"
         y="0"
         xlink:href="#path1785"
         id="use4480"
         style="stroke-width:0.999999" /></clipPath></defs><g
     id="layer1"><path
       style="fill:#ffdb26;fill-opacity:1;stroke:#000000;stroke-width:1.05833;stroke-linecap:round;stroke-linejoin:round;stroke-dasharray:none;paint-order:normal;stop-color:#000000"
       d="M 6.3460128,10.987509 C 6.0131876,8.1033126 6.9112569,5.0355095 7.1713329,3.7040818 c 1.6823697,0.883682 3.1509471,1.8173157 5.1540591,3.4426941 3.460025,-0.9271224 7.675181,-0.4344139 10.458981,0.611344 2.188665,-1.101117 4.320882,-1.7567683 7.249119,-1.9517024 0.321474,1.7913943 -0.0283,5.5961075 -1.06115,7.5149165 1.483302,5.222627 1.500916,12.296756 -0.04318,13.840869 C 24.518229,31.573194 5.6799495,31.273305 4.0639285,25.242152 3.064468,21.512066 4.2865251,13.752064 6.3460128,10.987509 Z"
       id="path236" /><ellipse
       style="fill:#000000;fill-opacity:1;stroke:none;stroke-width:2.11668;stroke-linecap:round;stroke-linejoin:round;stroke-dasharray:none;paint-order:stroke markers fill;stop-color:#000000"
       id="path6982"
       cx="12.96371"
       cy="12.570978"
       rx="1.6752723"
       ry="2.1418331"
       transform="rotate(8)" /><use
       x="0"
       y="0"
       xlink:href="#path6982"
       id="use7712"
       transform="translate(8.953004,0.69247082)"
       style="stroke-width:1.07136" /><path
       style="fill:none;fill-opacity:1;stroke:#000000;stroke-width:0.79375;stroke-linecap:round;stroke-linejoin:round;stroke-dasharray:none;stroke-opacity:1;paint-order:normal;stop-color:#000000"
       d="m 22.889183,18.104059 4.87622,-0.734341"
       id="path7889" /><path
       style="fill:none;fill-opacity:1;stroke:#000000;stroke-width:0.79375;stroke-linecap:round;stroke-linejoin:round;stroke-dasharray:none;stroke-opacity:1;paint-order:normal;stop-color:#000000"
       d="m 22.899838,20.260593 4.684517,0.851137"
       id="path7891" /><path
       style="fill:none;fill-opacity:1;stroke:#000000;stroke-width:0.79375;stroke-linecap:round;stroke-linejoin:round;stroke-dasharray:none;stroke-opacity:1;paint-order:normal;stop-color:#000000"
       d="M 8.2565339,17.019465 5.9675926,15.975012"
       id="path7893" /><path
       style="fill:none;fill-opacity:1;stroke:#000000;stroke-width:0.79375;stroke-linecap:round;stroke-linejoin:round;stroke-dasharray:none;stroke-opacity:1;paint-order:normal;stop-color:#000000"
       d="M 7.7354506,18.902572 5.5452359,18.75928"
       id="path7895" /><g
       id="g4507"
       transform="rotate(-8,2.5845647,20.801243)"><g
         id="g4604"
         transform="rotate(4,259.34317,16.617502)"><path
           style="fill:#759c90;fill-opacity:1;stroke:none;stroke-width:0.79375;stroke-linecap:round;stroke-linejoin:round;stroke-miterlimit:8;stroke-dasharray:none;stroke-opacity:1;paint-order:normal;stop-color:#000000"
           d="m 29.427295,49.150916 c -2.238361,-0.599767 -3.878217,-3.141164 -5.798356,-3.141164 0,0 -4.87646,3.231241 -10.329868,3.231242 -5.2727848,10e-7 -8.4395155,-3.50353 -8.897957,-5.214457 0.4183404,-1.561268 3.8992496,-5.214456 8.897957,-5.214456 5.127997,0 10.329868,3.231242 10.329868,3.231242 1.829198,0 3.224376,-2.451468 5.798356,-3.141164 0,0 -1.058334,1.772792 -1.058334,2.562188 0,0.789396 1.058334,2.56219 1.058334,2.56219 0,0 -1.058334,1.770779 -1.058334,2.562191 0,0.791412 1.058334,2.562188 1.058334,2.562188 z"
           id="path1785"
           sodipodi:nodetypes="ccscscczczc" /><path
           style="fill:#759c90;fill-opacity:1;stroke:#628278;stroke-width:0.79375;stroke-linecap:round;stroke-linejoin:round;stroke-miterlimit:8;stroke-dasharray:none;stroke-opacity:1;paint-order:normal;stop-color:#000000"
           d="m 9.7726205,39.602039 c 1.9008705,3.389457 1.4277695,6.57633 0,8.940006"
           id="path2567"
           sodipodi:nodetypes="cc" /><path
           style="fill:none;fill-opacity:1;stroke:#628278;stroke-width:0.79375;stroke-linecap:round;stroke-linejoin:round;stroke-miterlimit:8;stroke-dasharray:none;stroke-opacity:1;paint-order:normal;stop-color:#000000"
           d="m 5.3793359,45.440809 c 0.9486631,0.184403 2.1270247,-0.05998 3.0568746,-0.380144"
           id="path3515"
           sodipodi:nodetypes="cc" /><g
           id="g4474"
           clip-path="url(#clipPath4478)"><use
             x="0"
             y="0"
             xlink:href="#path3625"
             id="use4451"
             transform="translate(11.641668)" /><use
             x="0"
             y="0"
             xlink:href="#g4434"
             id="use4438"
             transform="translate(4.2333335)" /><use
             x="0"
             y="0"
             xlink:href="#use4420"
             id="use4436"
             transform="translate(3.7041668)" /><g
             id="g4434"><use
               x="0"
               y="0"
               xlink:href="#use3635"
               id="use4422"
               transform="translate(3.7041668)" /><use
               x="0"
               y="0"
               xlink:href="#use3637"
               id="use4424"
               transform="translate(3.7041668)" /><use
               x="0"
               y="0"
               xlink:href="#use4413"
               id="use4426"
               transform="translate(3.7041668)" /><use
               x="0"
               y="0"
               xlink:href="#use3649"
               id="use4428"
               transform="translate(3.7041668)" /></g><g
             id="use4420"
             transform="translate(4.2333335)"><use
               x="0"
               y="0"
               xlink:href="#path3625"
               id="use4440"
               transform="rotate(-15,-0.04991836,44.448748)" /><use
               x="0"
               y="0"
               xlink:href="#use3631"
               id="use4442"
               transform="rotate(30,-0.26611156,44.317836)" /><path
               style="fill:#759c90;fill-opacity:1;stroke:#628278;stroke-width:0.79375;stroke-linecap:round;stroke-linejoin:round;stroke-miterlimit:8;stroke-dasharray:none;stroke-opacity:1;paint-order:normal;stop-color:#000000"
               d="m 11.117558,45.358747 c 0,0 2.310735,-0.445963 2.310734,-1.334103 0,-0.88814 -2.304176,-1.330315 -2.304176,-1.330315"
               id="path4444"
               sodipodi:nodetypes="czc" /></g><path
             style="fill:#759c90;fill-opacity:1;stroke:#628278;stroke-width:0.79375;stroke-linecap:round;stroke-linejoin:round;stroke-miterlimit:8;stroke-dasharray:none;stroke-opacity:1;paint-order:normal;stop-color:#000000"
             d="m 13.412305,43.381489 c 0,0 2.232757,-0.743759 2.11683,-1.624301 -0.115925,-0.880542 -2.458104,-1.018179 -2.458104,-1.018179"
             id="use3635"
             sodipodi:nodetypes="czc" /><path
             style="fill:#759c90;fill-opacity:1;stroke:#628278;stroke-width:0.79375;stroke-linecap:round;stroke-linejoin:round;stroke-miterlimit:8;stroke-dasharray:none;stroke-opacity:1;paint-order:normal;stop-color:#000000"
             d="m 13.070221,47.313211 c 0,0 2.349176,-0.140536 2.465101,-1.021078 0.115925,-0.880542 -2.110823,-1.61969 -2.110823,-1.61969"
             id="use3637"
             sodipodi:nodetypes="czc" /><use
             x="0"
             y="0"
             xlink:href="#use3649"
             id="use4413"
             transform="matrix(1,0,0,-1,-2.6047274e-7,88.239105)" /><use
             x="0"
             y="0"
             xlink:href="#use3631"
             id="use3649"
             transform="matrix(1,0,0,1.0000455,2.6458334,-1.7215101)"
             style="stroke-width:0.999977" /><use
             x="0"
             y="0"
             xlink:href="#path3625"
             id="use3631"
             transform="rotate(-15,-0.04991836,44.448748)" /><use
             x="0"
             y="0"
             xlink:href="#use3631"
             id="use3633"
             transform="rotate(30,-0.26611156,44.317836)" /><path
             style="fill:#759c90;fill-opacity:1;stroke:#628278;stroke-width:0.79375;stroke-linecap:round;stroke-linejoin:round;stroke-miterlimit:8;stroke-dasharray:none;stroke-opacity:1;paint-order:normal;stop-color:#000000"
             d="m 11.117558,45.358747 c 0,0 2.310735,-0.445963 2.310734,-1.334103 0,-0.88814 -2.304176,-1.330315 -2.304176,-1.330315"
             id="path3625"
             sodipodi:nodetypes="czc" /></g><path
           style="fill:none;fill-opacity:1;stroke:#000000;stroke-width:0.79375;stroke-linecap:round;stroke-linejoin:round;stroke-miterlimit:8;stroke-dasharray:none;stroke-opacity:1;paint-order:normal;stop-color:#000000"
           d="m 29.427295,49.150916 c -2.238361,-0.599767 -3.878217,-3.141164 -5.798356,-3.141164 0,0 -4.87646,3.231241 -10.329868,3.231242 -5.2727848,10e-7 -8.4395155,-3.50353 -8.897957,-5.214457 0.4183404,-1.561268 3.8992496,-5.214456 8.897957,-5.214456 5.127997,0 10.329868,3.231242 10.329868,3.231242 1.829198,0 3.224376,-2.451468 5.798356,-3.141164 0,0 -1.058334,1.772792 -1.058334,2.562188 0,0.789396 1.058334,2.56219 1.058334,2.56219 0,0 -1.058334,1.770779 -1.058334,2.562191 0,0.791412 1.058334,2.562188 1.058334,2.562188 z"
           id="path3405"
           sodipodi:nodetypes="ccscscczczc" /><circle
           style="fill:#4e695f;fill-opacity:1;stroke:none;stroke-width:0.79375;stroke-linecap:round;stroke-linejoin:round;stroke-miterlimit:8;stroke-dasharray:none;stroke-opacity:1;paint-order:normal;stop-color:#000000"
           id="path3459"
           cx="8.5360813"
           cy="42.232941"
           r="0.79374999" /></g></g><g
       id="use3658"
       transform="translate(3.7041668)" /><path
       style="fill:#ffdb26;fill-opacity:1;stroke:#000000;stroke-width:0.79375;stroke-linecap:round;stroke-linejoin:round;stroke-dasharray:none;stroke-opacity:1;paint-order:normal;stop-color:#000000"
       d="m 10.004075,19.121173 c -1.4238886,3.039424 2.342169,4.371724 4.594902,1.690642 3.202672,3.608669 6.496348,1.194297 5.575255,-1.100462"
       id="path7824" /></g><metadata
     id="metadata4277"><rdf:RDF><cc:Work
         rdf:about=""><dc:title>Gutkato manĝas fiŝon</dc:title><dc:creator><cc:Agent><dc:title>Tirifto</dc:title></cc:Agent></dc:creator><dc:subject><rdf:Bag><rdf:li>gutkato</rdf:li><rdf:li>gutkatoj</rdf:li><rdf:li>federujo</rdf:li></rdf:Bag></dc:subject><cc:license
           rdf:resource="http://artlibre.org/licence/lal" /><dc:description>Gutkato, destinita al uzo kiel glumarko aŭ propra bildosigno, ekzemple en Federujo aŭ aliaj retaj komunikiloj.</dc:description><dc:date>2024</dc:date></cc:Work><cc:License
         rdf:about="http://artlibre.org/licence/lal"><cc:permits
           rdf:resource="http://creativecommons.org/ns#Reproduction" /><cc:permits
           rdf:resource="http://creativecommons.org/ns#Distribution" /><cc:permits
           rdf:resource="http://creativecommons.org/ns#DerivativeWorks" /><cc:requires
           rdf:resource="http://creativecommons.org/ns#ShareAlike" /><cc:requires
           rdf:resource="http://creativecommons.org/ns#Notice" /><cc:requires
           rdf:resource="http://creativecommons.org/ns#Attribution" /></cc:License></rdf:RDF></metadata></svg>
