<?xml version="1.0" encoding="UTF-8" standalone="no"?>
<!-- Created with Inkscape (http://www.inkscape.org/) -->

<svg
   width="128"
   height="128"
   viewBox="0 0 33.866666 33.866666"
   version="1.1"
   id="svg5"
   xml:space="preserve"
   sodipodi:docname="gutkato_hura.svg"
   inkscape:version="1.2.2 (b0a8486541, 2022-12-01)"
   xmlns:inkscape="http://www.inkscape.org/namespaces/inkscape"
   xmlns:sodipodi="http://sodipodi.sourceforge.net/DTD/sodipodi-0.dtd"
   xmlns:xlink="http://www.w3.org/1999/xlink"
   xmlns="http://www.w3.org/2000/svg"
   xmlns:svg="http://www.w3.org/2000/svg"
   xmlns:rdf="http://www.w3.org/1999/02/22-rdf-syntax-ns#"
   xmlns:cc="http://creativecommons.org/ns#"
   xmlns:dc="http://purl.org/dc/elements/1.1/"><sodipodi:namedview
     id="namedview15"
     pagecolor="#505050"
     bordercolor="#eeeeee"
     borderopacity="1"
     inkscape:showpageshadow="0"
     inkscape:pageopacity="0"
     inkscape:pagecheckerboard="0"
     inkscape:deskcolor="#505050"
     showgrid="false"
     showguides="true"
     inkscape:zoom="2.6074563"
     inkscape:cx="35.666945"
     inkscape:cy="74.210256"
     inkscape:window-width="1232"
     inkscape:window-height="750"
     inkscape:window-x="48"
     inkscape:window-y="26"
     inkscape:window-maximized="1"
     inkscape:current-layer="svg5" /><title
     id="title4279">Gutkato, hura!</title><defs
     id="defs2" /><path
     style="fill:#ffdb26;fill-opacity:1;stroke:#000000;stroke-width:1.05833331;stroke-linecap:round;stroke-linejoin:round;stroke-dasharray:none;stroke-opacity:1;paint-order:markers fill stroke;stop-color:#000000"
     d="M 5.0519279,21.318846 C 4.4023552,20.097177 2.3959674,16.682724 1.4392989,14.410505 0.08619746,11.196704 0.22617633,9.4274633 2.0193486,8.6672463 3.8238136,7.9022417 5.1977296,9.0450255 6.5795584,12.300409"
     id="path441"
     sodipodi:nodetypes="cssc" /><circle
     style="fill:#c2748e;fill-opacity:1;stroke:none;stroke-width:0.891479;stroke-linecap:round;stroke-linejoin:round;paint-order:markers fill stroke;stop-color:#000000"
     id="circle443"
     cx="2.6655858"
     cy="10.446854"
     r="0.33072916"
     transform="matrix(-0.92050485,0.39073113,0.39073113,0.92050485,0,0)" /><path
     id="path445"
     style="fill:#c2748e;fill-opacity:1;stroke:none;stroke-width:1.2795;stroke-linecap:round;stroke-linejoin:round;paint-order:markers fill stroke;stop-color:#000000"
     d="m 2.6422028,10.089949 a 0.84504452,0.84504452 0 0 0 -0.4934752,0.965094 0.84504452,0.84504452 0 0 0 0.016246,0.618384 0.84504452,0.84504452 0 0 0 1.1078843,0.448249 0.84504452,0.84504452 0 0 0 0.1859955,-0.109712 0.84504452,0.84504452 0 0 0 0.2065978,-0.05693 0.84504452,0.84504452 0 0 0 0.4479205,-1.108656 0.84504452,0.84504452 0 0 0 -0.4345631,-0.44176 0.84504452,0.84504452 0 0 0 -1.0367017,-0.314672 z" /><circle
     style="fill:#c2748e;fill-opacity:1;stroke:none;stroke-width:0.891479;stroke-linecap:round;stroke-linejoin:round;paint-order:markers fill stroke;stop-color:#000000"
     id="use447"
     cx="1.9379821"
     cy="9.8946476"
     r="0.33072916"
     transform="matrix(-0.92050485,0.39073113,0.39073113,0.92050485,0,0)" /><circle
     style="fill:#c2748e;fill-opacity:1;stroke:none;stroke-width:0.891479;stroke-linecap:round;stroke-linejoin:round;paint-order:markers fill stroke;stop-color:#000000"
     id="use449"
     cx="1.0764976"
     cy="9.8946476"
     r="0.33072916"
     transform="matrix(-0.92050485,0.39073113,0.39073113,0.92050485,0,0)" /><circle
     style="fill:#c2748e;fill-opacity:1;stroke:none;stroke-width:0.891479;stroke-linecap:round;stroke-linejoin:round;stroke-dasharray:none;paint-order:markers fill stroke;stop-color:#000000"
     id="use451"
     cx="0.35427615"
     cy="10.446854"
     r="0.33072916"
     transform="matrix(-0.92050485,0.39073113,0.39073113,0.92050485,0,0)" /><path
     id="path236"
     style="fill:#ffdb26;fill-opacity:1;stroke:#000000;stroke-width:1.05833;stroke-linecap:round;stroke-linejoin:round;stroke-dasharray:none;paint-order:normal;stop-color:#000000"
     d="M 7.2579548 2.2437906 C 6.9030818 3.5531419 5.7871361 6.548918 5.9123005 9.4495522 C 3.6598907 12.059318 2.5352084 21.512304 3.5346679 25.242386 C 5.1506873 31.273533 23.988888 31.573152 28.399816 27.162166 C 29.067921 26.494054 29.347739 24.821655 29.361515 22.709724 C 30.237096 21.819073 31.929902 19.613181 32.541682 17.324007 C 33.717224 12.925349 33.342267 11.161185 31.452343 10.65568 C 30.595675 10.426544 29.879323 10.576851 29.242142 11.218953 C 29.790452 9.3878796 30.042235 7.2221846 29.910318 5.9799966 C 26.975645 5.9644671 24.801692 6.4659505 22.539709 7.4072997 C 19.838061 6.1646289 15.669306 5.370533 12.151713 6.047176 C 10.270304 4.282355 8.8726304 3.2458272 7.2579548 2.2437906 z " /><ellipse
     style="fill:#000000;fill-opacity:1;stroke:none;stroke-width:2.11668;stroke-linecap:round;stroke-linejoin:round;stroke-dasharray:none;paint-order:stroke markers fill;stop-color:#000000"
     id="path6982"
     cx="12.832696"
     cy="11.432744"
     rx="1.6752723"
     ry="2.1418331"
     transform="rotate(10)" /><use
     x="0"
     y="0"
     xlink:href="#path6982"
     id="use7712"
     transform="translate(8.9233832,1.0045043)"
     style="stroke-width:1.07136" /><path
     style="fill:none;fill-opacity:1;stroke:#000000;stroke-width:0.79375;stroke-linecap:round;stroke-linejoin:round;stroke-dasharray:none;stroke-opacity:1;paint-order:normal;stop-color:#000000"
     d="m 22.312044,17.748161 4.898878,-0.563716"
     id="path7889" /><path
     style="fill:none;fill-opacity:1;stroke:#000000;stroke-width:0.79375;stroke-linecap:round;stroke-linejoin:round;stroke-dasharray:none;stroke-opacity:1;paint-order:normal;stop-color:#000000"
     d="m 22.247431,19.903753 4.651959,1.014106"
     id="path7891" /><path
     style="fill:none;fill-opacity:1;stroke:#000000;stroke-width:0.79375;stroke-linecap:round;stroke-linejoin:round;stroke-dasharray:none;stroke-opacity:1;paint-order:normal;stop-color:#000000"
     d="m 7.7261616,16.153556 -2.2510961,-1.1237"
     id="path7893" /><path
     style="fill:none;fill-opacity:1;stroke:#000000;stroke-width:0.79375;stroke-linecap:round;stroke-linejoin:round;stroke-dasharray:none;stroke-opacity:1;paint-order:normal;stop-color:#000000"
     d="M 7.1396762,18.01733 4.9557965,17.797688"
     id="path7895" /><metadata
     id="metadata4277"><rdf:RDF><cc:Work
         rdf:about=""><dc:title>Gutkato, hura!</dc:title><dc:creator><cc:Agent><dc:title>Tirifto</dc:title></cc:Agent></dc:creator><dc:subject><rdf:Bag><rdf:li>gutkato</rdf:li><rdf:li>gutkatoj</rdf:li><rdf:li>federujo</rdf:li></rdf:Bag></dc:subject><cc:license
           rdf:resource="http://artlibre.org/licence/lal" /><dc:description>Gutkato, destinita al uzo kiel glumarko aŭ propra bildosigno, ekzemple en Federujo aŭ aliaj retaj komunikiloj.</dc:description><dc:date>2024</dc:date></cc:Work><cc:License
         rdf:about="http://artlibre.org/licence/lal"><cc:permits
           rdf:resource="http://creativecommons.org/ns#Reproduction" /><cc:permits
           rdf:resource="http://creativecommons.org/ns#Distribution" /><cc:permits
           rdf:resource="http://creativecommons.org/ns#DerivativeWorks" /><cc:requires
           rdf:resource="http://creativecommons.org/ns#ShareAlike" /><cc:requires
           rdf:resource="http://creativecommons.org/ns#Notice" /><cc:requires
           rdf:resource="http://creativecommons.org/ns#Attribution" /></cc:License></rdf:RDF></metadata><path
     style="fill:#c2748e;fill-opacity:1;stroke:#382129;stroke-width:0.79375;stroke-linecap:round;stroke-linejoin:round;stroke-dasharray:none;stroke-opacity:1;paint-order:markers fill stroke;stop-color:#000000"
     d="m 8.9936748,18.20444 c -0.7470914,6.739494 10.6772102,7.230125 11.2610592,1.072314 -1.618773,0.314658 -5.500247,-0.519621 -6.403931,-1.129159 -0.931547,0.454346 -3.490063,0.527565 -4.8571282,0.05684 z"
     id="path2839" /><path
     style="fill:#ffffff;fill-opacity:1;stroke:none;stroke-width:0.529167;stroke-linecap:round;stroke-linejoin:round;stroke-dasharray:none;stroke-opacity:1;paint-order:markers fill stroke;stop-color:#000000"
     id="path2893"
     d="m 17.400155,20.634241 -0.724684,-1.62767 1.771945,0.186239 z" /><use
     x="0"
     y="0"
     xlink:href="#path2893"
     id="use2895"
     transform="translate(-6.2574506,-0.68318501)" /><path
     style="fill:none;fill-opacity:1;stroke:#382226;stroke-width:0.79375;stroke-linecap:round;stroke-linejoin:round;stroke-dasharray:none;stroke-opacity:1;paint-order:markers fill stroke;stop-color:#000000"
     d="m 20.521135,19.233015 c -1.774758,0.344978 -5.522081,-0.31092 -6.670332,-1.08542 -1.119033,0.545788 -3.752009,0.449681 -5.1190742,-0.02104"
     id="path1289" /><path
     style="fill:#ffdb26;fill-opacity:1;stroke:#000000;stroke-width:1.05833331;stroke-linecap:round;stroke-linejoin:round;stroke-dasharray:none;stroke-opacity:1;paint-order:markers fill stroke;stop-color:#000000"
     d="m 31.452582,10.655463 c -1.557664,-0.416634 -2.651372,0.420967 -3.648882,3.18915 -0.214986,0.596597 -0.390255,1.044118 -0.727468,1.628189"
     id="path453"
     sodipodi:nodetypes="csc" /><circle
     style="fill:#c2748e;fill-opacity:1;stroke:none;stroke-width:0.891479;stroke-linecap:round;stroke-linejoin:round;paint-order:markers fill stroke;stop-color:#000000"
     id="circle457"
     cx="34.295235"
     cy="3.8561716"
     r="0.33072916"
     transform="rotate(15)" /><path
     id="path459"
     style="fill:#c2748e;fill-opacity:1;stroke:none;stroke-width:1.2795;stroke-linecap:round;stroke-linejoin:round;paint-order:markers fill stroke;stop-color:#000000"
     d="m 31.045449,12.179723 a 0.84504452,0.84504452 0 0 1 0.622985,0.887025 0.84504452,0.84504452 0 0 1 0.06997,0.614628 0.84504452,0.84504452 0 0 1 -1.034717,0.598075 0.84504452,0.84504452 0 0 1 -0.199453,-0.08277 0.84504452,0.84504452 0 0 1 -0.212506,-0.02764 0.84504452,0.84504452 0 0 1 -0.597857,-1.035519 0.84504452,0.84504452 0 0 1 0.368853,-0.497939 0.84504452,0.84504452 0 0 1 0.982819,-0.455888 z" /><circle
     style="fill:#c2748e;fill-opacity:1;stroke:none;stroke-width:0.891479;stroke-linecap:round;stroke-linejoin:round;paint-order:markers fill stroke;stop-color:#000000"
     id="circle461"
     cx="33.567631"
     cy="3.3039656"
     r="0.33072916"
     transform="rotate(15.000001)" /><circle
     style="fill:#c2748e;fill-opacity:1;stroke:none;stroke-width:0.891479;stroke-linecap:round;stroke-linejoin:round;paint-order:markers fill stroke;stop-color:#000000"
     id="circle463"
     cx="32.706146"
     cy="3.3039656"
     r="0.33072916"
     transform="rotate(15.000001)" /><circle
     style="fill:#c2748e;fill-opacity:1;stroke:none;stroke-width:0.891479;stroke-linecap:round;stroke-linejoin:round;paint-order:markers fill stroke;stop-color:#000000"
     id="circle465"
     cx="31.983927"
     cy="3.8561716"
     r="0.33072916"
     transform="rotate(15.000001)" /></svg>
