<?xml version="1.0" encoding="UTF-8" standalone="no"?>
<!-- Created with Inkscape (http://www.inkscape.org/) -->

<svg
   width="128"
   height="128"
   viewBox="0 0 33.866666 33.866666"
   version="1.1"
   id="svg5"
   xml:space="preserve"
   sodipodi:docname="gutkato_korŝiro.svg"
   inkscape:version="1.2.2 (b0a8486541, 2022-12-01)"
   inkscape:export-filename="gutkato_koro.png"
   inkscape:export-xdpi="96"
   inkscape:export-ydpi="96"
   xmlns:inkscape="http://www.inkscape.org/namespaces/inkscape"
   xmlns:sodipodi="http://sodipodi.sourceforge.net/DTD/sodipodi-0.dtd"
   xmlns:xlink="http://www.w3.org/1999/xlink"
   xmlns="http://www.w3.org/2000/svg"
   xmlns:svg="http://www.w3.org/2000/svg"
   xmlns:rdf="http://www.w3.org/1999/02/22-rdf-syntax-ns#"
   xmlns:cc="http://creativecommons.org/ns#"
   xmlns:dc="http://purl.org/dc/elements/1.1/"><sodipodi:namedview
     id="namedview15"
     pagecolor="#505050"
     bordercolor="#eeeeee"
     borderopacity="1"
     inkscape:showpageshadow="0"
     inkscape:pageopacity="0"
     inkscape:pagecheckerboard="0"
     inkscape:deskcolor="#505050"
     showgrid="false"
     inkscape:zoom="1"
     inkscape:cx="73.5"
     inkscape:cy="69.5"
     inkscape:window-width="1232"
     inkscape:window-height="750"
     inkscape:window-x="48"
     inkscape:window-y="26"
     inkscape:window-maximized="1"
     inkscape:current-layer="layer1" /><title
     id="title4279">Gutkato, korŝiro</title><defs
     id="defs2" /><g
     id="layer1"><path
       style="fill:#ffdb26;fill-opacity:1;stroke:#000000;stroke-width:1.05833;stroke-linecap:round;stroke-linejoin:round;stroke-dasharray:none;paint-order:normal;stop-color:#000000"
       d="M 6.3460128,10.987509 C 6.0131876,8.1033126 6.9112569,5.0355095 7.1713329,3.7040818 c 1.6823697,0.883682 3.1509471,1.8173157 5.1540591,3.4426941 3.460025,-0.9271224 7.675181,-0.4344139 10.458981,0.611344 2.188665,-1.101117 4.320882,-1.7567683 7.249119,-1.9517024 0.321474,1.7913943 -0.0283,5.5961075 -1.06115,7.5149165 1.483302,5.222627 1.500916,12.296756 -0.04318,13.840869 C 24.518229,31.573194 5.6799495,31.273305 4.0639285,25.242152 3.064468,21.512066 4.2865251,13.752064 6.3460128,10.987509 Z"
       id="path236" /><path
       style="fill:none;fill-opacity:1;stroke:#000000;stroke-width:0.79375;stroke-linecap:round;stroke-linejoin:round;stroke-dasharray:none;stroke-opacity:1;paint-order:normal;stop-color:#000000"
       d="m 22.889183,18.104059 4.87622,-0.734341"
       id="path7889" /><path
       style="fill:none;fill-opacity:1;stroke:#000000;stroke-width:0.79375;stroke-linecap:round;stroke-linejoin:round;stroke-dasharray:none;stroke-opacity:1;paint-order:normal;stop-color:#000000"
       d="m 22.899838,20.260593 4.684517,0.851137"
       id="path7891" /><path
       style="fill:none;fill-opacity:1;stroke:#000000;stroke-width:0.79375;stroke-linecap:round;stroke-linejoin:round;stroke-dasharray:none;stroke-opacity:1;paint-order:normal;stop-color:#000000"
       d="M 8.2565339,17.019465 5.9675926,15.975012"
       id="path7893" /><path
       style="fill:none;fill-opacity:1;stroke:#000000;stroke-width:0.79375;stroke-linecap:round;stroke-linejoin:round;stroke-dasharray:none;stroke-opacity:1;paint-order:normal;stop-color:#000000"
       d="M 7.7354506,18.902572 5.5452359,18.75928"
       id="path7895" /><path
       style="fill:none;fill-opacity:1;stroke:#000000;stroke-width:0.79375;stroke-linecap:round;stroke-linejoin:round;stroke-opacity:1;paint-order:markers fill stroke;stop-color:#000000"
       d="m 11.578722,21.118111 0.637119,-0.53477 0.974105,1.474739 c 0.752355,-0.582053 1.286014,-1.312227 1.705908,-2.119452 0.325159,0.90173 0.779583,1.693708 1.398968,2.345629 l 1.129745,-1.265271 0.55932,0.624327"
       id="path5526"
       sodipodi:nodetypes="ccccccc" /><g
       id="g7421"
       transform="translate(-4.9879053,0.4078129)"><circle
         style="fill:#000000;fill-opacity:1;stroke:none;stroke-width:0.79375;stroke-linecap:round;stroke-linejoin:round;paint-order:markers fill stroke;stop-color:#000000"
         id="path379"
         cx="16.075838"
         cy="13.845025"
         r="2.4418788" /><circle
         style="fill:#ffffff;fill-opacity:1;stroke:none;stroke-width:0.793749;stroke-linecap:round;stroke-linejoin:round;paint-order:markers fill stroke;stop-color:#000000"
         id="path3848"
         cx="15.326144"
         cy="13.152761"
         r="0.90922391" /><use
         x="0"
         y="0"
         xlink:href="#path3848"
         id="use7413"
         transform="matrix(0.77726379,0,0,0.77726379,5.0209783,4.3397258)"
         style="stroke-width:1.28656" /><use
         x="0"
         y="0"
         xlink:href="#path3848"
         id="use7415"
         transform="matrix(0.73159205,0,0,0.73159205,5.4309887,5.2006037)"
         style="stroke-width:1.36688" /></g><use
       x="0"
       y="0"
       xlink:href="#g7421"
       id="use7429"
       transform="translate(8.9530767,0.69245517)" /></g><metadata
     id="metadata4277"><rdf:RDF><cc:Work
         rdf:about=""><dc:title>Gutkato, korŝiro</dc:title><dc:creator><cc:Agent><dc:title>Tirifto</dc:title></cc:Agent></dc:creator><dc:subject><rdf:Bag><rdf:li>gutkato</rdf:li><rdf:li>gutkatoj</rdf:li><rdf:li>federujo</rdf:li></rdf:Bag></dc:subject><cc:license
           rdf:resource="http://artlibre.org/licence/lal" /><dc:description>Gutkato, destinita al uzo kiel glumarko aŭ propra bildosigno, ekzemple en Federujo aŭ aliaj retaj komunikiloj.</dc:description><dc:date>2024</dc:date></cc:Work><cc:License
         rdf:about="http://artlibre.org/licence/lal"><cc:permits
           rdf:resource="http://creativecommons.org/ns#Reproduction" /><cc:permits
           rdf:resource="http://creativecommons.org/ns#Distribution" /><cc:permits
           rdf:resource="http://creativecommons.org/ns#DerivativeWorks" /><cc:requires
           rdf:resource="http://creativecommons.org/ns#ShareAlike" /><cc:requires
           rdf:resource="http://creativecommons.org/ns#Notice" /><cc:requires
           rdf:resource="http://creativecommons.org/ns#Attribution" /></cc:License></rdf:RDF></metadata><path
     style="fill:#ff2626;fill-opacity:1;stroke:#000000;stroke-width:1.05833;stroke-linecap:round;stroke-linejoin:round;stroke-dasharray:none;stroke-opacity:1;stop-color:#000000"
     d="m 10.870133,15.422048 c -0.136677,-0.0024 -0.276128,8.91e-4 -0.418579,0.01085 -4.6092222,0.322308 -7.5279538,6.295018 -3.0514936,10.119796 3.6519966,3.120338 5.9085736,4.750225 8.4516806,6.871415 l -0.607715,-1.842265 a 0.50011003,0.50011003 0 0 1 0.04289,-0.406177 l 0.787032,-1.365291 -2.456698,-2.457214 a 0.50011003,0.50011003 0 0 1 0,-0.706934 l 2.314071,-2.314587 -1.759583,-1.759583 a 0.50011003,0.50011003 0 0 1 0,-0.706933 l 1.824178,-1.826246 -1.380794,-1.344103 a 0.50006002,0.50006002 0 0 1 -0.04496,-0.659392 c -0.991637,-0.812128 -2.167914,-1.5861 -3.700033,-1.613338 z"
     id="path531" /><path
     style="fill:#ff2626;fill-opacity:1;stroke:#000000;stroke-width:1.05833;stroke-linecap:round;stroke-linejoin:round;stroke-dasharray:none;stroke-opacity:1;stop-color:#000000"
     d="m 21.949538,14.755704 c -0.142099,-0.0011 -0.285393,0.0034 -0.429431,0.01344 -2.067646,0.144584 -3.32899,1.544996 -4.368209,2.7342 l 1.223698,1.190108 a 0.50011003,0.50011003 0 0 1 0.0057,0.711068 l -1.831929,1.831929 1.760099,1.759583 a 0.50011003,0.50011003 0 0 1 0,0.706933 l -2.314587,2.314588 2.375048,2.375049 a 0.50011003,0.50011003 0 0 1 0.07803,0.60358 l -0.867131,1.501717 0.702283,2.130103 c 2.326643,-2.59255 4.364247,-4.527725 7.667232,-8.262545 3.778696,-4.272728 0.404269,-9.575519 -4.000789,-9.609749 z"
     id="path3500" /><g
     id="use414"
     transform="matrix(-0.58778525,0.80901699,0.80901699,0.58778525,9.5416925,-1.1622432)"><path
       style="fill:#ffdb26;fill-opacity:1;stroke:#000000;stroke-width:0.79375;stroke-linecap:round;stroke-linejoin:round;stroke-dasharray:none;stroke-opacity:1;paint-order:markers fill stroke;stop-color:#000000"
       d="m 9.8210863,30.007784 c 0,-5.108613 0.8181757,-6.714531 2.7781057,-6.713661 1.95993,8.7e-4 2.778105,1.584391 2.778105,6.713661"
       id="path2192" /><g
       id="g2200"
       transform="translate(-0.0585258)"><path
         style="fill:#ffdb26;fill-opacity:1;stroke:#000000;stroke-width:0.529167;stroke-linecap:round;stroke-linejoin:round;stroke-dasharray:none;stroke-opacity:1;paint-order:markers fill stroke;stop-color:#000000"
         d="m 11.599399,23.694455 v 1.058284"
         id="path2194" /><path
         style="fill:#ffdb26;fill-opacity:1;stroke:#000000;stroke-width:0.529167;stroke-linecap:round;stroke-linejoin:round;stroke-dasharray:none;stroke-opacity:1;paint-order:markers fill stroke;stop-color:#000000"
         d="m 12.657717,23.661518 v 1.058284"
         id="path2196" /><path
         style="fill:#ffdb26;fill-opacity:1;stroke:#000000;stroke-width:0.529167;stroke-linecap:round;stroke-linejoin:round;stroke-dasharray:none;stroke-opacity:1;paint-order:markers fill stroke;stop-color:#000000"
         d="m 13.716036,23.694455 v 1.058284"
         id="path2198" /></g></g><g
     id="g457"
     transform="matrix(-0.74314483,-0.66913061,-0.66913061,0.74314483,35.693811,14.19258)"><path
       style="fill:#ffdb26;fill-opacity:1;stroke:#000000;stroke-width:0.79375;stroke-linecap:round;stroke-linejoin:round;stroke-dasharray:none;stroke-opacity:1;paint-order:markers fill stroke;stop-color:#000000"
       d="m 9.8210863,28.420283 c 0,-3.614558 0.8181757,-5.12703 2.7781057,-5.12616 1.95993,8.7e-4 2.778105,1.512491 2.778105,5.12616"
       id="path447" /><g
       id="g455"
       transform="translate(-0.0585258)"><path
         style="fill:#ffdb26;fill-opacity:1;stroke:#000000;stroke-width:0.529167;stroke-linecap:round;stroke-linejoin:round;stroke-dasharray:none;stroke-opacity:1;paint-order:markers fill stroke;stop-color:#000000"
         d="m 11.599399,23.694455 v 1.058284"
         id="path449" /><path
         style="fill:#ffdb26;fill-opacity:1;stroke:#000000;stroke-width:0.529167;stroke-linecap:round;stroke-linejoin:round;stroke-dasharray:none;stroke-opacity:1;paint-order:markers fill stroke;stop-color:#000000"
         d="m 12.657717,23.661518 v 1.058284"
         id="path451" /><path
         style="fill:#ffdb26;fill-opacity:1;stroke:#000000;stroke-width:0.529167;stroke-linecap:round;stroke-linejoin:round;stroke-dasharray:none;stroke-opacity:1;paint-order:markers fill stroke;stop-color:#000000"
         d="m 13.716036,23.694455 v 1.058284"
         id="path453" /></g></g></svg>
