<?xml version="1.0" encoding="UTF-8" standalone="no"?>
<!-- Created with Inkscape (http://www.inkscape.org/) -->

<svg
   width="128"
   height="128"
   viewBox="0 0 33.866666 33.866666"
   version="1.1"
   id="svg5"
   xml:space="preserve"
   sodipodi:docname="gutkato_manĝas_lunbulkon.svg"
   inkscape:version="1.2.2 (b0a8486541, 2022-12-01)"
   inkscape:export-filename="gutkato_manĝas_kuketon.png"
   inkscape:export-xdpi="96"
   inkscape:export-ydpi="96"
   xmlns:inkscape="http://www.inkscape.org/namespaces/inkscape"
   xmlns:sodipodi="http://sodipodi.sourceforge.net/DTD/sodipodi-0.dtd"
   xmlns:xlink="http://www.w3.org/1999/xlink"
   xmlns="http://www.w3.org/2000/svg"
   xmlns:svg="http://www.w3.org/2000/svg"
   xmlns:rdf="http://www.w3.org/1999/02/22-rdf-syntax-ns#"
   xmlns:cc="http://creativecommons.org/ns#"
   xmlns:dc="http://purl.org/dc/elements/1.1/"><sodipodi:namedview
     id="namedview15"
     pagecolor="#505050"
     bordercolor="#eeeeee"
     borderopacity="1"
     inkscape:showpageshadow="0"
     inkscape:pageopacity="0"
     inkscape:pagecheckerboard="0"
     inkscape:deskcolor="#505050"
     showgrid="false"
     showguides="false"
     inkscape:zoom="2"
     inkscape:cx="56.5"
     inkscape:cy="98.25"
     inkscape:window-width="1232"
     inkscape:window-height="750"
     inkscape:window-x="48"
     inkscape:window-y="26"
     inkscape:window-maximized="1"
     inkscape:current-layer="layer1" /><title
     id="title4279">Gutkato manĝas lunbulkon</title><defs
     id="defs2" /><g
     id="layer1"><path
       style="fill:#ffdb26;fill-opacity:1;stroke:#000000;stroke-width:1.05833;stroke-linecap:round;stroke-linejoin:round;stroke-dasharray:none;paint-order:normal;stop-color:#000000"
       d="M 6.3460128,10.987509 C 6.0131876,8.1033126 6.9112569,5.0355095 7.1713329,3.7040818 c 1.6823697,0.883682 3.1509471,1.8173157 5.1540591,3.4426941 3.460025,-0.9271224 7.675181,-0.4344139 10.458981,0.611344 2.188665,-1.101117 4.320882,-1.7567683 7.249119,-1.9517024 0.321474,1.7913943 -0.0283,5.5961075 -1.06115,7.5149165 1.483302,5.222627 1.500916,12.296756 -0.04318,13.840869 C 24.518229,31.573194 5.6799495,31.273305 4.0639285,25.242152 3.064468,21.512066 4.2865251,13.752064 6.3460128,10.987509 Z"
       id="path236" /><ellipse
       style="fill:#000000;fill-opacity:1;stroke:none;stroke-width:2.11668;stroke-linecap:round;stroke-linejoin:round;stroke-dasharray:none;paint-order:stroke markers fill;stop-color:#000000"
       id="path6982"
       cx="12.96371"
       cy="12.570978"
       rx="1.6752723"
       ry="2.1418331"
       transform="rotate(8)" /><use
       x="0"
       y="0"
       xlink:href="#path6982"
       id="use7712"
       transform="translate(8.953004,0.69247082)"
       style="stroke-width:1.07136" /><g
       id="g1367"
       transform="rotate(12,85.417904,26.904375)"><path
         style="fill:#824b1a;fill-opacity:1;stroke:none;stroke-width:0.79375;stroke-linecap:round;stroke-linejoin:round;stroke-opacity:1;stop-color:#000000"
         d="m 4.7618752,43.368222 c 0.297359,0.515041 0.8133365,0.86774 1.2133784,0.885221 0.4000419,0.01748 1.1943162,-0.570312 1.1943162,-0.570312 0,0 0.7796674,0.290637 1.462161,0.177859 0.6824936,-0.112778 1.5565082,-0.542835 1.5565082,-0.542835 0,0 1.009684,0.152432 1.763275,0.02735 0.75359,-0.125079 1.497048,-0.547579 1.497048,-0.547579 0,0 0.950069,0.20406 1.523901,0.20406 0.573833,0 1.267886,-0.205398 1.267886,-0.205398 0,0 0.768168,0.358105 1.603056,0.496335 0.834888,0.138231 1.657454,-0.06898 1.657454,-0.06898 0,0 0.62249,0.479675 1.357612,0.600891 0.735121,0.121217 1.625306,0.01002 1.625306,0.01002 0,0 0.710929,0.418034 1.167846,0.404827 0.456917,-0.01321 1.027057,-0.42972 1.282093,-0.871455 0.317965,-0.550731 0.06183,-2.01761 -0.271508,-2.624494 -0.333335,-0.606885 -1.311841,-1.664031 -1.311841,-1.664031 0,0 -0.215571,-1.061855 -0.951917,-1.667853 -0.736346,-0.605998 -1.667507,-0.743341 -1.667507,-0.743341 0,0 -0.461967,-0.786802 -1.566889,-1.217854 -1.104922,-0.431053 -2.284245,-0.062 -2.284245,-0.062 0,0 -0.843968,-0.619393 -2.032123,-0.619393 -1.188155,0 -2.010814,0.56409 -2.010814,0.56409 0,0 -1.183469,-0.181171 -2.187967,0.204716 -1.0044975,0.385886 -1.3839273,1.245531 -1.3839273,1.245531 0,0 -1.1294966,0.110617 -1.9358886,0.774435 -0.8063921,0.66382 -0.8786222,1.404271 -0.8786222,1.404271 0,0 -1.0924504,1.334131 -1.4153126,1.893345 -0.3228622,0.559214 -0.5706381,1.997533 -0.2732791,2.512574 z"
         id="path1172"
         sodipodi:nodetypes="zzczczczczczczszczczczczczczz" /><path
         style="fill:none;fill-opacity:1;stroke:#c1924f;stroke-width:0.79375;stroke-linecap:round;stroke-linejoin:round;stroke-opacity:1;stop-color:#000000"
         d="m 16.735071,35.380677 c 1.16768,1.566164 0.825942,6.332986 -0.562976,7.42167"
         id="path1291"
         sodipodi:nodetypes="cc" /><path
         style="fill:none;fill-opacity:1;stroke:#c1924f;stroke-width:0.79375;stroke-linecap:round;stroke-linejoin:round;stroke-opacity:1;stop-color:#000000"
         d="m 12.972266,35.380677 c -1.088506,1.415756 -0.761461,6.234061 0.562976,7.42167"
         id="path1297"
         sodipodi:nodetypes="cc" /><path
         style="fill:none;fill-opacity:1;stroke:#c1924f;stroke-width:0.79375;stroke-linecap:round;stroke-linejoin:round;stroke-opacity:1;stop-color:#000000"
         d="m 20.866189,36.807157 c 1.304115,2.258793 -0.400877,5.820585 -1.365817,6.377694"
         id="path1299"
         sodipodi:nodetypes="cc" /><path
         style="fill:none;fill-opacity:1;stroke:#c1924f;stroke-width:0.79375;stroke-linecap:round;stroke-linejoin:round;stroke-opacity:1;stop-color:#000000"
         d="m 9.2659963,36.784583 c -1.3041148,2.258793 -0.023972,5.843159 0.9409677,6.400268"
         id="path1301"
         sodipodi:nodetypes="cc" /><path
         style="fill:none;fill-opacity:1;stroke:#c1924f;stroke-width:0.79375;stroke-linecap:round;stroke-linejoin:round;stroke-opacity:1;stop-color:#000000"
         d="M 6.4054593,39.054007 C 5.1013445,41.3128 6.6096655,43.205874 7.5746052,43.762983"
         id="path1355"
         sodipodi:nodetypes="cc" /><path
         style="fill:none;fill-opacity:1;stroke:#c1924f;stroke-width:0.79375;stroke-linecap:round;stroke-linejoin:round;stroke-opacity:1;stop-color:#000000"
         d="m 23.345415,39.029644 c 1.304116,2.258793 -0.07393,4.17623 -1.038876,4.733339"
         id="path1357"
         sodipodi:nodetypes="cc" /><path
         style="fill:none;fill-opacity:1;stroke:#000000;stroke-width:0.79375;stroke-linecap:round;stroke-linejoin:round;stroke-opacity:1;stop-color:#000000"
         d="m 4.7618752,43.368222 c 0.297359,0.515041 0.8133365,0.86774 1.2133784,0.885221 0.4000419,0.01748 1.1943162,-0.570312 1.1943162,-0.570312 0,0 0.7796674,0.290637 1.462161,0.177859 0.6824936,-0.112778 1.5565082,-0.542835 1.5565082,-0.542835 0,0 1.009684,0.152432 1.763275,0.02735 0.75359,-0.125079 1.497048,-0.547579 1.497048,-0.547579 0,0 0.950069,0.20406 1.523901,0.20406 0.573833,0 1.267886,-0.205398 1.267886,-0.205398 0,0 0.768168,0.358105 1.603056,0.496335 0.834888,0.138231 1.657454,-0.06898 1.657454,-0.06898 0,0 0.62249,0.479675 1.357612,0.600891 0.735121,0.121217 1.625306,0.01002 1.625306,0.01002 0,0 0.710929,0.418034 1.167846,0.404827 0.456917,-0.01321 1.027057,-0.42972 1.282093,-0.871455 0.317965,-0.550731 0.06183,-2.01761 -0.271508,-2.624494 -0.333335,-0.606885 -1.311841,-1.664031 -1.311841,-1.664031 0,0 -0.215571,-1.061855 -0.951917,-1.667853 -0.736346,-0.605998 -1.667507,-0.743341 -1.667507,-0.743341 0,0 -0.461967,-0.786802 -1.566889,-1.217854 -1.104922,-0.431053 -2.284245,-0.062 -2.284245,-0.062 0,0 -0.843968,-0.619393 -2.032123,-0.619393 -1.188155,0 -2.010814,0.56409 -2.010814,0.56409 0,0 -1.183469,-0.181171 -2.187967,0.204716 -1.0044975,0.385886 -1.3839273,1.245531 -1.3839273,1.245531 0,0 -1.1294966,0.110617 -1.9358886,0.774435 -0.8063921,0.66382 -0.8786222,1.404271 -0.8786222,1.404271 0,0 -1.0924504,1.334131 -1.4153126,1.893345 -0.3228622,0.559214 -0.5706381,1.997533 -0.2732791,2.512574 z"
         id="path1293"
         sodipodi:nodetypes="zzczczczczczczszczczczczczczz" /></g><path
       style="fill:#ffdb26;fill-opacity:1;stroke:#000000;stroke-width:0.79375;stroke-linecap:round;stroke-linejoin:round;stroke-dasharray:none;stroke-opacity:1;paint-order:normal;stop-color:#000000"
       d="m 10.004075,19.121173 c -1.4238886,3.039424 2.342169,4.371724 4.594902,1.690642 3.202672,3.608669 6.496348,1.194297 5.575255,-1.100462"
       id="path7824" /><path
       style="fill:none;fill-opacity:1;stroke:#000000;stroke-width:0.79375;stroke-linecap:round;stroke-linejoin:round;stroke-dasharray:none;stroke-opacity:1;paint-order:normal;stop-color:#000000"
       d="m 22.889183,18.104059 4.87622,-0.734341"
       id="path7889" /><path
       style="fill:none;fill-opacity:1;stroke:#000000;stroke-width:0.79375;stroke-linecap:round;stroke-linejoin:round;stroke-dasharray:none;stroke-opacity:1;paint-order:normal;stop-color:#000000"
       d="m 22.899838,20.260593 4.684517,0.851137"
       id="path7891" /><path
       style="fill:none;fill-opacity:1;stroke:#000000;stroke-width:0.79375;stroke-linecap:round;stroke-linejoin:round;stroke-dasharray:none;stroke-opacity:1;paint-order:normal;stop-color:#000000"
       d="M 8.2565339,17.019465 5.9675926,15.975012"
       id="path7893" /><path
       style="fill:none;fill-opacity:1;stroke:#000000;stroke-width:0.79375;stroke-linecap:round;stroke-linejoin:round;stroke-dasharray:none;stroke-opacity:1;paint-order:normal;stop-color:#000000"
       d="M 7.7354506,18.902572 5.5452359,18.75928"
       id="path7895" /></g><metadata
     id="metadata4277"><rdf:RDF><cc:Work
         rdf:about=""><dc:title>Gutkato manĝas lunbulkon</dc:title><dc:creator><cc:Agent><dc:title>Tirifto</dc:title></cc:Agent></dc:creator><dc:subject><rdf:Bag><rdf:li>gutkato</rdf:li><rdf:li>gutkatoj</rdf:li><rdf:li>federujo</rdf:li></rdf:Bag></dc:subject><cc:license
           rdf:resource="http://artlibre.org/licence/lal" /><dc:description>Gutkato, destinita al uzo kiel glumarko aŭ propra bildosigno, ekzemple en Federujo aŭ aliaj retaj komunikiloj.</dc:description><dc:date>2024</dc:date></cc:Work><cc:License
         rdf:about="http://artlibre.org/licence/lal"><cc:permits
           rdf:resource="http://creativecommons.org/ns#Reproduction" /><cc:permits
           rdf:resource="http://creativecommons.org/ns#Distribution" /><cc:permits
           rdf:resource="http://creativecommons.org/ns#DerivativeWorks" /><cc:requires
           rdf:resource="http://creativecommons.org/ns#ShareAlike" /><cc:requires
           rdf:resource="http://creativecommons.org/ns#Notice" /><cc:requires
           rdf:resource="http://creativecommons.org/ns#Attribution" /></cc:License></rdf:RDF></metadata></svg>
