<?xml version="1.0" encoding="UTF-8" standalone="no"?>
<!-- Created with Inkscape (http://www.inkscape.org/) -->

<svg
   width="128"
   height="128"
   viewBox="0 0 33.866666 33.866666"
   version="1.1"
   id="svg5"
   xml:space="preserve"
   sodipodi:docname="gutkato_manĝas_brecon.svg"
   inkscape:version="1.2.2 (b0a8486541, 2022-12-01)"
   inkscape:export-filename="gutkato_manĝas_kuketon.png"
   inkscape:export-xdpi="96"
   inkscape:export-ydpi="96"
   xmlns:inkscape="http://www.inkscape.org/namespaces/inkscape"
   xmlns:sodipodi="http://sodipodi.sourceforge.net/DTD/sodipodi-0.dtd"
   xmlns:xlink="http://www.w3.org/1999/xlink"
   xmlns="http://www.w3.org/2000/svg"
   xmlns:svg="http://www.w3.org/2000/svg"
   xmlns:rdf="http://www.w3.org/1999/02/22-rdf-syntax-ns#"
   xmlns:cc="http://creativecommons.org/ns#"
   xmlns:dc="http://purl.org/dc/elements/1.1/"><sodipodi:namedview
     id="namedview15"
     pagecolor="#505050"
     bordercolor="#eeeeee"
     borderopacity="1"
     inkscape:showpageshadow="0"
     inkscape:pageopacity="0"
     inkscape:pagecheckerboard="0"
     inkscape:deskcolor="#505050"
     showgrid="false"
     showguides="false"
     inkscape:zoom="2.8284271"
     inkscape:cx="45.431611"
     inkscape:cy="102.35371"
     inkscape:window-width="1232"
     inkscape:window-height="750"
     inkscape:window-x="48"
     inkscape:window-y="26"
     inkscape:window-maximized="1"
     inkscape:current-layer="g7776" /><title
     id="title4279">Gutkato manĝas brecon</title><defs
     id="defs2"><inkscape:path-effect
       effect="spiro"
       id="path-effect3232"
       is_visible="true"
       lpeversion="1" /><inkscape:path-effect
       effect="spiro"
       id="path-effect3228"
       is_visible="true"
       lpeversion="1" /><inkscape:path-effect
       effect="powerstroke"
       id="path-effect2496"
       is_visible="true"
       lpeversion="1"
       offset_points="21,4.9921385"
       not_jump="false"
       sort_points="true"
       interpolator_type="CubicBezierJohan"
       interpolator_beta="0.2"
       start_linecap_type="zerowidth"
       linejoin_type="extrp_arc"
       miter_limit="4"
       scale_width="1"
       end_linecap_type="zerowidth" /><inkscape:path-effect
       effect="spiro"
       id="path-effect2494"
       is_visible="true"
       lpeversion="1" /><inkscape:path-effect
       effect="powerstroke"
       id="path-effect2490"
       is_visible="true"
       lpeversion="1"
       offset_points="21,4.9921385"
       not_jump="false"
       sort_points="true"
       interpolator_type="CubicBezierJohan"
       interpolator_beta="0.2"
       start_linecap_type="zerowidth"
       linejoin_type="extrp_arc"
       miter_limit="4"
       scale_width="1"
       end_linecap_type="zerowidth" /><inkscape:path-effect
       effect="spiro"
       id="path-effect2488"
       is_visible="true"
       lpeversion="1" /><inkscape:path-effect
       effect="powerstroke"
       id="path-effect1756"
       is_visible="true"
       lpeversion="1"
       offset_points="22,4.9921385"
       not_jump="false"
       sort_points="true"
       interpolator_type="CubicBezierJohan"
       interpolator_beta="0.2"
       start_linecap_type="zerowidth"
       linejoin_type="extrp_arc"
       miter_limit="4"
       scale_width="1"
       end_linecap_type="zerowidth" /><inkscape:path-effect
       effect="spiro"
       id="path-effect1754"
       is_visible="true"
       lpeversion="1" /><inkscape:path-effect
       effect="powerstroke"
       id="path-effect1022"
       is_visible="true"
       lpeversion="1"
       offset_points="30,4.9921385"
       not_jump="false"
       sort_points="true"
       interpolator_type="CubicBezierJohan"
       interpolator_beta="0.2"
       start_linecap_type="zerowidth"
       linejoin_type="extrp_arc"
       miter_limit="4"
       scale_width="1"
       end_linecap_type="zerowidth" /><inkscape:path-effect
       effect="spiro"
       id="path-effect1020"
       is_visible="true"
       lpeversion="1" /><inkscape:path-effect
       effect="powerstroke"
       id="path-effect1016"
       is_visible="true"
       lpeversion="1"
       offset_points="21,4.9921385"
       not_jump="false"
       sort_points="true"
       interpolator_type="CubicBezierJohan"
       interpolator_beta="0.2"
       start_linecap_type="zerowidth"
       linejoin_type="extrp_arc"
       miter_limit="4"
       scale_width="1"
       end_linecap_type="zerowidth" /><inkscape:path-effect
       effect="spiro"
       id="path-effect1014"
       is_visible="true"
       lpeversion="1" /><inkscape:path-effect
       effect="powerstroke"
       id="path-effect1010"
       is_visible="true"
       lpeversion="1"
       offset_points="1,4.9921385"
       not_jump="false"
       sort_points="true"
       interpolator_type="CubicBezierJohan"
       interpolator_beta="0.2"
       start_linecap_type="zerowidth"
       linejoin_type="extrp_arc"
       miter_limit="4"
       scale_width="1"
       end_linecap_type="zerowidth" /><inkscape:path-effect
       effect="spiro"
       id="path-effect1008"
       is_visible="true"
       lpeversion="1" /><inkscape:path-effect
       effect="powerstroke"
       id="path-effect1004"
       is_visible="true"
       lpeversion="1"
       offset_points="10,4.9921385"
       not_jump="false"
       sort_points="true"
       interpolator_type="CubicBezierJohan"
       interpolator_beta="0.2"
       start_linecap_type="zerowidth"
       linejoin_type="extrp_arc"
       miter_limit="4"
       scale_width="1"
       end_linecap_type="zerowidth" /><inkscape:path-effect
       effect="spiro"
       id="path-effect1002"
       is_visible="true"
       lpeversion="1" /><inkscape:path-effect
       effect="skeletal"
       id="path-effect998"
       is_visible="true"
       lpeversion="1"
       pattern="M 0,4.9921383 C 0,2.2364779 2.2364779,0 4.9921383,0 c 2.7556603,0 4.9921382,2.2364779 4.9921382,4.9921383 0,2.7556603 -2.2364779,4.9921382 -4.9921382,4.9921382 C 2.2364779,9.9842765 0,7.7477986 0,4.9921383 Z"
       copytype="single_stretched"
       prop_scale="1"
       scale_y_rel="false"
       spacing="0"
       normal_offset="0"
       tang_offset="0"
       prop_units="false"
       vertical_pattern="false"
       hide_knot="false"
       fuse_tolerance="0" /><inkscape:path-effect
       effect="spiro"
       id="path-effect996"
       is_visible="true"
       lpeversion="1" /><inkscape:path-effect
       effect="skeletal"
       id="path-effect383"
       is_visible="true"
       lpeversion="1"
       pattern="M 0,4.9921383 C 0,2.2364779 2.2364779,0 4.9921383,0 c 2.7556603,0 4.9921382,2.2364779 4.9921382,4.9921383 0,2.7556603 -2.2364779,4.9921382 -4.9921382,4.9921382 C 2.2364779,9.9842765 0,7.7477986 0,4.9921383 Z"
       copytype="single_stretched"
       prop_scale="1"
       scale_y_rel="false"
       spacing="0"
       normal_offset="0"
       tang_offset="0"
       prop_units="false"
       vertical_pattern="false"
       hide_knot="false"
       fuse_tolerance="0" /><inkscape:path-effect
       effect="spiro"
       id="path-effect381"
       is_visible="true"
       lpeversion="1" /><inkscape:path-effect
       effect="powerstroke"
       id="path-effect373"
       is_visible="true"
       lpeversion="1"
       offset_points="0,4.9921385"
       not_jump="false"
       sort_points="true"
       interpolator_type="CubicBezierJohan"
       interpolator_beta="0.2"
       start_linecap_type="zerowidth"
       linejoin_type="extrp_arc"
       miter_limit="4"
       scale_width="1"
       end_linecap_type="zerowidth" /><inkscape:path-effect
       effect="spiro"
       id="path-effect371"
       is_visible="true"
       lpeversion="1" /><inkscape:path-effect
       effect="skeletal"
       id="path-effect367"
       is_visible="true"
       lpeversion="1"
       pattern="M 0,4.9921383 C 0,2.2364779 2.2364779,0 4.9921383,0 c 2.7556603,0 4.9921382,2.2364779 4.9921382,4.9921383 0,2.7556603 -2.2364779,4.9921382 -4.9921382,4.9921382 C 2.2364779,9.9842765 0,7.7477986 0,4.9921383 Z"
       copytype="single_stretched"
       prop_scale="1"
       scale_y_rel="false"
       spacing="0"
       normal_offset="0"
       tang_offset="0"
       prop_units="false"
       vertical_pattern="false"
       hide_knot="false"
       fuse_tolerance="0" /><inkscape:path-effect
       effect="spiro"
       id="path-effect365"
       is_visible="true"
       lpeversion="1" /><inkscape:path-effect
       effect="skeletal"
       id="path-effect361"
       is_visible="true"
       lpeversion="1"
       pattern="M 0,4.9921383 C 0,2.2364779 2.2364779,0 4.9921383,0 c 2.7556603,0 4.9921382,2.2364779 4.9921382,4.9921383 0,2.7556603 -2.2364779,4.9921382 -4.9921382,4.9921382 C 2.2364779,9.9842765 0,7.7477986 0,4.9921383 Z"
       copytype="single_stretched"
       prop_scale="1"
       scale_y_rel="false"
       spacing="0"
       normal_offset="0"
       tang_offset="0"
       prop_units="false"
       vertical_pattern="false"
       hide_knot="false"
       fuse_tolerance="0" /><inkscape:path-effect
       effect="spiro"
       id="path-effect359"
       is_visible="true"
       lpeversion="1" /><inkscape:path-effect
       effect="fill_between_many"
       method="bsplinespiro"
       linkedpaths="#path369,0,1"
       id="path-effect375" /></defs><g
     id="layer1"><path
       style="fill:#ffdb26;fill-opacity:1;stroke:#000000;stroke-width:1.05833;stroke-linecap:round;stroke-linejoin:round;stroke-dasharray:none;paint-order:normal;stop-color:#000000"
       d="M 6.3460128,10.987509 C 6.0131876,8.1033126 6.9112569,5.0355095 7.1713329,3.7040818 c 1.6823697,0.883682 3.1509471,1.8173157 5.1540591,3.4426941 3.460025,-0.9271224 7.675181,-0.4344139 10.458981,0.611344 2.188665,-1.101117 4.320882,-1.7567683 7.249119,-1.9517024 0.321474,1.7913943 -0.0283,5.5961075 -1.06115,7.5149165 1.483302,5.222627 1.500916,12.296756 -0.04318,13.840869 C 24.518229,31.573194 5.6799495,31.273305 4.0639285,25.242152 3.064468,21.512066 4.2865251,13.752064 6.3460128,10.987509 Z"
       id="path236" /><ellipse
       style="fill:#000000;fill-opacity:1;stroke:none;stroke-width:2.11668;stroke-linecap:round;stroke-linejoin:round;stroke-dasharray:none;paint-order:stroke markers fill;stop-color:#000000"
       id="path6982"
       cx="12.96371"
       cy="12.570978"
       rx="1.6752723"
       ry="2.1418331"
       transform="rotate(8)" /><use
       x="0"
       y="0"
       xlink:href="#path6982"
       id="use7712"
       transform="translate(8.953004,0.69247082)"
       style="stroke-width:1.07136" /><g
       id="g3195"
       transform="matrix(1.1318671,0.07978879,-0.07914786,1.1410329,3.8553778,-24.111806)"
       style="stroke-width:0.877797"><path
         style="fill:none;stroke:#724222;stroke-width:0.929002;stroke-linecap:round;stroke-linejoin:round;stroke-miterlimit:8;stroke-dasharray:none;stroke-opacity:1;stop-color:#000000;fill-opacity:1"
         d="m 12.187423,53.561147 c 0,0 -3.7805025,0.449067 -3.8656457,2.408831 -0.085143,1.959764 2.4675497,1.9997 3.3306817,1.939344 0.863132,-0.06036 1.835543,-0.740797 1.747882,-1.994409 -0.08766,-1.253612 -1.334345,-3.842901 -4.2226814,-3.640928 -2.8883363,0.201973 -3.7341369,2.891461 -3.6454581,4.159623 0.088679,1.268162 1.221831,1.880278 2.1087804,1.818256 0.8869494,-0.06202 3.3605121,-0.698761 3.0302351,-2.460971 -0.330277,-1.76221 -4.304379,-1.848701 -4.304379,-1.848701"
         id="path4690"
         sodipodi:nodetypes="czzzzzzzc" /><path
         style="fill:none;fill-opacity:1;stroke:#724222;stroke-width:0.929002;stroke-linecap:round;stroke-linejoin:round;stroke-miterlimit:8;stroke-dasharray:none;stroke-opacity:1;stop-color:#000000"
         d="m 12.768316,61.868222 c 0,0 -3.7805082,0.449067 -3.8656514,2.408831 -0.085143,1.959764 2.4675554,1.9997 3.3306874,1.939344 0.863132,-0.06036 1.835543,-0.740797 1.747882,-1.994409 -0.08766,-1.253612 -1.334345,-3.842901 -4.2226871,-3.640928 -2.8883363,0.201973 -3.7341369,2.891461 -3.6454581,4.159623 0.088679,1.268162 1.221831,1.880278 2.1087804,1.818256 0.8869494,-0.06202 3.3605178,-0.698761 3.0302408,-2.460971 -0.330277,-1.76221 -4.3043847,-1.848701 -4.3043847,-1.848701"
         id="path4788"
         sodipodi:nodetypes="czzzzzzzc" /><path
         style="fill:none;fill-opacity:1;stroke:#724222;stroke-width:0.929002;stroke-linecap:round;stroke-linejoin:round;stroke-miterlimit:8;stroke-dasharray:none;stroke-opacity:1;stop-color:#000000"
         d="m 33.020572,58.954421 c -2.888336,0.201973 -3.734137,2.891461 -3.645458,4.159623 0.08868,1.268162 1.221831,1.880278 2.108781,1.818256 0.886949,-0.06202 3.360517,-0.698761 3.03024,-2.460971 -0.330277,-1.76221 -4.304384,-1.848701 -4.304384,-1.848701"
         id="path4790"
         sodipodi:nodetypes="czzzc" /><path
         style="fill:none;fill-opacity:1;stroke:#724222;stroke-width:0.929002;stroke-linecap:round;stroke-linejoin:round;stroke-miterlimit:8;stroke-dasharray:none;stroke-opacity:1;stop-color:#000000"
         d="m 59.292425,58.61494 c 0,0 -3.780508,0.449067 -3.865651,2.408831 -0.08514,1.959764 2.467555,1.9997 3.330687,1.939344 0.863132,-0.06036 1.835543,-0.740797 1.747882,-1.994409 -0.08766,-1.253612 -1.334345,-3.842901 -4.222687,-3.640928"
         id="path5520"
         sodipodi:nodetypes="czzzc" /><path
         style="fill:none;fill-opacity:1;stroke:#724222;stroke-width:1.3935;stroke-linecap:round;stroke-linejoin:round;stroke-miterlimit:8;stroke-dasharray:none;stroke-opacity:1;stop-color:#000000"
         d="m 15.024513,71.061203 c 0,0 -5.9277759,0.707631 -6.0587179,3.817361 -0.130934,3.10973 3.8721029,3.176458 5.2255359,3.081817 1.353432,-0.09466 2.877415,-1.173118 2.738302,-3.162521 -0.139112,-1.989403 -2.097491,-6.099843 -6.62655,-5.783141 -4.529051,0.316704 -5.8518496,4.583394 -5.7111222,6.595886 0.1407282,2.012495 1.9184736,2.985317 3.3092533,2.888063 1.390778,-0.09725 5.2688439,-1.104407 4.7486069,-3.901196 -0.520236,-2.79679 -6.7523078,-2.939261 -6.7523078,-2.939261"
         id="path5534"
         sodipodi:nodetypes="czzzzzzzc" /><path
         style="fill:none;fill-opacity:1;stroke:#724222;stroke-width:1.3935;stroke-linecap:round;stroke-linejoin:round;stroke-miterlimit:8;stroke-dasharray:none;stroke-opacity:1;stop-color:#000000"
         d="m 15.895857,83.521811 c 0,0 -5.9277895,0.707631 -6.0587314,3.817361 -0.130934,3.10973 3.8721164,3.176458 5.2255494,3.081817 1.353432,-0.09466 2.877415,-1.173118 2.738302,-3.162521 -0.139112,-1.989403 -2.097491,-6.099843 -6.62655,-5.783141 -4.5290645,0.316704 -5.8518631,4.583394 -5.7111357,6.595886 0.1407282,2.012495 1.9184736,2.985317 3.3092533,2.888063 1.3907804,-0.09725 5.2688574,-1.104407 4.7486204,-3.901196 -0.520236,-2.79679 -6.7523213,-2.939261 -6.7523213,-2.939261"
         id="path5536"
         sodipodi:nodetypes="czzzzzzzc" /><g
         id="g7776"
         transform="matrix(0.99748575,0.0692016,-0.07031588,0.99764235,-16.387003,-42.989261)"><path
           style="color:#000000;fill:#9a5426;stroke:#000000;stroke-width:1.3935;stroke-linecap:round;stroke-linejoin:round;stroke-miterlimit:8;stroke-dasharray:none;stroke-opacity:1;paint-order:markers stroke fill;fill-opacity:1"
           d="m 34.388672,79.154297 c -2.477021,0.173211 -4.170837,1.474829 -5.144531,2.978515 -0.973695,1.503687 -1.298195,3.169359 -1.214844,4.361329 0.08406,1.202116 0.683913,2.150495 1.460937,2.740234 0.777025,0.589739 1.716483,0.854314 2.59375,0.792969 0.817397,-0.05716 2.174502,-0.337626 3.386719,-1.027344 0.606109,-0.344859 1.176686,-0.797953 1.572266,-1.417969 0.39558,-0.620016 0.585677,-1.417744 0.425781,-2.277344 -0.175603,-0.94404 -0.835494,-1.636437 -1.59375,-2.105468 -0.758256,-0.469031 -1.646385,-0.761783 -2.501953,-0.964844 -1.049984,-0.249204 -1.414379,-0.22262 -2.041016,-0.269531 0.762965,-0.725532 1.703506,-1.320562 3.152344,-1.421875 a 0.69674999,0.69674999 0 0 0 0.646484,-0.742188 0.69674999,0.69674999 0 0 0 -0.742187,-0.646484 z m -4.117188,4.068359 c 0.222134,0.0077 1.373684,0.03553 2.779297,0.369141 0.767481,0.182155 1.535222,0.44869 2.091797,0.792969 0.556575,0.344278 0.870563,0.719475 0.955078,1.173828 0.100222,0.538793 1.89e-4,0.914976 -0.228515,1.273437 -0.228704,0.358461 -0.615664,0.688347 -1.087891,0.957031 -0.944455,0.537369 -2.22154,0.807563 -2.794922,0.847657 -0.513511,0.03591 -1.159573,-0.136238 -1.654297,-0.511719 -0.494723,-0.375481 -0.855442,-0.918139 -0.912109,-1.728516 -0.05234,-0.748436 0.217377,-2.032783 0.851562,-3.173828 z"
           id="path5538" /><path
           style="color:#000000;fill:#9a5426;stroke:#000000;stroke-width:1.3935;stroke-linecap:round;stroke-linejoin:round;stroke-miterlimit:8;stroke-dasharray:none;stroke-opacity:1;paint-order:markers stroke fill;fill-opacity:1"
           d="m 34.388672,79.154297 a 0.69674999,0.69674999 0 0 0 -0.646485,0.742187 0.69674999,0.69674999 0 0 0 0.742188,0.646485 c 1.438022,-0.100556 2.458139,0.360228 3.322266,0.976562 -0.599559,0.110281 -0.923716,0.107681 -1.875,0.466797 -0.797712,0.301142 -1.620371,0.706623 -2.291016,1.294922 -0.670645,0.588299 -1.196296,1.405251 -1.238281,2.402344 -0.03901,0.926623 0.251195,1.719432 0.738281,2.289062 0.487086,0.569631 1.133106,0.918784 1.789062,1.142578 1.311913,0.447589 2.707593,0.42645 3.44336,0.375 0.842272,-0.05891 1.707104,-0.411595 2.371094,-1.072265 0.663989,-0.660671 1.096189,-1.653926 1.013671,-2.833985 -0.0831,-1.188351 -0.650638,-2.800034 -1.835937,-4.166015 -1.185299,-1.365981 -3.052458,-2.437142 -5.533203,-2.263672 z m 4.664062,3.480469 c 0.805871,1.058918 1.263172,2.311564 1.314453,3.044921 0.0566,0.809343 -0.203888,1.350427 -0.605468,1.75 -0.401581,0.399574 -0.97517,0.634172 -1.486328,0.669922 -0.617665,0.04319 -1.899297,0.03486 -2.894532,-0.304687 -0.497617,-0.169774 -0.912685,-0.413982 -1.18164,-0.728516 -0.268955,-0.314534 -0.430749,-0.695978 -0.404297,-1.324219 0.02349,-0.55777 0.287984,-0.995069 0.765625,-1.414062 0.477641,-0.418993 1.16268,-0.774581 1.863281,-1.039063 1.307897,-0.493739 2.458852,-0.631966 2.628906,-0.654296 z"
           id="path5540" /><path
           id="path5552"
           style="color:#000000;fill:#9a5426;stroke:none;stroke-width:1.3935;stroke-linecap:round;stroke-linejoin:round;stroke-miterlimit:8;stroke-dasharray:none;stroke-opacity:1;paint-order:markers stroke fill;fill-opacity:1"
           d="m 34.388818,79.154386 c -2.477018,0.173211 -4.171194,1.474701 -5.144887,2.978386 0.554074,-0.03875 1.394361,-0.119242 2.087986,-0.167745 0.762964,-0.725532 1.7038,-1.320663 3.152637,-1.421976 1.43802,-0.100556 2.458051,0.360125 3.322177,0.976459 0.55431,-0.03876 1.45774,-0.05574 2.114976,-0.101699 -1.185298,-1.365979 -3.052146,-2.436894 -5.532889,-2.263425 z" /><path
           style="color:#000000;fill:none;stroke:#000000;stroke-width:1.3935;stroke-linecap:round;stroke-linejoin:round;stroke-miterlimit:8;stroke-dasharray:none;stroke-opacity:1;paint-order:markers stroke fill"
           d="M 36.89037,84.073825 C 36.608665,83.724091 36.254128,83.433734 35.875,83.199219 35.116744,82.730188 34.228615,82.437436 33.373047,82.234375 m -0.322266,1.357422 c 0.767481,0.182155 1.535222,0.44869 2.091797,0.792969"
           id="path5559"
           sodipodi:nodetypes="csccc" /><path
           style="color:#000000;fill:#9a5426;stroke:none;stroke-width:1.3935;stroke-linecap:round;stroke-linejoin:round;stroke-miterlimit:8;stroke-dasharray:none;stroke-opacity:1;paint-order:markers stroke fill;fill-opacity:1"
           d="M 37.46875,85.304687 C 37.293147,84.360647 36.633256,83.66825 35.875,83.199219 35.116744,82.730188 34.228615,82.437436 33.373047,82.234375 32.323063,81.985171 31.958668,82.011755 31.332031,81.964844 l -1.060547,1.257812 c 0.222134,0.0077 1.373684,0.03553 2.779297,0.369141 0.767481,0.182155 1.535222,0.44869 2.091797,0.792969 0.556575,0.344278 0.870563,0.719475 0.955078,1.173828 z"
           id="path5567"
           sodipodi:nodetypes="cssccsscc" /></g></g><path
       style="fill:#ffdb26;fill-opacity:1;stroke:#000000;stroke-width:0.79375;stroke-linecap:round;stroke-linejoin:round;stroke-dasharray:none;stroke-opacity:1;paint-order:normal;stop-color:#000000"
       d="m 10.004075,19.121173 c -1.4238886,3.039424 2.342169,4.371724 4.594902,1.690642 3.202672,3.608669 6.496348,1.194297 5.575255,-1.100462"
       id="path7824" /><path
       style="fill:none;fill-opacity:1;stroke:#000000;stroke-width:0.79375;stroke-linecap:round;stroke-linejoin:round;stroke-dasharray:none;stroke-opacity:1;paint-order:normal;stop-color:#000000"
       d="m 22.889183,18.104059 4.87622,-0.734341"
       id="path7889" /><path
       style="fill:none;fill-opacity:1;stroke:#000000;stroke-width:0.79375;stroke-linecap:round;stroke-linejoin:round;stroke-dasharray:none;stroke-opacity:1;paint-order:normal;stop-color:#000000"
       d="m 22.899838,20.260593 4.684517,0.851137"
       id="path7891" /><path
       style="fill:none;fill-opacity:1;stroke:#000000;stroke-width:0.79375;stroke-linecap:round;stroke-linejoin:round;stroke-dasharray:none;stroke-opacity:1;paint-order:normal;stop-color:#000000"
       d="M 8.2565339,17.019465 5.9675926,15.975012"
       id="path7893" /><path
       style="fill:none;fill-opacity:1;stroke:#000000;stroke-width:0.79375;stroke-linecap:round;stroke-linejoin:round;stroke-dasharray:none;stroke-opacity:1;paint-order:normal;stop-color:#000000"
       d="M 7.7354506,18.902572 5.5452359,18.75928"
       id="path7895" /></g><metadata
     id="metadata4277"><rdf:RDF><cc:Work
         rdf:about=""><dc:title>Gutkato manĝas brecon</dc:title><dc:creator><cc:Agent><dc:title>Tirifto</dc:title></cc:Agent></dc:creator><dc:subject><rdf:Bag><rdf:li>gutkato</rdf:li><rdf:li>gutkatoj</rdf:li><rdf:li>federujo</rdf:li></rdf:Bag></dc:subject><cc:license
           rdf:resource="http://artlibre.org/licence/lal" /><dc:description>Gutkato, destinita al uzo kiel glumarko aŭ propra bildosigno, ekzemple en Federujo aŭ aliaj retaj komunikiloj.</dc:description><dc:date>2024</dc:date></cc:Work><cc:License
         rdf:about="http://artlibre.org/licence/lal"><cc:permits
           rdf:resource="http://creativecommons.org/ns#Reproduction" /><cc:permits
           rdf:resource="http://creativecommons.org/ns#Distribution" /><cc:permits
           rdf:resource="http://creativecommons.org/ns#DerivativeWorks" /><cc:requires
           rdf:resource="http://creativecommons.org/ns#ShareAlike" /><cc:requires
           rdf:resource="http://creativecommons.org/ns#Notice" /><cc:requires
           rdf:resource="http://creativecommons.org/ns#Attribution" /></cc:License></rdf:RDF></metadata></svg>
