<?xml version="1.0" encoding="UTF-8" standalone="no"?>
<!-- Created with Inkscape (http://www.inkscape.org/) -->

<svg
   width="128"
   height="128"
   viewBox="0 0 33.866666 33.866666"
   version="1.1"
   id="svg5"
   xml:space="preserve"
   sodipodi:docname="gutkato_dronfeiĉo.svg"
   inkscape:version="1.2.2 (b0a8486541, 2022-12-01)"
   xmlns:inkscape="http://www.inkscape.org/namespaces/inkscape"
   xmlns:sodipodi="http://sodipodi.sourceforge.net/DTD/sodipodi-0.dtd"
   xmlns:xlink="http://www.w3.org/1999/xlink"
   xmlns="http://www.w3.org/2000/svg"
   xmlns:svg="http://www.w3.org/2000/svg"
   xmlns:rdf="http://www.w3.org/1999/02/22-rdf-syntax-ns#"
   xmlns:cc="http://creativecommons.org/ns#"
   xmlns:dc="http://purl.org/dc/elements/1.1/"><sodipodi:namedview
     id="namedview15"
     pagecolor="#505050"
     bordercolor="#eeeeee"
     borderopacity="1"
     inkscape:showpageshadow="0"
     inkscape:pageopacity="0"
     inkscape:pagecheckerboard="0"
     inkscape:deskcolor="#505050"
     showgrid="false"
     showguides="false"
     inkscape:zoom="2.6074563"
     inkscape:cx="69.224554"
     inkscape:cy="32.407063"
     inkscape:window-width="1232"
     inkscape:window-height="750"
     inkscape:window-x="48"
     inkscape:window-y="26"
     inkscape:window-maximized="1"
     inkscape:current-layer="g1071" /><title
     id="title4279">Gutkato dronfeiĉo</title><defs
     id="defs2"><clipPath
       clipPathUnits="userSpaceOnUse"
       id="clipPath4478"><path
         style="fill:#759c90;fill-opacity:1;stroke:none;stroke-width:0.79375;stroke-linecap:round;stroke-linejoin:round;stroke-miterlimit:8;stroke-dasharray:none;stroke-opacity:1;paint-order:normal;stop-color:#000000"
         d="m 29.427295,49.150916 c -2.238361,-0.599767 -3.878217,-3.141164 -5.798356,-3.141164 0,0 -4.87646,3.231241 -10.329868,3.231242 -5.2727848,10e-7 -8.4395155,-3.50353 -8.897957,-5.214457 0.4183404,-1.561268 3.8992496,-5.214456 8.897957,-5.214456 5.127997,0 10.329868,3.231242 10.329868,3.231242 1.829198,-10e-7 3.224376,-2.451468 5.798356,-3.141164 0,0 -1.058334,1.772792 -1.058334,2.562188 4e-6,0.789396 1.058334,2.56219 1.058334,2.56219 0,0 -1.058334,1.770779 -1.058334,2.562191 4e-6,0.791412 1.058334,2.562188 1.058334,2.562188 z"
         id="use4480"
         sodipodi:nodetypes="ccscscczczc" /></clipPath><clipPath
       clipPathUnits="userSpaceOnUse"
       id="clipPath4478-3"><path
         style="fill:#759c90;fill-opacity:1;stroke:none;stroke-width:0.79375;stroke-linecap:round;stroke-linejoin:round;stroke-miterlimit:8;stroke-dasharray:none;stroke-opacity:1;paint-order:normal;stop-color:#000000"
         d="m 29.427295,49.150916 c -2.238361,-0.599767 -3.878217,-3.141164 -5.798356,-3.141164 0,0 -4.87646,3.231241 -10.329868,3.231242 -5.2727848,10e-7 -8.4395155,-3.50353 -8.897957,-5.214457 0.4183404,-1.561268 3.8992496,-5.214456 8.897957,-5.214456 5.127997,0 10.329868,3.231242 10.329868,3.231242 1.829198,-10e-7 3.224376,-2.451468 5.798356,-3.141164 0,0 -1.058334,1.772792 -1.058334,2.562188 4e-6,0.789396 1.058334,2.56219 1.058334,2.56219 0,0 -1.058334,1.770779 -1.058334,2.562191 4e-6,0.791412 1.058334,2.562188 1.058334,2.562188 z"
         id="use4480-6"
         sodipodi:nodetypes="ccscscczczc" /></clipPath><clipPath
       clipPathUnits="userSpaceOnUse"
       id="clipPath4478-7"><use
         x="0"
         y="0"
         xlink:href="#path1785"
         id="use4480-5"
         style="stroke-width:0.999999"
         transform="rotate(4,-253.25675,42.885369)" /></clipPath></defs><path
     style="color:#000000;fill:#23db37;stroke:#000000;stroke-width:0.529167;stroke-linecap:square;stroke-linejoin:round;stroke-miterlimit:8;stroke-dasharray:none;stroke-opacity:1"
     d="m 15.121502,4.8667955 -0.6875,0.3964844 -7.7226559,4.4667969 -4.2285156,0.5234382 -0.7890625,0.0957 0.1953125,1.576172 0.7871094,-0.09766 4.3906249,-0.541016 a 0.79382936,0.79382936 0 0 0 0.3007813,-0.101556 l 7.8613279,-4.5468751 0.6875,-0.3964844 z"
     id="path6003" /><g
     id="layer1"><path
       style="fill:#ffdb26;fill-opacity:1;stroke:#000000;stroke-width:1.05833;stroke-linecap:round;stroke-linejoin:round;stroke-dasharray:none;paint-order:normal;stop-color:#000000"
       d="M 6.3460128,10.987509 C 6.0131876,8.1033126 6.9112569,5.0355095 7.1713329,3.7040818 c 1.6823697,0.883682 3.1509471,1.8173157 5.1540591,3.4426941 3.460025,-0.9271224 7.675181,-0.4344139 10.458981,0.611344 2.188665,-1.101117 4.320882,-1.7567683 7.249119,-1.9517024 0.321474,1.7913943 -0.0283,5.5961075 -1.06115,7.5149165 1.483302,5.222627 1.500916,12.296756 -0.04318,13.840869 C 24.518229,31.573194 5.6799495,31.273305 4.0639285,25.242152 3.064468,21.512066 4.2865251,13.752064 6.3460128,10.987509 Z"
       id="path236" /><ellipse
       style="fill:#000000;fill-opacity:1;stroke:none;stroke-width:2.11668;stroke-linecap:round;stroke-linejoin:round;stroke-dasharray:none;paint-order:stroke markers fill;stop-color:#000000"
       id="path6982"
       cx="12.96371"
       cy="12.570978"
       rx="1.6752723"
       ry="2.1418331"
       transform="rotate(8)" /><use
       x="0"
       y="0"
       xlink:href="#path6982"
       id="use7712"
       transform="translate(8.953004,0.69247082)"
       style="stroke-width:1.07136" /><path
       style="fill:none;fill-opacity:1;stroke:#000000;stroke-width:0.79375;stroke-linecap:round;stroke-linejoin:round;stroke-dasharray:none;stroke-opacity:1;paint-order:normal;stop-color:#000000"
       d="m 22.889183,18.104059 4.87622,-0.734341"
       id="path7889" /><path
       style="fill:none;fill-opacity:1;stroke:#000000;stroke-width:0.79375;stroke-linecap:round;stroke-linejoin:round;stroke-dasharray:none;stroke-opacity:1;paint-order:normal;stop-color:#000000"
       d="m 22.899838,20.260593 4.684517,0.851137"
       id="path7891" /><path
       style="fill:none;fill-opacity:1;stroke:#000000;stroke-width:0.79375;stroke-linecap:round;stroke-linejoin:round;stroke-dasharray:none;stroke-opacity:1;paint-order:normal;stop-color:#000000"
       d="M 8.2565339,17.019465 5.9675926,15.975012"
       id="path7893" /><path
       style="fill:none;fill-opacity:1;stroke:#000000;stroke-width:0.79375;stroke-linecap:round;stroke-linejoin:round;stroke-dasharray:none;stroke-opacity:1;paint-order:normal;stop-color:#000000"
       d="M 7.7354506,18.902572 5.5452359,18.75928"
       id="path7895" /></g><metadata
     id="metadata4277"><rdf:RDF><cc:Work
         rdf:about=""><dc:title>Gutkato dronfeiĉo</dc:title><dc:creator><cc:Agent><dc:title>Tirifto</dc:title></cc:Agent></dc:creator><dc:subject><rdf:Bag><rdf:li>gutkato</rdf:li><rdf:li>gutkatoj</rdf:li><rdf:li>federujo</rdf:li></rdf:Bag></dc:subject><cc:license
           rdf:resource="http://artlibre.org/licence/lal" /><dc:description>Gutkato, destinita al uzo kiel glumarko aŭ propra bildosigno, ekzemple en Federujo aŭ aliaj retaj komunikiloj.</dc:description><dc:date>2024</dc:date></cc:Work><cc:License
         rdf:about="http://artlibre.org/licence/lal"><cc:permits
           rdf:resource="http://creativecommons.org/ns#Reproduction" /><cc:permits
           rdf:resource="http://creativecommons.org/ns#Distribution" /><cc:permits
           rdf:resource="http://creativecommons.org/ns#DerivativeWorks" /><cc:requires
           rdf:resource="http://creativecommons.org/ns#ShareAlike" /><cc:requires
           rdf:resource="http://creativecommons.org/ns#Notice" /><cc:requires
           rdf:resource="http://creativecommons.org/ns#Attribution" /></cc:License></rdf:RDF></metadata><g
     id="g1071"
     transform="translate(-0.13240406,0.13242075)"><ellipse
       style="fill:#269734;fill-opacity:1;stroke:#000000;stroke-width:0.79375;stroke-linecap:round;stroke-linejoin:round;stroke-miterlimit:8;stop-color:#000000"
       id="path295"
       cx="17.499807"
       cy="7.9209895"
       rx="6.0149264"
       ry="1.9867883" /><path
       style="color:#000000;fill:#2198e6;stroke-linecap:square;stroke-linejoin:round;stroke-miterlimit:8;stroke-width:0.52916666;stroke-dasharray:none;stroke:#000000;stroke-opacity:1"
       d="M 14.130859,4.8320312 13.388672,5.1152344 6.4921875,7.7519531 A 0.79382936,0.79382936 0 0 0 6.0332031,8.2109375 l -1.4472656,3.8164065 -2.2089844,2.105469 -0.5742187,0.546875 1.09375,1.15039 L 3.4707031,15.28125 5.8125,13.052734 A 0.79382936,0.79382936 0 0 0 6.0078125,12.759766 L 7.390625,9.1074219 13.955078,6.5976562 14.697266,6.3144531 Z"
       id="path6001" /><path
       style="color:#000000;fill:#e67021;stroke-linecap:square;stroke-linejoin:round;stroke-miterlimit:8;stroke-width:0.52916666;stroke-dasharray:none;stroke:#000000;stroke-opacity:1"
       d="m 20.376953,4.7421875 -0.685547,1.4296875 0.716797,0.34375 3.943359,1.890625 4.164063,5.689453 a 0.79382936,0.79382936 0 0 0 0.207031,0.195313 L 31.460937,16.080078 32.125,16.513672 32.994141,15.185547 32.328125,14.75 29.710937,13.041016 25.513672,7.3066406 A 0.79382936,0.79382936 0 0 0 25.216797,7.0605469 L 21.09375,5.0839844 Z"
       id="path4481" /><path
       style="color:#000000;fill:#e62929;stroke-linecap:square;stroke-linejoin:round;stroke-miterlimit:8;stroke-width:0.52916666;stroke-dasharray:none;stroke:#000000;stroke-opacity:1"
       d="M 20.224609,5.3730469 20.207031,6.9609375 21,6.9707031 l 5.113281,0.054687 3.15625,4.6816404 a 0.79382936,0.79382936 0 0 0 0.263672,0.244141 l 2.207031,1.267578 0.689453,0.394531 0.789063,-1.376953 -0.6875,-0.394531 -2.048828,-1.175781 -3.28711,-4.8750004 A 0.79382936,0.79382936 0 0 0 26.546875,5.4414062 l -5.529297,-0.058594 z"
       id="path4263" /><path
       id="rect1010"
       style="fill:#269734;stroke:#000000;stroke-width:0.79375;stroke-linecap:round;stroke-linejoin:round;stroke-miterlimit:8;stop-color:#000000;fill-opacity:1"
       d="m 21.562126,7.4962882 c 0,-1.986651 0.01491,-3.792116 0.0149,-5.5149012 1.95e-4,-0.00148 3.79e-4,-0.00295 5.52e-4,-0.00442 -8.1e-5,-0.5960072 -1.825834,-1.07914306 -4.077882,-1.07910027 l 3e-6,-4.39e-6 C 15.247869,0.897902 13.422451,1.3810143 13.42237,1.9769645 v 5.5193237"
       sodipodi:nodetypes="ccccccc" /><ellipse
       style="fill:#48b256;fill-opacity:1;stroke:none;stroke-width:0.793749;stroke-linecap:round;stroke-linejoin:round;stroke-miterlimit:8;stop-color:#000000"
       id="ellipse11726"
       cx="17.499807"
       cy="2.1001558"
       rx="2.9946129"
       ry="0.60761285" /></g><path
     style="fill:#269734;fill-opacity:1;stroke:#000000;stroke-width:0.79375;stroke-linecap:round;stroke-linejoin:round;stroke-dasharray:none;paint-order:normal;stop-color:#000000"
     d="m 30.067065,22.578246 c -0.01225,0.310625 -0.03043,0.612264 -0.05458,0.903114 -0.04829,0.5817 -0.120418,1.120244 -0.216573,1.601216 -0.192311,0.961944 -0.480728,1.693599 -0.866752,2.079627 C 24.518224,31.573189 5.67995,31.273305 4.0639285,25.242152 3.8140634,24.30963 3.7030413,23.125239 3.7092413,21.83 c 0.00155,-0.32381 0.010426,-0.654548 0.02629,-0.990011 0.9566749,1.507774 2.7170948,2.599541 4.9105046,3.331759 1.0967051,0.366109 2.3016571,0.642331 3.5685131,0.835722 0.633428,0.0967 1.282331,3.347685 1.940917,3.403848 0.658587,0.05616 1.326855,-3.0825 1.999014,-3.065105 2.688635,0.06958 5.439504,-0.163936 7.881853,-0.644083 2.44235,-0.480147 4.576178,-1.206928 6.030732,-2.123884 z"
     id="path298"
     sodipodi:nodetypes="cssssscsssssc" /><path
     style="fill:#48b256;fill-opacity:1;stroke:#000000;stroke-width:0.79375;stroke-linecap:round;stroke-linejoin:round;stroke-dasharray:none;paint-order:normal;stop-color:#000000"
     d="m 8.6460359,24.171748 c 1.0967051,0.366109 2.3016571,0.642331 3.5685131,0.835722 0.633428,0.0967 1.282331,3.347685 1.940917,3.403848 0.658587,0.05616 1.326855,-3.0825 1.999014,-3.065105 1.344318,0.03479 2.704194,-0.0062 4.033284,-0.115894 -3.019481,2.241515 -5.12988,3.284591 -6.031936,3.181048 -0.902056,-0.103543 -2.807674,-0.904569 -5.5097921,-4.239619 z"
     id="path1678"
     sodipodi:nodetypes="csssczc" /><path
     style="fill:#e2bc3e;fill-opacity:1;stroke:none;stroke-width:0.79375;stroke-linecap:round;stroke-linejoin:round;stroke-miterlimit:8;stroke-dasharray:none;stroke-opacity:1;paint-order:normal;stop-color:#000000"
     d="m 29.175753,29.416611 c -2.274746,-0.442166 -4.087886,-2.862981 -6.003348,-2.729039 0,0 -4.639181,3.563534 -10.079305,3.943946 -5.2599401,0.367812 -8.6633508,-2.906285 -9.2400238,-4.581065 0.3084128,-1.586647 3.5260092,-5.473752 8.5125398,-5.822444 5.115506,-0.357711 10.530105,2.502796 10.530105,2.502796 1.824742,-0.127599 3.045516,-2.670418 5.565115,-3.537985 0,0 -0.932092,1.842299 -0.877027,2.629772 0.05507,0.787473 1.234486,2.482123 1.234486,2.482123 0,0 -0.932233,1.840291 -0.877027,2.629775 0.05521,0.789484 1.234485,2.482121 1.234485,2.482121 z"
     id="path1785"
     sodipodi:nodetypes="ccscscczczc" /><path
     style="fill:none;fill-opacity:1;stroke:#d19333;stroke-width:0.79375;stroke-linecap:round;stroke-linejoin:round;stroke-miterlimit:8;stroke-dasharray:none;stroke-opacity:1;paint-order:normal;stop-color:#000000"
     d="m 4.9275699,27.393043 c 0.9592155,0.117778 2.1176594,-0.208208 3.0229107,-0.592455"
     id="path3515"
     sodipodi:nodetypes="cc" /><g
     id="g4474"
     clip-path="url(#clipPath4478-7)"
     transform="rotate(-4,-253.25675,42.885369)"
     style="fill:#e2bc3e;fill-opacity:1;stroke:#d19333;stroke-opacity:1"><use
       x="0"
       y="0"
       xlink:href="#path3625"
       id="use4451"
       transform="translate(11.641668)"
       style="fill:#e2bc3e;fill-opacity:1;stroke:#d19333;stroke-opacity:1" /><use
       x="0"
       y="0"
       xlink:href="#g4434"
       id="use4438"
       transform="translate(4.2333335)"
       style="fill:#e2bc3e;fill-opacity:1;stroke:#d19333;stroke-opacity:1" /><use
       x="0"
       y="0"
       xlink:href="#use4420"
       id="use4436"
       transform="translate(3.7041668)"
       style="fill:#e2bc3e;fill-opacity:1;stroke:#d19333;stroke-opacity:1" /><g
       id="g4434"
       style="fill:#e2bc3e;fill-opacity:1;stroke:#d19333;stroke-opacity:1"><use
         x="0"
         y="0"
         xlink:href="#use3635"
         id="use4422"
         transform="translate(3.7041668)"
         style="fill:#e2bc3e;fill-opacity:1;stroke:#d19333;stroke-opacity:1" /><use
         x="0"
         y="0"
         xlink:href="#use3637"
         id="use4424"
         transform="translate(3.7041668)"
         style="fill:#e2bc3e;fill-opacity:1;stroke:#d19333;stroke-opacity:1" /><use
         x="0"
         y="0"
         xlink:href="#use4413"
         id="use4426"
         transform="translate(3.7041668)"
         style="fill:#e2bc3e;fill-opacity:1;stroke:#d19333;stroke-opacity:1" /><use
         x="0"
         y="0"
         xlink:href="#use3649"
         id="use4428"
         transform="translate(3.7041668)"
         style="fill:#e2bc3e;fill-opacity:1;stroke:#d19333;stroke-opacity:1" /></g><g
       id="use4420"
       transform="translate(4.2333335)"
       style="fill:#e2bc3e;fill-opacity:1;stroke:#d19333;stroke-opacity:1"><use
         x="0"
         y="0"
         xlink:href="#path3625"
         id="use4440"
         transform="rotate(-15,-0.04991836,44.448748)"
         style="fill:#e2bc3e;fill-opacity:1;stroke:#d19333;stroke-opacity:1" /><use
         x="0"
         y="0"
         xlink:href="#use3631"
         id="use4442"
         transform="rotate(30,-0.26611156,44.317836)"
         style="fill:#e2bc3e;fill-opacity:1;stroke:#d19333;stroke-opacity:1" /><path
         style="fill:#e2bc3e;fill-opacity:1;stroke:#d19333;stroke-width:0.79375;stroke-linecap:round;stroke-linejoin:round;stroke-miterlimit:8;stroke-dasharray:none;stroke-opacity:1;paint-order:normal;stop-color:#000000"
         d="m 11.117558,45.358747 c 0,0 2.310735,-0.445963 2.310734,-1.334103 0,-0.88814 -2.304176,-1.330315 -2.304176,-1.330315"
         id="path4444"
         sodipodi:nodetypes="czc" /></g><path
       style="fill:#e2bc3e;fill-opacity:1;stroke:#d19333;stroke-width:0.79375;stroke-linecap:round;stroke-linejoin:round;stroke-miterlimit:8;stroke-dasharray:none;stroke-opacity:1;paint-order:normal;stop-color:#000000"
       d="m 13.412305,43.381489 c 0,0 2.232757,-0.743759 2.11683,-1.624301 -0.115925,-0.880542 -2.458104,-1.018179 -2.458104,-1.018179"
       id="use3635"
       sodipodi:nodetypes="czc" /><path
       style="fill:#e2bc3e;fill-opacity:1;stroke:#d19333;stroke-width:0.79375;stroke-linecap:round;stroke-linejoin:round;stroke-miterlimit:8;stroke-dasharray:none;stroke-opacity:1;paint-order:normal;stop-color:#000000"
       d="m 13.070221,47.313211 c 0,0 2.349176,-0.140536 2.465101,-1.021078 0.115925,-0.880542 -2.110823,-1.61969 -2.110823,-1.61969"
       id="use3637"
       sodipodi:nodetypes="czc" /><use
       x="0"
       y="0"
       xlink:href="#use3649"
       id="use4413"
       transform="matrix(1,0,0,-1,-2.6047274e-7,88.239105)"
       style="fill:#e2bc3e;fill-opacity:1;stroke:#d19333;stroke-opacity:1" /><use
       x="0"
       y="0"
       xlink:href="#use3631"
       id="use3649"
       transform="matrix(1,0,0,1.0000455,2.6458334,-1.7215101)"
       style="stroke-width:0.999977;fill:#e2bc3e;fill-opacity:1;stroke:#d19333;stroke-opacity:1" /><use
       x="0"
       y="0"
       xlink:href="#path3625"
       id="use3631"
       transform="rotate(-15,-0.04991836,44.448748)"
       style="fill:#e2bc3e;fill-opacity:1;stroke:#d19333;stroke-opacity:1" /><use
       x="0"
       y="0"
       xlink:href="#use3631"
       id="use3633"
       transform="rotate(30,-0.26611156,44.317836)"
       style="fill:#e2bc3e;fill-opacity:1;stroke:#d19333;stroke-opacity:1" /><path
       style="fill:#e2bc3e;fill-opacity:1;stroke:#d19333;stroke-width:0.79375;stroke-linecap:round;stroke-linejoin:round;stroke-miterlimit:8;stroke-dasharray:none;stroke-opacity:1;paint-order:normal;stop-color:#000000"
       d="m 11.117558,45.358747 c 0,0 2.310735,-0.445963 2.310734,-1.334103 0,-0.88814 -2.304176,-1.330315 -2.304176,-1.330315"
       id="path3625"
       sodipodi:nodetypes="czc" /></g><path
     style="fill:#e2bc3e;fill-opacity:1;stroke:#d19333;stroke-width:0.79375;stroke-linecap:round;stroke-linejoin:round;stroke-miterlimit:8;stroke-dasharray:none;stroke-opacity:1;paint-order:normal;stop-color:#000000"
     d="m 8.9028607,21.262036 c 2.1326763,3.248602 1.8830333,6.460714 0.6236232,8.918228"
     id="path2567"
     sodipodi:nodetypes="cc" /><path
     style="fill:none;fill-opacity:1;stroke:#000000;stroke-width:0.79375;stroke-linecap:round;stroke-linejoin:round;stroke-miterlimit:8;stroke-dasharray:none;stroke-opacity:1;paint-order:normal;stop-color:#000000"
     d="m 29.175753,29.416611 c -2.274746,-0.442166 -4.087886,-2.862981 -6.003348,-2.729039 0,0 -4.639181,3.563534 -10.079305,3.943946 -5.2599401,0.367812 -8.6633508,-2.906285 -9.2400238,-4.581065 0.3084128,-1.586647 3.5260092,-5.473752 8.5125398,-5.822444 5.115506,-0.357711 10.530105,2.502796 10.530105,2.502796 1.824742,-0.127599 3.045516,-2.670418 5.565115,-3.537985 0,0 -0.932092,1.842299 -0.877027,2.629772 0.05507,0.787473 1.234486,2.482123 1.234486,2.482123 0,0 -0.932233,1.840291 -0.877027,2.629775 0.05521,0.789484 1.234485,2.482121 1.234485,2.482121 z"
     id="path3405"
     sodipodi:nodetypes="ccscscczczc" /><circle
     style="fill:#c2872d;fill-opacity:1;stroke:none;stroke-width:0.79375;stroke-linecap:round;stroke-linejoin:round;stroke-miterlimit:8;stroke-dasharray:none;stroke-opacity:1;paint-order:normal;stop-color:#000000"
     id="path3459"
     cx="6.1614699"
     cy="24.462175"
     r="0.79374999"
     transform="rotate(-4)" /><path
     style="fill:#ffdb26;fill-opacity:1;stroke:#000000;stroke-width:0.79375;stroke-linecap:round;stroke-linejoin:round;stroke-dasharray:none;stroke-opacity:1;paint-order:normal;stop-color:#000000"
     d="m 10.004075,19.121173 c -1.4238886,3.039424 2.342169,4.371724 4.594902,1.690642 3.202672,3.608669 6.496348,1.194297 5.575255,-1.100462"
     id="path7824" /></svg>
