<?xml version="1.0" encoding="UTF-8" standalone="no"?>
<!-- Created with Inkscape (http://www.inkscape.org/) -->

<svg
   width="128"
   height="128"
   viewBox="0 0 33.866666 33.866666"
   version="1.1"
   id="svg5"
   xml:space="preserve"
   sodipodi:docname="gutkato_poto.svg"
   inkscape:version="1.2.2 (b0a8486541, 2022-12-01)"
   xmlns:inkscape="http://www.inkscape.org/namespaces/inkscape"
   xmlns:sodipodi="http://sodipodi.sourceforge.net/DTD/sodipodi-0.dtd"
   xmlns:xlink="http://www.w3.org/1999/xlink"
   xmlns="http://www.w3.org/2000/svg"
   xmlns:svg="http://www.w3.org/2000/svg"
   xmlns:rdf="http://www.w3.org/1999/02/22-rdf-syntax-ns#"
   xmlns:cc="http://creativecommons.org/ns#"
   xmlns:dc="http://purl.org/dc/elements/1.1/"><sodipodi:namedview
     id="namedview9438"
     pagecolor="#505050"
     bordercolor="#eeeeee"
     borderopacity="1"
     inkscape:showpageshadow="0"
     inkscape:pageopacity="0"
     inkscape:pagecheckerboard="0"
     inkscape:deskcolor="#505050"
     showgrid="false"
     inkscape:zoom="3.3657916"
     inkscape:cx="36.544152"
     inkscape:cy="97.599625"
     inkscape:window-width="1232"
     inkscape:window-height="750"
     inkscape:window-x="48"
     inkscape:window-y="26"
     inkscape:window-maximized="1"
     inkscape:current-layer="svg5" /><title
     id="title4279">Gutkato, poto</title><defs
     id="defs2" /><path
     style="fill:#ffdb26;fill-opacity:1;stroke:#000000;stroke-width:1.05833;stroke-linecap:round;stroke-linejoin:round;stroke-dasharray:none;paint-order:normal;stop-color:#000000"
     d="M 6.3460128,10.987509 C 6.0131876,8.1033126 6.9112569,5.0355095 7.1713329,3.7040818 c 1.6823697,0.883682 3.1509471,1.8173157 5.1540591,3.4426941 3.460025,-0.9271224 7.675181,-0.4344139 10.458981,0.611344 2.188665,-1.101117 4.320882,-1.7567683 7.249119,-1.9517024 0.321474,1.7913943 -0.0283,5.5961075 -1.06115,7.5149165 1.483302,5.222627 1.500916,12.296756 -0.04318,13.840869 C 24.518229,31.573194 5.6799495,31.273305 4.0639285,25.242152 3.064468,21.512066 4.2865251,13.752064 6.3460128,10.987509 Z"
     id="path236" /><path
     style="fill:none;fill-opacity:1;stroke:#000000;stroke-width:0.79375;stroke-linecap:round;stroke-linejoin:round;stroke-dasharray:none;stroke-opacity:1;paint-order:stroke markers fill;stop-color:#000000"
     d="m 10.004075,19.121173 c -1.4238886,3.039424 2.342169,4.371724 4.594902,1.690642 3.202672,3.608669 6.496348,1.194297 5.575255,-1.100462"
     id="path7824" /><ellipse
     style="fill:#000000;fill-opacity:1;stroke:none;stroke-width:2.11668;stroke-linecap:round;stroke-linejoin:round;stroke-dasharray:none;paint-order:stroke markers fill;stop-color:#000000"
     id="path6982"
     cx="12.96371"
     cy="12.570978"
     rx="1.6752723"
     ry="2.1418331"
     transform="rotate(8)" /><use
     x="0"
     y="0"
     xlink:href="#path6982"
     id="use7712"
     transform="translate(8.953004,0.69247082)"
     style="stroke-width:1.07136" /><path
     style="fill:none;fill-opacity:1;stroke:#000000;stroke-width:0.79375;stroke-linecap:round;stroke-linejoin:round;stroke-dasharray:none;stroke-opacity:1;paint-order:normal;stop-color:#000000"
     d="m 22.889183,18.104059 4.87622,-0.734341"
     id="path7889" /><path
     style="fill:none;fill-opacity:1;stroke:#000000;stroke-width:0.79375;stroke-linecap:round;stroke-linejoin:round;stroke-dasharray:none;stroke-opacity:1;paint-order:normal;stop-color:#000000"
     d="m 22.899838,20.260593 4.684517,0.851137"
     id="path7891" /><path
     style="fill:none;fill-opacity:1;stroke:#000000;stroke-width:0.79375;stroke-linecap:round;stroke-linejoin:round;stroke-dasharray:none;stroke-opacity:1;paint-order:normal;stop-color:#000000"
     d="M 8.2565339,17.019465 5.9675926,15.975012"
     id="path7893" /><path
     style="fill:none;fill-opacity:1;stroke:#000000;stroke-width:0.79375;stroke-linecap:round;stroke-linejoin:round;stroke-dasharray:none;stroke-opacity:1;paint-order:normal;stop-color:#000000"
     d="M 7.7354506,18.902572 5.5452359,18.75928"
     id="path7895" /><metadata
     id="metadata4277"><rdf:RDF><cc:Work
         rdf:about=""><dc:title>Gutkato, poto</dc:title><dc:creator><cc:Agent><dc:title>Tirifto</dc:title></cc:Agent></dc:creator><dc:subject><rdf:Bag><rdf:li>gutkato</rdf:li><rdf:li>gutkatoj</rdf:li><rdf:li>federujo</rdf:li></rdf:Bag></dc:subject><cc:license
           rdf:resource="http://artlibre.org/licence/lal" /><dc:description>Gutkato, destinita al uzo kiel glumarko aŭ propra bildosigno, ekzemple en Federujo aŭ aliaj retaj komunikiloj.</dc:description><dc:date>2024</dc:date></cc:Work><cc:License
         rdf:about="http://artlibre.org/licence/lal"><cc:permits
           rdf:resource="http://creativecommons.org/ns#Reproduction" /><cc:permits
           rdf:resource="http://creativecommons.org/ns#Distribution" /><cc:permits
           rdf:resource="http://creativecommons.org/ns#DerivativeWorks" /><cc:requires
           rdf:resource="http://creativecommons.org/ns#ShareAlike" /><cc:requires
           rdf:resource="http://creativecommons.org/ns#Notice" /><cc:requires
           rdf:resource="http://creativecommons.org/ns#Attribution" /></cc:License></rdf:RDF></metadata><g
     id="g9586"
     transform="rotate(20,18.60407,1.8632772)"><g
       id="g9788"
       transform="rotate(-80,12.599192,26.650953)"><path
         style="fill:#ffdb26;fill-opacity:1;stroke:#000000;stroke-width:0.79375;stroke-linecap:round;stroke-linejoin:round;stroke-dasharray:none;stroke-opacity:1;paint-order:markers fill stroke;stop-color:#000000"
         d="m 9.8210863,28.949451 c 0,-3.977729 0.8181757,-5.656198 2.7781057,-5.655328 1.95993,8.7e-4 2.778105,1.678866 2.778105,5.655328"
         id="path9576"
         sodipodi:nodetypes="csc" /><g
         id="g2360"
         transform="matrix(-0.34202014,0.93969262,0.93969262,0.34202014,-2.0894044,23.535565)"><circle
           style="fill:#c2748e;fill-opacity:1;stroke:none;stroke-width:0.891479;stroke-linecap:round;stroke-linejoin:round;paint-order:markers fill stroke;stop-color:#000000"
           id="circle1002"
           cx="15.844251"
           cy="1.3037357"
           r="0.33072916"
           transform="matrix(-0.34202014,0.93969262,0.93969262,0.34202014,0,0)" /><path
           id="path978"
           style="fill:#c2748e;fill-opacity:1;stroke:none;stroke-width:1.2795;stroke-linecap:round;stroke-linejoin:round;paint-order:markers fill stroke;stop-color:#000000"
           d="m -3.9177901,14.205707 a 0.84504452,0.84504452 0 0 0 0.3692758,1.019098 0.84504452,0.84504452 0 0 0 0.4633369,0.409856 0.84504452,0.84504452 0 0 0 1.0834043,-0.50455 0.84504452,0.84504452 0 0 0 0.046607,-0.210854 0.84504452,0.84504452 0 0 0 0.099255,-0.189928 0.84504452,0.84504452 0 0 0 -0.5053305,-1.083686 0.84504452,0.84504452 0 0 0 -0.6194539,0.01654 0.84504452,0.84504452 0 0 0 -0.9371636,0.543593 z" /><use
           x="0"
           y="0"
           xlink:href="#circle1002"
           id="use1004"
           transform="translate(-0.2700487,-0.8725896)" /><use
           x="0"
           y="0"
           xlink:href="#circle1002"
           id="use1008"
           transform="translate(0.0245966,-1.6821205)" /><use
           x="0"
           y="0"
           xlink:href="#circle1002"
           id="use1010"
           transform="translate(0.7905146,-2.1719201)"
           style="stroke-width:1.00012;stroke-dasharray:none" /></g></g></g><path
     style="fill:#10446e;fill-opacity:1;stroke:#000000;stroke-width:0.79375;stroke-linecap:round;stroke-linejoin:round;stroke-miterlimit:8;stroke-dasharray:none;stroke-opacity:1;stop-color:#000000"
     d="M 8.0160491,21.35022 4.597134,26.818318 c 0,0 -5.704888,-2.776511 -3.69178761,-5.996199 1.49607031,-2.392762 3.03276051,-1.073043 3.60909871,-0.713128 0,0 -0.5369639,-0.789054 0.2266872,-1.194852 0.8660142,-0.460189 1.392684,0.757242 2.4664453,1.714973 z"
     id="path1029"
     sodipodi:nodetypes="ccscssc" /><g
     id="g3922"
     transform="translate(-36.841471,0.45345094)"><ellipse
       style="fill:#b2b2b2;fill-opacity:1;stroke:#000000;stroke-width:0.801335;stroke-linecap:round;stroke-linejoin:round;stroke-miterlimit:8;stroke-dasharray:none;stop-color:#000000"
       id="ellipse3472"
       cx="49.915237"
       cy="27.128843"
       rx="8.8597488"
       ry="2.9532492" /><path
       id="path632"
       style="fill:#999999;stroke:#000000;stroke-width:0.801335;stroke-linecap:round;stroke-linejoin:round;stroke-miterlimit:8;stop-color:#000000"
       d="m 58.774986,18.662169 a 8.8597488,2.9532492 0 0 1 -8.859749,2.953249 8.8597488,2.9532492 0 0 1 -8.859748,-2.953249 8.8597488,2.9532492 0 0 1 8.859748,-2.95325 8.8597488,2.9532492 0 0 1 8.859749,2.95325 z" /><ellipse
       style="fill:#411c12;fill-opacity:1;stroke:none;stroke-width:0.801335;stroke-linecap:round;stroke-linejoin:round;stroke-miterlimit:8;stroke-dasharray:none;stop-color:#000000"
       id="ellipse3906"
       cx="49.915237"
       cy="20.24967"
       rx="8.8597488"
       ry="2.9532492" /><path
       id="rect3696"
       style="fill:#b2b2b2;stroke-width:0.79375;stroke-linecap:round;stroke-linejoin:round;stroke-miterlimit:8;stop-color:#000000"
       d="m 41.055374,18.677929 v 8.456332 h 17.719849 v -8.456332 h -0.0016 a 8.8597488,2.9532492 0 0 1 -8.858374,2.937289 8.8597488,2.9532492 0 0 1 -8.858373,-2.937289 z" /><path
       style="fill:none;fill-opacity:1;stroke:#000000;stroke-width:0.79375;stroke-linecap:round;stroke-linejoin:round;stroke-miterlimit:8;stroke-dasharray:none;stroke-opacity:1;stop-color:#000000"
       d="m 58.774972,18.667544 v 8.466675"
       id="path3638" /><path
       style="fill:none;fill-opacity:1;stroke:#000000;stroke-width:0.79375;stroke-linecap:round;stroke-linejoin:round;stroke-miterlimit:8;stroke-dasharray:none;stroke-opacity:1;stop-color:#000000"
       d="m 41.055612,18.677834 v 8.466675"
       id="path3640" /><ellipse
       style="fill:none;fill-opacity:1;stroke:#000000;stroke-width:0.801335;stroke-linecap:round;stroke-linejoin:round;stroke-miterlimit:8;stroke-dasharray:none;stop-color:#000000"
       id="ellipse3908"
       cx="49.915237"
       cy="18.662169"
       rx="8.8597488"
       ry="2.9532492" /></g><g
     id="g1303"
     transform="rotate(-60,14.615752,17.337884)"><path
       style="fill:#ffdb26;fill-opacity:1;stroke:#000000;stroke-width:0.79375;stroke-linecap:round;stroke-linejoin:round;stroke-dasharray:none;stroke-opacity:1;paint-order:markers fill stroke;stop-color:#000000"
       d="m 9.8210863,30.007784 c 0,-5.108613 0.8181757,-6.714531 2.7781057,-6.713661 1.95993,8.7e-4 2.778105,1.584391 2.778105,6.713661"
       id="path915" /><g
       id="g1296"
       transform="translate(-0.0585258)"><path
         style="fill:#ffdb26;fill-opacity:1;stroke:#000000;stroke-width:0.529167;stroke-linecap:round;stroke-linejoin:round;stroke-dasharray:none;stroke-opacity:1;paint-order:markers fill stroke;stop-color:#000000"
         d="m 11.599399,23.694455 v 1.058284"
         id="path1283" /><path
         style="fill:#ffdb26;fill-opacity:1;stroke:#000000;stroke-width:0.529167;stroke-linecap:round;stroke-linejoin:round;stroke-dasharray:none;stroke-opacity:1;paint-order:markers fill stroke;stop-color:#000000"
         d="m 12.657717,23.661518 v 1.058284"
         id="use1287" /><path
         style="fill:#ffdb26;fill-opacity:1;stroke:#000000;stroke-width:0.529167;stroke-linecap:round;stroke-linejoin:round;stroke-dasharray:none;stroke-opacity:1;paint-order:markers fill stroke;stop-color:#000000"
         d="m 13.716036,23.694455 v 1.058284"
         id="use1291" /></g></g><path
     style="fill:#10446e;fill-opacity:1;stroke:#000000;stroke-width:0.79375;stroke-linecap:round;stroke-linejoin:round;stroke-miterlimit:8;stroke-dasharray:none;stroke-opacity:1;stop-color:#000000"
     d="m 25.476966,22.231237 -3.22474,5.58296 c 0,0 -6.218437,-2.432142 -4.152141,-6.009497 1.411101,-2.443025 2.992384,-1.177946 3.58073,-0.838414 0,0 -0.563991,-0.769701 0.18476,-1.201803 0.849116,-0.490023 1.417777,0.708071 2.523938,1.627594 z"
     id="path482"
     sodipodi:nodetypes="ccscssc" /></svg>
