<?xml version="1.0" encoding="UTF-8" standalone="no"?>
<!-- Created with Inkscape (http://www.inkscape.org/) -->

<svg
   width="128"
   height="128"
   viewBox="0 0 33.866666 33.866666"
   version="1.1"
   id="svg5"
   xml:space="preserve"
   sodipodi:docname="gutkato_ŝultrumas.svg"
   inkscape:version="1.2.2 (b0a8486541, 2022-12-01)"
   xmlns:inkscape="http://www.inkscape.org/namespaces/inkscape"
   xmlns:sodipodi="http://sodipodi.sourceforge.net/DTD/sodipodi-0.dtd"
   xmlns:xlink="http://www.w3.org/1999/xlink"
   xmlns="http://www.w3.org/2000/svg"
   xmlns:svg="http://www.w3.org/2000/svg"
   xmlns:rdf="http://www.w3.org/1999/02/22-rdf-syntax-ns#"
   xmlns:cc="http://creativecommons.org/ns#"
   xmlns:dc="http://purl.org/dc/elements/1.1/"><sodipodi:namedview
     id="namedview14"
     pagecolor="#505050"
     bordercolor="#eeeeee"
     borderopacity="1"
     inkscape:showpageshadow="0"
     inkscape:pageopacity="0"
     inkscape:pagecheckerboard="0"
     inkscape:deskcolor="#505050"
     showgrid="false"
     showguides="false"
     inkscape:zoom="1.84375"
     inkscape:cx="56.40678"
     inkscape:cy="55.59322"
     inkscape:window-width="1232"
     inkscape:window-height="750"
     inkscape:window-x="48"
     inkscape:window-y="26"
     inkscape:window-maximized="1"
     inkscape:current-layer="svg5" /><title
     id="title4279">Gutkato ŝultrumas</title><defs
     id="defs2" /><metadata
     id="metadata4277"><rdf:RDF><cc:Work
         rdf:about=""><dc:title>Gutkato ŝultrumas</dc:title><dc:creator><cc:Agent><dc:title>Tirifto</dc:title></cc:Agent></dc:creator><dc:subject><rdf:Bag><rdf:li>gutkato</rdf:li><rdf:li>gutkatoj</rdf:li><rdf:li>federujo</rdf:li></rdf:Bag></dc:subject><cc:license
           rdf:resource="http://artlibre.org/licence/lal" /><dc:description>Gutkato, destinita al uzo kiel glumarko aŭ propra bildosigno, ekzemple en Federujo aŭ aliaj retaj komunikiloj.</dc:description><dc:date>2024</dc:date></cc:Work><cc:License
         rdf:about="http://artlibre.org/licence/lal"><cc:permits
           rdf:resource="http://creativecommons.org/ns#Reproduction" /><cc:permits
           rdf:resource="http://creativecommons.org/ns#Distribution" /><cc:permits
           rdf:resource="http://creativecommons.org/ns#DerivativeWorks" /><cc:requires
           rdf:resource="http://creativecommons.org/ns#ShareAlike" /><cc:requires
           rdf:resource="http://creativecommons.org/ns#Notice" /><cc:requires
           rdf:resource="http://creativecommons.org/ns#Attribution" /></cc:License></rdf:RDF></metadata><g
     id="g3880"
     transform="translate(0,3.4393345)"><path
       id="path236"
       style="fill:#ffdb26;fill-opacity:1;stroke:#000000;stroke-width:1.05833;stroke-linecap:round;stroke-linejoin:round;stroke-dasharray:none;paint-order:normal;stop-color:#000000"
       d="M 9.7208535,7.1437499 C 9.5284451,8.1290026 8.8638086,10.399305 9.1100381,12.533602 8.1100172,13.876309 7.3767995,16.811324 7.2000772,19.450492 6.9511077,19.229702 6.7747598,18.899759 6.6419717,18.514115 6.2448002,17.360645 5.8983008,16.647853 5.2286213,16.088423 3.442003,14.595937 2.2594642,14.355924 1.3740763,15.373222 c -0.85062005,0.977351 -0.51031374,2.067411 1.047998,3.534667 0.5205896,0.490172 1.0329821,1.266111 1.4820801,2.570386 0.4928179,1.431245 2.6204036,2.17456 3.9785684,2.517159 2.6836672,3.510392 14.5551342,3.531965 17.7952962,0.638204 1.380136,-0.267835 3.377799,-0.868765 3.940844,-2.195215 0.538986,-1.269769 1.103749,-2.008169 1.657264,-2.460831 1.656864,-1.354979 2.072282,-2.418714 1.29191,-3.45302 -0.812267,-1.076579 -2.008478,-0.919804 -3.894852,0.444418 -0.707073,0.511351 -1.10205,1.197835 -1.578715,2.320788 -0.116847,0.275273 -0.255441,0.518958 -0.424781,0.709518 -0.03355,-1.842349 -0.309079,-3.938937 -0.820105,-5.738668 0.764117,-1.419914 1.022797,-4.23579 0.784965,-5.5614176 -2.166355,0.1442508 -3.74377,0.6295322 -5.36298,1.4443566 C 19.212069,9.3697083 16.093322,9.00533 13.533541,9.6913979 12.051606,8.4886225 10.965498,7.797672 9.7208535,7.1437499 Z" /><g
       id="g1900"
       transform="matrix(-0.95630476,0.2923717,0.2923717,0.95630476,27.922433,-5.506565)"><path
         style="fill:#ffdb26;fill-opacity:1;stroke:#000000;stroke-width:0.793753;stroke-linecap:round;stroke-linejoin:round;stroke-dasharray:none;stroke-opacity:1;paint-order:markers fill stroke;stop-color:#000000"
         d="M 12.014056,28.017793 C 10.983307,28.199542 7.7646631,28.669516 6.5480976,27.219671 5.6614174,26.162967 4.9051974,25.622023 4.2435228,25.350971 2.2628936,24.539617 1.5545206,23.643953 1.998392,22.426681 c 0.462014,-1.267026 1.6520552,-1.46661 3.8548686,-0.71352 0.8256821,0.282281 1.404388,0.823237 2.1885469,1.757761 0.4214761,0.502295 0.8967079,0.830818 1.4580533,0.731837"
         id="path1888"
         sodipodi:nodetypes="csssssc" /><ellipse
         style="fill:#c2748e;fill-opacity:1;stroke:none;stroke-width:0.89148;stroke-linecap:round;stroke-linejoin:round;paint-order:markers fill stroke;stop-color:#000000"
         id="ellipse1890"
         cx="21.207706"
         cy="10.755637"
         transform="matrix(-0.34216212,0.93964093,0.93974427,0.34187821,0,0)"
         rx="0.23705527"
         ry="0.23714064" /><path
         id="path1892"
         style="fill:#c2748e;fill-opacity:1;stroke:none;stroke-width:1.2795;stroke-linecap:round;stroke-linejoin:round;paint-order:markers fill stroke;stop-color:#000000"
         d="m 3.0490933,22.795619 a 0.60595023,0.60566548 0 0 0 0.2647941,0.730414 0.60595023,0.60566548 0 0 0 0.3322418,0.293754 0.60595023,0.60566548 0 0 0 0.7768692,-0.361624 0.60595023,0.60566548 0 0 0 0.03342,-0.151124 0.60595023,0.60566548 0 0 0 0.071172,-0.136127 0.60595023,0.60566548 0 0 0 -0.3623539,-0.776706 0.60595023,0.60566548 0 0 0 -0.4441875,0.01186 0.60595023,0.60566548 0 0 0 -0.6720054,0.389607 z" /><use
         x="0"
         y="0"
         xlink:href="#circle1002"
         id="use1894"
         transform="translate(-0.19364198,-0.62540774)"
         style="stroke-width:1.39491" /><use
         x="0"
         y="0"
         xlink:href="#circle1002"
         id="use1896"
         transform="translate(0.01763729,-1.2056197)"
         style="stroke-width:1.39491" /><use
         x="0"
         y="0"
         xlink:href="#circle1002"
         id="use1898"
         transform="translate(0.56684885,-1.5566719)"
         style="stroke-width:1.39507;stroke-dasharray:none" /></g><ellipse
       style="fill:#000000;fill-opacity:1;stroke:none;stroke-width:2.11668;stroke-linecap:round;stroke-linejoin:round;stroke-dasharray:none;paint-order:stroke markers fill;stop-color:#000000"
       id="path6982"
       cx="14.567888"
       cy="13.048727"
       rx="1.2394016"
       ry="1.5849459"
       transform="matrix(0.99026337,0.13920652,-0.13913969,0.99027276,0,0)" /><use
       x="0"
       y="0"
       xlink:href="#path6982"
       id="use7712"
       transform="translate(6.6235885,0.51242744)"
       style="stroke-width:1.44796" /><path
       style="fill:none;fill-opacity:1;stroke:#000000;stroke-width:0.661458;stroke-linecap:round;stroke-linejoin:round;stroke-dasharray:none;stroke-opacity:1;paint-order:normal;stop-color:#000000"
       d="m 21.341167,17.799642 3.607512,-0.543411"
       id="path7889" /><path
       style="fill:none;fill-opacity:1;stroke:#000000;stroke-width:0.661458;stroke-linecap:round;stroke-linejoin:round;stroke-dasharray:none;stroke-opacity:1;paint-order:normal;stop-color:#000000"
       d="m 21.349049,19.395474 3.465688,0.62984"
       id="path7891" /><path
       style="fill:none;fill-opacity:1;stroke:#000000;stroke-width:0.661458;stroke-linecap:round;stroke-linejoin:round;stroke-dasharray:none;stroke-opacity:1;paint-order:normal;stop-color:#000000"
       d="M 10.515678,16.997044 8.8222789,16.22415"
       id="path7893" /><path
       style="fill:none;fill-opacity:1;stroke:#000000;stroke-width:0.661458;stroke-linecap:round;stroke-linejoin:round;stroke-dasharray:none;stroke-opacity:1;paint-order:normal;stop-color:#000000"
       d="M 10.130171,18.390541 8.509812,18.284505"
       id="path7895" /><path
       style="fill:none;fill-opacity:0.6;stroke:#000000;stroke-width:0.661458;stroke-linecap:round;stroke-linejoin:round;stroke-dasharray:none;paint-order:markers fill stroke;stop-color:#000000"
       d="M 12.064573,19.539879 18.89892,20.0179"
       id="path1008" /><g
       id="g1776"
       transform="rotate(21,20.714643,17.215817)"
       style="stroke-width:0.79375;stroke-dasharray:none"><path
         style="fill:#ffdb26;fill-opacity:1;stroke:#000000;stroke-width:0.79375;stroke-linecap:round;stroke-linejoin:round;stroke-dasharray:none;stroke-opacity:1;paint-order:markers fill stroke;stop-color:#000000"
         d="M 12.014056,28.017793 C 10.983307,28.199542 7.7646631,28.669516 6.5480976,27.219671 5.6614174,26.162967 4.9051974,25.622023 4.2435228,25.350971 2.2628936,24.539617 1.5545206,23.643953 1.998392,22.426681 c 0.462014,-1.267026 1.6520552,-1.46661 3.8548686,-0.71352 0.8256821,0.282281 1.404388,0.823237 2.1885469,1.757761 0.4214761,0.502295 0.8967079,0.830818 1.4580533,0.731837"
         id="path915"
         sodipodi:nodetypes="csssssc" /><ellipse
         style="fill:#c2748e;fill-opacity:1;stroke:none;stroke-width:0.79375;stroke-linecap:round;stroke-linejoin:round;stroke-dasharray:none;paint-order:markers fill stroke;stop-color:#000000"
         id="circle1002"
         cx="21.207706"
         cy="10.755637"
         transform="matrix(-0.34216212,0.93964093,0.93974427,0.34187821,0,0)"
         rx="0.23705527"
         ry="0.23714064" /><path
         id="path978"
         style="fill:#c2748e;fill-opacity:1;stroke:none;stroke-width:0.79375;stroke-linecap:round;stroke-linejoin:round;stroke-dasharray:none;paint-order:markers fill stroke;stop-color:#000000"
         d="m 3.0490933,22.795619 a 0.60595023,0.60566548 0 0 0 0.2647941,0.730414 0.60595023,0.60566548 0 0 0 0.3322418,0.293754 0.60595023,0.60566548 0 0 0 0.7768692,-0.361624 0.60595023,0.60566548 0 0 0 0.03342,-0.151124 0.60595023,0.60566548 0 0 0 0.071172,-0.136127 0.60595023,0.60566548 0 0 0 -0.3623539,-0.776706 0.60595023,0.60566548 0 0 0 -0.4441875,0.01186 0.60595023,0.60566548 0 0 0 -0.6720054,0.389607 z" /><use
         x="0"
         y="0"
         xlink:href="#circle1002"
         id="use1004"
         transform="translate(-0.19364198,-0.62540774)"
         style="stroke-width:0.79375;stroke-dasharray:none" /><use
         x="0"
         y="0"
         xlink:href="#circle1002"
         id="use1008"
         transform="translate(0.01763729,-1.2056197)"
         style="stroke-width:0.79375;stroke-dasharray:none" /><use
         x="0"
         y="0"
         xlink:href="#circle1002"
         id="use1010"
         transform="translate(0.56684885,-1.5566719)"
         style="stroke-width:0.79375;stroke-dasharray:none" /></g></g></svg>
