<?xml version="1.0" encoding="UTF-8" standalone="no"?>
<!-- Created with Inkscape (http://www.inkscape.org/) -->

<svg
   width="128"
   height="128"
   viewBox="0 0 33.866666 33.866666"
   version="1.1"
   id="svg5"
   xml:space="preserve"
   sodipodi:docname="gutkato_malesperas.svg"
   inkscape:version="1.2.2 (b0a8486541, 2022-12-01)"
   inkscape:export-filename="gutkato_dormas.png"
   inkscape:export-xdpi="96"
   inkscape:export-ydpi="96"
   xmlns:inkscape="http://www.inkscape.org/namespaces/inkscape"
   xmlns:sodipodi="http://sodipodi.sourceforge.net/DTD/sodipodi-0.dtd"
   xmlns:xlink="http://www.w3.org/1999/xlink"
   xmlns="http://www.w3.org/2000/svg"
   xmlns:svg="http://www.w3.org/2000/svg"
   xmlns:rdf="http://www.w3.org/1999/02/22-rdf-syntax-ns#"
   xmlns:cc="http://creativecommons.org/ns#"
   xmlns:dc="http://purl.org/dc/elements/1.1/"><sodipodi:namedview
     id="namedview15"
     pagecolor="#505050"
     bordercolor="#eeeeee"
     borderopacity="1"
     inkscape:showpageshadow="0"
     inkscape:pageopacity="0"
     inkscape:pagecheckerboard="0"
     inkscape:deskcolor="#505050"
     showgrid="false"
     inkscape:zoom="1.84375"
     inkscape:cx="52.067798"
     inkscape:cy="74.576273"
     inkscape:window-width="1232"
     inkscape:window-height="750"
     inkscape:window-x="48"
     inkscape:window-y="26"
     inkscape:window-maximized="1"
     inkscape:current-layer="g9054" /><title
     id="title4279">Gutkato malesperas</title><defs
     id="defs2" /><g
     id="layer1"><g
       id="g9054"
       transform="translate(0.27244455)"><path
         style="fill:#ffdb26;fill-opacity:1;stroke:#000000;stroke-width:1.05833;stroke-linecap:round;stroke-linejoin:round;stroke-dasharray:none;paint-order:normal;stop-color:#000000"
         d="M 4.7832619,14.061517 C 3.7152924,11.361739 3.7887549,8.1660314 3.6953702,6.8126583 5.5491283,7.2308003 7.2093073,7.7525254 9.5648438,8.8040768 12.667014,7.013025 16.866065,6.3979822 19.825671,6.6876063 c 1.829098,-1.6300655 3.718967,-2.8152344 6.496974,-3.7614098 0.774167,1.6471504 1.421043,5.4127493 0.920011,7.5334975 2.784475,4.660764 3.230602,15.158396 1.686506,16.702509 C 24.518229,31.573194 5.6799495,31.273305 4.0639285,25.242152 3.064468,21.512066 3.509469,17.264907 4.7832619,14.061517 Z"
         id="path236"
         sodipodi:nodetypes="ccccccssc" /><path
         style="fill:none;fill-opacity:1;stroke:#000000;stroke-width:0.79375;stroke-linecap:round;stroke-linejoin:round;stroke-dasharray:none;stroke-opacity:1;paint-order:normal;stop-color:#000000"
         d="m 22.400762,17.051177 4.674623,-1.569933"
         id="path7889" /><path
         style="fill:none;fill-opacity:1;stroke:#000000;stroke-width:0.79375;stroke-linecap:round;stroke-linejoin:round;stroke-dasharray:none;stroke-opacity:1;paint-order:normal;stop-color:#000000"
         d="m 22.785733,19.173097 4.761148,0.02475"
         id="path7891" /><path
         style="fill:none;fill-opacity:1;stroke:#000000;stroke-width:0.79375;stroke-linecap:round;stroke-linejoin:round;stroke-dasharray:none;stroke-opacity:1;paint-order:normal;stop-color:#000000"
         d="M 7.802078,18.523993 5.3665436,17.892877"
         id="path7893" /><path
         style="fill:none;fill-opacity:1;stroke:#000000;stroke-width:0.79375;stroke-linecap:round;stroke-linejoin:round;stroke-dasharray:none;stroke-opacity:1;paint-order:normal;stop-color:#000000"
         d="M 7.6159094,20.468976 5.4340865,20.708188"
         id="path7895" /><path
         style="fill:#3dbbff;fill-opacity:1;stroke:#194b66;stroke-width:0.793748;stroke-linecap:round;stroke-linejoin:round;stroke-opacity:1;paint-order:markers fill stroke;stop-color:#000000"
         d="m 22.31558,14.239534 c -0.207596,2.037368 1.102924,4.760589 2.799837,3.33671 1.696911,-1.423875 -0.764059,-3.18786 -2.799837,-3.33671 z"
         id="path297" /><use
         x="0"
         y="0"
         xlink:href="#path297"
         id="use1200"
         transform="rotate(20,10.634057,15.915522)" /><g
         id="g686"
         transform="rotate(-16.664098,-24.279802,-23.918134)"><path
           style="fill:#ffdb26;fill-opacity:1;stroke:#000000;stroke-width:0.79375;stroke-linecap:round;stroke-linejoin:round;stroke-dasharray:none;stroke-opacity:1;paint-order:markers fill stroke;stop-color:#000000"
           d="m 8.7852981,35.337215 c 0.5458745,-0.596847 0.976968,-1.110844 1.3820769,-1.676691 1.773403,-2.477046 0.281373,-4.554297 0.460943,-6.761342 0.08947,-1.099639 0.231561,-1.923156 0.442042,-2.532422 0.420962,-1.218533 1.115489,-1.580066 2.209745,-1.57958 1.094256,4.85e-4 1.788783,0.364611 2.209745,1.584198 0.210481,0.609793 0.352581,1.43345 0.442041,2.532453 0.120497,1.480281 1.85894,5.551401 -1.296696,9.959118 -0.404668,0.565231 -1.383481,1.825438 -1.936392,2.421775"
           id="path676"
           sodipodi:nodetypes="csssssssc" /><g
           id="g684"
           transform="translate(-0.0585258)"><path
             style="fill:#ffdb26;fill-opacity:1;stroke:#000000;stroke-width:0.529167;stroke-linecap:round;stroke-linejoin:round;stroke-dasharray:none;stroke-opacity:1;paint-order:markers fill stroke;stop-color:#000000"
             d="m 12.28031,23.187512 v 1.058284"
             id="path678"
             sodipodi:nodetypes="cc" /><path
             style="fill:#ffdb26;fill-opacity:1;stroke:#000000;stroke-width:0.529167;stroke-linecap:round;stroke-linejoin:round;stroke-dasharray:none;stroke-opacity:1;paint-order:markers fill stroke;stop-color:#000000"
             d="m 13.338628,23.154575 v 1.058284"
             id="path680"
             sodipodi:nodetypes="cc" /><path
             style="fill:#ffdb26;fill-opacity:1;stroke:#000000;stroke-width:0.529167;stroke-linecap:round;stroke-linejoin:round;stroke-dasharray:none;stroke-opacity:1;paint-order:markers fill stroke;stop-color:#000000"
             d="m 14.396947,23.187512 v 1.058284"
             id="path682"
             sodipodi:nodetypes="cc" /></g></g><path
         style="fill:#3dbbff;fill-opacity:1;stroke:#194b66;stroke-width:0.793748;stroke-linecap:round;stroke-linejoin:round;stroke-opacity:1;paint-order:markers fill stroke;stop-color:#000000"
         d="M 7.5982244,14.776251 C 8.156452,16.746617 7.3387236,19.656036 5.4203367,18.548455 3.5019523,17.440877 5.6192219,15.276348 7.5982244,14.776251 Z"
         id="path1202" /><path
         style="fill:#3dbbff;fill-opacity:1;stroke:#194b66;stroke-width:0.793748;stroke-linecap:round;stroke-linejoin:round;stroke-opacity:1;paint-order:markers fill stroke;stop-color:#000000"
         d="m 9.474091,17.540713 c 1.198467,1.660614 1.425134,4.674252 -0.7563753,4.289594 C 6.5362101,21.445651 7.7854803,18.68751 9.474091,17.540713 Z"
         id="path1204" /><g
         id="g535"
         transform="matrix(-0.99377418,0.11141304,0.11141304,0.99377418,14.082001,-13.067472)"><path
           style="fill:#ffdb26;fill-opacity:1;stroke:#000000;stroke-width:0.79375;stroke-linecap:round;stroke-linejoin:round;stroke-dasharray:none;stroke-opacity:1;paint-order:markers fill stroke;stop-color:#000000"
           d="m 8.7852981,35.337215 c 0.5458745,-0.596847 0.976968,-1.110844 1.3820769,-1.676691 1.773403,-2.477046 0.284163,-3.260118 0.306326,-5.474345 0.01104,-1.103217 0.09421,-1.934754 0.260832,-2.557446 0.333241,-1.245384 1.0003,-1.655392 2.09182,-1.732724 1.09152,-0.07733 1.810183,0.23648 2.316809,1.423043 0.253313,0.593281 0.453627,1.404747 0.621015,2.494606 0.225461,1.467964 2.026654,4.641574 -1.128982,9.049291 -0.404668,0.565231 -1.383481,1.825438 -1.936392,2.421775"
           id="path525"
           sodipodi:nodetypes="csssssssc" /><g
           id="g533"
           transform="translate(-0.0585258)"><path
             style="fill:#ffdb26;fill-opacity:1;stroke:#000000;stroke-width:0.529167;stroke-linecap:round;stroke-linejoin:round;stroke-dasharray:none;stroke-opacity:1;paint-order:markers fill stroke;stop-color:#000000"
             d="m 11.857706,24.370589 0.07526,1.055604"
             id="path527"
             sodipodi:nodetypes="cc" /><path
             style="fill:#ffdb26;fill-opacity:1;stroke:#000000;stroke-width:0.529167;stroke-linecap:round;stroke-linejoin:round;stroke-dasharray:none;stroke-opacity:1;paint-order:markers fill stroke;stop-color:#000000"
             d="m 12.911003,24.262474 0.07526,1.055604"
             id="path529"
             sodipodi:nodetypes="cc" /><path
             style="fill:#ffdb26;fill-opacity:1;stroke:#000000;stroke-width:0.529167;stroke-linecap:round;stroke-linejoin:round;stroke-dasharray:none;stroke-opacity:1;paint-order:markers fill stroke;stop-color:#000000"
             d="m 13.968985,24.220066 0.07526,1.055604"
             id="path531"
             sodipodi:nodetypes="cc" /></g></g><path
         style="fill:none;stroke:#000000;stroke-width:0.79375;stroke-linecap:round;stroke-linejoin:round;stroke-dasharray:none;paint-order:markers fill stroke;stop-color:#000000"
         d="m 9.1076032,13.636406 3.0844818,1.64007 -3.3361401,1.019965"
         id="path981" /><path
         style="fill:none;stroke:#000000;stroke-width:0.79375;stroke-linecap:round;stroke-linejoin:round;stroke-dasharray:none;paint-order:markers fill stroke;stop-color:#000000"
         d="m 20.509547,12.976774 -2.962557,1.851229 3.399166,0.784773"
         id="path983" /><path
         style="fill:#c2748e;fill-opacity:1;stroke:none;stroke-width:0.79375;stroke-linecap:round;stroke-linejoin:round;stroke-dasharray:none;stroke-opacity:1;paint-order:markers fill stroke;stop-color:#000000"
         d="m 20.021311,22.804064 c 0.553571,-0.747747 0.260607,-1.742266 -0.681276,-2.494338 -0.47094,-0.376036 -1.104109,-0.691462 -1.874804,-0.885123 -0.770697,-0.193662 -1.572239,0.787667 -2.593282,0.898693 -0.530892,0.05773 -1.223688,-0.785803 -1.784114,-0.480843 -0.560426,0.304965 -1.095161,0.705194 -1.523289,1.143974 -0.856254,0.877558 -1.286079,1.909317 -0.642144,2.641565 0.450519,0.51231 1.135926,0.863576 1.937752,1.065649 0.801825,0.202072 1.613389,-0.798279 2.529587,-0.882742 0.916197,-0.08447 1.937029,0.746962 2.730666,0.399673 0.793637,-0.347294 1.466761,-0.820081 1.900904,-1.406506 z"
         id="path298"
         sodipodi:nodetypes="ssssssssssss" /><path
         style="fill:#ffffff;fill-opacity:1;stroke:none;stroke-width:0.529167;stroke-linecap:round;stroke-linejoin:round;stroke-dasharray:none;stroke-opacity:1;paint-order:markers fill stroke;stop-color:#000000"
         d="m 17.689954,19.770633 1.004619,1.382376 0.30819,-0.692422 c -0.346609,-0.273439 -0.787809,-0.514128 -1.312809,-0.689954 z"
         id="path2893" /><path
         style="fill:#ffffff;fill-opacity:1;stroke:none;stroke-width:0.529167;stroke-linecap:round;stroke-linejoin:round;stroke-dasharray:none;stroke-opacity:1;paint-order:markers fill stroke;stop-color:#000000"
         d="m 12.860918,20.282619 c -0.386947,0.252735 -0.751119,0.553908 -1.050703,0.876869 -0.0239,0.02576 -0.04775,0.05156 -0.07081,0.07755 l 0.431734,0.594487 z"
         id="path16880" /><path
         style="fill:none;fill-opacity:1;stroke:#382129;stroke-width:0.79375;stroke-linecap:round;stroke-linejoin:round;stroke-dasharray:none;stroke-opacity:1;paint-order:markers fill stroke;stop-color:#000000"
         d="m 20.021311,22.804064 c 0.553571,-0.747747 0.260607,-1.742266 -0.681276,-2.494338 -0.47094,-0.376036 -1.104109,-0.691462 -1.874804,-0.885123 -0.770697,-0.193662 -1.572239,0.787667 -2.593282,0.898693 -0.530892,0.05773 -1.223688,-0.785803 -1.784114,-0.480843 -0.560426,0.304965 -1.095161,0.705194 -1.523289,1.143974 -0.856254,0.877558 -1.286079,1.909317 -0.642144,2.641565 0.450519,0.51231 1.135926,0.863576 1.937752,1.065649 0.801825,0.202072 1.613389,-0.798279 2.529587,-0.882742 0.916197,-0.08447 1.937029,0.746962 2.730666,0.399673 0.793638,-0.347294 1.466761,-0.82008 1.900904,-1.406506 z"
         id="path16861"
         sodipodi:nodetypes="ssssssssssss" /></g></g><metadata
     id="metadata4277"><rdf:RDF><cc:Work
         rdf:about=""><dc:title>Gutkato malesperas</dc:title><dc:creator><cc:Agent><dc:title>Tirifto</dc:title></cc:Agent></dc:creator><dc:subject><rdf:Bag><rdf:li>gutkato</rdf:li><rdf:li>gutkatoj</rdf:li><rdf:li>federujo</rdf:li></rdf:Bag></dc:subject><cc:license
           rdf:resource="http://artlibre.org/licence/lal" /><dc:description>Gutkato, destinita al uzo kiel glumarko aŭ propra bildosigno, ekzemple en Federujo aŭ aliaj retaj komunikiloj.</dc:description><dc:date>2024</dc:date></cc:Work><cc:License
         rdf:about="http://artlibre.org/licence/lal"><cc:permits
           rdf:resource="http://creativecommons.org/ns#Reproduction" /><cc:permits
           rdf:resource="http://creativecommons.org/ns#Distribution" /><cc:permits
           rdf:resource="http://creativecommons.org/ns#DerivativeWorks" /><cc:requires
           rdf:resource="http://creativecommons.org/ns#ShareAlike" /><cc:requires
           rdf:resource="http://creativecommons.org/ns#Notice" /><cc:requires
           rdf:resource="http://creativecommons.org/ns#Attribution" /></cc:License></rdf:RDF></metadata></svg>
