<?xml version="1.0" encoding="UTF-8" standalone="no"?>
<!-- Created with Inkscape (http://www.inkscape.org/) -->

<svg
   width="128"
   height="128"
   viewBox="0 0 33.866666 33.866666"
   version="1.1"
   id="svg5"
   xml:space="preserve"
   sodipodi:docname="gutkato_flaŭno.svg"
   inkscape:version="1.2.2 (b0a8486541, 2022-12-01)"
   xmlns:inkscape="http://www.inkscape.org/namespaces/inkscape"
   xmlns:sodipodi="http://sodipodi.sourceforge.net/DTD/sodipodi-0.dtd"
   xmlns:xlink="http://www.w3.org/1999/xlink"
   xmlns="http://www.w3.org/2000/svg"
   xmlns:svg="http://www.w3.org/2000/svg"
   xmlns:rdf="http://www.w3.org/1999/02/22-rdf-syntax-ns#"
   xmlns:cc="http://creativecommons.org/ns#"
   xmlns:dc="http://purl.org/dc/elements/1.1/"><sodipodi:namedview
     id="namedview15"
     pagecolor="#505050"
     bordercolor="#eeeeee"
     borderopacity="1"
     inkscape:showpageshadow="0"
     inkscape:pageopacity="0"
     inkscape:pagecheckerboard="0"
     inkscape:deskcolor="#505050"
     showgrid="false"
     showguides="false"
     inkscape:zoom="2.6074563"
     inkscape:cx="22.052143"
     inkscape:cy="82.264082"
     inkscape:window-width="1232"
     inkscape:window-height="750"
     inkscape:window-x="48"
     inkscape:window-y="26"
     inkscape:window-maximized="1"
     inkscape:current-layer="svg5" /><title
     id="title4279">Gutkato flaŭno</title><defs
     id="defs2"><linearGradient
       inkscape:collect="always"
       id="linearGradient25751"><stop
         style="stop-color:#7c2c00;stop-opacity:1;"
         offset="0"
         id="stop25747" /><stop
         style="stop-color:#7c2c00;stop-opacity:1;"
         offset="0.27881131"
         id="stop25755" /><stop
         style="stop-color:#f6d884;stop-opacity:1;"
         offset="0.80208534"
         id="stop25757" /><stop
         style="stop-color:#f6d884;stop-opacity:1;"
         offset="1"
         id="stop25749" /></linearGradient><radialGradient
       inkscape:collect="always"
       xlink:href="#linearGradient25751"
       id="radialGradient27211"
       cx="6.2157178"
       cy="18.280802"
       fx="6.2157178"
       fy="18.280802"
       r="13.758352"
       gradientTransform="matrix(-0.06464374,1.0456495,-3.8184509,-0.23606287,87.38474,4.6767826)"
       gradientUnits="userSpaceOnUse" /></defs><path
     id="path27265"
     style="fill:#7d2c00;stroke:#1f0b00;stroke-width:0.79374998;stroke-linecap:square;stroke-linejoin:round;stroke-miterlimit:8;stop-color:#000000;stroke-dasharray:none;stroke-opacity:1"
     d="m 32.429495,26.287562 c 0,0.72099 -0.593698,1.709787 -1.114904,2.612543 -0.503507,0.8721 -1.401933,1.238817 -2.691594,1.983403 -1.345691,0.776935 -3.175399,0.746982 -5.04269,1.011223 -1.867291,0.264241 -3.850119,0.05635 -6.005106,0.05635 -2.154986,0 -4.329068,0.454961 -6.214963,0.454961 -2.0031279,0 -3.65256,-0.48552 -5.183739,-1.369546 C 4.8868389,30.291914 3.9342038,29.435534 3.1444063,28.810797 2.3546088,28.186061 1.3255359,27.588506 1.3255358,26.867516 c -10e-8,-0.720991 0.4813737,-2.134649 1.271171,-2.759386 0.7897974,-0.624736 1.834726,-1.376846 3.6334245,-1.376846 1.4891712,0 2.7606505,-0.411042 4.6279417,-0.675283 1.867291,-0.264241 3.920272,-0.410361 6.075259,-0.410361 2.154987,0 4.207968,0.14612 6.075259,0.410361 1.867292,0.264241 3.548893,0.646604 4.961121,1.119091 1.412227,0.472487 2.092398,0.807338 2.882196,1.432075 0.789797,0.624736 1.577587,0.959404 1.577587,1.680395 z"
     sodipodi:nodetypes="sssssssssssssssss" /><g
     id="layer1"><path
       style="fill:url(#radialGradient27211);fill-opacity:1;stroke:#000000;stroke-width:1.05833;stroke-linecap:round;stroke-linejoin:round;stroke-dasharray:none;paint-order:normal;stop-color:#000000"
       d="M 6.3460128,10.987509 C 6.0131876,8.1033126 6.9112569,5.0355095 7.1713329,3.7040818 c 1.6823697,0.883682 3.1509471,1.8173157 5.1540591,3.4426941 3.460025,-0.9271224 7.675181,-0.4344139 10.458981,0.611344 2.188665,-1.101117 4.320882,-1.7567683 7.249119,-1.9517024 0.321474,1.7913943 -0.0283,5.5961075 -1.06115,7.5149165 1.483302,5.222627 1.500916,12.296756 -0.04318,13.840869 C 24.518229,31.573194 5.6799495,31.273305 4.0639285,25.242152 3.064468,21.512066 4.2865251,13.752064 6.3460128,10.987509 Z"
       id="path236" /><ellipse
       style="fill:#000000;fill-opacity:1;stroke:none;stroke-width:2.11668;stroke-linecap:round;stroke-linejoin:round;stroke-dasharray:none;paint-order:stroke markers fill;stop-color:#000000"
       id="path6982"
       cx="12.96371"
       cy="12.570978"
       rx="1.6752723"
       ry="2.1418331"
       transform="rotate(8)" /><use
       x="0"
       y="0"
       xlink:href="#path6982"
       id="use7712"
       transform="translate(8.953004,0.69247082)"
       style="stroke-width:1.07136" /><path
       style="fill:none;fill-opacity:1;stroke:#000000;stroke-width:0.79375;stroke-linecap:round;stroke-linejoin:round;stroke-dasharray:none;stroke-opacity:1;paint-order:stroke markers fill;stop-color:#000000"
       d="m 10.004075,19.121173 c -1.4238886,3.039424 2.342169,4.371724 4.594902,1.690642 3.202672,3.608669 6.496348,1.194297 5.575255,-1.100462"
       id="path7824" /><path
       style="fill:none;fill-opacity:1;stroke:#000000;stroke-width:0.79375;stroke-linecap:round;stroke-linejoin:round;stroke-dasharray:none;stroke-opacity:1;paint-order:normal;stop-color:#000000"
       d="m 22.889183,18.104059 4.87622,-0.734341"
       id="path7889" /><path
       style="fill:none;fill-opacity:1;stroke:#000000;stroke-width:0.79375;stroke-linecap:round;stroke-linejoin:round;stroke-dasharray:none;stroke-opacity:1;paint-order:normal;stop-color:#000000"
       d="m 22.899838,20.260593 4.684517,0.851137"
       id="path7891" /><path
       style="fill:none;fill-opacity:1;stroke:#000000;stroke-width:0.79375;stroke-linecap:round;stroke-linejoin:round;stroke-dasharray:none;stroke-opacity:1;paint-order:normal;stop-color:#000000"
       d="M 8.2565339,17.019465 5.9675926,15.975012"
       id="path7893" /><path
       style="fill:none;fill-opacity:1;stroke:#000000;stroke-width:0.79375;stroke-linecap:round;stroke-linejoin:round;stroke-dasharray:none;stroke-opacity:1;paint-order:normal;stop-color:#000000"
       d="M 7.7354506,18.902572 5.5452359,18.75928"
       id="path7895" /></g><metadata
     id="metadata4277"><rdf:RDF><cc:Work
         rdf:about=""><dc:title>Gutkato flaŭno</dc:title><dc:creator><cc:Agent><dc:title>Tirifto</dc:title></cc:Agent></dc:creator><dc:subject><rdf:Bag><rdf:li>gutkato</rdf:li><rdf:li>gutkatoj</rdf:li><rdf:li>federujo</rdf:li></rdf:Bag></dc:subject><cc:license
           rdf:resource="http://artlibre.org/licence/lal" /><dc:description>Gutkato, destinita al uzo kiel glumarko aŭ propra bildosigno, ekzemple en Federujo aŭ aliaj retaj komunikiloj.</dc:description><dc:date>2024</dc:date></cc:Work><cc:License
         rdf:about="http://artlibre.org/licence/lal"><cc:permits
           rdf:resource="http://creativecommons.org/ns#Reproduction" /><cc:permits
           rdf:resource="http://creativecommons.org/ns#Distribution" /><cc:permits
           rdf:resource="http://creativecommons.org/ns#DerivativeWorks" /><cc:requires
           rdf:resource="http://creativecommons.org/ns#ShareAlike" /><cc:requires
           rdf:resource="http://creativecommons.org/ns#Notice" /><cc:requires
           rdf:resource="http://creativecommons.org/ns#Attribution" /></cc:License></rdf:RDF></metadata></svg>
