<?xml version="1.0" encoding="UTF-8" standalone="no"?>
<!-- Created with Inkscape (http://www.inkscape.org/) -->

<svg
   width="128"
   height="128"
   viewBox="0 0 33.866666 33.866666"
   version="1.1"
   id="svg5"
   xml:space="preserve"
   sodipodi:docname="gutkato_ploras.svg"
   inkscape:version="1.2.2 (b0a8486541, 2022-12-01)"
   xmlns:inkscape="http://www.inkscape.org/namespaces/inkscape"
   xmlns:sodipodi="http://sodipodi.sourceforge.net/DTD/sodipodi-0.dtd"
   xmlns:xlink="http://www.w3.org/1999/xlink"
   xmlns="http://www.w3.org/2000/svg"
   xmlns:svg="http://www.w3.org/2000/svg"
   xmlns:rdf="http://www.w3.org/1999/02/22-rdf-syntax-ns#"
   xmlns:cc="http://creativecommons.org/ns#"
   xmlns:dc="http://purl.org/dc/elements/1.1/"><sodipodi:namedview
     id="namedview15"
     pagecolor="#505050"
     bordercolor="#eeeeee"
     borderopacity="1"
     inkscape:showpageshadow="0"
     inkscape:pageopacity="0"
     inkscape:pagecheckerboard="0"
     inkscape:deskcolor="#505050"
     showgrid="false"
     inkscape:zoom="2.0000001"
     inkscape:cx="16.999999"
     inkscape:cy="74.249995"
     inkscape:window-width="1232"
     inkscape:window-height="750"
     inkscape:window-x="48"
     inkscape:window-y="26"
     inkscape:window-maximized="1"
     inkscape:current-layer="layer1" /><title
     id="title4279">Gutkato ploras</title><defs
     id="defs2" /><g
     id="layer1"><path
       style="fill:#ffdb26;fill-opacity:1;stroke:#000000;stroke-width:1.05833;stroke-linecap:round;stroke-linejoin:round;stroke-dasharray:none;paint-order:normal;stop-color:#000000"
       d="M 6.3460128,10.987509 C 6.0131876,8.1033126 6.9112569,5.0355095 7.1713329,3.7040818 c 1.6823697,0.883682 3.1509471,1.8173157 5.1540591,3.4426941 3.460025,-0.9271224 7.675181,-0.4344139 10.458981,0.611344 2.188665,-1.101117 4.320882,-1.7567683 7.249119,-1.9517024 0.321474,1.7913943 -0.0283,5.5961075 -1.06115,7.5149165 1.483302,5.222627 1.500916,12.296756 -0.04318,13.840869 C 24.518229,31.573194 5.6799495,31.273305 4.0639285,25.242152 3.064468,21.512066 4.2865251,13.752064 6.3460128,10.987509 Z"
       id="path236" /><path
       style="fill:none;fill-opacity:1;stroke:#000000;stroke-width:0.79375;stroke-linecap:round;stroke-linejoin:round;stroke-dasharray:none;stroke-opacity:1;paint-order:normal;stop-color:#000000"
       d="m 22.889183,18.104059 4.87622,-0.734341"
       id="path7889" /><path
       style="fill:none;fill-opacity:1;stroke:#000000;stroke-width:0.79375;stroke-linecap:round;stroke-linejoin:round;stroke-dasharray:none;stroke-opacity:1;paint-order:normal;stop-color:#000000"
       d="m 22.899838,20.260593 4.684517,0.851137"
       id="path7891" /><path
       style="fill:none;fill-opacity:1;stroke:#000000;stroke-width:0.79375;stroke-linecap:round;stroke-linejoin:round;stroke-dasharray:none;stroke-opacity:1;paint-order:normal;stop-color:#000000"
       d="M 8.2565339,17.019465 5.9675926,15.975012"
       id="path7893" /><path
       style="fill:none;fill-opacity:1;stroke:#000000;stroke-width:0.79375;stroke-linecap:round;stroke-linejoin:round;stroke-dasharray:none;stroke-opacity:1;paint-order:normal;stop-color:#000000"
       d="M 7.7354506,18.902572 5.5452359,18.75928"
       id="path7895" /><path
       style="fill:none;stroke:#000000;stroke-width:0.79375;stroke-linecap:round;stroke-linejoin:round;stroke-dasharray:none;paint-order:markers fill stroke;stop-color:#000000"
       d="m 10.077318,12.621947 2.752827,2.150768 -3.4625723,0.425155"
       id="path981" /><path
       style="fill:none;stroke:#000000;stroke-width:0.79375;stroke-linecap:round;stroke-linejoin:round;stroke-dasharray:none;paint-order:markers fill stroke;stop-color:#000000"
       d="m 21.420585,13.952263 -3.239012,1.308662 3.211251,1.363109"
       id="path983" /><path
       style="opacity:1;fill:#3dbbff;fill-opacity:1;stroke:#194b66;stroke-width:0.793748;stroke-linecap:round;stroke-linejoin:round;stroke-opacity:1;paint-order:markers fill stroke;stop-color:#000000"
       d="m 22.530198,15.172352 c 0.501744,1.985502 2.664627,4.096268 3.772208,2.177882 1.107581,-1.918383 -1.808293,-2.734285 -3.772208,-2.177882 z"
       id="path297" /><use
       x="0"
       y="0"
       xlink:href="#path297"
       id="use5014"
       transform="rotate(15,13.519657,37.460914)" /><use
       x="0"
       y="0"
       xlink:href="#path297"
       id="use5018"
       transform="rotate(30,14.816857,21.348738)" /><use
       x="0"
       y="0"
       xlink:href="#path297"
       id="use5020"
       transform="matrix(-0.94017081,0,0,0.93712808,29.813756,-0.21805642)"
       style="stroke-width:1.06536" /><use
       x="0"
       y="0"
       xlink:href="#use5020"
       id="use5022"
       transform="rotate(-15,19.175106,33.535248)" /><use
       x="0"
       y="0"
       xlink:href="#use5020"
       id="use5026"
       transform="rotate(-30,16.927413,19.317611)" /></g><metadata
     id="metadata4277"><rdf:RDF><cc:Work
         rdf:about=""><dc:title>Gutkato ploras</dc:title><dc:creator><cc:Agent><dc:title>Tirifto</dc:title></cc:Agent></dc:creator><dc:subject><rdf:Bag><rdf:li>gutkato</rdf:li><rdf:li>gutkatoj</rdf:li><rdf:li>federujo</rdf:li></rdf:Bag></dc:subject><cc:license
           rdf:resource="http://artlibre.org/licence/lal" /><dc:description>Gutkato, destinita al uzo kiel glumarko aŭ propra bildosigno, ekzemple en Federujo aŭ aliaj retaj komunikiloj.</dc:description><dc:date>2024</dc:date></cc:Work><cc:License
         rdf:about="http://artlibre.org/licence/lal"><cc:permits
           rdf:resource="http://creativecommons.org/ns#Reproduction" /><cc:permits
           rdf:resource="http://creativecommons.org/ns#Distribution" /><cc:permits
           rdf:resource="http://creativecommons.org/ns#DerivativeWorks" /><cc:requires
           rdf:resource="http://creativecommons.org/ns#ShareAlike" /><cc:requires
           rdf:resource="http://creativecommons.org/ns#Notice" /><cc:requires
           rdf:resource="http://creativecommons.org/ns#Attribution" /></cc:License></rdf:RDF></metadata><path
     style="fill:#c2748e;fill-opacity:1;stroke:none;stroke-width:0.79375;stroke-linecap:round;stroke-linejoin:round;stroke-dasharray:none;stroke-opacity:1;paint-order:markers fill stroke;stop-color:#000000"
     d="m 19.233275,23.545473 c 0.675006,-0.640261 0.559189,-1.670543 -0.237788,-2.574746 -0.398488,-0.452101 -0.967264,-0.872683 -1.692622,-1.197232 -0.725359,-0.32455 -1.68513,0.502684 -2.709941,0.434721 -0.53285,-0.03534 -1.068644,-0.986356 -1.673511,-0.783346 -0.604869,0.203015 -1.200979,0.504308 -1.698796,0.862078 -0.995633,0.715539 -1.5980906,1.656985 -1.091092,2.489927 0.354713,0.582758 0.968711,1.047707 1.723266,1.385946 0.754554,0.338238 1.727497,-0.505989 2.644443,-0.430073 0.916946,0.07591 1.777893,1.071976 2.619779,0.867776 0.841887,-0.204204 1.586883,-0.552921 2.116262,-1.055049 z"
     id="path298"
     sodipodi:nodetypes="ssssssssssss" /><path
     style="fill:#ffffff;fill-opacity:1;stroke:none;stroke-width:0.529167;stroke-linecap:round;stroke-linejoin:round;stroke-dasharray:none;stroke-opacity:1;paint-order:markers fill stroke;stop-color:#000000"
     d="m 17.464087,20.153291 0.749309,1.535824 0.423746,-0.628385 c -0.293861,-0.329473 -0.686563,-0.643119 -1.173055,-0.907439 z"
     id="path2893" /><path
     style="fill:#ffffff;fill-opacity:1;stroke:none;stroke-width:0.529167;stroke-linecap:round;stroke-linejoin:round;stroke-dasharray:none;stroke-opacity:1;paint-order:markers fill stroke;stop-color:#000000"
     d="m 12.619509,19.818945 c -0.424955,0.181703 -0.835893,0.415063 -1.187007,0.681095 -0.02801,0.02122 -0.05598,0.04248 -0.0832,0.06408 l 0.321944,0.660425 z"
     id="path16880" /><path
     style="fill:none;fill-opacity:1;stroke:#382129;stroke-width:0.79375;stroke-linecap:round;stroke-linejoin:round;stroke-dasharray:none;stroke-opacity:1;paint-order:markers fill stroke;stop-color:#000000"
     d="m 19.233275,23.545473 c 0.675006,-0.640261 0.559189,-1.670543 -0.237788,-2.574746 -0.398488,-0.452101 -0.967264,-0.872683 -1.692622,-1.197232 -0.725359,-0.32455 -1.68513,0.502684 -2.709941,0.434721 -0.53285,-0.03534 -1.068644,-0.986356 -1.673511,-0.783346 -0.604869,0.203015 -1.200979,0.504308 -1.698796,0.862078 -0.995633,0.715539 -1.5980902,1.656985 -1.091092,2.489927 0.354713,0.582758 0.968711,1.047707 1.723266,1.385946 0.754554,0.338238 1.727497,-0.505989 2.644443,-0.430073 0.916946,0.07591 1.777893,1.071976 2.619779,0.867776 0.841888,-0.204204 1.586883,-0.55292 2.116262,-1.055049 z"
     id="path16861"
     sodipodi:nodetypes="ssssssssssss" /></svg>
