<?xml version="1.0" encoding="UTF-8" standalone="no"?>
<!-- Created with Inkscape (http://www.inkscape.org/) -->

<svg
   width="128"
   height="128"
   viewBox="0 0 33.866666 33.866666"
   version="1.1"
   id="svg5"
   xml:space="preserve"
   sodipodi:docname="gutkato_kosmovojaĝisto.svg"
   inkscape:version="1.2.2 (b0a8486541, 2022-12-01)"
   xmlns:inkscape="http://www.inkscape.org/namespaces/inkscape"
   xmlns:sodipodi="http://sodipodi.sourceforge.net/DTD/sodipodi-0.dtd"
   xmlns:xlink="http://www.w3.org/1999/xlink"
   xmlns="http://www.w3.org/2000/svg"
   xmlns:svg="http://www.w3.org/2000/svg"
   xmlns:rdf="http://www.w3.org/1999/02/22-rdf-syntax-ns#"
   xmlns:cc="http://creativecommons.org/ns#"
   xmlns:dc="http://purl.org/dc/elements/1.1/"><sodipodi:namedview
     id="namedview7454"
     pagecolor="#505050"
     bordercolor="#eeeeee"
     borderopacity="1"
     inkscape:showpageshadow="0"
     inkscape:pageopacity="0"
     inkscape:pagecheckerboard="0"
     inkscape:deskcolor="#505050"
     showgrid="false"
     inkscape:zoom="1.84375"
     inkscape:cx="93.288136"
     inkscape:cy="22.508475"
     inkscape:window-width="1232"
     inkscape:window-height="750"
     inkscape:window-x="48"
     inkscape:window-y="26"
     inkscape:window-maximized="1"
     inkscape:current-layer="svg5" /><title
     id="title4279">Gutkato kosmovojaĝisto</title><defs
     id="defs2" /><g
     id="layer1"><path
       style="fill:#ffdb26;fill-opacity:1;stroke:#000000;stroke-width:1.05833;stroke-linecap:round;stroke-linejoin:round;stroke-dasharray:none;paint-order:normal;stop-color:#000000"
       d="M 6.3460128,10.987509 C 6.0131876,8.1033126 6.9112569,5.0355095 7.1713329,3.7040818 c 1.6823697,0.883682 3.1509471,1.8173157 5.1540591,3.4426941 3.460025,-0.9271224 7.675181,-0.4344139 10.458981,0.611344 2.188665,-1.101117 4.320882,-1.7567683 7.249119,-1.9517024 0.321474,1.7913943 -0.0283,5.5961075 -1.06115,7.5149165 1.483302,5.222627 1.500916,12.296756 -0.04318,13.840869 C 24.518229,31.573194 5.6799495,31.273305 4.0639285,25.242152 3.064468,21.512066 4.2865251,13.752064 6.3460128,10.987509 Z"
       id="path236" /><ellipse
       style="fill:#000000;fill-opacity:1;stroke:none;stroke-width:2.11668;stroke-linecap:round;stroke-linejoin:round;stroke-dasharray:none;paint-order:stroke markers fill;stop-color:#000000"
       id="path6982"
       cx="12.96371"
       cy="12.570978"
       rx="1.6752723"
       ry="2.1418331"
       transform="rotate(8)" /><use
       x="0"
       y="0"
       xlink:href="#path6982"
       id="use7712"
       transform="translate(8.953004,0.69247082)"
       style="stroke-width:1.07136" /><path
       style="fill:none;fill-opacity:1;stroke:#000000;stroke-width:0.79375;stroke-linecap:round;stroke-linejoin:round;stroke-dasharray:none;stroke-opacity:1;paint-order:stroke markers fill;stop-color:#000000"
       d="m 10.004075,19.121173 c -1.4238886,3.039424 2.342169,4.371724 4.594902,1.690642 3.202672,3.608669 6.496348,1.194297 5.575255,-1.100462"
       id="path7824" /><path
       style="fill:none;fill-opacity:1;stroke:#000000;stroke-width:0.79375;stroke-linecap:round;stroke-linejoin:round;stroke-dasharray:none;stroke-opacity:1;paint-order:normal;stop-color:#000000"
       d="m 22.889183,18.104059 4.87622,-0.734341"
       id="path7889" /><path
       style="fill:none;fill-opacity:1;stroke:#000000;stroke-width:0.79375;stroke-linecap:round;stroke-linejoin:round;stroke-dasharray:none;stroke-opacity:1;paint-order:normal;stop-color:#000000"
       d="m 22.899838,20.260593 4.684517,0.851137"
       id="path7891" /><path
       style="fill:none;fill-opacity:1;stroke:#000000;stroke-width:0.79375;stroke-linecap:round;stroke-linejoin:round;stroke-dasharray:none;stroke-opacity:1;paint-order:normal;stop-color:#000000"
       d="M 8.2565339,17.019465 5.9675926,15.975012"
       id="path7893" /><path
       style="fill:none;fill-opacity:1;stroke:#000000;stroke-width:0.79375;stroke-linecap:round;stroke-linejoin:round;stroke-dasharray:none;stroke-opacity:1;paint-order:normal;stop-color:#000000"
       d="M 7.7354506,18.902572 5.5452359,18.75928"
       id="path7895" /></g><metadata
     id="metadata4277"><rdf:RDF><cc:Work
         rdf:about=""><dc:title>Gutkato kosmovojaĝisto</dc:title><dc:creator><cc:Agent><dc:title>Tirifto</dc:title></cc:Agent></dc:creator><dc:subject><rdf:Bag><rdf:li>gutkato</rdf:li><rdf:li>gutkatoj</rdf:li><rdf:li>federujo</rdf:li></rdf:Bag></dc:subject><cc:license
           rdf:resource="http://artlibre.org/licence/lal" /><dc:description>Gutkato, destinita al uzo kiel glumarko aŭ propra bildosigno, ekzemple en Federujo aŭ aliaj retaj komunikiloj.</dc:description><dc:date>2024</dc:date></cc:Work><cc:License
         rdf:about="http://artlibre.org/licence/lal"><cc:permits
           rdf:resource="http://creativecommons.org/ns#Reproduction" /><cc:permits
           rdf:resource="http://creativecommons.org/ns#Distribution" /><cc:permits
           rdf:resource="http://creativecommons.org/ns#DerivativeWorks" /><cc:requires
           rdf:resource="http://creativecommons.org/ns#ShareAlike" /><cc:requires
           rdf:resource="http://creativecommons.org/ns#Notice" /><cc:requires
           rdf:resource="http://creativecommons.org/ns#Attribution" /></cc:License></rdf:RDF></metadata><path
     style="fill:#d9d9d9;fill-opacity:1;stroke:#000000;stroke-width:0.79375;stroke-linecap:round;stroke-linejoin:round;stroke-dasharray:none;paint-order:normal;stop-color:#000000"
     d="m 30.067065,22.578246 c -0.01225,0.310625 -0.03043,0.612264 -0.05458,0.903114 -0.04829,0.5817 -0.120418,1.120244 -0.216573,1.601216 -0.192311,0.961944 -0.480728,1.693599 -0.866752,2.079627 C 24.518224,31.573189 5.67995,31.273305 4.0639285,25.242152 3.8140634,24.30963 3.7030413,23.125239 3.7092413,21.83 c 0.00155,-0.32381 0.010426,-0.654548 0.02629,-0.990011 0.9566749,1.507774 2.7170948,2.599541 4.9105046,3.331759 1.0967051,0.366109 2.3009841,0.646792 3.5685131,0.835722 0.882355,0.131519 2.850062,0.320318 3.939931,0.338743 2.689151,0.04546 5.439504,-0.163936 7.881853,-0.644083 2.44235,-0.480147 4.576178,-1.206928 6.030732,-2.123884 z"
     id="path298-3"
     sodipodi:nodetypes="cssssscssssc" /><path
     style="opacity:0.8;fill:#d9d9d9;fill-opacity:0.38;stroke:#000000;stroke-width:1.00542;stroke-linecap:round;stroke-linejoin:round;stroke-dasharray:none;stroke-opacity:0.994046;paint-order:markers fill stroke;stop-color:#000000"
     d="M 6.1031676,1.8017494 C 5.0569783,2.2899979 5.1066649,9.7782143 5.1066649,9.7782143 3.7941579,11.956181 3.0994126,14.450404 3.0969685,16.993278 c 0.00237,1.398428 0.2141835,2.788615 0.6283854,4.124296 0.00332,-0.09247 0.00593,-0.184261 0.010335,-0.277503 0.956674,1.507773 2.7168869,2.599362 4.9102945,3.33158 1.096704,0.366108 2.3012466,0.646678 3.5687746,0.835608 0.882354,0.131518 2.849943,0.320572 3.939811,0.338997 2.689148,0.04546 5.439343,-0.163742 7.881689,-0.643888 2.343679,-0.460749 4.40138,-1.149271 5.849256,-2.014348 0.80144,-1.791737 1.217297,-3.731933 1.220597,-5.694742 -3.45e-4,-1.375654 -0.203374,-2.743751 -0.602547,-4.060218 0,0 2.270056,-8.1016818 1.288115,-8.925987 C 30.809738,3.1827678 25.073632,5.4791491 25.073632,5.4791491 22.820131,3.8589082 20.034613,2.988708 17.101281,2.988448 c -2.18305,0.00253 -4.33528,0.5153669 -6.284887,1.497583 0,0 -3.6670371,-3.1725301 -4.7132264,-2.6842816 z"
     id="path7625"
     sodipodi:nodetypes="zccccssssccczcccz" /></svg>
