<?xml version="1.0" encoding="UTF-8" standalone="no"?>
<!-- Created with Inkscape (http://www.inkscape.org/) -->

<svg
   width="128"
   height="128"
   viewBox="0 0 33.866666 33.866666"
   version="1.1"
   id="svg5"
   xml:space="preserve"
   sodipodi:docname="gutkato_manĝas_langoŝon.svg"
   inkscape:version="1.2.2 (b0a8486541, 2022-12-01)"
   inkscape:export-filename="gutkato_manĝas_langoŝon_2.png"
   inkscape:export-xdpi="96"
   inkscape:export-ydpi="96"
   xmlns:inkscape="http://www.inkscape.org/namespaces/inkscape"
   xmlns:sodipodi="http://sodipodi.sourceforge.net/DTD/sodipodi-0.dtd"
   xmlns:xlink="http://www.w3.org/1999/xlink"
   xmlns="http://www.w3.org/2000/svg"
   xmlns:svg="http://www.w3.org/2000/svg"
   xmlns:rdf="http://www.w3.org/1999/02/22-rdf-syntax-ns#"
   xmlns:cc="http://creativecommons.org/ns#"
   xmlns:dc="http://purl.org/dc/elements/1.1/"><sodipodi:namedview
     id="namedview15"
     pagecolor="#505050"
     bordercolor="#eeeeee"
     borderopacity="1"
     inkscape:showpageshadow="0"
     inkscape:pageopacity="0"
     inkscape:pagecheckerboard="0"
     inkscape:deskcolor="#505050"
     showgrid="false"
     showguides="false"
     inkscape:zoom="2.56"
     inkscape:cx="42.1875"
     inkscape:cy="94.335938"
     inkscape:window-width="1232"
     inkscape:window-height="750"
     inkscape:window-x="48"
     inkscape:window-y="26"
     inkscape:window-maximized="1"
     inkscape:current-layer="g7576" /><title
     id="title4279">Gutkato manĝas langoŝon</title><defs
     id="defs2"><pattern
       inkscape:collect="always"
       xlink:href="#pattern1957"
       id="pattern6119"
       patternTransform="matrix(0.26389553,0,0,0.26389553,40.020094,40.606129)" /><pattern
       patternUnits="userSpaceOnUse"
       width="16.000001"
       height="16"
       patternTransform="translate(106.88875,162.79145)"
       id="pattern1957"><g
         id="g1955"
         transform="matrix(3.7795276,0,0,3.7795276,-106.88875,-162.79145)"><rect
           style="opacity:1;fill:#ffe597;fill-opacity:1;stroke:none;stroke-width:0.79375;stroke-linecap:round;stroke-linejoin:round;stroke-miterlimit:8;paint-order:markers fill stroke;stop-color:#000000"
           id="rect1900"
           width="4.2333331"
           height="4.2333331"
           x="28.280981"
           y="43.071903" /><rect
           style="opacity:1;fill:#f7d363;fill-opacity:1;stroke:none;stroke-width:0.793749;stroke-linecap:round;stroke-linejoin:round;stroke-miterlimit:8;paint-order:markers fill stroke;stop-color:#000000"
           id="rect1902"
           width="0.74835467"
           height="0.74835467"
           x="50.828285"
           y="10.084584"
           transform="rotate(45)" /><use
           x="0"
           y="0"
           xlink:href="#rect1902"
           id="use1908"
           transform="translate(1.0583333)" /><use
           x="0"
           y="0"
           xlink:href="#use1908"
           id="use1910"
           transform="translate(1.0583333)" /><use
           x="0"
           y="0"
           xlink:href="#use1910"
           id="use1912"
           transform="translate(1.0583333)" /><use
           x="0"
           y="0"
           xlink:href="#rect1902"
           id="use1914"
           transform="translate(0,1.0583333)" /><use
           x="0"
           y="0"
           xlink:href="#use1908"
           id="use1916"
           transform="translate(0,1.0583333)" /><use
           x="0"
           y="0"
           xlink:href="#use1910"
           id="use1918"
           transform="translate(0,1.0583333)" /><use
           x="0"
           y="0"
           xlink:href="#use1912"
           id="use1920"
           transform="translate(0,1.0583333)" /><use
           x="0"
           y="0"
           xlink:href="#use1914"
           id="use1922"
           transform="translate(0,1.0583333)" /><use
           x="0"
           y="0"
           xlink:href="#use1916"
           id="use1924"
           transform="translate(0,1.0583333)" /><use
           x="0"
           y="0"
           xlink:href="#use1918"
           id="use1926"
           transform="translate(0,1.0583333)" /><use
           x="0"
           y="0"
           xlink:href="#use1920"
           id="use1928"
           transform="translate(0,1.0583333)" /><use
           x="0"
           y="0"
           xlink:href="#use1922"
           id="use1930"
           transform="translate(0,1.0583333)" /><use
           x="0"
           y="0"
           xlink:href="#use1924"
           id="use1932"
           transform="translate(0,1.0583333)" /><use
           x="0"
           y="0"
           xlink:href="#use1926"
           id="use1934"
           transform="translate(0,1.0583333)" /><use
           x="0"
           y="0"
           xlink:href="#use1928"
           id="use1936"
           transform="translate(0,1.0583333)" /></g></pattern></defs><g
     id="layer1"><path
       style="fill:#ffdb26;fill-opacity:1;stroke:#000000;stroke-width:1.05833;stroke-linecap:round;stroke-linejoin:round;stroke-dasharray:none;paint-order:normal;stop-color:#000000"
       d="M 6.3460128,10.987509 C 6.0131876,8.1033126 6.9112569,5.0355095 7.1713329,3.7040818 c 1.6823697,0.883682 3.1509471,1.8173157 5.1540591,3.4426941 3.460025,-0.9271224 7.675181,-0.4344139 10.458981,0.611344 2.188665,-1.101117 4.320882,-1.7567683 7.249119,-1.9517024 0.321474,1.7913943 -0.0283,5.5961075 -1.06115,7.5149165 1.483302,5.222627 1.500916,12.296756 -0.04318,13.840869 C 24.518229,31.573194 5.6799495,31.273305 4.0639285,25.242152 3.064468,21.512066 4.2865251,13.752064 6.3460128,10.987509 Z"
       id="path236" /><ellipse
       style="fill:#000000;fill-opacity:1;stroke:none;stroke-width:2.11668;stroke-linecap:round;stroke-linejoin:round;stroke-dasharray:none;paint-order:stroke markers fill;stop-color:#000000"
       id="path6982"
       cx="12.96371"
       cy="12.570978"
       rx="1.6752723"
       ry="2.1418331"
       transform="rotate(8)" /><use
       x="0"
       y="0"
       xlink:href="#path6982"
       id="use7712"
       transform="translate(8.953004,0.69247082)"
       style="stroke-width:1.07136" /><g
       id="g7576"
       transform="rotate(4,265.54593,14.464383)"><path
         id="path357"
         style="fill:#c4965c;stroke:#000000;stroke-width:0.79375;stroke-linecap:round;stroke-linejoin:round;stroke-miterlimit:8;paint-order:markers fill stroke;stop-color:#000000"
         d="m 23.723687,43.963825 c 0,0.906908 -0.424852,1.943388 -0.797398,2.729222 -0.372545,0.785834 -1.297344,1.355396 -1.963489,1.949721 -0.666145,0.594324 -1.470917,1.374528 -2.351714,1.706908 -0.880797,0.33238 -1.759553,0.485922 -2.776056,0.485922 -1.016502,0 -2.471626,-0.462842 -3.352424,-0.795221 -0.880797,-0.33238 -1.789467,-1.246353 -1.963937,-1.897483 C 10.33122,47.443323 9.4354304,46.532557 8.8059073,45.903033 8.1909578,45.288084 7.7440635,44.090003 8.0370182,42.996681 c 0.2347252,-0.876007 0.7102034,-1.63823 1.0827492,-2.424064 0.372546,-0.785834 1.3476726,-1.172699 2.0138176,-1.767024 0.666144,-0.594324 1.2593,-1.10181 2.140097,-1.434189 0.880797,-0.33238 1.914066,-0.39085 2.930569,-0.39085 1.016502,0 2.136852,0.195005 3.017649,0.527385 0.880797,0.332379 1.703133,1.260992 2.149499,2.03412 0.457502,0.792416 1.068382,1.077841 1.683332,1.692791 0.697056,0.697056 0.668956,1.822066 0.668956,2.728975 z"
         sodipodi:nodetypes="sssssssssssssssss" /><path
         id="path1844"
         style="fill:#f3f2e9;fill-opacity:1;stroke:none;stroke-width:0.793748;stroke-linecap:round;stroke-linejoin:round;stroke-miterlimit:8;paint-order:markers fill stroke;stop-color:#000000"
         d="m 21.883698,43.950823 c 0,0.695393 -0.230305,1.106113 -0.515964,1.70867 -0.285657,0.602556 -0.446272,1.045278 -0.957054,1.500991 -0.510782,0.455712 -1.082758,1.552191 -1.75813,1.807051 -0.675371,0.25486 -2.121123,0.284986 -2.900551,0.284986 -0.779426,0 -1.737267,-0.716465 -2.412639,-0.971324 -0.675372,-0.254861 -1.40106,-0.566909 -1.534839,-1.066178 -0.143731,-0.536412 -0.652752,-1.019341 -1.135454,-1.502043 -0.471527,-0.471526 -0.668386,-1.557194 -0.443756,-2.395524 0.179981,-0.671699 0.174831,-1.36436 0.46049,-1.966917 0.285658,-0.602557 0.824851,-1.099665 1.335633,-1.555377 0.510782,-0.455712 1.153558,-0.862092 1.82893,-1.116951 0.675372,-0.25486 1.488203,-0.08197 2.26763,-0.08197 0.779427,0 1.638481,0.149525 2.313853,0.404385 0.675372,0.25486 1.305917,0.419166 1.648179,1.01198 0.3508,0.607604 0.819207,1.374189 1.290734,1.845717 0.534484,0.534484 0.512938,1.397111 0.512938,2.092504 z"
         sodipodi:nodetypes="sssssssssssssssss" /><path
         id="path1846"
         style="fill:url(#pattern6119);fill-opacity:1;stroke:none;stroke-width:0.793748;stroke-linecap:round;stroke-linejoin:round;stroke-miterlimit:8;paint-order:markers fill stroke;stop-color:#000000"
         d="m 46.290204,42.086538 c -0.0014,0.460161 0.03962,0.892334 -0.07459,1.318566 -0.130207,0.485939 -0.427767,0.874981 -0.765768,1.176541 -0.338,0.301559 -0.850877,0.65596 -1.297792,0.82461 -0.446914,0.168649 -1.403614,0.188584 -1.919387,0.188584 -0.51577,0 -1.207908,-0.31694 -1.654823,-0.485589 -0.446915,-0.16865 -0.835843,-0.527109 -1.125173,-0.816438 -0.259849,-0.25985 -0.615912,-0.750532 -0.733383,-1.188941 -0.114209,-0.426232 -0.392896,-1.083198 -0.244251,-1.637948 0.119098,-0.444484 0.40297,-0.938074 0.591999,-1.336805 0.189029,-0.398732 0.549961,-0.661916 0.887962,-0.963475 0.338,-0.301559 0.734743,-0.474049 1.196143,-0.59768 0.470359,-0.126033 1.158791,-0.143454 1.52721,-0.143454 0.365638,0 0.950857,0.107701 1.397772,0.276345 0.446915,0.16865 0.98829,0.461532 1.308589,0.781831 0.365333,0.365332 0.767598,0.810079 0.861253,1.175888 0.124745,0.487242 0.04553,0.998909 0.04424,1.427965 z"
         sodipodi:nodetypes="sssssssssssssssss" /></g><path
       style="fill:#ffdb26;fill-opacity:1;stroke:#000000;stroke-width:0.79375;stroke-linecap:round;stroke-linejoin:round;stroke-dasharray:none;stroke-opacity:1;paint-order:normal;stop-color:#000000"
       d="m 10.004075,19.121173 c -1.4238886,3.039424 2.342169,4.371724 4.594902,1.690642 3.202672,3.608669 6.496348,1.194297 5.575255,-1.100462"
       id="path7824" /><path
       style="fill:none;fill-opacity:1;stroke:#000000;stroke-width:0.79375;stroke-linecap:round;stroke-linejoin:round;stroke-dasharray:none;stroke-opacity:1;paint-order:normal;stop-color:#000000"
       d="m 22.889183,18.104059 4.87622,-0.734341"
       id="path7889" /><path
       style="fill:none;fill-opacity:1;stroke:#000000;stroke-width:0.79375;stroke-linecap:round;stroke-linejoin:round;stroke-dasharray:none;stroke-opacity:1;paint-order:normal;stop-color:#000000"
       d="m 22.899838,20.260593 4.684517,0.851137"
       id="path7891" /><path
       style="fill:none;fill-opacity:1;stroke:#000000;stroke-width:0.79375;stroke-linecap:round;stroke-linejoin:round;stroke-dasharray:none;stroke-opacity:1;paint-order:normal;stop-color:#000000"
       d="M 8.2565339,17.019465 5.9675926,15.975012"
       id="path7893" /><path
       style="fill:none;fill-opacity:1;stroke:#000000;stroke-width:0.79375;stroke-linecap:round;stroke-linejoin:round;stroke-dasharray:none;stroke-opacity:1;paint-order:normal;stop-color:#000000"
       d="M 7.7354506,18.902572 5.5452359,18.75928"
       id="path7895" /><rect
       style="stroke:none;fill:url(#pattern1957)"
       transform="scale(0.26458333)"
       width="16.000001"
       height="16"
       x="106.88875"
       y="162.79145"
       id="rect1977" /><rect
       style="opacity:1;fill:#ffdb26;fill-opacity:1;stroke:none;stroke-width:0.79375;stroke-linecap:round;stroke-linejoin:round;stroke-miterlimit:8;paint-order:markers fill stroke;stop-color:#000000"
       id="rect7630"
       width="7.0958061"
       height="2.7201552"
       x="11.335521"
       y="17.413061" /></g><metadata
     id="metadata4277"><rdf:RDF><cc:Work
         rdf:about=""><dc:title>Gutkato manĝas langoŝon</dc:title><dc:creator><cc:Agent><dc:title>Tirifto</dc:title></cc:Agent></dc:creator><dc:subject><rdf:Bag><rdf:li>gutkato</rdf:li><rdf:li>gutkatoj</rdf:li><rdf:li>federujo</rdf:li></rdf:Bag></dc:subject><cc:license
           rdf:resource="http://artlibre.org/licence/lal" /><dc:description>Gutkato, destinita al uzo kiel glumarko aŭ propra bildosigno, ekzemple en Federujo aŭ aliaj retaj komunikiloj.</dc:description><dc:date>2024</dc:date></cc:Work><cc:License
         rdf:about="http://artlibre.org/licence/lal"><cc:permits
           rdf:resource="http://creativecommons.org/ns#Reproduction" /><cc:permits
           rdf:resource="http://creativecommons.org/ns#Distribution" /><cc:permits
           rdf:resource="http://creativecommons.org/ns#DerivativeWorks" /><cc:requires
           rdf:resource="http://creativecommons.org/ns#ShareAlike" /><cc:requires
           rdf:resource="http://creativecommons.org/ns#Notice" /><cc:requires
           rdf:resource="http://creativecommons.org/ns#Attribution" /></cc:License></rdf:RDF></metadata></svg>
