<?xml version="1.0" encoding="UTF-8" standalone="no"?>
<!-- Created with Inkscape (http://www.inkscape.org/) -->

<svg
   width="128"
   height="128"
   viewBox="0 0 33.866666 33.866666"
   version="1.1"
   id="svg5"
   xml:space="preserve"
   sodipodi:docname="gutkato_post_pano.svg"
   inkscape:version="1.2.2 (b0a8486541, 2022-12-01)"
   xmlns:inkscape="http://www.inkscape.org/namespaces/inkscape"
   xmlns:sodipodi="http://sodipodi.sourceforge.net/DTD/sodipodi-0.dtd"
   xmlns:xlink="http://www.w3.org/1999/xlink"
   xmlns="http://www.w3.org/2000/svg"
   xmlns:svg="http://www.w3.org/2000/svg"
   xmlns:rdf="http://www.w3.org/1999/02/22-rdf-syntax-ns#"
   xmlns:cc="http://creativecommons.org/ns#"
   xmlns:dc="http://purl.org/dc/elements/1.1/"><sodipodi:namedview
     id="namedview15"
     pagecolor="#505050"
     bordercolor="#eeeeee"
     borderopacity="1"
     inkscape:showpageshadow="0"
     inkscape:pageopacity="0"
     inkscape:pagecheckerboard="0"
     inkscape:deskcolor="#505050"
     showgrid="false"
     inkscape:zoom="2"
     inkscape:cx="107.5"
     inkscape:cy="48.75"
     inkscape:window-width="1232"
     inkscape:window-height="750"
     inkscape:window-x="48"
     inkscape:window-y="26"
     inkscape:window-maximized="1"
     inkscape:current-layer="svg5"
     showguides="true" /><title
     id="title4279">Gutkato post pano</title><defs
     id="defs2"><pattern
       inkscape:collect="always"
       xlink:href="#pattern3028"
       id="pattern4026"
       patternTransform="matrix(0.26410306,0,0,0.26410306,17.009215,6.5191717)" /><pattern
       patternUnits="userSpaceOnUse"
       width="60.000001"
       height="60.000001"
       patternTransform="translate(76.679915,150.33954)"
       id="pattern3028"><g
         id="g3026"
         transform="matrix(3.7795276,0,0,3.7795276,-76.679915,-150.33954)"><rect
           style="fill:#f2cea1;fill-opacity:1;stroke:none;stroke-width:3.70417;stroke-linecap:square;stroke-linejoin:round;stroke-dasharray:none;stroke-opacity:1;stop-color:#000000"
           id="rect2931"
           width="15.875"
           height="15.875"
           x="20.288227"
           y="39.777336"
           rx="0"
           ry="0" /><circle
           style="fill:#e5c499;fill-opacity:1;stroke:none;stroke-width:3.70417;stroke-linecap:square;stroke-linejoin:round;stroke-dasharray:none;stroke-opacity:1;stop-color:#000000"
           id="path2985"
           cx="22.180029"
           cy="43.662918"
           r="1.0583334" /><circle
           style="fill:#e5c499;fill-opacity:1;stroke:none;stroke-width:3.70416;stroke-linecap:square;stroke-linejoin:round;stroke-dasharray:none;stroke-opacity:1;stop-color:#000000"
           id="circle2987"
           cx="32.587658"
           cy="51.483807"
           r="1.5875" /><use
           x="0"
           y="0"
           xlink:href="#circle2987"
           id="use2993"
           transform="translate(-1.6599718,-9.0453483)" /><use
           x="0"
           y="0"
           xlink:href="#use2993"
           id="use2995"
           transform="translate(-4.5545766,5.2637678)" /><use
           x="0"
           y="0"
           xlink:href="#use2995"
           id="use2997"
           transform="translate(-3.1123181,5.4104916)" /><use
           x="0"
           y="0"
           xlink:href="#path2985"
           id="use2999"
           transform="translate(6.835051,10.143766)" /><use
           x="0"
           y="0"
           xlink:href="#use2999"
           id="use3001"
           transform="translate(-1.9905455,-9.7300608)" /><use
           x="0"
           y="0"
           xlink:href="#use3001"
           id="use3003"
           transform="translate(3.0269469,3.4351184)" /><use
           x="0"
           y="0"
           xlink:href="#use3003"
           id="use3005"
           transform="translate(-6.9678331,1.395903)" /><use
           x="0"
           y="0"
           xlink:href="#use3005"
           id="use3007"
           transform="translate(10.96666,-2.2137701)" /><use
           x="0"
           y="0"
           xlink:href="#use3007"
           id="use3009"
           transform="translate(-9.4132493,-5.3137997)" /><use
           x="0"
           y="0"
           xlink:href="#use3009"
           id="use3011"
           transform="translate(9.7983505,1.5177827)" /></g></pattern></defs><g
     id="g1883"
     transform="rotate(-25,16.898517,17.066829)"><path
       style="fill:#ffdb26;fill-opacity:1;stroke:#000000;stroke-width:1.05833;stroke-linecap:round;stroke-linejoin:round;stroke-dasharray:none;paint-order:normal;stop-color:#000000"
       d="M 6.3460128,10.987509 C 6.0131876,8.1033126 6.9112569,5.0355095 7.1713329,3.7040818 c 1.6823697,0.883682 3.1509471,1.8173157 5.1540591,3.4426941 3.460025,-0.9271224 7.675181,-0.4344139 10.458981,0.611344 2.188665,-1.101117 4.320882,-1.7567683 7.249119,-1.9517024 0.321474,1.7913943 -0.0283,5.5961075 -1.06115,7.5149165 1.483302,5.222627 1.500916,12.296756 -0.04318,13.840869 C 24.518229,31.573194 5.6799495,31.273305 4.0639285,25.242152 3.064468,21.512066 4.2865251,13.752064 6.3460128,10.987509 Z"
       id="path1867" /><ellipse
       style="fill:#000000;fill-opacity:1;stroke:none;stroke-width:2.11668;stroke-linecap:round;stroke-linejoin:round;stroke-dasharray:none;paint-order:stroke markers fill;stop-color:#000000"
       id="ellipse1869"
       cx="12.96371"
       cy="12.570978"
       rx="1.6752723"
       ry="2.1418331"
       transform="rotate(8)" /><use
       x="0"
       y="0"
       xlink:href="#path6982"
       id="use1871"
       transform="translate(8.953004,0.69247082)"
       style="stroke-width:1.07136" /><path
       style="fill:none;fill-opacity:1;stroke:#000000;stroke-width:0.79375;stroke-linecap:round;stroke-linejoin:round;stroke-dasharray:none;stroke-opacity:1;paint-order:stroke markers fill;stop-color:#000000"
       d="m 10.004075,19.121173 c -1.4238886,3.039424 2.342169,4.371724 4.594902,1.690642 3.202672,3.608669 6.496348,1.194297 5.575255,-1.100462"
       id="path1873" /><path
       style="fill:none;fill-opacity:1;stroke:#000000;stroke-width:0.79375;stroke-linecap:round;stroke-linejoin:round;stroke-dasharray:none;stroke-opacity:1;paint-order:normal;stop-color:#000000"
       d="m 22.889183,18.104059 4.87622,-0.734341"
       id="path1875" /><path
       style="fill:none;fill-opacity:1;stroke:#000000;stroke-width:0.79375;stroke-linecap:round;stroke-linejoin:round;stroke-dasharray:none;stroke-opacity:1;paint-order:normal;stop-color:#000000"
       d="m 22.899838,20.260593 4.684517,0.851137"
       id="path1877" /><path
       style="fill:none;fill-opacity:1;stroke:#000000;stroke-width:0.79375;stroke-linecap:round;stroke-linejoin:round;stroke-dasharray:none;stroke-opacity:1;paint-order:normal;stop-color:#000000"
       d="M 8.2565339,17.019465 5.9675926,15.975012"
       id="path1879" /><path
       style="fill:none;fill-opacity:1;stroke:#000000;stroke-width:0.79375;stroke-linecap:round;stroke-linejoin:round;stroke-dasharray:none;stroke-opacity:1;paint-order:normal;stop-color:#000000"
       d="M 7.7354506,18.902572 5.5452359,18.75928"
       id="path1881" /></g><g
     id="layer1"
     transform="translate(52.916684)"><path
       style="fill:#ffdb26;fill-opacity:1;stroke:#000000;stroke-width:1.05833;stroke-linecap:round;stroke-linejoin:round;stroke-dasharray:none;paint-order:normal;stop-color:#000000"
       d="M 6.3460128,10.987509 C 6.0131876,8.1033126 6.9112569,5.0355095 7.1713329,3.7040818 c 1.6823697,0.883682 3.1509471,1.8173157 5.1540591,3.4426941 3.460025,-0.9271224 7.675181,-0.4344139 10.458981,0.611344 2.188665,-1.101117 4.320882,-1.7567683 7.249119,-1.9517024 0.321474,1.7913943 -0.0283,5.5961075 -1.06115,7.5149165 1.483302,5.222627 1.500916,12.296756 -0.04318,13.840869 C 24.518229,31.573194 5.6799495,31.273305 4.0639285,25.242152 3.064468,21.512066 4.2865251,13.752064 6.3460128,10.987509 Z"
       id="path236" /><ellipse
       style="fill:#000000;fill-opacity:1;stroke:none;stroke-width:2.11668;stroke-linecap:round;stroke-linejoin:round;stroke-dasharray:none;paint-order:stroke markers fill;stop-color:#000000"
       id="path6982"
       cx="12.96371"
       cy="12.570978"
       rx="1.6752723"
       ry="2.1418331"
       transform="rotate(8)" /><use
       x="0"
       y="0"
       xlink:href="#path6982"
       id="use7712"
       transform="translate(8.953004,0.69247082)"
       style="stroke-width:1.07136" /><path
       style="fill:none;fill-opacity:1;stroke:#000000;stroke-width:0.79375;stroke-linecap:round;stroke-linejoin:round;stroke-dasharray:none;stroke-opacity:1;paint-order:stroke markers fill;stop-color:#000000"
       d="m 10.004075,19.121173 c -1.4238886,3.039424 2.342169,4.371724 4.594902,1.690642 3.202672,3.608669 6.496348,1.194297 5.575255,-1.100462"
       id="path7824" /><path
       style="fill:none;fill-opacity:1;stroke:#000000;stroke-width:0.79375;stroke-linecap:round;stroke-linejoin:round;stroke-dasharray:none;stroke-opacity:1;paint-order:normal;stop-color:#000000"
       d="m 22.889183,18.104059 4.87622,-0.734341"
       id="path7889" /><path
       style="fill:none;fill-opacity:1;stroke:#000000;stroke-width:0.79375;stroke-linecap:round;stroke-linejoin:round;stroke-dasharray:none;stroke-opacity:1;paint-order:normal;stop-color:#000000"
       d="m 22.899838,20.260593 4.684517,0.851137"
       id="path7891" /><path
       style="fill:none;fill-opacity:1;stroke:#000000;stroke-width:0.79375;stroke-linecap:round;stroke-linejoin:round;stroke-dasharray:none;stroke-opacity:1;paint-order:normal;stop-color:#000000"
       d="M 8.2565339,17.019465 5.9675926,15.975012"
       id="path7893" /><path
       style="fill:none;fill-opacity:1;stroke:#000000;stroke-width:0.79375;stroke-linecap:round;stroke-linejoin:round;stroke-dasharray:none;stroke-opacity:1;paint-order:normal;stop-color:#000000"
       d="M 7.7354506,18.902572 5.5452359,18.75928"
       id="path7895" /></g><metadata
     id="metadata4277"><rdf:RDF><cc:Work
         rdf:about=""><dc:title>Gutkato post pano</dc:title><dc:creator><cc:Agent><dc:title>Tirifto</dc:title></cc:Agent></dc:creator><dc:subject><rdf:Bag><rdf:li>gutkato</rdf:li><rdf:li>gutkatoj</rdf:li><rdf:li>federujo</rdf:li></rdf:Bag></dc:subject><cc:license
           rdf:resource="http://artlibre.org/licence/lal" /><dc:description>Gutkato, destinita al uzo kiel glumarko aŭ propra bildosigno, ekzemple en Federujo aŭ aliaj retaj komunikiloj.</dc:description><dc:date>2024</dc:date></cc:Work><cc:License
         rdf:about="http://artlibre.org/licence/lal"><cc:permits
           rdf:resource="http://creativecommons.org/ns#Reproduction" /><cc:permits
           rdf:resource="http://creativecommons.org/ns#Distribution" /><cc:permits
           rdf:resource="http://creativecommons.org/ns#DerivativeWorks" /><cc:requires
           rdf:resource="http://creativecommons.org/ns#ShareAlike" /><cc:requires
           rdf:resource="http://creativecommons.org/ns#Notice" /><cc:requires
           rdf:resource="http://creativecommons.org/ns#Attribution" /></cc:License></rdf:RDF></metadata><g
     id="g2480"
     transform="translate(2.6171312,-0.62197865)"
     style="fill:url(#pattern4026);fill-opacity:1"><path
       id="path2476"
       style="fill:url(#pattern4026);fill-opacity:1;stroke:#000000;stroke-width:3.70417;stroke-linecap:square;stroke-linejoin:round;stroke-dasharray:none;stroke-opacity:1;stop-color:#000000"
       d="m 20.93078,3.0032823 h 21.166665 c 4.210008,0 5.291667,1.0918731 5.291667,4.6632811 0,3.5714076 -2.645833,5.1924486 -2.645833,5.1924486 v 4.564062 14.684267 H 18.284946 V 17.423074 12.859012 c 0,0 -2.645833,-2.258112 -2.645833,-5.1924486 0,-2.9343361 0.8145,-4.6632811 5.291667,-4.6632811 z"
       sodipodi:nodetypes="cczcccccczc" /><path
       id="rect317"
       style="fill:url(#pattern4026);fill-opacity:1;stroke:#b38f61;stroke-width:1.5875;stroke-linecap:square;stroke-linejoin:round;stop-color:#000000"
       d="m 20.93078,3.0032823 h 21.166665 c 4.210008,0 5.291667,1.0918731 5.291667,4.6632811 0,3.5714076 -2.645833,5.1924486 -2.645833,5.1924486 v 4.564062 14.684267 H 18.284946 V 17.423074 12.859012 c 0,0 -2.645833,-2.258112 -2.645833,-5.1924486 0,-2.9343361 0.8145,-4.6632811 5.291667,-4.6632811 z"
       sodipodi:nodetypes="cczcccccczc" /></g><rect
     style="stroke:none;fill:url(#pattern3028)"
     transform="scale(0.26458333)"
     width="60.000001"
     height="60.000001"
     x="76.679915"
     y="150.33954"
     id="rect3044" /></svg>
