<?xml version="1.0" encoding="UTF-8" standalone="no"?>
<!-- Created with Inkscape (http://www.inkscape.org/) -->

<svg
   width="128"
   height="128"
   viewBox="0 0 33.866666 33.866666"
   version="1.1"
   id="svg5"
   xml:space="preserve"
   sodipodi:docname="gutkato_manĝas_fragon.svg"
   inkscape:version="1.2.2 (b0a8486541, 2022-12-01)"
   xmlns:inkscape="http://www.inkscape.org/namespaces/inkscape"
   xmlns:sodipodi="http://sodipodi.sourceforge.net/DTD/sodipodi-0.dtd"
   xmlns:xlink="http://www.w3.org/1999/xlink"
   xmlns="http://www.w3.org/2000/svg"
   xmlns:svg="http://www.w3.org/2000/svg"
   xmlns:rdf="http://www.w3.org/1999/02/22-rdf-syntax-ns#"
   xmlns:cc="http://creativecommons.org/ns#"
   xmlns:dc="http://purl.org/dc/elements/1.1/"><sodipodi:namedview
     id="namedview15"
     pagecolor="#505050"
     bordercolor="#eeeeee"
     borderopacity="1"
     inkscape:showpageshadow="0"
     inkscape:pageopacity="0"
     inkscape:pagecheckerboard="0"
     inkscape:deskcolor="#505050"
     showgrid="false"
     showguides="false"
     inkscape:zoom="0.46093751"
     inkscape:cx="44.474575"
     inkscape:cy="105.22034"
     inkscape:window-width="1232"
     inkscape:window-height="750"
     inkscape:window-x="48"
     inkscape:window-y="26"
     inkscape:window-maximized="1"
     inkscape:current-layer="layer1" /><title
     id="title4279">Gutkato manĝas fragon</title><defs
     id="defs2" /><g
     id="layer1"><path
       style="fill:#ffdb26;fill-opacity:1;stroke:#000000;stroke-width:1.05833;stroke-linecap:round;stroke-linejoin:round;stroke-dasharray:none;paint-order:normal;stop-color:#000000"
       d="M 6.3460128,10.987509 C 6.0131876,8.1033126 6.9112569,5.0355095 7.1713329,3.7040818 c 1.6823697,0.883682 3.1509471,1.8173157 5.1540591,3.4426941 3.460025,-0.9271224 7.675181,-0.4344139 10.458981,0.611344 2.188665,-1.101117 4.320882,-1.7567683 7.249119,-1.9517024 0.321474,1.7913943 -0.0283,5.5961075 -1.06115,7.5149165 1.483302,5.222627 1.500916,12.296756 -0.04318,13.840869 C 24.518229,31.573194 5.6799495,31.273305 4.0639285,25.242152 3.064468,21.512066 4.2865251,13.752064 6.3460128,10.987509 Z"
       id="path236" /><ellipse
       style="fill:#000000;fill-opacity:1;stroke:none;stroke-width:2.11668;stroke-linecap:round;stroke-linejoin:round;stroke-dasharray:none;paint-order:stroke markers fill;stop-color:#000000"
       id="path6982"
       cx="12.96371"
       cy="12.570978"
       rx="1.6752723"
       ry="2.1418331"
       transform="rotate(8)" /><use
       x="0"
       y="0"
       xlink:href="#path6982"
       id="use7712"
       transform="translate(8.953004,0.69247082)"
       style="stroke-width:1.07136" /><g
       id="g12139"
       transform="rotate(-60,15.833292,24.659032)"><g
         id="g12161"
         transform="rotate(-60,-5.6253757,29.38918)"><path
           style="fill:#ff0d00;fill-opacity:1;stroke:#000000;stroke-width:0.793751;stroke-linecap:round;stroke-linejoin:round;stroke-opacity:1;paint-order:normal;stop-color:#000000"
           d="m 7.7873166,38.255588 c -0.3268073,-0.05121 -3.478486,-0.80201 -4.063283,3.6478 -0.2923985,2.224905 0.8084485,3.864474 1.9370759,5.793118 1.1286272,1.928643 2.2850354,3.301061 3.7913839,3.301061 1.5063486,0 2.6421866,-1.271951 3.7467786,-3.126503 1.104592,-1.854551 2.177937,-3.446402 1.871674,-5.776803 C 14.458421,37.43346 11.25881,38.128454 10.777787,38.21618 9.7814956,38.397878 8.7846748,38.411867 7.7873166,38.25559 Z"
           id="path6097"
           sodipodi:nodetypes="ssssssss" /><use
           x="0"
           y="0"
           xlink:href="#use12099"
           id="use12107"
           transform="translate(-1.5080743,-1.6111441)" /><use
           x="0"
           y="0"
           xlink:href="#use12107"
           id="use12109"
           transform="translate(-2.4360362,-0.14130712)" /><use
           x="0"
           y="0"
           xlink:href="#use12109"
           id="use12111"
           transform="translate(-2.615848,-0.67935073)" /><use
           x="0"
           y="0"
           xlink:href="#use12111"
           id="use12113"
           transform="translate(7.6196738,-0.28410322)" /><use
           x="0"
           y="0"
           xlink:href="#use12113"
           id="use12115"
           transform="translate(0.62654934,1.9346769)" /><use
           x="0"
           y="0"
           xlink:href="#use12115"
           id="use12117"
           transform="translate(-8.7768911,0.03979578)" /><path
           style="fill:#69c435;fill-opacity:1;stroke:#000000;stroke-width:0.793751;stroke-linecap:round;stroke-linejoin:round;stroke-opacity:1;paint-order:normal;stop-color:#000000"
           d="m 8.8389169,37.103502 7.272e-4,-1.398822 1.2473739,-0.0062 v 1.391789 c 2.893443,0 4.071112,1.350476 5.459168,2.738531 -1.325262,-0.20459 -2.082635,-0.543463 -3.379929,-1.015065 0.842863,0.801037 1.312018,1.641844 1.651948,2.575378 -1.342614,-0.44697 -2.608785,-1.05131 -3.612157,-1.932649 0.163899,0.997067 0.02395,1.677487 -0.5624762,2.447153 C 8.9549516,41.277204 8.3786754,40.592305 8.0720725,39.603053 7.5449461,40.28576 6.5968857,40.59004 5.5121508,41.32548 5.654847,40.111367 6.3117467,39.844666 6.7687382,38.74804 5.5153224,39.404768 4.7149201,39.675089 3.5317571,39.824568 5.0235199,38.332806 5.6362135,37.10351 8.8389169,37.10351 Z"
           id="path10533"
           sodipodi:nodetypes="ccccccccccccccc" /><ellipse
           style="fill:#f9f18b;fill-opacity:1;stroke:none;stroke-width:0.79375;stroke-linecap:round;stroke-linejoin:round;stroke-opacity:1;paint-order:normal;stop-color:#000000"
           id="path12049"
           cx="10.867763"
           cy="48.290775"
           rx="0.40033877"
           ry="0.57175708" /><use
           x="0"
           y="0"
           xlink:href="#path12049"
           id="use12077"
           transform="translate(-1.4424041,1.268075)" /><use
           x="0"
           y="0"
           xlink:href="#use12077"
           id="use12079"
           transform="translate(-1.7076406,-1.4885133)" /><use
           x="0"
           y="0"
           xlink:href="#use12079"
           id="use12081"
           transform="translate(1.5834704,-1.3226243)" /><use
           x="0"
           y="0"
           xlink:href="#use12077"
           id="use12083"
           transform="translate(2.7577127,-3.1212619)" /><use
           x="0"
           y="0"
           xlink:href="#use12083"
           id="use12085"
           transform="translate(1.3020205,-2.0776399)" /><use
           x="0"
           y="0"
           xlink:href="#use12085"
           id="use12087"
           transform="translate(-6.9818328,1.7788648)" /><use
           x="0"
           y="0"
           xlink:href="#use12087"
           id="use12089"
           transform="translate(-1.3216258,-2.3021165)" /><use
           x="0"
           y="0"
           xlink:href="#use12089"
           id="use12091"
           transform="translate(1.6154178,-1.4285468)" /><use
           x="0"
           y="0"
           xlink:href="#use12091"
           id="use12093"
           transform="translate(1.4273158,1.562487)" /><use
           x="0"
           y="0"
           xlink:href="#use12091"
           id="use12095"
           transform="translate(3.7135375,1.7399165)" /><ellipse
           style="fill:#f9f18b;fill-opacity:1;stroke:none;stroke-width:0.79375;stroke-linecap:round;stroke-linejoin:round;stroke-opacity:1;paint-order:normal;stop-color:#000000"
           id="use12099"
           cx="12.149137"
           cy="42.350037"
           rx="0.40033877"
           ry="0.57175708" /></g></g><path
       style="fill:#ffdb26;fill-opacity:1;stroke:#000000;stroke-width:0.79375;stroke-linecap:round;stroke-linejoin:round;stroke-dasharray:none;stroke-opacity:1;paint-order:normal;stop-color:#000000"
       d="m 10.004075,19.121173 c -1.4238886,3.039424 2.342169,4.371724 4.594902,1.690642 3.202672,3.608669 6.496348,1.194297 5.575255,-1.100462"
       id="path7824" /><path
       style="fill:none;fill-opacity:1;stroke:#000000;stroke-width:0.79375;stroke-linecap:round;stroke-linejoin:round;stroke-dasharray:none;stroke-opacity:1;paint-order:normal;stop-color:#000000"
       d="m 22.889183,18.104059 4.87622,-0.734341"
       id="path7889" /><path
       style="fill:none;fill-opacity:1;stroke:#000000;stroke-width:0.79375;stroke-linecap:round;stroke-linejoin:round;stroke-dasharray:none;stroke-opacity:1;paint-order:normal;stop-color:#000000"
       d="m 22.899838,20.260593 4.684517,0.851137"
       id="path7891" /><path
       style="fill:none;fill-opacity:1;stroke:#000000;stroke-width:0.79375;stroke-linecap:round;stroke-linejoin:round;stroke-dasharray:none;stroke-opacity:1;paint-order:normal;stop-color:#000000"
       d="M 8.2565339,17.019465 5.9675926,15.975012"
       id="path7893" /><path
       style="fill:none;fill-opacity:1;stroke:#000000;stroke-width:0.79375;stroke-linecap:round;stroke-linejoin:round;stroke-dasharray:none;stroke-opacity:1;paint-order:normal;stop-color:#000000"
       d="M 7.7354506,18.902572 5.5452359,18.75928"
       id="path7895" /></g><metadata
     id="metadata4277"><rdf:RDF><cc:Work
         rdf:about=""><dc:title>Gutkato manĝas fragon</dc:title><dc:creator><cc:Agent><dc:title>Tirifto</dc:title></cc:Agent></dc:creator><dc:subject><rdf:Bag><rdf:li>gutkato</rdf:li><rdf:li>gutkatoj</rdf:li><rdf:li>federujo</rdf:li></rdf:Bag></dc:subject><cc:license
           rdf:resource="http://artlibre.org/licence/lal" /><dc:description>Gutkato, destinita al uzo kiel glumarko aŭ propra bildosigno, ekzemple en Federujo aŭ aliaj retaj komunikiloj.</dc:description><dc:date>2024</dc:date></cc:Work><cc:License
         rdf:about="http://artlibre.org/licence/lal"><cc:permits
           rdf:resource="http://creativecommons.org/ns#Reproduction" /><cc:permits
           rdf:resource="http://creativecommons.org/ns#Distribution" /><cc:permits
           rdf:resource="http://creativecommons.org/ns#DerivativeWorks" /><cc:requires
           rdf:resource="http://creativecommons.org/ns#ShareAlike" /><cc:requires
           rdf:resource="http://creativecommons.org/ns#Notice" /><cc:requires
           rdf:resource="http://creativecommons.org/ns#Attribution" /></cc:License></rdf:RDF></metadata></svg>
