<?xml version="1.0" encoding="UTF-8" standalone="no"?>
<!-- Created with Inkscape (http://www.inkscape.org/) -->

<svg
   width="128"
   height="128"
   viewBox="0 0 33.866666 33.866666"
   version="1.1"
   id="svg5"
   xml:space="preserve"
   sodipodi:docname="gutkato_kapaŭskultiloj.svg"
   inkscape:version="1.2.2 (b0a8486541, 2022-12-01)"
   xmlns:inkscape="http://www.inkscape.org/namespaces/inkscape"
   xmlns:sodipodi="http://sodipodi.sourceforge.net/DTD/sodipodi-0.dtd"
   xmlns:xlink="http://www.w3.org/1999/xlink"
   xmlns="http://www.w3.org/2000/svg"
   xmlns:svg="http://www.w3.org/2000/svg"
   xmlns:rdf="http://www.w3.org/1999/02/22-rdf-syntax-ns#"
   xmlns:cc="http://creativecommons.org/ns#"
   xmlns:dc="http://purl.org/dc/elements/1.1/"><sodipodi:namedview
     id="namedview15"
     pagecolor="#505050"
     bordercolor="#eeeeee"
     borderopacity="1"
     inkscape:showpageshadow="0"
     inkscape:pageopacity="0"
     inkscape:pagecheckerboard="0"
     inkscape:deskcolor="#505050"
     showgrid="false"
     showguides="true"
     inkscape:zoom="2.6074563"
     inkscape:cx="90.893182"
     inkscape:cy="83.414629"
     inkscape:window-width="1232"
     inkscape:window-height="750"
     inkscape:window-x="48"
     inkscape:window-y="26"
     inkscape:window-maximized="1"
     inkscape:current-layer="svg5" /><title
     id="title4279">Gutkato, kapaŭskultiloj</title><defs
     id="defs2" /><path
     id="path15091"
     style="fill:#ef8dff;fill-opacity:1;stroke:#351f38;stroke-width:0.79375;stroke-linecap:round;stroke-linejoin:round;stroke-dasharray:none;stroke-opacity:1;paint-order:markers fill stroke;stop-color:#000000"
     d="M 5.8922597,0.66529777 C 4.3810313,0.26041214 2.5092394,0.83701887 1.8098075,2.0066843 1.154135,3.1031623 2.7717385,4.5634009 2.3040152,5.4223715 1.7270585,6.4819498 0.52903647,7.1776107 0.52903647,7.1776107 c 0,0 2.61071383,-0.2002149 3.03973893,-1.8011742 C 3.8580114,4.2971171 3.1973876,3.674625 3.4467783,2.9006216 3.7678068,1.9042839 4.9061417,1.0320421 5.8922597,0.66529777 Z m 0.1343802,0.071003 C 5.62065,0.62751147 5.1639212,1.0245929 5.0025647,1.6267146 L 3.2191081,8.2818979 c -0.021268,0.07936 -0.036227,0.158447 -0.045388,0.235774 A 2.586993,1.6289861 14.996168 0 0 3.1101661,8.6884299 2.586993,1.6289861 14.996168 0 0 5.1870683,10.93131 2.586993,1.6289861 14.996168 0 0 8.1078593,10.027404 2.586993,1.6289861 14.996168 0 0 6.0303852,7.7843692 2.586993,1.6289861 14.996168 0 0 4.959471,7.649649 L 6.4682658,2.0193978 C 6.6296224,1.417276 6.4326464,0.84505847 6.0266485,0.73628347 Z" /><path
     style="color:#000000;fill:#333333;stroke:#000000;stroke-width:0.79375;stroke-linecap:round;stroke-linejoin:round;stroke-miterlimit:8;stroke-dasharray:none;stroke-opacity:1"
     d="M 18.207429,0.97532986 C 14.701197,0.70018494 11.088158,1.2108392 8.135164,2.6511112 A 1.0583349,1.0583349 0 0 0 7.6488359,4.0651737 1.0583349,1.0583349 0 0 0 9.0628984,4.5534549 C 14.046115,2.1229774 22.241895,2.9281556 26.455476,5.7702518 a 1.0583349,1.0583349 0 0 0 1.46875,-0.2871094 1.0583349,1.0583349 0 0 0 -0.285156,-1.46875 C 25.113515,2.3108843 21.713661,1.2504748 18.207429,0.97532986 Z"
     id="path13258" /><ellipse
     style="fill:#333333;fill-opacity:1;stroke:#000000;stroke-width:0.79375;stroke-linecap:round;stroke-linejoin:round;stroke-miterlimit:8;stroke-dasharray:none;stroke-opacity:1;stop-color:#000000"
     id="ellipse12474"
     cx="8.2764311"
     cy="9.627923"
     rx="4.1010418"
     ry="4.3656249" /><g
     id="layer1"><path
       style="fill:#ffdb26;fill-opacity:1;stroke:#000000;stroke-width:1.05833;stroke-linecap:round;stroke-linejoin:round;stroke-dasharray:none;paint-order:normal;stop-color:#000000"
       d="M 6.3460128,10.987509 C 6.0131876,8.1033126 6.9112569,5.0355095 7.1713329,3.7040818 c 1.6823697,0.883682 3.1509471,1.8173157 5.1540591,3.4426941 3.460025,-0.9271224 7.675181,-0.4344139 10.458981,0.611344 2.188665,-1.101117 4.320882,-1.7567683 7.249119,-1.9517024 0.321474,1.7913943 -0.0283,5.5961075 -1.06115,7.5149165 1.483302,5.222627 1.500916,12.296756 -0.04318,13.840869 C 24.518229,31.573194 5.6799495,31.273305 4.0639285,25.242152 3.064468,21.512066 4.2865251,13.752064 6.3460128,10.987509 Z"
       id="path236" /><path
       style="fill:none;fill-opacity:1;stroke:#000000;stroke-width:0.79375;stroke-linecap:round;stroke-linejoin:round;stroke-dasharray:none;stroke-opacity:1;paint-order:stroke markers fill;stop-color:#000000"
       d="m 10.004075,19.121173 c -1.4238886,3.039424 2.342169,4.371724 4.594902,1.690642 3.202672,3.608669 6.496348,1.194297 5.575255,-1.100462"
       id="path7824" /><path
       style="fill:none;fill-opacity:1;stroke:#000000;stroke-width:0.79375;stroke-linecap:round;stroke-linejoin:round;stroke-dasharray:none;stroke-opacity:1;paint-order:normal;stop-color:#000000"
       d="m 22.889183,18.104059 4.87622,-0.734341"
       id="path7889" /><path
       style="fill:none;fill-opacity:1;stroke:#000000;stroke-width:0.79375;stroke-linecap:round;stroke-linejoin:round;stroke-dasharray:none;stroke-opacity:1;paint-order:normal;stop-color:#000000"
       d="m 22.899838,20.260593 4.684517,0.851137"
       id="path7891" /><path
       style="fill:none;fill-opacity:1;stroke:#000000;stroke-width:0.79375;stroke-linecap:round;stroke-linejoin:round;stroke-dasharray:none;stroke-opacity:1;paint-order:normal;stop-color:#000000"
       d="M 8.2565339,17.019465 5.9675926,15.975012"
       id="path7893" /><path
       style="fill:none;fill-opacity:1;stroke:#000000;stroke-width:0.79375;stroke-linecap:round;stroke-linejoin:round;stroke-dasharray:none;stroke-opacity:1;paint-order:normal;stop-color:#000000"
       d="M 7.7354506,18.902572 5.5452359,18.75928"
       id="path7895" /><path
       style="fill:none;fill-opacity:0.6;stroke:#000000;stroke-width:0.79375;stroke-linecap:round;stroke-linejoin:round;paint-order:markers fill stroke;stop-color:#000000"
       d="m 9.3682146,13.895971 c 1.5764984,-0.910192 2.8654284,0.07422 3.4395824,1.068725"
       id="path398"
       sodipodi:nodetypes="cc" /><use
       x="0"
       y="0"
       xlink:href="#path398"
       id="use681"
       transform="matrix(-1,0,0,1,31.129016,0.69247067)" /></g><metadata
     id="metadata4277"><rdf:RDF><cc:Work
         rdf:about=""><dc:title>Gutkato, kapaŭskultiloj</dc:title><dc:creator><cc:Agent><dc:title>Tirifto</dc:title></cc:Agent></dc:creator><dc:subject><rdf:Bag><rdf:li>gutkato</rdf:li><rdf:li>gutkatoj</rdf:li><rdf:li>federujo</rdf:li></rdf:Bag></dc:subject><cc:license
           rdf:resource="http://artlibre.org/licence/lal" /><dc:description>Gutkato, destinita al uzo kiel glumarko aŭ propra bildosigno, ekzemple en Federujo aŭ aliaj retaj komunikiloj.</dc:description><dc:date>2024</dc:date></cc:Work><cc:License
         rdf:about="http://artlibre.org/licence/lal"><cc:permits
           rdf:resource="http://creativecommons.org/ns#Reproduction" /><cc:permits
           rdf:resource="http://creativecommons.org/ns#Distribution" /><cc:permits
           rdf:resource="http://creativecommons.org/ns#DerivativeWorks" /><cc:requires
           rdf:resource="http://creativecommons.org/ns#ShareAlike" /><cc:requires
           rdf:resource="http://creativecommons.org/ns#Notice" /><cc:requires
           rdf:resource="http://creativecommons.org/ns#Attribution" /></cc:License></rdf:RDF></metadata><ellipse
     style="fill:#333333;fill-opacity:1;stroke:#000000;stroke-width:0.79375;stroke-linecap:round;stroke-linejoin:round;stroke-miterlimit:8;stroke-dasharray:none;stroke-opacity:1;stop-color:#000000"
     id="path12107"
     cx="27.591015"
     cy="11.083021"
     rx="4.1010418"
     ry="4.3656249" /><ellipse
     style="fill:#5d351c;fill-opacity:1;stroke:#000000;stroke-width:0.529167;stroke-linecap:round;stroke-linejoin:round;stroke-miterlimit:8;stroke-dasharray:none;stroke-opacity:1;stop-color:#000000"
     id="ellipse12472"
     cx="27.591015"
     cy="11.083021"
     rx="2.7268829"
     ry="2.9104166" /><path
     id="path2081"
     style="fill:#ef8dff;fill-opacity:1;stroke:#351f38;stroke-width:0.79375;stroke-linecap:round;stroke-linejoin:round;stroke-dasharray:none;stroke-opacity:1;paint-order:markers fill stroke;stop-color:#000000"
     d="m 26.677439,15.738239 c -1.511205,0.404973 -2.843921,1.840225 -2.864814,3.202901 -0.01959,1.277414 2.111415,1.733216 2.13584,2.710968 0.03013,1.2061 -0.659557,2.407571 -0.659557,2.407571 0,0 2.160837,-1.478748 1.731904,-3.079732 -0.289174,-1.079336 -1.172537,-1.288118 -1.34356,-2.08312 -0.22015,-1.023368 0.329556,-2.347919 1.000187,-3.158588 z m 0.151878,-0.0057 c -0.405992,0.108781 -0.60299,0.681028 -0.441668,1.283159 l 1.783073,6.655286 c 0.02126,0.07936 0.04785,0.155332 0.07858,0.22688 a 1.6289861,2.586993 74.996168 0 0 0.03034,0.179658 1.6289861,2.586993 74.996168 0 0 2.92009,0.90394 1.6289861,2.586993 74.996168 0 0 2.077526,-2.243201 1.6289861,2.586993 74.996168 0 0 -2.920663,-0.903788 1.6289861,2.586993 74.996168 0 0 -0.994799,0.418786 L 27.853325,16.622921 C 27.692003,16.02079 27.235308,15.623723 26.829316,15.73252 Z" /></svg>
