<?xml version="1.0" encoding="UTF-8" standalone="no"?>
<!-- Created with Inkscape (http://www.inkscape.org/) -->

<svg
   width="128"
   height="128"
   viewBox="0 0 33.866666 33.866666"
   version="1.1"
   id="svg5"
   xml:space="preserve"
   sodipodi:docname="gutkato_konfuzita.svg"
   inkscape:version="1.2.2 (b0a8486541, 2022-12-01)"
   xmlns:inkscape="http://www.inkscape.org/namespaces/inkscape"
   xmlns:sodipodi="http://sodipodi.sourceforge.net/DTD/sodipodi-0.dtd"
   xmlns:xlink="http://www.w3.org/1999/xlink"
   xmlns="http://www.w3.org/2000/svg"
   xmlns:svg="http://www.w3.org/2000/svg"
   xmlns:rdf="http://www.w3.org/1999/02/22-rdf-syntax-ns#"
   xmlns:cc="http://creativecommons.org/ns#"
   xmlns:dc="http://purl.org/dc/elements/1.1/"><sodipodi:namedview
     id="namedview15"
     pagecolor="#505050"
     bordercolor="#eeeeee"
     borderopacity="1"
     inkscape:showpageshadow="0"
     inkscape:pageopacity="0"
     inkscape:pagecheckerboard="0"
     inkscape:deskcolor="#505050"
     showgrid="false"
     showguides="false"
     inkscape:zoom="2.6074563"
     inkscape:cx="79.771231"
     inkscape:cy="81.113536"
     inkscape:window-width="1232"
     inkscape:window-height="750"
     inkscape:window-x="48"
     inkscape:window-y="26"
     inkscape:window-maximized="1"
     inkscape:current-layer="svg5" /><title
     id="title4279">Gutkato konfuzita</title><defs
     id="defs2" /><path
     style="fill:#ffdb26;fill-opacity:1;stroke:#000000;stroke-width:1.05833;stroke-linecap:round;stroke-linejoin:round;stroke-dasharray:none;paint-order:normal;stop-color:#000000"
     d="M 4.9368403,15.519485 C 3.0157487,12.93109 2.4503563,10.08228 2.0098749,8.799192 3.9086908,8.7232982 5.647333,8.79756 8.1947681,9.203623 10.982676,7.2596159 14.392895,6.4210588 17.558183,6.0910719 c 1.344881,-2.0479278 2.86361,-3.4172647 5.30207,-5.0502011 1.174102,1.390656 2.773546,4.595939 2.838476,6.7741013 3.896176,4.8700699 5.710396,15.8089339 2.172099,19.3472309 C 23.459866,31.573165 6.738303,31.2733 5.1222619,25.242152 4.5041364,22.935276 5.8787288,17.150884 4.9368403,15.519485 Z"
     id="path236" /><ellipse
     style="fill:#000000;fill-opacity:1;stroke:none;stroke-width:2.11668;stroke-linecap:round;stroke-linejoin:round;stroke-dasharray:none;paint-order:stroke markers fill;stop-color:#000000"
     id="path6982"
     cx="6.9440656"
     cy="17.3524"
     rx="1.6752723"
     ry="2.1418331"
     transform="rotate(-12)" /><use
     x="0"
     y="0"
     xlink:href="#path6982"
     id="use7712"
     transform="translate(8.6499108,-2.411398)"
     style="stroke-width:1.07136" /><use
     x="0"
     y="0"
     xlink:href="#text5301"
     id="use575"
     transform="matrix(0.31519126,1.1763098,-1.1708601,0.31373103,21.643119,-10.641729)"
     style="stroke-width:0.823058" /><path
     style="fill:#ffdb26;fill-opacity:1;stroke:#000000;stroke-width:0.79375;stroke-linecap:round;stroke-linejoin:round;stroke-dasharray:none;stroke-opacity:1;paint-order:normal;stop-color:#000000"
     d="m 11.046595,20.47492 c -0.298473,3.343123 3.696137,3.307008 4.89603,0.01713 4.243764,2.295661 6.513043,-1.09961 4.862645,-2.940945"
     id="path7824" /><path
     style="fill:none;fill-opacity:1;stroke:#000000;stroke-width:0.79375;stroke-linecap:round;stroke-linejoin:round;stroke-dasharray:none;stroke-opacity:1;paint-order:normal;stop-color:#000000"
     d="m 22.542235,15.112179 4.330988,-2.35782"
     id="path7889" /><path
     style="fill:none;fill-opacity:1;stroke:#000000;stroke-width:0.79375;stroke-linecap:round;stroke-linejoin:round;stroke-dasharray:none;stroke-opacity:1;paint-order:normal;stop-color:#000000"
     d="m 23.289825,17.135014 4.693112,-0.802392"
     id="path7891" /><path
     style="fill:none;fill-opacity:1;stroke:#000000;stroke-width:0.79375;stroke-linecap:round;stroke-linejoin:round;stroke-dasharray:none;stroke-opacity:1;paint-order:normal;stop-color:#000000"
     d="M 8.9502001,19.097655 6.4420749,18.899054"
     id="path7893" /><path
     style="fill:none;fill-opacity:1;stroke:#000000;stroke-width:0.79375;stroke-linecap:round;stroke-linejoin:round;stroke-dasharray:none;stroke-opacity:1;paint-order:normal;stop-color:#000000"
     d="M 9.1046025,21.045418 6.9974651,21.659865"
     id="path7895" /><metadata
     id="metadata4277"><rdf:RDF><cc:Work
         rdf:about=""><dc:title>Gutkato konfuzita</dc:title><dc:creator><cc:Agent><dc:title>Tirifto</dc:title></cc:Agent></dc:creator><dc:subject><rdf:Bag><rdf:li>gutkato</rdf:li><rdf:li>gutkatoj</rdf:li><rdf:li>federujo</rdf:li></rdf:Bag></dc:subject><cc:license
           rdf:resource="http://artlibre.org/licence/lal" /><dc:description>Gutkato, destinita al uzo kiel glumarko aŭ propra bildosigno, ekzemple en Federujo aŭ aliaj retaj komunikiloj.</dc:description><dc:date>2024</dc:date></cc:Work><cc:License
         rdf:about="http://artlibre.org/licence/lal"><cc:permits
           rdf:resource="http://creativecommons.org/ns#Reproduction" /><cc:permits
           rdf:resource="http://creativecommons.org/ns#Distribution" /><cc:permits
           rdf:resource="http://creativecommons.org/ns#DerivativeWorks" /><cc:requires
           rdf:resource="http://creativecommons.org/ns#ShareAlike" /><cc:requires
           rdf:resource="http://creativecommons.org/ns#Notice" /><cc:requires
           rdf:resource="http://creativecommons.org/ns#Attribution" /></cc:License></rdf:RDF></metadata><g
     aria-label="?"
     id="text5301"
     style="font-weight:bold;font-size:14.1111px;line-height:0.01%;font-family:'Komika Axis';-inkscape-font-specification:'Komika Axis Bold';text-align:center;letter-spacing:0px;word-spacing:0px;text-anchor:middle;fill:none;stroke:#990000;stroke-width:0.79375;stroke-linecap:round;stroke-linejoin:round;paint-order:markers fill stroke;stop-color:#000000"
     transform="translate(-1.0583333)"><path
       d="m 26.165526,10.495939 q 0.296333,0.127 0.64911,0.268111 0.352778,0.141111 0.649111,0.197555 0.296333,0.05645 0.479778,0 0.197555,-0.07056 0.183444,-0.338666 0.08467,-0.592666 0.324555,-1.0159994 0.254,-0.4374441 0.592666,-0.7619994 0.352778,-0.3245553 0.762,-0.5785551 0.409222,-0.2539998 0.818444,-0.4938885 0.423333,-0.2539998 0.804332,-0.5079996 0.395111,-0.2681109 0.705555,-0.6067773 0.310444,-0.3386664 0.564444,-0.8043327 0.268111,-0.4656663 0.324556,-1.0159992 0.07055,-0.564444 -0.127,-1.1994435 Q 32.713076,3.0029447 32.148632,2.3115008 31.880521,1.9587233 31.4713,1.6482791 31.076189,1.3237238 30.554078,1.1120573 30.046078,0.90039081 29.439301,0.82983531 28.832524,0.75927981 28.169302,0.88627971 27.068636,1.0838351 26.123193,1.775279 25.19186,2.4667229 24.486305,3.5391666 24.260527,3.877833 24.175861,4.1177217 q -0.08467,0.2257776 -0.04233,0.3809997 0.02822,0.1552221 0.155223,0.2681109 0.112888,0.098778 0.296333,0.1693332 0.705555,0.2963331 1.439332,0.2539998 0.747888,-0.056444 1.241777,-0.4656663 0.338666,-0.2681109 0.663221,-0.5362218 0.338667,-0.282222 0.649111,-0.4938885 0.324555,-0.2257777 0.635,-0.3668887 0.324555,-0.141111 0.64911,-0.141111 0.225778,0 0.423333,0.1269999 0.197556,0.1128888 0.239889,0.3951109 0.05644,0.4092219 -0.324555,0.9736659 -0.381,0.564444 -1.439333,1.1994435 -0.409222,0.2681109 -0.931332,0.6067773 -0.508,0.3386664 -0.959555,0.7761105 -0.451555,0.4374441 -0.776111,1.0018881 -0.324555,0.564444 -0.366888,1.2982212 -0.04233,0.3668886 0.04233,0.5644437 0.08467,0.197556 0.395111,0.366889 z m -1.15711,1.933221 q -0.02822,0.324555 0.07055,0.564444 0.112889,0.239888 0.310444,0.409222 0.211667,0.183444 0.479778,0.282222 0.282222,0.09878 0.592666,0.141111 0.705555,0.09878 1.142999,-0.155223 0.437444,-0.253999 0.550333,-0.64911 0.02822,-0.04233 0.02822,-0.169333 v -0.211667 q 0,-0.169333 -0.05644,-0.324555 -0.04233,-0.169333 -0.169333,-0.324555 -0.127,-0.155223 -0.352778,-0.282222 -0.211666,-0.141111 -0.550333,-0.239889 -0.451555,-0.127 -0.832555,-0.09878 -0.366888,0.02822 -0.634999,0.183444 -0.268111,0.141111 -0.423333,0.381 -0.141111,0.225778 -0.155222,0.493889 z"
       style="fill:#ff1a68;stroke:#360516"
       id="path568" /></g><use
     x="0"
     y="0"
     xlink:href="#text5301"
     id="use571"
     transform="matrix(0.39109727,-0.67740034,0.68228632,0.39391819,-10.306275,23.01762)"
     style="stroke-width:1.27387" /><g
     aria-label="?"
     id="g1143"
     style="font-weight:bold;font-size:14.1111px;line-height:0.01%;font-family:'Komika Axis';-inkscape-font-specification:'Komika Axis Bold';text-align:center;letter-spacing:0px;word-spacing:0px;text-anchor:middle;fill:none;stroke:#990000;stroke-width:1.16042;stroke-linecap:round;stroke-linejoin:round;stroke-dasharray:none;paint-order:markers fill stroke;stop-color:#000000"
     transform="matrix(0.54459097,-0.14915836,0.14592271,0.55666659,-0.79747314,4.5477644)"><path
       d="m 26.165526,10.495939 q 0.296333,0.127 0.64911,0.268111 0.352778,0.141111 0.649111,0.197555 0.296333,0.05645 0.479778,0 0.197555,-0.07056 0.183444,-0.338666 0.08467,-0.592666 0.324555,-1.0159994 0.254,-0.4374441 0.592666,-0.7619994 0.352778,-0.3245553 0.762,-0.5785551 0.409222,-0.2539998 0.818444,-0.4938885 0.423333,-0.2539998 0.804332,-0.5079996 0.395111,-0.2681109 0.705555,-0.6067773 0.310444,-0.3386664 0.564444,-0.8043327 0.268111,-0.4656663 0.324556,-1.0159992 0.07055,-0.564444 -0.127,-1.1994435 Q 32.713076,3.0029447 32.148632,2.3115008 31.880521,1.9587233 31.4713,1.6482791 31.076189,1.3237238 30.554078,1.1120573 30.046078,0.90039081 29.439301,0.82983531 28.832524,0.75927981 28.169302,0.88627971 27.068636,1.0838351 26.123193,1.775279 25.19186,2.4667229 24.486305,3.5391666 24.260527,3.877833 24.175861,4.1177217 q -0.08467,0.2257776 -0.04233,0.3809997 0.02822,0.1552221 0.155223,0.2681109 0.112888,0.098778 0.296333,0.1693332 0.705555,0.2963331 1.439332,0.2539998 0.747888,-0.056444 1.241777,-0.4656663 0.338666,-0.2681109 0.663221,-0.5362218 0.338667,-0.282222 0.649111,-0.4938885 0.324555,-0.2257777 0.635,-0.3668887 0.324555,-0.141111 0.64911,-0.141111 0.225778,0 0.423333,0.1269999 0.197556,0.1128888 0.239889,0.3951109 0.05644,0.4092219 -0.324555,0.9736659 -0.381,0.564444 -1.439333,1.1994435 -0.409222,0.2681109 -0.931332,0.6067773 -0.508,0.3386664 -0.959555,0.7761105 -0.451555,0.4374441 -0.776111,1.0018881 -0.324555,0.564444 -0.366888,1.2982212 -0.04233,0.3668886 0.04233,0.5644437 0.08467,0.197556 0.395111,0.366889 z m -1.15711,1.933221 q -0.02822,0.324555 0.07055,0.564444 0.112889,0.239888 0.310444,0.409222 0.211667,0.183444 0.479778,0.282222 0.282222,0.09878 0.592666,0.141111 0.705555,0.09878 1.142999,-0.155223 0.437444,-0.253999 0.550333,-0.64911 0.02822,-0.04233 0.02822,-0.169333 v -0.211667 q 0,-0.169333 -0.05644,-0.324555 -0.04233,-0.169333 -0.169333,-0.324555 -0.127,-0.155223 -0.352778,-0.282222 -0.211666,-0.141111 -0.550333,-0.239889 -0.451555,-0.127 -0.832555,-0.09878 -0.366888,0.02822 -0.634999,0.183444 -0.268111,0.141111 -0.423333,0.381 -0.141111,0.225778 -0.155222,0.493889 z"
       style="fill:#ff1a68;stroke:#360516;stroke-width:1.16042;stroke-dasharray:none"
       id="path1141" /></g></svg>
