<?xml version="1.0" encoding="UTF-8" standalone="no"?>
<!-- Created with Inkscape (http://www.inkscape.org/) -->

<svg
   width="128"
   height="128"
   viewBox="0 0 33.866666 33.866666"
   version="1.1"
   id="svg5"
   xml:space="preserve"
   sodipodi:docname="gutkato_ploras_riveron.svg"
   inkscape:version="1.2.2 (b0a8486541, 2022-12-01)"
   xmlns:inkscape="http://www.inkscape.org/namespaces/inkscape"
   xmlns:sodipodi="http://sodipodi.sourceforge.net/DTD/sodipodi-0.dtd"
   xmlns:xlink="http://www.w3.org/1999/xlink"
   xmlns="http://www.w3.org/2000/svg"
   xmlns:svg="http://www.w3.org/2000/svg"
   xmlns:rdf="http://www.w3.org/1999/02/22-rdf-syntax-ns#"
   xmlns:cc="http://creativecommons.org/ns#"
   xmlns:dc="http://purl.org/dc/elements/1.1/"><sodipodi:namedview
     id="namedview15"
     pagecolor="#505050"
     bordercolor="#eeeeee"
     borderopacity="1"
     inkscape:showpageshadow="0"
     inkscape:pageopacity="0"
     inkscape:pagecheckerboard="0"
     inkscape:deskcolor="#505050"
     showgrid="false"
     inkscape:zoom="3.6875"
     inkscape:cx="57.491525"
     inkscape:cy="82.033898"
     inkscape:window-width="1232"
     inkscape:window-height="750"
     inkscape:window-x="48"
     inkscape:window-y="26"
     inkscape:window-maximized="1"
     inkscape:current-layer="layer1" /><title
     id="title4279">Gutkato ploras riveron</title><defs
     id="defs2" /><g
     id="layer1"><path
       style="fill:#ffdb26;fill-opacity:1;stroke:none;stroke-width:1.05833;stroke-linecap:round;stroke-linejoin:round;stroke-dasharray:none;paint-order:normal;stop-color:#000000"
       d="M 6.3460128,10.987509 C 6.0131876,8.1033126 6.9112569,5.0355095 7.1713329,3.7040818 c 1.6823697,0.883682 3.1509471,1.8173157 5.1540591,3.4426941 3.460025,-0.9271224 7.675181,-0.4344139 10.458981,0.611344 2.188665,-1.101117 4.320882,-1.7567683 7.249119,-1.9517024 0.321474,1.7913943 -0.0283,5.5961075 -1.06115,7.5149165 1.483302,5.222627 1.500916,12.296756 -0.04318,13.840869 C 24.518229,31.573194 5.6799495,31.273305 4.0639285,25.242152 3.064468,21.512066 4.2865251,13.752064 6.3460128,10.987509 Z"
       id="path236" /><path
       id="rect3804"
       style="fill:#3dbbff;fill-opacity:1;stroke-width:0.79375;stroke-linecap:round;stroke-linejoin:round;paint-order:markers fill stroke;stop-color:#000000"
       d="m 9.3184451,14.31073 c 1.0070109,0.768889 2.2266929,0.849179 3.6936009,0.128983 0,0 -0.571857,1.213255 -0.594635,1.865525 -0.02278,0.652269 0.485832,1.25019 0.463054,1.902459 -0.02278,0.652271 -0.571857,1.213255 -0.594635,1.865525 -0.02278,0.652271 0.485832,1.25019 0.463054,1.902461 -0.02278,0.65227 -0.571857,1.213254 -0.594635,1.865524 -0.02278,0.65227 0.485832,1.25019 0.463054,1.90246 -0.02278,0.65227 -0.571857,1.213254 -0.594635,1.865525 -0.02278,0.65227 0.463054,1.90246 0.463054,1.90246 L 8.7921214,29.382669 c 0,0 -0.4858317,-1.25019 -0.4630539,-1.902461 0.022778,-0.65227 0.571857,-1.213254 0.5946348,-1.865525 0.022778,-0.652269 -0.4858315,-1.250189 -0.4630539,-1.902459 0.022778,-0.65227 0.571857,-1.213254 0.5946348,-1.865525 0.022778,-0.65227 -0.4858316,-1.25019 -0.4630538,-1.90246 0.022778,-0.652271 0.571857,-1.213255 0.5946348,-1.865525 0.022778,-0.65227 -0.4858316,-1.25019 -0.4630539,-1.902459 0.022778,-0.652271 0.5946348,-1.865525 0.5946348,-1.865525 z"
       sodipodi:nodetypes="ccsssssssccsssssssc" /><path
       id="rect1254"
       style="fill:#3dbbff;fill-opacity:1;stroke-width:0.79375;stroke-linecap:round;stroke-linejoin:round;paint-order:markers fill stroke;stop-color:#000000"
       d="m 18.033639,15.074376 c 1.119495,0.422604 2.163984,1.100099 3.6936,0.128984 0,0 0.486375,1.23465 0.463854,1.87958 -0.02252,0.644931 -0.571315,1.197715 -0.593837,1.842645 -0.02252,0.644931 0.486375,1.23465 0.463854,1.879581 -0.02252,0.64493 -0.571315,1.197714 -0.593837,1.842645 -0.02252,0.644931 0.486375,1.23465 0.463854,1.87958 -0.02252,0.644931 -0.571315,1.197715 -0.593836,1.842645 -0.02252,0.644931 0.486374,1.23465 0.463853,1.879581 -0.02252,0.64493 -0.593836,1.842645 -0.593836,1.842645 l -3.693601,-0.128983 c 0,0 0.571315,-1.197715 0.593836,-1.842645 0.02252,-0.644931 -0.486375,-1.23465 -0.463853,-1.879581 0.02252,-0.64493 0.571315,-1.197714 0.593836,-1.842645 0.02252,-0.64493 -0.486375,-1.23465 -0.463853,-1.879581 0.02252,-0.64493 0.571315,-1.197715 0.593836,-1.842644 0.02252,-0.644931 -0.486375,-1.234651 -0.463853,-1.879582 0.02252,-0.64493 0.571315,-1.197714 0.593836,-1.842645 0.02252,-0.644929 -0.463853,-1.87958 -0.463853,-1.87958 z"
       sodipodi:nodetypes="ccsssssssccsssssssc" /><path
       style="fill:none;fill-opacity:1;stroke:#000000;stroke-width:0.79375;stroke-linecap:round;stroke-linejoin:round;stroke-dasharray:none;stroke-opacity:1;paint-order:normal;stop-color:#000000"
       d="m 22.889183,18.104059 4.87622,-0.734341"
       id="path7889" /><path
       style="fill:none;fill-opacity:1;stroke:#000000;stroke-width:0.79375;stroke-linecap:round;stroke-linejoin:round;stroke-dasharray:none;stroke-opacity:1;paint-order:normal;stop-color:#000000"
       d="m 22.899838,20.260593 4.684517,0.851137"
       id="path7891" /><path
       style="fill:none;fill-opacity:1;stroke:#000000;stroke-width:0.79375;stroke-linecap:round;stroke-linejoin:round;stroke-dasharray:none;stroke-opacity:1;paint-order:normal;stop-color:#000000"
       d="M 8.2565339,17.019465 5.9675926,15.975012"
       id="path7893" /><path
       style="fill:none;fill-opacity:1;stroke:#000000;stroke-width:0.79375;stroke-linecap:round;stroke-linejoin:round;stroke-dasharray:none;stroke-opacity:1;paint-order:normal;stop-color:#000000"
       d="M 7.7354506,18.902572 5.5452359,18.75928"
       id="path7895" /><path
       style="fill:none;fill-opacity:1;stroke:#000000;stroke-width:0.79375;stroke-linecap:round;stroke-linejoin:round;stroke-opacity:1;paint-order:markers fill stroke;stop-color:#000000"
       d="m 11.578722,21.118111 0.637119,-0.53477 0.974105,1.474739 c 0.752355,-0.582053 1.286014,-1.312227 1.705908,-2.119452 0.325159,0.90173 0.779583,1.693708 1.398968,2.345629 l 1.129745,-1.265271 0.55932,0.624327"
       id="path5526"
       sodipodi:nodetypes="ccccccc" /><path
       style="fill:none;fill-opacity:1;stroke:#000000;stroke-width:1.05833;stroke-linecap:round;stroke-linejoin:round;stroke-dasharray:none;paint-order:normal;stop-color:#000000"
       d="M 6.3460128,10.987509 C 6.0131876,8.1033126 6.9112569,5.0355095 7.1713329,3.7040818 c 1.6823697,0.883682 3.1509471,1.8173157 5.1540591,3.4426941 3.460025,-0.9271224 7.675181,-0.4344139 10.458981,0.611344 2.188665,-1.101117 4.320882,-1.7567683 7.249119,-1.9517024 0.321474,1.7913943 -0.0283,5.5961075 -1.06115,7.5149165 1.483302,5.222627 1.500916,12.296756 -0.04318,13.840869 C 24.518229,31.573194 5.6799495,31.273305 4.0639285,25.242152 3.064468,21.512066 4.2865251,13.752064 6.3460128,10.987509 Z"
       id="path5528" /></g><metadata
     id="metadata4277"><rdf:RDF><cc:Work
         rdf:about=""><dc:title>Gutkato ploras riveron</dc:title><dc:creator><cc:Agent><dc:title>Tirifto</dc:title></cc:Agent></dc:creator><dc:subject><rdf:Bag><rdf:li>gutkato</rdf:li><rdf:li>gutkatoj</rdf:li><rdf:li>federujo</rdf:li></rdf:Bag></dc:subject><cc:license
           rdf:resource="http://artlibre.org/licence/lal" /><dc:description>Gutkato, destinita al uzo kiel glumarko aŭ propra bildosigno, ekzemple en Federujo aŭ aliaj retaj komunikiloj.</dc:description><dc:date>2024</dc:date></cc:Work><cc:License
         rdf:about="http://artlibre.org/licence/lal"><cc:permits
           rdf:resource="http://creativecommons.org/ns#Reproduction" /><cc:permits
           rdf:resource="http://creativecommons.org/ns#Distribution" /><cc:permits
           rdf:resource="http://creativecommons.org/ns#DerivativeWorks" /><cc:requires
           rdf:resource="http://creativecommons.org/ns#ShareAlike" /><cc:requires
           rdf:resource="http://creativecommons.org/ns#Notice" /><cc:requires
           rdf:resource="http://creativecommons.org/ns#Attribution" /></cc:License></rdf:RDF></metadata><path
     style="fill:none;stroke:#000000;stroke-width:0.79375;stroke-linecap:round;stroke-linejoin:round;stroke-opacity:1;paint-order:markers fill stroke;stop-color:#000000"
     d="m 9.3949994,14.323989 c 0.7713816,0.975323 2.5642856,1.067209 3.4312036,0.239933"
     id="path430"
     sodipodi:nodetypes="cc" /><use
     x="0"
     y="0"
     xlink:href="#path430"
     id="use1138"
     transform="translate(8.9530041,0.69247125)" /></svg>
