<?xml version="1.0" encoding="UTF-8" standalone="no"?>
<!-- Created with Inkscape (http://www.inkscape.org/) -->

<svg
   width="128"
   height="128"
   viewBox="0 0 33.866666 33.866666"
   version="1.1"
   id="svg5"
   xml:space="preserve"
   sodipodi:docname="gutkato_rozo_verda.svg"
   inkscape:version="1.2.2 (b0a8486541, 2022-12-01)"
   xmlns:inkscape="http://www.inkscape.org/namespaces/inkscape"
   xmlns:sodipodi="http://sodipodi.sourceforge.net/DTD/sodipodi-0.dtd"
   xmlns:xlink="http://www.w3.org/1999/xlink"
   xmlns="http://www.w3.org/2000/svg"
   xmlns:svg="http://www.w3.org/2000/svg"
   xmlns:rdf="http://www.w3.org/1999/02/22-rdf-syntax-ns#"
   xmlns:cc="http://creativecommons.org/ns#"
   xmlns:dc="http://purl.org/dc/elements/1.1/"><sodipodi:namedview
     id="namedview15"
     pagecolor="#505050"
     bordercolor="#eeeeee"
     borderopacity="1"
     inkscape:showpageshadow="0"
     inkscape:pageopacity="0"
     inkscape:pagecheckerboard="0"
     inkscape:deskcolor="#505050"
     showgrid="false"
     showguides="true"
     inkscape:zoom="1.8437501"
     inkscape:cx="105.49152"
     inkscape:cy="110.37288"
     inkscape:window-width="1232"
     inkscape:window-height="750"
     inkscape:window-x="48"
     inkscape:window-y="26"
     inkscape:window-maximized="1"
     inkscape:current-layer="g9015" /><title
     id="title4279">Gutkato, rozo verda</title><defs
     id="defs2" /><g
     id="layer1"><path
       style="fill:#ffdb26;fill-opacity:1;stroke:#000000;stroke-width:1.05833;stroke-linecap:round;stroke-linejoin:round;stroke-dasharray:none;paint-order:normal;stop-color:#000000"
       d="M 6.3460128,10.987509 C 6.0131876,8.1033126 6.9112569,5.0355095 7.1713329,3.7040818 c 1.6823697,0.883682 3.1509471,1.8173157 5.1540591,3.4426941 3.460025,-0.9271224 7.675181,-0.4344139 10.458981,0.611344 2.188665,-1.101117 4.320882,-1.7567683 7.249119,-1.9517024 0.321474,1.7913943 -0.0283,5.5961075 -1.06115,7.5149165 1.483302,5.222627 1.500916,12.296756 -0.04318,13.840869 C 24.518229,31.573194 5.6799495,31.273305 4.0639285,25.242152 3.064468,21.512066 4.2865251,13.752064 6.3460128,10.987509 Z"
       id="path236" /><ellipse
       style="fill:#000000;fill-opacity:1;stroke:none;stroke-width:2.11668;stroke-linecap:round;stroke-linejoin:round;stroke-dasharray:none;paint-order:stroke markers fill;stop-color:#000000"
       id="path6982"
       cx="12.96371"
       cy="12.570978"
       rx="1.6752723"
       ry="2.1418331"
       transform="rotate(8)" /><use
       x="0"
       y="0"
       xlink:href="#path6982"
       id="use7712"
       transform="translate(8.953004,0.69247082)"
       style="stroke-width:1.07136" /><path
       style="fill:none;fill-opacity:1;stroke:#000000;stroke-width:0.79375;stroke-linecap:round;stroke-linejoin:round;stroke-dasharray:none;stroke-opacity:1;paint-order:normal;stop-color:#000000"
       d="m 22.889183,18.104059 4.87622,-0.734341"
       id="path7889" /><path
       style="fill:none;fill-opacity:1;stroke:#000000;stroke-width:0.79375;stroke-linecap:round;stroke-linejoin:round;stroke-dasharray:none;stroke-opacity:1;paint-order:normal;stop-color:#000000"
       d="m 22.899838,20.260593 4.684517,0.851137"
       id="path7891" /><path
       style="fill:none;fill-opacity:1;stroke:#000000;stroke-width:0.79375;stroke-linecap:round;stroke-linejoin:round;stroke-dasharray:none;stroke-opacity:1;paint-order:normal;stop-color:#000000"
       d="M 8.2565339,17.019465 5.9675926,15.975012"
       id="path7893" /><path
       style="fill:none;fill-opacity:1;stroke:#000000;stroke-width:0.79375;stroke-linecap:round;stroke-linejoin:round;stroke-dasharray:none;stroke-opacity:1;paint-order:normal;stop-color:#000000"
       d="M 7.7354506,18.902572 5.5452359,18.75928"
       id="path7895" /><g
       id="g9015"
       transform="rotate(2,591.64066,161.57623)"><path
         style="color:#000000;fill:#2ba23c;stroke:#000000;stroke-width:0.529167;stroke-linecap:round;stroke-linejoin:round;stroke-miterlimit:8;stroke-dasharray:none;stroke-opacity:1;paint-order:markers fill stroke"
         d="m 4.3203125,40.621094 c -2.1783713,0.167135 -4.29045749,0.506893 -6.2109375,1.021484 a 0.52916664,0.52916664 0 0 0 -0.3730469,0.648438 0.52916664,0.52916664 0 0 0 0.6464844,0.375 C 5.7570394,40.690098 16.437909,41.494916 21.859375,44.625 a 0.52916664,0.52916664 0 0 0 0.722656,-0.193359 0.52916664,0.52916664 0 0 0 -0.193359,-0.722657 C 17.993023,41.171156 10.855426,40.119687 4.3203125,40.621094 Z"
         id="path1947" /><g
         id="g1192"
         transform="matrix(1.0495246,0,0,1.0496537,4.5414616,2.5557791)"
         style="stroke-width:0.952754;fill:#2ba23c;fill-opacity:1"><path
           sodipodi:type="star"
           style="fill:#2ba23c;fill-opacity:1;stroke:#000000;stroke-width:0.52750596;stroke-linecap:round;stroke-linejoin:round;stroke-miterlimit:8;paint-order:markers fill stroke;stop-color:#000000;stroke-dasharray:none"
           id="path28749"
           inkscape:flatsided="false"
           sodipodi:sides="18"
           sodipodi:cx="20.444601"
           sodipodi:cy="37.690636"
           sodipodi:r1="3.2682688"
           sodipodi:r2="2.941442"
           sodipodi:arg1="1.0471976"
           sodipodi:arg2="1.2217305"
           inkscape:rounded="0.3"
           inkscape:randomized="0"
           d="m 22.078735,40.52104 c -0.164093,0.09474 -0.450049,-0.131159 -0.628102,-0.06635 -0.178052,0.06481 -0.251903,0.421662 -0.438503,0.454565 -0.186601,0.0329 -0.37805,-0.277174 -0.567529,-0.277174 -0.189479,0 -0.380929,0.310077 -0.567529,0.277174 -0.1866,-0.0329 -0.260451,-0.389759 -0.438503,-0.454565 -0.178053,-0.06481 -0.464009,0.161092 -0.628102,0.06635 -0.164094,-0.09474 -0.111439,-0.455333 -0.256588,-0.577128 -0.14515,-0.121795 -0.491122,-0.0073 -0.612917,-0.152473 -0.121795,-0.145149 0.05101,-0.465988 -0.04372,-0.630081 -0.09474,-0.164094 -0.458999,-0.174856 -0.523805,-0.352908 -0.06481,-0.178052 0.207316,-0.420437 0.174413,-0.607037 -0.0329,-0.186601 -0.371514,-0.321297 -0.371514,-0.510776 0,-0.18948 0.338611,-0.324176 0.371514,-0.510776 0.0329,-0.186601 -0.239219,-0.428986 -0.174413,-0.607038 0.06481,-0.178052 0.429065,-0.188814 0.523805,-0.352907 0.09474,-0.164094 -0.07807,-0.484933 0.04372,-0.630082 0.121795,-0.14515 0.467767,-0.03068 0.612917,-0.152473 0.145149,-0.121794 0.09249,-0.482389 0.256588,-0.577128 0.164093,-0.09474 0.45005,0.131158 0.628102,0.06635 0.178052,-0.0648 0.251903,-0.421662 0.438503,-0.454565 0.186601,-0.0329 0.37805,0.277175 0.567529,0.277175 0.189479,0 0.380929,-0.310077 0.567529,-0.277175 0.186601,0.0329 0.260451,0.38976 0.438504,0.454565 0.178052,0.06481 0.464008,-0.161092 0.628102,-0.06635 0.164093,0.09474 0.111438,0.455334 0.256588,0.577128 0.145149,0.121795 0.491122,0.0073 0.612916,0.152473 0.121795,0.145149 -0.05101,0.465988 0.04373,0.630082 0.09474,0.164093 0.458999,0.174855 0.523804,0.352907 0.06481,0.178052 -0.207316,0.420437 -0.174413,0.607038 0.0329,0.1866 0.371514,0.321297 0.371514,0.510776 0,0.189479 -0.338611,0.324175 -0.371514,0.510776 -0.0329,0.1866 0.239219,0.428985 0.174413,0.607038 -0.06481,0.178052 -0.429065,0.188813 -0.523804,0.352907 -0.09474,0.164093 0.07807,0.484932 -0.04373,0.630082 -0.121795,0.145149 -0.467767,0.03068 -0.612917,0.152472 -0.145149,0.121795 -0.09249,0.482389 -0.256588,0.577129 z"
           transform="matrix(1.4254231,0.13708702,-0.13722462,1.4286865,-7.0474739,-16.959112)" /><path
           sodipodi:type="star"
           style="fill:#2ba23c;fill-opacity:1;stroke:#000000;stroke-width:0.351671;stroke-linecap:round;stroke-linejoin:round;stroke-miterlimit:8;paint-order:markers fill stroke;stop-color:#000000"
           id="path1180"
           inkscape:flatsided="false"
           sodipodi:sides="18"
           sodipodi:cx="20.444601"
           sodipodi:cy="37.690636"
           sodipodi:r1="3.2682688"
           sodipodi:r2="2.941442"
           sodipodi:arg1="1.0471976"
           sodipodi:arg2="1.2217305"
           inkscape:rounded="0.3"
           inkscape:randomized="0"
           d="m 22.078735,40.52104 c -0.164093,0.09474 -0.450049,-0.131159 -0.628102,-0.06635 -0.178052,0.06481 -0.251903,0.421662 -0.438503,0.454565 -0.186601,0.0329 -0.37805,-0.277174 -0.567529,-0.277174 -0.189479,0 -0.380929,0.310077 -0.567529,0.277174 -0.1866,-0.0329 -0.260451,-0.389759 -0.438503,-0.454565 -0.178053,-0.06481 -0.464009,0.161092 -0.628102,0.06635 -0.164094,-0.09474 -0.111439,-0.455333 -0.256588,-0.577128 -0.14515,-0.121795 -0.491122,-0.0073 -0.612917,-0.152473 -0.121795,-0.145149 0.05101,-0.465988 -0.04372,-0.630081 -0.09474,-0.164094 -0.458999,-0.174856 -0.523805,-0.352908 -0.06481,-0.178052 0.207316,-0.420437 0.174413,-0.607037 -0.0329,-0.186601 -0.371514,-0.321297 -0.371514,-0.510776 0,-0.18948 0.338611,-0.324176 0.371514,-0.510776 0.0329,-0.186601 -0.239219,-0.428986 -0.174413,-0.607038 0.06481,-0.178052 0.429065,-0.188814 0.523805,-0.352907 0.09474,-0.164094 -0.07807,-0.484933 0.04372,-0.630082 0.121795,-0.14515 0.467767,-0.03068 0.612917,-0.152473 0.145149,-0.121794 0.09249,-0.482389 0.256588,-0.577128 0.164093,-0.09474 0.45005,0.131158 0.628102,0.06635 0.178052,-0.0648 0.251903,-0.421662 0.438503,-0.454565 0.186601,-0.0329 0.37805,0.277175 0.567529,0.277175 0.189479,0 0.380929,-0.310077 0.567529,-0.277175 0.186601,0.0329 0.260451,0.38976 0.438504,0.454565 0.178052,0.06481 0.464008,-0.161092 0.628102,-0.06635 0.164093,0.09474 0.111438,0.455334 0.256588,0.577128 0.145149,0.121795 0.491122,0.0073 0.612916,0.152473 0.121795,0.145149 -0.05101,0.465988 0.04373,0.630082 0.09474,0.164093 0.458999,0.174855 0.523804,0.352907 0.06481,0.178052 -0.207316,0.420437 -0.174413,0.607038 0.0329,0.1866 0.371514,0.321297 0.371514,0.510776 0,0.189479 -0.338611,0.324175 -0.371514,0.510776 -0.0329,0.1866 0.239219,0.428985 0.174413,0.607038 -0.06481,0.178052 -0.429065,0.188813 -0.523804,0.352907 -0.09474,0.164093 0.07807,0.484932 -0.04373,0.630082 -0.121795,0.145149 -0.467767,0.03068 -0.612917,0.152472 -0.145149,0.121795 -0.09249,0.482389 -0.256588,0.577129 z"
           transform="matrix(1.4254231,0.13708702,-0.13722462,1.4286865,-7.0474739,-16.959112)" /><path
           style="fill:#2ba23c;fill-opacity:1;stroke:#000000;stroke-width:0.504166;stroke-linecap:round;stroke-linejoin:round;stroke-miterlimit:8;paint-order:markers fill stroke;stop-color:#000000"
           d="m 17.514249,42.166309 c 0,0 0.0039,0.05807 0.004,0.150269 1.51e-4,0.0922 -0.0034,0.218518 -0.01819,0.355014 -0.0148,0.136497 -0.04084,0.28317 -0.08569,0.41607 -0.04484,0.132901 -0.278876,0.03905 -0.368869,0.120457 -0.11664,0.105512 -0.09161,0.388807 -0.248701,0.432236 -0.15709,0.04343 -0.302757,-0.161822 -0.46632,-0.163852 -0.163562,-0.002 -0.345018,0.199152 -0.481076,0.168272 -0.136058,-0.03088 -0.148529,-0.224502 -0.223106,-0.267595 -0.102344,-0.05914 -0.301137,0.0074 -0.393763,-0.0926 -0.09263,-0.100028 -0.0074,-0.389704 -0.09044,-0.505304 -0.08305,-0.115599 -0.334371,-0.05712 -0.407973,-0.162976 -0.0736,-0.105856 -0.0145,-0.332118 -0.07879,-0.402914 -0.06215,-0.06844 -0.286889,0.01009 -0.401983,-0.03966 -0.115094,-0.04975 -0.157707,-0.247171 -0.293352,-0.302273 -0.135646,-0.0551 -0.364325,0.03211 -0.488133,-0.0524 -0.123808,-0.08451 -0.0038,-0.346458 -0.08338,-0.484427 -0.05609,-0.09724 -0.322648,-0.08989 -0.339813,-0.266985 -0.01717,-0.177095 0.24553,-0.385318 0.26777,-0.593451 0.02226,-0.208132 -0.195924,-0.416174 -0.133734,-0.606529 0.06218,-0.190354 0.297739,-0.223331 0.400343,-0.347091 0.0657,-0.07925 0.01263,-0.289514 0.126013,-0.355907 0.113378,-0.06639 0.315902,0.01435 0.434223,-0.03455 0.118321,-0.0489 0.15244,-0.227452 0.232968,-0.254218 0.08053,-0.02677 0.131476,-0.04131 0.131476,-0.04131"
           id="path1095"
           sodipodi:nodetypes="csssssssssssssssssssssssc" /><path
           style="fill:#2ba23c;fill-opacity:1;stroke:#000000;stroke-width:0.504166;stroke-linecap:round;stroke-linejoin:round;stroke-miterlimit:8;paint-order:markers fill stroke;stop-color:#000000"
           d="m 18.856185,37.408636 c 0,0 0.141283,0.06997 0.22098,0.02374 0.0797,-0.04623 0.09781,-0.208657 0.223308,-0.264079 0.125501,-0.05542 0.271522,0.06825 0.408935,0.04067 0.137413,-0.02758 0.266217,-0.206403 0.381649,-0.169102 0.149613,0.04835 0.14428,0.340764 0.260402,0.455217 0.116121,0.114452 0.353696,0.05094 0.433718,0.193734 0.08002,0.142796 0.03059,0.314981 0.0719,0.448357 0.04132,0.133375 0.173379,0.22794 0.173379,0.314133 0,0.118284 -0.33222,0.194347 -0.372455,0.324651 -0.04023,0.130305 0.211516,0.314849 0.153018,0.444634 -0.0585,0.129785 -0.302114,0.22045 -0.356903,0.337176 -0.05479,0.116727 0.07925,0.259516 0.05014,0.350644 -0.02814,0.0881 -0.201852,0.234433 -0.187347,0.359071 0.0145,0.124639 0.217224,0.22758 0.237369,0.372711 0.02014,0.145131 -0.332471,0.275204 -0.343689,0.424777 -0.01122,0.149574 0.318962,0.318649 0.239377,0.456617 -0.05609,0.09724 -0.425839,0.02738 -0.570485,0.130802 -0.144646,0.103426 -0.06419,0.380139 -0.255404,0.464912 -0.191213,0.08477 -0.431973,-0.09959 -0.627766,-0.05832 -0.195792,0.04128 -0.314393,0.421664 -0.472777,0.394606 -0.101418,-0.01733 -0.247766,-0.180676 -0.361902,-0.245757 -0.114136,-0.06508 -0.228285,-0.145359 -0.329756,-0.223471 -0.101472,-0.07811 -0.190266,-0.154058 -0.253692,-0.210476 -0.06343,-0.05642 -0.101485,-0.09331 -0.101485,-0.09331"
           id="path1093"
           sodipodi:nodetypes="csssssssssssssssssssssssc" /><path
           style="fill:#2ba23c;fill-opacity:1;stroke:#000000;stroke-width:0.504166;stroke-linecap:round;stroke-linejoin:round;stroke-miterlimit:8;paint-order:markers fill stroke;stop-color:#000000"
           d="m 14.498999,39.045524 c 0,0 -0.173412,-0.344158 -0.39482,-0.506308 -0.221407,-0.16215 -0.490809,-0.142292 -0.541692,-0.37971 -0.03298,-0.153861 -0.06463,-0.381223 -0.02366,-0.539104 0.04097,-0.157882 0.350802,-0.06454 0.434343,-0.205297 0.08354,-0.140761 -0.01572,-0.449425 0.07903,-0.551924 0.09474,-0.1025 0.368896,0.01083 0.443473,-0.03226 0.102344,-0.05914 0.04376,-0.292074 0.176618,-0.32235 0.132861,-0.03028 0.326859,0.08343 0.468403,0.06924 0.141544,-0.01419 0.230633,-0.156263 0.359024,-0.167134 0.12839,-0.01087 0.289221,0.118654 0.382623,0.09832 0.0903,-0.01966 0.140108,-0.218887 0.240697,-0.293779 0.10059,-0.07489 0.268702,0.01593 0.384202,-0.0741 0.1155,-0.09003 0.178389,-0.360908 0.313414,-0.425972 0.135026,-0.06506 0.331956,0.135169 0.491122,0.135169 0.112179,0 0.208809,-0.199962 0.37062,-0.126294 0.161811,0.07367 0.161686,0.449121 0.330641,0.572481 0.168955,0.123361 0.50699,-0.0054 0.640601,0.143707 0.133611,0.149078 0.235149,0.457021 0.290928,0.607839 0.07144,0.193149 -0.15312,0.372224 -0.185874,0.58825 -0.03275,0.216025 0.126294,0.469001 0.126294,0.469001"
           id="path1070"
           sodipodi:nodetypes="csssssssssssssssssssc" /><path
           style="fill:#2ba23c;fill-opacity:1;stroke:#000000;stroke-width:0.504166;stroke-linecap:round;stroke-linejoin:round;stroke-miterlimit:8;paint-order:markers fill stroke;stop-color:#000000"
           d="m 18.621728,39.945347 c 0,0 0.234644,0.239056 0.368452,0.449032 0.133808,0.209977 -0.119238,0.402131 -0.119238,0.699958 0,0.260227 0.212428,0.434415 0.106255,0.578296 -0.106177,0.14388 -0.38802,0.07367 -0.518391,0.167646 -0.134511,0.09696 -0.05204,0.443018 -0.209221,0.603774 -0.157183,0.160757 -0.392689,-0.05029 -0.715219,-0.05029 -0.126178,0 -0.368209,0.421952 -0.560079,0.335985 -0.191871,-0.08596 -0.264873,-0.577346 -0.473352,-0.624942 -0.393681,-0.08988 -0.730261,-0.0016 -0.858332,-0.248435 -0.12807,-0.246824 -0.1346,-0.572216 -0.1346,-0.572216"
           id="path1068"
           sodipodi:nodetypes="csssssssssc" /><path
           style="fill:#2ba23c;fill-opacity:1;stroke:#000000;stroke-width:0.504166;stroke-linecap:round;stroke-linejoin:round;stroke-miterlimit:8;paint-order:markers fill stroke;stop-color:#000000"
           d="m 16.580469,37.627457 c 0,0 0.07896,-0.256913 0.182642,-0.40435 0.103689,-0.147438 0.343089,-0.04726 0.642409,-0.107621 0.25487,-0.0514 0.354875,-0.199058 0.558429,-0.163198 0.203553,0.03585 0.200866,0.287652 0.426024,0.417759 0.143553,0.08295 0.399145,0.05991 0.429039,0.20486 0.02989,0.14495 -0.02415,0.385726 0.01187,0.458371 0.05609,0.113128 0.28867,0.09531 0.423714,0.212883 0.135045,0.117569 0.04862,0.315487 0.09085,0.525299 0.07975,0.396197 0.244851,0.620985 0.04464,0.825611 -0.200213,0.204626 -0.584752,0.345717 -0.584752,0.345717"
           id="path1066"
           sodipodi:nodetypes="csssssssssc" /><path
           style="fill:#2ba23c;fill-opacity:1;stroke:#000000;stroke-width:0.504166;stroke-linecap:round;stroke-linejoin:round;stroke-miterlimit:8;paint-order:markers fill stroke;stop-color:#000000"
           d="m 15.807637,38.102616 c 0,0 -0.189316,-0.238288 -0.383823,-0.321665 -0.194507,-0.08338 -0.233312,0.154873 -0.515403,0.271829 -0.2402,0.09958 -0.580193,-0.03661 -0.739697,0.179609 -0.159504,0.216221 -0.03331,0.317788 -0.03332,0.578015 0,0.0811 -0.294462,0.351188 -0.237748,0.540177 0.04151,0.13832 0.19059,0.280054 0.201167,0.360459 0.01061,0.08064 -0.08467,0.170435 -0.139443,0.273578 -0.05477,0.103143 0.192504,0.273941 0.274344,0.471678 0.154521,0.373395 0.06508,0.443569 0.297186,0.468772 0.232101,0.0252 0.488849,-0.114267 0.488849,-0.114267"
           id="path1064"
           sodipodi:nodetypes="csssssssssc" /><path
           style="fill:#2ba23c;fill-opacity:1;stroke:#000000;stroke-width:0.504166;stroke-linecap:round;stroke-linejoin:round;stroke-miterlimit:8;paint-order:markers fill stroke;stop-color:#000000"
           d="m 15.60414,39.287143 c 0.09709,0.362665 0.316349,0.717658 0.614499,1.009652 0.298151,0.291994 0.675191,0.520989 1.087834,0.631658 0,0 -0.136598,0.509773 -0.387009,0.645756 -0.250411,0.135982 -0.461827,-0.160954 -0.856062,-0.250275 -0.211048,-0.04782 -0.638403,0.130839 -0.79273,0.02357 -0.154327,-0.107265 0.01662,-0.608854 -0.06184,-0.744871 -0.244832,-0.424448 -0.475095,-0.64615 -0.2638,-0.910794 0.211298,-0.264644 0.659106,-0.4047 0.659106,-0.4047 z"
           id="path297"
           sodipodi:nodetypes="cscsssssc" /><path
           style="fill:#2ba23c;fill-opacity:1;stroke:#000000;stroke-width:0.504166;stroke-linecap:round;stroke-linejoin:round;stroke-miterlimit:8;paint-order:markers fill stroke;stop-color:#000000"
           d="m 17.689639,38.885076 c -0.362335,-0.09718 -0.752747,-0.142818 -1.128095,-0.08858 -0.375348,0.05424 -0.735631,0.208359 -1.037706,0.510708 0,0 -0.344156,-0.233486 -0.360732,-0.504595 -0.01657,-0.271108 0.35314,-0.359118 0.627539,-0.656186 0.146898,-0.159031 0.214381,-0.50936 0.417247,-0.553226 0.202866,-0.04387 0.474586,0.316527 0.667743,0.368327 0.318232,0.08535 0.6149,-0.117087 0.712843,0.08229 0.09794,0.199377 0.005,0.48205 0.101161,0.841262 z"
           id="path1006"
           sodipodi:nodetypes="cscssssscc" /><path
           style="fill:#2ba23c;fill-opacity:1;stroke:#000000;stroke-width:0.504166;stroke-linecap:round;stroke-linejoin:round;stroke-miterlimit:8;paint-order:markers fill stroke;stop-color:#000000"
           d="m 17.065173,40.863073 c 0.240355,-0.288259 0.4869,-0.590942 0.636563,-0.921912 0.149663,-0.33097 0.202442,-0.690228 0.05526,-1.091638 0,0 0.423639,-0.1645 0.727942,-0.0989 0.304302,0.0656 0.27874,0.416202 0.432759,0.790261 0.08245,0.200246 0.466582,0.301721 0.383562,0.49855 -0.08301,0.196829 -0.500556,0.290883 -0.628685,0.444551 -0.211098,0.253174 -0.434431,0.765722 -0.711472,0.777291 -0.277041,0.01157 -0.529868,-0.334607 -0.895938,-0.398205 z"
           id="path1008"
           sodipodi:nodetypes="cscssssscc" /></g></g><path
       style="fill:#ffdb26;fill-opacity:1;stroke:#000000;stroke-width:0.79375;stroke-linecap:round;stroke-linejoin:round;stroke-dasharray:none;stroke-opacity:1;paint-order:normal;stop-color:#000000"
       d="m 10.004075,19.121173 c -1.4238886,3.039424 2.342169,4.371724 4.594902,1.690642 3.202672,3.608669 6.496348,1.194297 5.575255,-1.100462"
       id="path7824" /></g><metadata
     id="metadata4277"><rdf:RDF><cc:Work
         rdf:about=""><dc:title>Gutkato, rozo verda</dc:title><dc:creator><cc:Agent><dc:title>Tirifto</dc:title></cc:Agent></dc:creator><dc:subject><rdf:Bag><rdf:li>gutkato</rdf:li><rdf:li>gutkatoj</rdf:li><rdf:li>federujo</rdf:li></rdf:Bag></dc:subject><cc:license
           rdf:resource="http://artlibre.org/licence/lal" /><dc:description>Gutkato, destinita al uzo kiel glumarko aŭ propra bildosigno, ekzemple en Federujo aŭ aliaj retaj komunikiloj.</dc:description><dc:date>2024</dc:date></cc:Work><cc:License
         rdf:about="http://artlibre.org/licence/lal"><cc:permits
           rdf:resource="http://creativecommons.org/ns#Reproduction" /><cc:permits
           rdf:resource="http://creativecommons.org/ns#Distribution" /><cc:permits
           rdf:resource="http://creativecommons.org/ns#DerivativeWorks" /><cc:requires
           rdf:resource="http://creativecommons.org/ns#ShareAlike" /><cc:requires
           rdf:resource="http://creativecommons.org/ns#Notice" /><cc:requires
           rdf:resource="http://creativecommons.org/ns#Attribution" /></cc:License></rdf:RDF></metadata><g
     id="g8935"
     transform="translate(0.98908471,1.545638)" /></svg>
