<?xml version="1.0" encoding="UTF-8" standalone="no"?>
<!-- Created with Inkscape (http://www.inkscape.org/) -->

<svg
   width="128"
   height="128"
   viewBox="0 0 33.866666 33.866666"
   version="1.1"
   id="svg5"
   xml:space="preserve"
   sodipodi:docname="gutkato_ploras_riveron_cede.svg"
   inkscape:version="1.2.2 (b0a8486541, 2022-12-01)"
   inkscape:export-filename="gutkato_dormas.png"
   inkscape:export-xdpi="96"
   inkscape:export-ydpi="96"
   xmlns:inkscape="http://www.inkscape.org/namespaces/inkscape"
   xmlns:sodipodi="http://sodipodi.sourceforge.net/DTD/sodipodi-0.dtd"
   xmlns:xlink="http://www.w3.org/1999/xlink"
   xmlns="http://www.w3.org/2000/svg"
   xmlns:svg="http://www.w3.org/2000/svg"
   xmlns:rdf="http://www.w3.org/1999/02/22-rdf-syntax-ns#"
   xmlns:cc="http://creativecommons.org/ns#"
   xmlns:dc="http://purl.org/dc/elements/1.1/"><sodipodi:namedview
     id="namedview15"
     pagecolor="#505050"
     bordercolor="#eeeeee"
     borderopacity="1"
     inkscape:showpageshadow="0"
     inkscape:pageopacity="0"
     inkscape:pagecheckerboard="0"
     inkscape:deskcolor="#505050"
     showgrid="false"
     inkscape:zoom="3.6874999"
     inkscape:cx="34.169492"
     inkscape:cy="84.745765"
     inkscape:window-width="1232"
     inkscape:window-height="750"
     inkscape:window-x="48"
     inkscape:window-y="26"
     inkscape:window-maximized="1"
     inkscape:current-layer="g9054" /><title
     id="title4279">Gutkato ploras riveron cede</title><defs
     id="defs2" /><g
     id="layer1"><g
       id="g9054"
       transform="translate(-2.4548678)"><g
         id="g1239"
         transform="translate(2.7273123)"><path
           style="fill:#ffdb26;fill-opacity:1;stroke:none;stroke-width:1.05833;stroke-linecap:round;stroke-linejoin:round;stroke-dasharray:none;paint-order:normal;stop-color:#000000"
           d="M 4.7832619,14.061517 C 3.7152924,11.361739 3.7887549,8.1660314 3.6953702,6.8126583 5.5491283,7.2308003 7.2093073,7.7525254 9.5648438,8.8040768 12.667014,7.013025 16.866065,6.3979822 19.825671,6.6876063 c 1.829098,-1.6300655 3.718967,-2.8152344 6.496974,-3.7614098 0.774167,1.6471504 1.421043,5.4127493 0.920011,7.5334975 2.784475,4.660764 3.230602,15.158396 1.686506,16.702509 C 24.518229,31.573194 5.6799495,31.273305 4.0639285,25.242152 3.064468,21.512066 3.509469,17.264907 4.7832619,14.061517 Z"
           id="path236"
           sodipodi:nodetypes="ccccccssc" /><path
           style="fill:none;fill-opacity:1;stroke:#000000;stroke-width:0.79375;stroke-linecap:round;stroke-linejoin:round;stroke-dasharray:none;stroke-opacity:1;paint-order:normal;stop-color:#000000"
           d="m 22.400762,17.051177 4.674623,-1.569933"
           id="path7889" /><path
           style="fill:none;fill-opacity:1;stroke:#000000;stroke-width:0.79375;stroke-linecap:round;stroke-linejoin:round;stroke-dasharray:none;stroke-opacity:1;paint-order:normal;stop-color:#000000"
           d="m 22.785733,19.173097 4.761148,0.02475"
           id="path7891" /><path
           style="fill:none;fill-opacity:1;stroke:#000000;stroke-width:0.79375;stroke-linecap:round;stroke-linejoin:round;stroke-dasharray:none;stroke-opacity:1;paint-order:normal;stop-color:#000000"
           d="M 7.802078,18.523993 5.3665436,17.892877"
           id="path7893" /><path
           style="fill:none;fill-opacity:1;stroke:#000000;stroke-width:0.79375;stroke-linecap:round;stroke-linejoin:round;stroke-dasharray:none;stroke-opacity:1;paint-order:normal;stop-color:#000000"
           d="M 7.6159094,20.468976 5.4340865,20.708188"
           id="path7895" /><path
           id="rect3804"
           style="fill:#3dbbff;fill-opacity:1;stroke-width:0.79375;stroke-linecap:round;stroke-linejoin:round;paint-order:markers fill stroke;stop-color:#000000"
           d="m 12.357106,15.38459 c -1.291349,1.001459 -2.5022265,1.168887 -3.6437056,0.619084 0,0 -0.5968224,0.839111 -0.6196004,1.491382 -0.022778,0.652268 0.4857988,1.249941 0.4630208,1.902209 -0.022778,0.652271 -0.571501,1.213248 -0.594279,1.865519 -0.022778,0.652269 0.4857988,1.250457 0.4630209,1.902727 -0.022778,0.65227 -0.5720178,1.213249 -0.5947958,1.865519 -0.022778,0.652269 0.4857988,1.249941 0.4630209,1.902209 -0.020302,0.581373 -0.4582797,1.090623 -0.5694743,1.65623 1.1012148,0.460834 2.3836645,0.819101 3.7677285,1.075903 -0.0628,-0.266686 -0.106403,-0.531707 -0.09922,-0.737423 0.02278,-0.652271 0.572016,-1.213248 0.594796,-1.865519 0.02278,-0.652269 -0.485791,-1.250456 -0.463021,-1.902726 0.02278,-0.652268 0.571499,-1.21325 0.594279,-1.865519 0.02278,-0.65227 -0.485801,-1.249939 -0.463021,-1.90221 0.02278,-0.65227 0.572016,-1.213248 0.594796,-1.865519 0.02278,-0.652268 -0.485811,-1.250458 -0.463021,-1.902726 0.02278,-0.652268 0.569475,-2.23914 0.569476,-2.23914 z" /><path
           style="opacity:1;fill:none;stroke:#000000;stroke-width:0.79375;stroke-linecap:round;stroke-linejoin:round;stroke-dasharray:none;stroke-opacity:1;paint-order:markers fill stroke;stop-color:#000000"
           d="m 8.1853362,15.737759 c 1.0956731,0.825649 3.0724838,0.585758 3.9301028,-0.552341"
           id="path448"
           sodipodi:nodetypes="cc" /><path
           id="rect1254"
           style="fill:#3dbbff;fill-opacity:1;stroke-width:0.79375;stroke-linecap:round;stroke-linejoin:round;paint-order:markers fill stroke;stop-color:#000000"
           d="m 17.380298,15.383762 c 1.190159,0.124041 2.372591,0.513667 3.604987,-0.814486 0,0 0.530681,1.706386 0.50816,2.351316 -0.02252,0.644931 -0.571315,1.197714 -0.593837,1.842645 -0.02252,0.644931 0.486376,1.234649 0.463855,1.87958 -0.02252,0.64493 -0.571315,1.197715 -0.593837,1.842646 -0.02252,0.644931 0.486374,1.234648 0.463853,1.879579 -0.02252,0.644931 -0.571315,1.197715 -0.593836,1.842646 -0.02252,0.644931 0.486374,1.234649 0.463853,1.87958 -0.02252,0.644929 -0.593836,1.842645 -0.593836,1.842645 l -3.693601,-0.128984 c 0,0 0.571316,-1.197713 0.593837,-1.842644 0.02252,-0.644931 -0.486376,-1.23465 -0.463854,-1.87958 0.02252,-0.644931 0.571316,-1.197716 0.593837,-1.842647 0.02252,-0.644929 -0.486376,-1.234648 -0.463854,-1.879579 0.02252,-0.644931 0.571315,-1.197716 0.593837,-1.842645 0.02252,-0.644931 -0.486375,-1.23465 -0.463853,-1.879581 0.02252,-0.64493 0.571315,-1.197715 0.593836,-1.842645 0.02252,-0.64493 -0.419547,-1.407846 -0.419547,-1.407846 z"
           sodipodi:nodetypes="ccsssssssccsssssssc" /><use
           x="0"
           y="0"
           xlink:href="#path448"
           id="use1004"
           transform="translate(8.9372343,-0.87272217)" /><path
           style="fill:none;fill-opacity:1;stroke:#000000;stroke-width:0.79375;stroke-linecap:round;stroke-linejoin:round;stroke-dasharray:none;stroke-opacity:1;paint-order:stroke markers fill;stop-color:#000000"
           d="m 10.417874,20.970252 c -1.098383,3.17161 2.786307,4.102952 4.74645,1.201082 3.562337,3.254129 6.585599,0.508701 5.429684,-1.677206"
           id="path7824" /><path
           style="fill:none;fill-opacity:1;stroke:#000000;stroke-width:1.05833;stroke-linecap:round;stroke-linejoin:round;stroke-dasharray:none;stroke-opacity:1;paint-order:normal;stop-color:#000000"
           d="M 4.7832619,14.061517 C 3.7152924,11.361739 3.7887549,8.1660314 3.6953702,6.8126583 5.5491283,7.2308003 7.2093073,7.7525254 9.5648438,8.8040768 12.667014,7.013025 16.866065,6.3979822 19.825671,6.6876063 c 1.829098,-1.6300655 3.718967,-2.8152344 6.496974,-3.7614098 0.774167,1.6471504 1.421043,5.4127493 0.920011,7.5334975 2.784475,4.660764 3.230602,15.158396 1.686506,16.702509 C 24.518229,31.573194 5.6799495,31.273305 4.0639285,25.242152 3.064468,21.512066 3.509469,17.264907 4.7832619,14.061517 Z"
           id="path1221"
           sodipodi:nodetypes="ccccccssc" /></g></g></g><metadata
     id="metadata4277"><rdf:RDF><cc:Work
         rdf:about=""><dc:title>Gutkato ploras riveron cede</dc:title><dc:creator><cc:Agent><dc:title>Tirifto</dc:title></cc:Agent></dc:creator><dc:subject><rdf:Bag><rdf:li>gutkato</rdf:li><rdf:li>gutkatoj</rdf:li><rdf:li>federujo</rdf:li></rdf:Bag></dc:subject><cc:license
           rdf:resource="http://artlibre.org/licence/lal" /><dc:description>Gutkato, destinita al uzo kiel glumarko aŭ propra bildosigno, ekzemple en Federujo aŭ aliaj retaj komunikiloj.</dc:description><dc:date>2024</dc:date></cc:Work><cc:License
         rdf:about="http://artlibre.org/licence/lal"><cc:permits
           rdf:resource="http://creativecommons.org/ns#Reproduction" /><cc:permits
           rdf:resource="http://creativecommons.org/ns#Distribution" /><cc:permits
           rdf:resource="http://creativecommons.org/ns#DerivativeWorks" /><cc:requires
           rdf:resource="http://creativecommons.org/ns#ShareAlike" /><cc:requires
           rdf:resource="http://creativecommons.org/ns#Notice" /><cc:requires
           rdf:resource="http://creativecommons.org/ns#Attribution" /></cc:License></rdf:RDF></metadata></svg>
