<?xml version="1.0" encoding="UTF-8" standalone="no"?>
<!-- Created with Inkscape (http://www.inkscape.org/) -->

<svg
   width="128"
   height="128"
   viewBox="0 0 33.866666 33.866666"
   version="1.1"
   id="svg5"
   xml:space="preserve"
   sodipodi:docname="gutkato_roboto.svg"
   inkscape:version="1.2.2 (b0a8486541, 2022-12-01)"
   xmlns:inkscape="http://www.inkscape.org/namespaces/inkscape"
   xmlns:sodipodi="http://sodipodi.sourceforge.net/DTD/sodipodi-0.dtd"
   xmlns:xlink="http://www.w3.org/1999/xlink"
   xmlns="http://www.w3.org/2000/svg"
   xmlns:svg="http://www.w3.org/2000/svg"
   xmlns:rdf="http://www.w3.org/1999/02/22-rdf-syntax-ns#"
   xmlns:cc="http://creativecommons.org/ns#"
   xmlns:dc="http://purl.org/dc/elements/1.1/"><sodipodi:namedview
     id="namedview15"
     pagecolor="#505050"
     bordercolor="#eeeeee"
     borderopacity="1"
     inkscape:showpageshadow="0"
     inkscape:pageopacity="0"
     inkscape:pagecheckerboard="0"
     inkscape:deskcolor="#505050"
     showgrid="false"
     inkscape:zoom="5.0843915"
     inkscape:cx="41.794579"
     inkscape:cy="67.363027"
     inkscape:window-width="1232"
     inkscape:window-height="750"
     inkscape:window-x="48"
     inkscape:window-y="26"
     inkscape:window-maximized="1"
     inkscape:current-layer="layer1"
     showguides="false" /><title
     id="title4279">Gutkato roboto</title><defs
     id="defs2" /><g
     id="layer1"><path
       style="fill:#cccccc;fill-opacity:1;stroke:none;stroke-width:1.05833;stroke-linecap:round;stroke-linejoin:round;stroke-dasharray:none;paint-order:normal;stop-color:#000000"
       d="M 6.3460128,10.987509 C 6.0131876,8.1033126 6.9112569,5.0355095 7.1713329,3.7040818 c 1.6823697,0.883682 3.1509471,1.8173157 5.1540591,3.4426941 3.460025,-0.9271224 7.675181,-0.4344139 10.458981,0.611344 2.188665,-1.101117 4.320882,-1.7567683 7.249119,-1.9517024 0.321474,1.7913943 -0.0283,5.5961075 -1.06115,7.5149165 1.483302,5.222627 1.500916,12.296756 -0.04318,13.840869 C 24.518229,31.573194 5.6799495,31.273305 4.0639285,25.242152 3.064468,21.512066 4.2865251,13.752064 6.3460128,10.987509 Z"
       id="path236" /><ellipse
       style="fill:#001a4d;fill-opacity:1;stroke:none;stroke-width:2.11668;stroke-linecap:round;stroke-linejoin:round;stroke-dasharray:none;paint-order:stroke markers fill;stop-color:#000000"
       id="path6982"
       cx="12.96371"
       cy="12.570978"
       rx="1.6752723"
       ry="2.1418331"
       transform="rotate(8)" /><path
       style="fill:none;fill-opacity:1;stroke:#000000;stroke-width:0.79375;stroke-linecap:round;stroke-linejoin:round;stroke-dasharray:none;stroke-opacity:1;paint-order:stroke markers fill;stop-color:#000000"
       d="m 10.004075,19.121173 c -1.4238886,3.039424 2.342169,4.371724 4.594902,1.690642 3.202672,3.608669 6.496348,1.194297 5.575255,-1.100462"
       id="path7824" /><path
       style="fill:none;fill-opacity:1;stroke:#000000;stroke-width:0.79375;stroke-linecap:round;stroke-linejoin:round;stroke-dasharray:none;stroke-opacity:1;paint-order:normal;stop-color:#000000"
       d="M 8.2565339,17.019465 5.9675926,15.975012"
       id="path7893" /><path
       style="fill:none;fill-opacity:1;stroke:#000000;stroke-width:0.79375;stroke-linecap:round;stroke-linejoin:round;stroke-dasharray:none;stroke-opacity:1;paint-order:normal;stop-color:#000000"
       d="M 7.7354506,18.902572 5.5452359,18.75928"
       id="path7895" /><path
       style="fill:#b2a68e;fill-opacity:1;stroke:none;stroke-width:2.99999;stroke-linecap:round;stroke-linejoin:round;stroke-dasharray:none;stroke-opacity:1;stop-color:#000000"
       d="m 111.46294,23.180272 c -8.34018,0.631135 -16.517915,2.957101 -24.019332,6.641056 -0.657887,0.278968 -1.335665,0.734049 -2.042461,0.315607 -6.510842,-2.193431 -13.317557,-3.554825 -20.189011,-3.832387 -1.142929,0.182483 -1.579963,1.474781 -2.337921,2.223868 -5.547348,7.174677 -7.905217,16.324403 -8.333294,25.261723 7.87e-4,2.549024 -0.109393,5.147099 0.415864,7.652873 0.451208,1.140293 1.903606,0.805246 2.871933,1.009373 6.255602,0.698665 12.567,3.313305 16.711972,8.184181 1.5009,1.696795 2.339202,3.827161 2.867102,6.001881 3.090918,11.149491 6.00658,22.346872 9.024269,33.516333 0.475888,1.21476 1.863468,0.5237 2.783524,0.37761 5.968817,-1.33875 11.974715,-3.19622 17.075215,-6.66783 1.99382,-1.33885 3.65255,-3.24081 4.31129,-5.587322 1.75758,-5.534391 2.02678,-11.411411 2.06525,-17.178612 -0.1216,-10.10763 -1.42364,-20.213541 -4.0075,-29.990104 -0.46839,-1.252038 0.61854,-2.335658 0.93892,-3.492132 2.37059,-6.273716 3.17294,-13.038613 3.28697,-19.709775 -0.0926,-1.415072 0.17715,-2.950233 -0.39359,-4.279514 -0.23202,-0.314774 -0.64211,-0.482176 -1.0292,-0.446829 z"
       id="path1138"
       transform="scale(0.26458333)" /><path
       style="fill:none;fill-opacity:1;stroke:#000000;stroke-width:0.79375;stroke-linecap:round;stroke-linejoin:round;stroke-dasharray:none;stroke-opacity:1;stop-color:#000000"
       d="m 17.093322,6.8021728 c -2.99385,3.0633436 -3.053878,8.2424972 -2.631224,9.8198622 2.998413,0 5.360989,1.676154 5.800896,3.349149 0.299641,1.139552 0.913106,3.407756 2.521,9.408499"
       id="path906"
       sodipodi:nodetypes="ccsc" /><ellipse
       style="fill:#b20000;fill-opacity:1;stroke:none;stroke-width:2.11668;stroke-linecap:round;stroke-linejoin:round;stroke-dasharray:none;paint-order:stroke markers fill;stop-color:#000000"
       id="use7712"
       cx="21.925957"
       cy="12.010693"
       rx="1.6752723"
       ry="2.1418331"
       transform="rotate(8)" /><path
       style="fill:none;fill-opacity:1;stroke:#000000;stroke-width:0.79375;stroke-linecap:round;stroke-linejoin:round;stroke-dasharray:none;stroke-opacity:1;paint-order:normal;stop-color:#000000"
       d="m 22.889183,18.104059 4.87622,-0.734341"
       id="path7889" /><path
       style="fill:none;fill-opacity:1;stroke:#000000;stroke-width:0.79375;stroke-linecap:round;stroke-linejoin:round;stroke-dasharray:none;stroke-opacity:1;paint-order:normal;stop-color:#000000"
       d="m 22.899838,20.260593 4.684517,0.851137"
       id="path7891" /><path
       style="fill:none;fill-opacity:1;stroke:#000000;stroke-width:1.05833;stroke-linecap:round;stroke-linejoin:round;stroke-dasharray:none;paint-order:normal;stop-color:#000000"
       d="M 6.3460128,10.987509 C 6.0131876,8.1033126 6.9112569,5.0355095 7.1713329,3.7040818 c 1.6823697,0.883682 3.1509471,1.8173157 5.1540591,3.4426941 3.460025,-0.9271224 7.675181,-0.4344139 10.458981,0.611344 2.188665,-1.101117 4.320882,-1.7567683 7.249119,-1.9517024 0.321474,1.7913943 -0.0283,5.5961075 -1.06115,7.5149165 1.483302,5.222627 1.500916,12.296756 -0.04318,13.840869 C 24.518229,31.573194 5.6799495,31.273305 4.0639285,25.242152 3.064468,21.512066 4.2865251,13.752064 6.3460128,10.987509 Z"
       id="path1165" /><circle
       style="fill:#000000;fill-opacity:1;stroke:none;stroke-width:0.793752;stroke-linecap:round;stroke-linejoin:round;stroke-dasharray:none;stroke-opacity:1;stop-color:#000000"
       id="path1236"
       cx="17.697741"
       cy="7.9221539"
       r="0.39687496" /><circle
       style="fill:#000000;fill-opacity:1;stroke:none;stroke-width:0.793752;stroke-linecap:round;stroke-linejoin:round;stroke-dasharray:none;stroke-opacity:1;stop-color:#000000"
       id="circle1498"
       cx="17.697741"
       cy="7.9221539"
       r="0.39687496" /><use
       x="0"
       y="0"
       xlink:href="#circle1498"
       id="use1510"
       transform="translate(-0.67636512,0.98129872)" /><use
       x="0"
       y="0"
       xlink:href="#use1510"
       id="use1512"
       transform="translate(-0.56264954,1.0514698)" /><use
       x="0"
       y="0"
       xlink:href="#use1512"
       id="use1514"
       transform="translate(-0.43203517,1.0404306)" /><use
       x="0"
       y="0"
       xlink:href="#use1514"
       id="use1516"
       transform="translate(-0.32825345,1.1138479)" /><use
       x="0"
       y="0"
       xlink:href="#use1516"
       id="use1518"
       transform="translate(-0.18752529,1.1029486)" /><use
       x="0"
       y="0"
       xlink:href="#use1518"
       id="use1520"
       transform="translate(-0.05124651,1.1061496)" /><use
       x="0"
       y="0"
       xlink:href="#use1520"
       id="use1522"
       transform="translate(0.05771907,1.1537005)" /><use
       x="0"
       y="0"
       xlink:href="#use1522"
       id="use1524"
       transform="translate(8.2235096,12.598917)" /><use
       x="0"
       y="0"
       xlink:href="#use1524"
       id="use1526"
       transform="translate(-0.28310908,-1.1164265)" /><use
       x="0"
       y="0"
       xlink:href="#use1526"
       id="use1528"
       transform="translate(-0.33930238,-1.1818476)" /><use
       x="0"
       y="0"
       xlink:href="#use1528"
       id="use1530"
       transform="translate(-0.34556673,-1.1444535)" /><use
       x="0"
       y="0"
       xlink:href="#use1530"
       id="use1532"
       transform="translate(-0.28676315,-1.0767652)" /><use
       x="0"
       y="0"
       xlink:href="#use1532"
       id="use1534"
       transform="translate(-0.32341214,-1.1874371)" /></g><metadata
     id="metadata4277"><rdf:RDF><cc:Work
         rdf:about=""><dc:title>Gutkato roboto</dc:title><dc:creator><cc:Agent><dc:title>Tirifto</dc:title></cc:Agent></dc:creator><dc:subject><rdf:Bag><rdf:li>gutkato</rdf:li><rdf:li>gutkatoj</rdf:li><rdf:li>federujo</rdf:li></rdf:Bag></dc:subject><cc:license
           rdf:resource="http://artlibre.org/licence/lal" /><dc:description>Gutkato, destinita al uzo kiel glumarko aŭ propra bildosigno, ekzemple en Federujo aŭ aliaj retaj komunikiloj.</dc:description><dc:date>2024</dc:date></cc:Work><cc:License
         rdf:about="http://artlibre.org/licence/lal"><cc:permits
           rdf:resource="http://creativecommons.org/ns#Reproduction" /><cc:permits
           rdf:resource="http://creativecommons.org/ns#Distribution" /><cc:permits
           rdf:resource="http://creativecommons.org/ns#DerivativeWorks" /><cc:requires
           rdf:resource="http://creativecommons.org/ns#ShareAlike" /><cc:requires
           rdf:resource="http://creativecommons.org/ns#Notice" /><cc:requires
           rdf:resource="http://creativecommons.org/ns#Attribution" /></cc:License></rdf:RDF></metadata></svg>
