<?xml version="1.0" encoding="UTF-8" standalone="no"?>
<!-- Created with Inkscape (http://www.inkscape.org/) -->

<svg
   width="128"
   height="128"
   viewBox="0 0 33.866666 33.866666"
   version="1.1"
   id="svg5"
   xml:space="preserve"
   sodipodi:docname="gutkato_manĝas_sandviĉon.svg"
   inkscape:version="1.2.2 (b0a8486541, 2022-12-01)"
   xmlns:inkscape="http://www.inkscape.org/namespaces/inkscape"
   xmlns:sodipodi="http://sodipodi.sourceforge.net/DTD/sodipodi-0.dtd"
   xmlns:xlink="http://www.w3.org/1999/xlink"
   xmlns="http://www.w3.org/2000/svg"
   xmlns:svg="http://www.w3.org/2000/svg"
   xmlns:rdf="http://www.w3.org/1999/02/22-rdf-syntax-ns#"
   xmlns:cc="http://creativecommons.org/ns#"
   xmlns:dc="http://purl.org/dc/elements/1.1/"><sodipodi:namedview
     id="namedview15"
     pagecolor="#505050"
     bordercolor="#eeeeee"
     borderopacity="1"
     inkscape:showpageshadow="0"
     inkscape:pageopacity="0"
     inkscape:pagecheckerboard="0"
     inkscape:deskcolor="#505050"
     showgrid="false"
     showguides="false"
     inkscape:zoom="1.3037282"
     inkscape:cx="39.5021"
     inkscape:cy="146.88645"
     inkscape:window-width="1232"
     inkscape:window-height="750"
     inkscape:window-x="48"
     inkscape:window-y="26"
     inkscape:window-maximized="1"
     inkscape:current-layer="g14974" /><title
     id="title4279">Gutkato manĝas sandviĉon</title><defs
     id="defs2"><pattern
       inkscape:collect="always"
       xlink:href="#pattern2347"
       id="pattern2359"
       patternTransform="matrix(0.22912718,-0.13228664,0.13228664,0.22912718,13.607395,46.741043)" /><pattern
       patternUnits="userSpaceOnUse"
       width="20"
       height="20"
       patternTransform="translate(29.747213,139.71484)"
       id="pattern2347"><g
         id="g2345"
         transform="matrix(-3.2731669,-1.8897638,1.8897638,-3.2731669,-12.839169,141.75737)"><rect
           style="fill:#c1aa72;fill-opacity:1;stroke:none;stroke-width:0.396874;stroke-linecap:round;stroke-linejoin:round;stroke-miterlimit:8;stop-color:#000000"
           id="rect563"
           width="5.2916665"
           height="5.2916665"
           x="3.3970301"
           y="-37.506638"
           transform="rotate(150)" /><circle
           style="fill:#baa36c;fill-opacity:1;stroke:none;stroke-width:0.396875;stroke-linecap:round;stroke-linejoin:round;stroke-miterlimit:8;stop-color:#000000"
           id="path1223"
           cx="4.4933114"
           cy="-36.331402"
           r="0.79374999"
           transform="rotate(150)" /><circle
           style="fill:#c4ae72;fill-opacity:1;stroke:none;stroke-width:0.396875;stroke-linecap:round;stroke-linejoin:round;stroke-miterlimit:8;stop-color:#000000"
           id="circle1229"
           cx="4.5295615"
           cy="-34.559978"
           r="0.66145831"
           transform="rotate(150)" /><use
           x="0"
           y="0"
           xlink:href="#path1223"
           id="use1231"
           transform="translate(-2.587574,-1.9146592)" /><use
           x="0"
           y="0"
           xlink:href="#use1231"
           id="use1233"
           transform="translate(-0.90972662,2.3769989)" /><use
           x="0"
           y="0"
           xlink:href="#circle1229"
           id="use1235"
           transform="translate(-3.2515614,0.27361501)" /><use
           x="0"
           y="0"
           xlink:href="#circle1229"
           id="use1237"
           transform="translate(-1.123647,2.9069466)" /></g></pattern></defs><g
     id="layer1"><path
       style="fill:#ffdb26;fill-opacity:1;stroke:#000000;stroke-width:1.05833;stroke-linecap:round;stroke-linejoin:round;stroke-dasharray:none;paint-order:normal;stop-color:#000000"
       d="M 6.3460128,10.987509 C 6.0131876,8.1033126 6.9112569,5.0355095 7.1713329,3.7040818 c 1.6823697,0.883682 3.1509471,1.8173157 5.1540591,3.4426941 3.460025,-0.9271224 7.675181,-0.4344139 10.458981,0.611344 2.188665,-1.101117 4.320882,-1.7567683 7.249119,-1.9517024 0.321474,1.7913943 -0.0283,5.5961075 -1.06115,7.5149165 1.483302,5.222627 1.500916,12.296756 -0.04318,13.840869 C 24.518229,31.573194 5.6799495,31.273305 4.0639285,25.242152 3.064468,21.512066 4.2865251,13.752064 6.3460128,10.987509 Z"
       id="path236" /><ellipse
       style="fill:#000000;fill-opacity:1;stroke:none;stroke-width:2.11668;stroke-linecap:round;stroke-linejoin:round;stroke-dasharray:none;paint-order:stroke markers fill;stop-color:#000000"
       id="path6982"
       cx="12.96371"
       cy="12.570978"
       rx="1.6752723"
       ry="2.1418331"
       transform="rotate(8)" /><use
       x="0"
       y="0"
       xlink:href="#path6982"
       id="use7712"
       transform="translate(8.953004,0.69247082)"
       style="stroke-width:1.07136" /><g
       id="g14974"
       transform="rotate(-150,12.214264,36.637081)"><path
         style="fill:#9f8954;fill-opacity:1;stroke:#000000;stroke-width:0.79375;stroke-linecap:round;stroke-linejoin:round;stroke-dasharray:none;stroke-opacity:1;stop-color:#000000"
         d="m 6.3578217,50.065164 c 0.2830998,0.490343 0.6493502,0.456112 0.6493502,0.456112 3.8842951,0 7.5046421,0.01168 11.3455651,0.01168 0,0 0.527928,0.08148 0.913973,-0.304564 0.32927,-0.329269 0.315269,-1.006083 0.315269,-1.006083 0,-3.960599 0.01844,-7.001276 0.01844,-11.086393 0,0 0.0626,-0.445561 -0.353638,-0.685878 -0.469235,-0.270913 -0.845329,0.08706 -0.845329,0.08706 -3.924347,3.924347 -7.72451,7.45352 -11.8944465,11.623456 0,0 -0.4011798,0.468132 -0.1491818,0.904605 z"
         id="path15048"
         sodipodi:nodetypes="sccsccsccs" /><use
         x="0"
         y="0"
         xlink:href="#use14965"
         id="use14967"
         transform="translate(-5.192003,-0.17305144)" /><use
         x="0"
         y="0"
         xlink:href="#path13037"
         id="use14965"
         transform="translate(6.691586,-4.7350872)" /><circle
         style="fill:#e73740;fill-opacity:1;stroke:#000000;stroke-width:0.529167;stroke-linecap:round;stroke-linejoin:round;stroke-dasharray:none;stroke-opacity:1;stop-color:#000000"
         id="path13037"
         cx="12.521339"
         cy="49.875248"
         r="2.9365418" /><path
         style="fill:#50bb3c;fill-opacity:1;stroke:#000000;stroke-width:0.529167;stroke-linecap:round;stroke-linejoin:round;stroke-dasharray:none;stroke-opacity:1;stop-color:#000000"
         d="m 19.278909,39.428782 c -0.467291,-0.598922 -0.905488,-1.266691 -1.609724,-0.981874 -0.488765,0.197673 -0.15274,1.143636 -0.559086,1.479566 -0.55369,0.457741 -1.686121,-0.200891 -2.123355,0.369131 -0.392139,0.511232 0.316307,1.087595 -0.03157,1.62992 -0.240676,0.375208 -0.849736,0.345742 -1.055351,0.741255 -0.221346,0.42577 0.153609,0.623536 -0.08581,1.03941 -0.466113,0.809634 -1.156199,-0.447816 -1.727589,0.291295 -0.183535,0.237408 0.223004,0.699067 3.44e-4,0.90024 -0.785073,0.709313 -2.1597684,-0.503854 -2.9208089,0.231186 -0.5252527,0.507307 0.042632,1.450871 -0.224036,2.130679 -0.3397401,0.866088 -1.8896065,1.068763 -1.659738,1.970258 0.3194761,1.252916 0.9647309,0.629641 1.9394557,1.479215 0.7567452,0.659582 0.3483053,1.745881 1.3376422,1.915955 0.704222,0.121061 1.15665,-0.91679 1.865977,-1.00304 0.668621,-0.0813 1.409215,0.852273 2.081682,0.814169 0.924089,-0.05236 0.873369,-0.880584 1.797588,-0.930605 1.091659,-0.05908 1.43448,1.251053 2.471733,0.905631 0.922444,-0.307189 0.758897,-1.937212 1.698017,-2.188848 0.649495,-0.174032 1.487619,-0.812213 1.28876,-1.554365 -0.365906,-1.365579 -1.447173,-0.779904 -1.051216,-2.257636 0.187188,-0.698597 0.798959,0.281234 0.798959,-1.278385 0,-0.976326 -1.599149,-1.288606 -1.465275,-1.78823 0.156846,-0.58536 1.563807,-0.740136 1.56478,-1.808712 7.61e-4,-0.835468 -0.519459,-0.865271 -1.019609,-1.534492 -0.273476,-0.365923 -1.030757,-0.211554 -1.311772,-0.571723 z"
         id="path1861"
         sodipodi:nodetypes="sssssssssssssssssssssssssss" /><path
         style="fill:url(#pattern2359);fill-opacity:1;stroke:#000000;stroke-width:0.79375;stroke-linecap:round;stroke-linejoin:round;stroke-dasharray:none;stroke-opacity:1;stop-color:#000000"
         d="m 7.3629306,51.012519 c 0.2830998,0.490343 0.6493502,0.456112 0.6493502,0.456112 3.8842942,0 7.5046412,0.01168 11.3455642,0.01168 0,0 0.527928,0.08148 0.913973,-0.304564 0.32927,-0.329269 0.315269,-1.006083 0.315269,-1.006083 0,-3.960599 0.01844,-7.001276 0.01844,-11.086393 0,0 0.0626,-0.445561 -0.353638,-0.685878 -0.469235,-0.270913 -0.845329,0.08706 -0.845329,0.08706 -3.924347,3.924347 -7.72451,7.45352 -11.8944456,11.623456 0,0 -0.4011798,0.468132 -0.1491818,0.904605 z"
         id="path375"
         sodipodi:nodetypes="sccsccsccs" /><rect
         style="stroke:none;fill:url(#pattern2347)"
         transform="matrix(-0.22913588,0.13229166,-0.13229166,-0.22913588,41.110667,62.258592)"
         width="20"
         height="20"
         x="29.747213"
         y="139.71484"
         id="rect2357" /></g><path
       style="fill:#ffdb26;fill-opacity:1;stroke:#000000;stroke-width:0.79375;stroke-linecap:round;stroke-linejoin:round;stroke-dasharray:none;stroke-opacity:1;paint-order:normal;stop-color:#000000"
       d="m 10.004075,19.121173 c -1.4238886,3.039424 2.342169,4.371724 4.594902,1.690642 3.202672,3.608669 6.496348,1.194297 5.575255,-1.100462"
       id="path7824" /><path
       style="fill:none;fill-opacity:1;stroke:#000000;stroke-width:0.79375;stroke-linecap:round;stroke-linejoin:round;stroke-dasharray:none;stroke-opacity:1;paint-order:normal;stop-color:#000000"
       d="m 22.889183,18.104059 4.87622,-0.734341"
       id="path7889" /><path
       style="fill:none;fill-opacity:1;stroke:#000000;stroke-width:0.79375;stroke-linecap:round;stroke-linejoin:round;stroke-dasharray:none;stroke-opacity:1;paint-order:normal;stop-color:#000000"
       d="m 22.899838,20.260593 4.684517,0.851137"
       id="path7891" /><path
       style="fill:none;fill-opacity:1;stroke:#000000;stroke-width:0.79375;stroke-linecap:round;stroke-linejoin:round;stroke-dasharray:none;stroke-opacity:1;paint-order:normal;stop-color:#000000"
       d="M 8.2565339,17.019465 5.9675926,15.975012"
       id="path7893" /><path
       style="fill:none;fill-opacity:1;stroke:#000000;stroke-width:0.79375;stroke-linecap:round;stroke-linejoin:round;stroke-dasharray:none;stroke-opacity:1;paint-order:normal;stop-color:#000000"
       d="M 7.7354506,18.902572 5.5452359,18.75928"
       id="path7895" /></g><metadata
     id="metadata4277"><rdf:RDF><cc:Work
         rdf:about=""><dc:title>Gutkato manĝas sandviĉon</dc:title><dc:creator><cc:Agent><dc:title>Tirifto</dc:title></cc:Agent></dc:creator><dc:subject><rdf:Bag><rdf:li>gutkato</rdf:li><rdf:li>gutkatoj</rdf:li><rdf:li>federujo</rdf:li></rdf:Bag></dc:subject><cc:license
           rdf:resource="http://artlibre.org/licence/lal" /><dc:description>Gutkato, destinita al uzo kiel glumarko aŭ propra bildosigno, ekzemple en Federujo aŭ aliaj retaj komunikiloj.</dc:description><dc:date>2024</dc:date></cc:Work><cc:License
         rdf:about="http://artlibre.org/licence/lal"><cc:permits
           rdf:resource="http://creativecommons.org/ns#Reproduction" /><cc:permits
           rdf:resource="http://creativecommons.org/ns#Distribution" /><cc:permits
           rdf:resource="http://creativecommons.org/ns#DerivativeWorks" /><cc:requires
           rdf:resource="http://creativecommons.org/ns#ShareAlike" /><cc:requires
           rdf:resource="http://creativecommons.org/ns#Notice" /><cc:requires
           rdf:resource="http://creativecommons.org/ns#Attribution" /></cc:License></rdf:RDF></metadata></svg>
