<?xml version="1.0" encoding="UTF-8" standalone="no"?>
<!-- Created with Inkscape (http://www.inkscape.org/) -->

<svg
   width="128"
   height="128"
   viewBox="0 0 33.866666 33.866666"
   version="1.1"
   id="svg5"
   xml:space="preserve"
   sodipodi:docname="gutkatoj_triopo.svg"
   inkscape:version="1.2.2 (b0a8486541, 2022-12-01)"
   xmlns:inkscape="http://www.inkscape.org/namespaces/inkscape"
   xmlns:sodipodi="http://sodipodi.sourceforge.net/DTD/sodipodi-0.dtd"
   xmlns:xlink="http://www.w3.org/1999/xlink"
   xmlns="http://www.w3.org/2000/svg"
   xmlns:svg="http://www.w3.org/2000/svg"
   xmlns:rdf="http://www.w3.org/1999/02/22-rdf-syntax-ns#"
   xmlns:cc="http://creativecommons.org/ns#"
   xmlns:dc="http://purl.org/dc/elements/1.1/"><title
     id="title1004">Gutkatoj, triopo</title><sodipodi:namedview
     id="namedview15"
     pagecolor="#505050"
     bordercolor="#eeeeee"
     borderopacity="1"
     inkscape:showpageshadow="0"
     inkscape:pageopacity="0"
     inkscape:pagecheckerboard="0"
     inkscape:deskcolor="#505050"
     showgrid="false"
     inkscape:zoom="1.3037281"
     inkscape:cx="47.555927"
     inkscape:cy="71.717406"
     inkscape:window-width="1232"
     inkscape:window-height="750"
     inkscape:window-x="48"
     inkscape:window-y="26"
     inkscape:window-maximized="1"
     inkscape:current-layer="layer1" /><defs
     id="defs2" /><g
     id="layer1"
     transform="matrix(0.73981468,0,0,0.73999583,4.4045414,7.8423646)"
     style="stroke-width:1.35152"><g
       id="g351"
       transform="translate(-6.7950338,1.4301882)"><g
         id="g926"
         transform="matrix(-0.97889886,0,0,0.97891863,46.448033,-1.8184569)"
         style="stroke-width:1.38064"><path
           style="fill:#ffdb26;fill-opacity:1;stroke:#000000;stroke-width:1.46118;stroke-linecap:round;stroke-linejoin:round;stroke-dasharray:none;paint-order:normal;stop-color:#000000"
           d="M 3.484936,9.5573209 C 3.1521108,6.6731244 4.0501801,3.6053213 4.3102561,2.2738936 5.9926258,3.1575756 7.4612032,4.0912093 9.4643158,5.7165877 12.924341,4.7894653 17.139497,5.2821738 19.923297,6.3279317 c 2.188665,-1.101117 4.320882,-1.7567683 7.249119,-1.9517024 0.321474,1.7913943 -0.0283,5.5961076 -1.06115,7.5149167 1.483302,5.222627 1.500916,12.296756 -0.04318,13.840869 C 21.657153,30.143006 2.8188727,29.843117 1.2028517,23.811964 0.2033912,20.081878 1.4254483,12.321876 3.484936,9.5573209 Z"
           id="path910" /><ellipse
           style="fill:#000000;fill-opacity:1;stroke:none;stroke-width:2.92239;stroke-linecap:round;stroke-linejoin:round;stroke-dasharray:none;paint-order:stroke markers fill;stop-color:#000000"
           id="ellipse912"
           cx="9.9314337"
           cy="11.552895"
           rx="1.6752723"
           ry="2.1418331"
           transform="rotate(8)" /><use
           x="0"
           y="0"
           xlink:href="#path6982"
           id="use914"
           transform="translate(8.953004,0.69247079)"
           style="stroke-width:1.47917" /><path
           style="fill:none;fill-opacity:1;stroke:#000000;stroke-width:0.913238;stroke-linecap:round;stroke-linejoin:round;stroke-dasharray:none;stroke-opacity:1;paint-order:stroke markers fill;stop-color:#000000"
           d="m 7.1429982,17.690985 c -1.4238886,3.039424 2.3421696,4.371724 4.5949028,1.690642 3.202672,3.608669 6.496348,1.194297 5.575255,-1.100462"
           id="path916" /><path
           style="fill:none;fill-opacity:1;stroke:#000000;stroke-width:0.913238;stroke-linecap:round;stroke-linejoin:round;stroke-dasharray:none;stroke-opacity:1;paint-order:normal;stop-color:#000000"
           d="m 20.028107,16.673871 4.87622,-0.734341"
           id="path918" /><path
           style="fill:none;fill-opacity:1;stroke:#000000;stroke-width:0.913238;stroke-linecap:round;stroke-linejoin:round;stroke-dasharray:none;stroke-opacity:1;paint-order:normal;stop-color:#000000"
           d="m 20.038762,18.830405 4.684517,0.851137"
           id="path920" /><path
           style="fill:none;fill-opacity:1;stroke:#000000;stroke-width:0.913238;stroke-linecap:round;stroke-linejoin:round;stroke-dasharray:none;stroke-opacity:1;paint-order:normal;stop-color:#000000"
           d="M 5.3954571,15.589277 3.1065158,14.544824"
           id="path922" /><path
           style="fill:none;fill-opacity:1;stroke:#000000;stroke-width:0.913238;stroke-linecap:round;stroke-linejoin:round;stroke-dasharray:none;stroke-opacity:1;paint-order:normal;stop-color:#000000"
           d="M 4.8743738,17.472384 2.6841591,17.329092"
           id="path924" /></g><g
         id="g277"
         transform="matrix(0.97889886,0,0,0.97891863,1.0121161,-0.38826869)"
         style="stroke-width:1.38064"><path
           style="fill:#ffdb26;fill-opacity:1;stroke:#000000;stroke-width:1.46118;stroke-linecap:round;stroke-linejoin:round;stroke-dasharray:none;paint-order:normal;stop-color:#000000"
           d="M 3.484936,9.5573209 C 3.1521108,6.6731244 4.0501801,3.6053213 4.3102561,2.2738936 5.9926258,3.1575756 7.4612032,4.0912093 9.4643158,5.7165877 12.924341,4.7894653 17.139497,5.2821738 19.923297,6.3279317 c 2.188665,-1.101117 4.320882,-1.7567683 7.249119,-1.9517024 0.321474,1.7913943 -0.0283,5.5961076 -1.06115,7.5149167 1.483302,5.222627 1.500916,12.296756 -0.04318,13.840869 C 21.657153,30.143006 2.8188727,29.843117 1.2028517,23.811964 0.2033912,20.081878 1.4254483,12.321876 3.484936,9.5573209 Z"
           id="path236" /><ellipse
           style="fill:#000000;fill-opacity:1;stroke:none;stroke-width:2.92239;stroke-linecap:round;stroke-linejoin:round;stroke-dasharray:none;paint-order:stroke markers fill;stop-color:#000000"
           id="path6982"
           cx="9.9314337"
           cy="11.552895"
           rx="1.6752723"
           ry="2.1418331"
           transform="rotate(8)" /><use
           x="0"
           y="0"
           xlink:href="#path6982"
           id="use7712"
           transform="translate(8.953004,0.69247079)"
           style="stroke-width:1.47917" /><path
           style="fill:none;fill-opacity:1;stroke:#000000;stroke-width:0.913238;stroke-linecap:round;stroke-linejoin:round;stroke-dasharray:none;stroke-opacity:1;paint-order:stroke markers fill;stop-color:#000000"
           d="m 7.1429982,17.690985 c -1.4238886,3.039424 2.3421696,4.371724 4.5949028,1.690642 3.202672,3.608669 6.496348,1.194297 5.575255,-1.100462"
           id="path7824" /><path
           style="fill:none;fill-opacity:1;stroke:#000000;stroke-width:0.913238;stroke-linecap:round;stroke-linejoin:round;stroke-dasharray:none;stroke-opacity:1;paint-order:normal;stop-color:#000000"
           d="m 20.028107,16.673871 4.87622,-0.734341"
           id="path7889" /><path
           style="fill:none;fill-opacity:1;stroke:#000000;stroke-width:0.913238;stroke-linecap:round;stroke-linejoin:round;stroke-dasharray:none;stroke-opacity:1;paint-order:normal;stop-color:#000000"
           d="m 20.038762,18.830405 4.684517,0.851137"
           id="path7891" /><path
           style="fill:none;fill-opacity:1;stroke:#000000;stroke-width:0.913238;stroke-linecap:round;stroke-linejoin:round;stroke-dasharray:none;stroke-opacity:1;paint-order:normal;stop-color:#000000"
           d="M 5.3954571,15.589277 3.1065158,14.544824"
           id="path7893" /><path
           style="fill:none;fill-opacity:1;stroke:#000000;stroke-width:0.913238;stroke-linecap:round;stroke-linejoin:round;stroke-dasharray:none;stroke-opacity:1;paint-order:normal;stop-color:#000000"
           d="M 4.8743738,17.472384 2.6841591,17.329092"
           id="path7895" /></g><g
         id="g267"
         transform="matrix(-1.0211011,0,0,1.0210814,44.30136,0.32796804)"
         style="stroke-width:1.3236"><path
           style="fill:#ffdb26;fill-opacity:1;stroke:#000000;stroke-width:1.40082;stroke-linecap:round;stroke-linejoin:round;stroke-dasharray:none;paint-order:normal;stop-color:#000000"
           d="M 9.2070896,12.417697 C 8.8742644,9.5335008 9.7723337,6.4656977 10.03241,5.13427 c 1.682369,0.883682 3.150946,1.8173157 5.154058,3.4426941 3.460025,-0.9271224 7.675181,-0.4344139 10.458981,0.611344 2.188665,-1.101117 4.320882,-1.7567683 7.249119,-1.9517024 0.321474,1.7913943 -0.0283,5.5961073 -1.06115,7.5149163 1.483302,5.222627 1.500916,12.296756 -0.04318,13.840869 C 27.379305,33.003382 8.5410263,32.703493 6.9250053,26.67234 5.9255448,22.942254 7.1476019,15.182252 9.2070896,12.417697 Z"
           id="path243" /><ellipse
           style="fill:#000000;fill-opacity:1;stroke:none;stroke-width:2.80166;stroke-linecap:round;stroke-linejoin:round;stroke-dasharray:none;paint-order:stroke markers fill;stop-color:#000000"
           id="ellipse245"
           cx="15.995985"
           cy="13.589062"
           rx="1.6752723"
           ry="2.1418331"
           transform="rotate(8)" /><use
           x="0"
           y="0"
           xlink:href="#path6982"
           id="use247"
           transform="translate(14.675156,3.5528472)"
           style="stroke-width:1.41806" /><path
           style="fill:none;fill-opacity:1;stroke:#000000;stroke-width:0.875511;stroke-linecap:round;stroke-linejoin:round;stroke-dasharray:none;stroke-opacity:1;paint-order:stroke markers fill;stop-color:#000000"
           d="m 12.865151,20.551361 c -1.423888,3.039424 2.342169,4.371724 4.594902,1.690642 3.202672,3.608669 6.496348,1.194297 5.575255,-1.100462"
           id="path249" /><path
           style="fill:none;fill-opacity:1;stroke:#000000;stroke-width:0.875511;stroke-linecap:round;stroke-linejoin:round;stroke-dasharray:none;stroke-opacity:1;paint-order:normal;stop-color:#000000"
           d="m 25.750259,19.534247 4.87622,-0.734341"
           id="path251" /><path
           style="fill:none;fill-opacity:1;stroke:#000000;stroke-width:0.875511;stroke-linecap:round;stroke-linejoin:round;stroke-dasharray:none;stroke-opacity:1;paint-order:normal;stop-color:#000000"
           d="m 25.760914,21.690781 4.684517,0.851137"
           id="path253" /><path
           style="fill:none;fill-opacity:1;stroke:#000000;stroke-width:0.875511;stroke-linecap:round;stroke-linejoin:round;stroke-dasharray:none;stroke-opacity:1;paint-order:normal;stop-color:#000000"
           d="M 11.117611,18.449653 8.8286694,17.4052"
           id="path255" /><path
           style="fill:none;fill-opacity:1;stroke:#000000;stroke-width:0.875511;stroke-linecap:round;stroke-linejoin:round;stroke-dasharray:none;stroke-opacity:1;paint-order:normal;stop-color:#000000"
           d="M 10.596527,20.33276 8.4063127,20.189468"
           id="path257" /></g></g><path
       style="fill:#ff2626;fill-opacity:1;stroke:#000000;stroke-width:1.43036;stroke-linecap:round;stroke-linejoin:round;stroke-dasharray:none;stroke-opacity:1;stop-color:#000000"
       d="m 13.10122,-8.990273 c -3.6242536,-6e-7 -6.2347793,4.4827707 -2.941322,7.6983338 2.941235,2.8716708 4.670991,4.2630891 6.775143,6.3174736 2.104149,-2.0543849 3.833906,-3.4458033 6.775142,-6.3174733 3.293457,-3.215564 0.682931,-7.6983341 -2.941324,-7.6983341 -1.792154,0 -2.903702,1.2416049 -3.833817,2.1497292 C 16.004923,-7.748667 14.893375,-8.990273 13.10122,-8.990273 Z"
       id="path3500"
       sodipodi:nodetypes="sscsscs" /></g><metadata
     id="metadata4277"><rdf:RDF><cc:Work
         rdf:about=""><dc:creator><cc:Agent><dc:title>Tirifto</dc:title></cc:Agent></dc:creator><dc:subject><rdf:Bag><rdf:li>gutkato</rdf:li><rdf:li>gutkatoj</rdf:li><rdf:li>federujo</rdf:li></rdf:Bag></dc:subject><cc:license
           rdf:resource="http://artlibre.org/licence/lal" /><dc:description>Gutkato, destinita al uzo kiel glumarko aŭ propra bildosigno, ekzemple en Federujo aŭ aliaj retaj komunikiloj.</dc:description><dc:date>2024</dc:date><dc:title>Gutkatoj, triopo</dc:title></cc:Work><cc:License
         rdf:about="http://artlibre.org/licence/lal"><cc:permits
           rdf:resource="http://creativecommons.org/ns#Reproduction" /><cc:permits
           rdf:resource="http://creativecommons.org/ns#Distribution" /><cc:permits
           rdf:resource="http://creativecommons.org/ns#DerivativeWorks" /><cc:requires
           rdf:resource="http://creativecommons.org/ns#ShareAlike" /><cc:requires
           rdf:resource="http://creativecommons.org/ns#Notice" /><cc:requires
           rdf:resource="http://creativecommons.org/ns#Attribution" /></cc:License></rdf:RDF></metadata></svg>
