<?xml version="1.0" standalone="no"?>
<!DOCTYPE svg PUBLIC "-//W3C//DTD SVG 1.1//EN" "http://www.w3.org/Graphics/SVG/1.1/DTD/svg11.dtd" >
<svg xmlns="http://www.w3.org/2000/svg" xmlns:xlink="http://www.w3.org/1999/xlink" version="1.1" viewBox="-10 0 1332 2048">
   <path fill="currentColor"
d="M1240 488q0 -4 -9 47q-45 252 -164 367q-39 38 -192 103q-31 10 -74 38q-7 11 -9 68q-2 67 -7 202q-15 284 -15 291q0 30 9 45.5t40 28.5q28 6 84 19q209 48 209 159q0 95 -185 136q-116 26 -266 26q-149 0 -266 -26q-185 -41 -185 -136q0 -76 79 -116q41 -21 153 -46
q89 -20 100 -43q10 -20 10 -47q0 12 -12 -219t-12 -277q0 -6 1.5 -17t1.5 -17q0 -18 -12 -32t-122 -61t-142 -79q-131 -131 -162 -348q-11 -78 -11 -66q0 3 5 -40q24 -211 111 -341h926q41 46 83 185q11 37 27 156q6 45 6 40zM1153 456q0 -154 -63 -283h-858
q-63 132 -63 283q0 134 45 217q160 -21 231 -21h432q102 0 231 21q45 -77 45 -217zM1078 709q-28 -8 -85 -19q-64 -7 -107 -7h-450q-109 0 -192 26q36 8 110 20q109 13 153 13h308q93 0 263 -33zM943 889q-28 2 -82 10q-130 30 -203 30t-113 -7q-14 -2 -79 -20
q-49 -13 -81 -13h-7q54 21 107 41q63 28 91 66q12 17 15 68q8 144 16 349q7 179 7 197q0 38 -10 66q-2 6 -19 35.5t-17 31.5v41q33 16 103 16q47 0 83 -16v-42q0 3 -23 -46t-23 -86q0 -13 7 -197q4 -116 15 -349q3 -47 16 -68q22 -35 90 -65q53 -21 107 -42zM1034 1850
q0 -32 -102 -71q-91 -35 -133 -35q-10 0 -23 7q3 10 28 20.5t25 29.5q0 49 -168 49t-168 -49q0 -16 45 -37l8 -13q-13 -7 -23 -7q-42 0 -133 35q-102 39 -102 71q0 18 32 34q23 11 47 22l11 -11q-21 -11 -35 -19v-9l2 -2q54 22 139 30q72 6 143 13v14q-15 15 -45 15
q-53 0 -118 -16q-73 -18 -61 -18q-6 0 -6 7v4q105 35 264 35q116 0 192 -13q45 -8 103 -30q78 -30 78 -56zM639 1560q-12 -6 -12 -20l-10 -451q-1 -49 -9 -85h21q10 18 10 19v537zM826 1868q-43 22 -165 22q-121 0 -165 -22l7 -12q44 12 107 12h91q69 0 118 -12z" />
</svg>
