<svg version="1.1" id="WL_890_ZH_Pfaeffikersee_Rundweg_svg__RF_890" x="0" y="0" xml:space="preserve" xmlns="http://www.w3.org/2000/svg" viewBox="0 0 212.7 212.6"><style type="text/css" id="style2">.WL_890_ZH_Pfaeffikersee_Rundweg_svg__st0{fill:#52ae32}.WL_890_ZH_Pfaeffikersee_Rundweg_svg__st1{fill:#e30613}.WL_890_ZH_Pfaeffikersee_Rundweg_svg__st2{fill:#fff}</style><g id="WL_890_ZH_Pfaeffikersee_Rundweg_svg__g140" transform="translate(-190.2 -181.7)"><path class="WL_890_ZH_Pfaeffikersee_Rundweg_svg__st0" d="M267.7 260.3h-1.1l-1.1 5.2h1.2c1.9 0 3.8-1 3.8-3.1.1-1.8-1.3-2.1-2.8-2.1z" id="WL_890_ZH_Pfaeffikersee_Rundweg_svg__path4"/><path class="WL_890_ZH_Pfaeffikersee_Rundweg_svg__st0" d="M339 359c-.7 0-1 .4-1.2 1h1.9v-.3c0-.4-.2-.7-.7-.7z" id="WL_890_ZH_Pfaeffikersee_Rundweg_svg__path6"/><path class="WL_890_ZH_Pfaeffikersee_Rundweg_svg__st0" d="M294.6 285.3h-1.4l-.9 4.5h1.2c1.8 0 4-.6 4-2.8 0-1.7-1.5-1.7-2.9-1.7z" id="WL_890_ZH_Pfaeffikersee_Rundweg_svg__path8"/><path class="WL_890_ZH_Pfaeffikersee_Rundweg_svg__st0" d="M388.1 289.2c-2.3 0-3.4 3.1-3.4 4.9 0 1.5.6 2.8 2.1 2.8 2.6 0 3.7-2.7 3.7-5.1 0-1.4-.9-2.6-2.4-2.6z" id="WL_890_ZH_Pfaeffikersee_Rundweg_svg__path10"/><path class="WL_890_ZH_Pfaeffikersee_Rundweg_svg__st0" d="M334 359.1c-.8 0-1.2 1.1-1.2 1.7 0 .4.1 1 .7 1 .8 0 1.3-.9 1.3-1.7 0-.5-.3-1-.8-1z" id="WL_890_ZH_Pfaeffikersee_Rundweg_svg__path12"/><path class="WL_890_ZH_Pfaeffikersee_Rundweg_svg__st0" d="M386.4 359c-.7 0-1 .4-1.2 1h1.9v-.3c0-.4-.3-.7-.7-.7z" id="WL_890_ZH_Pfaeffikersee_Rundweg_svg__path14"/><path class="WL_890_ZH_Pfaeffikersee_Rundweg_svg__st0" d="M291.5 268.7h-1.1c-1.6 0-4.2.3-4.2 2.4 0 .9.8 1.3 1.6 1.3 2.5 0 3.2-1.7 3.7-3.7z" id="WL_890_ZH_Pfaeffikersee_Rundweg_svg__path16"/><path class="WL_890_ZH_Pfaeffikersee_Rundweg_svg__st0" d="M337 297.3c2.4 0 3.8-2.8 3.8-5.1 0-1.5-.7-3-2.3-3-2.3 0-3.4 3.2-3.4 5.1-.1 1.3.3 3 1.9 3z" id="WL_890_ZH_Pfaeffikersee_Rundweg_svg__path18"/><path class="WL_890_ZH_Pfaeffikersee_Rundweg_svg__st0" d="M347.6 361.4c0 .3.3.4.6.4.8 0 1.1-.6 1.2-1.2h-.4c-.5 0-1.4.1-1.4.8z" id="WL_890_ZH_Pfaeffikersee_Rundweg_svg__path20"/><path class="WL_890_ZH_Pfaeffikersee_Rundweg_svg__st0" d="M376.8 291.2c0-1.3-.7-2.1-2.1-2.1-2 0-2.9 1.2-3.5 2.9h5.5c.1-.3.1-.5.1-.8z" id="WL_890_ZH_Pfaeffikersee_Rundweg_svg__path22"/><path class="WL_890_ZH_Pfaeffikersee_Rundweg_svg__st0" d="M323 361.4c0 .3.3.4.6.4.8 0 1.1-.6 1.2-1.2h-.4c-.5 0-1.4.1-1.4.8z" id="WL_890_ZH_Pfaeffikersee_Rundweg_svg__path24"/><path class="WL_890_ZH_Pfaeffikersee_Rundweg_svg__st0" d="M376.1 264.1c-2 0-2.9 1.2-3.5 2.9h5.5c0-.3.1-.6.1-.8-.1-1.3-.8-2.1-2.1-2.1z" id="WL_890_ZH_Pfaeffikersee_Rundweg_svg__path26"/><path class="WL_890_ZH_Pfaeffikersee_Rundweg_svg__st0" d="M275.1 213.8c4.2-1.5 8.6-4.2 8.6-8.3 0-3.8-2.8-5.6-6.1-5.6-3.6 0-7.2 3.1-7.2 6.4-.1 3.1 2.3 5.6 4.7 7.5z" id="WL_890_ZH_Pfaeffikersee_Rundweg_svg__path28"/><path class="WL_890_ZH_Pfaeffikersee_Rundweg_svg__st0" d="M338.9 267h5.5c0-.3.1-.6.1-.8 0-1.3-.7-2.1-2.1-2.1-2 0-2.8 1.2-3.5 2.9z" id="WL_890_ZH_Pfaeffikersee_Rundweg_svg__path30"/><path class="WL_890_ZH_Pfaeffikersee_Rundweg_svg__st0" d="M190.2 367.6h14.3c-4.1-6.5-6.4-14.1-6.4-22.3 0-16.8 9.9-31.3 24.2-38l.5 5.7c-11.5 6.2-19.4 18.4-19.4 32.4 0 8.4 2.8 16.2 7.6 22.3h58.2c2.2-2.9 4-6.1 5.3-9.6l3 6.2c-.6 1.2-1.3 2.3-1.9 3.4h6l-12.2-30.8h-41.8l-3.7-45.8c-.9-12.4 14.8-9.4 15.4-.8l1.8 15.4h18c9.3.2 9.3 11.9 0 11.9H242l.6 5.7H278l14.7 39.4c.8 1.9.9 3.6.5 5.1h109.5V181.7H190.2Zm76.7-99.5h-2l-1.4 6.4h-3.4l3.6-16.9h2.9c3.1 0 7.4.2 7.4 4.4.1 4.1-3.3 6.1-7.1 6.1zm11.2 6.4h-3.2l2.1-10.1h-2.5l.5-2.4h2.5c.7-3.2 1.7-6 5.5-6 .8 0 1.5.1 2 .3l-.8 2.4c-.3-.1-.7-.2-1-.2-1.8 0-2.2 2.2-2.5 3.5h2.9l-.5 2.4h-2.9zm5-3.3c0-4.1 4.6-4.4 7.6-4.4h1.1c.1-.3.1-.7.1-1.1 0-1.3-1.4-1.6-2.5-1.6-1.4 0-2.8.4-4.1 1l.5-2.6c1.4-.5 2.8-.8 4.2-.8 2.5 0 4.8.9 4.8 3.8 0 1.7-1.2 6.6-1.5 8.9h-2.7l.3-1.9c-1.1 1.4-2.2 2.2-4 2.2-2.2.1-3.8-1.2-3.8-3.5zm3.6-11.5.6-2.8h2.8l-.6 2.8zm5.1 0 .6-2.8h2.8l-.6 2.8zm4.3 31.4c.9.1 1.5.7 1.7 1.6l1.6 6.8h-3.6l-.8-4c-.4-1.8-.3-3-2.1-3h-1.3l-1.5 7h-3.4l3.5-16.9h4c3.1 0 6.7 0 6.7 4 .1 2.9-2.1 4.4-4.8 4.5zm16.9 8.4h-3.2l.2-1.2c-.9.8-2.1 1.5-3.5 1.5-2.4 0-4.1-1.5-4.1-4 0-.9.2-1.9.4-2.7l1.3-6.1h3.2l-1.2 5.9c-.2.8-.4 1.7-.4 2.6 0 1 .7 1.7 1.8 1.7 2.3 0 3.1-2.1 3.5-4l1.3-6.3h3.2l-2.3 10.7c-.1.8-.2 1.5-.2 1.9zm13.7-33 4.5-4.5h4.2l-6 5.7 3.8 6.8h-3.7l-3.2-6.6-1.4 6.6h-3.2l3.8-18.2h3.2zm-2.3 22.7c-2.3 0-3.1 2.1-3.5 4l-1.3 6.3h-3.2l2.3-10.7c.1-.8.3-1.4.3-1.8h3.2l-.2 1.2c.9-.8 2.1-1.5 3.5-1.5 2.4 0 4.1 1.5 4.1 4 0 .9-.2 1.9-.4 2.7l-1.3 6.1h-3.2l1.2-5.9c.2-.8.4-1.7.4-2.6-.1-1.1-.9-1.8-1.9-1.8zm-3-29.5h-3.2l.7-3.1h3.2zm-.5 2.3-2.7 12.5H315l2.7-12.5zm-4.8-3.2c-.3-.1-.7-.2-1-.2-1.8 0-2.2 2.2-2.5 3.5h2.9l-.5 2.4h-2.9l-2.1 10.1h-3.2l2.1-10.1h-2.5l.5-2.4h2.5c.7-3.2 1.7-6 5.5-6 .8 0 1.5.1 2 .3zm2.4 103.7-.1-4.6-2 4.6H315l-.4-5.7h1.1l.2 4.4 1.9-4.4h1.5v4.4l2-4.4h1.2l-2.7 5.7zm6.9 0h-.9l.1-.6c-.4.5-.8.7-1.4.7-.8 0-1.3-.4-1.3-1.2 0-1.4 1.6-1.5 2.6-1.5h.4v-.4c0-.4-.5-.5-.8-.5-.5 0-1 .1-1.4.3l.2-.9c.5-.2.9-.3 1.4-.3.8 0 1.6.3 1.6 1.3 0 .7-.4 2.3-.5 3.1zm5.4-2-.4 2h-1.1l.4-2c.1-.3.1-.6.1-.9 0-.4-.2-.6-.6-.6-.8 0-1 .7-1.2 1.3l-.5 2.1h-1.1l.8-3.6c0-.3.1-.5.1-.6h1.1l-.1.4c.3-.3.7-.5 1.2-.5.8 0 1.4.5 1.4 1.4.1.4 0 .7-.1 1zm7.1-73.8c1.6 0 2.8.6 3.8 1.8l1.6-7.2h3.2l-3.4 15.4c-.2 1.1-.4 2.1-.5 2.8h-3l.3-1.8c-1 1.4-2.2 2.1-4.1 2.1-3 0-4.3-2.5-4.3-5.2.1-3.7 2.1-7.9 6.4-7.9zm-2.5 75.8h-1l.1-.6c-.3.5-.7.7-1.4.7-1 0-1.5-.8-1.5-1.8 0-1.3.7-2.7 2.1-2.7.5 0 1 .2 1.3.6l.5-2.4h1.1l-1.1 5.2c0 .4 0 .8-.1 1zm5.2-1.8h-3c0 .8.4 1.1 1.2 1.1.5 0 .9-.1 1.3-.3l-.1.9c-.4.1-.9.2-1.3.2-1.2 0-2-.6-2-1.8 0-1.3 1-2.6 2.4-2.6 1 0 1.7.5 1.7 1.6-.1.3-.1.6-.2.9zm2-.1-.4 1.9h-1.1l.8-3.7c0-.2.1-.4.1-.6h1l-.1.8c.2-.5.7-.9 1.2-.9h.4l-.2 1.1c-.1 0-.3-.1-.4-.1-.8.1-1.2.8-1.3 1.5zm1.7 1.9 1.3-6.1h1.1l-1.3 6.1zm5.7 0h-.9l.1-.6c-.4.5-.8.7-1.4.7-.8 0-1.3-.4-1.3-1.2 0-1.4 1.6-1.5 2.6-1.5h.4v-.4c0-.4-.5-.5-.8-.5-.5 0-1 .1-1.4.3l.2-.9c.5-.2.9-.3 1.4-.3.8 0 1.6.3 1.6 1.3.1.7-.4 2.3-.5 3.1zm9.3-96.8c0-2.9 2.8-4 5.4-4 1.2 0 2.4.2 3.5.5l-.7 2.4c-.8-.3-1.7-.6-2.7-.6-1 0-2.2.3-2.2 1.3 0 1.6 4.2 2.2 4.2 5.2 0 3.2-2.8 4.2-5.6 4.2-1.3 0-2.6-.2-3.8-.8l.7-2.6c.9.5 1.8 1 3.1 1 1.1 0 2.2-.4 2.2-1.4.1-1.9-4.1-2.1-4.1-5.2zm16.3 6.7c1.3 0 2.6-.3 3.8-.9l-.4 2.6c-1.3.4-2.6.7-4 .7-3.6 0-6-1.7-6-5.4 0-3.9 3-7.6 7.1-7.6 3.1 0 5.1 1.6 5.1 4.7 0 .9-.1 1.9-.3 2.8h-8.8c0 2.3 1.3 3.1 3.5 3.1zm-.8 14.3c3.1 0 5.1 1.6 5.1 4.7 0 .9-.1 1.9-.3 2.8h-8.8c0 2.3 1.2 3.1 3.5 3.1 1.3 0 2.6-.3 3.8-.9l-.4 2.6c-1.3.4-2.6.7-4 .7-3.6 0-6-1.7-6-5.4 0-3.8 3-7.6 7.1-7.6zm-15.4.3.7 9.4 4.8-9.4h3.3l-6.9 12.5h-3.7l-.7-9.5-4.5 9.5h-3.7L347 287h3.2l.9 9.4 4.6-9.4zm-4 73.5-.4 2h-1.1l.4-2c.1-.3.1-.6.1-.9 0-.4-.2-.6-.6-.6-.8 0-1 .7-1.2 1.3l-.5 2.1H351l.8-3.6c0-.3.1-.5.1-.6h1.1l-.1.4c.3-.3.7-.5 1.2-.5.8 0 1.4.5 1.4 1.4.1.4 0 .7-.1 1zm4.8 1.1c-.1.4-.1.7-.2.9h-1l.1-.6c-.3.5-.7.7-1.4.7-1 0-1.5-.8-1.5-1.8 0-1.3.7-2.7 2.1-2.7.5 0 1 .2 1.3.6l.5-2.4h1.1zm7.3-3.7c-.3-.2-.8-.3-1.2-.3-.4 0-1 .2-1 .7 0 .9 2 .9 2 2.5 0 1.4-1.1 1.9-2.4 1.9-.5 0-1.1-.1-1.6-.3l.3-1c.4.2.9.4 1.4.4.5 0 1.1-.3 1.1-.9 0-1-1.9-.9-1.9-2.4 0-1.2 1-1.7 2.1-1.7.5 0 1 .1 1.5.3zm2.7 3.9c.3 0 .6-.1.9-.2l-.1.9c-.3.2-.7.2-1.1.2-1.1 0-1.8-.7-1.8-1.8 0-1.5 1-2.6 2.5-2.6.4 0 .8.1 1.1.2l-.3.9c-.2-.1-.5-.2-.8-.2-.9 0-1.4.8-1.4 1.6.1.4.3 1 1 1zm5.7-1.3-.4 2h-1.1l.4-2c.1-.3.1-.6.1-.9 0-.4-.2-.6-.6-.6-.8 0-1 .7-1.2 1.3l-.5 2.1h-1.1l1.3-6.1h1.1l-.5 2.3c.3-.3.7-.5 1.2-.5.8 0 1.4.5 1.4 1.4.1.4 0 .7-.1 1zm4.7 2-.2-3.2-1.5 3.2h-1.2l-.6-4.2h1.1l.3 3.2 1.5-3.2h1.2l.2 3.2 1.6-3.2h1.1l-2.3 4.2zm7.4-1.8h-3c0 .8.4 1.1 1.2 1.1.5 0 .9-.1 1.3-.3l-.1.9c-.4.1-.9.2-1.3.2-1.2 0-2-.6-2-1.8 0-1.3 1-2.6 2.4-2.6 1 0 1.7.5 1.7 1.6-.1.3-.1.6-.2.9zm.5 1.8.9-4.2h1.1l-.9 4.2zm1-5 .2-1h1.1l-.2 1zm5.1 1.6-2.6 2.5h2.1l-.2.9h-3.5l.2-.9 2.6-2.5h-1.9l.2-.9h3.3zm0-70.3-2 9.4c-.8 4.1-2.6 6.7-7.1 6.7-1.7 0-3.4-.2-5-.8l.8-2.6c1.3.5 2.5 1 3.9 1 3.4 0 3.9-2.4 4.7-5.2-.8 1.5-2.4 2.4-4.2 2.4-3 0-4.3-2.5-4.3-5.3 0-3.7 2.3-7.5 6.3-7.5 1.6 0 3 .8 3.8 2.1l.4-1.8h3.1c-.1.2-.2.8-.4 1.6zm-5.6-16.4c1.3 0 2.6-.3 3.8-.9l-.4 2.6c-1.3.4-2.6.7-4 .7-3.6 0-6-1.7-6-5.4 0-3.9 3-7.6 7.1-7.6 3.1 0 5.1 1.6 5.1 4.7 0 .9-.1 1.9-.3 2.8h-8.8c.1 2.3 1.3 3.1 3.5 3.1zm-12.5-82.2c12.1 0 18.8 7.2 18.8 20.2 0 20.2-9.3 37.5-26.6 37.5-12.1 0-18.8-7.3-18.8-20.2 0-19.1 8.9-37.5 26.6-37.5zm-25.7 73.5c.1-.5.2-1.1.3-1.7h3.1l-.4 2.3c.6-1.4 2.2-2.6 3.7-2.6.4 0 .8 0 1.2.1l-.7 3.2c-.4-.1-.8-.2-1.2-.2-2.3 0-3.4 2.1-3.8 4.1l-1.2 5.6h-3.2zm-3.2 2.8c0 .9-.1 1.9-.3 2.8h-8.8c0 2.3 1.2 3.1 3.5 3.1 1.3 0 2.6-.3 3.8-.9l-.4 2.6c-1.3.4-2.6.7-4 .7-3.6 0-6-1.7-6-5.4 0-3.9 3-7.6 7.1-7.6 3.1-.1 5.1 1.5 5.1 4.7zm-45.1-32.7c3.4 2.3 7.8 3.6 12 3.6 9.6 0 13.2-6.4 14.8-13.7l-.2-.2c-2.7 2.2-6.1 3.1-9.5 3.1-9.4 0-15.9-6.2-15.9-16.6 0-12.2 8.2-19.8 20.5-19.8 13 0 20.5 7.9 20.5 20.6 0 19.1-8.2 37.2-29.8 37.2-5.4 0-11.1-1.4-15.8-4.2zm-4.6 28.2h2.5c.7-3.2 1.7-6 5.5-6 .8 0 1.5.1 2 .3l-.8 2.4c-.3-.1-.7-.2-1-.2-1.8 0-2.2 2.2-2.5 3.5h2.9l-.5 2.4h-2.9l-2.1 10.1h-3.2l2.1-10.1h-2.5zM264 217.5c-4.4-2.1-7.3-6.1-7.3-10.6 0-10.4 8.6-16.6 21.1-16.6 9.8 0 19.4 3.8 19.4 14.5 0 7.4-6.4 13-13.6 14.2v.1c5.8 2 9.5 6 9.5 12.3 0 5.4-3.3 16.6-22 16.6-10.7 0-20.6-5.6-20.6-14.7 0-9.6 6.6-13.4 13.5-15.8zm-29.1 40.3c6.3 0 11.2 5.4 11.2 11.4 0 5.8-4.7 11.5-10.9 11.5-7 0-11.1-5.7-11.1-11.7 0-5.7 4.1-11.2 10.8-11.2z" id="WL_890_ZH_Pfaeffikersee_Rundweg_svg__path32"/><path class="WL_890_ZH_Pfaeffikersee_Rundweg_svg__st0" d="M389.5 264.1c-2 0-2.9 1.2-3.5 2.9h5.5c0-.3.1-.6.1-.8 0-1.3-.7-2.1-2.1-2.1z" id="WL_890_ZH_Pfaeffikersee_Rundweg_svg__path34"/><path class="WL_890_ZH_Pfaeffikersee_Rundweg_svg__st0" d="M324.9 199.8c-5.1 0-7.6 5.4-7.6 9.8 0 4.1 2.2 7.4 6.2 7.4 5.8 0 8.2-5.5 8.2-9.5s-1.8-7.7-6.8-7.7z" id="WL_890_ZH_Pfaeffikersee_Rundweg_svg__path36"/><path class="WL_890_ZH_Pfaeffikersee_Rundweg_svg__st0" d="M271.4 237.9c4.5 0 8.2-3 8.2-7.1 0-3.8-2.6-6.1-6.6-7.8-4.4 1.4-8.8 4.5-8.8 9-.1 3.5 3 5.9 7.2 5.9z" id="WL_890_ZH_Pfaeffikersee_Rundweg_svg__path38"/><path class="WL_890_ZH_Pfaeffikersee_Rundweg_svg__st0" d="M358.6 359.1c-.8 0-1.2 1.1-1.2 1.7 0 .4.1 1 .7 1 .8 0 1.3-.9 1.3-1.7 0-.5-.3-1-.8-1z" id="WL_890_ZH_Pfaeffikersee_Rundweg_svg__path40"/><path class="WL_890_ZH_Pfaeffikersee_Rundweg_svg__st0" d="M368.9 237.9c9.8 0 12.8-24.5 12.8-30.4 0-4.7-1.8-7.1-5-7.2-9.8 0-13.3 24.5-13.3 30.5.1 4.9 1.8 7.1 5.5 7.1z" id="WL_890_ZH_Pfaeffikersee_Rundweg_svg__path42"/><path class="WL_890_ZH_Pfaeffikersee_Rundweg_svg__st1" d="M240 382c11.9 0 22.4-5.6 29.1-14.4h-58.2c6.7 8.7 17.2 14.4 29.1 14.4z" id="WL_890_ZH_Pfaeffikersee_Rundweg_svg__path44"/><path class="WL_890_ZH_Pfaeffikersee_Rundweg_svg__st1" d="m281.8 368.2-.2-.6h-6c-7.4 11.8-20.5 19.6-35.5 19.6s-28.1-7.8-35.5-19.6h-14.3v26.7h212.6v-26.7H293.2c-1.2 5.2-8.3 6.9-11.4.6z" id="WL_890_ZH_Pfaeffikersee_Rundweg_svg__path46"/><path class="WL_890_ZH_Pfaeffikersee_Rundweg_svg__st2" d="M271.1 248c18.7 0 22-11.3 22-16.6 0-6.3-3.7-10.3-9.5-12.3v-.1c7.2-1.3 13.6-6.9 13.6-14.2 0-10.6-9.6-14.5-19.4-14.5-12.5 0-21.1 6.2-21.1 16.6 0 4.6 2.9 8.6 7.3 10.6-7 2.4-13.5 6.2-13.5 15.8 0 9.1 9.9 14.7 20.6 14.7zm6.4-48.2c3.3 0 6.1 1.8 6.1 5.6 0 4.1-4.4 6.8-8.6 8.3-2.4-1.8-4.7-4.4-4.7-7.5 0-3.2 3.6-6.4 7.2-6.4zm-4.6 23.2c4 1.8 6.6 4.1 6.6 7.8 0 4.2-3.7 7.1-8.2 7.1-4.2 0-7.3-2.4-7.3-5.9.1-4.6 4.5-7.6 8.9-9z" id="WL_890_ZH_Pfaeffikersee_Rundweg_svg__path48"/><path class="WL_890_ZH_Pfaeffikersee_Rundweg_svg__st2" d="M344.7 210.8c0-12.6-7.4-20.6-20.5-20.6-12.2 0-20.5 7.6-20.5 19.8 0 10.5 6.5 16.6 15.9 16.6 3.4 0 6.8-1 9.5-3.1l.2.2c-1.6 7.3-5.2 13.7-14.8 13.7-4.2 0-8.6-1.3-12-3.6l-3.4 10c4.7 2.8 10.4 4.2 15.8 4.2 21.6 0 29.8-18.1 29.8-37.2zm-21.2 6.3c-4.1 0-6.2-3.4-6.2-7.4 0-4.5 2.5-9.8 7.6-9.8 5 0 6.8 3.7 6.8 7.8 0 3.9-2.3 9.4-8.2 9.4z" id="WL_890_ZH_Pfaeffikersee_Rundweg_svg__path50"/><path class="WL_890_ZH_Pfaeffikersee_Rundweg_svg__st2" d="M368.7 248c17.4 0 26.6-17.4 26.6-37.5 0-13-6.7-20.2-18.8-20.2-17.7 0-26.6 18.3-26.6 37.5 0 12.9 6.7 20.2 18.8 20.2zm8-47.7c3.2.1 5 2.5 5 7.2 0 5.9-3 30.4-12.8 30.4-3.7 0-5.4-2.2-5.4-7.1 0-6 3.5-30.5 13.2-30.5z" id="WL_890_ZH_Pfaeffikersee_Rundweg_svg__path52"/><path class="WL_890_ZH_Pfaeffikersee_Rundweg_svg__st2" d="M240 387.3c15 0 28.1-7.8 35.5-19.6.7-1.1 1.4-2.2 1.9-3.4l-3-6.2c-1.3 3.5-3.1 6.7-5.3 9.6-6.7 8.7-17.3 14.4-29.1 14.4-11.9 0-22.4-5.6-29.1-14.4-4.8-6.2-7.6-13.9-7.6-22.3 0-14 7.9-26.2 19.4-32.4l-.5-5.7c-14.3 6.7-24.2 21.2-24.2 38 0 8.2 2.4 15.9 6.4 22.3 7.5 11.8 20.6 19.7 35.6 19.7z" id="WL_890_ZH_Pfaeffikersee_Rundweg_svg__path54"/><path class="WL_890_ZH_Pfaeffikersee_Rundweg_svg__st2" d="M293.2 367.6c.3-1.5.2-3.2-.5-5.1L278 323.1h-35.4l-.6-5.7h17.1c9.3.1 9.3-11.6 0-11.9h-18l-1.8-15.4c-.6-8.6-16.3-11.6-15.4.8l3.7 45.8h41.8l12.2 30.8.2.6c3.1 6.4 10.2 4.7 11.4-.5z" id="WL_890_ZH_Pfaeffikersee_Rundweg_svg__path56"/><path class="WL_890_ZH_Pfaeffikersee_Rundweg_svg__st2" d="M235.2 280.7c6.2 0 10.9-5.7 10.9-11.5 0-6-4.9-11.4-11.2-11.4-6.7 0-10.9 5.5-10.9 11.2.1 6 4.2 11.7 11.2 11.7z" id="WL_890_ZH_Pfaeffikersee_Rundweg_svg__path58"/><path d="M266.7 257.6h-2.9l-3.6 16.9h3.4l1.4-6.4h2c3.8 0 7.1-2 7.1-6.1 0-4.2-4.3-4.4-7.4-4.4zm.1 7.8h-1.2l1.1-5.2h1.1c1.5 0 2.8.4 2.8 2.1 0 2.1-2 3.1-3.8 3.1z" id="WL_890_ZH_Pfaeffikersee_Rundweg_svg__path60"/><path d="M283.6 262h-2.9c.3-1.3.7-3.5 2.5-3.5.3 0 .7.1 1 .2l.8-2.4c-.5-.2-1.3-.3-2-.3-3.8 0-4.8 2.8-5.5 6H275l-.5 2.4h2.5l-2.1 10.1h3.2l2.1-10.1h2.9z" id="WL_890_ZH_Pfaeffikersee_Rundweg_svg__path62"/><path id="WL_890_ZH_Pfaeffikersee_Rundweg_svg__polygon64" d="M291.8 259.7h2.7l.6-2.8h-2.7z"/><path id="WL_890_ZH_Pfaeffikersee_Rundweg_svg__polygon66" d="m289.5 259.7.6-2.8h-2.8l-.6 2.8z"/><path d="m291 272.6-.3 1.9h2.7c.3-2.3 1.5-7.2 1.5-8.9 0-2.9-2.3-3.8-4.8-3.8-1.5 0-2.9.3-4.2.8l-.5 2.6c1.3-.6 2.7-1 4.1-1 1.1 0 2.5.4 2.5 1.6 0 .4 0 .7-.1 1.1h-1.1c-3 0-7.6.3-7.6 4.4 0 2.3 1.6 3.6 3.8 3.6 1.8-.1 2.9-.9 4-2.3zm-4.8-1.5c0-2.1 2.6-2.4 4.2-2.4h1.1c-.5 2-1.3 3.7-3.7 3.7-.8 0-1.6-.4-1.6-1.3z" id="WL_890_ZH_Pfaeffikersee_Rundweg_svg__path68"/><path d="M297.7 274.5h3.2l2.1-10.1h2.9l.5-2.4h-2.9c.3-1.3.7-3.5 2.5-3.5.3 0 .7.1 1 .2l.8-2.4c-.5-.2-1.3-.3-2-.3-3.8 0-4.8 2.8-5.5 6h-2.5l-.5 2.4h2.5z" id="WL_890_ZH_Pfaeffikersee_Rundweg_svg__path70"/><path d="M309.4 262h-2.5l-.5 2.4h2.5l-2.1 10.1h3.2l2.1-10.1h2.9l.5-2.4h-2.9c.3-1.3.7-3.5 2.5-3.5.3 0 .7.1 1 .2l.8-2.4c-.5-.2-1.3-.3-2-.3-3.8 0-4.9 2.9-5.5 6z" id="WL_890_ZH_Pfaeffikersee_Rundweg_svg__path72"/><path id="WL_890_ZH_Pfaeffikersee_Rundweg_svg__polygon74" d="M322.1 256.6h-3.3l-.7 3.1h3.3z"/><path id="WL_890_ZH_Pfaeffikersee_Rundweg_svg__polygon76" d="M320.9 262h-3.3l-2.6 12.5h3.2z"/><path id="WL_890_ZH_Pfaeffikersee_Rundweg_svg__polygon78" d="m324.9 274.5 1.4-6.6 3.2 6.6h3.7l-3.8-6.8 6-5.7h-4.2l-4.5 4.5h-.1l2.2-10.2h-3.3l-3.8 18.2z"/><path d="M335.4 269.3c0 3.7 2.4 5.4 6 5.4 1.3 0 2.7-.3 4-.7l.4-2.6c-1.2.6-2.5.9-3.8.9-2.2 0-3.5-.8-3.5-3.1h8.8c.2-.9.3-1.8.3-2.8 0-3.2-2-4.7-5.1-4.7-4.1 0-7.1 3.8-7.1 7.6zm9.1-3.1c0 .3 0 .6-.1.8h-5.5c.6-1.7 1.5-2.9 3.5-2.9 1.4 0 2.1.8 2.1 2.1z" id="WL_890_ZH_Pfaeffikersee_Rundweg_svg__path80"/><path d="M353 268.9c.4-2 1.5-4.1 3.8-4.1.4 0 .9.1 1.2.2l.7-3.2c-.4-.1-.8-.1-1.2-.1-1.5 0-3.1 1.3-3.7 2.6l.4-2.3h-3.1c-.1.6-.2 1.1-.3 1.7l-2.2 10.8h3.2z" id="WL_890_ZH_Pfaeffikersee_Rundweg_svg__path82"/><path d="M361.3 272.4c-1.3 0-2.2-.5-3.1-1l-.7 2.6c1.2.6 2.5.8 3.8.8 2.8 0 5.6-1 5.6-4.2 0-3-4.2-3.6-4.2-5.2 0-1 1.2-1.3 2.2-1.3.9 0 1.8.3 2.7.6l.7-2.4c-1.1-.3-2.3-.5-3.5-.5-2.6 0-5.4 1-5.4 4 0 3.1 4.2 3.3 4.2 5.3-.1.9-1.3 1.3-2.3 1.3z" id="WL_890_ZH_Pfaeffikersee_Rundweg_svg__path84"/><path d="M381.2 266.5c0-3.2-2-4.7-5.1-4.7-4.1 0-7.1 3.7-7.1 7.6 0 3.7 2.4 5.4 6 5.4 1.3 0 2.7-.3 4-.7l.4-2.6c-1.2.6-2.5.9-3.8.9-2.2 0-3.5-.8-3.5-3.1h8.8c.2-1 .3-1.9.3-2.8zm-3.1.5h-5.5c.6-1.7 1.5-2.9 3.5-2.9 1.4 0 2.1.8 2.1 2.1-.1.3-.1.5-.1.8z" id="WL_890_ZH_Pfaeffikersee_Rundweg_svg__path86"/><path d="M394.7 266.5c0-3.2-2-4.7-5.1-4.7-4.1 0-7.1 3.7-7.1 7.6 0 3.7 2.4 5.4 6 5.4 1.3 0 2.7-.3 4-.7l.4-2.6c-1.2.6-2.5.9-3.8.9-2.2 0-3.5-.8-3.5-3.1h8.8c.2-1 .3-1.9.3-2.8zm-3.2.5H386c.6-1.7 1.5-2.9 3.5-2.9 1.4 0 2.1.8 2.1 2.1 0 .3 0 .5-.1.8z" id="WL_890_ZH_Pfaeffikersee_Rundweg_svg__path88"/><path d="M294.3 282.6h-4l-3.5 16.9h3.4l1.5-7h1.3c1.8 0 1.7 1.3 2.1 3l.8 4h3.6l-1.6-6.8c-.2-.9-.8-1.5-1.7-1.5 2.8 0 4.9-1.6 4.9-4.5-.1-4.2-3.7-4.1-6.8-4.1zm-.8 7.2h-1.2l.9-4.5h1.4c1.4 0 2.9 0 2.9 1.8 0 2.1-2.2 2.7-4 2.7z" id="WL_890_ZH_Pfaeffikersee_Rundweg_svg__path90"/><path d="m312.3 287-1.3 6.3c-.4 1.9-1.2 4-3.5 4-1 0-1.8-.7-1.8-1.7 0-.9.2-1.8.4-2.6l1.2-5.9h-3.2l-1.3 6.1c-.2.8-.4 1.8-.4 2.7 0 2.5 1.6 4 4.1 4 1.4 0 2.6-.7 3.5-1.5l-.2 1.2h3.2c0-.4.2-1 .3-1.8l2.3-10.7h-3.3z" id="WL_890_ZH_Pfaeffikersee_Rundweg_svg__path92"/><path d="M324.6 299.5h3.2l1.3-6.1c.2-.8.4-1.8.4-2.7 0-2.5-1.6-4-4.1-4-1.4 0-2.6.7-3.5 1.5l.2-1.2H319c0 .4-.2 1-.3 1.8l-2.3 10.7h3.2l1.3-6.3c.4-1.9 1.2-4 3.5-4 1 0 1.8.7 1.8 1.7 0 .9-.2 1.8-.4 2.6z" id="WL_890_ZH_Pfaeffikersee_Rundweg_svg__path94"/><path d="M335.9 299.8c1.9 0 3.1-.8 4.1-2.1l-.3 1.8h3c.1-.6.3-1.7.5-2.8l3.4-15.4h-3.2l-1.6 7.2c-1-1.2-2.2-1.8-3.8-1.8-4.2 0-6.3 4.1-6.3 7.9-.1 2.7 1.2 5.2 4.2 5.2zm2.5-10.6c1.6 0 2.3 1.5 2.3 3 0 2.3-1.4 5.1-3.8 5.1-1.6 0-2-1.7-2-3 .1-1.9 1.2-5.1 3.5-5.1z" id="WL_890_ZH_Pfaeffikersee_Rundweg_svg__path96"/><path id="WL_890_ZH_Pfaeffikersee_Rundweg_svg__polygon98" d="M350.2 287H347l1.7 12.5h3.6l4.6-9.6.7 9.6h3.7l6.9-12.5h-3.3l-4.8 9.4h-.1l-.6-9.4h-3.6l-4.6 9.4h-.1z"/><path d="M373.7 299.8c1.3 0 2.7-.3 4-.7l.4-2.6c-1.2.6-2.5.9-3.8.9-2.2 0-3.5-.8-3.5-3.1h8.8c.2-.9.3-1.8.3-2.8 0-3.2-2-4.7-5.1-4.7-4.1 0-7.1 3.7-7.1 7.6 0 3.6 2.4 5.4 6 5.4zm1-10.7c1.4 0 2.1.8 2.1 2.1 0 .3 0 .6-.1.8h-5.5c.7-1.7 1.5-2.9 3.5-2.9z" id="WL_890_ZH_Pfaeffikersee_Rundweg_svg__path100"/><path d="M391.5 288.8c-.8-1.3-2.2-2.1-3.8-2.1-4 0-6.3 3.8-6.3 7.5 0 2.7 1.3 5.3 4.3 5.3 1.8 0 3.4-.9 4.2-2.4-.8 2.8-1.3 5.2-4.7 5.2-1.4 0-2.6-.4-3.9-1l-.8 2.6c1.6.6 3.3.8 5 .8 4.5 0 6.3-2.7 7.1-6.7l2-9.4c.2-.8.3-1.4.4-1.7h-3.1zm-4.7 8.2c-1.5 0-2.1-1.3-2.1-2.8 0-1.9 1-4.9 3.4-4.9 1.5 0 2.3 1.2 2.3 2.6.1 2.3-1 5.1-3.6 5.1z" id="WL_890_ZH_Pfaeffikersee_Rundweg_svg__path102"/><path id="WL_890_ZH_Pfaeffikersee_Rundweg_svg__polygon104" d="M319.4 361.2v-4.4h-1.6l-1.9 4.4-.2-4.4h-1.1l.3 5.7h1.5l2-4.6.1 4.6h1.4l2.7-5.7h-1.2l-2 4.4z"/><path d="M324.3 358.2c-.5 0-1 .1-1.4.3l-.2.9c.4-.2.9-.3 1.4-.3.4 0 .8.1.8.5v.4h-.4c-1 0-2.6.1-2.6 1.5 0 .8.5 1.2 1.3 1.2.6 0 1-.3 1.4-.7l-.1.6h.9c.1-.8.5-2.5.5-3 0-1.1-.7-1.4-1.6-1.4zm-.8 3.6c-.3 0-.6-.1-.6-.4 0-.7.9-.8 1.4-.8h.4c-.1.6-.3 1.2-1.2 1.2z" id="WL_890_ZH_Pfaeffikersee_Rundweg_svg__path106"/><path d="M329.6 358.2c-.5 0-.9.2-1.2.5l.1-.4h-1.1c0 .1-.1.4-.1.6l-.8 3.6h1.1l.5-2.1c.1-.6.4-1.3 1.2-1.3.4 0 .6.2.6.6 0 .3-.1.6-.1.9l-.4 2h1.1l.4-2c.1-.3.1-.6.1-.9 0-1-.6-1.5-1.4-1.5z" id="WL_890_ZH_Pfaeffikersee_Rundweg_svg__path108"/><path d="m335.6 356.4-.5 2.4c-.3-.4-.8-.6-1.3-.6-1.4 0-2.1 1.4-2.1 2.7 0 .9.5 1.8 1.5 1.8.6 0 1-.3 1.4-.7l-.1.6h1c0-.2.1-.6.2-.9l1.1-5.2h-1.2zm-2.1 5.4c-.5 0-.7-.6-.7-1 0-.6.4-1.7 1.2-1.7.6 0 .8.5.8 1 0 .7-.5 1.7-1.3 1.7z" id="WL_890_ZH_Pfaeffikersee_Rundweg_svg__path110"/><path d="M339 358.2c-1.4 0-2.4 1.3-2.4 2.6s.8 1.8 2 1.8c.5 0 .9-.1 1.3-.2l.1-.9c-.4.2-.8.3-1.3.3-.8 0-1.2-.3-1.2-1.1h3c.1-.3.1-.6.1-.9.1-1.1-.6-1.6-1.6-1.6zm.7 1.8h-1.9c.2-.6.5-1 1.2-1 .5 0 .7.3.7.7v.3z" id="WL_890_ZH_Pfaeffikersee_Rundweg_svg__path112"/><path d="M344.5 358.2h-.4c-.5 0-1 .4-1.2.9l.1-.8h-1c0 .2-.1.4-.1.6l-.8 3.7h1.1l.4-1.9c.1-.7.5-1.4 1.3-1.4.1 0 .3 0 .4.1z" id="WL_890_ZH_Pfaeffikersee_Rundweg_svg__path114"/><path id="WL_890_ZH_Pfaeffikersee_Rundweg_svg__polygon116" d="m345.4 362.5 1.3-6.1h-1.1l-1.3 6.1z"/><path d="M348.9 358.2c-.5 0-1 .1-1.4.3l-.2.9c.4-.2.9-.3 1.4-.3.4 0 .8.1.8.5v.4h-.4c-1 0-2.6.1-2.6 1.5 0 .8.5 1.2 1.3 1.2.6 0 1-.3 1.4-.7l-.1.6h.9c.1-.8.5-2.5.5-3 .1-1.1-.7-1.4-1.6-1.4zm-.7 3.6c-.3 0-.6-.1-.6-.4 0-.7.9-.8 1.4-.8h.4c-.2.6-.4 1.2-1.2 1.2z" id="WL_890_ZH_Pfaeffikersee_Rundweg_svg__path118"/><path d="M354.2 358.2c-.5 0-.9.2-1.2.5l.1-.4H352c0 .1-.1.4-.1.6l-.8 3.6h1.1l.5-2.1c.1-.6.4-1.3 1.2-1.3.4 0 .6.2.6.6 0 .3-.1.6-.1.9l-.4 2h1.1l.4-2c.1-.3.1-.6.1-.9 0-1-.6-1.5-1.4-1.5z" id="WL_890_ZH_Pfaeffikersee_Rundweg_svg__path120"/><path d="M359.7 358.8c-.3-.4-.8-.6-1.3-.6-1.4 0-2.1 1.4-2.1 2.7 0 .9.5 1.8 1.5 1.8.6 0 1-.3 1.4-.7l-.1.6h1c0-.2.1-.6.2-.9l1.1-5.2h-1.1zm-1.6 3c-.5 0-.7-.6-.7-1 0-.6.4-1.7 1.2-1.7.6 0 .8.5.8 1 0 .7-.5 1.7-1.3 1.7z" id="WL_890_ZH_Pfaeffikersee_Rundweg_svg__path122"/><path d="M364.2 358.4c0 1.5 1.9 1.4 1.9 2.4 0 .6-.5.9-1.1.9-.5 0-1-.2-1.4-.4l-.3 1c.5.2 1.1.3 1.6.3 1.3 0 2.4-.5 2.4-1.9 0-1.6-2-1.5-2-2.5 0-.5.5-.7 1-.7.4 0 .9.1 1.2.3l.3-.9c-.5-.2-1-.3-1.5-.3-1.1.1-2.1.6-2.1 1.8z" id="WL_890_ZH_Pfaeffikersee_Rundweg_svg__path124"/><path d="M370.6 359.1c.3 0 .6.1.8.2l.3-.9c-.3-.1-.7-.2-1.1-.2-1.5 0-2.5 1.1-2.5 2.6 0 1.1.7 1.8 1.8 1.8.4 0 .7 0 1.1-.2l.1-.9c-.3.1-.6.2-.9.2-.8 0-.9-.5-.9-1.1 0-.7.5-1.5 1.3-1.5z" id="WL_890_ZH_Pfaeffikersee_Rundweg_svg__path126"/><path d="M374.7 358.2c-.5 0-.9.2-1.2.5l.5-2.3h-1.1l-1.3 6.1h1.1l.5-2.1c.1-.6.4-1.3 1.2-1.3.4 0 .6.2.6.6 0 .3-.1.6-.1.9l-.4 2h1.1l.4-2c.1-.3.1-.6.1-.9 0-1-.6-1.5-1.4-1.5z" id="WL_890_ZH_Pfaeffikersee_Rundweg_svg__path128"/><path id="WL_890_ZH_Pfaeffikersee_Rundweg_svg__polygon130" d="m381.4 361.5-.2-3.2H380l-1.6 3.2-.3-3.2H377l.5 4.2h1.3l1.5-3.2.3 3.2h1.2l2.4-4.2H383l-1.6 3.2z"/><path d="M386.4 358.2c-1.4 0-2.4 1.3-2.4 2.6s.8 1.8 2 1.8c.5 0 .9-.1 1.3-.2l.1-.9c-.4.2-.8.3-1.3.3-.8 0-1.2-.3-1.2-1.1h3c.1-.3.1-.6.1-.9.1-1.1-.6-1.6-1.6-1.6zm.7 1.8h-1.9c.2-.6.5-1 1.2-1 .5 0 .7.3.7.7v.3z" id="WL_890_ZH_Pfaeffikersee_Rundweg_svg__path132"/><path id="WL_890_ZH_Pfaeffikersee_Rundweg_svg__polygon134" d="M389.5 357.5h1.1l.3-1h-1.1z"/><path id="WL_890_ZH_Pfaeffikersee_Rundweg_svg__polygon136" d="m389.6 362.5.9-4.2h-1.1l-.9 4.2z"/><path id="WL_890_ZH_Pfaeffikersee_Rundweg_svg__polygon138" d="m390.6 361.7-.2.8h3.6l.1-.8H392l2.6-2.6.2-.8h-3.3l-.2.8h1.9z"/></g></svg>