<?xml version="1.0" encoding="UTF-8"?><svg id="Logo_WL_AR_22" xmlns="http://www.w3.org/2000/svg" viewBox="0 0 212.6 212.6"><defs><style>.cls-1{fill:#fff;}.cls-2{fill:#e4201f;}.cls-3{fill:#1a1817;}.cls-4{fill:#4aac24;}</style></defs><path class="cls-4" d="M92.27,175.98c0-2.08,.67-3.51,1.81-3.51s1.53,1.43,1.53,3.51-.41,3.48-1.67,3.48c-1.07,0-1.67-1.41-1.67-3.48Zm-47.67,18.36c-1.15,0-1.81,1.43-1.81,3.51s.6,3.48,1.67,3.48c1.27,0,1.67-1.41,1.67-3.48s-.41-3.51-1.53-3.51Zm-27.73-38.17c0,.3,.28,.44,.56,.44,.82,0,1.07-.57,1.25-1.25h-.39c-.53,0-1.42,.09-1.42,.8Zm16.01-2.37c-.68,0-.98,.41-1.19,.99h1.86c.02-.1,.02-.19,.02-.29,0-.45-.24-.71-.7-.71Zm62.85,40.15c-1.22,0-1.93,1.1-1.93,2.82h3.68v-.36c0-1.67-.45-2.46-1.74-2.46Zm-43.75-37.39c.8,0,1.28-.94,1.28-1.71,0-.49-.24-1-.8-1-.79,0-1.16,1.08-1.16,1.71,0,.43,.13,1,.67,1Zm-10.5-.39c0,.3,.28,.44,.56,.44,.82,0,1.07-.57,1.25-1.25h-.39c-.53,0-1.42,.09-1.42,.8Zm-13.62-2.32c-.79,0-1.16,1.08-1.16,1.71,0,.43,.13,1,.67,1,.8,0,1.28-.94,1.28-1.71,0-.49-.24-1-.8-1Zm2.61,40.49c-1.15,0-1.81,1.43-1.81,3.51s.6,3.48,1.67,3.48c1.27,0,1.67-1.41,1.67-3.48s-.41-3.51-1.53-3.51ZM0,0H78.94c-7.37,.77-14.1,2.26-20.6,4.29l-2.82,24.79c7.53-4.24,17.89-8,26.52-8s15.38,4.55,15.38,15.53c0,13.34-18.2,25.89-59.78,55.23l-3.45,18.98H112.94l4.24-20.71h-38.6v-.31c21.02-14.43,48.01-31.07,48.01-58.99,0-19.32-13.54-28.54-28.84-30.8h114.85V54.12c-1.71-20.17-19.28-28.11-36.57-28.11-11.92,0-21.97,1.88-31.54,4.86l-2.82,24.79c7.53-4.24,17.89-8,26.52-8s15.38,4.55,15.38,15.53c0,13.34-18.2,25.89-59.78,55.23l-3.45,18.98h78.76l4.24-20.71h-38.6v-.31c20.17-13.85,45.8-29.72,47.86-55.64V212.6H0V0ZM23.71,154.45c0,.31-.07,.6-.12,.89l-.41,1.99h1.1l.44-2.05c.06-.26,.14-.6,.14-.92,0-.84-.55-1.35-1.38-1.35-.48,0-.89,.23-1.2,.51h-.02l.07-.41h-1.07c-.02,.13-.06,.35-.11,.61l-.78,3.62h1.1l.45-2.12c.14-.63,.42-1.34,1.18-1.34,.35,0,.6,.24,.6,.59Zm-10.47,17.83v-6.75h-4.49v16.66h4.49v-7.52h.05l3.72,7.52h5.23l-5.13-8.86,4.77-7.81h-4.96l-3.63,6.75h-.05Zm5.59-17.93c0,.12,0,.25-.03,.36h-.39c-1.03,0-2.59,.11-2.59,1.5,0,.78,.54,1.21,1.3,1.21,.61,0,.98-.27,1.36-.75h.02l-.11,.65h.93c.1-.79,.52-2.45,.52-3.02,0-.99-.8-1.3-1.64-1.3-.49,0-.97,.09-1.43,.25l-.16,.88c.43-.21,.9-.33,1.39-.33,.39,0,.84,.12,.84,.55Zm17.66,43.69c0-3.77-1.38-6.71-4.65-6.71-1.29,0-2.39,.52-3.29,2.2h-.05c0-.67-.07-1.34-.12-1.91h-4.15c.07,.33,.14,1.12,.14,2.05v15.54h4.3v-4.85c0-.93-.05-1.69-.1-2.22h.05c.88,1.43,1.79,2.1,3.44,2.1,3.1,0,4.44-3.29,4.44-6.21Zm14.13,0c0-3.77-1.38-6.71-4.65-6.71-1.29,0-2.39,.52-3.29,2.2h-.05c0-.67-.07-1.34-.12-1.91h-4.15c.07,.33,.14,1.12,.14,2.05v15.54h4.3v-4.85c0-.93-.05-1.69-.1-2.22h.05c.88,1.43,1.79,2.1,3.44,2.1,3.1,0,4.44-3.29,4.44-6.21Zm-8.95-15.85v-17.9h-4.3v17.9h4.3Zm22.15,15.62c0-3.39-1.84-6.47-5.73-6.47s-5.78,3.03-5.78,6.44c0,3.2,1.46,6.59,6.49,6.56,1.74-.02,3.32-.38,4.34-.72l-.1-2.98c-1.05,.45-2.46,.98-3.63,.98-1.6,0-2.98-.6-3.1-2.6h7.5v-1.22Zm1.6-15.62c-.07-.33-.14-1.12-.14-2.05v-10.38h-4.3v7.19c0,.93-.26,2.05-1.5,2.05-.86,0-1.22-.57-1.22-1.77v-7.47h-4.3v8.71c0,2.75,1.65,4.01,3.77,4.01,2.44,0,3.27-1.69,3.51-2.36h.05c0,.69,.02,1.58,.1,2.08h4.03Zm11.79,13.16c0-2.75-1.65-4.01-3.77-4.01-2.43,0-3.27,1.69-3.51,2.36h-.05c0-.69-.02-1.58-.1-2.08h-4.03c.07,.57,.14,1.6,.14,2.53v9.91h4.3v-6.83c0-1.29,.48-2.41,1.55-2.41,.81,0,1.17,.57,1.17,1.77v7.47h4.3v-8.71Zm-9.55-21.99v8.83h4.3v-6.18c0-1.65,.95-2.86,2.34-2.86,.5,0,1.1,.07,1.29,.14v-3.75c-.26-.05-.41-.07-.72-.07-2.05,0-2.82,1.38-3.17,2.36h-.05c0-.69-.02-1.58-.1-2.08h-4.03c.07,.57,.14,1.84,.14,3.6Zm20.67,27.5h-4.7l4.56-5.78v-3.46h-8.98v3.2h4.49l-4.63,5.63v3.6h9.26v-3.2Zm19.62-14.7h-4.3v17.9h4.3v-17.9Zm66.29,11.39c0,3.77,1.38,6.71,4.65,6.71,1.29,0,2.39-.52,3.29-2.2h.05c0,.67,.07,1.34,.12,2h4.11c-.05-.74-.1-1.46-.1-2.2v-15.71h-4.3v5.06c0,.93,.05,1.69,.1,2.22h-.05c-.88-1.43-1.79-2.1-3.44-2.1-3.1,0-4.44,3.29-4.44,6.21Zm-13.46-5.92c.07,.57,.14,1.6,.14,2.53v9.91h4.3v-6.83c0-1.29,.48-2.41,1.55-2.41,.81,0,1.17,.57,1.17,1.77v7.47h4.3v-8.71c0-2.75-1.65-4.01-3.77-4.01-2.43,0-3.27,1.69-3.51,2.36h-.05c0-.69-.02-1.58-.1-2.08h-4.03Zm-13.56,8.76c0,2.39,1.58,3.96,3.77,3.96,1.5,0,2.48-.62,3.72-2.01,0,.57,.1,1.15,.14,1.72h3.82c-.07-.74-.14-1.74-.14-2.75v-5.37c0-2.55-.86-4.61-5.23-4.61-2.08,0-3.63,.43-4.65,.81l.14,3.08c.91-.57,2.24-1.17,3.58-1.17,1.69,0,2.34,.91,2.34,1.69v.38h-1.1c-4.32,0-6.4,1.48-6.4,4.25Zm-6.44,3.68h4.3v-17.9h-4.3v17.9Zm-10.05-12.44c.07,.57,.14,1.84,.14,3.6v8.83h4.3v-6.18c0-1.65,.95-2.86,2.34-2.86,.5,0,1.1,.07,1.29,.14v-3.75c-.26-.05-.41-.07-.72-.07-2.05,0-2.82,1.38-3.17,2.36h-.05c0-.69-.02-1.58-.1-2.08h-4.03Zm-7.66-.29c-3.75,0-5.78,3.03-5.78,6.44,0,3.2,1.46,6.59,6.49,6.56,1.74-.02,3.32-.38,4.34-.72l-.09-2.98c-1.05,.45-2.46,.98-3.63,.98-1.6,0-2.98-.6-3.1-2.6h7.5v-1.22c0-3.39-1.84-6.47-5.73-6.47Zm-7.4-21.58c.07,.57,.14,1.84,.14,3.6v8.83h4.3v-6.18c0-1.65,.96-2.86,2.34-2.86,.5,0,1.1,.07,1.29,.14v-3.75c-.26-.05-.41-.07-.72-.07-2.05,0-2.82,1.38-3.17,2.36h-.05c0-.69-.02-1.58-.1-2.08h-4.03Zm-.64,16.4h-4.3v17.9h4.3v-17.9Zm-12.91-7.69c0,2.75,1.65,4.01,3.77,4.01,2.43,0,3.27-1.69,3.51-2.36h.05c0,.69,.02,1.58,.1,2.08h4.03c-.07-.33-.14-1.12-.14-2.05v-10.38h-4.3v7.19c0,.93-.26,2.05-1.5,2.05-.86,0-1.22-.57-1.22-1.77v-7.47h-4.3v8.71Zm-.72,19.34c0-3.39-1.84-6.47-5.73-6.47s-5.78,3.03-5.78,6.44c0,3.2,1.46,6.59,6.49,6.56,1.74-.02,3.32-.38,4.34-.72l-.09-2.98c-1.05,.45-2.46,.98-3.63,.98-1.6,0-2.98-.6-3.1-2.6h7.5v-1.22Zm-9.4-28.05h-4.15c.07,.33,.14,1.12,.14,2.05v15.54h4.3v-4.85c0-.93-.05-1.69-.1-2.22h.05c.88,1.43,1.79,2.1,3.44,2.1,3.1,0,4.44-3.29,4.44-6.21,0-3.77-1.38-6.71-4.65-6.71-1.29,0-2.39,.52-3.29,2.2h-.05c0-.67-.07-1.34-.12-1.91Zm-6.83-15.8h1.94l-2.6,2.52-.17,.85h3.53l.16-.85h-2.12l2.58-2.52,.18-.85h-3.32l-.19,.85Zm-1.74-1.62h1.1l.23-1.05h-1.1l-.23,1.05Zm-1.07,4.99h1.1l.9-4.22h-1.1l-.9,4.22Zm-.32,12.14c-3.77,0-5.18,1.89-5.18,4.08,0,1.58,.57,2.79,2.55,3.51l1.31,.48c1.05,.38,1.38,.62,1.38,1.05,0,.57-.6,.88-1.77,.88-1.5,0-2.58-.55-3.25-.88l-.1,3.32c.69,.26,2.43,.57,3.8,.57,3.68,0,5.32-1.5,5.32-4.08,0-2.17-.93-2.91-2.48-3.48l-1.43-.53c-1.03-.38-1.43-.67-1.43-1.1,0-.67,.69-.91,1.53-.91,1.1,0,2.27,.41,3.06,.76l.14-3.1c-.91-.31-2.17-.57-3.46-.57Zm-4.15-13.89c0,1.25,.82,1.85,2.03,1.85,.45,0,.92-.11,1.34-.24l.14-.87c-.41,.19-.84,.3-1.3,.3-.75,0-1.17-.29-1.17-1.07h2.98c.07-.31,.11-.62,.11-.94,0-1.07-.69-1.61-1.73-1.61-1.39,0-2.4,1.26-2.4,2.57Zm-7.01-2.48l.56,4.22h1.25l1.54-3.23h.02l.24,3.23h1.24l2.34-4.22h-1.12l-1.62,3.17h-.02l-.23-3.17h-1.22l-1.55,3.17h-.02l-.3-3.17h-1.1Zm-4.07-1.93l-1.31,6.15h1.1l.45-2.12c.14-.63,.42-1.34,1.18-1.34,.35,0,.6,.24,.6,.59,0,.31-.07,.6-.12,.89l-.41,1.99h1.1l.44-2.05c.06-.26,.14-.6,.14-.92,0-.84-.55-1.35-1.38-1.35-.48,0-.89,.23-1.2,.51h-.02l.52-2.34h-1.1Zm-4.79,4.43c0,1.09,.71,1.82,1.8,1.82,.36,0,.72-.03,1.06-.2l.12-.87c-.29,.14-.62,.21-.89,.21-.75,0-.93-.55-.93-1.1,0-.8,.49-1.62,1.37-1.62,.3,0,.59,.07,.8,.21l.27-.9c-.29-.09-.69-.16-1.1-.16-1.52,0-2.49,1.12-2.49,2.6Zm-4.81,1.5c.52,.19,1.08,.32,1.63,.32,1.25,0,2.35-.51,2.35-1.91,0-1.59-1.95-1.53-1.95-2.45,0-.49,.55-.66,.96-.66s.85,.12,1.19,.29l.27-.94c-.47-.19-.98-.25-1.48-.25-1.1,0-2.13,.53-2.13,1.73,0,1.53,1.95,1.36,1.95,2.39,0,.62-.54,.89-1.09,.89-.49,0-.96-.19-1.4-.39l-.29,.98Zm-7.04-1.43c0,.92,.45,1.75,1.45,1.75,.64,0,1.05-.26,1.38-.72h.02l-.11,.62h1.02c.02-.21,.09-.57,.16-.93l1.14-5.22h-1.1l-.53,2.43c-.34-.39-.76-.6-1.3-.6-1.43,0-2.12,1.4-2.12,2.67Zm-.38,14.08v-3.96l-4.3,1.34v2.63h-2.12v2.91h2.12v6.16c0,2.32,1.62,3.65,3.99,3.65,1.24,0,2.29-.17,2.84-.29l-.12-2.91c-.19,.12-.57,.19-1,.19-.76,0-1.41-.45-1.41-1.5v-5.3h2.41v-2.91h-2.41Zm-4.79-12.43h1.1l.45-2.12c.14-.63,.42-1.34,1.18-1.34,.35,0,.6,.24,.6,.59,0,.31-.07,.6-.12,.89l-.41,1.99h1.1l.44-2.05c.06-.26,.14-.6,.14-.92,0-.84-.55-1.35-1.38-1.35-.48,0-.89,.23-1.2,.51h-.02l.07-.41h-1.07c-.02,.13-.06,.35-.11,.61l-.78,3.62Zm-1.55-2.97c0,.12,0,.25-.03,.36h-.39c-1.03,0-2.59,.11-2.59,1.5,0,.78,.54,1.21,1.3,1.21,.61,0,.98-.27,1.36-.75h.02l-.11,.65h.93c.1-.79,.52-2.45,.52-3.02,0-.99-.8-1.3-1.64-1.3-.49,0-.97,.09-1.43,.25l-.16,.88c.43-.21,.9-.33,1.39-.33,.39,0,.84,.12,.84,.55Zm-3.98-3.18l-1.3,6.15h1.1l1.3-6.15h-1.1Zm-4.49,6.15h1.1l.39-1.89c.14-.68,.52-1.38,1.3-1.38,.14,0,.3,.02,.42,.07l.23-1.07c-.13-.03-.28-.04-.42-.04-.51,0-1.05,.43-1.25,.89h-.02l.15-.79h-1.05c-.03,.2-.07,.38-.1,.57l-.75,3.66Zm-.17,22.81v-10.38h-4.3v7.19c0,.93-.26,2.05-1.5,2.05-.86,0-1.22-.57-1.22-1.77v-7.47h-4.3v8.71c0,2.75,1.65,4.01,3.77,4.01,2.44,0,3.27-1.69,3.51-2.36h.05c0,.69,.02,1.58,.1,2.08h4.03c-.07-.33-.14-1.12-.14-2.05Zm-6.39-23.43l-.11,.62h1.02c.02-.21,.09-.57,.16-.93l1.14-5.22h-1.1l-.53,2.43c-.34-.39-.76-.6-1.3-.6-1.43,0-2.12,1.4-2.12,2.67,0,.92,.45,1.75,1.45,1.75,.64,0,1.05-.26,1.38-.72h.02Zm4.49-3.7c-1.39,0-2.4,1.26-2.4,2.57s.82,1.85,2.03,1.85c.45,0,.92-.11,1.34-.24l.14-.87c-.41,.19-.84,.3-1.3,.3-.75,0-1.17-.29-1.17-1.07h2.98c.07-.31,.11-.62,.11-.94,0-1.07-.69-1.61-1.73-1.61ZM14.69,43.54l33.03,27.71,24.02-28.51L38.71,15.03,14.69,43.54Zm-6.21,108.06l.36,5.72h1.42l2.02-4.58h.02l.06,4.58h1.43l2.73-5.72h-1.19l-2.03,4.39h-.02l-.02-4.39h-1.54l-1.9,4.39h-.02l-.17-4.39h-1.15Zm-1.15,52.46h4.3l1.07-3.53h4.89l.88,3.53h4.63l-5.3-16.66h-4.94l-5.54,16.66Zm73.64-49.55c0-.45-.24-.71-.7-.71-.68,0-.98,.41-1.19,.99h1.86c.02-.1,.02-.19,.02-.29Zm-22.8,39.45c-1.22,0-1.93,1.1-1.93,2.82h3.68v-.36c0-1.67-.45-2.46-1.74-2.46Zm94.36,7.66c1.98,0,2.2-2.01,2.2-3.17v-.41h-.5c-1.91,0-3.17,.6-3.17,2.05,0,1.1,.6,1.53,1.48,1.53ZM15.29,190.79h-.05l-1.79,6.54h3.29l-1.46-6.54Zm165.11,10.45c1.07,0,1.67-1.43,1.67-3.51s-.6-3.48-1.67-3.48c-1.26,0-1.67,1.41-1.67,3.48s.41,3.51,1.67,3.51Zm-59.2-4.46h3.68v-.36c0-1.67-.45-2.46-1.74-2.46-1.22,0-1.93,1.1-1.93,2.82Z"/><path class="cls-1" d="M212.6,54.12v6.63c-2.06,25.92-27.7,41.79-47.86,55.64v.31h38.6l-4.24,20.71H120.33l3.45-18.98c41.58-29.34,59.78-41.89,59.78-55.23,0-10.98-6.9-15.53-15.38-15.53s-18.98,3.77-26.52,8l2.82-24.79c9.57-2.98,19.61-4.86,31.54-4.86,17.29,0,34.85,7.94,36.57,28.11ZM55.52,29.08c7.53-4.24,17.89-8,26.52-8s15.38,4.55,15.38,15.53c0,13.34-18.2,25.89-59.78,55.23l-3.45,18.98H112.94l4.24-20.71h-38.6v-.31c21.02-14.43,48.01-31.07,48.01-58.99,0-19.32-13.54-28.54-28.84-30.8h-18.82c-7.37,.77-14.1,2.26-20.6,4.29l-2.82,24.79Zm-10.7,16.69s.07-.08,.1-.12c-.03,.04-.07,.08-.1,.12Zm-.16,.3s.06-.03,.09-.04c-.03,.01-.06,.02-.09,.03,0,0,0,0,0,0Zm-16.65,2.12s.03-.07,.05-.1c0,.02-.02,.03-.03,.05,0,.02,0,.04-.02,.05Zm17.06-2.69s.04-.04,.06-.06c-.02,.02-.04,.04-.06,.06Zm2.65,25.76L14.69,43.54,38.71,15.03l33.03,27.71-24.02,28.51Zm1.82-34.25l.33,.27c.81-.83,.98-.84,2.24,.21l4.08,3.42c1.26,1.05,1.27,1.23,.56,2.22l.33,.27,2.75-3.28-.33-.27c-.81,.83-.98,.84-2.24-.21l-1.56-1.31,.31-.37c.29-.35,.53-.39,1.01-.3,.89,.17,1.96,.41,2.8,.49,1.03,.09,1.69-.03,2.85-1.22l.43-.47-.26-.3c-.37,.27-.7,.31-1.21,.35-.42,.03-1.09-.02-2.1-.12-.84-.07-2.03-.3-2.51-.38,.44-1.24,.26-2.42-.71-3.24-.69-.58-1.44-.67-2.12-.47-.69,.21-1.29,.74-2.01,1.59l-2.63,3.13Zm-17.83-10.54c.22-.18,.46-.2,.72-.2,.07,0,.91,.08,.98,.08s.23,0,.33,0c.05,0,.46-.26,.46-.41,0-.06-.05-.15-.07-.2-.19-.49-.67-.76-1.02-.76-.67,0-1.41,.74-1.38,1.51Zm-5.86,17.51c.19,.22,.43,.23,.61,.23,.06,0,.95-.18,1.02-.18,.48,0,.54,.31,.75,.31,.13,0,.18,.01,.3-.14,.01-.08,0-.15,.02-.19,.14,.03,.26,.08,.33,.08h.37c.06-.09,.12-.17,.13-.23,.34,.03,.62,.08,.68,.08,.19,0,.33-.12,.38-.31,.19,0,.58,.06,.64,.06,.18,0,.35-.05,.39-.39,.21,.06,.53,.11,.59,.11,.15,0,.18,.01,.4-.12-.03-.07-.05-.08-.05-.15s0-.05,.01-.07c.3-.02,.61-.07,.93-.11,.01-.32,.14-.35,.34-.35,.06,0,.13,.04,.62,.03,.08,0,.16-.05,.25-.09,0-.14,.03-.27,.04-.39,.02-.02,.04-.04,.05-.05,.3,.1,.68-.48,.76-.72,.02-.07,.04-.18,.04-.24s0-.06-.01-.09c-.6-.67-1.11-1.31-1.47-2-.23-.45-.35-.96-.4-1.5h-.27c-.06,0-.38,.15-.55,.22-1.39,.58-2.88,1.55-4.27,2.44-.66,.42-1.39,.93-2.05,1.18-.24,.09-.67,.11-.74,.11-1.25,0-2.22-1.29-3.51-1.81-.17-.07-.48-.15-.55-.15-.03,0-.08,.01-.14,.03,0,0,0,0,0,0-.17-.11-1.09-.46-1.43-.46-.06,0-.25,.05-.4,.1,.45,.25,.99,.61,1.31,1.1-.39-.04-.79-.06-.85-.06-.29,0-.87,.16-1.03,.32,.55,.08,1.11,.22,1.59,.56-.43,.17-1.04,.21-1.38,.74,.41-.11,.42-.09,.7-.09,.23,0,.41-.02,.6,.1-.39,.27-.9,.84-.89,1.23,.35-.27,.79-.5,1.14-.6,.02,.04,.02,.07,.04,.11-.18,.22-.37,.5-.37,.76,0,.06,.03,.22,.04,.31v.02l.7-.63s0,0,0,0c.07,0,.18-.07,.25-.07,.44,0,1.85,.96,2.06,1.07,.25,.12,.55,.26,.8,.31,.1,.02,.28,0,.34,0,.46,0,.63-.05,1.15-.39Zm6.88,6.62c.69-.22,1.42-.3,2.06-.75,.06-.04,.47-.44,.47-.56,0-.06-.03-.16-.01-.23l.91-.39v-.22c0-.06-.08-.17-.13-.24,.15-.26,.3-.06,.45-.17,.21-.14,.41-.32,.6-.44,0-.06-.05-.12-.05-.18,0-.37,1.13-.73,.83-1.13,0-.13,.69-.29,.69-.65,0-.06-.11-.16-.18-.19,.08,0,.21-.04,.3-.09,.24-.15,.46-.38,.65-.53-.08-.1-.13-.16-.13-.22,0-.2,.56-.48,.58-.52,.58-.69,1.17-1.55,1.41-2.26,.1-.3,.09-.45,.09-.68,0-.74-.36-1.17-.36-1.41,0-.06,.07-.14,.08-.18,.23,.48,.59,1.13,.59,1.68s-.81,2.16-1.3,2.44c0,.04-.01,.04-.01,.11,0,.41,.56,.38,.87,.6l3.12,.18c.72,.08,1.45,.14,2.16,.25,.33,.05,.7,.11,1.02,.22,.13,.04,.27,.09,.35,.17,.51,.54,1.38,1.76,2.25,2.64,.2,.2,.53,.6,.59,.6s.19-.05,.22-.09c.05-.06,.05-.15,.09-.17,.27,.13,.36,.43,.55,.66h.34c.03-.2,.06-.35,.09-.48,.07,.12,.56,.8,.8,.79h.38c-.05-.18-.12-.43-.12-.5s0-.05,0-.06c.44,.34,.56,.49,.9,.49,.06,0,.21-.03,.33-.07-.08-.13-.18-.23-.24-.3l.8,.34h.44v-.14c-.11-.08-.2-.07-.28-.19,.04-.04,.04-.08,.1-.08s.56,.31,.62,.3h.38c-.02-.13-.07-.24-.07-.3s.01-.03,.01-.03c.17,0,.22,.03,.24,.03l1.77-.05c.37,0,1.25,.13,1.44,.38-.77,.68-1.99,1.35-2.32,2.31-.04,.1-.1,.24-.13,.34-.04,.15-.12,.44-.12,.51,0,.01,.01,.04,.01,.06-.26,.13-1.02,1.22-1.02,1.52,0,.06,.03,.15,.04,.23,.11-.06,1.08-.87,1.36-.87,.06,0,.02,0,.04,0-.12,.43-.21,.77-.21,1.1,0,.3-.03,.35,.26,.69,.24-.49,.41-1.03,.91-1.41v.04c.06,.51,0,1.2,.64,1.63,.04-.43,.03-.51,.07-.79,.03-.28,.06-.57,.28-.83,.12,0,.23,0,.34-.02-.1,.02-.19,.04-.28,.04,.15,.31,.29,.64,.5,.89,.1,.13,.34,.28,.4,.27h.25c-.06-.33-.17-.64-.17-.95,0-.26-.02-.18,.12-.58-.03,.01-.06,.03-.09,.04,.04-.03,.08-.05,.11-.08,.58,.21,.55,.35,1.02,.35,.14,0,.25-.03,.5-.12-.34-.36-.83-.78-.76-1.13-.03,.03-.05,.06-.08,.09,.07-.14,.14-.27,.2-.39,.57-1.03,1.05-2.18,1.16-3.2,0-.07,.04-.15,.04-.21v-1.02c0-.06-.11-.58-.19-.86-.04-.15-.12-.32-.2-.44-.93-.33-1.85-.53-2.79-.75-.95-.22-2.22-.56-3.21-1.22-1.78-1.19-3.52-3.63-5.28-3.83,.04,0,.09-.1,.16-.1h.33c.06,0,.47,.1,.53,.1,.19,0,.22-.19,.22-.35,0-.22-.27-.24-.52-.42,.21,0,.44-.03,.66-.04-.53-1.19-1.67-1.29-2.43-1.43l-1.39-.08c-.39-.05-.78-.02-1.15-.16-1.27-.48-3.38-1.9-4.89-3.26,.12-.16,.35-.17,.49-.24v-.1c-.13-.19-.38-.29-.5-.36-.05-.03-.13-.12-.17-.12,.16-.05,.37-.16,.56-.22-.07-.33-.55-.7-.79-.69,.03,0,.62-.38,.62-.59v-.17c-.42-.06-.85-.26-1.21-.47,.04,0,.11-.09,.17-.13,.04-.02,.35-.15,.35-.27,0-.06-.03-.1-.04-.13-.36-.19-.71-.4-1.06-.5-.12-.03-.28-.03-.4-.05,.03-.08,.18-.26,.18-.32v-.25c-.25,.03-.55-.05-.75-.19-.72-.51-.92-1.36-1.59-1.91-.15-.12-.37-.15-.52-.23-.21-.1-.52-.22-.74-.22-.09,0-.49,.09-.56,.16v-.02c.3-.59,.49-.91,.49-1.42,0-.06,.01-.27-.04-.39-.18-.45-1-.76-1.34-.76-1.1,0-.85,1.44-2.1,1.44l-1.16-.03c-.18,.03-.39,.05-.53,.14-.48,.29-1.09,1.21-1.44,1.93-.65,1.32-.84,2.91-2.53,3.99,.18,.33,.48,.5,.76,.69,.15,.1,.36,.13,.49,.25,.18,.17,.33,.43,.5,.62,.07-.06,.1-.1,.12-.1,.27,.26,.57,.38,.88,.43-.02-.2-.07-.39-.13-.54-.06-.15-.25-.39-.25-.45s.08-.09,.08-.13c.26,.28,.56,.41,.86,.46-.02-.18-.04-.35-.11-.49-.08-.16-.27-.43-.27-.49s.3-.4,.46-.55c.16-.16,.36-.29,.56-.38,.09-.04,.23-.03,.3-.03,.32,0,.66,.18,.97,.47-.51,.35-1.17,.73-1.6,1.24-.38,.45-.73,1-1.08,1.49-.31,.43-.89,1.24-1.35,1.32-.43,.07-.87,.09-1.3,.15,.24,.67,.64,.89,1.09,.89,.17,0,.44-.06,.59-.14,.21-.11,.45-.26,.65-.41,.37-.3,.77-.75,1.05-1.07,.14-.17,.39-.5,.4-.58,.05,.07,.1,.13,.16,.17l-.05,.05c.12,.11,.19,.16,.34,.21,.17,.05,.47,0,.47,0,1.62-1.98,3.97-3.19,3.97-5.15,0-.28-.08-.4-.17-.79-.21-.85-1.78-1.83-1.78-2.75,0-.06,.05-.33,.11-.48,.16-.38,.77-.96,1.14-.96,.06,0,.07,0,.09,0-.61,.33-.98,.66-.98,1.22,0,1.41,1.86,1.92,1.86,3.54,0,1.72-1.62,3.12-2.46,4.93-.15,.33-.27,1.23-.27,1.66,0,.06-.01,.16,.03,.59,.05,.64,.27,1.33,.6,1.91,.1,.19,.25,.37,.36,.52,.3,.39,.97,1.06,.97,1.13s-.43,1.3-.66,1.93c-.6,1.62-1.34,3.36-2.47,4.96-.09,.13-.25,.17-.35,.25,.05-.2,.12-.36,.19-.56h-1.13c-.47-.06-1.3-.22-1.86-.22-.37,0-.64,.08-1.07,.21,0,0,0,0,0,0-.64-.25-.94-.32-1.45-.32-.18,0-.58,.09-.69,.21,.19,.12,.38,.23,.56,.29,.13,.05,1.06,.41,1.06,.69,0,.06-.69,.12-1.01,.23-.21,.07-.43,.16-.6,.26-.18,.1-.31,.26-.37,.42l1.17-.04c.06,0,.29,0,.42,.03,.12,.02,.28,.03,.31,.14-.46,.29-1.37,.76-1.41,1.37,.44-.13,1.02-.51,1.49-.51,.06,0,.18,.02,.25,.05-.4,.49-.67,.75-.67,1.18,0,.06,.03,.15,.04,.23,.42-.3,.85-.63,1.23-.7,0,0,.02,.02,.03,.02,.02,.01,.05,.03,.07,.04l-.24,.95c.06,.17,.04,.48,.29,.67,.19-.39,.32-.87,.64-1.27,0,0,.02,0,.02,0h.09c.05-.26,.33-.48,.56-.58,.11-.05,.94-.21,1.25-.21h.61c.06,0,.46-.03,.65-.09Zm11.5,8.24c-1.62-2.89-3.86-7.22-3.99-7.53-.63-1.44-.68-1.56-.14-2.38l-.33-.27-2.22,2.64,.33,.27,.33-.32c.49-.46,.72-.45,1.26,.42,.45,.74,2.27,3.93,3.13,5.44-2.41-.81-5.48-1.84-6.4-2.21-.57-.24-.63-.33-.32-.82l.25-.42-.33-.27-2.63,3.13,.33,.27c.62-.59,.84-.72,2.22-.24,1.54,.54,5.33,1.83,8.09,2.8l.42-.5Zm3.29,3.29c.09,.38,.04,.96,.61,1.21,.07-.38,.08-.84,.29-1.18,.09,.28,.46,.85,.8,.84h.09c-.04-.53-.07-.77-.08-1.1,0,0,.02,0,.03-.01,.09-.07,.15-.24,.23-.32,.2-.2,.43-.32,.62-.49,.48-.44,.87-.94,1.27-1.36,.72-.75,1.29-1.52,1.56-2.22,.15-.4,.22-.64,.22-1.01,0-.06,.02-.32-.06-.37-1.63-1.21-3.56-1.92-5.12-3.73-.12-.14-.27-.29-.37-.43-.18-.27-.39-.54-.49-.84-.14-.49-.24-1.12-.24-1.65,0-.48,.09-1.13,.21-1.6,.05-.22,.16-.42,.25-.58,.06-.11,.11-.21,.18-.31,.19-.26,.69-.76,.69-.82,0-.13-.46-.67-.53-.7-.27-.11-.77-.24-.83-.24,0,0-.03,0-.05,0-.33-.15-.87-.32-.93-.32-.03,0-.08,.02-.13,.04l-.61-.02c-.06,0-.74-.01-.99,.17-1.66,1.16-2.92,3.18-2.91,4.64v1.75c.13-.05,.24-.12,.3-.12,.14,0,.18,.16,.18,.25v.73c0,.13,.09,.38,.3,.38,.06,0,.21-.06,.26-.1l.46,1.44c.12-.05,.25-.13,.32-.13,.5,0,.39,1.08,.69,1.08,.06,0,.18-.08,.24-.08,.38,0,.44,.75,.75,.75,.06,0,.26-.19,.37-.28,.06,.18,.44,1.03,.74,1.03,.16,0,.16-.28,.3-.28,.06,0,.03,0,.05,.01,.06,.38,.54,.53,.78,.71,.31,.24,.69,.42,1,.67,.23,.18,.3,.26,.3,.42,0,1.12-2.37,1.91-2.37,2.49,0,0,0,.02,0,.03-.2,.11-.98,.84-.98,1.18v.23c.29-.16,.54-.33,.78-.46,.14-.08,.31-.13,.43-.22v.02c-.3,.52-.52,.75-.52,1.21,0,.06,.05,.22,.09,.35,.41-.36,.71-.75,1.02-.96-.04,.31-.14,.89-.14,.96,0,.24,.09,.36,.19,.6,.02,.03,.07,.06,.11,.06,.18-.45,.19-.88,.62-1.31Zm4.77-26.66l3,2.52,.37-.44c.39-.47,.59-.85,.62-1.35,.02-.78-.4-1.41-.96-1.88-1.21-1.02-2.33-.53-2.96,.22-.47,.56-.44,.62-.07,.93Zm-20.19-1.49c.06,0,.4,.15,.46,.15,.13,0,.7-.81,.82-1.02,.03-.04,.03-.06,.03-.13,0-.05-.06-.22-.14-.36-.44,.42-.87,.9-1.2,1.35h.03Zm-.41,.73c.11,.04,.26,.11,.3,.11,.06,0,.1-.1,.17-.15-.12-.1-.24-.23-.33-.37,0,.02,.02,.05,.02,.06,0,.06-.09,.21-.16,.35Zm1.41-5.95h-.27c-.06,0-.12,.02-.18,.08,.21,.03,.26,.17,.26,.25,0,.17-.1,.36-.31,.36-.18,0-.15-.03-.28-.24,0-.02,0-.07,0-.07-.08,.12-.11,.25-.11,.32s.03,.14,.02,.21v.05l.37,.02c.12,0,.45-.33,.48-.43,.02-.07,.04-.19,.04-.25s-.03-.19,0-.29Zm-2.82,4.44c.2,.21,.46,.38,.64,.37-.07-.25-.2-.49-.33-.71-.1,.08-.23,.22-.31,.34Zm-.57,.67c.16,.24,.41,.34,.64,.38-.05-.25-.18-.52-.35-.71-.12,.11-.2,.22-.28,.33Zm2.17,.24c0,.16,.28,.39,.38,.46,.09-.08,.17-.19,.25-.29-.14-.07-.38-.17-.44-.17h-.2Zm-.52,.7c.08,.15,.16,.41,.34,.42,.06-.09,.16-.19,.22-.29-.15-.04-.32-.14-.39-.14h-.17Zm8.73,14.12l-.33-.27-2.22,2.64,.33,.27,.33-.32c.49-.46,.72-.45,1.26,.42,.45,.74,2.27,3.93,3.13,5.44-2.41-.81-5.48-1.84-6.4-2.21-.57-.24-.63-.33-.32-.82l.25-.42-.33-.27-2.63,3.13,.33,.27c.62-.59,.84-.72,2.22-.24,1.54,.54,5.33,1.83,8.09,2.8l.42-.5c-1.62-2.89-3.86-7.22-3.99-7.53-.63-1.44-.68-1.56-.14-2.38Zm9.77-11.64l-.33-.27,2.63-3.13c.71-.85,1.31-1.38,2.01-1.59,.68-.2,1.44-.1,2.12,.47,.98,.82,1.16,2,.71,3.24,.48,.09,1.68,.32,2.51,.38,1.01,.09,1.68,.14,2.1,.12,.51-.04,.84-.08,1.21-.35l.26,.3-.43,.47c-1.16,1.19-1.82,1.31-2.85,1.22-.85-.08-1.92-.32-2.8-.49-.48-.09-.72-.05-1.01,.3l-.31,.37,1.56,1.31c1.26,1.05,1.43,1.04,2.24,.21l.33,.27-2.75,3.28-.33-.27c.71-.99,.7-1.16-.56-2.22l-4.08-3.42c-1.26-1.06-1.43-1.04-2.24-.21Zm2.43-1.81l3,2.52,.37-.44c.39-.47,.59-.85,.62-1.35,.02-.78-.4-1.41-.96-1.88-1.21-1.02-2.33-.53-2.96,.22-.47,.56-.44,.62-.07,.93Z"/><path class="cls-3" d="M32.43,26.26c-.26,0-.5,.02-.72,.2-.02-.78,.72-1.51,1.38-1.51,.35,0,.83,.27,1.02,.76,.02,.05,.07,.14,.07,.2,0,.15-.41,.4-.46,.41-.1,.02-.26,0-.33,0s-.91-.08-.98-.08Zm2.37,23.59c-.65,.45-1.37,.53-2.06,.75-.2,.06-.59,.09-.65,.09h-.61c-.31,0-1.14,.16-1.25,.21-.23,.1-.51,.32-.56,.58h-.09s-.02,0-.02,0c0,0,.01-.02,.02-.02-.24-.07-.5-.25-.7-.35v.03s-.06-.03-.08-.04c0,0-.02-.02-.03-.02,0,0,.01,0,.02,0-.67-.65-.92-1.33-.92-1.99,0-.26,.05-.62,.17-.89,.01-.03,.03-.07,.05-.1,.1-.18,.25-.35,.38-.54,0,0,0,0,0,0,0,0,0,0,0,0,.43-.13,.7-.21,1.07-.21,.57,0,1.4,.16,1.86,.23h1.13c-.07,.19-.14,.34-.19,.54,.1-.08,.26-.12,.35-.25,1.13-1.59,1.87-3.34,2.47-4.96,.23-.64,.66-1.87,.66-1.93s-.67-.74-.97-1.13c-.11-.15-.26-.33-.36-.52-.33-.59-.55-1.28-.6-1.91-.04-.43-.03-.53-.03-.59,0-.43,.12-1.33,.27-1.66,.84-1.81,2.46-3.2,2.46-4.93,0-1.62-1.86-2.13-1.86-3.54,0-.57,.37-.89,.98-1.22-.02,0-.03,0-.09,0-.37,0-.98,.58-1.14,.96-.06,.14-.11,.41-.11,.48,0,.92,1.57,1.89,1.78,2.75,.09,.39,.17,.51,.17,.79,0,1.96-2.35,3.17-3.97,5.15,0,0-.29,.06-.47,0-.15-.04-.23-.1-.34-.21l.05-.05c-.06-.04-.11-.1-.16-.17,0,0,0,0,0,0,0-.06-.16-.32-.24-.47h.39c.06,0,.07,0,.12,.03,0,0,0,0,0-.01,.11,.04,.26,.11,.3,.11,.06,0,.1-.1,.17-.15-.12-.1-.24-.23-.33-.37-.03-.08-.09-.2-.14-.3h.38s0,0,.01-.01h.03c.06,0,.4,.15,.46,.15,.13,0,.7-.81,.82-1.02,.03-.04,.03-.06,.03-.13,0-.05-.06-.22-.14-.36,0,0,0,0,.01-.01-.05-.12-.19-.26-.31-.34,0,0,0,0,0,0-.31-.29-.65-.47-.97-.47-.06,0-.21-.01-.3,.03-.2,.09-.4,.22-.56,.38-.15,.15-.46,.49-.46,.55s.19,.33,.27,.49c.07,.14,.09,.32,.11,.49-.31-.04-.6-.17-.86-.46,0,.04-.08,.06-.08,.13s.18,.3,.25,.45c.06,.15,.11,.34,.13,.54-.31-.05-.6-.17-.88-.43-.02,0-.05,.05-.12,.1-.17-.19-.32-.45-.5-.62-.13-.12-.34-.15-.49-.25-.28-.19-.57-.36-.76-.69,1.69-1.08,1.88-2.67,2.53-3.99,.35-.72,.96-1.64,1.44-1.93,.14-.08,.34-.11,.53-.14l1.16,.03c1.24,0,.99-1.44,2.1-1.44,.34,0,1.16,.31,1.34,.76,.05,.12,.04,.33,.04,.39,0,.51-.19,.83-.49,1.42v.02c.07-.06,.47-.16,.56-.16,.22,0,.54,.12,.74,.22,.15,.07,.37,.1,.52,.23,.67,.55,.88,1.4,1.59,1.91,.2,.14,.5,.22,.75,.19v.25c0,.06-.15,.24-.18,.32,.11,.01,.27,.01,.4,.05,.34,.09,.7,.3,1.06,.5,.01,.03,.04,.06,.04,.13,0,.13-.31,.25-.35,.27-.06,.03-.13,.12-.17,.13,.35,.21,.78,.41,1.21,.47v.17c0,.2-.59,.59-.62,.59,.24,0,.72,.36,.79,.69-.2,.06-.4,.17-.56,.22,.04,0,.11,.09,.17,.12,.12,.07,.37,.17,.5,.36v.1c-.14,.07-.37,.08-.49,.24,1.51,1.36,3.62,2.78,4.89,3.26,.37,.14,.77,.11,1.15,.16l1.39,.08c.77,.14,1.9,.24,2.43,1.43-.23,.01-.45,.04-.66,.04,.25,.18,.52,.2,.52,.42,0,.15-.03,.35-.22,.35-.06,0-.47-.1-.53-.1h-.33c-.06,0-.12,.1-.16,.1,1.76,.2,3.5,2.64,5.28,3.83,.99,.66,2.26,1,3.21,1.22,.93,.22,1.85,.42,2.79,.75,.08,.13,.16,.29,.2,.44,.08,.28,.19,.79,.19,.86v1.02c0,.06-.04,.14-.04,.21-.11,1.02-.59,2.17-1.16,3.2-.06,.12-.13,.25-.2,.39-.19,.21-.4,.53-.7,.81,0,0,.01,0,.02,0-.04,.03-.08,.06-.11,.08-.25,.11-.5,.23-.73,.29-.11,.01-.22,.02-.34,.02,0,0,0,0,0,0l-.46-.02c-.31,0-1.04-.17-1.25-.29-.36-.2-.57-.66-.64-1.02,0,0-.02,.01-.02,.02,0-.02-.01-.04-.01-.06,0-.06,.08-.36,.12-.51,.03-.1,.09-.23,.13-.34,.33-.96,1.56-1.63,2.32-2.31-.19-.25-1.07-.38-1.44-.38l-1.77,.05s-.08-.03-.24-.03c0,0-.01-.03-.01,.03s.05,.17,.07,.3h-.38c-.06,0-.56-.3-.62-.3s-.06,.04-.1,.08c.07,.12,.17,.11,.28,.19v.14h-.44l-.8-.34c.06,.07,.16,.17,.24,.3-.12,.04-.27,.07-.33,.07-.34,0-.46-.15-.9-.49,0,.02,0,0,0,.06s.08,.31,.12,.5h-.38c-.23,0-.72-.67-.8-.79-.03,.14-.06,.29-.09,.48h-.34c-.2-.23-.29-.54-.55-.66-.04,.02-.04,.11-.09,.17-.03,.04-.15,.09-.22,.09s-.4-.4-.59-.6c-.87-.88-1.74-2.11-2.25-2.64-.08-.08-.21-.13-.35-.17-.33-.11-.69-.17-1.02-.22-.71-.1-1.44-.17-2.16-.25l-3.12-.18c-.3-.22-.87-.19-.87-.6,0-.06,0-.07,.01-.11,.49-.28,1.3-1.91,1.3-2.44s-.36-1.2-.59-1.68c0,.04-.08,.12-.08,.18,0,.24,.36,.67,.36,1.41,0,.23,.01,.38-.09,.68-.24,.71-.83,1.57-1.41,2.26-.03,.04-.58,.32-.58,.52,0,.06,.04,.12,.13,.22-.19,.15-.41,.38-.65,.53-.09,.05-.21,.09-.3,.09,.07,.03,.18,.12,.18,.19,0,.36-.69,.51-.69,.65,.3,.4-.83,.75-.83,1.13,0,.06,.05,.12,.05,.18-.19,.11-.39,.29-.6,.44-.15,.11-.3-.09-.45,.17,.05,.06,.13,.17,.13,.24v.22l-.91,.39c-.02,.07,.01,.16,.01,.23,0,.12-.41,.52-.47,.56Zm-4.8-16.31c-.12,.11-.2,.22-.28,.33,.16,.24,.41,.34,.64,.38-.05-.25-.18-.52-.35-.71Zm.59-.67c-.1,.08-.23,.22-.31,.34,.2,.21,.46,.38,.64,.37-.07-.25-.2-.49-.33-.71Zm2.52-3.82c0-.06-.03-.19,0-.29h-.27c-.06,0-.12,.02-.18,.08,.21,.03,.26,.17,.26,.25,0,.17-.1,.36-.31,.36-.18,0-.15-.03-.28-.24,0-.02,0-.07,0-.07-.08,.12-.11,.25-.11,.32s.03,.14,.02,.21v.05l.37,.02c.12,0,.45-.33,.48-.43,.02-.07,.04-.19,.04-.25Zm.09-1.37c-.73,.22-1.75,1.07-2.05,1.81-.05,.13-.13,.33-.15,.4-.02,.07-.01,.11,.03,.15,.12,.11,.21,0,.21,0,.22-.41,.84-1.16,1.32-1.67,.18-.19,.63-.45,.64-.69Zm-1.28,7.26c-.15-.04-.32-.14-.39-.14h-.17c.08,.17,.16,.42,.34,.43,.06-.09,.16-.19,.22-.29Zm.59-.66c-.14-.07-.38-.17-.44-.17h-.2c0,.16,.28,.39,.38,.46,.09-.08,.17-.19,.25-.29Zm-5.04,9.75c.48,0,.54,.31,.75,.31,.13,0,.18,.01,.3-.14,.01-.08,0-.15,.02-.19,.14,.03,.26,.08,.33,.08h.37c.06-.09,.12-.17,.13-.23,.34,.03,.62,.08,.68,.08,.19,0,.33-.12,.38-.31,.19,0,.58,.06,.64,.06,.18,0,.35-.05,.39-.39,.21,.06,.53,.11,.59,.11,.15,0,.18,.01,.4-.12-.03-.07-.05-.08-.05-.15s0-.05,.01-.07c.3-.02,.61-.07,.93-.11,.01-.32,.14-.35,.34-.35,.06,0,.13,.04,.62,.03,.08,0,.16-.05,.25-.09,0-.14,.03-.27,.04-.39,.02-.02,.04-.04,.05-.05,.3,.1,.68-.48,.76-.72,.02-.07,.04-.18,.04-.24s0-.06-.01-.09c-.6-.67-1.11-1.31-1.47-2-.23-.45-.35-.96-.4-1.5h-.27c-.06,0-.38,.15-.55,.22-1.39,.58-2.88,1.55-4.27,2.44-.66,.42-1.39,.93-2.05,1.18-.24,.09-.67,.11-.74,.11-1.25,0-2.22-1.29-3.51-1.81-.17-.07-.48-.15-.55-.15-.03,0-.08,.01-.14,.03-.06,.04-.12,.04-.14,.08-.38,.79-.62,1.28-.62,2.05,0,.22,.05,.47,.15,.78,0,0,0,0,0,0,.02,.04,.02,.07,.04,.11,0,0,.01-.02,.02-.02,.07,.13,.2,.39,.36,.48,.07,0,.18-.07,.25-.07,.44,0,1.85,.96,2.06,1.07,.25,.12,.55,.26,.8,.31,.1,.02,.28,0,.34,0,.46,0,.63-.05,1.15-.39,.19,.22,.43,.23,.61,.23,.06,0,.95-.18,1.02-.18Zm18.62,16.83c.52,.97,1.23,1.14,1.94,1.14,.06,0,.63-.04,.94-.06,.08,0,.17-.04,.27-.06,0,0,0,.01,0,.02,0,0,.02,0,.03-.01,.09-.07,.15-.24,.23-.32,.2-.2,.43-.32,.62-.49,.48-.44,.87-.94,1.27-1.36,.72-.75,1.29-1.52,1.56-2.22,.15-.4,.22-.64,.22-1.01,0-.06,.02-.32-.06-.37-1.63-1.21-3.56-1.92-5.12-3.73-.12-.14-.27-.29-.37-.43-.18-.27-.39-.54-.49-.84-.14-.49-.24-1.12-.24-1.65,0-.48,.09-1.13,.21-1.6,.05-.22,.16-.42,.25-.58,.06-.11,.11-.21,.18-.31,.19-.26,.69-.76,.69-.82,0-.13-.46-.67-.53-.7-.27-.11-.77-.24-.83-.24,0,0-.03,0-.05,0-.11,.02-.41,.1-.55,.15-.51,.18-1.02,.47-1.52,.68-.03,.01-.06,.03-.09,.04,0,0,0,0,0,0,.03-.1,.09-.2,.15-.29,.03-.04,.07-.08,.1-.12,.05-.05,.09-.11,.15-.16,.02-.02,.04-.04,.06-.06,.21-.19,.45-.36,.66-.51h-.03s-.61-.02-.61-.02c-.06,0-.74-.01-.99,.17-1.66,1.16-2.92,3.18-2.91,4.64v1.75c.13-.05,.24-.12,.3-.12,.14,0,.18,.16,.18,.25v.73c0,.13,.09,.38,.3,.38,.06,0,.21-.06,.26-.1l.46,1.44c.12-.05,.25-.13,.32-.13,.5,0,.39,1.08,.69,1.08,.06,0,.18-.08,.24-.08,.38,0,.44,.75,.75,.75,.06,0,.26-.19,.37-.28,.06,.18,.44,1.03,.74,1.03,.16,0,.16-.28,.3-.28,.06,0,.03,0,.05,.01,.06,.38,.54,.53,.78,.71,.31,.24,.69,.42,1,.67,.23,.18,.3,.26,.3,.42,0,1.12-2.37,1.91-2.37,2.49,0,0,0,.02,0,.03,0,0,.02-.02,.03-.02,.04,.15,.08,.3,.15,.42ZM8.75,165.53v16.66h4.49v-7.52h.05l3.72,7.52h5.23l-5.13-8.86,4.77-7.81h-4.96l-3.63,6.75h-.05v-6.75h-4.49Zm26.04,4.22v10.38c0,.93,.07,1.72,.14,2.05h-4.03c-.07-.5-.1-1.38-.1-2.08h-.05c-.24,.67-1.07,2.36-3.51,2.36-2.12,0-3.77-1.27-3.77-4.01v-8.71h4.3v7.47c0,1.19,.36,1.77,1.22,1.77,1.24,0,1.5-1.12,1.5-2.05v-7.19h4.3Zm6.87,12.44h-4.3v-17.9h4.3v17.9Zm8.12-16.4v3.96h2.41v2.91h-2.41v5.3c0,1.05,.64,1.5,1.41,1.5,.43,0,.81-.07,1-.19l.12,2.91c-.55,.12-1.6,.29-2.84,.29-2.36,0-3.99-1.34-3.99-3.65v-6.16h-2.12v-2.91h2.12v-2.63l4.3-1.34Zm15.49,14.35c0,.93,.07,1.72,.14,2.05h-4.03c-.07-.5-.1-1.38-.1-2.08h-.05c-.24,.67-1.07,2.36-3.51,2.36-2.12,0-3.77-1.27-3.77-4.01v-8.71h4.3v7.47c0,1.19,.36,1.77,1.22,1.77,1.24,0,1.5-1.12,1.5-2.05v-7.19h4.3v10.38Zm2.39,2.05v-8.83c0-1.77-.07-3.03-.14-3.6h4.03c.07,.5,.1,1.38,.1,2.08h.05c.36-.98,1.12-2.36,3.17-2.36,.31,0,.45,.02,.72,.07v3.75c-.19-.07-.79-.14-1.29-.14-1.38,0-2.34,1.22-2.34,2.86v6.18h-4.3Zm14.37-12.72c1.29,0,2.55,.26,3.46,.57l-.14,3.1c-.79-.36-1.96-.76-3.06-.76-.83,0-1.53,.24-1.53,.91,0,.43,.41,.72,1.43,1.1l1.43,.53c1.55,.57,2.48,1.31,2.48,3.48,0,2.58-1.65,4.08-5.32,4.08-1.36,0-3.1-.31-3.8-.57l.1-3.32c.67,.33,1.74,.88,3.25,.88,1.17,0,1.77-.31,1.77-.88,0-.43-.33-.67-1.38-1.05l-1.31-.48c-1.98-.72-2.55-1.93-2.55-3.51,0-2.2,1.41-4.08,5.18-4.08Zm5.94,2.34v15.54h4.3v-4.85c0-.93-.05-1.69-.1-2.22h.05c.88,1.43,1.79,2.1,3.44,2.1,3.1,0,4.44-3.29,4.44-6.21,0-3.77-1.38-6.71-4.65-6.71-1.29,0-2.39,.52-3.29,2.2h-.05c0-.67-.07-1.34-.12-1.91h-4.15c.07,.33,.14,1.12,.14,2.05Zm6.11,.67c1.12,0,1.53,1.43,1.53,3.51s-.41,3.48-1.67,3.48c-1.07,0-1.67-1.41-1.67-3.48s.67-3.51,1.81-3.51Zm8.02,5.99v-8.71h4.3v7.47c0,1.19,.36,1.77,1.22,1.77,1.24,0,1.5-1.12,1.5-2.05v-7.19h4.3v10.38c0,.93,.07,1.72,.14,2.05h-4.03c-.07-.5-.1-1.38-.1-2.08h-.05c-.24,.67-1.07,2.36-3.51,2.36-2.12,0-3.77-1.27-3.77-4.01Zm13.7-5.11c0-1.77-.07-3.03-.14-3.6h4.03c.07,.5,.1,1.38,.1,2.08h.05c.36-.98,1.12-2.36,3.17-2.36,.31,0,.45,.02,.72,.07v3.75c-.19-.07-.79-.14-1.29-.14-1.38,0-2.34,1.22-2.34,2.86v6.18h-4.3v-8.83ZM12.69,200.52h4.89l.88,3.53h4.63l-5.3-16.66h-4.94l-5.54,16.66h4.3l1.07-3.53Zm2.55-9.74h.05l1.46,6.54h-3.29l1.79-6.54Zm16.59,.55c-1.29,0-2.39,.52-3.29,2.2h-.05c0-.67-.07-1.34-.12-1.91h-4.15c.07,.33,.14,1.12,.14,2.05v15.54h4.3v-4.85c0-.93-.05-1.69-.1-2.22h.05c.88,1.43,1.79,2.1,3.44,2.1,3.1,0,4.44-3.29,4.44-6.21,0-3.77-1.38-6.71-4.65-6.71Zm-1.5,10c-1.07,0-1.67-1.41-1.67-3.48s.67-3.51,1.81-3.51,1.53,1.43,1.53,3.51-.41,3.48-1.67,3.48Zm15.63-10c-1.29,0-2.39,.52-3.29,2.2h-.05c0-.67-.07-1.34-.12-1.91h-4.15c.07,.33,.14,1.12,.14,2.05v15.54h4.3v-4.85c0-.93-.05-1.69-.1-2.22h.05c.88,1.43,1.79,2.1,3.44,2.1,3.1,0,4.44-3.29,4.44-6.21,0-3.77-1.38-6.71-4.65-6.71Zm-1.5,10c-1.07,0-1.67-1.41-1.67-3.48s.67-3.51,1.81-3.51,1.53,1.43,1.53,3.51-.41,3.48-1.67,3.48Zm13.63-10c-3.75,0-5.78,3.03-5.78,6.44,0,3.2,1.46,6.59,6.49,6.56,1.74-.02,3.32-.38,4.34-.72l-.1-2.98c-1.05,.45-2.46,.98-3.63,.98-1.6,0-2.98-.6-3.1-2.6h7.5v-1.22c0-3.39-1.84-6.47-5.73-6.47Zm1.81,5.44h-3.68c0-1.72,.72-2.82,1.93-2.82,1.29,0,1.74,.79,1.74,2.46v.36Zm17.31-1.43v8.71h-4.3v-7.47c0-1.19-.36-1.77-1.17-1.77-1.07,0-1.55,1.12-1.55,2.41v6.83h-4.3v-9.91c0-.93-.07-1.96-.14-2.53h4.03c.07,.5,.1,1.38,.1,2.08h.05c.24-.67,1.07-2.36,3.51-2.36,2.12,0,3.77,1.27,3.77,4.01Zm6.42,5.51h4.7v3.2h-9.26v-3.6l4.63-5.63h-4.49v-3.2h8.98v3.46l-4.56,5.78Zm12.03-9.52c-3.75,0-5.78,3.03-5.78,6.44,0,3.2,1.46,6.59,6.49,6.56,1.74-.02,3.32-.38,4.34-.72l-.09-2.98c-1.05,.45-2.46,.98-3.63,.98-1.6,0-2.98-.6-3.1-2.6h7.5v-1.22c0-3.39-1.84-6.47-5.73-6.47Zm1.81,5.44h-3.68c0-1.72,.72-2.82,1.93-2.82,1.29,0,1.74,.79,1.74,2.46v.36Zm6.18-10.62h4.3v17.9h-4.3v-17.9Zm7.07,0h4.3v17.9h-4.3v-17.9Zm6.56,11.62c0,3.2,1.46,6.59,6.49,6.56,1.74-.02,3.32-.38,4.34-.72l-.09-2.98c-1.05,.45-2.46,.98-3.63,.98-1.6,0-2.98-.6-3.1-2.6h7.5v-1.22c0-3.39-1.84-6.47-5.73-6.47s-5.78,3.03-5.78,6.44Zm7.59-1.36v.36h-3.68c0-1.72,.72-2.82,1.93-2.82,1.29,0,1.74,.79,1.74,2.46Zm5.99-1.19c0-1.77-.07-3.03-.14-3.6h4.03c.07,.5,.1,1.38,.1,2.08h.05c.36-.98,1.12-2.36,3.17-2.36,.31,0,.45,.02,.72,.07v3.75c-.19-.07-.79-.14-1.29-.14-1.38,0-2.34,1.22-2.34,2.86v6.18h-4.3v-8.83Zm14.2,8.83h-4.3v-17.9h4.3v17.9Zm5.92,.29c1.5,0,2.48-.62,3.72-2.01,0,.57,.1,1.15,.14,1.72h3.82c-.07-.74-.14-1.74-.14-2.75v-5.37c0-2.55-.86-4.61-5.23-4.61-2.08,0-3.63,.43-4.65,.81l.14,3.08c.91-.57,2.24-1.17,3.58-1.17,1.69,0,2.34,.91,2.34,1.69v.38h-1.1c-4.32,0-6.4,1.48-6.4,4.25,0,2.39,1.58,3.96,3.77,3.96Zm3.22-6.3h.5v.41c0,1.17-.21,3.17-2.2,3.17-.88,0-1.48-.43-1.48-1.53,0-1.46,1.26-2.05,3.17-2.05Zm6.71-3.89c0-.93-.07-1.96-.14-2.53h4.03c.07,.5,.1,1.38,.1,2.08h.05c.24-.67,1.07-2.36,3.51-2.36,2.12,0,3.77,1.27,3.77,4.01v8.71h-4.3v-7.47c0-1.19-.36-1.77-1.17-1.77-1.07,0-1.55,1.12-1.55,2.41v6.83h-4.3v-9.91Zm17.97,10.1c1.29,0,2.39-.52,3.29-2.2h.05c0,.67,.07,1.34,.12,2h4.11c-.05-.74-.1-1.46-.1-2.2v-15.71h-4.3v5.06c0,.93,.05,1.69,.1,2.22h-.05c-.88-1.43-1.79-2.1-3.44-2.1-3.1,0-4.44,3.29-4.44,6.21,0,3.77,1.38,6.71,4.65,6.71Zm1.5-10c1.07,0,1.67,1.41,1.67,3.48s-.6,3.51-1.67,3.51c-1.26,0-1.67-1.43-1.67-3.51s.41-3.48,1.67-3.48ZM8.84,157.32l-.36-5.72h1.15l.17,4.39h.02l1.9-4.39h1.54l.02,4.39h.02l2.03-4.39h1.19l-2.73,5.72h-1.43l-.06-4.58h-.02l-2.02,4.58h-1.42Zm9.58-2.61c-1.03,0-2.59,.11-2.59,1.5,0,.78,.54,1.21,1.3,1.21,.61,0,.98-.27,1.36-.75h.02l-.11,.65h.93c.1-.79,.52-2.45,.52-3.02,0-.99-.8-1.3-1.64-1.3-.49,0-.97,.09-1.43,.25l-.16,.88c.43-.21,.9-.33,1.39-.33,.39,0,.84,.12,.84,.55,0,.12,0,.25-.03,.36h-.39Zm-.98,1.9c-.28,0-.56-.15-.56-.44,0-.71,.89-.8,1.42-.8h.39c-.17,.68-.43,1.25-1.25,1.25Zm6.16-1.29c.06-.29,.12-.57,.12-.89,0-.35-.25-.59-.6-.59-.76,0-1.04,.71-1.18,1.34l-.45,2.12h-1.1l.78-3.62c.05-.25,.09-.48,.11-.61h1.07l-.07,.41h.02c.3-.28,.72-.51,1.2-.51,.83,0,1.38,.52,1.38,1.35,0,.32-.08,.66-.14,.92l-.44,2.05h-1.1l.41-1.99Zm5.73,1.99c.02-.21,.09-.57,.16-.93l1.14-5.22h-1.1l-.53,2.43c-.34-.39-.76-.6-1.3-.6-1.43,0-2.12,1.4-2.12,2.67,0,.92,.45,1.75,1.45,1.75,.64,0,1.05-.26,1.38-.72h.02l-.11,.62h1.02Zm-1.94-.75c-.54,0-.67-.57-.67-1,0-.63,.37-1.71,1.16-1.71,.56,0,.8,.51,.8,1,0,.78-.48,1.71-1.28,1.71Zm5.52-3.57c-1.39,0-2.4,1.26-2.4,2.57s.82,1.85,2.03,1.85c.45,0,.92-.11,1.34-.24l.14-.87c-.41,.19-.84,.3-1.3,.3-.75,0-1.17-.29-1.17-1.07h2.98c.07-.31,.11-.62,.11-.94,0-1.07-.69-1.61-1.73-1.61Zm.66,1.8h-1.86c.21-.58,.51-.99,1.19-.99,.46,0,.7,.25,.7,.71,0,.1,0,.19-.02,.29Zm2.51,2.53h-1.1l.75-3.66c.03-.18,.07-.37,.1-.57h1.05l-.15,.79h.02c.2-.46,.74-.89,1.25-.89,.14,0,.29,0,.42,.04l-.23,1.07c-.12-.04-.28-.07-.42-.07-.78,0-1.16,.7-1.3,1.38l-.39,1.89Zm2.09,0l1.3-6.15h1.1l-1.3,6.15h-1.1Zm4.87-2.61c-1.03,0-2.59,.11-2.59,1.5,0,.78,.54,1.21,1.3,1.21,.61,0,.98-.27,1.36-.75h.02l-.11,.65h.93c.1-.79,.52-2.45,.52-3.02,0-.99-.8-1.3-1.64-1.3-.49,0-.97,.09-1.43,.25l-.16,.88c.43-.21,.9-.33,1.39-.33,.39,0,.84,.12,.84,.55,0,.12,0,.25-.03,.36h-.39Zm-.98,1.9c-.28,0-.56-.15-.56-.44,0-.71,.89-.8,1.42-.8h.39c-.17,.68-.43,1.25-1.25,1.25Zm4.05,.71h-1.1l.78-3.62c.05-.25,.09-.48,.11-.61h1.07l-.07,.41h.02c.3-.28,.72-.51,1.2-.51,.83,0,1.38,.52,1.38,1.35,0,.32-.08,.66-.14,.92l-.44,2.05h-1.1l.41-1.99c.06-.29,.12-.57,.12-.89,0-.35-.25-.59-.6-.59-.76,0-1.04,.71-1.18,1.34l-.45,2.12Zm5.53,.1c.64,0,1.05-.26,1.38-.72h.02l-.11,.62h1.02c.02-.21,.09-.57,.16-.93l1.14-5.22h-1.1l-.53,2.43c-.34-.39-.76-.6-1.3-.6-1.43,0-2.12,1.4-2.12,2.67,0,.92,.45,1.75,1.45,1.75Zm.85-3.57c.56,0,.8,.51,.8,1,0,.78-.48,1.71-1.28,1.71-.54,0-.67-.57-.67-1,0-.63,.37-1.71,1.16-1.71Zm6.36,3.57c-.55,0-1.12-.13-1.63-.32l.29-.98c.44,.21,.91,.39,1.4,.39,.55,0,1.09-.28,1.09-.89,0-1.03-1.95-.87-1.95-2.39,0-1.21,1.03-1.73,2.13-1.73,.5,0,1.02,.07,1.48,.25l-.27,.94c-.34-.17-.77-.29-1.19-.29s-.96,.16-.96,.66c0,.92,1.95,.86,1.95,2.45,0,1.4-1.1,1.91-2.35,1.91Zm3.18-1.82c0-1.48,.98-2.6,2.49-2.6,.41,0,.8,.07,1.1,.16l-.27,.9c-.21-.14-.5-.21-.8-.21-.88,0-1.37,.82-1.37,1.62,0,.55,.18,1.1,.93,1.1,.27,0,.61-.07,.89-.21l-.12,.87c-.34,.16-.7,.2-1.06,.2-1.09,0-1.8-.73-1.8-1.82Zm3.48,1.72l1.31-6.15h1.1l-.52,2.34h.02c.3-.28,.72-.51,1.2-.51,.83,0,1.38,.52,1.38,1.35,0,.32-.08,.66-.14,.92l-.44,2.05h-1.1l.41-1.99c.06-.29,.12-.57,.12-.89,0-.35-.25-.59-.6-.59-.76,0-1.04,.71-1.18,1.34l-.45,2.12h-1.1Zm5.94,0l-.56-4.22h1.1l.3,3.17h.02l1.55-3.17h1.22l.23,3.17h.02l1.62-3.17h1.12l-2.34,4.22h-1.24l-.24-3.23h-.02l-1.54,3.23h-1.25Zm8.49,.1c.45,0,.92-.11,1.34-.24l.14-.87c-.41,.19-.84,.3-1.3,.3-.75,0-1.17-.29-1.17-1.07h2.98c.07-.31,.11-.62,.11-.94,0-1.07-.69-1.61-1.73-1.61-1.39,0-2.4,1.26-2.4,2.57s.82,1.85,2.03,1.85Zm.35-3.62c.46,0,.7,.25,.7,.71,0,.1,0,.19-.02,.29h-1.86c.21-.58,.51-.99,1.19-.99Zm4.26-1.48h-1.1l.23-1.05h1.1l-.23,1.05Zm-1.07,4.99h-1.1l.9-4.22h1.1l-.9,4.22Zm3.66-3.37h-1.94l.19-.85h3.32l-.18,.85-2.58,2.52h2.12l-.16,.85h-3.53l.17-.85,2.6-2.52ZM40.24,51.3c.14,.31,2.37,4.65,3.99,7.53l-.42,.5c-2.76-.97-6.55-2.26-8.09-2.8-1.38-.48-1.61-.36-2.22,.24l-.33-.27,2.63-3.13,.33,.27-.25,.42c-.31,.49-.25,.58,.32,.82,.92,.37,3.98,1.4,6.4,2.21-.86-1.51-2.68-4.71-3.13-5.44-.54-.87-.77-.88-1.26-.42l-.33,.32-.33-.27,2.22-2.64,.33,.27c-.53,.82-.49,.94,.14,2.38Zm11.87-13.81l4.08,3.42c1.26,1.05,1.27,1.23,.56,2.22l.33,.27,2.75-3.28-.33-.27c-.81,.83-.98,.84-2.24-.21l-1.56-1.31,.31-.37c.29-.35,.53-.39,1.01-.3,.89,.17,1.96,.41,2.8,.49,1.03,.09,1.69-.03,2.85-1.22l.43-.47-.26-.3c-.37,.27-.7,.31-1.21,.35-.42,.03-1.09-.02-2.1-.12-.84-.07-2.03-.3-2.51-.38,.44-1.24,.26-2.42-.71-3.24-.69-.58-1.44-.67-2.12-.47-.69,.21-1.29,.74-2.01,1.59l-2.63,3.13,.33,.27c.81-.83,.98-.84,2.24,.21Zm.26-2.96c.62-.75,1.75-1.23,2.96-.22,.56,.47,.98,1.1,.96,1.88-.02,.5-.22,.88-.62,1.35l-.37,.44-3-2.52c-.37-.31-.4-.38,.07-.93Z"/><path class="cls-2" d="M33.2,27.68c-.01,.24-.46,.5-.64,.69-.47,.51-1.1,1.26-1.32,1.67,0,0-.09,.11-.21,0-.05-.04-.05-.09-.03-.15,.02-.07,.09-.26,.15-.4,.31-.74,1.32-1.59,2.05-1.81Zm-2.03,7.01h.39c.06,0,.07,0,.12,.03,0,0,0,0,0-.01,.07-.14,.16-.29,.16-.35,0-.01-.02-.04-.02-.06-.03-.08-.09-.2-.14-.3h.38s0,0,.01-.01c.33-.45,.76-.93,1.2-1.35,0,0,0,0,.01-.01-.05-.12-.19-.26-.31-.34,0,0,0,0,0,0-.51,.35-1.17,.73-1.6,1.24-.38,.45-.73,1-1.08,1.49-.31,.43-.89,1.24-1.35,1.32-.43,.07-.87,.09-1.3,.15,.24,.67,.64,.89,1.09,.89,.17,0,.44-.06,.59-.14,.21-.11,.45-.26,.65-.41,.37-.3,.77-.75,1.05-1.07,.14-.17,.39-.5,.4-.58,0,0,0,0,0,0,0-.06-.16-.32-.24-.47Zm-10.48,7c0-.76,.24-1.25,.62-2.05,.02-.04,.08-.04,.14-.08,0,0,0,0,0,0-.17-.11-1.09-.46-1.43-.46-.06,0-.25,.05-.4,.1,.45,.25,.99,.61,1.31,1.1-.39-.04-.79-.06-.85-.06-.29,0-.87,.16-1.03,.32,.55,.08,1.11,.22,1.59,.56-.43,.17-1.04,.21-1.38,.74,.41-.11,.42-.09,.7-.09,.23,0,.41-.02,.6,.1-.39,.27-.9,.84-.89,1.23,.35-.27,.79-.5,1.14-.6,0,0,0,0,0,0-.1-.32-.15-.56-.15-.78Zm.21,.87s-.01,.02-.02,.02c-.18,.22-.37,.5-.37,.76,0,.06,.03,.22,.04,.31v.02l.7-.63s0,0,0,0c-.15-.1-.29-.35-.36-.48Zm24.22,2.87s-.04,.04-.06,.06c-.05,.05-.1,.1-.15,.16-.04,.04-.07,.08-.1,.12-.07,.1-.12,.19-.15,.29,.03,0,.06-.02,.09-.03,.5-.21,1.01-.49,1.52-.68,.15-.05,.44-.13,.55-.15-.33-.15-.87-.32-.93-.32-.03,0-.08,.02-.13,.04h.03c-.21,.15-.45,.32-.66,.51Zm-17.28,3.64c0-.26,.05-.62,.17-.89,0-.02,0-.04,.02-.05,0-.02,.02-.03,.03-.05,.1-.18,.25-.35,.38-.54,0,0,0,0,0,0-.64-.25-.94-.32-1.45-.32-.18,0-.58,.09-.69,.21,.19,.12,.38,.23,.56,.29,.13,.05,1.06,.41,1.06,.69,0,.06-.69,.12-1.01,.23-.21,.07-.43,.16-.6,.26-.18,.1-.31,.26-.37,.42l1.17-.04c.06,0,.29,0,.42,.03,.12,.02,.28,.03,.31,.14-.46,.29-1.37,.76-1.41,1.37,.44-.13,1.02-.51,1.49-.51,.06,0,.18,.02,.25,.05-.4,.49-.67,.75-.67,1.18,0,.06,.03,.15,.04,.23,.42-.3,.85-.63,1.23-.7,0,0,.01,0,.02,0-.67-.65-.92-1.33-.92-1.99Zm1.02,2.03v.03s-.25,.95-.25,.95c.06,.17,.04,.48,.29,.67,.19-.39,.32-.87,.64-1.27,0,0,.01-.02,.02-.02-.24-.07-.5-.25-.7-.35Zm29.94,2.41c-.31,0-1.04-.17-1.25-.29-.36-.2-.57-.66-.64-1.02,0,0-.02,.01-.02,.02-.26,.13-1.02,1.22-1.02,1.52,0,.06,.03,.15,.04,.23,.11-.06,1.08-.87,1.36-.87,.06,0,.02,0,.04,0-.12,.43-.21,.77-.21,1.1,0,.3-.03,.35,.26,.69,.24-.49,.41-1.03,.91-1.41v.04c.06,.51,0,1.2,.64,1.63,.04-.43,.03-.51,.07-.79,.03-.28,.06-.57,.28-.83,0,0,0,0,0,0l-.46-.02Zm1.64-.37c.58,.21,.55,.35,1.02,.35,.14,0,.25-.03,.5-.12-.34-.36-.83-.78-.76-1.13-.03,.03-.05,.06-.08,.09-.19,.21-.4,.53-.7,.81,0,0,.01,0,.02,0Zm-1.12,.41c.15,.31,.29,.64,.5,.89,.1,.13,.34,.28,.4,.27h.25c-.06-.33-.17-.64-.17-.95,0-.26-.02-.18,.12-.58-.03,.01-.06,.03-.09,.04-.25,.11-.5,.23-.73,.29-.1,.02-.19,.04-.28,.04Zm-11.18,9.78c.07-.38,.08-.84,.29-1.18,.09,.28,.46,.85,.8,.84h.09c-.04-.53-.07-.77-.08-1.1,0,0,0-.01,0-.02-.1,.02-.2,.06-.27,.06-.31,.02-.87,.06-.94,.06-.71,0-1.42-.18-1.94-1.14-.06-.12-.11-.28-.15-.42,0,0-.02,.01-.03,.02-.2,.11-.98,.84-.98,1.18v.23c.29-.16,.54-.33,.78-.46,.14-.08,.31-.13,.43-.22v.02c-.3,.52-.52,.75-.52,1.21,0,.06,.05,.22,.09,.35,.41-.36,.71-.75,1.02-.96-.04,.31-.14,.89-.14,.96,0,.24,.09,.36,.19,.6,.02,.03,.07,.06,.11,.06,.18-.45,.19-.88,.62-1.31,.09,.38,.04,.96,.61,1.21Z"/></svg>