<?xml version="1.0" encoding="UTF-8" standalone="no"?>
<!-- Created with Inkscape (http://www.inkscape.org/) -->

<svg
   version="1.1"
   id="svg2"
   width="280.15964mm"
   height="280.15964mm"
   viewBox="0 0 1058.8711 1058.8711"
   xml:space="preserve"
   xmlns="http://www.w3.org/2000/svg"
   xmlns:svg="http://www.w3.org/2000/svg"><defs
     id="defs6" /><g
     id="g8"
     transform="translate(217.32735,187.32735)"><g
       id="g1617"
       transform="matrix(0.31961404,0,0,0.31961404,-147.65663,-127.24505)"
       style="fill:none;stroke:#000000;stroke-opacity:1"><path
         style="fill:none;fill-opacity:1;stroke:#000000;stroke-width:1.93;stroke-linecap:round;stroke-linejoin:round;stroke-opacity:1"
         id="path1982"
         d="M 3094.0189,1468.5 A 1655.5189,1655.5189 0 0 1 1438.7803,3124.0189 1655.5189,1655.5189 0 0 1 -217.01883,1469.0606 1655.5189,1655.5189 0 0 1 1437.659,-187.01871 1655.5189,1655.5189 0 0 1 3094.0185,1467.3787" /><path
         style="fill:none;fill-opacity:1;stroke:#000000;stroke-width:1.93;stroke-linecap:round;stroke-linejoin:round;stroke-opacity:1"
         id="path1301"
         d="M 2128.7982,1468.5 A 690.29816,690.29816 0 0 1 1438.6169,2158.7981 690.29816,690.29816 0 0 1 748.20188,1468.7338 690.29816,690.29816 0 0 1 1438.1493,778.20193 690.29816,690.29816 0 0 1 2128.798,1468.0325" /><path
         style="fill:none;stroke:#000000;stroke-opacity:1"
         d="m 1364,2750 v -5 h -5 -5 v -20 -20 h -5 -5 v -5 -5 h -20 -20 v -5 -5 h -5 -5 v -10 -10 h 5 5 v -5 -5 h 5 5 v -10 -10 h 5 5 v -5 -5 h 25 25 v -5 -5 h 5 5 v -5 -5 h -5 -5 v -5 -5 h -25 -25 v -5 -5 h -5 -5 v -10 -10 h -5 -5 v -5 -5 h -5 -5 v -10 -10 h 10 10 v -5 -5 h 15 15 v -5 -5 h 5 5 v -15 -15 h 5 5 v -10 -10 h 10 10 v 5 5 h 5 5 v 5 5 h 5 5 v 5 5 h 5 5 v 10 10 h 5 5 v 20 20 h 5 5 v 5 5 h 5 5 v -5 -5 h 5 5 v -25 -25 h 5 5 v -5 -5 h 5 5 v -5 -5 h 5 5 v -5 -5 h 5 5 v -5 -5 h 10 10 v 10 10 h 5 5 v 15 15 h 5 5 v 5 5 h 20 20 v 5 5 h 5 5 v 15 15 h -10 -10 v 5 5 h -5 -5 v 5 5 h -10 -10 v 5 5 h -10 -10 v 5 5 h -10 -10 v 5 5 h 10 10 v 5 5 h 15 15 v 5 5 h 5 5 v 5 5 h 5 5 v 5 5 h 5 5 v 5 5 h 5 5 v 10 10 h -10 -10 v 5 5 h -15 -15 v 5 5 h -5 -5 v 20 20 h -5 -5 v 5 5 h -10 -10 v -5 -5 h -5 -5 v -5 -5 h -5 -5 v -5 -5 h -5 -5 v -5 -5 h -5 -5 v -20 -20 h -5 -5 v -5 -5 h -5 -5 v 5 5 h -5 -5 v 20 20 h -5 -5 v 5 5 h -5 -5 v 5 5 h -5 -5 v 5 5 h -5 -5 v 5 5 h -10 -10 z m -380,-30 v -5 h -5 -5 v -5 -5 h -5 -5 v -10 -10 h -5 -5 v -5 -5 h -5 -5 v -5 -5 h -10 -10 v -10 -10 h -5 -5 v -40 -40 h 10 10 v -5 -5 h 5 5 v -5 -5 h 5 5 v -10 -10 h 10 10 v -5 -5 h 5 5 v -5 -5 h -5 -5 v -5 -5 h -20 -20 v 5 5 h -5 -5 v 5 5 h -5 -5 v 5 5 h -10 -10 v 10 10 h -5 -5 v 10 10 h -60 -60 v -5 -5 h -5 -5 v -5 -5 h -5 -5 v -5 -5 h -5 -5 v -5 -5 h -5 -5 v -5 -5 h -5 -5 v -30 -30 h 5 5 v -10 -10 h 5 5 v -5 -5 h 5 5 v -10 -10 h 10 10 v -5 -5 h 20 20 v 5 5 h 5 5 v 5 5 h 5 5 v 5 5 h 5 5 v 20 20 h -5 -5 v 5 5 h -5 -5 v 5 5 h -10 -10 v -10 -10 h 5 5 v -5 -5 h 5 5 v -10 -10 h -15 -15 v -5 -5 h -10 -10 v 5 5 h -5 -5 v 40 40 h 5 5 v 5 5 h 55 55 v -5 -5 h 5 5 v -5 -5 h 5 5 v -5 -5 h 5 5 v -5 -5 h 5 5 v -10 -10 h 15 15 v -5 -5 h 70 70 v 5 5 h 5 5 v 10 10 h 5 5 v -5 -5 h 5 5 v -25 -25 h 5 5 v -15 -15 h 10 10 v -5 -5 h 5 5 v -10 -10 h 15 15 v -5 -5 h 15 15 v -5 -5 h 5 5 v -10 -10 h 45 45 v -5 -5 h 5 5 v -20 -20 h -5 -5 v -5 -5 h -10 -10 v -5 -5 h 5 5 v -5 -5 h 5 5 v 5 5 h 10 10 v 5 5 h 5 5 v 30 30 h -5 -5 v 5 5 h -5 -5 v 10 10 h -15 -15 v 5 5 h -15 -15 v 15 15 h 10 10 v 5 5 h 5 5 v 20 20 h -5 -5 v 10 10 h -15 -15 v 5 5 h -5 -5 v 5 5 h -5 -5 v -10 -10 h 5 5 v -30 -30 h -25 -25 v 45 45 h -5 -5 v 15 15 h -5 -5 v 5 5 h -5 -5 v 10 10 h 10 10 v -10 -10 h 15 15 v 10 10 h 5 5 v 15 15 h 5 5 v 5 5 h 15 15 v 5 5 h 10 10 v 10 10 h -45 -45 v -5 -5 h -5 -5 v -5 -5 h -5 -5 v -5 -5 h -5 -5 v -5 -5 h -5 -5 v -10 -10 h -15 -15 v -5 -5 h -5 -5 v -10 -10 h -60 -60 v 5 5 h -5 -5 v 5 5 h -5 -5 v 5 5 h -5 -5 v 5 5 h -5 -5 v 30 30 h 5 5 v 10 10 h 5 5 v 5 5 h 5 5 v 5 5 h 5 5 v 5 5 h 10 10 v 5 5 h 25 25 v -5 -5 h 5 5 v -5 -5 h 5 5 v -30 -30 h -5 -5 v -5 -5 h -5 -5 v -5 -5 h -10 -10 v 5 5 h -10 -10 v 5 5 h 5 5 v 10 10 h 5 5 v 10 10 h -10 -10 v -5 -5 h -5 -5 v -10 -10 h -10 -10 v -10 -10 h 5 5 v -5 -5 h 5 5 v -15 -15 h 10 10 v -5 -5 h 20 20 v 5 5 h 5 5 v 10 10 h 10 10 v 5 5 h 5 5 v 5 5 h 5 5 v 10 10 h -5 -5 v 20 20 h 5 5 v 5 5 h -5 -5 v 10 10 h -5 -5 v 5 5 h -10 -10 v 5 5 h -10 -10 v 5 5 h -40 -40 z m 829,-2 v -5 h -10 -10 v -5 -5 h -10 -10 v -5 -5 h -5 -5 v -10 -10 h -5 -5 v -5 -5 h 5 5 v -20 -20 h -5 -5 v -10 -10 h 5 5 v -5 -5 h 5 5 v -5 -5 h 10 10 v -10 -10 h 5 5 v -5 -5 h 20 20 v 5 5 h 10 10 v 15 15 h 5 5 v 5 5 h 5 5 v 10 10 h -10 -10 v 10 10 h -5 -5 v 5 5 h -10 -10 v -10 -10 h 5 5 v -10 -10 h 5 5 v -5 -5 h -10 -10 v -5 -5 h -10 -10 v 5 5 h -5 -5 v 5 5 h -5 -5 v 30 30 h 5 5 v 5 5 h 5 5 v 5 5 h 25 25 v -5 -5 h 10 10 v -5 -5 h 5 5 v -5 -5 h 5 5 v -5 -5 h 5 5 v -10 -10 h 5 5 v -30 -30 h -5 -5 v -5 -5 h -5 -5 v -5 -5 h -5 -5 v -5 -5 h -5 -5 v -5 -5 h -60 -60 v 10 10 h -5 -5 v 5 5 h -15 -15 v 10 10 h -5 -5 v 5 5 h -5 -5 v 5 5 h -5 -5 v 5 5 h -5 -5 v 5 5 h -45 -45 v -10 -10 h 10 10 v -5 -5 h 15 15 v -5 -5 h 5 5 v -15 -15 h 5 5 v -10 -10 h 15 15 v 10 10 h 10 10 v -10 -10 h -5 -5 v -5 -5 h -5 -5 v -15 -15 h -5 -5 v -45 -45 h -25 -25 v 30 30 h 5 5 v 10 10 h -5 -5 v -5 -5 h -5 -5 v -5 -5 h -15 -15 v -10 -10 h -5 -5 v -20 -20 h 5 5 v -5 -5 h 10 10 v -15 -15 h -15 -15 v -5 -5 h -15 -15 v -10 -10 h -5 -5 v -5 -5 h -5 -5 v -30 -30 h 5 5 v -5 -5 h 10 10 v -5 -5 h 5 5 v 5 5 h 5 5 v 5 5 h -10 -10 v 5 5 h -5 -5 v 20 20 h 5 5 v 5 5 h 45 45 v 10 10 h 5 5 v 5 5 h 15 15 v 5 5 h 15 15 v 10 10 h 5 5 v 5 5 h 10 10 v 15 15 h 5 5 v 25 25 h 5 5 v 5 5 h 5 5 v -10 -10 h 5 5 v -5 -5 h 70 70 v 5 5 h 15 15 v 10 10 h 5 5 v 5 5 h 5 5 v 5 5 h 5 5 v 5 5 h 5 5 v 5 5 h 55 55 v -5 -5 h 5 5 v -40 -40 h -5 -5 v -5 -5 h -10 -10 v 5 5 h -15 -15 v 10 10 h 5 5 v 5 5 h 5 5 v 10 10 h -10 -10 v -5 -5 h -5 -5 v -5 -5 h -5 -5 v -20 -20 h 5 5 v -5 -5 h 5 5 v -5 -5 h 5 5 v -5 -5 h 20 20 v 5 5 h 10 10 v 10 10 h 5 5 v 5 5 h 5 5 v 10 10 h 5 5 v 30 30 h -5 -5 v 5 5 h -5 -5 v 5 5 h -5 -5 v 5 5 h -5 -5 v 5 5 h -5 -5 v 5 5 h -60 -60 v -10 -10 h -5 -5 v -10 -10 h -10 -10 v -5 -5 h -5 -5 v -5 -5 h -5 -5 v -5 -5 h -20 -20 v 5 5 h -5 -5 v 5 5 h 5 5 v 5 5 h 10 10 v 10 10 h 5 5 v 5 5 h 5 5 v 5 5 h 10 10 v 40 40 h -5 -5 v 10 10 h -10 -10 v 5 5 h -5 -5 v 5 5 h -5 -5 v 10 10 h -5 -5 v 5 5 h -5 -5 v 5 5 h -40 -40 z M 529.69848,2436.3652 C 529.31432,2435.981 529,2431.4913 529,2426.3881 v -9.2785 l -4.75,-0.3048 -4.75,-0.3048 -0.27643,-14.6963 -0.27642,-14.6963 -4.72358,-0.3037 -4.72357,-0.3037 -0.30371,-4.7236 -0.30371,-4.7235 -14.69629,-0.2765 L 479.5,2376.5 l -0.30334,-4.7144 -0.30334,-4.7145 -9.69666,-0.2855 L 459.5,2366.5 v -11 -11 l 4.69736,-0.3026 4.69736,-0.3027 0.30264,-4.6973 0.30264,-4.6974 4.71443,-0.3033 4.71443,-0.3034 0.28557,-9.6966 0.28557,-9.6967 4.69736,-0.3026 4.69736,-0.3027 0.30264,-4.6973 0.30264,-4.6974 24.69592,-0.2674 24.69591,-0.2673 0.30409,-4.7327 0.30408,-4.7326 4.75,-0.3048 c 4.67273,-0.2998 4.75,-0.3599 4.75,-3.6952 0,-3.3353 -0.0773,-3.3954 -4.75,-3.6952 l -4.75,-0.3048 -0.30408,-4.7326 -0.30409,-4.7327 -24.69591,-0.2673 L 489.5,2276.5 l -0.30264,-4.6974 -0.30264,-4.6973 -4.69736,-0.3027 -4.69736,-0.3026 -0.28557,-9.6967 -0.28557,-9.6966 -4.71443,-0.3034 -4.71443,-0.3033 -0.30264,-4.6974 -0.30264,-4.6973 -4.69736,-0.3027 L 459.5,2236.5 v -11 -11 l 4.69736,-0.3026 4.69736,-0.3027 0.30264,-4.6973 0.30264,-4.6974 19.69606,-0.271 19.69607,-0.2709 0.30393,-4.7291 0.30394,-4.729 4.72904,-0.3039 4.72904,-0.304 0.27096,-19.696 0.27096,-19.6961 4.69736,-0.3026 4.69736,-0.3027 0.30264,-4.6973 0.30264,-4.6974 9.85242,-0.2874 C 550.66664,2143.8825 552,2144.4997 552,2150.0677 v 3.8227 l 4.75,0.3048 4.75,0.3048 0.30264,4.6974 0.30264,4.6973 4.69736,0.3027 4.69736,0.3026 0.30264,4.6974 0.30264,4.6973 4.69736,0.3027 4.69736,0.3026 0.30264,4.6974 0.30264,4.6973 4.69736,0.3027 4.69736,0.3026 0.27096,19.6961 0.27096,19.696 4.72904,0.304 4.72904,0.3039 0.30479,4.75 c 0.29983,4.6727 0.35995,4.75 3.69521,4.75 3.33526,0 3.39538,-0.077 3.69521,-4.75 l 0.30479,-4.75 4.72904,-0.3039 4.72904,-0.304 0.27096,-19.696 0.27096,-19.6961 4.69736,-0.3026 4.69736,-0.3027 0.30264,-4.6973 0.30264,-4.6974 4.69736,-0.3026 4.69736,-0.3027 0.30264,-4.6973 0.30264,-4.6974 4.69736,-0.3026 4.69736,-0.3027 0.30264,-4.6973 0.30264,-4.6974 4.69736,-0.3026 4.69736,-0.3027 0.30264,-4.6973 L 659.5,2144.5 h 11 11 l 0.30264,4.6974 0.30264,4.6973 4.69736,0.3027 4.69736,0.3026 0.27096,19.6961 0.27096,19.696 4.72904,0.304 4.72904,0.3039 0.30371,4.7236 0.30371,4.7235 14.69629,0.2765 14.69629,0.2764 0.30334,4.7144 0.30334,4.7145 9.69666,0.2855 9.69666,0.2856 v 11 11 l -4.69736,0.3026 -4.69736,0.3027 -0.30264,4.6973 -0.30264,4.6974 -4.69736,0.3026 -4.69736,0.3027 -0.30264,4.6973 -0.30264,4.6974 -4.69736,0.3026 -4.69736,0.3027 -0.30264,4.6973 -0.30264,4.6974 -4.69736,0.3026 -4.69736,0.3027 -0.30264,4.6973 -0.30264,4.6974 -14.69629,0.2764 -14.69629,0.2765 -0.30371,4.7235 -0.30371,4.7236 -9.75,0.2862 -9.75,0.2862 v 3.4276 3.4276 l 9.75,0.2862 9.75,0.2862 0.30334,4.7144 0.30334,4.7145 9.69666,0.2855 9.69666,0.2856 0.30334,4.7144 0.30334,4.7145 9.69666,0.2855 9.69666,0.2856 0.30264,4.6974 0.30264,4.6973 4.69736,0.3027 4.69736,0.3026 0.30334,4.7144 0.30334,4.7145 9.69666,0.2855 9.69666,0.2856 v 16 16 l -4.69736,0.3026 -4.69736,0.3027 -0.30264,4.6973 -0.30264,4.6974 -19.69606,0.271 -19.69607,0.2709 -0.30393,4.7291 -0.30394,4.729 -4.72357,0.3037 -4.72358,0.3037 -0.27642,14.6963 -0.27643,14.6963 -4.71443,0.3033 -4.71443,0.3034 -0.28557,9.6966 L 681.5,2436.5 h -11 -11 l -0.30264,-4.6974 -0.30264,-4.6973 -4.69736,-0.3027 -4.69736,-0.3026 -0.30264,-4.6974 -0.30264,-4.6973 -4.69736,-0.3027 -4.69736,-0.3026 -0.30264,-4.6974 -0.30264,-4.6973 -4.69736,-0.3027 -4.69736,-0.3026 -0.30264,-4.6974 -0.30264,-4.6973 -4.69736,-0.3027 -4.69736,-0.3026 -0.26735,-24.6959 -0.26735,-24.6959 -4.73265,-0.3041 -4.73265,-0.3041 -0.30479,-4.75 c -0.29983,-4.6727 -0.35995,-4.75 -3.69521,-4.75 -3.33526,0 -3.39538,0.077 -3.69521,4.75 l -0.30479,4.75 -4.72904,0.3039 -4.72904,0.304 -0.27096,19.696 -0.27096,19.6961 -4.71443,0.3033 -4.71443,0.3034 -0.28557,9.6966 -0.28557,9.6967 -4.69736,0.3026 -4.69736,0.3027 -0.30264,4.6973 -0.30264,4.6974 -4.69736,0.3026 -4.69736,0.3027 -0.30264,4.6973 -0.30264,4.6974 -4.69736,0.3026 -4.69736,0.3027 -0.30264,4.6973 -0.30264,4.6974 -10.55152,0.2818 c -5.80333,0.155 -10.86583,-0.033 -11.25,-0.4166 z m 1666.00002,-2 c -0.3842,-0.3842 -0.6985,-4.8739 -0.6985,-9.9771 v -9.2785 l -4.75,-0.3048 -4.75,-0.3048 -0.2764,-14.6963 -0.2765,-14.6963 -4.7235,-0.3037 -4.7236,-0.3037 -0.3039,-4.729 -0.304,-4.7291 -19.696,-0.2709 -19.6961,-0.271 -0.3026,-4.6974 -0.3027,-4.6973 -4.6973,-0.3027 -4.6974,-0.3026 v -16 -16 l 9.6967,-0.2856 9.6966,-0.2855 0.3034,-4.7145 0.3033,-4.7144 4.6974,-0.3026 4.6973,-0.3027 0.3027,-4.6973 0.3026,-4.6974 9.6967,-0.2856 9.6966,-0.2855 0.3034,-4.7145 0.3033,-4.7144 9.6967,-0.2856 9.6966,-0.2855 0.3034,-4.7145 0.3033,-4.7144 9.75,-0.2862 9.75,-0.2862 v -3.4276 -3.4276 l -9.75,-0.2862 -9.75,-0.2862 -0.3037,-4.7236 -0.3037,-4.7235 -14.6963,-0.2765 -14.6963,-0.2764 -0.3026,-4.6974 -0.3027,-4.6973 -4.6973,-0.3027 -4.6974,-0.3026 -0.3026,-4.6974 -0.3027,-4.6973 -4.6973,-0.3027 -4.6974,-0.3026 -0.3026,-4.6974 -0.3027,-4.6973 -4.6973,-0.3027 -4.6974,-0.3026 -0.3026,-4.6974 -0.3027,-4.6973 -4.6973,-0.3027 -4.6974,-0.3026 v -11 -11 l 9.6967,-0.2856 9.6966,-0.2855 0.3034,-4.7145 0.3033,-4.7144 14.6963,-0.2764 14.6963,-0.2765 0.3037,-4.7235 0.3037,-4.7236 4.729,-0.3039 4.7291,-0.304 0.2709,-19.696 0.271,-19.6961 4.6974,-0.3026 4.6973,-0.3027 0.3027,-4.6973 0.3026,-4.6974 h 11 11 l 0.3026,4.6974 0.3027,4.6973 4.6973,0.3027 4.6974,0.3026 0.3026,4.6974 0.3027,4.6973 4.6973,0.3027 4.6974,0.3026 0.3026,4.6974 0.3027,4.6973 4.6973,0.3027 4.6974,0.3026 0.3026,4.6974 0.3027,4.6973 4.6973,0.3027 4.6974,0.3026 0.271,19.6961 0.2709,19.696 4.7291,0.304 4.729,0.3039 0.3048,4.75 c 0.2998,4.6727 0.3599,4.75 3.6952,4.75 3.3353,0 3.3954,-0.077 3.6952,-4.75 l 0.3048,-4.75 4.729,-0.3039 4.7291,-0.304 0.2709,-19.696 0.271,-19.6961 4.6974,-0.3026 4.6973,-0.3027 0.3027,-4.6973 0.3026,-4.6974 4.6974,-0.3026 4.6973,-0.3027 0.3027,-4.6973 0.3026,-4.6974 4.6974,-0.3026 4.6973,-0.3027 0.3027,-4.6973 0.3026,-4.6974 4.75,-0.3048 4.75,-0.3048 v -3.8227 c 0,-5.568 1.3334,-6.1852 12.6476,-5.8551 l 9.8524,0.2874 0.3026,4.6974 0.3027,4.6973 4.6973,0.3027 4.6974,0.3026 0.271,19.6961 0.2709,19.696 4.7291,0.304 4.729,0.3039 0.3039,4.729 0.304,4.7291 19.696,0.2709 19.6961,0.271 0.3026,4.6974 0.3027,4.6973 4.6973,0.3027 4.6974,0.3026 v 11 11 l -4.6974,0.3026 -4.6973,0.3027 -0.3027,4.6973 -0.3026,4.6974 -4.7144,0.3033 -4.7145,0.3034 -0.2855,9.6966 -0.2856,9.6967 -4.6974,0.3026 -4.6973,0.3027 -0.3027,4.6973 -0.3026,4.6974 -24.6959,0.2674 -24.6959,0.2673 -0.3041,4.7327 -0.3041,4.7326 -4.75,0.3048 c -4.6727,0.2998 -4.75,0.3599 -4.75,3.6952 0,3.3353 0.077,3.3954 4.75,3.6952 l 4.75,0.3048 0.3041,4.7326 0.3041,4.7327 24.6959,0.2673 24.6959,0.2674 0.3026,4.6974 0.3027,4.6973 4.6973,0.3027 4.6974,0.3026 0.2856,9.6967 0.2855,9.6966 4.7145,0.3034 4.7144,0.3033 0.3026,4.6974 0.3027,4.6973 4.6973,0.3027 4.6974,0.3026 v 11 11 l -9.6967,0.2856 -9.6966,0.2855 -0.3034,4.7145 -0.3033,4.7144 -14.6963,0.2764 -14.6963,0.2765 -0.3037,4.7235 -0.3037,4.7236 -4.7236,0.3037 -4.7235,0.3037 -0.2765,14.6963 -0.2764,14.6963 -4.7144,0.3033 -4.7145,0.3034 -0.2855,9.6966 -0.2856,9.6967 h -11 -11 l -0.3026,-4.6974 -0.3027,-4.6973 -4.6973,-0.3027 -4.6974,-0.3026 -0.3026,-4.6974 -0.3027,-4.6973 -4.6973,-0.3027 -4.6974,-0.3026 -0.3026,-4.6974 -0.3027,-4.6973 -4.6973,-0.3027 -4.6974,-0.3026 -0.2856,-9.6967 -0.2855,-9.6966 -4.7145,-0.3034 -4.7144,-0.3033 -0.271,-19.6961 -0.2709,-19.696 -4.7291,-0.304 -4.729,-0.3039 -0.3048,-4.75 c -0.2998,-4.6727 -0.3599,-4.75 -3.6952,-4.75 -3.3353,0 -3.3954,0.077 -3.6952,4.75 l -0.3048,4.75 -4.7326,0.3041 -4.7327,0.3041 -0.2673,24.6959 -0.2674,24.6959 -4.6974,0.3026 -4.6973,0.3027 -0.3027,4.6973 -0.3026,4.6974 -4.6974,0.3026 -4.6973,0.3027 -0.3027,4.6973 -0.3026,4.6974 -4.6974,0.3026 -4.6973,0.3027 -0.3027,4.6973 -0.3026,4.6974 -4.6974,0.3026 -4.6973,0.3027 -0.3027,4.6973 -0.3026,4.6974 -10.5515,0.2818 c -5.8033,0.155 -10.8658,-0.033 -11.25,-0.4166 z M 384,2184 v -5 h -5 -5 v -5 -5 h -5 -5 v -5 -5 h -5 -5 v -5 -5 h -5 -5 v -5 -5 h -5 -5 v -61 -61 h 10 10 v -5 -5 h 9.96379 9.96379 l 0.28621,-9.75 0.28621,-9.75 4.69736,-0.3026 4.69736,-0.3027 0.30264,-4.6973 0.30264,-4.6974 4.69736,-0.3026 4.69736,-0.3027 0.30264,-4.6973 0.30264,-4.6974 4.75,-0.3048 4.75,-0.3048 V 1947.9452 1929 h -5 -5 v -5 -5 h -4 -4 v 5 5 h -5 -5 v 10 10 h -10 -10 v 5 5 h -5 -5 v 5 5 h -5 -5 v 10.0112 10.0112 l -40.75,-0.2612 -40.75,-0.2612 -0.30479,-4.75 -0.30479,-4.75 H 243.94521 234 v -10 -10 h -5 -5 v -5 -5 h -5 -5 v -4.9638 -4.9638 l -9.75,-0.2862 -9.75,-0.2862 -0.30264,-4.6974 -0.30264,-4.6973 -4.69736,-0.3027 -4.69736,-0.3026 -0.30264,-4.6974 -0.30264,-4.6973 -4.69736,-0.3027 L 174.5,1918.5 174.23878,1877.75 173.97757,1837 H 178.98878 184 v -10 -10 h 5 5 v -10 -10 h 5 5 v -5 -5 h 10 10 v -5 -5 h 6 6 v 5 5 h 19 19 v -5 -5 h 11 11 v 5 5 h 5 5 v 5 5 h 5 5 v 10 10 h 10 10 v 5 5 h 5 5 v 21 21 h -5 -5 v 10 10 h -15 -15 v 5 5 h -5 -5 v 5 5 h -11 -11 v -10 -10 h -10 -10 v -4.9452 -4.9452 l -4.75,-0.3048 -4.75,-0.3048 v -10.5 -10.5 h 10.5 10.5 l 0.30479,4.75 0.30479,4.75 H 276.05479 286 v 5 5 h 4 4 v -10 -10 h 5 5 v -9 -9 h -5 -5 v -5 -5 h -5 -5 v -5 -5 h -29 -29 v 5 5 h -5 -5 v 5 5 h -5 -5 v 24 24 h 5 5 v 10 10 h 5 5 v 5 5 h 5 5 v 5 5 h 5 5 v 5 5 h 10 10 v 5 5 h 29 29 v -5 -5 h 5 5 v -5 -5 h 5 5 v -5 -5 h 5 5 v -5 -5 h 5 5 v -59 -59 h -10 -10 v -5 -5 h -5 -5 v -15 -15 h -10 -10 v -5 -5 h -5 -5 v -5 -5 h -5 -5 v -5 -5 h -5 -5 v -5 -5 h -5 -5 v -46 -46 h 11 11 v 10 10 h 5 5 v 15 15 h 5 5 v 5 5 h 15 15 v 5 5 h 10 10 v 16 16 h -10 -10 v 9 9 h 9 9 v -5 -5 h 4.94521 4.94521 l 0.30479,-4.75 0.30479,-4.75 14.69629,-0.2764 14.69629,-0.2765 0.30371,-4.7235 0.30371,-4.7236 44.75,-0.2603 44.75,-0.2603 V 1682.9897 1659 h -29 -29 v 5 5 h -11 -11 v -6 -6 h 5 5 v -5 -5 h 5 5 v -15 -15 h 10 10 v -5 -5 h 21 21 v 5 5 h 5 5 v 10 10 h 14 14 v -15 -15 h 5 5 v -15 -15 h 10 10 v -5 -5 h 5 5 v -5 -5 h 31 31 v 5 5 h 5 5 v 10 10 h 5 5 v 6 6 h -5 -5 v 5 5 h -6 -6 v -10 -10 h -5 -5 v -5 -5 h -19 -19 v 5 5 h -5 -5 v 45 45 h -10 -10 v 5 5 h -4.97327 -4.97326 l -0.27674,14.75 -0.27673,14.75 -4.75,0.3048 -4.75,0.3048 V 1734.0548 1749 h -10 -10 v 5 5 h -5 -5 v 10 10 h -14.94521 -14.94521 l -0.30479,4.75 -0.30479,4.75 -24.75,0.2675 -24.75,0.2674 v 4.9826 4.9825 h -5 -5 v 4 4 h 10 10 v 5 5 h 5 5 v 71 71 h -5 -5 v 15 15 h -9.94521 -9.94521 l -0.30479,4.75 -0.30479,4.75 -4.69736,0.3026 -4.69736,0.3027 -0.30264,4.6973 -0.30264,4.6974 -4.69736,0.3026 -4.69736,0.3027 -0.30264,4.6973 -0.30264,4.6974 -4.75,0.3048 -4.75,0.3048 v 4.9452 4.9452 h -5 -5 v 54 54 h 5 5 v 5 5 h 39 39 v -5 -5 h 5 5 v -9 -9 h -5 -5 v -15 -15 h -9 -9 v 5 5 h -5 -5 v 5 5 h -11 -11 v -11 -11 h 5 5 v -5 -5 h 5 5 v -5.0203 -5.0203 l 20.75,0.2703 20.75,0.2703 0.30264,4.6974 0.30264,4.6973 4.69736,0.3027 4.69736,0.3026 0.30479,4.75 0.30479,4.75 H 491.05479 496 v 5 5 h 5 5 v 21 21 h -5 -5 v 10 10 h -10 -10 v 5 5 h -5 -5 v 5 5 h -10 -10 v 5 5 h -31 -31 z m 2047,-2 v -5 h -10 -10 v -5 -5 h -5 -5 v -5 -5 h -10 -10 v -10 -10 h -5 -5 v -21 -21 h 5 5 v -5 -5 h 4.9452 4.9452 l 0.3048,-4.75 0.3048,-4.75 4.6974,-0.3026 4.6973,-0.3027 0.3027,-4.6973 0.3026,-4.6974 20.75,-0.2703 20.75,-0.2703 v 5.0203 5.0203 h 5 5 v 5 5 h 5 5 v 11 11 h -11 -11 v -5 -5 h -5 -5 v -5 -5 h -9 -9 v 15 15 h -5 -5 v 9 9 h 5 5 v 5 5 h 39 39 v -5 -5 h 5 5 v -54 -54 h -5 -5 v -4.9452 -4.9452 l -4.75,-0.3048 -4.75,-0.3048 -0.3026,-4.6974 -0.3027,-4.6973 -4.6973,-0.3027 -4.6974,-0.3026 -0.3026,-4.6974 -0.3027,-4.6973 -4.6973,-0.3027 -4.6974,-0.3026 -0.3048,-4.75 -0.3048,-4.75 H 2450.9452 2441 v -15 -15 h -5 -5 v -71 -71 h 5 5 v -5 -5 h 10 10 v -4 -4 h -5 -5 v -4.9825 -4.9826 l -24.75,-0.2674 -24.75,-0.2675 -0.3048,-4.75 -0.3048,-4.75 H 2385.9452 2371 v -10 -10 h -5 -5 v -5 -5 h -10 -10 v -14.9452 -14.9452 l -4.75,-0.3048 -4.75,-0.3048 -0.2767,-14.75 -0.2768,-14.75 H 2325.9733 2321 v -5 -5 h -10 -10 v -45 -45 h -5 -5 v -5 -5 h -19 -19 v 5 5 h -5 -5 v 10 10 h -6 -6 v -5 -5 h -5 -5 v -6 -6 h 5 5 v -10 -10 h 5 5 v -5 -5 h 31 31 v 5 5 h 5 5 v 5 5 h 10 10 v 15 15 h 5 5 v 15 15 h 14 14 v -10 -10 h 5 5 v -5 -5 h 21 21 v 5 5 h 10 10 v 15 15 h 5 5 v 5 5 h 5 5 v 6 6 h -11 -11 v -5 -5 h -29 -29 v 23.9897 23.9897 l 44.75,0.2603 44.75,0.2603 0.3037,4.7236 0.3037,4.7235 14.6963,0.2765 14.6963,0.2764 0.3048,4.75 0.3048,4.75 h 4.9452 4.9452 v 5 5 h 9 9 v -9 -9 h -10 -10 v -16 -16 h 10 10 v -5 -5 h 15 15 v -5 -5 h 5 5 v -15 -15 h 5 5 v -10 -10 h 11 11 v 46 46 h -5 -5 v 5 5 h -5 -5 v 5 5 h -5 -5 v 5 5 h -5 -5 v 5 5 h -10 -10 v 15 15 h -5 -5 v 5 5 h -10 -10 v 59 59 h 5 5 v 5 5 h 5 5 v 5 5 h 5 5 v 5 5 h 5 5 v 5 5 h 29 29 v -5 -5 h 10 10 v -5 -5 h 5 5 v -5 -5 h 5 5 v -5 -5 h 5 5 v -10 -10 h 5 5 v -24 -24 h -5 -5 v -5 -5 h -5 -5 v -5 -5 h -29 -29 v 5 5 h -5 -5 v 5 5 h -5 -5 v 9 9 h 5 5 v 10 10 h 4 4 v -5 -5 h 9.9452 9.9452 l 0.3048,-4.75 0.3048,-4.75 h 10.5 10.5 v 10.5 10.5 l -4.75,0.3048 -4.75,0.3048 v 4.9452 4.9452 h -10 -10 v 10 10 h -11 -11 v -5 -5 h -5 -5 v -5 -5 h -15 -15 v -10 -10 h -5 -5 v -21 -21 h 5 5 v -5 -5 h 10 10 v -10 -10 h 5 5 v -5 -5 h 5 5 v -5 -5 h 11 11 v 5 5 h 19 19 v -5 -5 h 6 6 v 5 5 h 10 10 v 5 5 h 5 5 v 10 10 h 5 5 v 10 10 h 5.0112 5.0112 l -0.2612,40.75 -0.2612,40.75 -4.6974,0.3026 -4.6973,0.3027 -0.3027,4.6973 -0.3026,4.6974 -4.6974,0.3026 -4.6973,0.3027 -0.3027,4.6973 -0.3026,4.6974 -9.75,0.2862 -9.75,0.2862 v 4.9638 4.9638 h -5 -5 v 5 5 h -5 -5 v 10 10 h -9.9452 -9.9452 l -0.3048,4.75 -0.3048,4.75 -40.75,0.2612 -40.75,0.2612 V 1977.0112 1967 h -5 -5 v -5 -5 h -5 -5 v -5 -5 h -10 -10 v -10 -10 h -5 -5 v -5 -5 h -4 -4 v 5 5 h -5 -5 v 18.9452 18.9452 l 4.75,0.3048 4.75,0.3048 0.3026,4.6974 0.3027,4.6973 4.6973,0.3027 4.6974,0.3026 0.3026,4.6974 0.3027,4.6973 4.6973,0.3027 4.6974,0.3026 0.2862,9.75 0.2862,9.75 h 9.9638 9.9638 v 5 5 h 10 10 v 61 61 h -5 -5 v 5 5 h -5 -5 v 5 5 h -5 -5 v 5 5 h -5 -5 v 5 5 h -5 -5 v 5 5 h -31 -31 z M 214,1604 v -5 h -5 -5 v -20 -20 h -5 -5 v -5 -5 h -20 -20 v -5 -5 h -5 -5 v -11 -11 h 5 5 v -5 -5 h 4.94521 4.94521 l 0.30479,-4.75 0.30479,-4.75 4.69736,-0.3026 4.69736,-0.3027 0.30264,-4.6973 0.30264,-4.6974 4.69736,-0.3026 4.69736,-0.3027 0.30264,-4.6973 0.30264,-4.6974 19.75,-0.2711 19.75,-0.2712 V 1471.9789 1467 h 5 5 v -4 -4 h -5 -5 v -5 -5 h -20 -20 v -5 -5 h -5 -5 v -5 -5 h -5 -5 v -5 -5 h -5 -5 v -5 -5 h -5 -5 v -11 -11 h 5 5 v -5 -5 h 20 20 v -5 -5 h 5 5 v -15 -15 h 5 5 v -10 -10 h 11 11 v 5 5 h 5 5 v 5 5 h 5 5 v 5 5 h 5 5 v 5 5 h 5 5 v 15 15 h 5 5 v 10 10 h 4 4 v -10 -10 h 4.96379 4.96379 l 0.28621,-9.75 0.28621,-9.75 4.71443,-0.3033 4.71443,-0.3034 0.28557,-9.6966 0.28557,-9.6967 4.69736,-0.3026 4.69736,-0.3027 0.30264,-4.6973 0.30264,-4.6974 4.75,-0.3048 4.75,-0.3048 V 1326.9452 1317 h 16 16 v 5 5 h 5 5 v 20 20 h 5 5 v 5 5 h 15 15 v 5 5 h 10 10 v 11 11 h -5 -5 v 5 5 h -4.94521 -4.94521 l -0.30479,4.75 -0.30479,4.75 -4.69736,0.3026 -4.69736,0.3027 -0.30264,4.6973 -0.30264,4.6974 -4.69736,0.3026 -4.69736,0.3027 -0.30264,4.6973 -0.30264,4.6974 -24.75,0.2675 -24.75,0.2674 v 4.9826 4.9825 h -5 -5 v 4 4 h 5 5 v 5 5 h 20 20 v 5 5 h 10 10 v 5 5 h 5 5 v 5 5 h 5 5 v 5 5 h 5 5 v 11 11 h -10 -10 v 5 5 h -15 -15 v 5 5 h -5 -5 v 15 15 h -5 -5 v 10 10 h -11 -11 v -5 -5 h -5 -5 v -5 -5 h -10 -10 v -5 -5 h -5 -5 v -25 -25 h -5 -5 v -5 -5 h -4 -4 v 5 5 h -4.98253 -4.98253 l -0.26747,24.75 -0.26747,24.75 -4.69736,0.3026 -4.69736,0.3027 -0.30264,4.6973 -0.30264,4.6974 -9.75,0.2862 -9.75,0.2862 v 4.9638 4.9638 h -5 -5 v 5 5 h -11 -11 z m 2297,-7 v -10 h -5 -5 v -15 -15 h -5 -5 v -5 -5 h -15 -15 v -5 -5 h -10 -10 v -11 -11 h 5 5 v -5 -5 h 5 5 v -5 -5 h 5 5 v -5 -5 h 10 10 v -5 -5 h 20 20 v -5 -5 h 5 5 v -4 -4 h -5 -5 v -4.9825 -4.9826 l -24.75,-0.2674 -24.75,-0.2675 -0.3026,-4.6974 -0.3027,-4.6973 -4.6973,-0.3027 -4.6974,-0.3026 -0.3026,-4.6974 -0.3027,-4.6973 -4.6973,-0.3027 -4.6974,-0.3026 -0.3048,-4.75 -0.3048,-4.75 H 2455.9452 2451 v -5 -5 h -5 -5 v -11 -11 h 10 10 v -5 -5 h 15 15 v -5 -5 h 5 5 v -20 -20 h 5 5 v -5 -5 h 16 16 v 9.9452 9.9452 l 4.75,0.3048 4.75,0.3048 0.3026,4.6974 0.3027,4.6973 4.6973,0.3027 4.6974,0.3026 0.2856,9.6967 0.2855,9.6966 4.7145,0.3034 4.7144,0.3033 0.2862,9.75 0.2862,9.75 h 4.9638 4.9638 v 10 10 h 4 4 v -10 -10 h 5 5 v -15 -15 h 5 5 v -5 -5 h 5 5 v -5 -5 h 5 5 v -5 -5 h 5 5 v -5 -5 h 11 11 v 10 10 h 5 5 v 15 15 h 5 5 v 5 5 h 20 20 v 5 5 h 5 5 v 11 11 h -5 -5 v 5 5 h -5 -5 v 5 5 h -5 -5 v 5 5 h -5 -5 v 5 5 h -20 -20 v 5 5 h -5 -5 v 4 4 h 5 5 v 4.9789 4.9788 l 19.75,0.2712 19.75,0.2711 0.3026,4.6974 0.3027,4.6973 4.6973,0.3027 4.6974,0.3026 0.3026,4.6974 0.3027,4.6973 4.6973,0.3027 4.6974,0.3026 0.3048,4.75 0.3048,4.75 h 4.9452 4.9452 v 5 5 h 5 5 v 11 11 h -5 -5 v 5 5 h -20 -20 v 5 5 h -5 -5 v 20 20 h -5 -5 v 5 5 h -11 -11 v -5 -5 h -5 -5 v -4.9638 -4.9638 l -9.75,-0.2862 -9.75,-0.2862 -0.3026,-4.6974 -0.3027,-4.6973 -4.6973,-0.3027 -4.6974,-0.3026 -0.2675,-24.75 -0.2674,-24.75 H 2595.9825 2591 v -5 -5 h -4 -4 v 5 5 h -5 -5 v 25 25 h -5 -5 v 5 5 h -10 -10 v 5 5 h -5 -5 v 5 5 h -11 -11 z M 571,1375 v -5 h -5 -5 v -5 -5 h -10 -10 v -15 -15 h -5 -5 v -15 -15 h -14 -14 v 10 10 h -5 -5 v 5 5 h -21 -21 v -5 -5 h -10 -10 v -15 -15 h -5 -5 v -5 -5 h -5 -5 v -6 -6 h 11 11 v 5 5 h 29 29 v -23.9897 -23.9897 l -44.75,-0.2603 -44.75,-0.2603 -0.30371,-4.7236 -0.30371,-4.7235 -14.69629,-0.2765 L 371.5,1219.5 l -0.30479,-4.75 -0.30479,-4.75 H 365.94521 361 v -5 -5 h -9 -9 v 9 9 h 10 10 v 16 16 h -10 -10 v 5 5 h -15 -15 v 5 5 h -5 -5 v 15 15 h -5 -5 v 10 10 h -11 -11 v -46 -46 h 5 5 v -5 -5 h 5 5 v -5 -5 h 5 5 v -5 -5 h 5 5 v -5 -5 h 10 10 v -15 -15 h 5 5 v -5 -5 h 10 10 v -59 -59 h -5 -5 v -5 -5 h -5 -5 v -5 -5 h -5 -5 v -5 -5 h -5 -5 v -5 -5 h -29 -29 v 5 5 h -10 -10 v 5 5 h -5 -5 v 5 5 h -5 -5 v 5 5 h -5 -5 v 10 10 h -5 -5 v 24 24 h 5 5 v 5 5 h 5 5 v 5 5 h 29 29 v -5 -5 h 5 5 v -5 -5 h 5 5 v -9 -9 h -5 -5 v -10 -10 h -4 -4 v 5 5 h -9.94521 -9.94521 l -0.30479,4.75 -0.30479,4.75 H 252 241.5 v -10.5 -10.5 l 4.75,-0.3048 4.75,-0.3048 V 1052.9452 1048 h 10 10 v -10 -10 h 11 11 v 5 5 h 5 5 v 5 5 h 15 15 v 10 10 h 5 5 v 21 21 h -5 -5 v 5 5 h -10 -10 v 10 10 h -5 -5 v 5 5 h -5 -5 v 5 5 h -11 -11 v -5 -5 h -19 -19 v 5 5 h -6 -6 v -5 -5 h -10 -10 v -5 -5 h -5 -5 v -10 -10 h -5 -5 v -10 -10 h -5.01122 -5.01121 l 0.26121,-40.75 0.26122,-40.75 4.69736,-0.3026 4.69736,-0.3027 0.30264,-4.6973 0.30264,-4.6974 4.69736,-0.3026 4.69736,-0.3027 0.30264,-4.6973 0.30264,-4.6974 9.75,-0.28621 9.75,-0.28621 V 992.96379 988 h 5 5 v -5 -5 h 5 5 v -10 -10 h 9.94521 9.94521 l 0.30479,-4.75 0.30479,-4.75 40.75,-0.26122 40.75,-0.26121 V 957.98878 968 h 5 5 v 5 5 h 5 5 v 5 5 h 10 10 v 10 10 h 5 5 v 5 5 h 4 4 v -5 -5 h 5 5 v -18.94521 -18.94521 l -4.75,-0.30479 -4.75,-0.30479 -0.30264,-4.69736 -0.30264,-4.69736 -4.69736,-0.30264 L 381.5,959.5 l -0.30264,-4.69736 -0.30264,-4.69736 -4.69736,-0.30264 L 371.5,949.5 371.21379,939.75 370.92758,930 H 360.96379 351 v -5 -5 h -10 -10 v -61 -61 h 5 5 v -5 -5 h 5 5 v -5 -5 h 5 5 v -5 -5 h 5 5 v -5 -5 h 5 5 v -5 -5 h 31 31 v 5 5 h 10 10 v 5 5 h 5 5 v 5 5 h 10 10 v 10 10 h 5 5 v 21 21 h -5 -5 v 5 5 h -4.94521 -4.94521 l -0.30479,4.75 -0.30479,4.75 -4.69736,0.30264 -4.69736,0.30264 -0.30264,4.69736 L 472.5,869.5 451.75,869.77029 431,870.04058 V 865.02029 860 h -5 -5 v -5 -5 h -5 -5 v -11 -11 h 11 11 v 5 5 h 5 5 v 5 5 h 9 9 v -15 -15 h 5 5 v -9 -9 h -5 -5 v -5 -5 h -39 -39 v 5 5 h -5 -5 v 54 54 h 5 5 v 4.94521 4.94521 l 4.75,0.30479 4.75,0.30479 0.30264,4.69736 0.30264,4.69736 4.69736,0.30264 4.69736,0.30264 0.30264,4.69736 0.30264,4.69736 4.69736,0.30264 4.69736,0.30264 0.30479,4.75 0.30479,4.75 H 423.05479 433 v 15 15 h 5 5 v 71 71 h -5 -5 v 5 5 h -10 -10 v 4 4 h 5 5 v 4.9825 4.9826 l 24.75,0.2674 24.75,0.2675 0.30479,4.75 0.30479,4.75 H 488.05479 503 v 10 10 h 5 5 v 5 5 h 10 10 v 14.9452 14.9452 l 4.75,0.3048 4.75,0.3048 0.27673,14.75 0.27674,14.75 H 548.02673 553 v 5 5 h 10 10 v 45 45 h 5 5 v 5 5 h 19 19 v -5 -5 h 5 5 v -10 -10 h 6 6 v 5 5 h 5 5 v 6 6 h -5 -5 v 10 10 h -5 -5 v 5 5 h -31 -31 z m 1673,-2 v -5 h -5 -5 v -10 -10 h -5 -5 v -6 -6 h 5 5 v -5 -5 h 6 6 v 10 10 h 5 5 v 5 5 h 19 19 v -5 -5 h 5 5 v -45 -45 h 10 10 v -5 -5 h 4.9733 4.9732 l 0.2768,-14.75 0.2767,-14.75 4.75,-0.3048 4.75,-0.3048 V 1200.9452 1186 h 10 10 v -5 -5 h 5 5 v -10 -10 h 14.9452 14.9452 l 0.3048,-4.75 0.3048,-4.75 24.75,-0.2675 24.75,-0.2674 V 1140.9825 1136 h 5 5 v -4 -4 h -10 -10 v -5 -5 h -5 -5 v -71 -71 h 5 5 v -15 -15 h 9.9452 9.9452 l 0.3048,-4.75 0.3048,-4.75 4.6974,-0.30264 4.6973,-0.30264 0.3027,-4.69736 0.3026,-4.69736 4.6974,-0.30264 4.6973,-0.30264 0.3027,-4.69736 0.3026,-4.69736 4.75,-0.30479 4.75,-0.30479 V 910.94521 906 h 5 5 v -54 -54 h -5 -5 v -5 -5 h -39 -39 v 5 5 h -5 -5 v 9 9 h 5 5 v 15 15 h 9 9 v -5 -5 h 5 5 v -5 -5 h 11 11 v 11 11 h -5 -5 v 5 5 h -5 -5 v 5.02029 5.02029 l -20.75,-0.27029 -20.75,-0.27029 -0.3026,-4.69736 -0.3027,-4.69736 -4.6973,-0.30264 -4.6974,-0.30264 -0.3048,-4.75 -0.3048,-4.75 H 2388.9452 2384 v -5 -5 h -5 -5 v -21 -21 h 5 5 v -10 -10 h 10 10 v -5 -5 h 5 5 v -5 -5 h 10 10 v -5 -5 h 31 31 v 5 5 h 5 5 v 5 5 h 5 5 v 5 5 h 5 5 v 5 5 h 5 5 v 5 5 h 5 5 v 61 61 h -10 -10 v 5 5 h -9.9638 -9.9638 l -0.2862,9.75 -0.2862,9.75 -4.6974,0.30264 -4.6973,0.30264 -0.3027,4.69736 -0.3026,4.69736 -4.6974,0.30264 -4.6973,0.30264 -0.3027,4.69736 -0.3026,4.69736 -4.75,0.30479 -4.75,0.30479 V 987.05479 1006 h 5 5 v 5 5 h 4 4 v -5 -5 h 5 5 v -10 -10 h 10 10 v -5 -5 h 5 5 v -5 -5 h 5 5 v -10.01122 -10.01121 l 40.75,0.26121 40.75,0.26122 0.3048,4.75 0.3048,4.75 h 9.9452 9.9452 v 10 10 h 5 5 v 5 5 h 5 5 v 4.96379 4.96379 l 9.75,0.28621 9.75,0.28621 0.3026,4.6974 0.3027,4.6973 4.6973,0.3027 4.6974,0.3026 0.3026,4.6974 0.3027,4.6973 4.6973,0.3027 4.6974,0.3026 0.2612,40.75 0.2612,40.75 H 2701.0112 2696 v 10 10 h -5 -5 v 10 10 h -5 -5 v 5 5 h -10 -10 v 5 5 h -6 -6 v -5 -5 h -19 -19 v 5 5 h -11 -11 v -5 -5 h -5 -5 v -5 -5 h -5 -5 v -10 -10 h -10 -10 v -5 -5 h -5 -5 v -21 -21 h 5 5 v -10 -10 h 15 15 v -5 -5 h 5 5 v -5 -5 h 11 11 v 10 10 h 10 10 v 4.9452 4.9452 l 4.75,0.3048 4.75,0.3048 v 10.5 10.5 h -10.5 -10.5 l -0.3048,-4.75 -0.3048,-4.75 H 2603.9452 2594 v -5 -5 h -4 -4 v 10 10 h -5 -5 v 9 9 h 5 5 v 5 5 h 5 5 v 5 5 h 29 29 v -5 -5 h 5 5 v -5 -5 h 5 5 v -24 -24 h -5 -5 v -10 -10 h -5 -5 v -5 -5 h -5 -5 v -5 -5 h -5 -5 v -5 -5 h -10 -10 v -5 -5 h -29 -29 v 5 5 h -5 -5 v 5 5 h -5 -5 v 5 5 h -5 -5 v 5 5 h -5 -5 v 59 59 h 10 10 v 5 5 h 5 5 v 15 15 h 10 10 v 5 5 h 5 5 v 5 5 h 5 5 v 5 5 h 5 5 v 5 5 h 5 5 v 46 46 h -11 -11 v -10 -10 h -5 -5 v -15 -15 h -5 -5 v -5 -5 h -15 -15 v -5 -5 h -10 -10 v -16 -16 h 10 10 v -9 -9 h -9 -9 v 5 5 h -4.9452 -4.9452 l -0.3048,4.75 -0.3048,4.75 -14.6963,0.2764 -14.6963,0.2765 -0.3037,4.7235 -0.3037,4.7236 -44.75,0.2603 -44.75,0.2603 V 1252.0103 1276 h 29 29 v -5 -5 h 11 11 v 6 6 h -5 -5 v 5 5 h -5 -5 v 15 15 h -10 -10 v 5 5 h -21 -21 v -5 -5 h -5 -5 v -10 -10 h -14 -14 v 15 15 h -5 -5 v 15 15 h -10 -10 v 5 5 h -5 -5 v 5 5 h -31 -31 z M 526.66667,792.33333 C 526.3,791.96667 526,789.74132 526,787.38812 v -4.27854 l -4.75,-0.30479 -4.75,-0.30479 -0.27096,-19.69606 -0.27096,-19.69607 -4.72904,-0.30393 L 506.5,742.5 l -0.30394,-4.72904 -0.30393,-4.72904 -19.69607,-0.27096 L 466.5,732.5 l -0.30264,-4.69736 -0.30264,-4.69736 -4.69736,-0.30264 L 456.5,722.5 v -11 -11 l 4.69736,-0.30264 4.69736,-0.30264 0.30264,-4.69736 L 466.5,690.5 l 4.71443,-0.30334 4.71443,-0.30334 0.28557,-9.69666 L 476.5,670.5 l 4.69736,-0.30264 4.69736,-0.30264 0.30264,-4.69736 L 486.5,660.5 l 24.69592,-0.26735 24.69591,-0.26735 0.30409,-4.73265 L 536.5,650.5 l 4.75,-0.30479 c 4.67273,-0.29983 4.75,-0.35995 4.75,-3.69521 0,-3.33526 -0.0773,-3.39538 -4.75,-3.69521 L 536.5,642.5 536.19592,637.76735 535.89183,633.0347 511.19592,632.76735 486.5,632.5 l -0.30264,-4.69736 -0.30264,-4.69736 -4.69736,-0.30264 L 476.5,622.5 l -0.28557,-9.69666 -0.28557,-9.69666 -4.71443,-0.30334 L 466.5,602.5 l -0.30264,-4.69736 -0.30264,-4.69736 -4.69736,-0.30264 L 456.5,592.5 v -11 -11 l 9.69666,-0.28557 9.69666,-0.28557 0.30334,-4.71443 L 476.5,560.5 l 14.69629,-0.27643 14.69629,-0.27642 0.30371,-4.72358 L 506.5,550.5 l 4.72357,-0.30371 4.72358,-0.30371 0.27642,-14.69629 L 516.5,520.5 l 4.71443,-0.30334 4.71443,-0.30334 0.28557,-9.69666 L 526.5,500.5 h 11 11 l 0.30264,4.69736 0.30264,4.69736 4.69736,0.30264 4.69736,0.30264 0.30264,4.69736 0.30264,4.69736 4.69736,0.30264 4.69736,0.30264 0.30264,4.69736 0.30264,4.69736 4.69736,0.30264 4.69736,0.30264 0.28557,9.69666 0.28557,9.69666 4.71443,0.30334 4.71443,0.30334 0.27096,19.69606 0.27096,19.69607 4.72904,0.30393 4.72904,0.30394 0.30479,4.75 c 0.29983,4.67273 0.35995,4.75 3.69521,4.75 3.33526,0 3.39538,-0.0773 3.69521,-4.75 l 0.30479,-4.75 4.73265,-0.30408 4.73265,-0.30409 0.26735,-24.69591 L 616.5,540.5 l 4.69736,-0.30264 4.69736,-0.30264 0.30264,-4.69736 L 626.5,530.5 l 4.69736,-0.30264 4.69736,-0.30264 0.30264,-4.69736 L 636.5,520.5 l 4.69736,-0.30264 4.69736,-0.30264 0.30264,-4.69736 L 646.5,510.5 l 4.69736,-0.30264 4.69736,-0.30264 0.30264,-4.69736 L 656.5,500.5 h 11 11 l 0.28557,9.69666 0.28557,9.69666 4.71443,0.30334 4.71443,0.30334 0.27643,14.69629 0.27642,14.69629 4.72358,0.30371 4.72357,0.30371 0.30394,4.72904 0.30393,4.72904 19.69607,0.27096 L 738.5,560.5 l 0.30264,4.69736 0.30264,4.69736 4.69736,0.30264 L 748.5,570.5 v 16 16 l -9.69666,0.28557 -9.69666,0.28557 -0.30334,4.71443 L 728.5,612.5 l -4.69736,0.30264 -4.69736,0.30264 -0.30264,4.69736 L 718.5,622.5 l -9.69666,0.28557 -9.69666,0.28557 -0.30334,4.71443 L 698.5,632.5 l -9.69666,0.28557 -9.69666,0.28557 -0.30334,4.71443 L 678.5,642.5 l -9.75,0.28621 -9.75,0.28621 v 3.42758 3.42758 l 9.75,0.28621 9.75,0.28621 0.30371,4.72357 0.30371,4.72358 14.69629,0.27642 L 708.5,660.5 l 0.30264,4.69736 0.30264,4.69736 4.69736,0.30264 4.69736,0.30264 0.30264,4.69736 0.30264,4.69736 4.69736,0.30264 4.69736,0.30264 0.30264,4.69736 0.30264,4.69736 4.69736,0.30264 4.69736,0.30264 0.30264,4.69736 0.30264,4.69736 4.69736,0.30264 L 748.5,700.5 v 11 11 l -9.69666,0.28557 -9.69666,0.28557 -0.30334,4.71443 L 728.5,732.5 l -14.69629,0.27643 -14.69629,0.27642 -0.30371,4.72358 L 698.5,742.5 l -4.72904,0.30394 -4.72904,0.30393 -0.27096,19.69607 L 688.5,782.5 l -4.69736,0.30264 -4.69736,0.30264 -0.30264,4.69736 L 678.5,792.5 h -11 -11 l -0.30264,-4.69736 -0.30264,-4.69736 -4.69736,-0.30264 L 646.5,782.5 l -0.30264,-4.69736 -0.30264,-4.69736 -4.69736,-0.30264 L 636.5,772.5 l -0.30264,-4.69736 -0.30264,-4.69736 -4.69736,-0.30264 L 626.5,762.5 l -0.30264,-4.69736 -0.30264,-4.69736 -4.69736,-0.30264 L 616.5,752.5 616.22904,732.80394 615.95808,713.10787 611.22904,712.80394 606.5,712.5 606.19521,707.75 C 605.89538,703.07727 605.83526,703 602.5,703 c -3.33526,0 -3.39538,0.0773 -3.69521,4.75 l -0.30479,4.75 -4.72904,0.30394 -4.72904,0.30393 -0.27096,19.69607 L 588.5,752.5 l -4.69736,0.30264 -4.69736,0.30264 -0.30264,4.69736 L 578.5,762.5 l -4.69736,0.30264 -4.69736,0.30264 -0.30264,4.69736 L 568.5,772.5 l -4.69736,0.30264 -4.69736,0.30264 -0.30264,4.69736 L 558.5,782.5 l -4.75,0.30479 -4.75,0.30479 v 3.74521 c 0,2.05987 -0.54,4.28521 -1.2,4.94521 -1.27926,1.27926 -19.91705,1.74961 -21.13333,0.53333 z M 2198.6985,790.36515 C 2198.3143,789.98098 2198,787.74132 2198,785.38812 v -4.27854 l -4.75,-0.30479 -4.75,-0.30479 -0.271,-19.69606 -0.2709,-19.69607 -4.7291,-0.30393 -4.729,-0.30394 -0.3037,-4.72357 -0.3037,-4.72358 -14.6963,-0.27642 L 2148.5,730.5 l -0.3033,-4.71443 -0.3034,-4.71443 -9.6966,-0.28557 L 2128.5,720.5 v -11 -11 l 4.6974,-0.30264 4.6973,-0.30264 0.3027,-4.69736 0.3026,-4.69736 4.6974,-0.30264 4.6973,-0.30264 0.3027,-4.69736 0.3026,-4.69736 4.6974,-0.30264 4.6973,-0.30264 0.3027,-4.69736 0.3026,-4.69736 4.6974,-0.30264 4.6973,-0.30264 0.3027,-4.69736 0.3026,-4.69736 14.6963,-0.27643 14.6963,-0.27642 0.3037,-4.72358 0.3037,-4.72357 9.75,-0.28621 9.75,-0.28621 V 644.5 641.07242 l -9.75,-0.28621 -9.75,-0.28621 -0.3033,-4.71443 -0.3034,-4.71443 -9.6966,-0.28557 -9.6967,-0.28557 -0.3033,-4.71443 -0.3034,-4.71443 -9.6966,-0.28557 -9.6967,-0.28557 -0.3026,-4.69736 -0.3027,-4.69736 -4.6973,-0.30264 -4.6974,-0.30264 -0.3033,-4.71443 -0.3034,-4.71443 -9.6966,-0.28557 L 2128.5,600.5 v -16 -16 l 4.6974,-0.30264 4.6973,-0.30264 0.3027,-4.69736 0.3026,-4.69736 19.6961,-0.27096 19.696,-0.27096 0.304,-4.72904 0.3039,-4.72904 4.7236,-0.30371 4.7235,-0.30371 0.2765,-14.69629 0.2764,-14.69629 4.7144,-0.30334 4.7145,-0.30334 0.2855,-9.69666 L 2198.5,498.5 h 11 11 l 0.3026,4.69736 0.3027,4.69736 4.6973,0.30264 4.6974,0.30264 0.3026,4.69736 0.3027,4.69736 4.6973,0.30264 4.6974,0.30264 0.3026,4.69736 0.3027,4.69736 4.6973,0.30264 4.6974,0.30264 0.3026,4.69736 0.3027,4.69736 4.6973,0.30264 4.6974,0.30264 0.2674,24.69592 0.2673,24.69591 4.7327,0.30409 4.7326,0.30408 0.3048,4.75 c 0.2998,4.67273 0.3599,4.75 3.6952,4.75 3.3353,0 3.3954,-0.0773 3.6952,-4.75 l 0.3048,-4.75 4.729,-0.30394 4.7291,-0.30393 0.2709,-19.69607 0.271,-19.69606 4.7144,-0.30334 4.7145,-0.30334 0.2855,-9.69666 0.2856,-9.69666 4.6974,-0.30264 4.6973,-0.30264 0.3027,-4.69736 0.3026,-4.69736 4.6974,-0.30264 4.6973,-0.30264 0.3027,-4.69736 0.3026,-4.69736 4.6974,-0.30264 4.6973,-0.30264 0.3027,-4.69736 L 2328.5,498.5 h 11 11 l 0.2856,9.69666 0.2855,9.69666 4.7145,0.30334 4.7144,0.30334 0.2764,14.69629 0.2765,14.69629 4.7235,0.30371 4.7236,0.30371 0.3037,4.72357 0.3037,4.72358 14.6963,0.27642 14.6963,0.27643 0.3033,4.71443 0.3034,4.71443 9.6966,0.28557 9.6967,0.28557 v 11 11 l -4.6974,0.30264 -4.6973,0.30264 -0.3027,4.69736 -0.3026,4.69736 -4.7144,0.30334 -4.7145,0.30334 -0.2855,9.69666 -0.2856,9.69666 -4.6974,0.30264 -4.6973,0.30264 -0.3027,4.69736 -0.3026,4.69736 -24.6959,0.26735 -24.6959,0.26735 -0.3041,4.73265 -0.3041,4.73265 -4.75,0.30479 c -4.6727,0.29983 -4.75,0.35995 -4.75,3.69521 0,3.33526 0.077,3.39538 4.75,3.69521 l 4.75,0.30479 0.3041,4.73265 0.3041,4.73265 24.6959,0.26735 24.6959,0.26735 0.3026,4.69736 0.3027,4.69736 4.6973,0.30264 4.6974,0.30264 0.2856,9.69666 0.2855,9.69666 4.7145,0.30334 4.7144,0.30334 0.3026,4.69736 0.3027,4.69736 4.6973,0.30264 4.6974,0.30264 v 11 11 l -4.6974,0.30264 -4.6973,0.30264 -0.3027,4.69736 -0.3026,4.69736 -19.6961,0.27096 -19.696,0.27096 -0.304,4.72904 -0.3039,4.72904 -4.729,0.30394 -4.7291,0.30393 -0.2709,19.69607 -0.271,19.69606 -4.6974,0.30264 -4.6973,0.30264 -0.3027,4.69736 -0.3026,4.69736 -9.8524,0.28745 C 2329.3334,791.11754 2328,790.50027 2328,784.93235 v -3.82277 l -4.75,-0.30479 -4.75,-0.30479 -0.3026,-4.69736 -0.3027,-4.69736 -4.6973,-0.30264 -4.6974,-0.30264 -0.3026,-4.69736 -0.3027,-4.69736 -4.6973,-0.30264 -4.6974,-0.30264 -0.3026,-4.69736 -0.3027,-4.69736 -4.6973,-0.30264 -4.6974,-0.30264 -0.271,-19.69606 -0.2709,-19.69607 -4.7291,-0.30393 -4.729,-0.30394 -0.3048,-4.75 c -0.2998,-4.67273 -0.3599,-4.75 -3.6952,-4.75 -3.3353,0 -3.3954,0.0773 -3.6952,4.75 l -0.3048,4.75 -4.729,0.30394 -4.7291,0.30393 -0.2709,19.69607 -0.271,19.69606 -4.6974,0.30264 -4.6973,0.30264 -0.3027,4.69736 -0.3026,4.69736 -4.6974,0.30264 -4.6973,0.30264 -0.3027,4.69736 -0.3026,4.69736 -4.6974,0.30264 -4.6973,0.30264 -0.3027,4.69736 -0.3026,4.69736 -4.6974,0.30264 -4.6973,0.30264 -0.3027,4.69736 -0.3026,4.69736 -10.5515,0.28182 c -5.8033,0.155 -10.8658,-0.0325 -11.25,-0.41667 z M 1301,687 v -5 h -5 -5 v -5 -5 h 10 10 v -5 -5 h 5 5 v -20 -20 h -5 -5 v -5 -5 h -45 -45 v -10 -10 h -5 -5 v -5 -5 h -15 -15 v -5 -5 h -15 -15 v -10 -10 h -5 -5 v -5 -5 h -10 -10 v -15 -15 h -5 -5 v -25 -25 h -5 -5 v -5 -5 h -5 -5 v 10 10 h -5 -5 v 5 5 h -70 -70 v -5 -5 h -15 -15 v -10 -10 h -5 -5 v -5 -5 h -5 -5 v -5 -5 h -5 -5 v -5 -5 h -5 -5 v -5 -5 h -55 -55 v 5 5 h -5 -5 v 40 40 h 5 5 v 5 5 h 10 10 v -5 -5 h 15 15 v -10 -10 h -5 -5 v -5 -5 h -5 -5 v -10 -10 h 10 10 v 5 5 h 5 5 v 5 5 h 5 5 v 20 20 h -5 -5 v 5 5 h -5 -5 v 5 5 h -5 -5 v 5 5 h -20 -20 v -5 -5 h -10 -10 v -10 -10 h -5 -5 v -5 -5 h -5 -5 v -10 -10 h -5 -5 v -30 -30 h 5 5 v -5 -5 h 5 5 v -5 -5 h 5 5 v -5 -5 h 5 5 v -5 -5 h 5 5 v -5 -5 h 60 60 v 10 10 h 5 5 v 10 10 h 10 10 v 5 5 h 5 5 v 5 5 h 5 5 v 5 5 h 20 20 v -5 -5 h 5 5 v -5 -5 h -5 -5 v -5 -5 h -10 -10 v -10 -10 h -5 -5 v -5 -5 h -5 -5 v -5 -5 h -10 -10 v -40 -40 h 5 5 v -10 -10 h 10 10 v -5 -5 h 5 5 v -5 -5 h 5 5 v -10 -10 h 5 5 v -5 -5 h 5 5 v -5 -5 h 40 40 v 5 5 h 10 10 v 5 5 h 10 10 v 5 5 h 5 5 v 10 10 h 5 5 v 5 5 h -5 -5 v 20 20 h 5 5 v 10 10 h -5 -5 v 5 5 h -5 -5 v 5 5 h -10 -10 v 10 10 h -5 -5 v 5 5 h -20 -20 v -5 -5 h -10 -10 v -15 -15 h -5 -5 v -5 -5 h -5 -5 v -10 -10 h 10 10 v -10 -10 h 5 5 v -5 -5 h 10 10 v 10 10 h -5 -5 v 10 10 h -5 -5 v 5 5 h 10 10 v 5 5 h 10 10 v -5 -5 h 5 5 v -5 -5 h 5 5 v -30 -30 h -5 -5 v -5 -5 h -5 -5 v -5 -5 h -25 -25 v 5 5 h -10 -10 v 5 5 h -5 -5 v 5 5 h -5 -5 v 5 5 h -5 -5 v 10 10 h -5 -5 v 30 30 h 5 5 v 5 5 h 5 5 v 5 5 h 5 5 v 5 5 h 5 5 v 5 5 h 60 60 v -10 -10 h 5 5 v -5 -5 h 15 15 v -10 -10 h 5 5 v -5 -5 h 5 5 v -5 -5 h 5 5 v -5 -5 h 5 5 v -5 -5 h 45 45 v 10 10 h -10 -10 v 5 5 h -15 -15 v 5 5 h -5 -5 v 15 15 h -5 -5 v 10 10 h -15 -15 v -10 -10 h -10 -10 v 10 10 h 5 5 v 5 5 h 5 5 v 15 15 h 5 5 v 45 45 h 25 25 v -30 -30 h -5 -5 v -10 -10 h 5 5 v 5 5 h 5 5 v 5 5 h 15 15 v 10 10 h 5 5 v 20 20 h -5 -5 v 5 5 h -10 -10 v 15 15 h 15 15 v 5 5 h 15 15 v 10 10 h 5 5 v 5 5 h 5 5 v 30 30 h -5 -5 v 5 5 h -10 -10 v 5 5 h -5 -5 z m 265,-2 v -5 h -10 -10 v -5 -5 h -5 -5 v -30 -30 h 5 5 v -5 -5 h 5 5 v -10 -10 h 15 15 v -5 -5 h 15 15 v -15 -15 h -10 -10 v -5 -5 h -5 -5 v -20 -20 h 5 5 v -10 -10 h 15 15 v -5 -5 h 5 5 v -5 -5 h 5 5 v 10 10 h -5 -5 v 30 30 h 25 25 v -45 -45 h 5 5 v -15 -15 h 5 5 v -5 -5 h 5 5 v -10 -10 h -10 -10 v 10 10 h -15 -15 v -10 -10 h -5 -5 v -15 -15 h -5 -5 v -5 -5 h -15 -15 v -5 -5 h -10 -10 v -10 -10 h 45 45 v 5 5 h 5 5 v 5 5 h 5 5 v 5 5 h 5 5 v 5 5 h 5 5 v 10 10 h 15 15 v 5 5 h 5 5 v 10 10 h 60 60 v -5 -5 h 5 5 v -5 -5 h 5 5 v -5 -5 h 5 5 v -5 -5 h 5 5 v -30 -30 h -5 -5 v -10 -10 h -5 -5 v -5 -5 h -5 -5 v -5 -5 h -5 -5 v -5 -5 h -10 -10 v -5 -5 h -25 -25 v 5 5 h -5 -5 v 5 5 h -5 -5 v 30 30 h 5 5 v 5 5 h 5 5 v 5 5 h 10 10 v -5 -5 h 10 10 v -5 -5 h -5 -5 v -10 -10 h -5 -5 v -10 -10 h 10 10 v 5 5 h 5 5 v 10 10 h 10 10 v 10 10 h -5 -5 v 5 5 h -5 -5 v 15 15 h -10 -10 v 5 5 h -20 -20 v -5 -5 h -5 -5 v -10 -10 h -10 -10 v -5 -5 h -5 -5 v -5 -5 h -5 -5 v -10 -10 h 5 5 v -20 -20 h -5 -5 v -5 -5 h 5 5 v -10 -10 h 5 5 v -5 -5 h 10 10 v -5 -5 h 10 10 v -5 -5 h 40 40 v 5 5 h 5 5 v 5 5 h 5 5 v 10 10 h 5 5 v 5 5 h 5 5 v 5 5 h 10 10 v 10 10 h 5 5 v 40 40 h -10 -10 v 5 5 h -5 -5 v 5 5 h -5 -5 v 10 10 h -10 -10 v 5 5 h -5 -5 v 5 5 h 5 5 v 5 5 h 20 20 v -5 -5 h 5 5 v -5 -5 h 5 5 v -5 -5 h 10 10 v -10 -10 h 5 5 v -10 -10 h 60 60 v 5 5 h 5 5 v 5 5 h 5 5 v 5 5 h 5 5 v 5 5 h 5 5 v 5 5 h 5 5 v 30 30 h -5 -5 v 10 10 h -5 -5 v 5 5 h -5 -5 v 10 10 h -10 -10 v 5 5 h -20 -20 v -5 -5 h -5 -5 v -5 -5 h -5 -5 v -5 -5 h -5 -5 v -20 -20 h 5 5 v -5 -5 h 5 5 v -5 -5 h 10 10 v 10 10 h -5 -5 v 5 5 h -5 -5 v 10 10 h 15 15 v 5 5 h 10 10 v -5 -5 h 5 5 v -40 -40 h -5 -5 v -5 -5 h -55 -55 v 5 5 h -5 -5 v 5 5 h -5 -5 v 5 5 h -5 -5 v 5 5 h -5 -5 v 10 10 h -15 -15 v 5 5 h -70 -70 v -5 -5 h -5 -5 v -10 -10 h -5 -5 v 5 5 h -5 -5 v 25 25 h -5 -5 v 15 15 h -10 -10 v 5 5 h -5 -5 v 10 10 h -15 -15 v 5 5 h -15 -15 v 5 5 h -5 -5 v 10 10 h -45 -45 v 5 5 h -5 -5 v 20 20 h 5 5 v 5 5 h 10 10 v 5 5 h -5 -5 v 5 5 h -5 -5 z M 1361,462 v -10 h -5 -5 v -15 -15 h -5 -5 v -5 -5 h -15 -15 v -5 -5 h -10 -10 v -10 -10 h 5 5 v -5 -5 h 5 5 v -10 -10 h 5 5 v -5 -5 h 25 25 v -5 -5 h 5 5 v -5 -5 h -5 -5 v -5 -5 h -25 -25 v -5 -5 h -5 -5 v -10 -10 h -5 -5 v -5 -5 h -5 -5 v -10 -10 h 5 5 v -5 -5 h 20 20 v -5 -5 h 5 5 v -20 -20 h 5 5 v -5 -5 h 10 10 v 5 5 h 5 5 v 5 5 h 5 5 v 5 5 h 5 5 v 5 5 h 5 5 v 20 20 h 5 5 v 5 5 h 5 5 v -5 -5 h 5 5 v -20 -20 h 5 5 v -5 -5 h 5 5 v -5 -5 h 5 5 v -5 -5 h 5 5 v -5 -5 h 10 10 v 5 5 h 5 5 v 20 20 h 5 5 v 5 5 h 15 15 v 5 5 h 10 10 v 10 10 h -5 -5 v 5 5 h -5 -5 v 5 5 h -5 -5 v 5 5 h -5 -5 v 5 5 h -15 -15 v 5 5 h -10 -10 v 5 5 h 10 10 v 5 5 h 10 10 v 5 5 h 10 10 v 5 5 h 5 5 v 5 5 h 10 10 v 15 15 h -5 -5 v 5 5 h -20 -20 v 5 5 h -5 -5 v 15 15 h -5 -5 v 10 10 h -10 -10 v -5 -5 h -5 -5 v -5 -5 h -5 -5 v -5 -5 h -5 -5 v -5 -5 h -5 -5 v -25 -25 h -5 -5 v -5 -5 h -5 -5 v 5 5 h -5 -5 v 20 20 h -5 -5 v 10 10 h -5 -5 v 5 5 h -5 -5 v 5 5 h -5 -5 v 5 5 h -10 -10 z"
         id="path792" /><path
         style="fill:none;stroke:#000000;stroke-opacity:1"
         d="m 1249.0235,2020.6075 v -5 h -5 -5 v -5 -5 h -5 -5 v -5 -5 h -5 -5 v -5 -5 h -5 -5 v -10 -10 h -5 -5 v -5 -5 h -10 -10 v -5 -5 h -5 -5 v -5 -5 h -5 -5 v -5 -5 h -5 -5 v -5 -5 h -5 -5 v -60 -60 h 10 10 v -5 -5 h 5 5 v -5 -5 h 5 5 v -10 -10 h 10 10 v -15 -15 h -10 -10 v -5 -5 h -5 -5 v -5 -5 h -5 -5 v -5 -5 h -5 -5 v -5 -5 h -5 -5 v -25 -25 h -5 -5 v -5 -5 h -10 -10 v -15 -15 h -5 -5 v -10 -10 h 5 5 v -40 -40 h -5 -5 v -5 -5 h 5 5 v -15 -15 h 5 5 v -5 -5 h 5 5 v -5 -5 h -5 -5 v -5 -5 h -10 -10 v 5 5 h -5 -5 v 5 5 h -10 -10 v -5 -5 h -10 -10 v -5 -5 h 5 5 v -5 -5 h 5 5 v -5 -5 h 5 5 v -5 -5 h 5 5 v -5 -5 h 10 10 v -10 -10 h 5 5 v -5 -5 h 10 10 v -5 -5 h 5 5 v -5 -5 h 10 10 v 5 5 h 5 5 v 5 5 h 40 40 v 5 5 h 5 5 v 10 10 h 30 29.9999 v 5 5 h 5 5 v 20 20 h -5 -5 v 5 5 h -4.9999 -5 v 5 5 h -5 -5 v 5 5 h -5 -5 v 5 5 h -10 -10 v 5 5 h -5 -5 v 5 5 h -5 -5 v 20 20 h 5 5 v 5 5 h 10 10 v 5 5 h 35 34.9999 v 5 5 h 5 5 v 5 5 h 20 20 v -100 -100 h -5 -5 v -5 -5 h -5 -5 v -5 -5 h -10 -10 v -50 -50 h 5 5 v -5 -5 h -5 -5 v -35 -35 h 5 5 v -10 -10 h 10 10 v -5 -5 h 5 5 v -45 -45 h -5 -5 v -5 -5 h -15 -15 v 10 10 h -10 -10 v -10 -10 h -15.5 -15.4999 v -15 -15 h 15.4999 15.5 v -10 -10 h 10 10 v 10 10 h 15 15 v -5 -5 h 5 5 v -29.99998 -30 h -20 -20 v -15 -15 h 20 20 v -20 -20 h 15 15 v 20 20 h 20 20 v 15 15 h -20 -20 v 30 29.99998 h 5 5 v 5 5 h 15 15 v -10 -10 h 10 10 v 10 10 h 15 15 v 15 15 h -15 -15 v 10 10 h -10 -10 v -10 -10 h -15 -15 v 5 5 h -5 -5 v 45 45 h 5 5 v 5 5 h 50 50 v 5 5 h 10 10 v -5 -5 h 35 35 v 10 10 h 5 5 v 5 5 h 15 15 v 5 5 h 20 20 v -5 -5 h 30 30 v 5 5 h 15 15 v 15 15 h -10 -10 v 5 5 h -5 -5 v 10 10 h -5 -5 v 5 5 h -10 -10 v 5 5 h -5 -5 v 10 10 h -10 -10 v 10 10 h 5 5 v 5 5 h 5 5 v 5 5 h 5 5 v 5 5 h 5 5 v 5 5 h 5 5 v 5 5 h 5 5 v 5 5 h 5 5 v 5 5 h 5 5 v 5 5 h 5 5 v 10 10 h -5 -5 v 5 5 h -15 -15 v -5 -5 h -10 -10 v 5 5 h -40 -40 v -5 -5 h -10 -10 v -5 -5 h -10 -10 v -5 -5 h -35 -35 v -5 -5 h -10 -10 v -10 -10 h -5 -5 v -5 -5 h -25 -25 v 5 5 h -15 -15 v 50 50 h -5 -5 v 55 55 h 55 55 v -5 -5 h 10 10 v -5 -5 h 45 45 v 5 5 h 5 5 v 5 5 h 5 5 v 5 5 h 20 20 v 5 5 h 15 15 v 10 10 h 5 5 v 5 5 h 5 5 v 5 5 h 5 5 v 5 5 h 5 5 v 5 5 h 10 10 v 15 15 h 5 5 v 25 25 h 5 5 v 10 10 h 5 5 v 15 15 h -10 -10 v -5 -5 h -5 -5 v -10 -10 h -10 -10 v -5 -5 h -5 -5 v -10 -10 h -5 -5 v -20 -20 h -5 -5 v -5 -5 h -5 -5 v 35 35 h -5 -5 v 5 5 h -5 -5 v 5 5 h -5 -5 v 25 25 h 5 5 v 5 5 h 5 5 v 5 5 h 5 5 v 5 5 h 5 5 v 5 5 h 5 5 v 10 10 h 5 5 v 15 15 h -5 -5 v 10 10 h -5 -5 v 5 5 h -5 -5 v 20 20 h -5 -5 v 10 10 h -10 -10 v 5 5 h -5 -5 v 10 10 h -25 -25 v -5 -5 h -5 -5 v -10 -10 h 5 5 v -5 -5 h 5 5 v -5 -5 h 5 5 v -10 -10 h 10 10 v -5 -5 h 5 5 v -20 -20 h -5 -5 v -5 -5 h -5 -5 v -5 -5 h -5 -5 v -5 -5 h -5 -5 v -5 -5 h -5 -5 v 5 5 h -5 -5 v 15 15 h -5 -5 v 10 10 h -10 -10 v 5 5 h -5 -5 v 10 10 h -10 -10 v 5 5 h -5 -5 v 10 10 h -10 -10 v 5 5 h -20 -20 v -5 -5 h -5 -5 v -10 -10 h 5 5 v -5 -5 h 5 5 v -5 -5 h 5 5 v -10 -10 h 5 5 v -5 -5 h 10 10 v -25 -25 h -5 -5 v -5 -5 h -5 -5 v -5 -5 h -5 -5 v -5 -5 h -5 -5 v -5 -5 h -5 -5 v -5 -5 h -5 -5 v -5 -5 h -5 -5 v -5 -5 h -10 -10 v 5 5 h -5 -5 v 5 5 h -5 -5 v 5 5 h -10 -10 v 65 65 h -10 -10 v -5 -5 h -5 -5 v -60 -60 h -30 -30 v 5 5 h -5 -5 v 10 10 h 5 5 v 20 20 h -5 -5 v 50 50 h -10 -9.9999 v 5 5 h -5 -5 v 5 5 h -10 -10 v 5 5 h -20 -20 z m 20,-45 v -10 h 5 5 v -5 -5 h 10 10 v -5 -5 h 5 5 v -20 -20 h -5 -5 v -5 -5 h -5 -5 v -5 -5 h -5 -5 v -10 -10 h -5 -5 v -35 -35 h -10 -10 v 5 5 h -5 -5 v 5 5 h -5 -5 v 5 5 h -5 -5 v 5 5 h -5 -5 v 5 5 h -5 -5 v 5 5 h -5 -5 v 5 5 h -5 -5 v 10 10 h 10 10 v 5 5 h 5 5 v 10 10 h 5 5 v 5 5 h 5 5 v 5 5 h 5 5 v 20 20 h 5 5 v 5 5 h 10 10 z m 269.9999,-660 v -30 h 20 20 v 15 15 h 15 15 v 5 5 h 50 50 v -20 -20 h -35 -35 v -5 -5 h -10 -10 v -15 -15 h -20 -20 v -5 -5 h -20 -20 v -35 -35 h -20 -20 v 35 35 h -35 -35 v 20 20 h 35 35 v 35 35 h 20 20 z"
         id="path1591" /></g></g></svg>
