<svg xmlns="http://www.w3.org/2000/svg" viewBox="0 0 334 326"><style>.bg{fill:#fff}.fg{stroke:#434c5e;fill:#434c5e;stroke-linejoin:round;stroke-linecap:round}@media (prefers-color-scheme:light){.bg{fill:#4c566a}.fg{stroke:#fff;fill:#fff}}</style><path fill="#fff" d="M168.72 17.281c-80.677 0-146.06 65.386-146.06 146.06 0 80.677 65.386 146.09 146.06 146.09 80.677 0 146.09-65.417 146.09-146.09 0-80.677-65.417-146.06-146.09-146.06m2.906 37.812c21.086.352 41.858 7.61 59.156 19.688 40.942 26.772 56.481 83.354 38.875 128.22-16.916 45.3-67.116 74.143-114.72 67.844-50.947-5.28-92.379-52.101-94.563-102.72-4.089-58.654 48.31-113.56 107.03-113a96 96 0 0 1 4.219-.031z" class="bg"/><path fill="#fff" d="M166.45 51.969c-11.386.159-21.538 7.213-24 12.25 3.263 3.369 6.337 8.536 7.375 19.5v159.78c-1.077 10.727-4.146 15.792-7.375 19.125 2.416 4.942 12.251 11.811 23.375 12.219v.031h4.812c11.386-.159 21.538-7.213 24-12.25-3.263-3.368-6.337-8.536-7.375-19.5V83.344c1.078-10.727 4.147-15.792 7.375-19.125-2.41-4.938-12.25-11.807-23.37-12.215v-.031h-4.812z" class="bg"/><path fill="#fff" d="M280 161.33c-.159-11.386-7.213-21.538-12.25-24-3.368 3.263-8.536 6.337-19.5 7.375H88.47c-10.727-1.077-15.792-4.146-19.125-7.375-4.942 2.416-11.811 12.251-12.219 23.375h-.031v4.812c.159 11.386 7.213 21.538 12.25 24 3.368-3.262 8.536-6.337 19.5-7.375h159.78c10.727 1.078 15.792 4.147 19.125 7.375 4.942-2.415 11.81-12.25 12.219-23.375H280zM139.184 111.168c0 12.61-10.222 22.833-22.833 22.833s-22.833-10.222-22.833-22.833 10.222-22.833 22.833-22.833 22.833 10.222 22.833 22.833M243.405 111.19c0 12.61-10.222 22.833-22.833 22.833s-22.833-10.222-22.833-22.833 10.222-22.833 22.833-22.833 22.833 10.222 22.833 22.833M139.313 215.494c0 12.61-10.222 22.833-22.833 22.833s-22.833-10.222-22.833-22.833 10.222-22.833 22.833-22.833 22.833 10.222 22.833 22.833M243.605 215.394c0 12.61-10.222 22.833-22.833 22.833s-22.833-10.222-22.833-22.833 10.222-22.833 22.833-22.833 22.833 10.222 22.833 22.833" class="bg"/><g fill="#434c5e" stroke="#434c5e" stroke-linecap="round" stroke-linejoin="round" class="fg"><path d="m125.64 31.621-.072-.254 7.1-2.02q3.788-1.08 5.744-.722 1.957.357 3.102 1.393 1.144 1.035 1.731 3.098.9 3.162-.828 5.372-1.729 2.21-5.484 3.206l-.068-.237q2.367-.674 3.433-2.549t.391-4.242q-.525-1.842-1.65-3.067-1.126-1.224-2.638-1.597-1.514-.374-4.185.387l-1.775.505 6.068 21.319q.514 1.809 1.02 2.04.504.231 1.637-.091l.067.236-6.577 1.872-.067-.236q1.758-.5 1.301-2.107l-5.87-20.626q-.376-1.319-.837-1.653-.461-.336-1.543-.027zM169.99 38.101l-7.557.142-3.736 9.862q-.384 1.063-.38 1.309.01.58.872.563l.005.246-3.849.073-.005-.246q.774-.015 1.294-.403t1.123-1.981l8.94-23.867.44-.008 9.674 22.709q.003.175.743 1.647t2.198 1.445l.005.246-6.046.113-.005-.246q.826-.015.814-.666-.009-.44-.43-1.398a.6.6 0 0 1-.128-.226q-.038-.175-.056-.175zm-7.325-.583 6.995-.132-3.663-8.757zM215.05 32.098l-.075.253q-1.01-.43-2.16.474-.017-.005-.065.035a.2.2 0 0 1-.076.07l-.19.145q-.115.075-.125.11l-.218.117-8.977 7.025 4.31 13.156q.682 2.259 1.186 2.968.503.711 1.125.84l-.07.237-6.165-1.84.07-.237q.777.288.958-.32.145-.487-.15-1.402l-3.755-11.449-9.424 7.295q-.004.017-.563.474-.616.403-.741.824-.15.505.706.706l-.07.236-3.706-1.106.07-.236q.81.241 1.601-.2l.377-.218 11.393-8.853-4.218-12.908q.07-.236-.378-1.067-.45-.832-1.261-1l.075-.253 6.25 1.866-.076.252q-1.01-.3-1.177.254-.12.405.236 1.483l3.096 9.418 8.266-6.43a9 9 0 0 0 .402-.393q.38-.381.415-.5.085-.285-.068-.415-.155-.127-.66-.28l.075-.252z" transform="rotate(1.184 237.788 106.5)"/></g><g fill="#434c5e" stroke="#434c5e" stroke-linecap="round" stroke-linejoin="round" class="fg"><path d="m235.06 72.827-.266-.202 6.464-23.724q.675-2.513.42-3.225-.253-.711-.785-1.116l.16-.21 4.757 3.617-.16.21q-.597-.52-1.001.011-.16.21-.257.512l-5.678 20.745 18.416-11.04q.37-.227.52-.422.36-.477-.413-.998l.16-.21 3.093 2.351-.16.21a3.5 3.5 0 0 0-.748-.425q-.426-.18-1.282.162-.857.343-.903.374zM278.77 79.16l.223-.14 3.919 6.215q1.49 2.364 2.052 3.486.561 1.12.672 2.6.11 1.478-.536 2.675-.648 1.198-2.105 2.117-1.666 1.05-3.808.997-2.142-.052-4.336-1.225l-1.404 3.047q-.574 1.067-2.218 5.15-1.645 4.08-1.557 5.687t.791 2.722q.694 1.101 2.441 1.994l-.24.277q-2.583-.867-4.383-3.721-1.2-1.903-.94-3.98.26-2.074 3.179-8.653.01-.048.04-.067l2.003-4.338-1.287-1.91-1.116-1.77-8.386 5.287q-1.011.638-1.281 1.182t.377 1.57l-.209.132-3.571-5.666.208-.131q.71 1.028 1.276 1.035.565.006 1.8-.771l17.411-10.978q.848-.535 1.265-1.11.417-.574-.28-1.713zm2.23 4.329-10.275 6.478 1.444 2.29q1.707 2.706 3.81 3.208 2.104.502 4.186-.81 2.022-1.275 3.018-3.7.995-2.425-1.048-5.667zM304.97 139.01l-2.88 1.92-.08-.198q.016-.004.793-1.182a6.9 6.9 0 0 0 1.037-2.527q.26-1.349-.092-2.89-.59-2.589-2.42-3.767-1.828-1.178-3.919-.7-1.388.317-2.262 1.265t-1.25 3.413q-.414 4.188-.747 5.77t-1.606 3.269-3.74 2.252a8 8 0 0 1-2.018.208 6.7 6.7 0 0 1-1.975-.36 8 8 0 0 1-1.868-.917q-.882-.583-1.426-1.27-.545-.687-1.113-2.307-.569-1.619-.69-2.15l-1.537-6.735 7.334-1.675.059.257q-3.643.869-4.699 2.876-1.056 2.008-.245 5.556.735 3.222 2.642 4.544 1.906 1.323 4.049.834 1.303-.298 2.086-1.09.784-.792 1.24-1.996.454-1.203.783-4.344.35-3.127.844-4.475.495-1.348 1.849-2.487 1.353-1.139 2.947-1.502 2.931-.67 5.378.89c2.447 1.56 2.697 2.651 3.196 4.833q.29 1.269.334 2.809t0 1.73a.3.3 0 0 0-.004.146zM305.53 190.02l-.63 4.97-.26-.033q.108-1.138-.282-1.63-.39-.493-1.82-.673l-23.385-2.961 24.41-17.729-19.008-2.406q-.907-.115-1.36-.03-.455.083-.644.325-.19.242-.48 1.268l-.244-.03.625-4.936.244.031q-.168 1.326.262 1.708t2.209.607l17.387 2.201q2.285.29 3.812-.164 1.529-.453 1.715-2.768l.262.033-.612 4.83-22.945 16.656 18.136 2.296q1.466.186 1.854-.297.389-.482.493-1.302zM289.19 232.48l-3.433-.436.068-.202q.016.007 1.374-.373a6.9 6.9 0 0 0 2.439-1.23q1.08-.849 1.824-2.245 1.248-2.342.638-4.43c-.61-2.088-1.24-2.425-2.502-3.097q-1.257-.67-2.538-.526-1.282.143-3.18 1.76-3.056 2.893-4.343 3.87-1.288.977-3.356 1.418-2.068.442-4.302-.749a8 8 0 0 1-1.66-1.164 6.7 6.7 0 0 1-1.256-1.566 8 8 0 0 1-.812-1.917q-.283-1.018-.245-1.893.04-.876.67-2.472.632-1.595.888-2.076l3.25-6.096 6.639 3.539-.124.232q-3.32-1.73-5.434-.904-2.114.825-3.825 4.036-1.555 2.916-.98 5.165.573 2.248 2.513 3.282 1.179.629 2.29.543 1.11-.084 2.243-.696 1.133-.611 3.438-2.769 2.313-2.133 3.57-2.828t3.025-.668 3.211.796q2.653 1.413 3.48 4.195.828 2.782-.751 5.745a14.6 14.6 0 0 1-1.587 2.341q-.975 1.194-1.135 1.307a.3.3 0 0 0-.097.108M253.71 273.01l-3.085 2.667-.172-.2q1.486-1.425.141-2.98a10 10 0 0 0-.873-.848l-14.878-13.07q-1.152-.955-1.655-1.067-.502-.11-1.291.455l-.161-.186 4.401-3.806.161.186q-.887.72-.129 1.599.173.2.759.715l14.434 12.663-6.994-22.279.133-.115 21.053 10.078-10.527-16.18a6.4 6.4 0 0 0-.603-.804q-.666-.771-1.557 0l-.161-.187 2.992-2.587.16.187q-.678.586-.721.926c-.043.34.027.492.166.797q.21.457.548.955l11.448 17.755q1.683.846 2.458.64t1.28-.642l.173.2-3.696 3.195-20.742-10.067zM205.18 269.68l.311-.12 16.841 17.916q1.79 1.888 2.53 2.044.738.157 1.361-.086l.096.246-5.571 2.164-.096-.246q.757-.237.515-.86a1.7 1.7 0 0 0-.302-.486l-14.712-15.689-.221 21.471q-.001.435.088.664.216.557 1.066.17l.095.246-3.621 1.407-.096-.246q.378-.146.754-.415.376-.27.532-1.178.156-.91.153-.965z"/></g><g fill="#434c5e" stroke="#434c5e" stroke-linecap="round" stroke-linejoin="round" class="fg"><path d="m113.7 291.67.125-3.458.208.05q-.007.015.495 1.334a6.9 6.9 0 0 0 1.444 2.318q.944 1 2.4 1.615 2.445 1.033 4.47.238t2.86-2.771q.553-1.312.295-2.575t-2.04-3.009q-3.156-2.782-4.244-3.978-1.09-1.194-1.715-3.214t.36-4.352a8 8 0 0 1 1.01-1.758q.6-.787 1.447-1.392a8 8 0 0 1 1.835-.98q.989-.375 1.864-.415t2.522.445c1.646.485 1.813.556 2.148.697l6.364 2.689-2.928 6.93-.243-.103q1.425-3.463.412-5.493t-4.364-3.446q-3.044-1.286-5.232-.512-2.187.774-3.042 2.798-.52 1.23-.336 2.33.186 1.098.896 2.172.711 1.072 3.066 3.175 2.334 2.111 3.138 3.3.806 1.19.938 2.953.132 1.764-.504 3.27-1.17 2.769-3.866 3.844t-5.789-.232a14.6 14.6 0 0 1-2.474-1.37q-1.276-.864-1.404-1.013a.3.3 0 0 0-.116-.087zM68.299 260.77l-3.04-2.718.175-.197q1.604 1.292 2.975-.24.292-.33.73-.975l11.055-16.43q.8-1.264.847-1.777.045-.513-.616-1.223l.164-.183 4.338 3.877-.164.184q-.83-.788-1.602.077-.175.196-.613.843l-10.71 15.937 21.201-9.789.131.117-7.298 22.17 14.699-12.513q.345-.28.72-.7.68-.759-.199-1.545l.164-.183 2.949 2.636-.164.183q-.67-.597-1.01-.597-.345 0-.77.267-.428.267-.878.666l-16.14 13.63q-.623 1.777-.32 2.52.304.742.801 1.188l-.175.196-3.644-3.257 7.33-21.86zM39.292 218.38q-2.233-4.97-.63-9.487t6.126-6.548q5.82-2.615 11.439-.745 5.619 1.869 8.334 7.914 2.205 4.907.402 9.474t-6.292 6.584q-3.03 1.362-6.899 1.288-3.867-.075-7.241-2.2-3.375-2.127-5.24-6.28zm23.133-10.276q-1.095-2.438-3.468-4.223c-2.373-1.785-3.341-1.897-5.278-2.12q-2.905-.332-5.326.755-3.432 1.542-5.413 4.638a14.3 14.3 0 0 0-2.254 6.736q-.273 3.64.844 6.125 1.577 3.512 5.509 5.185 3.93 1.674 7.86-.09 5.018-2.256 7.248-7.458c2.23-5.202 1.58-6.651.278-9.548M54.305 176.72l-.246.01q-.054-1.21-.526-1.55t-1.579-.291l-21.178.937q-1.125.05-1.612.353t-.46 1.71l-.264.012-.307-6.937.263-.012q.043.966.306 1.342.263.375.602.483t1.516.056l18.158-.804q2.336-.103 3.242-1.27.908-1.166.787-3.888l-.14-3.16q-.102-2.283-1.273-3.295t-4.284-.998l-.011-.246 6.216-.275zM32.995 125.27l.255.065q-.177.48-.127 1.138t.413.868 1.828.585l19.261 4.925q1.567.4 1.949.362t.705-.346.563-1.244l.238.061-1.71 6.693-.24-.061q.323-1.26-.084-1.691-.406-.43-2.127-.87l-19.074-4.877q-1.788-.457-2.429-.258-.641.198-.877 1.408l-.256-.065zM71.729 102.86l-.18.281-24.16-4.576q-2.56-.474-3.248-.165-.69.309-1.051.871l-.222-.143 3.231-5.027.222.142q-.473.637.09.998.222.143.53.215l21.127 4.028-12.455-17.49q-.254-.351-.461-.485-.504-.323-.962.49l-.222-.143 2.1-3.268.222.142a3.5 3.5 0 0 0-.365.78q-.147.438.263 1.265.408.828.443.87zM76.563 57.963l-.158-.21 5.383-4.044q2.36-1.773 3.493-2.316a7.1 7.1 0 0 1 2.448-.663q1.317-.12 2.735.452 1.42.572 2.422 1.907 1.974 2.628.528 6.089 2.52-1.3 4.762-.685 2.242.613 3.814 2.707 1.468 1.954 1.694 4.29c.226 2.336-.06 2.827-.635 3.808q-.862 1.471-3.125 3.171l-7.997 6.007-.148-.196q.955-.718.933-1.305-.024-.588-1.217-2.176L79.777 59.197q-.844-1.124-1.214-1.484a1 1 0 0 0-.868-.293q-.5.067-1.132.542zm4.02-2.668 6.83 9.094 2.516-1.89q2.557-1.92 2.296-4.011-.261-2.09-1.348-3.538-1.173-1.56-2.605-2.121-1.434-.561-3.078-.161-1.645.4-4.063 2.216zm8.774 8.315-1.616 1.215 4.93 6.563q1.023 1.364 1.435 1.692t1.122.498 1.745-.178q1.035-.35 2.596-1.521 2.417-1.815 2.576-3.683t-1.489-4.06q-1.71-2.275-3.672-3.045-1.962-.768-3.312-.238t-4.315 2.757"/></g><g fill="#434c5e" stroke="#434c5e" stroke-linecap="round" stroke-linejoin="round" class="fg"><path d="m177.99 64.817.967 2.742h-.246q-3.762-3.744-8.86-3.744-5.291 0-8.551 3.147-3.261 3.146-3.261 7.61 0 2.76 1.45 6.347 1.45 3.585 4.58 5.897 3.128 2.312 7.575 2.312a17.9 17.9 0 0 0 5.722-.94q2.804-.942 4.175-2.523l.228.07-1.81 2.777q-4.395.95-5.704 1.125t-3.507.176q-8.139 0-11.646-3.77t-3.507-9.027q0-3.55 1.802-6.829t5.194-5.168q3.393-1.89 7.752-1.89 2.18 0 3.77.396 1.592.396 2.646.817l1.16.44a.2.2 0 0 1 .07.035zM173.39 106.17l1.23 3.234-.21.036q0-.018-.976-1.037a6.9 6.9 0 0 0-2.232-1.574q-1.257-.553-2.84-.553-2.653 0-4.21 1.52-1.555 1.52-1.555 3.665 0 1.424.73 2.487c.73 1.063 1.502 1.369 3.05 1.978q3.99 1.335 5.457 2.013 1.468.675 2.83 2.293t1.363 4.149q0 1.055-.246 2.013a6.7 6.7 0 0 1-.791 1.845q-.546.888-1.31 1.617-.764.73-1.556 1.108-.791.378-2.496.571-1.706.194-2.25.194h-6.908v-7.524h.264q.035 3.744 1.757 5.22 1.723 1.477 5.362 1.477 3.305 0 5.018-1.564 1.714-1.564 1.714-3.762 0-1.336-.597-2.276-.599-.94-1.67-1.652-1.073-.712-4.06-1.732-2.971-1.037-4.176-1.82-1.203-.78-2.012-2.355-.81-1.572-.809-3.208 0-3.005 2.065-5.044 2.066-2.04 5.423-2.04 1.3 0 2.813.3 1.512.298 1.687.386a.3.3 0 0 0 .14.035zM173.39 148.48l1.23 3.234-.21.036q0-.018-.976-1.038a6.9 6.9 0 0 0-2.232-1.573q-1.257-.553-2.84-.553-2.653 0-4.21 1.52-1.555 1.52-1.555 3.665 0 1.424.73 2.487c.73 1.063 1.502 1.369 3.05 1.978q3.99 1.335 5.457 2.013 1.468.675 2.83 2.293t1.363 4.149q0 1.054-.246 2.013a6.7 6.7 0 0 1-.791 1.845q-.546.888-1.31 1.617-.764.73-1.556 1.108-.791.378-2.496.571-1.706.194-2.25.194h-6.908v-7.524h.264q.035 3.744 1.757 5.22 1.723 1.477 5.362 1.477 3.305 0 5.018-1.564 1.714-1.565 1.714-3.762 0-1.336-.597-2.276-.599-.94-1.67-1.652-1.073-.712-4.06-1.732-2.971-1.037-4.176-1.82-1.203-.78-2.012-2.355-.81-1.572-.809-3.208 0-3.006 2.065-5.045t5.423-2.039q1.3 0 2.813.3 1.512.297 1.687.386a.3.3 0 0 0 .14.035zM177.34 190.47h4.078v.264q-2.057.104-2.056 2.162 0 .44.105 1.213l2.707 19.617q.246 1.476.554 1.89t1.274.5v.246h-5.818v-.246q1.142.036 1.142-1.125 0-.263-.105-1.037l-2.637-19.02-9.281 21.428h-.176l-9.334-21.393-2.619 19.125a6.4 6.4 0 0 0-.07 1.002q0 1.02 1.177 1.02v.246h-3.955v-.246q.897 0 1.152-.229.254-.228.395-.712.14-.483.211-1.08l2.953-20.919q-.72-1.74-1.441-2.092-.72-.351-1.389-.351v-.264h4.887l9.105 21.182zM158.85 258.68v-.246q1.213 0 1.573-.457t.36-1.565v-21.199q0-1.125-.28-1.626-.281-.5-1.688-.536v-.263h6.943v.263q-.966 0-1.353.246t-.51.58-.123 1.512v18.176q0 2.338 1.125 3.296t3.85.958h3.164q2.285 0 3.348-1.125 1.064-1.125 1.187-4.236h.246v6.222z"/></g><path fill="#fff" d="M151.78 146.77h33.325v33.325H151.78z" class="bg"/><g fill="#434c5e" stroke="#434c5e" stroke-linecap="round" stroke-linejoin="round" class="fg"><path d="M95.864 150.69h5.01v.264q-1.144.034-1.582.483-.44.448-.44 1.89v23.572l-20.654-21.99v19.16q0 .913.141 1.353t.404.598 1.319.316v.246h-4.975v-.246q1.335 0 1.661-.474.325-.475.325-2.268v-17.525q0-2.302-.641-3.762-.642-1.458-2.962-1.353v-.264h4.869l19.406 20.672v-18.28q0-1.478-.527-1.803-.528-.325-1.354-.325zM116.49 150.96v-.264h11.883q4.535 0 7.163.712 2.627.713 4.58 2.241 1.95 1.53 3.093 3.912 1.142 2.381 1.143 5.317 0 2.83-1.187 5.563-1.185 2.734-3.226 4.711-2.039 1.978-4.297 2.707-2.259.73-6.988.73H116.49v-.246h.317q.95 0 1.248-.765t.299-2.769v-18.86q0-2.11-.36-2.55-.361-.438-1.504-.439zm8.824.281h-3.972v20.092q0 1.898.641 2.822.641.923 2.189 1.335 1.546.414 4.166.414 7.277 0 10.222-3.736 2.944-3.735 2.944-8.147 0-5.186-4.034-8.983t-12.155-3.797zM172.31 151.03l1.23 3.234-.21.036q0-.018-.976-1.038a6.9 6.9 0 0 0-2.232-1.573q-1.257-.553-2.84-.553-2.653 0-4.21 1.52-1.554 1.52-1.555 3.665 0 1.424.73 2.487c.73 1.063 1.502 1.369 3.05 1.978q3.99 1.335 5.457 2.013 1.468.675 2.83 2.294 1.363 1.617 1.363 4.148a8 8 0 0 1-.246 2.013 6.7 6.7 0 0 1-.791 1.845q-.546.888-1.31 1.618-.764.729-1.556 1.107-.791.378-2.496.571-1.706.194-2.25.194h-6.908v-7.524h.264q.035 3.745 1.757 5.22 1.723 1.478 5.362 1.478 3.305 0 5.018-1.565 1.714-1.564 1.714-3.762 0-1.335-.597-2.276-.599-.94-1.67-1.652-1.073-.712-4.06-1.732-2.971-1.036-4.176-1.819-1.203-.782-2.012-2.355-.81-1.575-.809-3.208 0-3.006 2.065-5.045t5.423-2.04q1.3 0 2.813.3 1.512.299 1.687.386a.3.3 0 0 0 .14.035zM213.81 150.69h4.078v.264q-2.057.104-2.056 2.162 0 .44.105 1.213l2.707 19.617q.246 1.476.554 1.89t1.274.5v.246h-5.818v-.246q1.142.036 1.142-1.125 0-.263-.105-1.037l-2.637-19.02-9.281 21.428h-.176l-9.334-21.393-2.619 19.125a6.4 6.4 0 0 0-.07 1.002q0 1.02 1.177 1.02v.246h-3.955v-.246q.897 0 1.152-.229.254-.228.395-.712.14-.483.211-1.08l2.953-20.919q-.72-1.74-1.441-2.092-.72-.351-1.389-.351v-.264h4.887l9.105 21.182zM234.95 150.96v-.264h11.883q4.535 0 7.163.712 2.627.713 4.58 2.241 1.95 1.53 3.093 3.912t1.143 5.317q0 2.83-1.187 5.563-1.186 2.734-3.226 4.711t-4.297 2.707-6.988.73H234.95v-.246h.317q.95 0 1.248-.765t.299-2.769v-18.86q0-2.11-.36-2.55-.361-.438-1.504-.439zm8.824.281h-3.973v20.092q0 1.898.642 2.822.642.923 2.189 1.335 1.546.414 4.166.414 7.276 0 10.222-3.736 2.943-3.735 2.944-8.147 0-5.186-4.034-8.983-4.035-3.797-12.155-3.797z"/><g fill="#434c5e" stroke="#434c5e" class="fg"><path d="m124.76 99.299.967 2.742h-.246q-3.762-3.744-8.86-3.744-5.291 0-8.551 3.147-3.261 3.146-3.261 7.61 0 2.76 1.45 6.347 1.45 3.585 4.58 5.897 3.128 2.312 7.575 2.312a17.9 17.9 0 0 0 5.722-.94q2.804-.942 4.175-2.523l.228.07-1.81 2.777q-4.395.95-5.704 1.125t-3.507.176q-8.139 0-11.646-3.77t-3.507-9.027q0-3.55 1.802-6.829 1.801-3.278 5.194-5.168t7.752-1.89q2.18 0 3.77.396 1.592.396 2.646.817l1.16.44a.2.2 0 0 1 .07.035zM226.63 97.821l1.23 3.234-.21.036q0-.018-.976-1.037a6.9 6.9 0 0 0-2.232-1.574q-1.257-.553-2.84-.553-2.653 0-4.21 1.52-1.555 1.52-1.555 3.665 0 1.424.73 2.487.728 1.065 3.05 1.978 3.99 1.335 5.457 2.013 1.468.675 2.83 2.294 1.363 1.617 1.363 4.148a8 8 0 0 1-.246 2.013 6.7 6.7 0 0 1-.791 1.845q-.546.888-1.31 1.618-.764.729-1.556 1.107-.791.378-2.496.571-1.706.195-2.25.194h-6.908v-7.524h.264q.035 3.745 1.757 5.22 1.723 1.478 5.362 1.478 3.305 0 5.018-1.565 1.714-1.565 1.714-3.762 0-1.335-.597-2.276-.599-.94-1.67-1.652-1.073-.712-4.06-1.732-2.971-1.036-4.176-1.819-1.203-.782-2.012-2.355-.81-1.575-.809-3.208 0-3.006 2.065-5.045t5.423-2.04q1.3 0 2.813.3 1.511.299 1.687.386a.3.3 0 0 0 .14.035zM212.54 202.63v-.264h6.732q2.954 0 4.184.246a7.1 7.1 0 0 1 2.356.94q1.125.696 1.916 2.005.79 1.31.79 2.98 0 3.286-3.234 5.185 2.795.475 4.219 2.311 1.424 1.837 1.424 4.456 0 2.445-1.222 4.448t-2.795 2.663-4.403.659h-10.002v-.246q1.195 0 1.53-.483.333-.484.333-2.47v-19.512q0-1.406-.079-1.916a1 1 0 0 0-.519-.756q-.44-.246-1.23-.246zm4.816.281v11.373h3.147q3.2 0 4.245-1.828 1.046-1.828 1.046-3.639 0-1.95-.809-3.26t-2.364-1.978q-1.555-.668-4.58-.668zm2.022 11.918h-2.022v8.21q0 1.704.132 2.214t.598 1.072q.465.563 1.503.906c1.038.343 1.687.342 2.988.342q3.024 0 4.272-1.397t1.248-4.14q0-2.847-1.108-4.64-1.107-1.793-2.505-2.18t-5.106-.387M108.68 203.42v-.264h7.383q3.937 0 5.722.88 1.783.878 2.601 2.188.817 1.31.817 3.454 0 3.287-2.267 4.94-2.268 1.65-6.152 1.581v-.246q2.46 0 3.999-1.512c1.539-1.512 1.538-2.332 1.538-3.972q0-1.915-.747-3.402-.748-1.485-2.101-2.258-1.354-.774-4.13-.774h-1.847v22.166q0 1.881.422 2.241.423.36 1.6.36v.247h-6.838v-.246q1.828 0 1.828-1.67v-21.445q0-1.37-.351-1.82-.352-.447-1.477-.448z"/><path d="M139.19 59.343c0 9.98-8.09 18.07-18.07 18.07s-18.07-8.09-18.07-18.07 8.09-18.07 18.07-18.07 18.07 8.09 18.07 18.07" transform="translate(96.011 40.384)scale(.15488)"/><path d="M139.19 59.343c0 9.98-8.09 18.07-18.07 18.07s-18.07-8.09-18.07-18.07 8.09-18.07 18.07-18.07 18.07 8.09 18.07 18.07" transform="translate(203.55 40.283)scale(.15488)"/><path d="M139.19 59.343c0 9.98-8.09 18.07-18.07 18.07s-18.07-8.09-18.07-18.07 8.09-18.07 18.07-18.07 18.07 8.09 18.07 18.07" transform="translate(147.99 279.77)scale(.17299)"/><path d="M139.19 59.343c0 9.98-8.09 18.07-18.07 18.07s-18.07-8.09-18.07-18.07 8.09-18.07 18.07-18.07 18.07 8.09 18.07 18.07" transform="translate(131.66 277.84)scale(.15488)"/><path d="M139.19 59.343c0 9.98-8.09 18.07-18.07 18.07s-18.07-8.09-18.07-18.07 8.09-18.07 18.07-18.07 18.07 8.09 18.07 18.07" transform="translate(168.54 277.98)scale(.15488)"/><path d="M61.398 206.07c.387-6.3.788-12.891-3.92-17.556 2.215 1.316 3.774 2.289 5.017 5.437 1.208 3.062 2.435 10.148.939 15.254-.475-1.2-1.545-2.568-2.036-3.135z"/></g></g></svg>