<svg version="1.1" id="WL_UR_595_Hoehenweg_Schaechental_svg__Stanzschablone" x="0" y="0" xml:space="preserve" xmlns="http://www.w3.org/2000/svg" viewBox="0 0 213.1 212.8"><style type="text/css" id="style2">.WL_UR_595_Hoehenweg_Schaechental_svg__st0{fill:#52ae32}.WL_UR_595_Hoehenweg_Schaechental_svg__st1{fill:#c6c6c6}.WL_UR_595_Hoehenweg_Schaechental_svg__st2{fill:#fff}</style><g id="WL_UR_595_Hoehenweg_Schaechental_svg__g162" transform="translate(-189.8 -181.8)"><path class="WL_UR_595_Hoehenweg_Schaechental_svg__st0" d="M201 362.2c0 .7.4 1 1 1.2v-1.9h-.3c-.5 0-.7.2-.7.7z" id="WL_UR_595_Hoehenweg_Schaechental_svg__path4"/><path class="WL_UR_595_Hoehenweg_Schaechental_svg__st0" d="M202.5 376.4v.4c0 .5.1 1.4.8 1.4.3 0 .4-.3.4-.6.1-.8-.5-1-1.2-1.2z" id="WL_UR_595_Hoehenweg_Schaechental_svg__path6"/><path class="WL_UR_595_Hoehenweg_Schaechental_svg__st0" d="M316.1 216.3c7.4 0 10.3-7.3 10.3-12.6 0-5.4-2.3-10.3-8.6-10.3-6.5 0-9.6 7.1-9.6 13.1 0 5.3 2.7 9.8 7.9 9.8z" id="WL_UR_595_Hoehenweg_Schaechental_svg__path8"/><path class="WL_UR_595_Hoehenweg_Schaechental_svg__st0" d="M258.9 386.2h-3.5l.7-3.3-4.5-3.9c0 .1-.1.3-.1.4l-1.4 6.7h-3.5l2.1-9.9-2-2.6-.6 2.1c-.7-.4-1.6-.7-2.5-.7-2.8 0-4.3 2.6-4.3 5.1 0 1.7.6 3.5 3 3.5.9 0 1.9-.2 2.8-.7l-.4 2.8c-1.1.5-2.2.6-3.4.6-3.5 0-5.7-2.3-5.7-5.8 0-4.7 3.1-8.2 7.9-8.2.9 0 1.8.1 2.5.3l-6.2-8.1-1.7-9 2-5.2 2.9-2.5 4.6-2.7 5.1-1.5 6.3-2.1 8.8-1.3 8.1-.8 8.3-1.3 12.7-.4 4.5-.8-4.3.2-13.9-.2-10.2 1-4.4-.2-5.6-3.7h-6.1l-1.7-.8-7.8-4.8-7.8-3.8-5.1-.4-9-2.7-7.8-3.8-4.4.6-1.7 1.9 3.7.6 8.1 4 10.2 4.6 6.3 5.5 6.3 6.3-4.1.4-13.2 3.1-12.2 4.2-9.3 4.2-4 2.4 1.2.3v1.1l-2.6-.5-.8.5h.2c0 .1-.1.3-.1.4 0 .8.7 1.2 1.4 1.3l1.9.4v1.1l-3.7-.8c-.2 0-.4-.1-.6-.1v-1l.8.1c-.4-.2-.7-.5-.8-.9l-5.8 3.5-4.4 5.2v28.5h79.4l-10.3-9.2zm-54.4-3.5-4.6.1 4.6 2v1.4l-5.7.4v-1.1l4.4-.2-4.4-1.9v-1.5h4.4l-4.4-2v-1.2l5.7 2.7zm-1.1-3.5c-1.4 0-1.5-1.6-1.5-2.6v-.4h-.4c-.4 0-.5.5-.5.8 0 .5.1 1 .3 1.4l-.9-.2c-.2-.5-.3-.9-.3-1.4 0-.8.3-1.6 1.3-1.6.6 0 2.2.4 3 .5v.9l-.6-.1c.5.4.7.8.7 1.4.1.8-.3 1.3-1.1 1.3zm-1-6.1 2.1.5v1.1l-3.6-.8c-.3 0-.5-.1-.6-.1v-1.1l.4.1c-.3-.3-.5-.7-.5-1.2 0-.8.5-1.4 1.4-1.4.3 0 .7.1.9.1l2 .4v1.1l-2-.4c-.3-.1-.6-.1-.9-.1-.4 0-.6.2-.6.6 0 .8.7 1.1 1.4 1.2zm.4-3.6c-1.3 0-2.7-.7-2.7-2.1 0-.5.2-1 .6-1.3l-2.4-.5v-1.1l5.2 1.1c.4.1.7.1.9.2v1l-.6-.1c.5.3.7.7.7 1.4.1 1-.7 1.4-1.7 1.4zm0-4.9c-1.3 0-2.6-1-2.6-2.4 0-1 .5-1.7 1.6-1.7.3 0 .6 0 .9.1v3c.8 0 1.1-.4 1.1-1.2 0-.5-.1-.9-.3-1.3l.9.1c.1.4.2.9.2 1.3 0 1.2-.6 2.1-1.8 2.1zm30.8 6.9c-1.1-.5-2.4-.9-3.8-.9-1.3 0-3 .5-3 2.1 0 2.9 6.2 2.7 6.2 7.8 0 4.4-3.5 6.1-7.5 6.1-1.7 0-3.5-.4-5.2-1l.9-3.1c1.4.6 2.9 1.2 4.4 1.2 1.7 0 3.5-.9 3.5-2.8 0-3.3-6.2-2.8-6.2-7.6 0-3.8 3.3-5.5 6.8-5.5 1.6 0 3.2.2 4.7.8z" id="WL_UR_595_Hoehenweg_Schaechental_svg__path10"/><path class="WL_UR_595_Hoehenweg_Schaechental_svg__st0" d="m394 316.2-6.1-5.2-8.1-3.4-4.4-6.3-1.3-1.3-3.4-1.4-6.3-1-6.6-.2-8.5-1.7-8.3-3.9-4.7-.3-6.6 2.7-4.9 1.3-4.9.6-1.6.8.1.1-2 1.5c-.1.1-.2.1-.3.2l.9 2.4s-7 1.8-7.2 1.9c-.2.1-6.3 1.9-6.6 2-.3.1-4.7 1.8-4.7 1.8-.5.2-1.1.3-1.7.3h-8.5c-1.5.9-4.1 2.5-4.1 2.5l-5.6 3.4-4.6-5.7s5.6-3.4 5.6-3.3l5.1-3.1c.7-.4 1.5-.7 2.4-.7h8.9c1.1-.4 4.1-1.6 4.1-1.6.1 0 .2-.1.3-.1l6.8-2.1c.1 0 .1 0 .2-.1l.3-.1c-.7-.7-1.8-1.6-1.8-1.7l-1.4-1.4c-.2-.1-1.1-.8-1.3-.9-.3-.2-2.1-1-2.1-1s-2.9-1.4-3.3-1.6c-.4-.1-3-.6-3-.6-.1 0-.3-.1-.4-.1l-1.7-.8c-.1-.1-.2-.1-.3-.2 0 0-1.1-.9-1.2-1-.1-.1-2.1-1.4-2.3-1.6-.2-.1-5.1-2.4-5.3-2.4-.2-.1-4.1-1.4-4.1-1.4s-.1 0-.1-.1l-4.2-1.9c-.1-.1-.2-.1-.3-.2 0 0-2.5-1.9-2.7-2-.1-.1-2.3-1.4-2.8-1.6-1-.1-3.8-.4-3.9-.4l-4.5-.6c-.4-.1-.7-.2-1-.5 0 0-3.3-3.5-3.9-4.1-.8-.2-3.5-.7-3.5-.7-.1 0-.3-.1-.4-.1 0 0-1.9-.9-2.4-1.1-.6 0-3.4-.2-3.4-.2-.3 0-.5-.1-.7-.2l-3-1.6s-1.4.4-2.7.7l-2.8 2.5 1 1.5 1.5 2.1 2 1.7 1-2.5 5.1 3.6 2.7 1.9 2.7 3.4 2.4-3.4 2 2.7-.2 2.9-2.9-.4-1.7-.6-2.2.2-3.4-1.7-1.7.6 1.7 3.1.7 2.5 3.7 1 3.2 1 6.6 5.5-7.8-.2h-3.9l-2-.8-3.4-5-3.7-6.1-1.5-.2-2.2-2.5-2.2-1.3v-2.9L232 277v-4.4l-1.7 1.8-3.7 1.3-2.9 1-1 1 2 3.1-1 1.7-1.5 2.5-2-.2-2.4-2.7h-3.9l-4.6.6-2.4 1.3-1.5 1.9-3.2-1-2.7-2.5-2.7-.8-2.4 2.9-4.2-1.6v12.6l1.5.5 4.9 1.7 7.6 2.1 9.5 5 8.5 1.9 9.3 2.9 14.9 5 9.8 5.7 9.3 4.4 21.7 8.2 17.3 3.5 1.8-.3 7.3-1.1 7.3-.4h8.1l9.3-1.1 7.1.2 10.5.4 8.3-.2 18.3-1.9 7.3-.2 3.9-.6 2.4-.8 5.1-.8.7-.2h1v-8.5l-1-.4z" id="WL_UR_595_Hoehenweg_Schaechental_svg__path12"/><path class="WL_UR_595_Hoehenweg_Schaechental_svg__st0" d="M374.3 207.1c17 0 27.4 6.8 27.4 22.4 0 18.2-17 27.7-32.8 27.7-6.5 0-14.9-1.6-20.9-4.4l2.8-14.6c5.6 3.4 11.2 4.2 16 4.2 8.3 0 16-3.5 16-12 0-8.1-7-10.7-14.3-10.7-4.8 0-9.3.6-13.6 1.6L363 182h-36.3c10.4 3.4 16.2 12.7 16.2 25.8 0 25.4-10.3 49.4-37.7 49.4-6.9 0-14.1-1.8-20-5.5l4.4-13.3c4.4 3.1 9.9 4.8 15.2 4.8 12.1 0 16.7-8.5 18.7-18.2l-.2-.2c-3.4 2.9-7.7 4.1-12 4.1-11.9 0-20.1-8.2-20.1-22.1 0-12.6 6.3-21.6 16.4-24.9h-22.1l-2.3 13.2h-30.4l-2.2 11.9c17 0 27.4 6.8 27.4 22.4 0 18.2-17 27.7-32.8 27.7-6.5 0-14.9-1.6-20.9-4.4l2.8-14.6c5.6 3.4 11.2 4.2 16 4.2 8.3 0 16-3.5 16-12 0-8.1-7-10.7-14.3-10.7-4.8 0-9.3.6-13.6 1.6l7.9-39.4H190v88.6c.3 0 .7-.1.8-.1.3-.1 2-1 2-1 .2-.1.5-.1.8-.1 0 0 .6.2 1.1.3.5-.4 1.5-1.3 1.5-1.3.2-.2.4-.3.7-.3h2.4s3.9-.2 4.1-.2c.1 0 2.4-.4 3-.5.3-.4 1-1.2 1-1.2l.1-.1 3.4-2.7c.1-.1.2-.1.3-.2l2.4-.8c.4-.1.8-.1 1.1.2 0 0 1.3 1.1 1.4 1.2.2.1 2.1 1.2 2.1 1.2.1 0 .1.1.2.1 0 0 1.7 1.4 2.1 1.8h1.2l4.1.8s2.2.4 2.3.4h1.2c.4-.2 2.2-.8 2.2-.7l2-.8c.1 0 .1 0 .2-.1l3.4-.8s4.5-1.2 4.8-1.2c.1-.1.6-.3 1-.5l.5-.7s3.1 1.6 3.6 1.9c.6 0 3.3.2 3.3.2.2 0 .4.1.6.2 0 0 2.2 1 2.6 1.2.4.1 3.8.8 3.8.8.3.1.6.2.8.5 0 0 3.2 3.4 3.8 4 1.2.2 3.8.5 3.8.5l4.2.4c.3 0 .5.1.7.2l3.2 1.9c.1 0 .1.1.2.1 0 0 2.3 1.8 2.6 2 .3.1 3.8 1.7 4 1.8.1 0 4.1 1.4 4.1 1.4.1 0 .1 0 .2.1l5.5 2.5c.1 0 .2.1.2.1l2.5 1.7.1.1s.9.7 1.1.9c.3.1 1.1.5 1.4.7.4.1 3 .6 3 .6.2 0 .3.1.4.1l3.5 1.7 2.2 1c.1 0 .2.1.2.1l1.5 1.1c.1 0 .1.1.2.2 0 0 1.5 1.5 1.5 1.4 0 0 1.7 1.6 2.2 2 .1 0 .3.1.6.1l2-.7 1.4.3.3-.1.1.2 1.1.2 3.2.6 2.9-2.3 2.4-2.1 6.8-2.1 1.7-.6.7-1.9 2.2-1.3 2.2-.8 4.1 1.5 1.2 1.3 4.1 1.3 2.7.6 6.6-2.9 2-1.7 2.2-2.1 2.7-.4 4.9-1.7 2.4-3.8 2.2-1.9h.1l.2-.5 5.6 1.3c.1 0 .2.1.3.1l2.2 1.4s2.4 1.5 2.5 1.5c0 0 1.2.9 1.5 1.1.4.1 3.4.4 3.4.4h.2l2.9.8c.1 0 .1 0 .2.1l2.8 1.4c.2 0 3 .6 3 .6.1 0 .2 0 .2.1l1.6.8c.2 0 1.1.2 1.6.3l1 .3v-89l-26 .1z" id="WL_UR_595_Hoehenweg_Schaechental_svg__path14"/><path class="WL_UR_595_Hoehenweg_Schaechental_svg__st0" d="m399.2 284.9-1.6-.8c-.2 0-3-.6-3-.6-.1 0-.2 0-.2-.1 0 0-2.7-1.4-2.9-1.4-.2 0-2.6-.8-2.8-.8-.2 0-3.6-.4-3.6-.4-.2 0-.3-.1-.4-.2l-1.6-1.2s-2.4-1.5-2.5-1.5l-2.1-1.4c-.1 0-.9-.2-1.8-.4l1.5 1.4 3.4 4.2 5.1.6 5.1 2.1 4.9.6h2.4l1.5.2.1-.1-1.3-.2c-.1.1-.2.1-.2 0z" id="WL_UR_595_Hoehenweg_Schaechental_svg__path16"/><path class="WL_UR_595_Hoehenweg_Schaechental_svg__st0" d="m193.4 275.9 3.2 1.5 4.6.2 3.2-.8 2.9-1.5 2.9-2.1 2-.6 4.1-.4h4.1l3.4-.8 2.9-1.5h.2c-.7-.1-1.5-.3-1.5-.3s-3.8-.8-4-.8h-1.3c-.3 0-.5-.1-.7-.3 0 0-2.2-1.9-2.4-2-.2-.1-2.1-1.2-2.1-1.2-.1 0-.1-.1-.2-.1 0 0-.6-.5-1-.9-.6.2-1.4.5-1.6.6-.2.2-3.1 2.4-3.2 2.6-.1.1-1.2 1.4-1.2 1.4-.1.2-.4.3-.6.3l-3.4.6h-.2s-4.1.2-4.2.2h-2c-.4.4-1.7 1.4-1.7 1.4-.3.2-.6.3-1 .2 0 0-.8-.2-1.3-.3-.5.2-1.8.9-1.8.9-.1.1-.2.1-.3.1 0 0-.5.1-1 .1-.1.2-.1.4-.1.4h-.2v1.4l.8.5z" id="WL_UR_595_Hoehenweg_Schaechental_svg__path18"/><path class="WL_UR_595_Hoehenweg_Schaechental_svg__st0" d="M202 366.4c-.5 0-1 .2-1 .8 0 .8 1.1 1.2 1.7 1.2.4 0 1-.1 1-.7 0-.8-.9-1.3-1.7-1.3z" id="WL_UR_595_Hoehenweg_Schaechental_svg__path20"/><path class="WL_UR_595_Hoehenweg_Schaechental_svg__st0" d="m399.9 283.6-1.6-.8c-.1 0-.2-.1-.2-.1s-2.8-.6-3-.6l-2.8-1.4c-.1 0-.1 0-.2-.1l-2.9-.8h-.2s-3-.3-3.4-.4c-.3-.2-1.5-1.1-1.5-1.1-.1 0-2.5-1.5-2.5-1.5l-2.2-1.4c-.1-.1-.2-.1-.3-.1l-5.6-1.3-.2.5h-.1l-2.2 1.9-2.4 3.8-4.9 1.7-2.7.4-2.2 2.1-2 1.7-6.6 2.9-2.7-.6-4.1-1.3-1.2-1.3-4.1-1.5-2.2.8-2.2 1.3-.7 1.9-1.7.6-6.8 2.1-2.4 2.1-2.9 2.3-3.2-.6-1.1-.2-.1-.2-.3.1-1.4-.3-2 .7c-.2-.1-.4-.1-.6-.1-.5-.4-2.2-2-2.2-2l-1.5-1.4-.2-.2-1.5-1.1c-.1-.1-.2-.1-.2-.1l-2.2-1-3.5-1.7c-.1-.1-.3-.1-.4-.1 0 0-2.6-.5-3-.6-.3-.1-1.1-.5-1.4-.7-.2-.2-1.1-.9-1.1-.9l-.1-.1-2.5-1.7c-.1-.1-.2-.1-.2-.1l-5.5-2.5c-.1 0-.1 0-.2-.1 0 0-4-1.4-4.1-1.4-.1-.1-3.7-1.6-4-1.8-.3-.2-2.6-2-2.6-2-.1 0-.1-.1-.2-.1l-3.2-1.9c-.2-.1-.5-.2-.7-.2l-4.2-.4s-2.6-.4-3.8-.5c-.6-.7-3.8-4-3.8-4-.2-.2-.5-.4-.8-.5 0 0-3.4-.7-3.8-.8-.3-.1-2.6-1.2-2.6-1.2-.2-.1-.4-.1-.6-.2 0 0-2.7-.2-3.3-.2-.6-.3-3.6-1.9-3.6-1.9l-.5.7c-.4.2-.9.5-1 .5-.2.1-4.8 1.2-4.8 1.2l-3.4.8c-.1 0-.1 0-.2.1 0 0-1.9.8-2 .8 0 0-1.7.6-2.2.7h-1.2c-.2 0-2.3-.4-2.3-.4l-4.1-.8h-1.2c-.5-.4-2.1-1.8-2.1-1.8s-.1-.1-.2-.1c0 0-2-1.1-2.1-1.2-.1-.1-1.4-1.2-1.4-1.2-.3-.2-.7-.3-1.1-.2l-2.4.8c-.1 0-.2.1-.3.2l-3.4 2.7c-.1 0-.1.1-.1.1s-.7.8-1 1.2c-.6.1-2.8.5-3 .5-.1 0-4.1.2-4.1.2H197c-.3 0-.5.1-.7.3 0 0-1 .9-1.5 1.3-.5-.1-1.1-.3-1.1-.3-.3-.1-.5 0-.8.1 0 0-1.8.8-2 1-.1 0-.5.1-.8.1v2.1h.2s.1-.2.1-.4c.5-.1 1-.1 1-.1.1 0 .2-.1.3-.1 0 0 1.3-.6 1.8-.9.5.1 1.3.3 1.3.3.4.1.7 0 1-.2 0 0 1.2-1.1 1.7-1.4h2c.1 0 4.2-.2 4.2-.2h.2l3.4-.6c.2 0 .5-.2.6-.3 0 0 1.1-1.3 1.2-1.4.1-.1 3-2.4 3.2-2.6.2-.1 1-.4 1.6-.6.4.4 1 .9 1 .9s.1.1.2.1c0 0 2 1.1 2.1 1.2.1.1 2.4 2 2.4 2 .2.2.4.3.7.3h1.3c.2 0 4 .8 4 .8s.8.1 1.5.3h-.2l-2.9 1.5-3.4.8h-4.1l-4.1.4-2 .6-2.9 2.1-2.9 1.5-3.2.8-4.6-.2-3.2-1.5-2.7-1.3-.8-.5v8.8l4.2 1.6 2.4-2.9 2.7.8 2.7 2.5 3.2 1 1.5-1.9 2.4-1.3 4.6-.6h3.9l2.4 2.7 2 .2 1.5-2.5 1-1.7-2-3.1 1-1 2.9-1 3.7-1.3 1.7-1.8v4.4l2.7-1.5v2.9l2.2 1.3 2.2 2.5 1.5.2 3.7 6.1 3.4 5 2 .8h3.9l7.8.2-6.6-5.5-3.2-1-3.7-1-.7-2.5-1.7-3.1 1.7-.6 3.4 1.7 2.2-.2 1.7.6 2.9.4.2-2.9-2-2.7-2.4 3.4-2.7-3.4-2.7-1.9-5.1-3.6-1 2.5-2-1.7-1.5-2.1-1-1.5 2.8-2.5c1.3-.3 2.7-.7 2.7-.7l3 1.6c.2.1.5.2.7.2 0 0 2.8.2 3.4.2.5.2 2.4 1.1 2.4 1.1.1.1.2.1.4.1 0 0 2.7.6 3.5.7.6.6 3.9 4.1 3.9 4.1.2.3.6.4 1 .5l4.5.6c.1 0 2.9.3 3.9.4.5.3 2.7 1.6 2.8 1.6.1.1 2.7 2 2.7 2 .1.1.2.1.3.2l4.2 1.9s.1 0 .1.1c0 0 4 1.4 4.1 1.4.1.1 5 2.3 5.3 2.4.2.1 2.2 1.5 2.3 1.6.1.1 1.2 1 1.2 1 .1.1.2.2.3.2l1.7.8c.1.1.3.1.4.1 0 0 2.6.5 3 .6.4.2 3.3 1.6 3.3 1.6s1.8.8 2.1 1c.2.1 1.1.8 1.3.9l1.4 1.4s1.1 1 1.8 1.7l-.3.1c-.1 0-.1 0-.2.1l-6.8 2.1c-.1 0-.2.1-.3.1 0 0-3 1.2-4.1 1.6H287c-.8 0-1.7.2-2.4.7l-5.1 3.1-5.6 3.3 4.6 5.7 5.6-3.4s2.6-1.6 4.1-2.5h8.5c.6 0 1.1-.1 1.7-.3 0 0 4.5-1.7 4.7-1.8.3-.1 6.4-2 6.6-2 .2-.1 7.2-1.9 7.2-1.9l-.9-2.4c.1 0 .2-.1.3-.2l2-1.5-.1-.1 1.6-.8 4.9-.6 4.9-1.3 6.6-2.7 4.7.3 8.3 3.9 8.5 1.7 6.6.2 6.3 1 3.4 1.4 1.3 1.3 4.4 6.3 8.1 3.4 6.1 5.2 7.5 4.3 1 .4v-36.7l-1-.3c-.4-.1-1.3-.3-1.5-.3zm.7 1.7-1.5-.2h-2.4l-4.9-.6-5.1-2.1-5.1-.6-3.4-4.2-1.5-1.4c.9.2 1.7.4 1.8.4.2.2 2.1 1.4 2.1 1.4l2.5 1.5 1.6 1.2c.1.1.3.2.4.2 0 0 3.4.4 3.6.4.1 0 2.6.7 2.8.8.1.1 2.9 1.4 2.9 1.4.1 0 .2.1.2.1s2.8.6 3 .6l1.6.8c.1 0 .2.1.2.1l1.3.2z" id="WL_UR_595_Hoehenweg_Schaechental_svg__path22"/><path class="WL_UR_595_Hoehenweg_Schaechental_svg__st1" d="m399.9 283.6-1.6-.8c-.1 0-.2-.1-.2-.1s-2.8-.6-3-.6l-2.8-1.4c-.1 0-.1 0-.2-.1l-2.9-.8h-.2s-3-.3-3.4-.4c-.3-.2-1.5-1.1-1.5-1.1-.1 0-2.5-1.5-2.5-1.5l-2.2-1.4c-.1-.1-.2-.1-.3-.1l-5.6-1.3-.2.5h-.1l-2.2 1.9-2.4 3.8-4.9 1.7-2.7.4-2.2 2.1-2 1.7-6.6 2.9-2.7-.6-4.1-1.3-1.2-1.3-4.1-1.5-2.2.8-2.2 1.3-.7 1.9-1.7.6-6.8 2.1-2.4 2.1-2.9 2.3-3.2-.6-1.1-.2-.1-.2-.3.1-1.4-.3-2 .7c-.2-.1-.4-.1-.6-.1-.5-.4-2.2-2-2.2-2l-1.5-1.4-.2-.2-1.5-1.1c-.1-.1-.2-.1-.2-.1l-2.2-1-3.5-1.7c-.1-.1-.3-.1-.4-.1 0 0-2.6-.5-3-.6-.3-.1-1.1-.5-1.4-.7-.2-.2-1.1-.9-1.1-.9l-.1-.1-2.5-1.7c-.1-.1-.2-.1-.2-.1l-5.5-2.5c-.1 0-.1 0-.2-.1 0 0-4-1.4-4.1-1.4-.1-.1-3.7-1.6-4-1.8-.3-.2-2.6-2-2.6-2-.1 0-.1-.1-.2-.1l-3.2-1.9c-.2-.1-.5-.2-.7-.2l-4.2-.4s-2.6-.4-3.8-.5c-.6-.7-3.8-4-3.8-4-.2-.2-.5-.4-.8-.5 0 0-3.4-.7-3.8-.8-.3-.1-2.6-1.2-2.6-1.2-.2-.1-.4-.1-.6-.2 0 0-2.7-.2-3.3-.2-.6-.3-3.6-1.9-3.6-1.9l-.5.7c-.4.2-.9.5-1 .5-.2.1-4.8 1.2-4.8 1.2l-3.4.8c-.1 0-.1 0-.2.1 0 0-1.9.8-2 .8 0 0-1.7.6-2.2.7h-1.2c-.2 0-2.3-.4-2.3-.4l-4.1-.8h-1.2c-.5-.4-2.1-1.8-2.1-1.8s-.1-.1-.2-.1c0 0-2-1.1-2.1-1.2-.1-.1-1.4-1.2-1.4-1.2-.3-.2-.7-.3-1.1-.2l-2.4.8c-.1 0-.2.1-.3.2l-3.4 2.7c-.1 0-.1.1-.1.1s-.7.8-1 1.2c-.6.1-2.8.5-3 .5-.1 0-4.1.2-4.1.2H197c-.3 0-.5.1-.7.3 0 0-1 .9-1.5 1.3-.5-.1-1.1-.3-1.1-.3-.3-.1-.5 0-.8.1 0 0-1.8.8-2 1-.1 0-.5.1-.8.1v2.1h.2s.1-.2.1-.4c.5-.1 1-.1 1-.1.1 0 .2-.1.3-.1 0 0 1.3-.6 1.8-.9.5.1 1.3.3 1.3.3.4.1.7 0 1-.2 0 0 1.2-1.1 1.7-1.4h2c.1 0 4.2-.2 4.2-.2h.2l3.4-.6c.2 0 .5-.2.6-.3 0 0 1.1-1.3 1.2-1.4.1-.1 3-2.4 3.2-2.6.2-.1 1-.4 1.6-.6.4.4 1 .9 1 .9s.1.1.2.1c0 0 2 1.1 2.1 1.2.1.1 2.4 2 2.4 2 .2.2.4.3.7.3h1.3c.2 0 4 .8 4 .8s.8.1 1.5.3h-.2l-2.9 1.5-3.4.8h-4.1l-4.1.4-2 .6-2.9 2.1-2.9 1.5-3.2.8-4.6-.2-3.2-1.5-2.7-1.3-.8-.5v8.8l4.2 1.6 2.4-2.9 2.7.8 2.7 2.5 3.2 1 1.5-1.9 2.4-1.3 4.6-.6h3.9l2.4 2.7 2 .2 1.5-2.5 1-1.7-2-3.1 1-1 2.9-1 3.7-1.3 1.7-1.8v4.4l2.7-1.5v2.9l2.2 1.3 2.2 2.5 1.5.2 3.7 6.1 3.4 5 2 .8h3.9l7.8.2-6.6-5.5-3.2-1-3.7-1-.7-2.5-1.7-3.1 1.7-.6 3.4 1.7 2.2-.2 1.7.6 2.9.4.2-2.9-2-2.7-2.4 3.4-2.7-3.4-2.7-1.9-5.1-3.6-1 2.5-2-1.7-1.5-2.1-1-1.5 2.8-2.5c1.3-.3 2.7-.7 2.7-.7l3 1.6c.2.1.5.2.7.2 0 0 2.8.2 3.4.2.5.2 2.4 1.1 2.4 1.1.1.1.2.1.4.1 0 0 2.7.6 3.5.7.6.6 3.9 4.1 3.9 4.1.2.3.6.4 1 .5l4.5.6c.1 0 2.9.3 3.9.4.5.3 2.7 1.6 2.8 1.6.1.1 2.7 2 2.7 2 .1.1.2.1.3.2l4.2 1.9s.1 0 .1.1c0 0 4 1.4 4.1 1.4.1.1 5 2.3 5.3 2.4.2.1 2.2 1.5 2.3 1.6.1.1 1.2 1 1.2 1 .1.1.2.2.3.2l1.7.8c.1.1.3.1.4.1 0 0 2.6.5 3 .6.4.2 3.3 1.6 3.3 1.6s1.8.8 2.1 1c.2.1 1.1.8 1.3.9l1.4 1.4s1.1 1 1.8 1.7l-.3.1c-.1 0-.1 0-.2.1l-6.8 2.1c-.1 0-.2.1-.3.1 0 0-3 1.2-4.1 1.6H287c-.8 0-1.7.2-2.4.7l-5.1 3.1-5.6 3.3 4.6 5.7 5.6-3.4s2.6-1.6 4.1-2.5h8.5c.6 0 1.1-.1 1.7-.3 0 0 4.5-1.7 4.7-1.8.3-.1 6.4-2 6.6-2 .2-.1 7.2-1.9 7.2-1.9l-.9-2.4c.1 0 .2-.1.3-.2l2-1.5-.1-.1 1.6-.8 4.9-.6 4.9-1.3 6.6-2.7 4.7.3 8.3 3.9 8.5 1.7 6.6.2 6.3 1 3.4 1.4 1.3 1.3 4.4 6.3 8.1 3.4 6.1 5.2 7.5 4.3 1 .4v-36.7l-1-.3c-.4-.1-1.3-.3-1.5-.3zm.7 1.7-1.5-.2h-2.4l-4.9-.6-5.1-2.1-5.1-.6-3.4-4.2-1.5-1.4c.9.2 1.7.4 1.8.4.2.2 2.1 1.4 2.1 1.4l2.5 1.5 1.6 1.2c.1.1.3.2.4.2 0 0 3.4.4 3.6.4.1 0 2.6.7 2.8.8.1.1 2.9 1.4 2.9 1.4.1 0 .2.1.2.1s2.8.6 3 .6l1.6.8c.1 0 .2.1.2.1l1.3.2z" id="WL_UR_595_Hoehenweg_Schaechental_svg__path24"/><path class="WL_UR_595_Hoehenweg_Schaechental_svg__st0" d="M202.5 351.8v.4c0 .5.1 1.4.8 1.4.3 0 .4-.3.4-.6.1-.8-.5-1.1-1.2-1.2z" id="WL_UR_595_Hoehenweg_Schaechental_svg__path26"/><path class="WL_UR_595_Hoehenweg_Schaechental_svg__st1" d="M202.5 351.8v.4c0 .5.1 1.4.8 1.4.3 0 .4-.3.4-.6.1-.8-.5-1.1-1.2-1.2z" id="WL_UR_595_Hoehenweg_Schaechental_svg__path28"/><path class="WL_UR_595_Hoehenweg_Schaechental_svg__st0" d="M201 314.8c0 .7.4 1 1 1.2v-1.9h-.3c-.5 0-.7.2-.7.7z" id="WL_UR_595_Hoehenweg_Schaechental_svg__path30"/><path class="WL_UR_595_Hoehenweg_Schaechental_svg__st1" d="M201 314.8c0 .7.4 1 1 1.2v-1.9h-.3c-.5 0-.7.2-.7.7z" id="WL_UR_595_Hoehenweg_Schaechental_svg__path32"/><path class="WL_UR_595_Hoehenweg_Schaechental_svg__st0" d="M286.7 358.8c2.7 0 4.1-3.1 4.1-5.4 0-1.7-.6-3.2-2.7-3.2-2.8 0-4.1 3-4.1 5.5 0 1.7.7 3.1 2.7 3.1z" id="WL_UR_595_Hoehenweg_Schaechental_svg__path34"/><path class="WL_UR_595_Hoehenweg_Schaechental_svg__st1" d="M286.7 358.8c2.7 0 4.1-3.1 4.1-5.4 0-1.7-.6-3.2-2.7-3.2-2.8 0-4.1 3-4.1 5.5 0 1.7.7 3.1 2.7 3.1z" id="WL_UR_595_Hoehenweg_Schaechental_svg__path36"/><path class="WL_UR_595_Hoehenweg_Schaechental_svg__st0" d="M265.8 382.5c0 .9.9 1.4 1.8 1.4 2.6 0 3.4-1.8 4-4h-1.2c-1.8.1-4.6.4-4.6 2.6z" id="WL_UR_595_Hoehenweg_Schaechental_svg__path38"/><path class="WL_UR_595_Hoehenweg_Schaechental_svg__st1" d="M265.8 382.5c0 .9.9 1.4 1.8 1.4 2.6 0 3.4-1.8 4-4h-1.2c-1.8.1-4.6.4-4.6 2.6z" id="WL_UR_595_Hoehenweg_Schaechental_svg__path40"/><path class="WL_UR_595_Hoehenweg_Schaechental_svg__st0" d="m400.8 329.6-5.1.8-2.4.8-3.9.6-7.3.2-18.3 1.9-8.3.2-10.5-.4-7.1-.2-9.3 1.1h-8.1l-7.3.4-7.3 1.1-1.8.3-17.3-3.5-21.7-8.2-9.3-4.4-9.8-5.7-14.9-5-9.3-2.9-8.5-1.9-9.5-5-7.6-2.1-4.9-1.7-1.5-.5v70.6l4.4-5.2 5.8-3.5c0-.1-.1-.2-.1-.3v-.4l.9.2.8-.5-3.6-.8v-1.1l4.9 1 4-2.4 9.3-4.2 12.2-4.2 13.2-3.1 4.1-.4-6.3-6.3-6.3-5.5-10.2-4.6-8.1-4-3.7-.6 1.7-1.9 4.4-.6 7.8 3.8 9 2.7 5.1.4 7.8 3.8 7.8 4.8 1.7.8h6.1l5.6 3.8 4.4.2 10.2-1 13.9.2 4.3-.2-4.5.8-12.7.4-8.3 1.3-8.1.8-8.8 1.3-6.3 2.1-5.1 1.5-4.6 2.7-2.9 2.5-2 5.2 1.7 9 6.2 8.1c.3.1.7.2 1 .2l-.2.7 2 2.6 2-9.6h3.5l-1.7 7.4h.1c1-.9 2.3-1.6 3.8-1.6 2.6 0 4.4 1.6 4.4 4.3 0 1-.3 2.1-.4 2.9l-1.3 5.8 10.3 9.2h133.2v-65.2h-1zm-200.5-23.2.9.2 2.5 2.6V307l.9.2v3.5l-.9-.2-2.5-2.6v1.9l-.9-.2zm0 4.3 4.2.9v1.1l-4.2-.9zm-1.8-.4 1 .2v1.1l-1-.2zm-.1 16.9 2.3.5c-.3-.3-.5-.7-.5-1.2 0-.8.5-1.4 1.4-1.4.3 0 .7.1.9.1l2 .4v1.1l-2-.4c-.3-.1-.6-.1-.9-.1-.4 0-.6.2-.6.6 0 .8.7 1 1.3 1.2l2.1.5v1.1l-6.1-1.3v-1.1zm1.9-6V320l3.2-.2-3.2-1.6V317l4.2 2.3v1.2l-3.2.2 3.2 1.5v1.2l-4.2.6v-1.1l3.2-.3zm3.1 33.4c-1.4 0-1.5-1.6-1.5-2.6v-.4h-.4c-.4 0-.5.5-.5.8 0 .5.1 1 .3 1.4l-.9-.2c-.2-.5-.3-.9-.3-1.4 0-.8.3-1.6 1.3-1.6.6 0 2.2.4 3 .5v.9l-.6-.1c.5.4.7.8.7 1.4.1.8-.3 1.3-1.1 1.3zm-1-6.1 2.1.5v1.1l-3.6-.8c-.3 0-.5-.1-.6-.1v-1.1l.4.1c-.3-.3-.5-.7-.5-1.2 0-.8.5-1.4 1.4-1.4.3 0 .7.1.9.1l2 .4v1.1l-2-.4c-.3-.1-.6-.1-.9-.1-.4 0-.6.2-.6.6 0 .8.7 1.1 1.4 1.2zm.4-3.6c-1.3 0-2.7-.7-2.7-2.1 0-.5.2-1 .6-1.3l-2.4-.5v-1.1l5.2 1.1c.4.1.7.1.9.2v1l-.6-.1c.5.3.7.7.7 1.4.1.9-.7 1.4-1.7 1.4zm1.5-7-1-.3c.2-.4.4-.9.4-1.4 0-.5-.3-1.1-.9-1.1-1 0-.9 2-2.4 2-1.2 0-1.7-1-1.7-2.1 0-.5.1-1 .3-1.5l.9.3c-.2.3-.3.8-.3 1.2 0 .4.2 1 .7 1 .9 0 .9-1.9 2.5-1.9 1.4 0 1.9 1.1 1.9 2.4-.1.3-.2.8-.4 1.4zm-1.5-4.9c-1.5 0-2.6-1-2.6-2.5 0-.4.1-.8.2-1.1l.9.3c-.1.2-.2.5-.2.8 0 .9.8 1.4 1.6 1.4.5 0 1.1-.2 1.1-.9 0-.3-.1-.6-.2-.9l.9.1c.2.3.2.7.2 1.1-.1 1-.8 1.7-1.9 1.7zm0-15.8c-1.3 0-2.6-1-2.6-2.4 0-1 .5-1.7 1.6-1.7.3 0 .6 0 .9.1v3c.8 0 1.1-.4 1.1-1.2 0-.5-.1-.9-.3-1.3l.9.1c.1.4.2.9.2 1.3 0 1.3-.6 2.1-1.8 2.1zm87.7 25.1h3l-.6 3h-3zm-5.4 0h3l-.6 3h-3zm3.2 5.2c3.6 0 6.1 2.2 6.1 5.9 0 4.7-3.3 8.1-8 8.1-3.8 0-6.1-2.3-6.1-6.1.1-4.5 3.5-7.9 8-7.9zm-14.8 38.7h-2.9l.4-2.1h-.1c-1.2 1.5-2.4 2.4-4.3 2.4-2.4 0-4.1-1.4-4.1-3.8 0-4.4 4.9-4.8 8.2-4.8h1.2c.1-.4.1-.8.1-1.1 0-1.4-1.5-1.7-2.7-1.7-1.5 0-3 .4-4.4 1l.5-2.8c1.5-.5 3-.8 4.5-.8 2.7 0 5.2 1 5.2 4.1.1 1.8-1.2 7-1.6 9.6zm-7.1-15.9.6-3h3l-.6 3zm8.3 0h-3l.6-3h3zm-2.4-9.1 1.7-8h-7.3l-1.7 8h-3.6l3.8-18.1h3.6l-1.5 7.3h7.3l1.5-7.3h3.6l-3.8 18.1zm11.7 22.6c.9 0 1.9-.2 2.8-.7l-.4 2.8c-1.1.5-2.2.6-3.4.6-3.5 0-5.7-2.3-5.7-5.8 0-4.7 3.1-8.2 7.9-8.2 1.3 0 2.5.2 3.5.5l-.9 2.9c-.7-.4-1.6-.7-2.5-.7-2.8 0-4.3 2.6-4.3 5.1.1 1.7.7 3.5 3 3.5zm18.2-4.1-1.4 6.5h-3.5l1.3-6.3c.2-.9.4-1.8.4-2.8 0-1.1-.8-1.9-1.9-1.9-2.4 0-3.3 2.3-3.7 4.3l-1.4 6.7h-3.5l4.2-19.5h3.5l-1.7 7.4h.1c1-.9 2.3-1.6 3.8-1.6 2.6 0 4.4 1.6 4.4 4.3-.1 1-.4 2-.6 2.9zm2.2-29.5c-2.4 0-3.3 2.3-3.7 4.3l-1.4 6.7h-3.5l4.2-19.5h3.5l-1.7 7.4h.1c1-.9 2.3-1.6 3.8-1.6 2.6 0 4.4 1.6 4.4 4.3 0 1-.3 2.1-.4 2.9l-1.4 6.5h-3.5l1.3-6.3c.2-.9.4-1.8.4-2.8-.2-1.2-1-1.9-2.1-1.9zm13 30.3H308c0 2.5 1.3 3.4 3.7 3.4 1.4 0 2.8-.4 4.1-1l-.4 2.8c-1.4.4-2.8.8-4.3.8-3.8 0-6.4-1.9-6.4-5.9 0-4.2 3.2-8.2 7.6-8.2 3.3 0 5.5 1.7 5.5 5.1-.1 1.1-.2 2-.4 3zm-5.5-24.9c0-4.2 3.2-8.2 7.6-8.2 3.3 0 5.5 1.7 5.5 5.1 0 1-.1 2-.3 3h-9.4c0 2.5 1.3 3.4 3.7 3.4 1.4 0 2.8-.4 4.1-1l-.4 2.8c-1.4.4-2.8.8-4.3.8-3.9 0-6.5-1.9-6.5-5.9zm20.7 24.1-1.4 6.5h-3.5l1.3-6.3c.2-.9.4-1.8.4-2.8 0-1.1-.8-1.9-1.9-1.9-2.4 0-3.3 2.3-3.7 4.3l-1.4 6.7h-3.5l2.5-11.5c.2-.8.3-1.5.3-1.9h3.4l-.2 1.3h.1c1-.9 2.3-1.6 3.8-1.6 2.6 0 4.4 1.6 4.4 4.3-.2 1-.5 2-.6 2.9zm2.1-29.5c-2.4 0-3.3 2.3-3.7 4.3l-1.4 6.7h-3.5l2.5-11.5c.2-.8.3-1.5.3-1.9h3.4l-.2 1.3h.1c1-.9 2.3-1.6 3.8-1.6 2.6 0 4.4 1.6 4.4 4.3 0 1-.3 2.1-.4 2.9l-1.4 6.5h-3.5l1.3-6.3c.2-.9.4-1.8.4-2.8-.2-1.2-1-1.9-2.1-1.9zm6.7 33.6c.6 0 1.2-.1 1.7-.3l-.6 2.7c-.6.1-1.3.3-1.9.3-2.4 0-4-.9-4-3.5 0-1 .2-2.1.4-3.1l1-4.5h-2.5l.5-2.5h2.5l.6-2.8 3.7-1.2-.9 4h3.1l-.5 2.5h-3.1l-1.3 5.9c-.1.3-.2.8-.2 1.3.2.7.7 1.2 1.5 1.2zm14.5 2.4H353l.4-2.1h-.1c-1.2 1.5-2.4 2.4-4.3 2.4-2.4 0-4.1-1.4-4.1-3.8 0-4.4 4.9-4.8 8.2-4.8h1.2c.1-.4.1-.8.1-1.1 0-1.4-1.5-1.7-2.7-1.7-1.5 0-3 .4-4.4 1l.5-2.8c1.5-.5 3-.8 4.6-.8 2.7 0 5.2 1 5.2 4.1-.1 1.8-1.4 7-1.7 9.6zm-1.4-25-.8-10.2h-.1l-4.9 10.2h-4l-1.8-13.4h3.5l1 10.1h.1l4.9-10.1h3.9l.7 10.1h.1l5.1-10.1h3.6l-7.4 13.4zm8.2 25h-3.5l4.1-19.5h3.5zm15.4-30.7h-9.4c0 2.5 1.3 3.4 3.7 3.4 1.4 0 2.8-.4 4.1-1l-.4 2.8c-1.4.4-2.8.8-4.3.8-3.8 0-6.4-1.9-6.4-5.9 0-4.2 3.2-8.2 7.6-8.2 3.3 0 5.5 1.7 5.5 5.1-.1 1.1-.2 2-.4 3zm16.1-5.9-2.1 10.1c-.9 4.4-2.8 7.2-7.6 7.2-1.8 0-3.6-.3-5.4-.9l.9-2.8c1.4.6 2.7 1 4.2 1 3.7 0 4.2-2.6 5.1-5.6h-.1c-.9 1.6-2.6 2.5-4.5 2.5-3.2 0-4.7-2.7-4.7-5.7 0-4 2.4-8 6.8-8 1.8 0 3.2.9 4.1 2.3l.4-2h3.4c-.1.4-.3 1.1-.5 1.9z" id="WL_UR_595_Hoehenweg_Schaechental_svg__path42"/><path class="WL_UR_595_Hoehenweg_Schaechental_svg__st1" d="m400.8 329.6-5.1.8-2.4.8-3.9.6-7.3.2-18.3 1.9-8.3.2-10.5-.4-7.1-.2-9.3 1.1h-8.1l-7.3.4-7.3 1.1-1.8.3-17.3-3.5-21.7-8.2-9.3-4.4-9.8-5.7-14.9-5-9.3-2.9-8.5-1.9-9.5-5-7.6-2.1-4.9-1.7-1.5-.5v70.6l4.4-5.2 5.8-3.5c0-.1-.1-.2-.1-.3v-.4l.9.2.8-.5-3.6-.8v-1.1l4.9 1 4-2.4 9.3-4.2 12.2-4.2 13.2-3.1 4.1-.4-6.3-6.3-6.3-5.5-10.2-4.6-8.1-4-3.7-.6 1.7-1.9 4.4-.6 7.8 3.8 9 2.7 5.1.4 7.8 3.8 7.8 4.8 1.7.8h6.1l5.6 3.8 4.4.2 10.2-1 13.9.2 4.3-.2-4.5.8-12.7.4-8.3 1.3-8.1.8-8.8 1.3-6.3 2.1-5.1 1.5-4.6 2.7-2.9 2.5-2 5.2 1.7 9 6.2 8.1c.3.1.7.2 1 .2l-.2.7 2 2.6 2-9.6h3.5l-1.7 7.4h.1c1-.9 2.3-1.6 3.8-1.6 2.6 0 4.4 1.6 4.4 4.3 0 1-.3 2.1-.4 2.9l-1.3 5.8 10.3 9.2h133.2v-65.2h-1zm-200.5-23.2.9.2 2.5 2.6V307l.9.2v3.5l-.9-.2-2.5-2.6v1.9l-.9-.2zm0 4.3 4.2.9v1.1l-4.2-.9zm-1.8-.4 1 .2v1.1l-1-.2zm-.1 16.9 2.3.5c-.3-.3-.5-.7-.5-1.2 0-.8.5-1.4 1.4-1.4.3 0 .7.1.9.1l2 .4v1.1l-2-.4c-.3-.1-.6-.1-.9-.1-.4 0-.6.2-.6.6 0 .8.7 1 1.3 1.2l2.1.5v1.1l-6.1-1.3v-1.1zm1.9-6V320l3.2-.2-3.2-1.6V317l4.2 2.3v1.2l-3.2.2 3.2 1.5v1.2l-4.2.6v-1.1l3.2-.3zm3.1 33.4c-1.4 0-1.5-1.6-1.5-2.6v-.4h-.4c-.4 0-.5.5-.5.8 0 .5.1 1 .3 1.4l-.9-.2c-.2-.5-.3-.9-.3-1.4 0-.8.3-1.6 1.3-1.6.6 0 2.2.4 3 .5v.9l-.6-.1c.5.4.7.8.7 1.4.1.8-.3 1.3-1.1 1.3zm-1-6.1 2.1.5v1.1l-3.6-.8c-.3 0-.5-.1-.6-.1v-1.1l.4.1c-.3-.3-.5-.7-.5-1.2 0-.8.5-1.4 1.4-1.4.3 0 .7.1.9.1l2 .4v1.1l-2-.4c-.3-.1-.6-.1-.9-.1-.4 0-.6.2-.6.6 0 .8.7 1.1 1.4 1.2zm.4-3.6c-1.3 0-2.7-.7-2.7-2.1 0-.5.2-1 .6-1.3l-2.4-.5v-1.1l5.2 1.1c.4.1.7.1.9.2v1l-.6-.1c.5.3.7.7.7 1.4.1.9-.7 1.4-1.7 1.4zm1.5-7-1-.3c.2-.4.4-.9.4-1.4 0-.5-.3-1.1-.9-1.1-1 0-.9 2-2.4 2-1.2 0-1.7-1-1.7-2.1 0-.5.1-1 .3-1.5l.9.3c-.2.3-.3.8-.3 1.2 0 .4.2 1 .7 1 .9 0 .9-1.9 2.5-1.9 1.4 0 1.9 1.1 1.9 2.4-.1.3-.2.8-.4 1.4zm-1.5-4.9c-1.5 0-2.6-1-2.6-2.5 0-.4.1-.8.2-1.1l.9.3c-.1.2-.2.5-.2.8 0 .9.8 1.4 1.6 1.4.5 0 1.1-.2 1.1-.9 0-.3-.1-.6-.2-.9l.9.1c.2.3.2.7.2 1.1-.1 1-.8 1.7-1.9 1.7zm0-15.8c-1.3 0-2.6-1-2.6-2.4 0-1 .5-1.7 1.6-1.7.3 0 .6 0 .9.1v3c.8 0 1.1-.4 1.1-1.2 0-.5-.1-.9-.3-1.3l.9.1c.1.4.2.9.2 1.3 0 1.3-.6 2.1-1.8 2.1zm87.7 25.1h3l-.6 3h-3zm-5.4 0h3l-.6 3h-3zm3.2 5.2c3.6 0 6.1 2.2 6.1 5.9 0 4.7-3.3 8.1-8 8.1-3.8 0-6.1-2.3-6.1-6.1.1-4.5 3.5-7.9 8-7.9zm-14.8 38.7h-2.9l.4-2.1h-.1c-1.2 1.5-2.4 2.4-4.3 2.4-2.4 0-4.1-1.4-4.1-3.8 0-4.4 4.9-4.8 8.2-4.8h1.2c.1-.4.1-.8.1-1.1 0-1.4-1.5-1.7-2.7-1.7-1.5 0-3 .4-4.4 1l.5-2.8c1.5-.5 3-.8 4.5-.8 2.7 0 5.2 1 5.2 4.1.1 1.8-1.2 7-1.6 9.6zm-7.1-15.9.6-3h3l-.6 3zm8.3 0h-3l.6-3h3zm-2.4-9.1 1.7-8h-7.3l-1.7 8h-3.6l3.8-18.1h3.6l-1.5 7.3h7.3l1.5-7.3h3.6l-3.8 18.1zm11.7 22.6c.9 0 1.9-.2 2.8-.7l-.4 2.8c-1.1.5-2.2.6-3.4.6-3.5 0-5.7-2.3-5.7-5.8 0-4.7 3.1-8.2 7.9-8.2 1.3 0 2.5.2 3.5.5l-.9 2.9c-.7-.4-1.6-.7-2.5-.7-2.8 0-4.3 2.6-4.3 5.1.1 1.7.7 3.5 3 3.5zm18.2-4.1-1.4 6.5h-3.5l1.3-6.3c.2-.9.4-1.8.4-2.8 0-1.1-.8-1.9-1.9-1.9-2.4 0-3.3 2.3-3.7 4.3l-1.4 6.7h-3.5l4.2-19.5h3.5l-1.7 7.4h.1c1-.9 2.3-1.6 3.8-1.6 2.6 0 4.4 1.6 4.4 4.3-.1 1-.4 2-.6 2.9zm2.2-29.5c-2.4 0-3.3 2.3-3.7 4.3l-1.4 6.7h-3.5l4.2-19.5h3.5l-1.7 7.4h.1c1-.9 2.3-1.6 3.8-1.6 2.6 0 4.4 1.6 4.4 4.3 0 1-.3 2.1-.4 2.9l-1.4 6.5h-3.5l1.3-6.3c.2-.9.4-1.8.4-2.8-.2-1.2-1-1.9-2.1-1.9zm13 30.3H308c0 2.5 1.3 3.4 3.7 3.4 1.4 0 2.8-.4 4.1-1l-.4 2.8c-1.4.4-2.8.8-4.3.8-3.8 0-6.4-1.9-6.4-5.9 0-4.2 3.2-8.2 7.6-8.2 3.3 0 5.5 1.7 5.5 5.1-.1 1.1-.2 2-.4 3zm-5.5-24.9c0-4.2 3.2-8.2 7.6-8.2 3.3 0 5.5 1.7 5.5 5.1 0 1-.1 2-.3 3h-9.4c0 2.5 1.3 3.4 3.7 3.4 1.4 0 2.8-.4 4.1-1l-.4 2.8c-1.4.4-2.8.8-4.3.8-3.9 0-6.5-1.9-6.5-5.9zm20.7 24.1-1.4 6.5h-3.5l1.3-6.3c.2-.9.4-1.8.4-2.8 0-1.1-.8-1.9-1.9-1.9-2.4 0-3.3 2.3-3.7 4.3l-1.4 6.7h-3.5l2.5-11.5c.2-.8.3-1.5.3-1.9h3.4l-.2 1.3h.1c1-.9 2.3-1.6 3.8-1.6 2.6 0 4.4 1.6 4.4 4.3-.2 1-.5 2-.6 2.9zm2.1-29.5c-2.4 0-3.3 2.3-3.7 4.3l-1.4 6.7h-3.5l2.5-11.5c.2-.8.3-1.5.3-1.9h3.4l-.2 1.3h.1c1-.9 2.3-1.6 3.8-1.6 2.6 0 4.4 1.6 4.4 4.3 0 1-.3 2.1-.4 2.9l-1.4 6.5h-3.5l1.3-6.3c.2-.9.4-1.8.4-2.8-.2-1.2-1-1.9-2.1-1.9zm6.7 33.6c.6 0 1.2-.1 1.7-.3l-.6 2.7c-.6.1-1.3.3-1.9.3-2.4 0-4-.9-4-3.5 0-1 .2-2.1.4-3.1l1-4.5h-2.5l.5-2.5h2.5l.6-2.8 3.7-1.2-.9 4h3.1l-.5 2.5h-3.1l-1.3 5.9c-.1.3-.2.8-.2 1.3.2.7.7 1.2 1.5 1.2zm14.5 2.4H353l.4-2.1h-.1c-1.2 1.5-2.4 2.4-4.3 2.4-2.4 0-4.1-1.4-4.1-3.8 0-4.4 4.9-4.8 8.2-4.8h1.2c.1-.4.1-.8.1-1.1 0-1.4-1.5-1.7-2.7-1.7-1.5 0-3 .4-4.4 1l.5-2.8c1.5-.5 3-.8 4.6-.8 2.7 0 5.2 1 5.2 4.1-.1 1.8-1.4 7-1.7 9.6zm-1.4-25-.8-10.2h-.1l-4.9 10.2h-4l-1.8-13.4h3.5l1 10.1h.1l4.9-10.1h3.9l.7 10.1h.1l5.1-10.1h3.6l-7.4 13.4zm8.2 25h-3.5l4.1-19.5h3.5zm15.4-30.7h-9.4c0 2.5 1.3 3.4 3.7 3.4 1.4 0 2.8-.4 4.1-1l-.4 2.8c-1.4.4-2.8.8-4.3.8-3.8 0-6.4-1.9-6.4-5.9 0-4.2 3.2-8.2 7.6-8.2 3.3 0 5.5 1.7 5.5 5.1-.1 1.1-.2 2-.4 3zm16.1-5.9-2.1 10.1c-.9 4.4-2.8 7.2-7.6 7.2-1.8 0-3.6-.3-5.4-.9l.9-2.8c1.4.6 2.7 1 4.2 1 3.7 0 4.2-2.6 5.1-5.6h-.1c-.9 1.6-2.6 2.5-4.5 2.5-3.2 0-4.7-2.7-4.7-5.7 0-4 2.4-8 6.8-8 1.8 0 3.2.9 4.1 2.3l.4-2h3.4c-.1.4-.3 1.1-.5 1.9z" id="WL_UR_595_Hoehenweg_Schaechental_svg__path44"/><path class="WL_UR_595_Hoehenweg_Schaechental_svg__st0" d="M372.9 350c-2.2 0-3.1 1.3-3.8 3.1h5.9c.1-.3.1-.6.1-.9 0-1.4-.7-2.2-2.2-2.2z" id="WL_UR_595_Hoehenweg_Schaechental_svg__path46"/><path class="WL_UR_595_Hoehenweg_Schaechental_svg__st1" d="M372.9 350c-2.2 0-3.1 1.3-3.8 3.1h5.9c.1-.3.1-.6.1-.9 0-1.4-.7-2.2-2.2-2.2z" id="WL_UR_595_Hoehenweg_Schaechental_svg__path48"/><path class="WL_UR_595_Hoehenweg_Schaechental_svg__st0" d="M321.7 352.2c0-1.4-.8-2.2-2.2-2.2-2.2 0-3.1 1.3-3.8 3.1h5.9c0-.3.1-.6.1-.9z" id="WL_UR_595_Hoehenweg_Schaechental_svg__path50"/><path class="WL_UR_595_Hoehenweg_Schaechental_svg__st1" d="M321.7 352.2c0-1.4-.8-2.2-2.2-2.2-2.2 0-3.1 1.3-3.8 3.1h5.9c0-.3.1-.6.1-.9z" id="WL_UR_595_Hoehenweg_Schaechental_svg__path52"/><path class="WL_UR_595_Hoehenweg_Schaechental_svg__st0" d="M202 341.8c-.5 0-1 .2-1 .8 0 .8 1.1 1.2 1.7 1.2.4 0 1-.1 1-.7 0-.8-.9-1.3-1.7-1.3z" id="WL_UR_595_Hoehenweg_Schaechental_svg__path54"/><path class="WL_UR_595_Hoehenweg_Schaechental_svg__st1" d="M202 341.8c-.5 0-1 .2-1 .8 0 .8 1.1 1.2 1.7 1.2.4 0 1-.1 1-.7 0-.8-.9-1.3-1.7-1.3z" id="WL_UR_595_Hoehenweg_Schaechental_svg__path56"/><path class="WL_UR_595_Hoehenweg_Schaechental_svg__st0" d="M312.2 375c-2.2 0-3.1 1.3-3.8 3.1h5.9c.1-.3.1-.6.1-.9 0-1.4-.7-2.2-2.2-2.2z" id="WL_UR_595_Hoehenweg_Schaechental_svg__path58"/><path class="WL_UR_595_Hoehenweg_Schaechental_svg__st1" d="M312.2 375c-2.2 0-3.1 1.3-3.8 3.1h5.9c.1-.3.1-.6.1-.9 0-1.4-.7-2.2-2.2-2.2z" id="WL_UR_595_Hoehenweg_Schaechental_svg__path60"/><path class="WL_UR_595_Hoehenweg_Schaechental_svg__st0" d="M348.1 382.5c0 .9.9 1.4 1.8 1.4 2.6 0 3.4-1.8 4-4h-1.2c-1.8.1-4.6.4-4.6 2.6z" id="WL_UR_595_Hoehenweg_Schaechental_svg__path62"/><path class="WL_UR_595_Hoehenweg_Schaechental_svg__st1" d="M348.1 382.5c0 .9.9 1.4 1.8 1.4 2.6 0 3.4-1.8 4-4h-1.2c-1.8.1-4.6.4-4.6 2.6z" id="WL_UR_595_Hoehenweg_Schaechental_svg__path64"/><path class="WL_UR_595_Hoehenweg_Schaechental_svg__st0" d="M257.1 377c0-1.1-.8-1.9-1.9-1.9-2.3 0-3.2 2-3.6 3.9l4.5 3.9.6-3.1c.2-.9.4-1.8.4-2.8z" id="WL_UR_595_Hoehenweg_Schaechental_svg__path66"/><path class="WL_UR_595_Hoehenweg_Schaechental_svg__st1" d="M257.1 377c0-1.1-.8-1.9-1.9-1.9-2.3 0-3.2 2-3.6 3.9l4.5 3.9.6-3.1c.2-.9.4-1.8.4-2.8z" id="WL_UR_595_Hoehenweg_Schaechental_svg__path68"/><path class="WL_UR_595_Hoehenweg_Schaechental_svg__st0" d="M387.3 350.2c-2.5 0-3.6 3.3-3.6 5.3 0 1.6.7 3 2.2 3 2.8 0 3.9-2.9 3.9-5.5 0-1.6-.9-2.8-2.5-2.8z" id="WL_UR_595_Hoehenweg_Schaechental_svg__path70"/><path class="WL_UR_595_Hoehenweg_Schaechental_svg__st1" d="M387.3 350.2c-2.5 0-3.6 3.3-3.6 5.3 0 1.6.7 3 2.2 3 2.8 0 3.9-2.9 3.9-5.5 0-1.6-.9-2.8-2.5-2.8z" id="WL_UR_595_Hoehenweg_Schaechental_svg__path72"/><path class="WL_UR_595_Hoehenweg_Schaechental_svg__st2" d="M244.7 219.9c7.3 0 14.3 2.7 14.3 10.7 0 8.5-7.7 12-16 12-4.8 0-10.4-.8-16-4.2l-2.8 14.6c6 2.8 14.4 4.4 20.9 4.4 15.8 0 32.8-9.6 32.8-27.7 0-15.6-10.4-22.4-27.4-22.4l2.2-11.9H283l2.3-13.2h-46.2l-7.9 39.4c4.2-1.1 8.8-1.7 13.5-1.7z" id="WL_UR_595_Hoehenweg_Schaechental_svg__path74"/><path class="WL_UR_595_Hoehenweg_Schaechental_svg__st2" d="M291 206.9c0 13.9 8.2 22.1 20.1 22.1 4.4 0 8.6-1.3 12-4.1l.2.2c-2 9.7-6.6 18.2-18.7 18.2-5.3 0-10.8-1.7-15.2-4.8l-4.4 13.3c6 3.7 13.2 5.5 20 5.5 27.3 0 37.7-24 37.7-49.4 0-13.1-5.8-22.4-16.2-25.8h-19.3c-9.9 3.3-16.2 12.2-16.2 24.8zm26.8-13.6c6.3 0 8.6 4.9 8.6 10.3 0 5.3-2.9 12.6-10.3 12.6-5.2 0-7.9-4.5-7.9-9.9 0-5.9 3.1-13 9.6-13z" id="WL_UR_595_Hoehenweg_Schaechental_svg__path76"/><path class="WL_UR_595_Hoehenweg_Schaechental_svg__st2" d="M355.1 221.5c4.3-1 8.8-1.6 13.6-1.6 7.3 0 14.3 2.7 14.3 10.7 0 8.5-7.7 12-16 12-4.8 0-10.4-.8-16-4.2l-2.8 14.6c6 2.8 14.4 4.4 20.9 4.4 15.8 0 32.8-9.6 32.8-27.7 0-15.6-10.4-22.4-27.4-22.4l2.2-11.9 26-.1V182H363Z" id="WL_UR_595_Hoehenweg_Schaechental_svg__path78"/><path id="WL_UR_595_Hoehenweg_Schaechental_svg__polygon80" d="M203.2 381.8h-4.4v1.5l4.4 1.9v.1l-4.4.1v1.2l5.7-.4v-1.4l-4.6-2 4.6-.1v-1.4l-5.7-2.7v1.1l4.4 2.1z"/><path d="m203.8 376.6.6.1v-.9c-.8-.1-2.5-.5-3-.5-1 0-1.3.8-1.3 1.6 0 .5.1 1 .3 1.4l.9.2c-.2-.4-.3-.9-.3-1.4 0-.4.1-.8.5-.8h.4v.4c0 1 .1 2.6 1.5 2.6.8 0 1.2-.5 1.2-1.3 0-.7-.3-1.1-.8-1.4zm-.5 1.6c-.7 0-.8-.9-.8-1.4v-.4c.7.2 1.2.4 1.2 1.2.1.3-.1.6-.4.6z" id="WL_UR_595_Hoehenweg_Schaechental_svg__path82"/><path d="M201.6 371.3c.3 0 .6.1.9.1l2 .4v-1.1l-2-.4c-.3-.1-.6-.1-.9-.1-.8 0-1.4.5-1.4 1.4 0 .5.2.9.5 1.2l-.4-.1v1.1c.1 0 .4.1.6.1l3.6.8v-1.1l-2.1-.5c-.6-.1-1.3-.4-1.3-1.2-.1-.3.2-.6.5-.6z" id="WL_UR_595_Hoehenweg_Schaechental_svg__path84"/><path d="m203.9 366.7.6.1v-1c-.2 0-.6-.1-.9-.2l-5.2-1.1v1.1l2.4.5c-.4.3-.6.8-.6 1.3 0 1.4 1.4 2.1 2.7 2.1.9 0 1.8-.5 1.8-1.5-.1-.6-.4-1-.8-1.3zm-1.2 1.7c-.6 0-1.7-.4-1.7-1.2 0-.6.5-.8 1-.8.8 0 1.7.5 1.7 1.3 0 .5-.5.7-1 .7z" id="WL_UR_595_Hoehenweg_Schaechental_svg__path86"/><path d="M203.5 361c.2.4.3.8.3 1.3 0 .8-.3 1.2-1.1 1.2v-3c-.3-.1-.6-.1-.9-.1-1.1 0-1.6.7-1.6 1.7 0 1.4 1.3 2.4 2.6 2.4s1.8-.8 1.8-2c0-.5-.1-.9-.2-1.3zm-1.5 2.4c-.6-.2-1-.5-1-1.2 0-.5.3-.7.7-.7h.3z" id="WL_UR_595_Hoehenweg_Schaechental_svg__path88"/><path d="m201.1 358.3-.8-.1v1c.2 0 .4.1.6.1l3.7.8V359l-1.9-.4c-.7-.1-1.4-.5-1.4-1.3 0-.1 0-.3.1-.4h-.2l-.9-.2v.4c0 .1 0 .2.1.3 0 .4.3.8.7.9z" id="WL_UR_595_Hoehenweg_Schaechental_svg__path90"/><path id="WL_UR_595_Hoehenweg_Schaechental_svg__polygon92" d="M198.4 354.5v1.1l3.5.8 2.6.5v-1.1l-1.2-.2z"/><path d="m203.8 352 .6.1v-.9c-.8-.1-2.5-.5-3-.5-1 0-1.3.8-1.3 1.6 0 .5.1 1 .3 1.4l.9.2c-.2-.4-.3-.9-.3-1.4 0-.4.1-.8.5-.8h.4v.4c0 1 .1 2.6 1.5 2.6.8 0 1.2-.5 1.2-1.3 0-.7-.3-1.1-.8-1.4zm-.5 1.6c-.7 0-.8-.9-.8-1.4v-.4c.7.2 1.2.4 1.2 1.2.1.3-.1.6-.4.6z" id="WL_UR_595_Hoehenweg_Schaechental_svg__path94"/><path d="M201.6 346.7c.3 0 .6.1.9.1l2 .4v-1.1l-2-.4c-.3-.1-.6-.1-.9-.1-.8 0-1.4.5-1.4 1.4 0 .5.2.9.5 1.2l-.4-.1v1.1c.1 0 .4.1.6.1l3.6.8V349l-2.1-.5c-.6-.1-1.3-.4-1.3-1.2-.1-.3.2-.6.5-.6z" id="WL_UR_595_Hoehenweg_Schaechental_svg__path96"/><path d="m203.9 342.1.6.1v-1c-.2 0-.6-.1-.9-.2l-5.2-1.1v1.1l2.4.5c-.4.3-.6.8-.6 1.3 0 1.4 1.4 2.1 2.7 2.1.9 0 1.8-.5 1.8-1.5-.1-.6-.4-1-.8-1.3zm-1.2 1.6c-.6 0-1.7-.4-1.7-1.2 0-.6.5-.8 1-.8.8 0 1.7.5 1.7 1.3 0 .6-.5.7-1 .7z" id="WL_UR_595_Hoehenweg_Schaechental_svg__path98"/><path d="M202.7 333.9c-1.6 0-1.5 1.9-2.5 1.9-.5 0-.7-.5-.7-1 0-.4.1-.9.3-1.2l-.9-.3c-.2.5-.3 1-.3 1.5 0 1.1.5 2.1 1.7 2.1 1.5 0 1.4-2 2.4-2 .6 0 .9.5.9 1.1 0 .5-.2 1-.4 1.4l1 .3c.2-.5.3-1.1.3-1.6.1-1.1-.4-2.2-1.8-2.2z" id="WL_UR_595_Hoehenweg_Schaechental_svg__path100"/><path d="M203.5 330.1c.1.3.2.6.2.9 0 .8-.5.9-1.1.9-.8 0-1.6-.5-1.6-1.4 0-.3.1-.6.2-.8l-.9-.3c-.1.3-.2.7-.2 1.1 0 1.5 1.1 2.5 2.6 2.5 1.1 0 1.8-.7 1.8-1.8 0-.4 0-.7-.2-1.1z" id="WL_UR_595_Hoehenweg_Schaechental_svg__path102"/><path d="m204.5 328.5-2.1-.5c-.6-.1-1.3-.4-1.3-1.2 0-.4.2-.6.6-.6.3 0 .6.1.9.1l2 .4v-1.1l-2-.4c-.3-.1-.6-.1-.9-.1-.8 0-1.4.5-1.4 1.4 0 .5.2.9.5 1.2l-2.3-.5v1.1l6.1 1.3v-1.1z" id="WL_UR_595_Hoehenweg_Schaechental_svg__path104"/><path id="WL_UR_595_Hoehenweg_Schaechental_svg__polygon106" d="M204.5 323.6v-1.2l-3.2-1.6 3.2-.2v-1.2l-4.2-2.4v1.1l3.1 1.7-3.1.2v1.2l3.1 1.6-3.1.3v1.1z"/><path d="M203.5 313.7c.2.4.3.8.3 1.3 0 .8-.3 1.2-1.1 1.2v-3c-.3-.1-.6-.1-.9-.1-1.1 0-1.6.7-1.6 1.7 0 1.4 1.3 2.4 2.6 2.4s1.8-.8 1.8-2c0-.5-.1-.9-.2-1.3zM202 316c-.6-.2-1-.5-1-1.2 0-.5.3-.7.7-.7h.3z" id="WL_UR_595_Hoehenweg_Schaechental_svg__path108"/><path id="WL_UR_595_Hoehenweg_Schaechental_svg__polygon110" d="m200.3 311.8 4.2.9v-1.1l-4.2-.9z"/><path id="WL_UR_595_Hoehenweg_Schaechental_svg__polygon112" d="m198.5 311.4 1 .2v-1.1l-1-.2z"/><path id="WL_UR_595_Hoehenweg_Schaechental_svg__polygon114" d="M204.5 310.7v-3.5l-.9-.2v2.2l-2.5-2.6-.8-.2v3.3l.8.2V308l2.5 2.6z"/><path id="WL_UR_595_Hoehenweg_Schaechental_svg__polygon116" d="m267.2 350.3 1.6-7.3h-3.7l-3.8 18.2h3.7l1.6-8h7.4l-1.7 8h3.6l3.8-18.2h-3.6l-1.5 7.3z"/><path d="M286.4 361.5c4.7 0 8-3.4 8-8.1 0-3.7-2.5-5.9-6.1-5.9-4.5 0-7.9 3.4-7.9 7.9 0 3.7 2.2 6.1 6 6.1zm1.7-11.3c2.1 0 2.7 1.5 2.7 3.2 0 2.3-1.4 5.4-4.1 5.4-2 0-2.7-1.4-2.7-3.1 0-2.5 1.4-5.5 4.1-5.5z" id="WL_UR_595_Hoehenweg_Schaechental_svg__path118"/><path id="WL_UR_595_Hoehenweg_Schaechental_svg__polygon120" d="M284.5 345.3h2.9l.7-3h-3z"/><path id="WL_UR_595_Hoehenweg_Schaechental_svg__polygon122" d="M289.9 345.3h2.9l.7-3h-3z"/><path d="M304.6 361.2h3.5l1.4-6.5c.2-.8.4-1.9.4-2.9 0-2.7-1.7-4.3-4.4-4.3-1.5 0-2.8.7-3.8 1.6h-.1l1.7-7.4h-3.5l-4.2 19.5h3.5l1.4-6.7c.4-2 1.3-4.3 3.7-4.3 1.1 0 1.9.8 1.9 1.9 0 1-.2 1.9-.4 2.8z" id="WL_UR_595_Hoehenweg_Schaechental_svg__path124"/><path d="M323 358c-1.3.6-2.7 1-4.1 1-2.4 0-3.7-.9-3.7-3.4h9.4c.2-1 .3-2 .3-3 0-3.4-2.2-5.1-5.5-5.1-4.4 0-7.6 4-7.6 8.2 0 4 2.6 5.9 6.4 5.9 1.4 0 2.9-.3 4.3-.8zm-3.5-8c1.5 0 2.2.8 2.2 2.2 0 .3 0 .6-.1.9h-5.9c.7-1.8 1.6-3.1 3.8-3.1z" id="WL_UR_595_Hoehenweg_Schaechental_svg__path126"/><path d="M334.9 361.2h3.5l1.4-6.5c.2-.8.4-1.9.4-2.9 0-2.7-1.7-4.3-4.4-4.3-1.5 0-2.8.7-3.8 1.6l.2-1.3h-3.4c-.1.4-.2 1.1-.3 1.9l-2.5 11.5h3.5l1.4-6.7c.4-2 1.3-4.3 3.7-4.3 1.1 0 1.9.8 1.9 1.9 0 1-.2 1.9-.4 2.8z" id="WL_UR_595_Hoehenweg_Schaechental_svg__path128"/><path id="WL_UR_595_Hoehenweg_Schaechental_svg__polygon130" d="m357.1 357.8-.7-10h-3.9l-4.9 10-1-10h-3.5l1.8 13.4h3.9l4.9-10.3h.1l.7 10.3h4l7.4-13.4h-3.6l-5.1 10z"/><path d="M373 347.5c-4.4 0-7.6 4-7.6 8.2 0 4 2.6 5.9 6.4 5.9 1.4 0 2.9-.3 4.3-.8l.4-2.8c-1.3.6-2.7 1-4.1 1-2.4 0-3.7-.9-3.7-3.4h9.4c.2-1 .3-2 .3-3 0-3.5-2.1-5.1-5.4-5.1zm2 5.6h-5.9c.7-1.8 1.6-3.1 3.8-3.1 1.5 0 2.2.8 2.2 2.2 0 .3 0 .6-.1.9z" id="WL_UR_595_Hoehenweg_Schaechental_svg__path132"/><path d="M390.9 349.7c-.8-1.4-2.3-2.3-4.1-2.3-4.3 0-6.8 4-6.8 8 0 2.9 1.4 5.7 4.7 5.7 1.9 0 3.6-.9 4.5-2.5h.1c-.8 3-1.4 5.6-5.1 5.6-1.5 0-2.8-.5-4.2-1l-.9 2.8c1.7.6 3.5.9 5.4.9 4.9 0 6.8-2.9 7.6-7.2l2.1-10.1c.2-.9.3-1.5.4-1.9h-3.4zm-5 8.7c-1.6 0-2.2-1.4-2.2-3 0-2 1.1-5.3 3.6-5.3 1.6 0 2.5 1.2 2.5 2.8 0 2.6-1.1 5.5-3.9 5.5z" id="WL_UR_595_Hoehenweg_Schaechental_svg__path134"/><path d="M222.9 373.2c0 4.8 6.2 4.3 6.2 7.6 0 2-1.7 2.8-3.5 2.8-1.6 0-3-.6-4.4-1.2l-.9 3.1c1.6.6 3.4 1 5.2 1 4 0 7.5-1.6 7.5-6.1 0-5-6.2-4.9-6.2-7.8 0-1.6 1.7-2.1 3-2.1s2.7.4 3.8.9l.9-3c-1.5-.6-3.1-.8-4.7-.8-3.6.1-6.9 1.8-6.9 5.6z" id="WL_UR_595_Hoehenweg_Schaechental_svg__path136"/><path d="M235.6 380.7c0 3.5 2.2 5.8 5.7 5.8 1.1 0 2.3-.1 3.4-.6l.4-2.8c-.9.4-2 .7-2.8.7-2.4 0-3-1.7-3-3.5 0-2.5 1.6-5.1 4.3-5.1 1 0 1.9.2 2.5.7l.6-2.1.2-.7c-.3-.1-.6-.2-1-.2-.8-.2-1.6-.3-2.5-.3-4.8-.1-7.8 3.4-7.8 8.1z" id="WL_UR_595_Hoehenweg_Schaechental_svg__path138"/><path d="m250.1 386.2 1.4-6.7c0-.1.1-.3.1-.4.5-1.9 1.4-3.9 3.6-3.9 1.1 0 1.9.8 1.9 1.9 0 1-.2 1.9-.4 2.8l-.6 3.1-.7 3.3h3.5l.1-.7 1.3-5.8c.2-.8.4-1.9.4-2.9 0-2.7-1.7-4.3-4.4-4.3-1.5 0-2.8.7-3.8 1.6h-.1l1.7-7.4h-3.5l-2 9.6-2.1 9.9h3.6z" id="WL_UR_595_Hoehenweg_Schaechental_svg__path140"/><path d="M270 372.5c-1.6 0-3.1.3-4.5.8l-.5 2.8c1.4-.7 2.9-1 4.4-1 1.2 0 2.7.4 2.7 1.7 0 .4 0 .8-.1 1.1h-1.2c-3.3 0-8.2.3-8.2 4.8 0 2.5 1.7 3.8 4.1 3.8 1.9 0 3.1-.9 4.3-2.4h.1l-.4 2.1h2.9c.3-2.5 1.6-7.8 1.6-9.6 0-3.2-2.5-4.1-5.2-4.1zm-2.4 11.4c-.9 0-1.8-.5-1.8-1.4 0-2.3 2.8-2.5 4.5-2.5h1.2c-.5 2.1-1.3 3.9-3.9 3.9z" id="WL_UR_595_Hoehenweg_Schaechental_svg__path142"/><path id="WL_UR_595_Hoehenweg_Schaechental_svg__polygon144" d="m269.3 370.3.7-3h-3l-.6 3z"/><path id="WL_UR_595_Hoehenweg_Schaechental_svg__polygon146" d="M275.4 367.3h-3l-.6 3h2.9z"/><path d="M285.4 375.2c1 0 1.9.2 2.5.7l.9-2.9c-.9-.3-2.2-.5-3.5-.5-4.8 0-7.9 3.6-7.9 8.2 0 3.5 2.2 5.8 5.7 5.8 1.1 0 2.3-.1 3.4-.6l.4-2.8c-.9.4-2 .7-2.8.7-2.4 0-3-1.7-3-3.5 0-2.5 1.5-5.1 4.3-5.1z" id="WL_UR_595_Hoehenweg_Schaechental_svg__path148"/><path d="M298.3 372.5c-1.5 0-2.8.7-3.8 1.6h-.1l1.7-7.4h-3.5l-4.2 19.5h3.5l1.4-6.7c.4-2 1.3-4.3 3.7-4.3 1.1 0 1.9.8 1.9 1.9 0 1-.2 1.9-.4 2.8l-1.3 6.3h3.5l1.4-6.5c.2-.8.4-1.9.4-2.9.2-2.7-1.6-4.3-4.2-4.3z" id="WL_UR_595_Hoehenweg_Schaechental_svg__path150"/><path d="M312.3 372.5c-4.4 0-7.6 4-7.6 8.2 0 4 2.6 5.9 6.4 5.9 1.4 0 2.9-.3 4.3-.8l.4-2.8c-1.3.6-2.7 1-4.1 1-2.4 0-3.7-.9-3.7-3.4h9.4c.2-1 .3-2 .3-3 0-3.5-2.1-5.1-5.4-5.1zm2 5.6h-5.9c.7-1.8 1.6-3.1 3.8-3.1 1.5 0 2.2.8 2.2 2.2 0 .3 0 .6-.1.9z" id="WL_UR_595_Hoehenweg_Schaechental_svg__path152"/><path d="M328.6 372.5c-1.5 0-2.8.7-3.8 1.6h-.1l.2-1.3h-3.4c-.1.4-.2 1.1-.3 1.9l-2.5 11.5h3.5l1.4-6.7c.4-2 1.3-4.3 3.7-4.3 1.1 0 1.9.8 1.9 1.9 0 1-.2 1.9-.4 2.8l-1.3 6.3h3.5l1.4-6.5c.2-.8.4-1.9.4-2.9.2-2.7-1.5-4.3-4.2-4.3z" id="WL_UR_595_Hoehenweg_Schaechental_svg__path154"/><path d="M341.5 375.3h3.1l.5-2.5H342l.9-4-3.7 1.2-.6 2.8h-2.5l-.5 2.5h2.5l-1 4.5c-.2 1.1-.4 2.1-.4 3.1 0 2.6 1.7 3.5 4 3.5.6 0 1.3-.2 1.9-.3l.6-2.7c-.4.2-1.1.3-1.7.3-.8 0-1.3-.5-1.3-1.3 0-.5.1-1 .2-1.3z" id="WL_UR_595_Hoehenweg_Schaechental_svg__path156"/><path d="M352.3 372.5c-1.6 0-3.1.3-4.6.8l-.5 2.8c1.4-.7 2.9-1 4.4-1 1.2 0 2.7.4 2.7 1.7 0 .4 0 .8-.1 1.1H353c-3.3 0-8.2.3-8.2 4.8 0 2.5 1.7 3.8 4.1 3.8 1.9 0 3.1-.9 4.3-2.4h.1l-.4 2.1h2.9c.3-2.5 1.6-7.8 1.6-9.6.1-3.2-2.4-4.1-5.1-4.1zm-2.4 11.4c-.9 0-1.8-.5-1.8-1.4 0-2.3 2.8-2.5 4.5-2.5h1.2c-.5 2.1-1.3 3.9-3.9 3.9z" id="WL_UR_595_Hoehenweg_Schaechental_svg__path158"/><path id="WL_UR_595_Hoehenweg_Schaechental_svg__polygon160" d="M366.9 366.7h-3.5l-4.1 19.5h3.4z"/></g></svg>