<svg xmlns="http://www.w3.org/2000/svg" viewBox="-10 -10 220 220"><path d="M 123.061 20.250 L 102.740 39.500 97.158 40.029 L 91.576 40.558 84.538 34.170 C 75.010 25.522, 64 17.853, 61.625 18.209 C 58.604 18.661, 53.201 36.166, 50.732 53.500 L 49.449 62.500 44.028 53.500 C 41.047 48.550, 38.044 44.050, 37.356 43.500 C 36.016 42.429, 35.521 31.138, 36.544 25 C 37.107 21.622, 32.441 13, 30.049 13 C 28.088 13, 23.807 21.045, 23.957 24.448 C 24.195 29.826, 24.154 30.928, 23.429 38.556 L 22.759 45.612 17.630 48.307 C 14.808 49.790, 10.250 52.707, 7.500 54.789 L 2.500 58.576 1.362 74.038 C 0.736 82.542, 0.402 89.801, 0.621 90.168 C 0.839 90.536, 1.684 94.658, 2.498 99.329 C 6.587 122.778, 17.497 145.763, 29.441 156.092 C 31.608 157.966, 35.055 161.300, 37.101 163.500 C 63.941 192.366, 171.002 190.399, 186.121 160.763 C 191.291 150.629, 192.980 121.425, 189.631 100.062 C 188.229 91.114, 188.251 90.429, 190.059 86.884 C 195.340 76.534, 200.410 49.503, 197.938 44.884 C 196.293 41.811, 177.969 42.681, 164 46.495 C 158.775 47.921, 153.850 49.181, 153.055 49.294 C 151.895 49.459, 151.089 44.952, 148.966 26.414 C 146.432 4.297, 145.805 1, 144.132 1 C 143.720 1, 134.238 9.662, 123.061 20.250" fill="none" stroke="#fff" stroke-width="9" stroke-linecap="round" stroke-linejoin="round" stroke-dasharray="0.5 16"/></svg>