<svg xmlns="http://www.w3.org/2000/svg" viewBox="-10 -10 220 220"><path d="M 40.081 12.286 C 36.178 22.552, 32 41.566, 32 49.061 L 32 54.207 28.482 51.118 C 20.082 43.743, 6.855 46.588, 1.850 56.846 C -2.055 64.847, 1.781 80.960, 12.053 99.703 L 16 106.906 16 123.904 C 16 147.914, 18.026 155.425, 26.510 162.874 C 50.413 183.861, 125.452 187.451, 160.260 169.272 C 171.645 163.326, 174.492 158.549, 175.912 143 C 176.555 135.958, 176.910 135.091, 181.717 128.805 C 195.632 110.608, 203.222 80.014, 196.787 68.053 C 193.983 62.840, 187.655 59.072, 181.633 59.028 C 177.941 59.001, 177.794 58.876, 178.368 56.250 C 180.165 48.025, 180.272 34.471, 178.551 33.043 C 176.084 30.995, 156.206 33.101, 144.431 36.657 C 133.628 39.920, 132.742 39.916, 122 36.555 C 109.180 32.545, 95.345 30.703, 82.994 31.364 L 72.489 31.925 64.994 25.594 C 56.415 18.345, 44.264 10, 42.289 10 C 41.553 10, 40.559 11.029, 40.081 12.286" fill="none" stroke="#fff" stroke-width="9" stroke-linecap="round" stroke-linejoin="round" stroke-dasharray="0.5 16"/></svg>