<svg xmlns="http://www.w3.org/2000/svg" viewBox="-10 -10 220 220"><path d="M 39.022 22.750 C 36.814 30.476, 34 49.460, 34 56.633 C 34 62.689, 33.510 65.033, 31.355 69.283 C 29.901 72.152, 27.941 76.750, 27 79.500 C 25.399 84.180, 25.073 84.500, 21.901 84.500 C 19.018 84.500, 18.215 85.052, 16.528 88.193 C 15.438 90.224, 13.799 92.081, 12.888 92.319 C 11.590 92.658, 11.100 94.463, 10.630 100.626 C 9.507 115.386, 7.658 183.991, 8.365 184.698 C 9.876 186.210, 72.624 193.937, 85 194.136 C 100.779 194.390, 155.081 191.067, 156.750 189.745 C 157.571 189.095, 158 185.888, 158 180.394 L 158 172.034 162.963 169.519 C 174.726 163.558, 178.330 157.134, 180.197 138.800 C 181.511 125.887, 180.166 105.995, 176.892 89.943 L 174.801 79.689 176.872 72.595 C 180.830 59.033, 182.471 37.617, 179.917 32.846 C 178.103 29.455, 158.626 32.649, 141.986 39.066 L 133.888 42.189 126.194 40.129 C 110.683 35.978, 90.121 35.053, 77.633 37.946 C 73.946 38.800, 73.422 38.587, 66.319 33.334 C 56.674 26.201, 44.466 19, 42.018 19 C 40.652 19, 39.783 20.087, 39.022 22.750" fill="none" stroke="#fff" stroke-width="9" stroke-linecap="round" stroke-linejoin="round" stroke-dasharray="0.5 16"/></svg>