<svg xmlns="http://www.w3.org/2000/svg" viewBox="-10 -10 220 220"><path d="M 34.973 19.250 C 33.912 21.587, 33.034 24.081, 33.022 24.792 C 33.010 25.502, 30.075 27.396, 26.500 29 C 18.371 32.647, 18.275 34.168, 25.986 37.158 C 33.298 39.993, 34 41.528, 34 54.678 C 34 63.024, 33.683 64.687, 31.117 69.779 C 24.397 83.118, 20.349 101.198, 19.154 123.212 C 18.323 138.528, 18.473 138.101, 13.853 138.198 C 12.009 138.237, 9.738 139.062, 8.806 140.032 C 7.874 141.002, 6.737 141.954, 6.278 142.148 C 4.807 142.769, -0 154.648, 0 157.663 C 0 168.820, 12.611 177.377, 21.406 172.188 L 24.903 170.125 27.951 173.597 C 32.155 178.385, 31.577 184.786, 26.566 188.945 C 23.497 191.492, 24.709 193.978, 30.259 196.518 C 45.245 203.379, 61.583 198.868, 70.523 185.400 L 74.286 179.731 81.794 180.365 C 85.923 180.714, 95.750 181, 103.631 181 L 117.959 181 119.921 184.845 C 126.516 197.772, 145.120 203.425, 159.262 196.799 C 166.470 193.422, 167.065 191.978, 163.106 187.468 C 158.940 182.723, 158.867 177.781, 162.892 172.962 C 165.743 169.550, 165.815 169.527, 167.852 171.368 C 171.117 174.319, 177.768 174.513, 182.396 171.791 C 192.120 166.073, 192.782 151.775, 183.721 143.152 L 180.203 139.804 180.726 132.152 C 181.367 122.771, 179.574 102.922, 176.872 89.500 L 174.859 79.500 176.901 72.500 C 181.011 58.410, 182.536 36.483, 179.677 32.574 C 177.389 29.443, 157.442 32.877, 141.888 39.078 L 134.277 42.113 126.388 40.103 C 110.112 35.956, 90.048 35.070, 77.618 37.950 C 73.906 38.810, 73.417 38.609, 66.428 33.349 C 58.966 27.732, 58.191 26.039, 62.118 23.937 C 64.374 22.729, 64.589 20.163, 62.500 19.362 C 61.675 19.045, 61 18.145, 61 17.362 C 61 14.526, 58.033 14.813, 54.895 17.952 L 51.746 21.100 54.123 23.697 L 56.500 26.294 51.500 23.482 C 48.750 21.936, 46.072 20.295, 45.550 19.835 C 45.028 19.376, 43.842 19, 42.917 19 C 41.991 19, 40.998 18.100, 40.710 17 C 39.824 13.613, 37.035 14.707, 34.973 19.250 M 155.193 17.828 C 151.304 21.300, 151.291 21.750, 154.983 25.372 L 157.910 28.244 160.955 25.199 C 164.649 21.504, 164.639 21.823, 161.193 18.050 L 158.386 14.977 155.193 17.828 M 14.300 17.325 C 13.860 18.054, 12.713 18.940, 11.750 19.294 C 9.408 20.155, 9.572 20.904, 12.973 24.882 L 15.866 28.263 18.877 25.882 C 22.556 22.973, 22.674 21.831, 19.635 18.552 C 16.995 15.703, 15.488 15.357, 14.300 17.325 M 181.573 72.038 L 178.646 75.021 180.823 77.050 C 182.020 78.165, 183 79.510, 183 80.039 C 183 81.777, 185.850 81.043, 188.448 78.635 C 191.544 75.767, 191.550 75.662, 188.812 71.960 C 186.098 68.288, 185.244 68.297, 181.573 72.038 M 14.140 76.013 L 10.779 78.830 13.640 82.415 C 16.944 86.557, 17.531 86.723, 19.232 84 C 19.919 82.900, 21.048 82, 21.741 82 C 23.902 82, 23.068 78.620, 20.222 75.848 L 17.500 73.195 14.140 76.013 M 189.300 127.325 C 188.860 128.054, 187.713 128.940, 186.750 129.294 C 184.389 130.162, 184.569 130.911, 188.124 135 L 191.167 138.500 192.706 136.250 C 193.552 135.012, 194.864 134, 195.622 134 C 197.736 134, 197.263 131.386, 194.635 128.552 C 191.995 125.703, 190.488 125.357, 189.300 127.325" fill="none" stroke="#fff" stroke-width="9" stroke-linecap="round" stroke-linejoin="round" stroke-dasharray="0.5 16"/></svg>