<svg xmlns="http://www.w3.org/2000/svg" viewBox="-10 -10 220 220"><path d="M 39.022 22.750 C 36.814 30.474, 34 49.459, 34 56.628 C 34 62.825, 33.522 65.006, 31.117 69.779 C 27.068 77.817, 23.499 89.697, 21.395 102.141 C 20.110 109.748, 19.238 112.645, 18.340 112.300 C 14.293 110.747, 4.374 118.281, 1.878 124.802 C -1.821 134.467, 3.485 145.250, 16.518 154.550 C 21.278 157.947, 22.684 159.493, 22.310 160.923 C 18.665 174.860, 51.379 184.631, 93 182.038 C 140.820 179.058, 158.930 174.903, 171.253 164.083 C 181.287 155.273, 183.713 123.384, 176.892 89.943 L 174.801 79.689 176.872 72.595 C 180.830 59.033, 182.471 37.617, 179.917 32.846 C 178.103 29.455, 158.626 32.649, 141.986 39.066 L 133.888 42.189 126.194 40.129 C 110.683 35.978, 90.121 35.053, 77.633 37.946 C 73.946 38.800, 73.422 38.587, 66.319 33.334 C 56.674 26.201, 44.466 19, 42.018 19 C 40.652 19, 39.783 20.087, 39.022 22.750" fill="none" stroke="#fff" stroke-width="9" stroke-linecap="round" stroke-linejoin="round" stroke-dasharray="0.5 16"/></svg>