<svg xmlns="http://www.w3.org/2000/svg" viewBox="-10 -10 220 220"><path d="M 98.273 8.500 C 94.112 16.908, 94.511 16.731, 85.839 14.013 C 78.262 11.638, 75.579 11.460, 76.317 13.383 C 77.287 15.913, 81 28.201, 80.992 28.855 C 80.987 29.210, 77.612 31.296, 73.492 33.492 C 64.247 38.417, 64.247 38.694, 73.500 43.273 C 77.625 45.314, 80.993 47.325, 80.985 47.742 C 80.977 48.159, 79.861 52.071, 78.505 56.437 C 75.507 66.089, 75.332 65.892, 84.505 63.193 C 88.604 61.987, 92.400 61, 92.940 61 C 93.486 61, 94.050 64.885, 94.211 69.750 L 94.500 78.500 102.480 78.796 C 112.367 79.163, 113 78.532, 113 68.309 C 113 64.289, 113.338 60.999, 113.750 60.997 C 114.162 60.995, 117.770 61.963, 121.766 63.147 C 130.785 65.820, 130.697 65.930, 127.545 55.955 C 126.115 51.427, 125.070 47.619, 125.222 47.493 C 125.375 47.366, 128.989 45.363, 133.252 43.040 C 142.196 38.168, 142.193 38.123, 132.676 33.358 C 128.729 31.382, 125.341 29.622, 125.147 29.446 C 124.952 29.271, 125.965 25.609, 127.397 21.310 C 131.032 10.393, 131.061 10.422, 120.173 14.099 C 112.328 16.748, 112.112 16.646, 107.621 8.099 C 102.998 -0.699, 102.820 -0.691, 98.273 8.500 M 55.227 71.250 C 53.843 72.950, 51.199 86.536, 50.120 97.500 C 49.541 103.372, 48.306 108.681, 46.567 112.775 C 39.071 130.415, 36.922 160.251, 42.352 171.307 C 55.294 197.665, 144.988 199.577, 157.235 173.756 C 161.322 165.137, 161.434 141.579, 157.478 122.579 C 156.194 116.416, 156.209 115.158, 157.615 111.079 C 159.906 104.431, 161.586 88.040, 160.402 83.889 C 158.850 78.447, 146.199 79.085, 130.849 85.379 L 125.198 87.696 118.140 85.903 C 108.596 83.480, 95.955 82.636, 87.634 83.866 L 80.767 84.882 73.134 79.563 C 61.323 71.334, 56.850 69.257, 55.227 71.250" fill="none" stroke="#fff" stroke-width="9" stroke-linecap="round" stroke-linejoin="round" stroke-dasharray="0.5 16"/></svg>