<svg xmlns="http://www.w3.org/2000/svg" viewBox="-10 -10 220 220"><path d="M 79.828 8.496 C 65.980 10.827, 53.999 16.278, 52.526 20.919 C 51.711 23.485, 51.317 23.491, 47.226 20.996 C 40.312 16.781, 39.471 17.911, 36.427 35.500 C 35.571 40.450, 34.672 45.486, 34.430 46.692 L 33.991 48.884 29.393 46.850 C 16.339 41.075, 10.799 48.135, 7.085 75.277 C 5.973 83.404, 3.831 94.974, 2.325 100.987 C -0.695 113.042, -0.355 117.228, 3.690 117.809 L 5.840 118.118 3.920 125.046 C 1.065 135.350, 2.008 138.469, 7.359 136.416 C 9.396 135.634, 9.406 136.451, 7.431 142.248 C 3.837 152.796, 8.631 157.454, 17.137 151.682 L 20.695 149.267 21.976 152.810 C 24.761 160.512, 37.437 169.752, 51.568 174.380 C 93.284 188.042, 169.294 178.553, 175.531 158.904 C 176.121 157.043, 176.348 157.098, 179.513 159.877 C 188.355 167.641, 193.674 163.827, 190.500 152 C 189.688 148.975, 189.018 146.253, 189.012 145.951 C 189.005 145.649, 190.511 145.578, 192.357 145.794 C 196.776 146.309, 197.360 144.623, 195.496 136.718 C 193.607 128.706, 193.610 128.652, 196.168 127.487 C 200.366 125.576, 200.536 123.993, 198.176 108.818 C 196.952 100.943, 195.519 88.425, 194.993 81 C 193.614 61.547, 191.200 55.790, 183.798 54.310 L 181 53.750 181 44.309 C 181 31.444, 180.482 30.646, 172.667 31.483 C 169.275 31.847, 165.713 32.367, 164.750 32.639 C 163.293 33.052, 163 32.467, 163 29.144 C 163 13.478, 117.437 2.167, 79.828 8.496" fill="none" stroke="#fff" stroke-width="9" stroke-linecap="round" stroke-linejoin="round" stroke-dasharray="0.5 16"/></svg>