<svg xmlns="http://www.w3.org/2000/svg" viewBox="-10 -10 220 220"><path d="M 55.144 6.750 C 53.541 9.778, 51.027 24.207, 50.832 31.500 C 50.692 36.724, 49.948 40.022, 47.900 44.500 C 42.776 55.698, 38.154 80.333, 39.173 91.012 C 39.482 94.258, 39.207 94.982, 37.502 95.410 C 35.519 95.908, 16 136.973, 16 140.647 C 16 143.451, 21.580 143.358, 32.750 140.369 L 35 139.767 35 163.883 C 35 177.148, 35.112 188.036, 35.250 188.079 C 35.388 188.123, 54.850 189.659, 78.500 191.493 L 121.500 194.828 141 191.885 C 151.725 190.267, 161.512 188.722, 162.750 188.452 C 165 187.962, 165 187.960, 165 166.089 L 165 144.215 172.250 142.540 C 181.391 140.426, 183.995 139.372, 184.019 137.771 C 184.069 134.455, 164.548 95.924, 162.562 95.419 C 160.635 94.929, 160.487 94.099, 160.308 82.698 C 160.196 75.570, 159.318 66.401, 158.197 60.640 C 156.304 50.910, 156.304 50.698, 158.206 44.640 C 159.311 41.123, 160.378 33.997, 160.706 27.960 C 161.518 12.984, 161.317 12.852, 143.500 16.603 C 139.650 17.413, 134.025 19.076, 131 20.297 C 125.559 22.494, 125.426 22.499, 118.614 20.770 C 109.400 18.430, 94.969 17.563, 87.084 18.875 L 80.667 19.942 74.084 15.143 C 61.232 5.773, 56.720 3.774, 55.144 6.750" fill="none" stroke="#fff" stroke-width="9" stroke-linecap="round" stroke-linejoin="round" stroke-dasharray="0.5 16"/></svg>