<svg xmlns="http://www.w3.org/2000/svg" viewBox="-10 -10 220 220"><path d="M 84.329 4.250 C 83.895 4.938, 80.478 12.002, 76.737 19.950 C 72.995 27.897, 69.745 34.589, 69.513 34.820 C 69.282 35.052, 66.259 33.235, 62.796 30.784 C 53.879 24.470, 44.222 19, 41.993 19 C 38.925 19, 34 42.185, 34 56.628 C 34 62.801, 33.517 65.024, 31.140 69.779 C 24.321 83.418, 20.200 102.002, 19.327 123.047 C 18.127 151.978, 22.190 160.610, 41.568 170.306 C 47.795 173.421, 48.774 174.298, 49.793 177.671 C 50.429 179.777, 52.140 182.777, 53.596 184.338 C 63.118 194.544, 92.534 193.990, 99.425 183.475 C 100.909 181.210, 101.675 181, 108.472 181 C 132.624 181, 160.627 173.412, 171.407 163.947 C 180.166 156.257, 182.974 132.729, 178.887 101.269 L 177.817 93.038 186.409 74.610 C 197.285 51.281, 197.314 50.422, 187.040 55.898 C 183.839 57.604, 181.038 59, 180.815 59 C 180.592 59, 180.580 53.488, 180.790 46.750 C 181.297 30.403, 181.277 30.376, 169.647 31.924 C 164.857 32.561, 157.120 34.189, 152.454 35.541 C 141.826 38.621, 142.349 38.674, 141.556 34.447 C 140.588 29.289, 138.994 29.281, 129.557 34.384 C 118.757 40.223, 118.583 40.136, 116.421 27.831 C 114.249 15.461, 114.217 15.447, 102.249 21.392 C 97.035 23.983, 92.660 25.966, 92.526 25.801 C 92.393 25.635, 91.482 21.225, 90.503 16 C 88.190 3.671, 86.603 0.649, 84.329 4.250" fill="none" stroke="#fff" stroke-width="9" stroke-linecap="round" stroke-linejoin="round" stroke-dasharray="0.5 16"/></svg>