<svg xmlns="http://www.w3.org/2000/svg" viewBox="-10 -10 220 220"><path d="M 40.250 20.250 C 38.555 22.378, 34.916 42.928, 34.367 53.474 C 33.903 62.370, 33.407 64.466, 29.971 72.066 C 18.373 97.718, 11.382 154.117, 18.205 167 C 21.864 173.911, 27.177 176.232, 37.500 175.431 L 45.500 174.809 51 178.764 C 62.147 186.778, 67.802 187.966, 78.932 184.629 C 86.803 182.268, 92.538 182.604, 102.338 186 C 115.245 190.472, 118.516 190.169, 130.350 183.408 C 141.131 177.249, 142.462 177.070, 155.252 180.066 C 165.237 182.405, 174.560 178.509, 178.094 170.519 C 182.820 159.836, 182.422 117.563, 177.364 93 C 175.948 86.125, 174.738 80.050, 174.673 79.500 C 174.609 78.950, 175.538 75.475, 176.738 71.777 C 181.052 58.475, 182.386 34.093, 178.916 31.948 C 175.911 30.091, 155.448 34.002, 143.584 38.702 L 134.667 42.234 125.994 40.107 C 109.933 36.168, 80.145 35.320, 74.759 38.649 C 74.313 38.925, 70.805 36.821, 66.965 33.974 C 51.820 22.747, 42.198 17.804, 40.250 20.250" fill="none" stroke="#fff" stroke-width="9" stroke-linecap="round" stroke-linejoin="round" stroke-dasharray="0.5 16"/></svg>