<svg xmlns="http://www.w3.org/2000/svg" viewBox="-10 -10 220 220"><path d="M 138 14.533 C 136.625 15.276, 131.159 17.922, 125.853 20.414 C 120.547 22.906, 112.899 27.432, 108.858 30.472 C 101.535 35.981, 101.485 36, 94.327 36 C 79.721 36, 60.816 39.797, 49.204 45.062 C 41.302 48.645, 42.106 48.647, 33.169 45.006 C 20.358 39.785, 7.014 36.557, 5.306 38.265 C 3.392 40.179, 5.089 62.849, 8.025 74.588 L 10.048 82.676 7.524 92.088 C -0 120.144, 2.272 148.572, 12.976 160.283 C 40.098 189.960, 153.327 186.864, 161.975 156.209 C 163.578 150.527, 165.277 133.236, 164.761 127.862 L 164.300 123.067 174.400 122.783 L 184.500 122.500 184.808 118.795 L 185.115 115.090 178.161 114.795 L 171.207 114.500 178.103 105.067 C 188.130 91.354, 187.992 91, 172.657 91 L 160.314 91 158.053 82.750 C 156.810 78.213, 154.489 71.625, 152.896 68.112 C 151.303 64.598, 150 60.224, 150 58.392 L 150 55.060 162.750 54.780 C 175.113 54.508, 175.510 54.432, 175.820 52.250 C 176.070 50.490, 176.790 50, 179.129 50 C 182.643 50, 183.208 48.849, 172.279 63.950 C 161.229 79.219, 160.772 78.500, 181.514 78.500 L 198.500 78.500 198.500 74.500 L 198.500 70.500 189.779 70.704 L 181.057 70.907 190.029 58.569 C 202.499 41.417, 202.747 42, 183 42 C 168.019 42, 167 42.119, 167 43.876 C 167 45.517, 156.711 47.791, 155.195 46.486 C 155.027 46.342, 159.640 39.705, 165.445 31.738 C 179.827 12.001, 180.204 12.978, 158.250 13.091 C 145.395 13.158, 139.811 13.555, 138 14.533" fill="none" stroke="#fff" stroke-width="9" stroke-linecap="round" stroke-linejoin="round" stroke-dasharray="0.5 16"/></svg>