<svg xmlns="http://www.w3.org/2000/svg" viewBox="-10 -10 220 220"><path d="M 80.380 9.585 C 74.181 15.175, 69.398 18.771, 68.693 18.372 C 68.037 18, 66.750 17.053, 65.832 16.268 C 61.961 12.952, 59.804 14.917, 56.555 24.720 L 53.500 33.939 42.183 44.100 C 31.628 53.576, 30.699 54.184, 28.386 53.130 C 19.701 49.173, 11.996 56.432, 15.254 65.500 C 15.859 67.186, 15.152 67.893, 10.750 70 C 2.118 74.133, -1.615 83.613, 1.374 93.812 C 2.130 96.390, 4.172 103.675, 5.911 110 C 11.520 130.396, 17.231 140.441, 31.198 154.484 L 43.117 166.468 42.419 180.214 C 41.481 198.694, 41.972 199.279, 54 194 C 62.362 190.330, 64.960 190.281, 72 193.659 C 79.433 197.226, 85.814 197.233, 92.717 193.683 C 99.426 190.233, 102.580 190.304, 111.240 194.105 C 119.319 197.651, 121.871 197.579, 130.656 193.557 C 137.873 190.253, 140.649 190.335, 149.240 194.105 C 157.319 197.651, 159.871 197.579, 168.656 193.557 C 175.851 190.263, 178.358 190.337, 186.346 194.075 C 189.961 195.766, 193.949 197.004, 195.209 196.825 L 197.500 196.500 197.790 166 C 198.176 125.447, 196.193 104.348, 190.817 91.812 L 188.807 87.124 191.799 79.312 C 196.807 66.234, 200.170 46.054, 198.012 42.022 C 196.029 38.317, 174.238 39.869, 158.210 44.858 L 152.089 46.763 142.295 43.420 C 129.187 38.947, 117.207 37, 102.786 37 C 88.734 37, 88.789 37.172, 99.985 28.243 L 108.471 21.475 109.797 12.100 C 111.383 0.891, 111.805 1.392, 100.187 0.687 L 90.875 0.122 80.380 9.585" fill="none" stroke="#fff" stroke-width="9" stroke-linecap="round" stroke-linejoin="round" stroke-dasharray="0.5 16"/></svg>