<svg xmlns="http://www.w3.org/2000/svg" viewBox="-10 -10 220 220"><path d="M 58.930 17.685 C 55.691 26.204, 51.820 41.625, 50.837 49.931 C 50.214 55.194, 49.145 60.175, 48.463 61 C 46.668 63.170, 40.490 75.841, 39.025 80.357 L 37.774 84.215 33.913 78.109 C 27.755 68.368, 20.678 65.744, 11.007 69.614 C -0.248 74.117, -1.364 88.509, 7.452 115.425 C 14.552 137.099, 29.630 157.440, 46.054 167.504 C 77.010 186.471, 154.558 185.016, 179.888 164.994 C 190.390 156.693, 194.359 129.164, 189.688 97.024 C 188.340 87.749, 188.361 87.433, 190.667 82.218 C 196.049 70.049, 200.369 46.426, 198.016 42.031 C 196.029 38.317, 174.258 39.863, 158.210 44.858 L 152.089 46.763 142.295 43.420 C 129.136 38.929, 117.198 37, 102.572 37 L 90.406 37 86.453 32.912 C 80.527 26.784, 64.485 15, 62.069 15 C 60.691 15, 59.594 15.938, 58.930 17.685" fill="none" stroke="#fff" stroke-width="9" stroke-linecap="round" stroke-linejoin="round" stroke-dasharray="0.5 16"/></svg>