<svg xmlns="http://www.w3.org/2000/svg" viewBox="-10 -10 220 220"><path d="M 130.667 13.667 C 130.300 14.033, 129.992 19.321, 129.983 25.417 L 129.966 36.500 124.233 38.897 C 117.155 41.856, 115.045 41.864, 102.500 38.977 C 91.292 36.397, 67.204 35.701, 59.192 37.725 C 54.920 38.804, 54.826 38.770, 47.982 33.621 C 33.329 22.598, 23.337 17.596, 21.273 20.250 C 19.549 22.466, 15.990 42.813, 15.402 53.814 C 14.952 62.247, 14.344 65.449, 12.519 69 C 4.673 84.271, -0.828 113.942, 0.282 135 C 1.164 151.728, 4.802 159.169, 15.396 165.918 C 18.753 168.057, 23.075 171.379, 25 173.301 C 31.170 179.462, 39.669 181.853, 45.087 178.953 C 46.455 178.222, 48.767 178.233, 52.772 178.991 C 55.922 179.587, 63.900 180.334, 70.500 180.651 C 80.499 181.130, 83.379 181.646, 87.773 183.742 C 94.198 186.807, 99.222 186.442, 105.215 182.476 C 107.837 180.742, 112.623 179.100, 118.654 177.868 C 150.978 171.265, 159.900 162.635, 161.678 136.250 C 162.021 131.163, 162.661 127, 163.101 127 C 163.541 127, 164.035 124.434, 164.200 121.299 L 164.500 115.597 168 121.549 C 170.936 126.541, 171.997 127.549, 174.585 127.801 C 180.116 128.341, 180.772 125.814, 176.607 120.016 C 172.421 114.190, 172.362 113.887, 174.943 111.551 C 177.754 109.008, 178.416 104.706, 176.553 101.103 C 174.436 97.009, 172.207 96, 165.280 96 L 159.429 96 157.701 87.250 C 156.104 79.163, 156.095 78.159, 157.576 74 C 162.106 61.277, 163.829 34.159, 160.250 31.924 C 158.921 31.094, 158.581 29.796, 158.840 26.541 C 159.608 16.884, 154.280 13, 140.266 13 C 135.353 13, 131.033 13.300, 130.667 13.667 M 166.930 48.750 C 166.856 49.549, 166.879 82.942, 166.955 84.307 C 166.980 84.752, 168.912 84.977, 171.250 84.807 L 175.500 84.500 175.796 77.750 C 176.196 68.619, 176.731 68.784, 182.502 79.822 C 185.143 84.872, 185.319 85, 189.636 85 C 195.813 85, 196.008 83.271, 190.674 75.796 L 186.174 69.489 189.087 66.229 C 193.967 60.767, 192.955 52.580, 187.020 49.510 C 183.970 47.933, 167.066 47.293, 166.930 48.750" fill="none" stroke="#fff" stroke-width="9" stroke-linecap="round" stroke-linejoin="round" stroke-dasharray="0.5 16"/></svg>