<svg xmlns="http://www.w3.org/2000/svg" viewBox="-10 -10 220 220"><path d="M 39.022 22.750 C 36.814 30.474, 34 49.459, 34 56.628 C 34 62.801, 33.517 65.024, 31.140 69.779 C 19.093 93.878, 14.949 140.905, 23.569 155.688 C 36.012 177.025, 96.036 187.894, 141.550 177.050 C 148.794 175.324, 148.987 175.328, 150.723 177.246 C 156.983 184.163, 169.455 183.340, 174.475 175.678 C 175.522 174.081, 177.749 161.264, 181.043 137.881 C 186.820 96.876, 186.315 99.087, 190.080 98.334 C 196.932 96.964, 187.184 90, 178.414 90 C 175.014 90, 174.757 79.534, 177.885 68.500 C 180.653 58.734, 182.001 36.739, 180.053 33.100 C 178.099 29.447, 159.280 32.397, 141.986 39.066 L 133.888 42.189 126.194 40.129 C 110.683 35.978, 90.121 35.053, 77.633 37.946 C 73.946 38.800, 73.422 38.587, 66.319 33.334 C 56.674 26.201, 44.466 19, 42.018 19 C 40.652 19, 39.783 20.087, 39.022 22.750" fill="none" stroke="#fff" stroke-width="9" stroke-linecap="round" stroke-linejoin="round" stroke-dasharray="0.5 16"/></svg>