<svg xmlns="http://www.w3.org/2000/svg" viewBox="-10 -10 220 220"><path d="M 14.200 9.200 C 11.842 11.558, 12.547 99.687, 14.934 100.965 C 16.131 101.606, 27.223 102, 44.041 102 C 69.512 102, 71.171 102.110, 70.536 103.750 C 69.170 107.272, 67.173 115.829, 65.957 123.368 C 64.835 130.320, 64.418 131.250, 61.811 132.598 C 56.235 135.481, 53.465 143.128, 56.116 148.316 C 56.730 149.517, 61.343 154.487, 66.366 159.360 C 76.840 169.519, 83.127 173.009, 96.869 176.292 L 105.805 178.427 105.331 181.463 C 104.919 184.101, 105.589 185.218, 110.430 189.967 L 116.003 195.435 122 189.500 C 125.987 185.555, 127.821 183.012, 127.472 181.913 C 126.861 179.986, 130.424 179, 137.994 179 C 161.595 179, 181.316 169.273, 184.626 156 C 186.672 147.793, 186.057 122.411, 183.529 110.737 C 181.992 103.637, 181.982 102.568, 183.410 98.237 C 187.220 86.680, 187.725 68.599, 184.273 67.275 C 181.905 66.366, 167.348 68.907, 160.333 71.453 L 154 73.752 154 42.458 C 154 25.246, 153.727 10.452, 153.393 9.582 C 152.595 7.501, 16.273 7.127, 14.200 9.200" fill="none" stroke="#fff" stroke-width="9" stroke-linecap="round" stroke-linejoin="round" stroke-dasharray="0.5 16"/></svg>