<svg xmlns="http://www.w3.org/2000/svg" viewBox="-10 -10 220 220"><path d="M 39.022 22.750 C 36.814 30.476, 34 49.460, 34 56.633 C 34 62.688, 33.510 65.034, 31.356 69.283 C 25.013 81.798, 20.271 102.032, 19.144 121.392 L 18.500 132.450 14.110 133.197 C 3.817 134.948, 2.805 145.183, 12.828 146.172 C 16.143 146.499, 16.157 146.523, 16.420 152.300 C 16.837 161.446, 22.227 166.934, 32.812 168.989 C 35.940 169.596, 42.550 171.430, 47.500 173.064 C 88.826 186.708, 150.667 182.158, 171.407 163.947 C 181.280 155.279, 183.662 123.136, 176.892 89.943 L 174.801 79.689 176.872 72.595 C 180.830 59.033, 182.471 37.617, 179.917 32.846 C 178.103 29.455, 158.626 32.649, 141.986 39.066 L 133.888 42.189 126.194 40.129 C 110.683 35.978, 90.121 35.053, 77.633 37.946 C 73.946 38.800, 73.422 38.587, 66.319 33.334 C 56.674 26.201, 44.466 19, 42.018 19 C 40.652 19, 39.783 20.087, 39.022 22.750" fill="none" stroke="#fff" stroke-width="9" stroke-linecap="round" stroke-linejoin="round" stroke-dasharray="0.5 16"/></svg>