<svg xmlns="http://www.w3.org/2000/svg" viewBox="-10 -10 220 220"><path d="M 32.656 10.132 C 30.152 13.971, 29.097 20.453, 27.958 39 C 26.944 55.497, 26.692 56.930, 23.554 64 C 16.128 80.734, 13.698 102.263, 17.423 118.325 C 18.290 122.064, 19 128.389, 19 132.378 C 19 152.455, 24.332 161.721, 40.500 169.744 C 75.515 187.119, 148.707 183.878, 171.407 163.947 C 175.994 159.920, 178.734 152.390, 180.044 140.213 C 180.619 134.871, 181.739 128.475, 182.532 126 C 186.380 114.001, 187.331 93.916, 184.591 82.513 C 183.212 76.773, 183.272 76.031, 186.051 64.513 C 197.184 18.367, 194.372 14.019, 160.523 25.031 L 148.033 29.095 144.267 26.529 C 126.235 14.245, 92.968 11.548, 70.527 20.551 C 65.679 22.496, 64.247 22.717, 62.927 21.724 C 45.572 8.668, 36.002 5.003, 32.656 10.132" fill="none" stroke="#fff" stroke-width="9" stroke-linecap="round" stroke-linejoin="round" stroke-dasharray="0.5 16"/></svg>