<svg xmlns="http://www.w3.org/2000/svg" viewBox="-10 -10 220 220"><path d="M 39.022 22.750 C 36.827 30.428, 34 49.440, 34 56.518 C 34 62.762, 33.508 64.863, 30.650 70.827 C 28.808 74.671, 26.445 80.803, 25.400 84.454 L 23.500 91.091 19.825 90.470 C 15.088 89.670, 14 91.531, 14 100.434 C 14 105.808, 13.622 107.348, 11.917 108.917 C 10.771 109.971, 8.573 112.019, 7.032 113.468 C 0.690 119.432, 0.703 129.109, 7.062 136.334 L 11.077 140.894 10.788 151.197 L 10.500 161.500 19.500 162.299 C 24.450 162.739, 29.625 163.731, 31 164.504 C 52.410 176.539, 65.333 179.775, 95.500 180.659 C 130.327 181.680, 158.201 175.543, 171.407 163.947 C 181.280 155.279, 183.662 123.136, 176.892 89.943 L 174.801 79.689 176.872 72.595 C 180.830 59.033, 182.471 37.617, 179.917 32.846 C 178.103 29.455, 158.626 32.649, 141.986 39.066 L 133.888 42.189 126.194 40.129 C 110.683 35.978, 90.121 35.053, 77.633 37.946 C 73.946 38.800, 73.422 38.587, 66.319 33.334 C 56.674 26.201, 44.466 19, 42.018 19 C 40.652 19, 39.783 20.087, 39.022 22.750" fill="none" stroke="#fff" stroke-width="9" stroke-linecap="round" stroke-linejoin="round" stroke-dasharray="0.5 16"/></svg>