<svg xmlns="http://www.w3.org/2000/svg" viewBox="-10 -10 220 220"><path d="M 39.022 22.750 C 36.827 30.428, 34 49.440, 34 56.518 C 34 62.825, 33.516 64.847, 30.500 71.140 C 28.575 75.157, 27 79.045, 27 79.781 C 27 80.516, 26.615 80.880, 26.145 80.590 C 25.675 80.299, 24.979 75.435, 24.599 69.781 C 23.340 51.039, 22.842 50.038, 15.782 52.063 C 1.968 56.024, -1.068 86.310, 10.020 109.543 C 13.716 117.285, 13.722 118.350, 10.086 120.939 C 0.268 127.929, 1.203 143.018, 11.914 150.440 C 16.321 153.495, 16.337 153.543, 17.699 168 L 18.500 176.500 22 176.791 C 23.925 176.951, 27.300 176.696, 29.500 176.225 L 33.500 175.369 33.196 170.644 L 32.891 165.920 39.696 169.320 C 65.947 182.438, 123.782 185.120, 151.181 174.491 C 152.518 173.972, 152.926 174.518, 153.181 177.167 C 153.490 180.396, 153.681 180.527, 159.534 181.570 C 167.641 183.013, 167.698 182.968, 169.101 174.274 C 170.384 166.320, 170.735 165.777, 177.714 160.953 C 185.262 155.735, 187.588 146.052, 183.115 138.471 C 178.947 131.407, 180.029 123.679, 185.928 118.375 C 192.840 112.160, 198 94.655, 198 77.418 C 198 65.701, 192.715 63.910, 187.720 73.934 L 185.245 78.902 184.565 73.778 C 183.751 67.640, 182.482 65, 180.348 65 C 179.177 65, 178.940 64.417, 179.435 62.750 C 180.840 58.018, 181.311 35.450, 180.053 33.100 C 178.099 29.447, 159.280 32.397, 141.986 39.066 L 133.888 42.189 126.194 40.129 C 110.683 35.978, 90.121 35.053, 77.633 37.946 C 73.946 38.800, 73.422 38.587, 66.319 33.334 C 56.674 26.201, 44.466 19, 42.018 19 C 40.652 19, 39.783 20.087, 39.022 22.750" fill="none" stroke="#fff" stroke-width="9" stroke-linecap="round" stroke-linejoin="round" stroke-dasharray="0.5 16"/></svg>