<svg xmlns="http://www.w3.org/2000/svg" viewBox="-10 -10 220 220"><path d="M 19.748 2.427 C 9.160 6.205, 5.688 12.440, 9.043 21.649 C 10.216 24.867, 11.423 28.325, 11.726 29.332 C 12.121 30.649, 10.662 32.691, 6.535 36.593 C -2.404 45.047, 1.617 47.588, 14.338 41.525 L 19.176 39.219 18.560 41.359 C 15.239 52.889, 15.724 58.065, 20.475 61.802 C 21.688 62.755, 23.924 66.309, 25.445 69.697 L 28.210 75.859 26.086 82.240 C 17.961 106.656, 16.685 143.883, 23.569 155.688 C 43.508 189.879, 166.833 189.328, 177.117 155.002 C 178.184 151.443, 178.753 150.903, 181.983 150.387 C 201.892 147.203, 204.993 126, 185.550 126 C 181.884 126, 181 125.660, 180.999 124.250 C 180.997 119.941, 178.872 99.993, 177.902 95.183 L 176.831 89.867 180.539 86.265 C 190.600 76.494, 192.007 60.332, 183.841 48.320 C 181.729 45.213, 181 42.950, 181 39.504 C 181 31.917, 179.819 30.667, 173.409 31.468 L 168 32.144 168 28.645 C 168 17.993, 134.481 4.946, 102.916 3.311 C 79.673 2.108, 45.737 9.952, 43.485 17.048 C 43.144 18.122, 42.238 19, 41.471 19 C 40.206 19, 39.467 20.884, 37.445 29.259 C 37.078 30.777, 36.302 32.313, 35.719 32.673 C 35.097 33.058, 34.880 32.744, 35.193 31.914 C 38.404 23.394, 41.167 8.818, 40.072 6.174 C 37.966 1.089, 28.425 -0.670, 19.748 2.427" fill="none" stroke="#fff" stroke-width="9" stroke-linecap="round" stroke-linejoin="round" stroke-dasharray="0.5 16"/></svg>