<svg xmlns="http://www.w3.org/2000/svg" viewBox="-10 -10 220 220"><path d="M 170.500 31.674 C 162.948 32.617, 151.706 35.498, 143.113 38.695 C 133.727 42.186, 133.724 42.186, 128.113 40.662 C 122.807 39.220, 109.809 37, 106.675 37 C 104.810 37, 103.693 41.186, 105.288 42.199 C 106.166 42.757, 106.087 42.975, 105 42.991 C 103.873 43.008, 100.914 52.764, 93.093 82.257 C 87.370 103.841, 82.315 122.244, 81.860 123.153 C 79.734 127.405, 69.979 129.870, 63 127.919 C 62.027 127.647, 61.500 128.203, 61.500 129.500 C 61.500 132.561, 68.844 134.602, 74.884 133.219 C 77.421 132.639, 79.541 132.239, 79.595 132.332 C 79.649 132.424, 77.307 141.275, 74.390 152 C 71.473 162.725, 69.067 171.613, 69.043 171.750 C 69.019 171.887, 70.013 172.045, 71.250 172.100 C 73.385 172.194, 73.372 172.235, 71 172.891 C 67.282 173.919, 67.075 177.642, 70.693 178.418 C 104.302 185.627, 155.015 178.340, 171.407 163.947 C 181.280 155.279, 183.662 123.136, 176.892 89.943 L 174.801 79.689 176.872 72.595 C 179.738 62.774, 180.984 54.036, 180.992 43.684 C 181.003 31.020, 180.486 30.428, 170.500 31.674 M 63.656 83.250 C 62.732 89.438, 61.982 94.838, 61.988 95.250 C 62.007 96.465, 68.362 96.045, 70.046 94.718 C 75.950 90.066, 76.999 79.845, 72.077 74.923 C 66.629 69.475, 65.554 70.538, 63.656 83.250" fill="none" stroke="#fff" stroke-width="9" stroke-linecap="round" stroke-linejoin="round" stroke-dasharray="0.5 16"/></svg>