<svg xmlns="http://www.w3.org/2000/svg" viewBox="-10 -10 220 220"><path d="M 39.022 22.750 C 36.814 30.476, 34 49.460, 34 56.633 C 34 62.688, 33.510 65.034, 31.356 69.283 C 26.054 79.744, 21.588 96.696, 19.549 114.101 C 19.005 118.750, 18.392 120.073, 15.947 121.881 C 11.828 124.926, 11.853 129.355, 16 131.500 C 18.411 132.747, 19 133.697, 19 136.342 C 19 152.166, 25.535 162.318, 40.500 169.744 C 75.515 187.119, 148.707 183.878, 171.407 163.947 C 181.280 155.279, 183.662 123.136, 176.892 89.943 L 174.801 79.689 176.872 72.595 C 180.830 59.033, 182.471 37.617, 179.917 32.846 C 178.103 29.455, 158.626 32.649, 141.986 39.066 L 133.888 42.189 126.194 40.129 C 110.683 35.978, 90.121 35.053, 77.633 37.946 C 73.946 38.800, 73.422 38.587, 66.319 33.334 C 56.674 26.201, 44.466 19, 42.018 19 C 40.652 19, 39.783 20.087, 39.022 22.750" fill="none" stroke="#fff" stroke-width="9" stroke-linecap="round" stroke-linejoin="round" stroke-dasharray="0.5 16"/></svg>