<svg xmlns="http://www.w3.org/2000/svg" viewBox="-10 -10 220 220"><path d="M 39.022 22.750 C 36.814 30.474, 34 49.459, 34 56.628 C 34 62.801, 33.517 65.024, 31.140 69.779 C 24.321 83.418, 20.200 102.002, 19.327 123.047 C 18.412 145.102, 20.013 152.179, 28.066 161.673 C 38.668 174.174, 39.789 174.838, 52.368 176.063 C 57.391 176.552, 64.875 177.659, 69 178.523 C 78.089 180.425, 137.438 182.270, 142.713 180.813 C 144.551 180.306, 147.505 178.648, 149.277 177.129 C 151.050 175.609, 155.898 172.773, 160.052 170.827 C 174.633 163.992, 178.211 158.303, 180.197 138.800 C 181.511 125.887, 180.166 105.995, 176.892 89.943 L 174.801 79.689 176.872 72.595 C 180.830 59.033, 182.471 37.617, 179.917 32.846 C 178.103 29.455, 158.626 32.649, 141.986 39.066 L 133.888 42.189 126.194 40.129 C 110.683 35.978, 90.121 35.053, 77.633 37.946 C 73.946 38.800, 73.422 38.587, 66.319 33.334 C 56.674 26.201, 44.466 19, 42.018 19 C 40.652 19, 39.783 20.087, 39.022 22.750" fill="none" stroke="#fff" stroke-width="9" stroke-linecap="round" stroke-linejoin="round" stroke-dasharray="0.5 16"/></svg>