<svg xmlns="http://www.w3.org/2000/svg" viewBox="-10 -10 220 220"><path d="M 39.022 22.750 C 36.814 30.474, 34 49.459, 34 56.628 C 34 62.801, 33.517 65.024, 31.140 69.779 C 16.025 100.014, 14.759 150.364, 28.817 162.192 C 31.372 164.342, 31.743 165.433, 32.343 172.548 C 34.773 201.358, 68.912 209.646, 80.237 184.174 C 81.592 181.127, 82.605 180.018, 83.662 180.424 C 84.488 180.741, 91.764 180.999, 99.832 180.998 L 114.500 180.997 114.500 189.248 L 114.500 197.500 119.602 197.797 L 124.704 198.094 125.373 190.899 C 125.912 185.098, 125.738 183.368, 124.476 181.973 C 123.010 180.353, 123.431 180.167, 131.110 179.044 C 147.706 176.618, 163.877 170.559, 171.407 163.947 C 181.280 155.279, 183.662 123.136, 176.892 89.943 L 174.801 79.689 176.872 72.595 C 180.830 59.033, 182.471 37.617, 179.917 32.846 C 178.103 29.455, 158.626 32.649, 141.986 39.066 L 133.888 42.189 126.194 40.129 C 110.683 35.978, 90.121 35.053, 77.633 37.946 C 73.946 38.800, 73.422 38.587, 66.319 33.334 C 56.674 26.201, 44.466 19, 42.018 19 C 40.652 19, 39.783 20.087, 39.022 22.750" fill="none" stroke="#fff" stroke-width="9" stroke-linecap="round" stroke-linejoin="round" stroke-dasharray="0.5 16"/></svg>