<svg xmlns="http://www.w3.org/2000/svg" viewBox="-10 -10 220 220"><path d="M 155 25.550 C 150.325 26.894, 141.325 30.578, 135 33.736 C 128.675 36.894, 123.132 39.361, 122.683 39.217 C 112.830 36.063, 85.451 37.197, 71.100 41.354 L 63.188 43.645 56.844 39.826 C 49.070 35.145, 32.995 28, 30.238 28 C 27.257 28, 26.876 29.892, 26.263 47.751 L 25.704 64.003 22.037 64.990 C 15.309 66.802, 11.599 72.938, 10.517 84.043 C 10.171 87.594, 9.177 94.705, 8.309 99.844 C 5.290 117.707, 7.784 130.826, 16.887 144.981 C 19.546 149.116, 22.722 154.187, 23.943 156.250 C 43.968 190.071, 168.315 188.863, 177.002 154.763 C 177.599 152.418, 179.224 146.900, 180.613 142.500 C 186.589 123.568, 185.419 108.850, 176.521 91 C 170.349 78.618, 168.668 71.871, 170.111 65.270 C 172.647 53.660, 170.993 25.943, 167.633 23.765 C 165.920 22.655, 164.252 22.890, 155 25.550" fill="none" stroke="#fff" stroke-width="9" stroke-linecap="round" stroke-linejoin="round" stroke-dasharray="0.5 16"/></svg>