<svg xmlns="http://www.w3.org/2000/svg" viewBox="-10 -10 220 220"><path d="M 39.022 22.750 C 36.907 30.149, 33.997 49.343, 33.852 56.849 C 33.763 61.445, 33.264 57.032, 32.602 45.795 C 31.403 25.444, 31.124 24.600, 25.593 24.600 C 18.778 24.600, 18.824 24.386, 19.396 52.921 L 19.908 78.500 16.650 53.180 C 13.167 26.112, 13.144 26.044, 7.405 26.015 C 0.480 25.981, 0.548 24.561, 5.065 75.252 L 9.128 120.849 6.415 124.949 C -0.915 136.025, 3.454 146.588, 18.549 154.288 C 21.272 155.677, 25.642 158.877, 28.259 161.399 C 54.175 186.367, 144.050 187.967, 171.407 163.947 C 181.280 155.279, 183.662 123.136, 176.892 89.943 L 174.801 79.689 176.872 72.595 C 180.830 59.033, 182.471 37.617, 179.917 32.846 C 178.103 29.455, 158.626 32.649, 141.986 39.066 L 133.888 42.189 126.194 40.129 C 110.683 35.978, 90.121 35.053, 77.633 37.946 C 73.946 38.800, 73.422 38.587, 66.319 33.334 C 56.674 26.201, 44.466 19, 42.018 19 C 40.652 19, 39.783 20.087, 39.022 22.750" fill="none" stroke="#fff" stroke-width="9" stroke-linecap="round" stroke-linejoin="round" stroke-dasharray="0.5 16"/></svg>