<svg xmlns="http://www.w3.org/2000/svg" viewBox="-10 -10 220 220"><path d="M 39.022 22.750 C 36.814 30.474, 34 49.459, 34 56.628 C 34 62.801, 33.517 65.024, 31.140 69.779 C 24.386 83.290, 20.225 101.928, 19.325 122.699 L 18.710 136.898 14.747 140.083 C 7.700 145.746, 3.764 158.362, 7.417 163.578 C 8.196 164.690, 13.484 169.233, 19.167 173.673 C 43.032 192.315, 54.117 195.567, 83.500 192.547 C 91.750 191.698, 107.292 191.003, 118.038 191.002 C 162.479 190.997, 180.403 184.880, 189.863 166.488 C 195.790 154.964, 195.250 152.274, 185.535 144.938 L 180.077 140.818 180.658 133.159 C 181.381 123.639, 179.651 103.843, 176.894 90.084 L 174.807 79.668 176.875 72.584 C 180.830 59.032, 182.470 37.615, 179.917 32.846 C 178.103 29.455, 158.626 32.649, 141.986 39.066 L 133.888 42.189 126.194 40.129 C 110.683 35.978, 90.121 35.053, 77.633 37.946 C 73.946 38.800, 73.422 38.587, 66.319 33.334 C 56.674 26.201, 44.466 19, 42.018 19 C 40.652 19, 39.783 20.087, 39.022 22.750" fill="none" stroke="#fff" stroke-width="9" stroke-linecap="round" stroke-linejoin="round" stroke-dasharray="0.5 16"/></svg>