<svg xmlns="http://www.w3.org/2000/svg" viewBox="-10 -10 220 220"><path d="M 39.022 22.750 C 36.814 30.474, 34 49.459, 34 56.628 C 34 62.801, 33.517 65.024, 31.140 69.779 C 24.326 83.409, 20.200 102.006, 19.331 123 C 18.309 147.696, 21.031 156.429, 32.435 165.039 C 38.034 169.266, 38.034 169.266, 37.546 173.883 C 35.976 188.760, 35.899 193.023, 37.189 193.494 C 37.910 193.757, 57.363 195.305, 80.418 196.933 L 122.337 199.893 127.918 194.802 C 133.146 190.035, 133.532 189.365, 134 184.249 L 134.500 178.786 143.978 176.396 C 162.761 171.658, 173.418 164.844, 176.995 155.285 C 181.877 142.234, 181.833 114.171, 176.892 89.943 L 174.801 79.689 176.872 72.595 C 180.830 59.033, 182.471 37.617, 179.917 32.846 C 178.103 29.455, 158.626 32.649, 141.986 39.066 L 133.888 42.189 126.194 40.129 C 110.683 35.978, 90.121 35.053, 77.633 37.946 C 73.946 38.800, 73.422 38.587, 66.319 33.334 C 56.674 26.201, 44.466 19, 42.018 19 C 40.652 19, 39.783 20.087, 39.022 22.750" fill="none" stroke="#fff" stroke-width="9" stroke-linecap="round" stroke-linejoin="round" stroke-dasharray="0.5 16"/></svg>