<svg xmlns="http://www.w3.org/2000/svg" viewBox="-10 -10 220 220"><path d="M 126.093 4.131 C 110.326 6.748, 101.073 15.237, 97.910 29.986 C 97.184 33.369, 96.333 35, 95.294 35 C 89.254 35, 64.953 45.219, 55 51.944 L 49.500 55.661 44 54.400 C 39.278 53.318, 33.213 52.439, 17.336 50.533 C 10.758 49.744, 10.453 51.081, 13.957 65.323 C 15.678 72.321, 18.668 81.749, 20.601 86.273 C 23.742 93.626, 24.150 95.616, 24.441 105 C 25.180 128.838, 35.921 161.600, 48.012 176.895 C 57.388 188.757, 76.609 191.460, 102.945 184.619 L 111.875 182.300 112.543 186.252 C 112.910 188.428, 114.474 191.618, 116.022 193.352 L 118.834 196.500 159.417 196.783 L 200 197.065 200 100.033 L 200 3 165.750 3.117 C 146.912 3.181, 129.067 3.638, 126.093 4.131" fill="none" stroke="#fff" stroke-width="9" stroke-linecap="round" stroke-linejoin="round" stroke-dasharray="0.5 16"/></svg>