<svg xmlns="http://www.w3.org/2000/svg" viewBox="-10 -10 220 220"><path d="M 39.022 22.750 C 36.814 30.474, 34 49.459, 34 56.628 C 34 62.801, 33.517 65.024, 31.140 69.779 C 19.093 93.878, 14.949 140.905, 23.569 155.688 C 29.449 165.770, 45.700 174.217, 66.500 178.002 C 72.987 179.183, 74.218 179.852, 83.312 187.140 C 91.614 193.795, 93.421 194.845, 95.062 193.967 C 97.392 192.720, 97.411 192.416, 95.500 187 C 93.456 181.207, 93.522 181, 97.418 181 C 100.752 181, 100.892 181.168, 103.067 187.750 C 105.093 193.884, 106.358 195.941, 108.127 195.985 C 108.472 195.993, 112.250 192.418, 116.523 188.039 C 123.485 180.906, 124.772 180.015, 128.897 179.471 C 145.079 177.334, 163.982 170.467, 171.253 164.083 C 181.287 155.273, 183.713 123.384, 176.892 89.943 L 174.801 79.689 176.872 72.595 C 180.830 59.033, 182.471 37.617, 179.917 32.846 C 178.103 29.455, 158.626 32.649, 141.986 39.066 L 133.888 42.189 126.194 40.129 C 110.683 35.978, 90.121 35.053, 77.633 37.946 C 73.946 38.800, 73.422 38.587, 66.319 33.334 C 56.674 26.201, 44.466 19, 42.018 19 C 40.652 19, 39.783 20.087, 39.022 22.750" fill="none" stroke="#fff" stroke-width="9" stroke-linecap="round" stroke-linejoin="round" stroke-dasharray="0.5 16"/></svg>