<svg xmlns="http://www.w3.org/2000/svg" viewBox="-10 -10 220 220"><path d="M 32.487 49.014 C 31.090 50.559, 29.913 50.887, 27.438 50.422 C 23.202 49.628, 20.164 51.362, 18.402 55.580 C 17.616 57.461, 16.284 59, 15.441 59 C 12.044 59, 8.792 63.812, 9.472 67.833 C 9.984 70.865, 9.709 71.953, 8.054 73.452 C 5.450 75.808, 5.425 79.999, 7.995 83.266 C 9.420 85.078, 9.820 86.652, 9.394 88.779 C 8.599 92.757, 10.424 95.862, 14.580 97.598 C 16.461 98.384, 18 99.716, 18 100.559 C 18 102.877, 22.606 106.999, 25.205 107.006 C 27.118 107.010, 28.281 108.632, 32.197 116.756 L 36.893 126.500 36.860 139.195 C 36.804 160.123, 40 166.408, 54 172.906 C 77.360 183.749, 120.919 183.777, 143.574 172.965 C 153.271 168.337, 156.981 162.566, 156.994 152.091 C 156.999 148.534, 157.742 146.697, 160.837 142.591 C 162.947 139.791, 165.213 136.488, 165.872 135.250 C 166.531 134.013, 167.546 133, 168.127 133 C 168.709 133, 170.289 132.132, 171.638 131.070 C 173.392 129.690, 175.036 129.294, 177.408 129.679 C 181.699 130.375, 184.890 128.613, 186.214 124.815 C 186.903 122.839, 188.429 121.301, 190.599 120.394 C 194.720 118.672, 196.381 115.735, 195.679 111.408 C 195.286 108.988, 195.696 107.385, 197.195 105.479 C 199.824 102.137, 199.805 98.580, 197.138 94.973 C 195.630 92.933, 195.194 91.278, 195.614 89.181 C 196.398 85.262, 194.567 82.135, 190.492 80.432 C 188.626 79.653, 186.840 78.031, 186.454 76.767 C 185.172 72.561, 182.952 71, 178.253 71 C 175.330 71, 172.948 70.318, 171.273 69 C 168.089 66.495, 164.896 66.454, 161.902 68.878 C 160.143 70.303, 159.176 70.502, 157.899 69.705 C 155.680 68.319, 139.586 70.266, 130.780 72.986 C 124.315 74.983, 124.265 74.983, 118.583 73.029 C 109.921 70.048, 101.782 68.858, 90.201 68.876 L 79.692 68.892 74.596 64.594 C 68.152 59.159, 58.925 53, 57.228 53 C 56.514 53, 54.822 52.275, 53.469 51.388 C 51.797 50.292, 49.940 49.976, 47.672 50.402 C 45.076 50.889, 43.931 50.581, 42.513 49.014 C 41.411 47.797, 39.427 47, 37.500 47 C 35.573 47, 33.589 47.797, 32.487 49.014" fill="none" stroke="#fff" stroke-width="9" stroke-linecap="round" stroke-linejoin="round" stroke-dasharray="0.5 16"/></svg>