<svg xmlns="http://www.w3.org/2000/svg" viewBox="-10 -10 220 220"><path d="M 39.022 22.750 C 36.814 30.474, 34 49.459, 34 56.628 C 34 62.821, 33.521 65.009, 31.121 69.779 C 29.538 72.925, 27.431 78.088, 26.439 81.250 L 24.635 87 17.286 87 C 12.140 87, 9.786 87.394, 9.433 88.314 C 8.897 89.710, 13.635 160.937, 14.517 164.750 C 14.804 165.987, 15.549 167, 16.174 167 C 16.825 167, 16.590 167.795, 15.624 168.863 C 14.192 170.445, 13.981 172.668, 14.219 183.613 L 14.500 196.500 80.471 196.757 L 146.441 197.015 154.221 189.281 L 162 181.547 162 175.799 C 162 170.430, 162.197 169.950, 164.987 168.507 C 180.750 160.356, 185.227 130.810, 176.892 89.943 L 174.801 79.689 176.872 72.595 C 180.830 59.033, 182.471 37.617, 179.917 32.846 C 178.103 29.455, 158.626 32.649, 141.986 39.066 L 133.888 42.189 126.194 40.129 C 110.683 35.978, 90.121 35.053, 77.633 37.946 C 73.946 38.800, 73.422 38.587, 66.319 33.334 C 56.674 26.201, 44.466 19, 42.018 19 C 40.652 19, 39.783 20.087, 39.022 22.750" fill="none" stroke="#fff" stroke-width="9" stroke-linecap="round" stroke-linejoin="round" stroke-dasharray="0.5 16"/></svg>