<svg xmlns="http://www.w3.org/2000/svg" viewBox="-10 -10 220 220"><path d="M 60.094 12.253 C 58.644 16.066, 56 33.060, 56 38.564 C 56 42.263, 55.130 45.636, 53.001 50.184 C 48.616 59.556, 46.031 72.413, 45.401 88 C 44.911 100.091, 44.549 102.185, 41.933 108.067 C 30.266 134.294, 30.564 168.328, 42.539 177.462 C 67.534 196.526, 140.541 193.501, 151.017 172.967 C 155.064 165.034, 156.017 134.026, 152.496 124.849 C 152.147 123.941, 153.619 122.244, 156.542 120.183 C 164.411 114.637, 165.504 110.885, 165.479 89.500 C 165.464 75.939, 165.013 69.452, 163.653 63.198 C 161.976 55.488, 161.961 54.562, 163.447 50.203 C 165.632 43.790, 167.247 28.343, 166.241 23.471 C 165.502 19.889, 165.092 19.468, 162.053 19.175 C 156.945 18.682, 146.398 20.807, 138.248 23.972 C 131.222 26.700, 130.754 26.753, 125.725 25.397 C 116.885 23.014, 103.596 22.022, 94.447 23.062 L 86.040 24.017 81.609 20.635 C 68.860 10.904, 61.672 8.103, 60.094 12.253" fill="none" stroke="#fff" stroke-width="9" stroke-linecap="round" stroke-linejoin="round" stroke-dasharray="0.5 16"/></svg>