<svg xmlns="http://www.w3.org/2000/svg" viewBox="-10 -10 220 220"><path d="M 71.313 3.820 C 70.013 4.639, 68.143 13.410, 67.642 21.030 C 67.442 24.072, 66.565 27.941, 65.692 29.629 C 64.819 31.317, 63.591 34.903, 62.963 37.599 C 62.336 40.295, 61.642 43.087, 61.421 43.805 C 61.135 44.736, 59.800 44.281, 56.760 42.218 C 46.880 35.512, 42.162 33.406, 40.611 35.011 C 38.431 37.266, 34.869 56.111, 34.280 68.500 C 33.809 78.391, 33.409 80.230, 30.311 86.745 C 19.269 109.962, 15.323 154.951, 23.007 170.013 C 39.842 203.013, 160.624 205.939, 175.846 173.716 C 181.192 162.400, 182.151 133.676, 177.924 111.500 C 175.081 96.586, 175.075 93.498, 177.871 83.500 C 180.260 74.954, 181.761 56.870, 180.596 50.660 C 179.918 47.045, 179.850 47, 175.065 47 C 168.433 47, 155.103 49.633, 147.186 52.506 C 139.430 55.322, 139 55.170, 139 49.625 C 139 47.283, 138.529 42.821, 137.954 39.710 C 137.134 35.271, 137.241 32.440, 138.454 26.568 C 141.681 10.945, 140.553 8.459, 131 10.149 C 127.425 10.781, 122.738 12.046, 120.584 12.960 C 117.131 14.424, 116.066 14.461, 111.584 13.269 C 108.594 12.474, 102.538 12.010, 96.883 12.144 C 87.387 12.368, 87.198 12.326, 81.883 8.828 C 74.425 3.919, 72.559 3.035, 71.313 3.820" fill="none" stroke="#fff" stroke-width="9" stroke-linecap="round" stroke-linejoin="round" stroke-dasharray="0.5 16"/></svg>