<svg xmlns="http://www.w3.org/2000/svg" viewBox="-10 -10 220 220"><path d="M 39.022 22.750 C 36.814 30.476, 34 49.460, 34 56.633 C 34 62.688, 33.510 65.034, 31.356 69.283 C 25.880 80.086, 21.259 97.928, 19.477 115.146 C 18.825 121.450, 18.642 121.822, 15.921 122.366 C 10.598 123.430, 10.640 130.578, 15.976 131.645 C 18.686 132.187, 19 132.633, 19 135.941 C 19 155.153, 28.381 166.390, 50.882 174.132 C 76.513 182.950, 123.546 183.113, 150.880 174.478 C 158.010 172.226, 159.466 172.059, 162.943 173.101 C 169.454 175.052, 176 170.719, 176 164.458 C 176 163.555, 178.925 159.990, 182.500 156.536 C 189.434 149.837, 190.618 146.521, 187.532 142.441 C 186.724 141.374, 186.049 139.100, 186.032 137.390 C 186.014 135.679, 184.943 132.722, 183.651 130.818 C 181.674 127.904, 181.117 125.197, 180.125 113.687 C 179.477 106.168, 178.014 95.443, 176.874 89.853 L 174.801 79.689 176.872 72.595 C 180.830 59.033, 182.471 37.617, 179.917 32.846 C 178.103 29.455, 158.626 32.649, 141.986 39.066 L 133.888 42.189 126.194 40.129 C 110.683 35.978, 90.121 35.053, 77.633 37.946 C 73.946 38.800, 73.422 38.587, 66.319 33.334 C 56.674 26.201, 44.466 19, 42.018 19 C 40.652 19, 39.783 20.087, 39.022 22.750" fill="none" stroke="#fff" stroke-width="9" stroke-linecap="round" stroke-linejoin="round" stroke-dasharray="0.5 16"/></svg>