<svg xmlns="http://www.w3.org/2000/svg" viewBox="-10 -10 220 220"><path d="M 40.081 12.286 C 36.178 22.552, 32 41.566, 32 49.061 L 32 54.207 28.482 51.118 C 20.082 43.743, 6.855 46.588, 1.850 56.846 C -2.055 64.847, 1.781 80.960, 12.053 99.703 L 16 106.906 16 124.386 C 16 140.802, 15.882 141.903, 14.062 142.480 C 12.995 142.819, 10.714 144.701, 8.991 146.663 L 5.859 150.230 6.180 165.037 C 6.549 182.089, 6.791 182.615, 16.493 187.365 C 39.827 198.791, 106.525 200.141, 137.717 189.819 C 149.306 185.985, 153.904 182.308, 154.705 176.238 C 155.232 172.240, 155.633 171.780, 161.169 168.829 C 171.655 163.240, 174.522 158.217, 175.912 143 C 176.555 135.958, 176.910 135.091, 181.717 128.805 C 195.632 110.608, 203.222 80.014, 196.787 68.053 C 193.983 62.840, 187.655 59.072, 181.633 59.028 C 177.943 59.001, 177.794 58.875, 178.361 56.250 C 179.939 48.941, 180.280 35.042, 178.921 33.405 C 176.531 30.525, 156.146 32.778, 140.828 37.615 L 133.155 40.038 125.696 37.534 C 121.593 36.157, 114.167 34.261, 109.193 33.320 C 101.475 31.861, 100.395 31.424, 101.825 30.337 C 102.746 29.637, 104.412 29.049, 105.527 29.032 C 111.150 28.944, 114.825 22.910, 112.559 17.488 C 110.294 12.067, 103.293 11.495, 98.665 16.353 C 96.760 18.352, 76.201 30.360, 73.269 31.186 C 72.657 31.359, 68.858 28.750, 64.828 25.388 C 56.222 18.210, 44.197 10, 42.289 10 C 41.553 10, 40.559 11.029, 40.081 12.286" fill="none" stroke="#fff" stroke-width="9" stroke-linecap="round" stroke-linejoin="round" stroke-dasharray="0.5 16"/></svg>