<svg xmlns="http://www.w3.org/2000/svg" viewBox="-10 -10 220 220"><path d="M 89.500 4.637 C 88.400 4.920, 85.789 5.591, 83.697 6.129 C 76.971 7.857, 76 9.675, 76 20.551 L 76 30.102 72.532 31.551 C 67.587 33.617, 66.332 33.408, 61.134 29.650 C 54.052 24.529, 44.114 19, 41.993 19 C 39.788 19, 38.803 21.899, 36.384 35.500 C 32.775 55.794, 31.582 57.306, 18.244 58.481 C 8.411 59.348, 7.003 61.284, 9.644 70.311 C 10.167 72.099, 16.638 72.101, 23.500 70.316 C 24.646 70.018, 21.787 73.575, 16.803 78.648 L 8.105 87.500 11.935 91.957 L 15.764 96.414 19.417 93.207 C 21.426 91.443, 23.207 90, 23.374 90 C 23.542 90, 22.789 94.388, 21.700 99.750 C 18.109 117.443, 18.922 152.902, 23.073 159.618 C 31.932 173.952, 53.867 183.681, 75 182.649 C 131.006 179.916, 136.213 179.336, 151.951 174.071 C 159.190 171.650, 160.727 171.425, 162.465 172.531 C 171.011 177.973, 176.438 176.310, 172.433 169.476 L 170.009 165.340 172.494 163.005 C 180.407 155.572, 183.081 125.226, 178.343 96.641 L 177.703 92.782 183.444 96.594 L 189.185 100.406 190.986 98.019 C 191.976 96.706, 193.526 94.379, 194.431 92.847 L 196.076 90.062 186.038 83.378 C 180.517 79.703, 176 76.314, 176 75.847 C 176 74.758, 177.331 74.759, 178.550 75.850 C 179.072 76.317, 182.079 78.146, 185.232 79.913 L 190.964 83.126 193.982 78.367 C 197.916 72.164, 198.249 72.842, 188.575 67.339 L 180.149 62.547 180.678 48.523 C 181.373 30.103, 181.555 30.368, 169.259 31.966 C 162.714 32.817, 159.584 32.848, 158.140 32.075 C 156.991 31.460, 150.329 31, 142.566 31 L 129 31 129 21 C 129 9.672, 128.183 8.072, 121.315 5.952 C 117.368 4.733, 93.031 3.727, 89.500 4.637" fill="none" stroke="#fff" stroke-width="9" stroke-linecap="round" stroke-linejoin="round" stroke-dasharray="0.5 16"/></svg>