<svg xmlns="http://www.w3.org/2000/svg" viewBox="-10 -10 220 220"><path d="M 83.283 4.910 C 78.706 8.226, 74.701 15.541, 75.180 19.711 C 75.815 25.242, 85.355 24.136, 89.688 18.028 C 92.434 14.156, 95 12.182, 95 13.942 C 95 14.425, 93.253 17.030, 91.118 19.731 C 86.264 25.872, 84 30.198, 84 33.332 C 84 35.515, 83.104 36.043, 75.250 38.489 C 65.370 41.566, 55.358 45.897, 51.075 48.947 C 45.677 52.791, 41.018 48.886, 40.998 40.500 C 40.959 23.975, 34.913 15, 23.820 15 C 4.915 15, -4.159 36.224, 7.439 53.316 C 8.805 55.329, 11.280 61.025, 12.938 65.975 C 16.329 76.095, 19.796 83.372, 24.385 90 C 27.886 95.058, 27.961 96.301, 26.953 133 C 26.448 151.378, 27.184 154.240, 34.358 161.820 C 61.971 190.995, 159.197 185.869, 174.580 154.426 C 182.558 138.120, 179.059 95.126, 167.547 68 C 162.783 56.775, 162.942 56.354, 174.900 48.468 C 190.568 38.137, 194.401 29.471, 188.572 17.557 C 180.941 1.959, 160.506 -2.196, 146.318 8.965 C 142.874 11.673, 142.705 11.625, 139.500 7 C 137.975 4.800, 136.062 3, 135.248 3 C 131.657 3, 113.218 18.346, 106.434 26.981 C 103.708 30.450, 100.888 32.980, 99.434 33.257 C 96.085 33.897, 96.329 33.166, 101.476 27.137 C 107.530 20.045, 108.873 15.450, 106.379 10.361 C 102.170 1.772, 91.191 -0.819, 83.283 4.910" fill="none" stroke="#fff" stroke-width="9" stroke-linecap="round" stroke-linejoin="round" stroke-dasharray="0.5 16"/></svg>