<svg xmlns="http://www.w3.org/2000/svg" viewBox="-10 -10 220 220"><path d="M 39.022 22.750 C 36.814 30.476, 34 49.460, 34 56.633 C 34 62.688, 33.510 65.034, 31.356 69.283 C 23.428 84.925, 19.548 104.175, 19.520 128 C 19.493 151.678, 21.777 157.926, 33.196 165.419 C 35.778 167.114, 37.916 169.114, 37.946 169.864 C 38.040 172.241, 42.312 179, 43.719 179 C 44.462 179, 46.194 178.264, 47.566 177.365 C 48.939 176.465, 50.177 175.903, 50.316 176.115 C 58.469 188.504, 83 199.700, 83 191.031 C 83 189.764, 83.658 189, 84.750 188.999 C 86.967 188.998, 98.533 183.565, 99.439 182.099 C 99.840 181.451, 103.351 181, 108.008 181 C 132.626 181, 160.535 173.493, 171.407 163.947 C 181.280 155.279, 183.662 123.136, 176.892 89.943 L 174.801 79.689 176.872 72.595 C 180.830 59.033, 182.471 37.617, 179.917 32.846 C 178.103 29.455, 158.626 32.649, 141.986 39.066 L 133.888 42.189 126.194 40.129 C 110.683 35.978, 90.121 35.053, 77.633 37.946 C 73.946 38.800, 73.422 38.587, 66.319 33.334 C 56.674 26.201, 44.466 19, 42.018 19 C 40.652 19, 39.783 20.087, 39.022 22.750" fill="none" stroke="#fff" stroke-width="9" stroke-linecap="round" stroke-linejoin="round" stroke-dasharray="0.5 16"/></svg>