<svg xmlns="http://www.w3.org/2000/svg" viewBox="-10 -10 220 220"><path d="M 31.159 4.308 C 29.069 6.826, 25.887 24.248, 25.293 36.423 C 24.744 47.672, 24.497 48.774, 20.914 55.932 C 12.398 72.947, 6.024 106.769, 6.014 135 C 6.008 153.550, 12.122 160.875, 26.594 159.652 L 33.786 159.044 34.476 162.725 C 35.539 168.389, 38.384 173.177, 43.473 177.869 C 73.871 205.888, 180.129 201.626, 190.396 171.976 C 196.368 154.728, 191.838 108.287, 181.841 84.273 C 179.100 77.689, 178.745 75.764, 178.920 68.467 C 179.135 59.522, 176.759 43.244, 174.268 36.599 C 173.423 34.345, 172.228 28.900, 171.612 24.500 L 170.493 16.500 162.997 16.669 C 153.647 16.880, 144.102 19.058, 132.912 23.535 C 124.414 26.935, 124.170 26.971, 119.916 25.470 C 108.531 21.454, 83.744 19.767, 70.357 22.098 L 64.050 23.197 57.436 18.243 C 50.909 13.355, 37.001 4.637, 33.910 3.496 C 33.036 3.173, 31.798 3.539, 31.159 4.308" fill="none" stroke="#fff" stroke-width="9" stroke-linecap="round" stroke-linejoin="round" stroke-dasharray="0.5 16"/></svg>