<svg xmlns="http://www.w3.org/2000/svg" viewBox="-10 -10 220 220"><path d="M 67.862 12.147 C 65.651 14.541, 62.661 19.012, 61.218 22.081 L 58.595 27.663 51.269 23.331 C 42.096 17.908, 40.429 17.829, 39.022 22.750 C 36.814 30.474, 34 49.459, 34 56.628 C 34 62.801, 33.517 65.024, 31.140 69.779 C 19.093 93.878, 14.949 140.905, 23.569 155.688 C 43.493 189.853, 164.180 189.536, 176.995 155.285 C 181.877 142.234, 181.833 114.171, 176.892 89.943 L 174.801 79.689 176.872 72.595 C 180.830 59.033, 182.471 37.617, 179.917 32.846 C 178.274 29.775, 159.196 32.514, 145.211 37.828 C 139.497 39.999, 139 39.843, 139 35.879 C 139 25.761, 126.578 6.269, 124.579 13.250 C 124.383 13.938, 122.972 19.834, 121.445 26.354 L 118.668 38.208 115.084 37.602 C 107.604 36.339, 91.252 35.878, 85.210 36.761 C 77.602 37.873, 78.257 38.891, 76.914 23.860 C 75.361 6.473, 74.332 5.142, 67.862 12.147" fill="none" stroke="#fff" stroke-width="9" stroke-linecap="round" stroke-linejoin="round" stroke-dasharray="0.5 16"/></svg>