<svg xmlns="http://www.w3.org/2000/svg" viewBox="-10 -10 220 220"><path d="M 85 3.006 C 69.102 5.200, 56.046 11.480, 52.391 18.690 L 50.283 22.850 47.117 20.925 C 42.232 17.954, 40.266 18.397, 39.022 22.750 C 36.814 30.474, 34 49.459, 34 56.628 C 34 62.801, 33.517 65.024, 31.140 69.779 C 19.057 93.949, 14.949 140.907, 23.617 155.769 C 26.523 160.751, 33.501 166.532, 40.582 169.823 C 44.466 171.627, 46.118 173.158, 47.989 176.686 C 61.366 201.901, 95.955 206.737, 115.858 186.175 L 121.500 180.346 130.284 179.131 C 147.239 176.785, 163.714 170.702, 171.407 163.947 C 181.280 155.279, 183.662 123.136, 176.892 89.943 L 174.801 79.689 176.872 72.595 C 180.836 59.013, 182.470 37.616, 179.909 32.830 C 178.783 30.726, 176.155 30.700, 164 32.674 C 161.123 33.141, 160.723 33.007, 161.750 31.921 C 165.486 27.972, 162.302 19.138, 155.280 13.975 C 143.114 5.028, 108.966 -0.302, 85 3.006" fill="none" stroke="#fff" stroke-width="9" stroke-linecap="round" stroke-linejoin="round" stroke-dasharray="0.5 16"/></svg>