<svg xmlns="http://www.w3.org/2000/svg" viewBox="-10 -10 220 220"><path d="M 144.896 17.410 C 135.043 21.655, 127.592 25.951, 120.423 31.517 C 114.799 35.885, 114.464 36, 107.398 36 C 92.721 36, 73.839 39.786, 62.204 45.062 C 54.302 48.645, 55.106 48.647, 46.169 45.006 C 33.202 39.722, 20.017 36.554, 18.269 38.302 C 16.355 40.216, 18.008 62.276, 21.003 74.786 L 22.987 83.072 20.959 90.286 C 12.826 119.215, 14.987 148.762, 26.095 160.507 C 50.835 186.666, 145.572 188.275, 170.880 162.966 C 174.574 159.272, 175.709 155.529, 177.072 142.541 C 178.097 132.773, 178.198 132.495, 182.350 128.041 C 195.427 114.013, 198.634 103.510, 192.364 95.249 C 188.717 90.443, 184.661 88.698, 178.358 89.220 L 173.043 89.661 171.518 84.080 C 170.679 81.011, 168.561 75.125, 166.812 71 C 164.135 64.689, 163.596 62.074, 163.410 54.500 C 162.872 32.503, 158.396 13.813, 153.727 14.066 C 153.052 14.103, 149.078 15.608, 144.896 17.410" fill="none" stroke="#fff" stroke-width="9" stroke-linecap="round" stroke-linejoin="round" stroke-dasharray="0.5 16"/></svg>