<svg xmlns="http://www.w3.org/2000/svg" viewBox="-10 -10 220 220"><path d="M 55.757 60.271 C 53.825 61.787, 52.234 68.990, 50.517 84 C 49.621 91.835, 48.357 97.500, 46.551 101.775 C 37.871 122.324, 36.866 154.341, 44.582 164.500 C 61.863 187.251, 145.828 186.118, 157.212 162.980 C 161.320 154.632, 161.441 130.733, 157.471 111.861 C 156.134 105.508, 156.146 104.343, 157.590 100.153 C 159.902 93.443, 161.592 77.060, 160.403 72.889 C 158.877 67.536, 147.770 67.944, 132.383 73.919 L 125.219 76.701 117.859 74.815 C 109.918 72.781, 93.807 72.003, 85.485 73.253 C 80.652 73.979, 80.262 73.852, 74.778 69.753 C 65.260 62.641, 57.603 58.824, 55.757 60.271" fill="none" stroke="#fff" stroke-width="9" stroke-linecap="round" stroke-linejoin="round" stroke-dasharray="0.5 16"/></svg>