<svg xmlns="http://www.w3.org/2000/svg" viewBox="-10 -10 220 220"><path d="M 140.500 10.161 C 135.476 12.924, 133.443 19.366, 136.376 23.229 C 140.288 28.380, 146.970 28.396, 151.006 23.265 C 156.421 16.381, 148.089 5.987, 140.500 10.161 M 164.279 12.521 C 157.302 19.498, 164.640 30.293, 173.755 26.461 C 180.210 23.747, 181.512 17.312, 176.600 12.400 C 172.101 7.901, 168.868 7.932, 164.279 12.521 M 193.232 10.209 C 186.165 13.676, 186.088 23.452, 193.104 26.402 C 199.223 28.974, 200.112 27.873, 199.787 18.124 C 199.475 8.735, 198.539 7.606, 193.232 10.209 M 39.022 22.750 C 36.814 30.474, 34 49.459, 34 56.628 C 34 62.801, 33.517 65.024, 31.140 69.779 C 19.093 93.878, 14.949 140.905, 23.569 155.688 C 43.493 189.853, 164.180 189.536, 176.995 155.285 C 181.877 142.234, 181.833 114.171, 176.892 89.943 L 174.801 79.689 176.872 72.595 C 180.830 59.033, 182.471 37.617, 179.917 32.846 C 178.103 29.455, 158.626 32.649, 141.986 39.066 L 133.888 42.189 126.194 40.129 C 110.683 35.978, 90.121 35.053, 77.633 37.946 C 73.946 38.800, 73.422 38.587, 66.319 33.334 C 56.674 26.201, 44.466 19, 42.018 19 C 40.652 19, 39.783 20.087, 39.022 22.750" fill="none" stroke="#fff" stroke-width="9" stroke-linecap="round" stroke-linejoin="round" stroke-dasharray="0.5 16"/></svg>