<svg xmlns="http://www.w3.org/2000/svg" viewBox="-10 -10 220 220"><path d="M 149.305 16.908 C 138.426 21.200, 121.794 31.289, 119.514 34.978 C 119.166 35.540, 115.341 36, 111.013 36 C 95.723 36, 77.037 39.696, 65.204 45.062 C 57.259 48.664, 58.484 48.699, 48.028 44.565 C 34.840 39.350, 23.031 36.540, 21.353 38.218 C 20.142 39.430, 20.534 51.776, 22.281 67.462 C 22.421 68.712, 21.790 69.569, 20.542 69.825 C 14.320 71.101, 10.448 77.309, 9.066 88.222 C 5.803 113.971, 5.761 114.655, 6.990 121.942 C 8.349 130.001, 13.143 140.443, 18.268 146.511 C 20.121 148.705, 23.063 152.597, 24.805 155.160 C 26.547 157.724, 29.891 161.465, 32.236 163.475 C 63.719 190.459, 170.260 184.934, 177.997 155.917 C 178.645 153.488, 180.478 147.225, 182.071 142 C 190.066 115.770, 188.977 107.095, 173.872 76.667 C 166.389 61.592, 165.888 60.186, 166.445 55.850 C 167.679 46.248, 162.865 19.008, 159.305 15.448 C 157.464 13.607, 157.794 13.558, 149.305 16.908" fill="none" stroke="#fff" stroke-width="9" stroke-linecap="round" stroke-linejoin="round" stroke-dasharray="0.5 16"/></svg>