<svg xmlns="http://www.w3.org/2000/svg" viewBox="-10 -10 220 220"><path d="M 39.022 22.750 C 36.814 30.476, 34 49.460, 34 56.633 C 34 62.576, 33.500 65.054, 31.505 68.990 L 29.010 73.913 26.211 72.307 C 17.889 67.530, 2 80.341, 2 91.828 C 2 96.168, 2.343 96.749, 8 102 C 14.775 108.289, 15.182 109.868, 12.108 117.957 C 9.682 124.343, 11.245 126.528, 15.719 123.002 L 18.500 120.810 19.170 133.655 C 20.291 155.158, 24.102 161.608, 40.500 169.744 C 75.515 187.119, 148.707 183.878, 171.407 163.947 C 181.280 155.279, 183.662 123.136, 176.892 89.943 L 174.801 79.689 176.872 72.595 C 180.830 59.033, 182.471 37.617, 179.917 32.846 C 178.103 29.455, 158.626 32.649, 141.986 39.066 L 133.888 42.189 126.194 40.129 C 110.683 35.978, 90.121 35.053, 77.633 37.946 C 73.946 38.800, 73.422 38.587, 66.319 33.334 C 56.674 26.201, 44.466 19, 42.018 19 C 40.652 19, 39.783 20.087, 39.022 22.750" fill="none" stroke="#fff" stroke-width="9" stroke-linecap="round" stroke-linejoin="round" stroke-dasharray="0.5 16"/></svg>