<svg xmlns="http://www.w3.org/2000/svg" viewBox="-10 -10 220 220"><path d="M 44.662 19.750 C 43.046 22.408, 39.713 42.375, 39.279 52 C 38.810 62.378, 38.436 64.183, 35.438 70.500 C 31.852 78.059, 28.829 88.162, 26.478 100.451 C 25.279 106.715, 24.420 108.739, 21.997 111.002 C 20.349 112.542, 19 114.192, 19 114.668 C 19 115.144, 17.158 115.582, 14.907 115.641 C 9.686 115.778, 6.190 118.390, 3.042 124.507 C -4.018 138.226, 3.811 150.572, 24 157.561 C 28.125 158.989, 32.625 161.199, 34 162.473 C 58.759 185.403, 137.479 187.165, 179.912 165.738 C 193.499 158.877, 197.370 144.733, 188.538 134.225 C 186.519 131.823, 186.112 129.721, 185.099 116.500 C 184.467 108.250, 182.924 96.411, 181.671 90.192 L 179.391 78.884 181.630 72.192 C 185.784 59.777, 187.387 34.987, 184.240 31.840 C 181.935 29.535, 160.239 33.755, 146.754 39.132 L 139.008 42.221 131.254 40.146 C 115.669 35.974, 95.143 35.049, 82.604 37.953 C 78.834 38.826, 78.399 38.633, 69.104 31.950 C 54.858 21.707, 46.123 17.347, 44.662 19.750" fill="none" stroke="#fff" stroke-width="9" stroke-linecap="round" stroke-linejoin="round" stroke-dasharray="0.5 16"/></svg>