<svg xmlns="http://www.w3.org/2000/svg" viewBox="-10 -10 220 220"><path d="M 39.022 22.750 C 36.814 30.474, 34 49.459, 34 56.628 C 34 62.802, 33.517 65.023, 31.139 69.779 C 27.755 76.547, 25.228 83.930, 23.058 93.389 L 21.477 100.278 15.988 101.682 C 0.606 105.617, -3.561 117.522, 8.298 123.654 C 11.317 125.215, 14.407 124.723, 17.250 122.227 C 18.902 120.776, 19 121.222, 19 130.161 C 19 152.640, 23.785 161.450, 40.500 169.744 C 75.515 187.119, 148.707 183.878, 171.407 163.947 C 175.969 159.942, 178.720 152.435, 180.073 140.300 C 181.002 131.965, 181.475 130.414, 183.593 128.748 C 190.037 123.679, 189.975 116.371, 183.446 111.391 C 181.034 109.551, 179.890 107.748, 179.488 105.152 C 179.177 103.143, 177.999 96.529, 176.871 90.452 L 174.820 79.405 176.888 72.452 C 180.818 59.244, 182.472 37.619, 179.917 32.846 C 178.103 29.455, 158.626 32.649, 141.986 39.066 L 133.888 42.189 126.194 40.129 C 110.683 35.978, 90.121 35.053, 77.633 37.946 C 73.946 38.800, 73.422 38.587, 66.319 33.334 C 56.674 26.201, 44.466 19, 42.018 19 C 40.652 19, 39.783 20.087, 39.022 22.750" fill="none" stroke="#fff" stroke-width="9" stroke-linecap="round" stroke-linejoin="round" stroke-dasharray="0.5 16"/></svg>