<svg xmlns="http://www.w3.org/2000/svg" viewBox="-10 -10 220 220"><path d="M 39.022 22.750 C 36.814 30.474, 34 49.459, 34 56.628 C 34 62.825, 33.522 65.006, 31.117 69.779 C 26.923 78.104, 23.433 89.961, 21.486 102.500 C 20.547 108.550, 19.609 114.455, 19.402 115.622 C 19.146 117.065, 18.034 117.943, 15.929 118.364 C 5.443 120.461, -0.198 133.883, 5.402 143.412 C 8.071 147.954, 11.191 150.535, 18.549 154.288 C 21.272 155.677, 25.642 158.877, 28.259 161.399 C 56.142 188.263, 142.130 187.648, 178.751 160.322 C 185.347 155.401, 187.309 145.579, 183.115 138.471 C 181.577 135.863, 180.999 133.197, 180.997 128.693 C 180.991 118.687, 179.035 100.260, 176.844 89.581 L 174.809 79.661 176.876 72.581 C 180.830 59.032, 182.470 37.615, 179.917 32.846 C 178.103 29.455, 158.626 32.649, 141.986 39.066 L 133.888 42.189 126.194 40.129 C 110.683 35.978, 90.121 35.053, 77.633 37.946 C 73.946 38.800, 73.422 38.587, 66.319 33.334 C 56.674 26.201, 44.466 19, 42.018 19 C 40.652 19, 39.783 20.087, 39.022 22.750" fill="none" stroke="#fff" stroke-width="9" stroke-linecap="round" stroke-linejoin="round" stroke-dasharray="0.5 16"/></svg>