<svg xmlns="http://www.w3.org/2000/svg" viewBox="-10 -10 220 220"><path d="M 128 7.113 C 118.909 13.764, 111.344 20.731, 106.451 26.959 C 101.856 32.808, 101.773 32.857, 94.662 33.996 C 79.365 36.446, 61.426 42.442, 52.551 48.070 L 47.688 51.154 39.685 50.077 C 26.980 48.367, 10.075 48.642, 9.335 50.570 C 7.854 54.430, 16.678 78.189, 23.319 88.220 L 27.476 94.500 27.441 105.500 C 27.422 111.550, 27.202 123.925, 26.953 133 C 26.518 148.846, 26.593 149.678, 28.858 154 C 47.913 190.368, 155.206 190.349, 172.764 153.974 C 184.574 129.509, 177.373 77.848, 158.249 49.827 C 156.500 47.265, 154.622 42.484, 153.643 38.105 C 150.779 25.293, 138.942 2.936, 135.080 3.044 C 134.211 3.069, 131.025 4.900, 128 7.113" fill="none" stroke="#fff" stroke-width="9" stroke-linecap="round" stroke-linejoin="round" stroke-dasharray="0.5 16"/></svg>