<svg xmlns="http://www.w3.org/2000/svg" viewBox="-10 -10 220 220"><path d="M 39.022 22.750 C 36.814 30.474, 34 49.459, 34 56.628 C 34 62.801, 33.517 65.024, 31.140 69.779 C 23.850 84.361, 20.093 102.155, 19.375 125.500 C 19.033 136.603, 18.357 143.808, 17.426 146.270 C 13.918 155.546, 18.800 164.943, 26.481 163.697 C 28.911 163.302, 30.577 163.663, 32.204 164.937 C 44.466 174.532, 66.249 179.828, 97 180.690 C 116.228 181.229, 117.793 181.417, 122.218 183.720 C 127.878 186.666, 132.316 185.790, 136.418 180.915 C 138.303 178.675, 140.972 177.364, 147.497 175.473 C 164.641 170.505, 173.592 164.378, 176.995 155.285 C 181.877 142.234, 181.833 114.171, 176.892 89.943 L 174.801 79.689 176.872 72.595 C 180.830 59.033, 182.471 37.617, 179.917 32.846 C 178.103 29.455, 158.626 32.649, 141.986 39.066 L 133.888 42.189 126.194 40.129 C 110.683 35.978, 90.121 35.053, 77.633 37.946 C 73.946 38.800, 73.422 38.587, 66.319 33.334 C 56.674 26.201, 44.466 19, 42.018 19 C 40.652 19, 39.783 20.087, 39.022 22.750" fill="none" stroke="#fff" stroke-width="9" stroke-linecap="round" stroke-linejoin="round" stroke-dasharray="0.5 16"/></svg>