<svg xmlns="http://www.w3.org/2000/svg" viewBox="-10 -10 220 220"><path d="M 6.435 4.309 C 6.156 5.035, 6.057 10.550, 6.214 16.564 L 6.500 27.500 9.250 27.816 L 12 28.133 12 73.944 C 12 114.391, 11.816 119.908, 10.427 121.061 C 4.328 126.123, 3.498 135.567, 8.500 143 L 12 148.201 12 160.034 L 12 171.867 9.250 172.184 L 6.500 172.500 6.500 184.500 L 6.500 196.500 100 196.500 L 193.500 196.500 193.500 184.500 L 193.500 172.500 190.750 172.184 L 188 171.867 188 100 L 188 28.133 190.750 27.816 L 193.500 27.500 193.500 15.500 L 193.500 3.500 100.221 3.245 C 23.723 3.036, 6.850 3.227, 6.435 4.309" fill="none" stroke="#fff" stroke-width="9" stroke-linecap="round" stroke-linejoin="round" stroke-dasharray="0.5 16"/></svg>