<svg xmlns="http://www.w3.org/2000/svg" viewBox="-10 -10 220 220"><path d="M 107.250 20.250 C 106.703 20.938, 105.355 26.030, 104.253 31.566 C 101.494 45.441, 98.213 49.911, 89 52.352 C 80.733 54.542, 67.982 60.768, 61.384 65.836 L 56.268 69.767 42.330 69.294 C 24.440 68.687, 24.822 68.303, 29.558 82.107 L 33.124 92.500 25.688 100.104 C 18.856 107.092, 17.844 107.763, 13.208 108.378 C -0.406 110.184, -0.729 113.760, 11.526 127 C 13.308 128.925, 15.301 132.179, 15.954 134.231 C 18.804 143.180, 32.452 160.061, 40.222 164.250 C 44.425 166.515, 47.705 166.457, 55.035 163.988 L 61.007 161.976 64.754 164.440 C 71.974 169.187, 81.869 169.920, 94.500 166.642 C 99.375 165.376, 99.650 165.426, 105.500 168.612 C 123.898 178.635, 165.375 183.805, 194.257 179.677 L 200.014 178.854 199.757 110.241 L 199.500 41.627 192.500 39.851 C 177.149 35.955, 156.830 35.152, 144.618 37.957 C 140.920 38.807, 140.398 38.596, 133.618 33.525 C 118.411 22.152, 109.362 17.596, 107.250 20.250" fill="none" stroke="#fff" stroke-width="9" stroke-linecap="round" stroke-linejoin="round" stroke-dasharray="0.5 16"/></svg>