<svg xmlns="http://www.w3.org/2000/svg" viewBox="-10 -10 220 220"><path d="M 111.245 9.250 C 110.695 9.938, 109.960 11.433, 109.611 12.574 C 108.606 15.862, 105.138 19, 102.508 19 C 98.346 19, 95.222 21.106, 92.905 25.474 C 88.935 32.957, 92.477 35.803, 96.591 28.434 C 98.423 25.152, 99.535 24.334, 103.297 23.500 C 108.681 22.306, 111.120 20.278, 113.489 15.024 C 115.831 9.830, 114.180 5.581, 111.245 9.250 M 130.563 12.875 C 128.047 17.840, 126.547 19, 122.641 19 C 118.156 19, 110.961 27.850, 112.399 31.597 C 113.409 34.228, 115.598 33.007, 117.727 28.625 C 119.671 24.624, 120.251 24.189, 124.499 23.552 C 131.160 22.554, 138.818 12.895, 135.816 9.279 C 134.055 7.156, 133.146 7.778, 130.563 12.875 M 153.313 16.250 C 150.730 21.070, 150.153 21.546, 146.260 22.066 C 141.572 22.692, 137.816 25.616, 135.967 30.081 C 133.229 36.689, 137.573 38.116, 140.718 31.643 C 142.611 27.746, 143.277 27.226, 147.016 26.725 C 151.886 26.071, 155.046 23.442, 157.501 17.999 C 161.056 10.115, 157.416 8.595, 153.313 16.250 M 39.022 22.750 C 36.814 30.474, 34 49.459, 34 56.628 C 34 62.801, 33.517 65.024, 31.140 69.779 C 19.093 93.878, 14.949 140.905, 23.569 155.688 C 43.493 189.853, 164.180 189.536, 176.995 155.285 C 181.877 142.234, 181.833 114.171, 176.892 89.943 L 174.801 79.689 176.872 72.595 C 180.830 59.033, 182.471 37.617, 179.917 32.846 C 178.103 29.455, 158.626 32.649, 141.986 39.066 L 133.888 42.189 126.194 40.129 C 110.683 35.978, 90.121 35.053, 77.633 37.946 C 73.946 38.800, 73.422 38.587, 66.319 33.334 C 56.674 26.201, 44.466 19, 42.018 19 C 40.652 19, 39.783 20.087, 39.022 22.750" fill="none" stroke="#fff" stroke-width="9" stroke-linecap="round" stroke-linejoin="round" stroke-dasharray="0.5 16"/></svg>