<svg xmlns="http://www.w3.org/2000/svg" viewBox="-10 -10 220 220"><path d="M 39.022 22.750 C 36.814 30.474, 34 49.459, 34 56.628 C 34 62.801, 33.517 65.024, 31.140 69.779 C 19.093 93.878, 14.949 140.905, 23.569 155.688 C 43.493 189.853, 164.180 189.536, 176.995 155.285 C 181.877 142.234, 181.833 114.171, 176.892 89.943 L 174.801 79.689 176.873 72.595 C 178.013 68.693, 179.428 62.391, 180.017 58.591 C 180.742 53.920, 181.857 50.770, 183.460 48.865 C 195.515 34.538, 175.891 19.494, 156.642 28.306 C 151.429 30.693, 150.552 31.648, 150.886 34.577 C 150.953 35.169, 147.145 37.121, 142.423 38.914 L 133.838 42.175 126.169 40.123 C 110.682 35.978, 90.113 35.055, 77.633 37.946 C 73.946 38.800, 73.422 38.587, 66.319 33.334 C 56.674 26.201, 44.466 19, 42.018 19 C 40.652 19, 39.783 20.087, 39.022 22.750" fill="none" stroke="#fff" stroke-width="9" stroke-linecap="round" stroke-linejoin="round" stroke-dasharray="0.5 16"/></svg>