<svg xmlns="http://www.w3.org/2000/svg" viewBox="-10 -10 220 220"><path d="M 39.022 22.750 C 36.814 30.474, 34 49.459, 34 56.628 C 34 62.801, 33.517 65.024, 31.140 69.779 C 24.326 83.409, 20.200 102.006, 19.331 123 C 18.323 147.364, 21.103 156.559, 31.919 164.634 L 36.969 168.404 34.985 170.516 C 32.131 173.554, 32.513 175.453, 36.666 178.877 C 48.906 188.966, 74.565 197, 94.545 197 C 109.638 197, 110.403 196.176, 107.320 183.250 C 106.823 181.167, 107.122 181, 111.340 181 C 132.629 181, 161.235 172.879, 171.407 163.947 C 181.280 155.279, 183.662 123.136, 176.892 89.943 L 174.801 79.689 176.872 72.595 C 180.830 59.033, 182.471 37.617, 179.917 32.846 C 178.103 29.455, 158.626 32.649, 141.986 39.066 L 133.888 42.189 126.194 40.129 C 110.683 35.978, 90.121 35.053, 77.633 37.946 C 73.946 38.800, 73.422 38.587, 66.319 33.334 C 56.674 26.201, 44.466 19, 42.018 19 C 40.652 19, 39.783 20.087, 39.022 22.750" fill="none" stroke="#fff" stroke-width="9" stroke-linecap="round" stroke-linejoin="round" stroke-dasharray="0.5 16"/></svg>