<svg xmlns="http://www.w3.org/2000/svg" viewBox="-10 -10 220 220"><path d="M 105.818 27.142 C 101.593 27.626, 93.943 29.201, 88.818 30.642 C 78.167 33.637, 75.056 33.849, 66 32.199 C 53.777 29.972, 32.380 31.191, 29.281 34.291 C 26.639 36.932, 32.655 57.878, 39.967 71.500 L 43.725 78.500 39.955 92.097 C 35.499 108.169, 33.732 121.131, 34.878 129.352 C 35.685 135.147, 35.637 135.313, 29.973 146.352 C 26.828 152.484, 23.006 160.749, 21.480 164.721 C 17.327 175.535, 16.873 175.310, 41.445 174.575 C 52.475 174.244, 63.075 173.996, 65 174.023 C 176.613 175.565, 173.543 175.755, 179.942 166.922 C 199.224 140.303, 180.736 46.692, 153.241 31.728 C 144.093 26.749, 125.196 24.921, 105.818 27.142" fill="none" stroke="#fff" stroke-width="9" stroke-linecap="round" stroke-linejoin="round" stroke-dasharray="0.5 16"/></svg>