<svg xmlns="http://www.w3.org/2000/svg" viewBox="-10 -10 220 220"><path d="M 39.022 22.750 C 36.814 30.474, 34 49.459, 34 56.628 C 34 62.801, 33.517 65.024, 31.140 69.779 C 24.326 83.409, 20.200 102.006, 19.331 123 C 18.338 147.005, 21.144 156.606, 31.361 164.157 C 37.045 168.358, 37.822 171.254, 34.887 177.295 C 32.790 181.612, 32.761 181.986, 34.337 184.391 C 35.251 185.787, 36 188.070, 36 189.465 C 36 196.005, 39.928 196.963, 52.493 193.488 C 57.439 192.119, 63.347 191, 65.621 191 C 67.975 191, 70.263 190.388, 70.935 189.578 C 72.396 187.818, 78.310 186.765, 87.579 186.615 C 93.662 186.516, 95.165 186.113, 98.262 183.750 C 102.457 180.549, 103.705 180.415, 108.404 182.656 C 111.656 184.206, 112.044 184.201, 114.534 182.570 C 116.121 181.530, 121.537 180.259, 127.978 179.416 C 146.733 176.960, 163.312 171.055, 171.407 163.947 C 181.280 155.279, 183.662 123.136, 176.892 89.943 L 174.801 79.689 176.872 72.595 C 180.830 59.033, 182.471 37.617, 179.917 32.846 C 178.103 29.455, 158.626 32.649, 141.986 39.066 L 133.888 42.189 126.194 40.129 C 110.683 35.978, 90.121 35.053, 77.633 37.946 C 73.946 38.800, 73.422 38.587, 66.319 33.334 C 56.674 26.201, 44.466 19, 42.018 19 C 40.652 19, 39.783 20.087, 39.022 22.750" fill="none" stroke="#fff" stroke-width="9" stroke-linecap="round" stroke-linejoin="round" stroke-dasharray="0.5 16"/></svg>