<svg xmlns="http://www.w3.org/2000/svg" viewBox="-10 -10 220 220"><path d="M 92.381 13.449 C 92.027 14.373, 91.993 17.295, 92.307 19.944 L 92.877 24.758 74.189 25.223 L 55.500 25.687 49.696 22.343 C 40.552 17.075, 40.357 17.184, 37.468 29.165 C 37.065 30.837, 35.731 32.283, 33.887 33.047 C 20.130 38.745, 15.314 61.508, 25.784 71.348 L 28.814 74.196 26.412 81.258 C 17.997 106.001, 16.558 143.665, 23.569 155.688 C 32.301 170.661, 57.930 179.558, 95.500 180.659 C 141.530 182.008, 172.228 171.714, 177.717 153.088 C 179.061 148.527, 180.203 146.714, 182.892 144.872 C 187.102 141.987, 193.783 133.711, 194.632 130.331 C 195.583 126.541, 194.065 125.899, 187.980 127.518 C 184.966 128.320, 182.241 128.982, 181.924 128.988 C 181.607 128.995, 180.822 122.539, 180.181 114.643 C 179.539 106.746, 178.091 95.834, 176.964 90.393 C 175.062 81.216, 175.024 80.138, 176.439 75.500 C 180.431 62.411, 182.455 37.588, 179.917 32.846 C 178.563 30.314, 171.839 30.818, 156.211 34.621 L 145.922 37.125 136.211 33.683 C 130.870 31.789, 122 29.219, 116.500 27.972 C 104.443 25.239, 105.525 26.150, 107.006 19.973 C 108.517 13.678, 108.202 13.352, 99.763 12.472 C 93.970 11.868, 92.935 12.005, 92.381 13.449" fill="none" stroke="#fff" stroke-width="9" stroke-linecap="round" stroke-linejoin="round" stroke-dasharray="0.5 16"/></svg>