<svg xmlns="http://www.w3.org/2000/svg" viewBox="-10 -10 220 220"><path d="M 155.345 2.843 C 154.809 3.204, 152.906 8.225, 151.116 14 C 147.350 26.144, 140.987 39.724, 137.548 42.955 L 135.168 45.191 134.484 39.721 C 133.756 33.895, 135.949 23.277, 140.006 12.985 C 144.266 2.176, 138.299 3.945, 123.853 17.774 C 119.510 21.931, 119.161 22.084, 118.535 20.111 C 117.461 16.726, 115.257 17.638, 111.341 23.089 L 107.684 28.178 105.269 23.096 C 102.737 17.768, 98.164 13.470, 89.225 8.016 C 81.910 3.553, 80.503 4.728, 83.114 13.117 C 84.151 16.451, 85 20.801, 85 22.785 L 85 26.392 81.750 23.350 C 76.339 18.284, 71.147 14.791, 70.043 15.473 C 69.431 15.851, 68.972 20.540, 68.932 26.809 C 68.879 35.255, 68.644 36.975, 67.812 35 C 63.002 23.582, 59.434 17.747, 52.981 10.750 C 43.140 0.080, 42.423 0.272, 41.733 13.750 C 41.191 24.336, 38.499 39.592, 36.846 41.450 C 36.379 41.974, 36 37.185, 36 30.759 C 36 24.356, 35.566 18.850, 35.036 18.523 C 32.311 16.838, 21.565 33.160, 20.185 41.082 L 19.500 45.012 14.574 41.506 C 5.005 34.695, 4.385 36.203, 9.933 52.799 C 17.588 75.699, 17.575 79.989, 9.794 99 C 1.577 119.075, 2.270 125.795, 14.381 143.500 C 17.840 148.557, 18.677 150.800, 19.704 157.768 C 21.756 171.689, 27.232 178.933, 40.647 185.475 C 76.491 202.953, 151.023 199.241, 171.946 178.937 C 176.859 174.168, 178.772 168.306, 180.247 153.500 C 181.384 142.082, 181.645 141.169, 185.650 134.660 C 196.672 116.749, 198.086 106.317, 191.500 91.500 C 186.228 79.638, 186.211 73.993, 191.400 58.707 C 195.138 47.697, 195.227 45.446, 191.887 46.319 C 190.204 46.760, 189.998 46.202, 189.978 41.156 C 189.952 34.415, 187.984 29.697, 180.959 19.535 C 172.749 7.658, 171.536 8.314, 171.908 24.434 C 172.198 36.962, 171.762 37.313, 168.881 26.875 C 165.131 13.290, 158.171 0.934, 155.345 2.843" fill="none" stroke="#fff" stroke-width="9" stroke-linecap="round" stroke-linejoin="round" stroke-dasharray="0.5 16"/></svg>