<svg xmlns="http://www.w3.org/2000/svg" viewBox="-10 -10 220 220"><path d="M 39.022 22.750 C 36.814 30.474, 34 49.459, 34 56.628 C 34 62.801, 33.517 65.024, 31.140 69.779 C 24.125 83.812, 20.159 102.055, 19.318 124.162 L 18.722 139.825 11.384 139.270 C 5.018 138.788, 3.958 138.946, 3.378 140.458 C 2.405 142.992, 4.640 143.966, 11.500 143.996 C 14.800 144.010, 19.206 144.304, 21.291 144.648 L 25.081 145.275 24.421 149.887 C 24.059 152.424, 22.915 155.429, 21.881 156.564 C 19.678 158.982, 19.401 162, 21.381 162 C 22.173 162, 23.222 163.824, 23.838 166.272 C 26.182 175.582, 37.557 180.866, 45.931 176.536 C 51.294 173.762, 58.010 163.390, 61.076 153.146 C 61.793 150.751, 63.018 148.547, 63.799 148.247 C 65.111 147.744, 92.307 149.254, 106.705 150.630 L 112.910 151.223 113.205 157.362 C 113.466 162.800, 113.225 163.738, 111.090 165.586 C 108.405 167.910, 109.001 170.273, 112.151 169.798 C 113.735 169.559, 114.485 170.560, 115.948 174.867 C 119.200 184.438, 125.792 188.554, 135.287 186.945 C 141.541 185.885, 145.335 181.087, 148.661 170.036 C 148.977 168.986, 149.450 169.270, 150.330 171.036 C 151.846 174.077, 155.380 174.341, 155.794 171.445 C 156.228 168.409, 152.519 165.324, 150.475 167.021 C 149.039 168.212, 149.195 155.738, 150.636 154.084 C 150.835 153.856, 161.011 154.386, 173.249 155.261 C 185.678 156.151, 195.890 156.474, 196.383 155.994 C 198.812 153.628, 195.946 152.175, 187.458 151.468 L 178.780 150.745 179.385 147.123 C 181.847 132.377, 180.838 109.467, 176.848 89.510 L 174.851 79.520 176.897 72.510 C 180.831 59.028, 182.463 37.602, 179.917 32.846 C 178.103 29.455, 158.626 32.649, 141.986 39.066 L 133.888 42.189 126.194 40.129 C 110.683 35.978, 90.121 35.053, 77.633 37.946 C 73.946 38.800, 73.422 38.587, 66.319 33.334 C 56.674 26.201, 44.466 19, 42.018 19 C 40.652 19, 39.783 20.087, 39.022 22.750 M 3.093 151.162 C 2.487 152.901, 2.106 154.413, 2.245 154.520 C 4.497 156.254, 18.536 159.758, 19.178 158.746 C 21.096 155.726, 19.860 154.205, 12.991 151.134 C 4.379 147.283, 4.446 147.283, 3.093 151.162 M 93.123 157.629 C 91.650 160.863, 91.293 160.529, 100.502 164.532 L 108.115 167.842 109.220 165.417 C 110.532 162.538, 110.926 163.014, 103.544 158.569 C 96.469 154.308, 94.709 154.150, 93.123 157.629 M 166 162.132 C 156.844 164.564, 155.529 165.630, 156.980 169.448 C 157.929 171.943, 158.387 172.171, 161.271 171.578 C 163.047 171.212, 167.316 170.643, 170.758 170.311 C 178.984 169.520, 180.429 168.441, 179.274 163.954 C 178.166 159.653, 176.299 159.396, 166 162.132 M 59.001 165.499 C 57.324 167.520, 58.158 172.418, 60.247 172.814 C 62.193 173.183, 64.315 168.985, 63.395 166.586 C 62.587 164.480, 60.313 163.918, 59.001 165.499 M 64.975 169.565 C 64.439 170.976, 64.008 172.438, 64.018 172.815 C 64.032 173.345, 79.008 181.196, 83.091 182.814 C 84.197 183.252, 87.188 177.206, 86.810 175.295 C 86.503 173.740, 71.323 167.193, 67.725 167.064 C 66.705 167.027, 65.536 168.091, 64.975 169.565 M 21.667 173.667 C 20.580 174.753, 20.906 178.506, 22.200 179.800 C 24.289 181.889, 27 181.242, 27 178.655 C 27 175.470, 23.313 172.021, 21.667 173.667 M 8.750 184.558 C -0.104 192.028, 0.039 191.705, 3.920 195.423 C 7.490 198.844, 7.021 199.051, 15.250 190.420 C 22.606 182.704, 22.880 182.106, 20.171 179.655 C 17.528 177.263, 17.262 177.377, 8.750 184.558 M 53.250 181.651 C 51.369 182.427, 51.693 184.072, 55.250 191.802 L 58.500 198.864 61.839 197.443 L 65.178 196.022 61.273 188.762 C 57.545 181.831, 56.042 180.499, 53.250 181.651 M 113.185 184.672 C 113.436 187.728, 113.903 188.500, 115.500 188.500 C 118.684 188.500, 118.389 181.626, 115.185 181.172 C 113.067 180.872, 112.897 181.170, 113.185 184.672 M 98.703 186.413 C 88.084 190.454, 88.530 190.045, 89.973 194.419 C 91.659 199.527, 91.917 199.525, 102.441 194.297 C 112.001 189.548, 112.903 188.557, 110.965 184.934 C 109.612 182.406, 109.060 182.473, 98.703 186.413 M 150.242 185.367 C 149.246 187.555, 149.642 188.085, 155.473 192.367 C 162.787 197.737, 163.389 197.862, 165.617 194.462 C 167.578 191.470, 167.227 191.089, 157.860 186.040 C 151.104 182.398, 151.576 182.440, 150.242 185.367" fill="none" stroke="#fff" stroke-width="9" stroke-linecap="round" stroke-linejoin="round" stroke-dasharray="0.5 16"/></svg>