<svg xmlns="http://www.w3.org/2000/svg" viewBox="-10 -10 220 220"><path d="M 39.022 22.750 C 36.814 30.474, 34 49.459, 34 56.628 C 34 62.801, 33.517 65.024, 31.140 69.779 C 19.093 93.878, 14.949 140.905, 23.569 155.688 C 43.474 189.820, 164.178 189.539, 176.978 155.330 C 181.277 143.840, 181.857 112.247, 178.071 95.750 C 177.304 92.407, 177.422 92, 179.155 92 C 181.897 92, 186.641 89.378, 187.379 87.455 C 189.661 81.508, 185.640 75.529, 179.475 75.704 C 177.564 75.758, 176 75.397, 176 74.901 C 176 74.405, 177.295 74, 178.878 74 C 183.084 74, 184.150 71.992, 185.116 62.247 C 185.593 57.436, 186.437 51.340, 186.991 48.701 C 190.008 34.346, 187.161 30.387, 174.554 31.410 C 164.265 32.245, 152.495 35.013, 141.962 39.075 L 133.888 42.189 126.194 40.129 C 110.683 35.978, 90.121 35.053, 77.633 37.946 C 73.946 38.800, 73.422 38.587, 66.319 33.334 C 56.674 26.201, 44.466 19, 42.018 19 C 40.652 19, 39.783 20.087, 39.022 22.750" fill="none" stroke="#fff" stroke-width="9" stroke-linecap="round" stroke-linejoin="round" stroke-dasharray="0.5 16"/></svg>