<svg xmlns="http://www.w3.org/2000/svg" viewBox="-10 -10 220 220"><path d="M 39.584 20.750 C 37.442 27.551, 34.879 43.339, 34.348 53 C 33.810 62.784, 33.305 65.323, 30.961 70.017 C 21.081 89.805, 15.880 132.800, 21.262 150.196 C 26.939 168.546, 53.456 179.427, 95.500 180.659 C 136.321 181.855, 168.448 172.854, 175.928 158.124 C 181.185 147.773, 182.150 117.655, 177.935 95.500 C 175.103 80.617, 175.101 78.450, 177.901 68.500 C 180.654 58.721, 181.991 36.721, 180.053 33.100 C 178.096 29.443, 158.834 32.469, 142.177 39.052 L 134.369 42.137 126.435 40.115 C 110.112 35.957, 90.063 35.067, 77.618 37.950 C 73.915 38.807, 73.408 38.603, 66.618 33.509 C 51.115 21.877, 40.767 16.994, 39.584 20.750" fill="none" stroke="#fff" stroke-width="9" stroke-linecap="round" stroke-linejoin="round" stroke-dasharray="0.5 16"/></svg>