<svg xmlns="http://www.w3.org/2000/svg" viewBox="-10 -10 220 220"><path d="M 39.103 44.250 C 36.293 52.928, 34.013 65.217, 34.007 71.720 C 34 78.741, 33.860 79.146, 28.944 86.392 C 12.419 110.748, 7.777 147.893, 19.621 161.003 C 42.025 185.801, 154.003 188.365, 178.463 164.640 C 187.172 156.193, 186.923 126.314, 177.919 99.256 L 175.801 92.891 177.778 88.195 C 182.394 77.237, 184.323 55.903, 180.999 52.573 C 178.272 49.841, 154.522 53.400, 138.684 58.913 L 132.867 60.938 124.684 58.901 C 114.662 56.407, 92.390 55.299, 82.727 56.813 L 75.953 57.875 68.227 53.280 C 48.436 41.510, 40.760 39.130, 39.103 44.250" fill="none" stroke="#fff" stroke-width="9" stroke-linecap="round" stroke-linejoin="round" stroke-dasharray="0.5 16"/></svg>