<svg xmlns="http://www.w3.org/2000/svg" viewBox="-10 -10 220 220"><path d="M 39.022 22.750 C 36.814 30.474, 34 49.459, 34 56.628 C 34 62.825, 33.522 65.006, 31.117 69.779 C 27.041 77.870, 23.494 89.777, 21.520 102 C 20.587 107.775, 19.642 113.463, 19.420 114.640 C 19.164 116, 17.283 117.640, 14.259 119.140 C 1.185 125.624, 2.231 140.333, 16.539 151.227 C 19.626 153.577, 24.561 157.841, 27.506 160.702 C 58.411 190.729, 165.181 186.860, 176.995 155.285 C 181.877 142.234, 181.833 114.171, 176.892 89.943 L 174.801 79.689 176.872 72.595 C 180.830 59.033, 182.471 37.617, 179.917 32.846 C 178.103 29.455, 158.626 32.649, 141.986 39.066 L 133.888 42.189 126.194 40.129 C 110.683 35.978, 90.121 35.053, 77.633 37.946 C 73.946 38.800, 73.422 38.587, 66.319 33.334 C 56.674 26.201, 44.466 19, 42.018 19 C 40.652 19, 39.783 20.087, 39.022 22.750" fill="none" stroke="#fff" stroke-width="9" stroke-linecap="round" stroke-linejoin="round" stroke-dasharray="0.5 16"/></svg>