<svg xmlns="http://www.w3.org/2000/svg" viewBox="-10 -10 220 220"><path d="M 153.960 3.303 C 143.277 8.952, 141.933 22.630, 151.218 31.201 C 153.481 33.291, 154.788 35, 154.123 35 C 153.457 35, 148.610 36.612, 143.351 38.581 L 133.790 42.162 126.145 40.116 C 110.682 35.978, 90.105 35.057, 77.633 37.946 C 73.946 38.800, 73.422 38.587, 66.319 33.334 C 56.674 26.201, 44.466 19, 42.018 19 C 38.925 19, 34 42.114, 34 56.628 C 34 62.801, 33.517 65.024, 31.140 69.779 C 19.093 93.878, 14.949 140.905, 23.569 155.688 C 43.474 189.820, 164.178 189.539, 176.978 155.330 C 181.345 143.657, 181.850 112.290, 177.945 95.183 C 177.098 91.473, 177.244 90.466, 178.980 88.028 C 181.600 84.349, 181.692 77.168, 179.162 73.885 C 176.179 70.016, 177.958 65.358, 182.929 64.019 C 193.272 61.234, 196.691 48.455, 189.118 40.882 C 186.982 38.747, 184.381 37, 183.337 37 C 182.146 37, 181.017 35.882, 180.306 34 C 179.459 31.756, 178.536 31, 176.645 31 L 174.116 31 176.546 26.750 C 182.977 15.502, 174.785 1, 162 1 C 159.973 1, 156.355 2.036, 153.960 3.303" fill="none" stroke="#fff" stroke-width="9" stroke-linecap="round" stroke-linejoin="round" stroke-dasharray="0.5 16"/></svg>