<svg xmlns="http://www.w3.org/2000/svg" viewBox="-10 -10 220 220"><path d="M 39.022 22.750 C 36.814 30.474, 34 49.459, 34 56.628 C 34 62.801, 33.517 65.024, 31.140 69.779 C 19.093 93.878, 14.949 140.905, 23.569 155.688 C 30.936 168.321, 53.657 177.705, 83.500 180.439 C 88.368 180.885, 98.802 183.840, 117.762 190.143 C 151.726 201.432, 151.967 201.407, 140.955 187.725 C 136.567 182.272, 134.399 178.831, 135.205 178.598 C 135.917 178.393, 140.325 177.262, 145 176.084 C 155.221 173.509, 166.269 168.459, 171.253 164.083 C 181.287 155.273, 183.713 123.384, 176.892 89.943 L 174.801 79.689 176.872 72.595 C 180.830 59.033, 182.471 37.617, 179.917 32.846 C 178.103 29.455, 158.626 32.649, 141.986 39.066 L 133.888 42.189 126.194 40.129 C 110.683 35.978, 90.121 35.053, 77.633 37.946 C 73.946 38.800, 73.422 38.587, 66.319 33.334 C 56.674 26.201, 44.466 19, 42.018 19 C 40.652 19, 39.783 20.087, 39.022 22.750" fill="none" stroke="#fff" stroke-width="9" stroke-linecap="round" stroke-linejoin="round" stroke-dasharray="0.5 16"/></svg>