<svg xmlns="http://www.w3.org/2000/svg" viewBox="-10 -10 220 220"><path d="M 39.022 22.750 C 36.814 30.476, 34 49.460, 34 56.633 C 34 62.688, 33.510 65.034, 31.356 69.283 C 21.625 88.482, 17.137 120.856, 20.252 149.385 C 22.369 168.778, 47.415 183.996, 75 182.649 C 131.006 179.916, 136.213 179.336, 151.951 174.071 C 159.190 171.650, 160.727 171.425, 162.465 172.531 C 171.011 177.973, 176.438 176.310, 172.433 169.476 L 170.009 165.340 172.494 163.005 C 181.302 154.731, 183.308 121.401, 176.892 89.943 L 174.801 79.689 176.872 72.595 C 180.830 59.033, 182.471 37.617, 179.917 32.846 C 178.103 29.455, 158.626 32.649, 141.986 39.066 L 133.888 42.189 126.194 40.129 C 110.683 35.978, 90.121 35.053, 77.633 37.946 C 73.946 38.800, 73.422 38.587, 66.319 33.334 C 56.674 26.201, 44.466 19, 42.018 19 C 40.652 19, 39.783 20.087, 39.022 22.750" fill="none" stroke="#fff" stroke-width="9" stroke-linecap="round" stroke-linejoin="round" stroke-dasharray="0.5 16"/></svg>