<svg xmlns="http://www.w3.org/2000/svg" viewBox="-10 -10 220 220"><path d="M 55.739 60.295 C 53.891 61.762, 50.858 76.823, 50.468 86.477 C 50.264 91.524, 49.437 95.111, 47.529 99.227 C 46.069 102.376, 43.869 109.054, 42.639 114.067 L 40.404 123.180 37.533 118.638 C 29.526 105.970, 14.159 100.908, 6.615 108.452 C -0.045 115.112, 1.219 122.474, 10.850 133.124 C 13.738 136.318, 17.400 141.960, 19.323 146.181 C 23.163 154.608, 27.333 158.373, 36.837 161.998 C 43.595 164.576, 43.456 164.500, 50.244 169.283 C 70.643 183.656, 123.823 185.118, 147.811 171.965 C 150.940 170.249, 156.268 167.976, 159.652 166.913 C 169.314 163.878, 174.776 159.605, 178.933 151.828 C 180.895 148.159, 185.492 142.062, 189.150 138.280 C 197.677 129.461, 199.224 125.160, 196.153 118.816 C 190.744 107.643, 175.685 108.939, 164.032 121.581 L 160.068 125.881 159.435 122.191 C 159.087 120.161, 158.195 115.455, 157.452 111.733 C 156.318 106.057, 156.318 104.351, 157.448 101.148 C 160.518 92.445, 161.994 74.727, 159.965 70.934 C 158.123 67.492, 144.005 69.137, 131.386 74.265 L 125.324 76.728 118.304 74.945 C 108.180 72.374, 96.643 71.591, 88.199 72.901 L 80.969 74.023 73.234 68.634 C 62.228 60.964, 57.648 58.782, 55.739 60.295" fill="none" stroke="#fff" stroke-width="9" stroke-linecap="round" stroke-linejoin="round" stroke-dasharray="0.5 16"/></svg>