<svg xmlns="http://www.w3.org/2000/svg" viewBox="-10 -10 220 220"><path d="M 39.022 22.750 C 36.814 30.474, 34 49.459, 34 56.628 C 34 62.801, 33.517 65.024, 31.140 69.779 C 19.057 93.949, 14.949 140.907, 23.617 155.769 C 26.447 160.622, 33.528 166.588, 39.818 169.421 C 42.682 170.710, 43.904 171.808, 43.537 172.763 C 40.864 179.729, 42.577 182.950, 50.538 185.928 C 75.613 195.310, 127.509 192.705, 129.659 181.957 C 130.043 180.035, 130.862 179, 131.997 179 C 140.693 179, 164.618 169.909, 171.253 164.083 C 181.287 155.273, 183.713 123.384, 176.892 89.943 L 174.801 79.689 176.872 72.595 C 180.830 59.033, 182.471 37.617, 179.917 32.846 C 178.103 29.455, 158.626 32.649, 141.986 39.066 L 133.888 42.189 126.194 40.129 C 110.683 35.978, 90.121 35.053, 77.633 37.946 C 73.946 38.800, 73.422 38.587, 66.319 33.334 C 56.674 26.201, 44.466 19, 42.018 19 C 40.652 19, 39.783 20.087, 39.022 22.750" fill="none" stroke="#fff" stroke-width="9" stroke-linecap="round" stroke-linejoin="round" stroke-dasharray="0.5 16"/></svg>