<svg xmlns="http://www.w3.org/2000/svg" viewBox="-10 -10 220 220"><path d="M 100 14.809 C 100 32.957, 100.153 32.682, 89.036 34.611 C 73.942 37.230, 58.781 43.229, 46.589 51.404 L 40.164 55.713 31.605 53.857 C 18.745 51.068, 4.839 49.957, 3.093 51.579 C 0.767 53.738, 6.163 75.586, 12.357 89.093 C 14.410 93.570, 14.927 96.565, 15.360 106.500 C 16.950 142.939, 34.740 181.380, 52.388 186.511 C 62.380 189.415, 87.228 187.767, 98.250 183.469 C 99.834 182.851, 100 183.603, 100 191.393 L 100 200 150 200 L 200 200 200 100 L 200 0 150 0 L 100 0 100 14.809" fill="none" stroke="#fff" stroke-width="9" stroke-linecap="round" stroke-linejoin="round" stroke-dasharray="0.5 16"/></svg>