<svg xmlns="http://www.w3.org/2000/svg" viewBox="-10 -10 220 220"><path d="M 149.305 16.908 C 138.426 21.200, 121.794 31.289, 119.514 34.978 C 119.166 35.540, 115.341 36, 111.013 36 C 95.723 36, 77.037 39.696, 65.204 45.062 C 57.259 48.664, 58.484 48.699, 48.028 44.565 C 34.836 39.348, 23.031 36.540, 21.352 38.219 C 19.654 39.917, 21.078 61.105, 23.633 72.177 C 25.850 81.784, 25.783 84.927, 23.152 94.500 C 15.336 122.939, 18.949 151.743, 31.744 163.006 C 61.407 189.117, 164.993 185.876, 177.122 158.458 C 184.572 141.616, 179.720 90.472, 168.405 66.575 C 166.196 61.908, 165.857 60.138, 166.395 56.081 C 167.686 46.348, 162.926 19.069, 159.305 15.448 C 157.464 13.607, 157.794 13.558, 149.305 16.908" fill="none" stroke="#fff" stroke-width="9" stroke-linecap="round" stroke-linejoin="round" stroke-dasharray="0.5 16"/></svg>