<svg xmlns="http://www.w3.org/2000/svg" viewBox="-10 -10 220 220"><path d="M 71.585 20.492 C 53.032 23.137, 36.479 29.129, 28.593 36.053 C 18.656 44.778, 16.290 76.628, 23.100 110.016 L 25.199 120.311 23.128 127.405 C 19.170 140.967, 17.529 162.383, 20.083 167.154 C 21.897 170.545, 41.374 167.351, 58.014 160.934 L 66.112 157.811 73.806 159.871 C 89.317 164.022, 109.879 164.947, 122.367 162.054 C 126.054 161.200, 126.578 161.413, 133.681 166.666 C 143.326 173.799, 155.534 181, 157.982 181 C 161.075 181, 166 157.886, 166 143.372 C 166 137.199, 166.483 134.976, 168.860 130.221 C 180.907 106.122, 185.051 59.095, 176.431 44.312 C 165.425 25.440, 115.860 14.179, 71.585 20.492" fill="none" stroke="#fff" stroke-width="9" stroke-linecap="round" stroke-linejoin="round" stroke-dasharray="0.5 16"/></svg>