<svg xmlns="http://www.w3.org/2000/svg" viewBox="-10 -10 220 220"><path d="M 93.166 20.300 C 92.573 21.014, 91.768 23.602, 91.377 26.050 C 90.779 29.793, 89.731 31.365, 84.772 35.949 C 81.531 38.946, 77.360 43.465, 75.505 45.993 C 72.650 49.883, 71.316 50.790, 66.816 51.903 C 59.349 53.751, 44.607 60.893, 37.500 66.108 C 31.666 70.389, 31.348 70.493, 26 69.854 C 17.650 68.858, 5.681 68.916, 4.028 69.961 C 1.634 71.475, 7.487 89.474, 13.439 98.903 C 15.279 101.818, 16 104.328, 16 107.820 C 16 121.431, 27.129 149.105, 37.229 160.609 C 44.590 168.992, 57.818 170.814, 74.718 165.771 C 82.846 163.346, 82.967 163.339, 85.718 165.211 C 107.515 180.043, 156.570 185.583, 193.250 177.354 L 200 175.840 200 106.406 L 200 36.973 196.250 38.584 C 187.936 42.155, 187.570 42.188, 179.377 40.100 C 163.112 35.956, 143.045 35.071, 130.618 37.950 C 126.915 38.807, 126.408 38.603, 119.618 33.509 C 104.933 22.491, 95.328 17.695, 93.166 20.300" fill="none" stroke="#fff" stroke-width="9" stroke-linecap="round" stroke-linejoin="round" stroke-dasharray="0.5 16"/></svg>