<svg xmlns="http://www.w3.org/2000/svg" viewBox="-10 -10 220 220"><path d="M 72.864 6.793 C 61.511 12.706, 57.409 27.464, 64.247 37.798 C 67.617 42.889, 97.938 71, 100.060 71 C 102.120 71, 131.575 43.680, 135.433 38.192 C 149.773 17.788, 120.737 -7.488, 102.750 9.740 L 100 12.374 97.250 9.740 C 90.670 3.437, 81.449 2.323, 72.864 6.793 M 26.003 60.250 C 24.402 64.027, 22 78.877, 22 84.998 C 22 89.326, 21.247 92.384, 19.001 97.184 C 12.902 110.218, 9.274 137.506, 11.944 150.271 C 14.994 164.856, 29.179 172.939, 57.122 176.013 L 67.372 177.141 71.316 181.622 C 91.426 204.468, 174.733 202.944, 185.085 179.540 C 189.448 169.678, 189.789 149.961, 185.947 129.698 C 184.555 122.354, 184.350 119.219, 185.128 117.198 C 188.434 108.617, 190.127 88.975, 187.917 84.846 C 186.242 81.714, 164.900 85.321, 155.281 90.361 C 153.189 91.457, 151.746 91.386, 146.148 89.913 C 142.492 88.950, 137.363 87.874, 134.750 87.520 L 130 86.877 130 77.498 C 130 71.321, 129.593 67.867, 128.809 67.382 C 125.822 65.536, 109.959 68.241, 100.885 72.145 C 95.989 74.251, 95.774 74.259, 88.202 72.586 C 77.738 70.274, 65.799 69.590, 58.153 70.863 L 51.806 71.920 46.441 67.956 C 33.423 58.340, 27.724 56.191, 26.003 60.250" fill="none" stroke="#fff" stroke-width="9" stroke-linecap="round" stroke-linejoin="round" stroke-dasharray="0.5 16"/></svg>