<svg xmlns="http://www.w3.org/2000/svg" viewBox="-10 -10 220 220"><path d="M 39.022 22.750 C 37.327 28.680, 34 48.804, 34 53.126 C 34 56.108, 32.693 59.222, 28.572 66.058 C 20.476 79.487, 17.514 89.072, 17.618 101.500 C 17.745 116.712, 19.716 146.089, 20.856 149.764 C 21.835 152.919, 21.745 153.080, 18.184 154.567 C 1.036 161.730, 0.577 186.403, 17.444 194.406 C 22.160 196.644, 31.642 196.477, 36.360 194.072 L 40.142 192.143 46.594 194.572 C 61.489 200.178, 77.182 196.163, 84.078 184.981 L 86.500 181.054 101.199 181.027 C 141.732 180.953, 171.129 171.103, 176.817 155.690 C 182.497 140.297, 184.139 96.330, 179.562 82.183 L 176.870 73.865 178.552 66.683 C 180.757 57.270, 181.695 36.166, 180.046 33.085 C 178.099 29.448, 159.243 32.410, 141.986 39.066 L 133.888 42.189 126.194 40.129 C 110.683 35.978, 90.121 35.053, 77.633 37.946 C 73.946 38.800, 73.422 38.587, 66.319 33.334 C 56.674 26.201, 44.466 19, 42.018 19 C 40.652 19, 39.783 20.087, 39.022 22.750" fill="none" stroke="#fff" stroke-width="9" stroke-linecap="round" stroke-linejoin="round" stroke-dasharray="0.5 16"/></svg>