<svg xmlns="http://www.w3.org/2000/svg" viewBox="-10 -10 220 220"><path d="M 87.081 11.506 C 85.201 12.353, 81.355 15.017, 78.535 17.426 L 73.407 21.807 68.717 18.404 C 60.483 12.429, 60.118 12.729, 55.339 29.407 L 52.500 39.314 35.500 53.516 C 23.170 63.816, 17.538 67.894, 15 68.362 C 1.164 70.908, -2.105 84.582, 5.281 109 C 12.012 131.250, 17.274 140.485, 31.198 154.484 L 43.117 166.468 42.419 180.214 C 41.481 198.694, 41.972 199.279, 54 194 C 62.362 190.330, 64.960 190.281, 72 193.659 C 79.433 197.226, 85.814 197.233, 92.717 193.683 C 99.426 190.233, 102.580 190.304, 111.240 194.105 C 119.319 197.651, 121.871 197.579, 130.656 193.557 C 137.873 190.253, 140.649 190.335, 149.240 194.105 C 157.319 197.651, 159.871 197.579, 168.656 193.557 C 175.851 190.263, 178.358 190.337, 186.346 194.075 C 189.961 195.766, 193.949 197.004, 195.209 196.825 L 197.500 196.500 197.790 166 C 198.176 125.447, 196.193 104.348, 190.817 91.812 L 188.807 87.124 191.799 79.312 C 196.807 66.234, 200.170 46.054, 198.012 42.022 C 196.029 38.317, 174.238 39.869, 158.210 44.858 L 152.089 46.763 142.295 43.420 C 132.417 40.049, 117.679 37, 111.262 37 C 108.335 37, 107.904 36.724, 108.531 35.250 C 115.015 20.007, 101.481 5.025, 87.081 11.506" fill="none" stroke="#fff" stroke-width="9" stroke-linecap="round" stroke-linejoin="round" stroke-dasharray="0.5 16"/></svg>