<svg xmlns="http://www.w3.org/2000/svg" viewBox="-10 -10 220 220"><path d="M 29.192 24.269 C 26.058 28.045, 24.943 60.939, 27.713 67.927 C 28.446 69.776, 28.020 72.394, 25.924 78.927 C 17.024 106.661, 15.133 145.539, 22.025 159.049 C 35.946 186.336, 138.551 188.787, 167.755 162.531 C 180.925 150.689, 183.406 112.361, 172.971 81.929 C 170.182 73.793, 170.076 72.886, 170.888 64.088 C 171.692 55.377, 170.687 30.920, 169.442 28.906 C 167.995 26.565, 154.368 31.682, 140.693 39.702 L 133.886 43.694 128.686 41.978 C 116.178 37.852, 88.498 36.114, 77.362 38.755 C 73.600 39.648, 72.781 39.460, 68.362 36.689 C 55.813 28.822, 31.747 21.190, 29.192 24.269" fill="none" stroke="#fff" stroke-width="9" stroke-linecap="round" stroke-linejoin="round" stroke-dasharray="0.5 16"/></svg>