<svg xmlns="http://www.w3.org/2000/svg" viewBox="-10 -10 220 220"><path d="M 39.022 22.750 C 36.814 30.474, 34 49.459, 34 56.628 C 34 62.801, 33.517 65.024, 31.140 69.779 C 19.093 93.878, 14.949 140.905, 23.569 155.688 C 45.453 193.215, 178.566 187.508, 179.564 149 C 179.614 147.075, 180.002 140.775, 180.427 135 C 181.325 122.791, 179.957 105.413, 176.891 90.084 L 174.807 79.668 176.875 72.584 C 180.830 59.032, 182.470 37.615, 179.917 32.846 C 178.103 29.455, 158.626 32.649, 141.986 39.066 L 133.888 42.189 126.194 40.129 C 110.683 35.978, 90.121 35.053, 77.633 37.946 C 73.946 38.800, 73.422 38.587, 66.319 33.334 C 56.674 26.201, 44.466 19, 42.018 19 C 40.652 19, 39.783 20.087, 39.022 22.750" fill="none" stroke="#fff" stroke-width="9" stroke-linecap="round" stroke-linejoin="round" stroke-dasharray="0.5 16"/></svg>