<svg xmlns="http://www.w3.org/2000/svg" viewBox="-10 -10 220 220"><path d="M 72.864 6.793 C 62.321 12.284, 57.977 25.125, 63.090 35.686 C 64.367 38.323, 69.311 43.893, 75.796 50.001 C 83.656 57.404, 85.871 60, 84.329 60 C 81.461 60, 80.371 61.680, 79.547 67.368 L 78.842 72.236 75.171 71.615 C 66.979 70.228, 54.133 69.866, 48.197 70.856 C 41.921 71.901, 41.875 71.892, 37.536 68.580 C 23.877 58.153, 17.319 56.016, 15.808 61.500 C 14.411 66.576, 12.008 82.284, 12.004 86.376 C 12.002 88.508, 10.454 94.133, 8.565 98.876 C 1.061 117.718, -1.014 145.382, 4.271 156.143 C 8.583 164.923, 21.517 172.305, 36.532 174.557 C 40.502 175.152, 41.325 175.718, 42.997 178.994 C 49.210 191.172, 67.834 197.302, 99 197.426 C 136.498 197.576, 157.554 189.245, 162.198 172.420 C 163.287 168.474, 163.517 168.298, 169.234 167.030 C 182.806 164.019, 194.109 156.048, 197.096 147.381 C 200.622 137.153, 197.542 107.179, 191.504 92.951 C 189.689 88.673, 188.471 83.468, 187.888 77.500 C 186.746 65.816, 184.062 53.296, 182.403 51.919 C 180.807 50.595, 172.440 54.826, 163.709 61.374 C 158.259 65.461, 157.671 65.669, 153.709 64.902 C 147.216 63.645, 133.960 63.856, 125.838 65.346 C 105.616 69.055, 105.232 67.961, 121.396 52.690 C 136.430 38.487, 139 34.574, 139 25.890 C 139 7.363, 115.952 -2.905, 102.750 9.740 L 100 12.374 97.250 9.740 C 90.670 3.437, 81.449 2.323, 72.864 6.793" fill="none" stroke="#fff" stroke-width="9" stroke-linecap="round" stroke-linejoin="round" stroke-dasharray="0.5 16"/></svg>