<svg xmlns="http://www.w3.org/2000/svg" viewBox="-10 -10 220 220"><path d="M 39.022 22.750 C 36.814 30.476, 34 49.460, 34 56.633 C 34 62.688, 33.510 65.034, 31.356 69.283 C 25.880 80.086, 21.259 97.928, 19.477 115.146 C 18.825 121.450, 18.642 121.822, 15.921 122.366 C 10.598 123.430, 10.640 130.578, 15.976 131.645 C 18.686 132.187, 19 132.633, 19 135.941 C 19 159.024, 32.680 171.140, 66.568 178.071 C 88.958 182.651, 126.640 181.514, 146.888 175.650 C 151.381 174.348, 155.262 173.615, 155.513 174.021 C 156.497 175.614, 159.985 175.699, 162.149 174.183 C 163.409 173.300, 165.890 172.713, 167.701 172.869 C 170.371 173.099, 171.186 172.686, 172.123 170.629 C 172.924 168.872, 174.200 168.014, 176.329 167.803 C 178.777 167.560, 179.538 166.904, 180.157 164.500 C 180.590 162.820, 181.935 161.060, 183.215 160.500 C 184.889 159.767, 185.516 158.642, 185.560 156.289 C 185.593 154.523, 186.465 152.144, 187.498 151.003 C 189.149 149.178, 189.226 148.513, 188.135 145.497 C 187.196 142.900, 187.171 141.549, 188.033 139.939 C 188.985 138.159, 188.790 137.405, 186.840 135.329 C 185.448 133.848, 184.631 131.908, 184.813 130.518 C 184.990 129.167, 184.287 127.413, 183.139 126.344 C 181.526 124.841, 180.956 122.275, 180.066 112.500 C 179.466 105.900, 178.036 95.813, 176.891 90.084 L 174.807 79.668 176.875 72.584 C 180.830 59.032, 182.470 37.615, 179.917 32.846 C 178.103 29.455, 158.626 32.649, 141.986 39.066 L 133.888 42.189 126.194 40.129 C 110.683 35.978, 90.121 35.053, 77.633 37.946 C 73.946 38.800, 73.422 38.587, 66.319 33.334 C 56.674 26.201, 44.466 19, 42.018 19 C 40.652 19, 39.783 20.087, 39.022 22.750" fill="none" stroke="#fff" stroke-width="9" stroke-linecap="round" stroke-linejoin="round" stroke-dasharray="0.5 16"/></svg>