<svg xmlns="http://www.w3.org/2000/svg" viewBox="-10 -10 220 220"><path d="M 39.022 22.750 C 36.814 30.474, 34 49.459, 34 56.628 C 34 62.801, 33.517 65.024, 31.140 69.779 C 24.321 83.418, 20.200 102.002, 19.327 123.047 C 18.004 154.945, 23.477 163.888, 50.482 173.956 L 57.464 176.560 59.151 183.030 C 62.067 194.220, 70.734 199, 88.104 199 C 100.278 199, 104.399 196.772, 108.656 187.889 L 111.824 181.279 123.162 180.035 C 144.097 177.738, 162.746 171.552, 171.253 164.083 C 181.287 155.273, 183.713 123.384, 176.892 89.943 L 174.801 79.689 176.872 72.595 C 180.830 59.033, 182.471 37.617, 179.917 32.846 C 178.103 29.455, 158.626 32.649, 141.986 39.066 L 133.888 42.189 126.194 40.129 C 110.683 35.978, 90.121 35.053, 77.633 37.946 C 73.946 38.800, 73.422 38.587, 66.319 33.334 C 56.674 26.201, 44.466 19, 42.018 19 C 40.652 19, 39.783 20.087, 39.022 22.750" fill="none" stroke="#fff" stroke-width="9" stroke-linecap="round" stroke-linejoin="round" stroke-dasharray="0.5 16"/></svg>