<svg xmlns="http://www.w3.org/2000/svg" viewBox="-10 -10 220 220"><path d="M 155 25.550 C 150.325 26.894, 141.325 30.578, 135 33.736 C 128.675 36.894, 123.132 39.361, 122.683 39.217 C 112.830 36.063, 85.451 37.197, 71.100 41.354 L 63.188 43.645 56.844 39.826 C 48.961 35.079, 32.981 28, 30.150 28 C 28.689 28, 27.814 28.848, 27.310 30.750 C 26.598 33.441, 26.208 64.077, 26.798 71 C 26.972 73.045, 25.822 78.119, 24.030 83.205 C 16.256 105.279, 16.009 142.808, 23.553 155.681 C 43.662 189.994, 167.771 189.273, 177.057 154.789 C 181.511 138.246, 179.393 105.722, 172.347 82.487 C 169.251 72.274, 169.167 70.900, 170.887 58.500 C 172.147 49.421, 171.805 40.242, 169.828 30 C 168.279 21.973, 167.869 21.850, 155 25.550" fill="none" stroke="#fff" stroke-width="9" stroke-linecap="round" stroke-linejoin="round" stroke-dasharray="0.5 16"/></svg>