<svg xmlns="http://www.w3.org/2000/svg" viewBox="-10 -10 220 220"><path d="M 85 3.006 C 69.102 5.200, 56.046 11.480, 52.391 18.690 L 50.283 22.850 47.117 20.925 C 42.232 17.954, 40.266 18.397, 39.022 22.750 C 36.814 30.474, 34 49.459, 34 56.628 C 34 62.801, 33.517 65.024, 31.140 69.779 C 15.948 100.169, 14.759 150.364, 28.949 162.303 L 31.937 164.818 31.084 176.159 C 30.580 182.864, 30.602 187.897, 31.138 188.472 C 32.029 189.428, 133.425 196.977, 135.626 196.252 C 136.274 196.039, 137.047 192.098, 137.449 186.959 L 138.147 178.037 142.324 176.964 C 162.904 171.672, 173.294 165.175, 176.995 155.285 C 181.877 142.234, 181.833 114.171, 176.892 89.943 L 174.801 79.689 176.872 72.595 C 180.836 59.013, 182.470 37.616, 179.909 32.830 C 178.783 30.726, 176.155 30.700, 164 32.674 C 161.123 33.141, 160.723 33.007, 161.750 31.921 C 165.486 27.972, 162.302 19.138, 155.280 13.975 C 143.114 5.028, 108.966 -0.302, 85 3.006" fill="none" stroke="#fff" stroke-width="9" stroke-linecap="round" stroke-linejoin="round" stroke-dasharray="0.5 16"/></svg>