<svg version="1.1" id="WL_TI_74_075_svg__LOGO_74" x="0" y="0" xml:space="preserve" xmlns="http://www.w3.org/2000/svg" viewBox="0 0 212.7 212.7"><style type="text/css" id="style2">.WL_TI_74_075_svg__st0{fill:#52ae32}.WL_TI_74_075_svg__st1{fill:#fff}</style><g id="WL_TI_74_075_svg__g114" transform="translate(-190.2 -182)"><path class="WL_TI_74_075_svg__st0" d="M237.9 384.9c0 .3.3.4.6.4.8 0 1.1-.6 1.2-1.2h-.4c-.6 0-1.4.1-1.4.8z" id="WL_TI_74_075_svg__path4"/><path class="WL_TI_74_075_svg__st0" d="M231.5 382.5c-.7 0-1 .4-1.2 1h1.9v-.3c0-.4-.2-.7-.7-.7z" id="WL_TI_74_075_svg__path6"/><path class="WL_TI_74_075_svg__st0" d="M390.9 197.2c1 0 1.4-.5 1.4-1.3 0-1.8-1.8-2-2.9-2h-.4v.5c.1 1.6.6 2.8 1.9 2.8z" id="WL_TI_74_075_svg__path8"/><path class="WL_TI_74_075_svg__st0" d="M388.9 284.3c-1.6 0-3.2.2-3.2 1.5s1.6 1.5 3.2 1.5 3.2-.2 3.2-1.5-1.6-1.5-3.2-1.5z" id="WL_TI_74_075_svg__path10"/><path class="WL_TI_74_075_svg__st0" d="M385.4 306.3c0 1.1 1 1.7 2.5 1.7v-3.3h-.3c-1.5 0-2.2.4-2.2 1.6z" id="WL_TI_74_075_svg__path12"/><path class="WL_TI_74_075_svg__st0" d="M390.9 228.3c1 0 1.4-.5 1.4-1.3 0-1.8-1.8-2-2.9-2h-.4v.5c.1 1.6.6 2.8 1.9 2.8z" id="WL_TI_74_075_svg__path14"/><path class="WL_TI_74_075_svg__st0" d="M244.7 384.9c0 .3.3.4.6.4.8 0 1.1-.6 1.2-1.2h-.4c-.5 0-1.4.1-1.4.8z" id="WL_TI_74_075_svg__path16"/><path class="WL_TI_74_075_svg__st0" d="M387.9 258v-3.3h-.3c-1.5 0-2.2.4-2.2 1.6 0 1 1 1.7 2.5 1.7z" id="WL_TI_74_075_svg__path18"/><path class="WL_TI_74_075_svg__st0" d="M203.7 384.9c0 .3.3.4.6.4.8 0 1.1-.6 1.2-1.2h-.4c-.5 0-1.4.1-1.4.8z" id="WL_TI_74_075_svg__path20"/><path class="WL_TI_74_075_svg__st0" d="M385.4 345.2c0 1.1 1 1.7 2.5 1.7v-3.3h-.3c-1.5 0-2.2.4-2.2 1.6z" id="WL_TI_74_075_svg__path22"/><path class="WL_TI_74_075_svg__st0" id="WL_TI_74_075_svg__polygon24" d="M279.4 310.4h26.4l11.1-46.3h-.3z"/><path class="WL_TI_74_075_svg__st0" d="M190.2 394.6h148.3L323.4 351h37.2l15.4 43.7h26.9V182H190.2Zm204-32.7-3.3-.2c.3-.5.9-2 .9-3.4 0-1.5-.7-2.1-1.6-2.1-1 0-1.3.7-1.7 1.8l-.3.9c-1 2.5-2.3 3.2-4.4 3.2-2.8 0-4.4-2.3-4.4-5.5 0-1.1.1-2.6.6-3.8l2.9.2c-.4.7-.8 1.9-.8 3.1 0 1.2.5 1.9 1.4 1.9.8 0 1.1-.4 1.7-1.7l.8-1.8c.6-1.4 1.6-2.5 3.8-2.5 3.3 0 5 2.4 5 5.9 0 1.8-.4 3.3-.6 4zm-5.4-11.4c-3.1 0-5.8-1.8-5.8-5.2 0-3.5 2.8-5.2 5.8-5.2h1.1v6.7c1.8-.1 2.3-1.4 2.3-2.8 0-1.1-.5-2.3-.9-3.3l2.7-.1c.3.9.6 2.3.6 3.9.2 4.7-2.9 6-5.8 6zm-.4-16h6.1v3.9h-8.9c-.8 0-1.8.1-2.3.1v-3.6c.5-.1 1.2-.1 1.9-.1-.6-.2-2.1-1-2.1-3.2 0-1.9 1.1-3.4 3.6-3.4h7.8v3.9h-6.7c-1.1 0-1.6.3-1.6 1.1s1 1.3 2.2 1.3zm3.1-9.5H386v1.9h-2.6V325H381l-1.2-3.9h3.6V319h2.6v2.2h4.8c.9 0 1.4-.6 1.4-1.3 0-.4-.1-.7-.2-.9l2.6-.1c.1.5.3 1.4.3 2.6-.1 2-1.3 3.5-3.4 3.5zm-8.2-7.7v-3.9h11.2v3.9zm5.5-5.8c-3.1 0-5.8-1.8-5.8-5.2 0-3.5 2.8-5.2 5.8-5.2h1.1v6.7c1.8-.1 2.3-1.4 2.3-2.8 0-1.1-.5-2.3-.9-3.3l2.7-.1c.3.9.6 2.3.6 3.9.2 4.7-2.9 6-5.8 6zm.1-16h5.6v3.9h-7.9c-1.6 0-2.7.1-3.2.1v-3.6c.5-.1 1.2-.1 1.9-.1-.9-.3-2.1-1-2.1-2.9 0-.3 0-.4.1-.6h3.4c-.1.2-.1.7-.1 1.2-.2 1.2.9 2 2.3 2zm0-4.1c-3.1 0-5.9-1.5-5.9-5.6s2.8-5.6 5.9-5.6c3 0 5.8 1.5 5.8 5.6.1 4.1-2.7 5.6-5.8 5.6zm-1.7-101h4.8c.9 0 1.8-.1 2.5-.1v3.4c-.5 0-1 .1-1.5.1 1.2 1.1 1.8 2 1.8 3.4 0 2-1.4 3.4-3.6 3.4-2.5 0-3.8-1.9-3.8-5.8v-1h-.4c-.7 0-1.5.6-1.5 2.1 0 1.2.5 2.4 1.1 3.2l-2.8.1c-.3-.9-.7-2.3-.7-4.2-.1-3.8 1.8-4.6 4.1-4.6zm-3.6 11.4 2.8.2c-.2.4-.5 1.1-.5 1.9 0 1.4.9 2.5 3 2.5 1.7 0 3-.6 3-2.5 0-.9-.4-1.9-.5-2.1l2.8-.1c.3.6.6 2.2.6 3.1 0 4.1-2.8 5.6-5.8 5.6-3.1 0-5.9-1.5-5.9-5.6-.1-1.7.3-2.6.5-3zm0 10.4 2.8.1c-.3.7-.7 1.8-.7 2.7 0 .8.2 1.4.8 1.4.4 0 .6-.4 1-1.3l.5-1.3c.5-1.4 1.2-2.2 3.1-2.2 2.3 0 3.7 1.5 3.7 4.8 0 1.2-.3 2.8-.5 3.4l-3-.1c.3-.6.8-1.6.8-2.9 0-1.1-.3-1.6-.8-1.6-.4 0-.6.3-.9 1.2l-.4 1.2c-.6 1.8-1.7 2.3-3.2 2.3-2 0-3.7-1.3-3.7-4.7-.1-1.1.2-2.2.5-3zm3.6 9.3h4.8c.9 0 1.8-.1 2.5-.1v3.4c-.5 0-1 .1-1.5.1 1.2 1.1 1.8 2 1.8 3.4 0 2-1.4 3.4-3.6 3.4-2.5 0-3.8-1.9-3.8-5.8v-1h-.4c-.7 0-1.5.6-1.5 2.1 0 1.2.5 2.4 1.1 3.2l-2.8.1c-.3-.9-.7-2.3-.7-4.2-.1-3.8 1.8-4.6 4.1-4.6zm7.3 11.4v8.3h-3.2l-5.1-4.2v4h-2.9v-8h3.1l5.2 4.1v-4.2zm-11.4 9.4h3.4c-.1.2-.1.7-.1 1.2 0 1.2 1.1 2.1 2.6 2.1h5.6v3.9h-7.9c-1.6 0-2.7.1-3.2.1V246c.5-.1 1.2-.1 1.9-.1-.9-.3-2.1-1-2.1-2.9-.3-.4-.2-.5-.2-.7zm5.8 8.9h1.1v6.7c1.8-.1 2.3-1.4 2.3-2.8 0-1.1-.5-2.3-.9-3.3l2.7-.1c.3.9.6 2.3.6 3.9 0 4.5-3 5.8-5.9 5.8-3.1 0-5.8-1.8-5.8-5.2 0-3.4 2.8-5 5.9-5zm-9.4 19.3 10.7-2.4-10.7-2.4v-4.1l15 4.4v4.4l-15 4.4zm-1.1 42.9h3.2v3.9h-3.2zm-176.5 72.7h-3.4l1.2-5.7h1.1l-1 4.8h2.2zm4.2 0h-.9l.1-.6c-.4.5-.8.7-1.4.7-.8 0-1.3-.4-1.3-1.2 0-1.4 1.6-1.5 2.6-1.5h.4v-.4c0-.4-.5-.5-.8-.5-.5 0-1 .1-1.4.3l.2-.9c.5-.2.9-.3 1.4-.3.8 0 1.6.3 1.6 1.3 0 .6-.4 2.3-.5 3.1zm7.4-4.7c-.3-.2-.8-.3-1.2-.3-.4 0-1 .2-1 .7 0 .9 2 .9 2 2.5 0 1.4-1.1 1.9-2.4 1.9-.5 0-1.1-.1-1.6-.3l.3-1c.4.2.9.4 1.4.4.5 0 1.1-.3 1.1-.9 0-1-2-.9-2-2.4 0-1.2 1-1.7 2.1-1.7.5 0 1 .1 1.5.3zm1.6 4.7-.7-4.2h1.1l.4 3.1 1.7-3.1h1.2l-2.5 4.2zm3.5 0 .9-4.2h1.1l-.9 4.2zm1-5 .2-1h1.1l-.2 1zm4.5 5h-3.5l.2-.9 2.6-2.5h-1.9l.2-.9h3.3l-.2.9-2.6 2.5h2.1zm4.7-3.4-2.6 2.5h2.1l-.2.9h-3.5l.2-.9 2.6-2.5h-1.9l.2-.9h3.3zm4.4 1.6h-3c0 .8.4 1.1 1.2 1.1.5 0 .9-.1 1.3-.3l-.1.9c-.4.1-.9.2-1.3.2-1.2 0-2-.6-2-1.8 0-1.3 1-2.6 2.4-2.6 1 0 1.7.5 1.7 1.6-.1.3-.2.6-.2.9zm1.9-.1-.4 1.9h-1.1l.8-3.7c0-.2.1-.4.1-.6h1l-.1.8c.2-.5.7-.9 1.2-.9h.4l-.2 1.1c-.1 0-.3-.1-.4-.1-.8.1-1.2.8-1.3 1.5zm5.2 1.9h-.9l.1-.6c-.4.5-.8.7-1.4.7-.8 0-1.3-.4-1.3-1.2 0-1.4 1.6-1.5 2.6-1.5h.4v-.4c0-.4-.5-.5-.8-.5-.5 0-1 .1-1.4.3l.2-.9c.5-.2.9-.3 1.4-.3.8 0 1.6.3 1.6 1.3 0 .6-.4 2.3-.5 3.1zm6.8 0h-.9l.1-.6c-.4.5-.8.7-1.4.7-.8 0-1.3-.4-1.3-1.2 0-1.4 1.6-1.5 2.6-1.5h.4v-.4c0-.4-.5-.5-.8-.5-.5 0-1 .1-1.4.3l.2-.9c.5-.2.9-.3 1.4-.3.8 0 1.6.3 1.6 1.3.1.6-.4 2.3-.5 3.1zm5.8.1c-.5 0-1-.2-1.2-.8l-.5 2.4h-1.1l1.1-5.4c0-.2.1-.4.1-.5h1l-.1.6c.3-.5.7-.7 1.3-.7 1 0 1.5.7 1.5 1.7.1 1.3-.7 2.7-2.1 2.7zm3.7-.1h-1.1l.9-4.2h1.1zm0-5 .2-1h1.1l-.2 1zm5.3 3.2h-3c0 .8.4 1.1 1.2 1.1.5 0 .9-.1 1.3-.3l-.1.9c-.4.1-.9.2-1.3.2-1.2 0-2-.6-2-1.8 0-1.3 1-2.6 2.4-2.6 1 0 1.7.5 1.7 1.6-.1.3-.1.6-.2.9zm4.4 1.8h-1l.1-.6c-.3.5-.7.7-1.4.7-1 0-1.5-.8-1.5-1.8 0-1.3.7-2.7 2.1-2.7.5 0 1 .2 1.3.6l.5-2.4h1.1l-1.1 5.2c-.1.4-.1.7-.1 1zm2.1 0h-1.1l.9-4.2h1.1zm1.1-5h-1.1l.2-1h1.1zm77.6-139.6-14.9 68.9h15.4l-3.9 19.8H328l-4.5 20.9H296l4.4-20.9h-47.9l3.3-19.8 58.8-68.9zm-146.4-11.1 4.2-20.7h79.5l-5.3 24.8-55.5 84.7h-33.3l59.3-88.8z" id="WL_TI_74_075_svg__path26"/><path class="WL_TI_74_075_svg__st0" d="M264.8 382.6c-.8 0-1.2 1.1-1.2 1.7 0 .4.1 1 .7 1 .8 0 1.3-.9 1.3-1.7 0-.5-.2-1-.8-1z" id="WL_TI_74_075_svg__path28"/><path class="WL_TI_74_075_svg__st0" d="M260.2 382.5c-.7 0-1 .4-1.2 1h1.9v-.3c0-.4-.2-.7-.7-.7z" id="WL_TI_74_075_svg__path30"/><path class="WL_TI_74_075_svg__st0" d="M253.2 382.6c-.7 0-1.2 1-1.2 1.7 0 .5.2 1 .7 1 .9 0 1.2-1.1 1.2-1.8 0-.5-.2-.9-.7-.9z" id="WL_TI_74_075_svg__path32"/><path class="WL_TI_74_075_svg__st1" id="WL_TI_74_075_svg__polygon34" d="M284.5 209.7h-79.6l-4.2 20.7h48.9l-59.3 88.8h33.3l55.5-84.7z"/><path class="WL_TI_74_075_svg__st1" d="M252.5 330.2h47.9l-4.4 20.9h27.5l4.5-20.9h15.7l3.9-19.8h-15.4l14.9-68.9h-32.5l-58.8 68.9zm64.1-66.1h.3l-11.1 46.3h-26.4z" id="WL_TI_74_075_svg__path36"/><path d="M389.8 352.1c-2.2 0-3.2 1.2-3.8 2.5l-.8 1.8c-.6 1.3-.9 1.7-1.7 1.7-.9 0-1.4-.7-1.4-1.9s.4-2.4.8-3.1l-2.9-.2c-.5 1.2-.6 2.6-.6 3.8 0 3.2 1.6 5.5 4.4 5.5 2.1 0 3.5-.8 4.4-3.2l.3-.9c.5-1.2.7-1.8 1.7-1.8.9 0 1.6.5 1.6 2.1 0 1.4-.6 2.9-.9 3.4l3.3.2c.2-.8.6-2.2.6-4 0-3.6-1.7-5.9-5-5.9z" id="WL_TI_74_075_svg__path38"/><path d="M391.4 340.8c.4.9.9 2.2.9 3.3 0 1.4-.5 2.7-2.3 2.8v-6.7h-1.1c-3.1 0-5.8 1.7-5.8 5.2 0 3.4 2.7 5.2 5.8 5.2 2.9 0 5.9-1.3 5.9-5.8 0-1.6-.3-3-.6-3.9zm-3.5 6.1c-1.5 0-2.5-.6-2.5-1.7 0-1.2.7-1.6 2.2-1.6h.3z" id="WL_TI_74_075_svg__path40"/><path d="M387.8 332h6.7v-3.9h-7.8c-2.5 0-3.6 1.5-3.6 3.4 0 2.2 1.5 2.9 2.1 3.2-.6 0-1.4 0-1.9.1v3.6c.5-.1 1.4-.1 2.3-.1h8.9v-3.9h-6.1c-1.2 0-2.2-.4-2.2-1.4 0-.6.5-1 1.6-1z" id="WL_TI_74_075_svg__path42"/><path d="M391.9 319c.1.2.2.5.2.9 0 .7-.4 1.3-1.4 1.3h-4.8V319h-2.6v2.2h-3.6l1.2 3.9h2.4v1.9h2.6v-2h5.5c2.1 0 3.3-1.5 3.3-3.6 0-1.1-.2-2.1-.3-2.6z" id="WL_TI_74_075_svg__path44"/><path id="WL_TI_74_075_svg__rect46" d="M383.3 313.4h11.2v3.9h-11.2z"/><path id="WL_TI_74_075_svg__rect48" d="M378.4 313.4h3.2v3.9h-3.2z"/><path d="M391.4 301.8c.4.9.9 2.2.9 3.3 0 1.4-.5 2.7-2.3 2.8v-6.7h-1.1c-3.1 0-5.8 1.7-5.8 5.2 0 3.4 2.7 5.2 5.8 5.2 2.9 0 5.9-1.3 5.9-5.8 0-1.6-.3-3-.6-3.9zm-3.5 6.2c-1.5 0-2.5-.6-2.5-1.7 0-1.2.7-1.6 2.2-1.6h.3z" id="WL_TI_74_075_svg__path50"/><path d="M383.1 292.3c0 .2-.1.4-.1.6 0 1.8 1.2 2.5 2.1 2.9-.6 0-1.4 0-1.9.1v3.6c.5-.1 1.7-.1 3.2-.1h7.9v-3.9h-5.6c-1.5 0-2.6-.9-2.6-2.1 0-.5.1-1 .1-1.2h-3.1z" id="WL_TI_74_075_svg__path52"/><path d="M388.9 280.3c-3.1 0-5.9 1.5-5.9 5.6s2.8 5.6 5.9 5.6c3 0 5.8-1.5 5.8-5.6.1-4.1-2.7-5.6-5.8-5.6zm0 7.1c-1.6 0-3.2-.2-3.2-1.5s1.6-1.5 3.2-1.5 3.2.2 3.2 1.5-1.6 1.5-3.2 1.5z" id="WL_TI_74_075_svg__path54"/><path id="WL_TI_74_075_svg__polygon56" d="m379.5 265.6 10.7 2.5-10.7 2.4v4.3l15-4.4V266l-15-4.5z"/><path d="M388.8 261.5c2.9 0 5.9-1.3 5.9-5.8 0-1.6-.3-3-.6-3.9l-2.7.1c.4.9.9 2.2.9 3.3 0 1.4-.5 2.7-2.3 2.8v-6.7h-1.1c-3.1 0-5.8 1.7-5.8 5.2-.1 3.2 2.7 5 5.7 5zm-1.2-6.8h.3v3.3c-1.5 0-2.5-.6-2.5-1.7 0-1.2.7-1.6 2.2-1.6z" id="WL_TI_74_075_svg__path58"/><path d="M385.2 245.8c-.6 0-1.4.1-1.9.1v3.6c.5-.1 1.7-.1 3.2-.1h7.9v-3.9h-5.6c-1.5 0-2.6-.9-2.6-2.1 0-.5.1-1 .1-1.2h-3.4c0 .2-.1.4-.1.6.2 2 1.5 2.6 2.4 3z" id="WL_TI_74_075_svg__path60"/><path id="WL_TI_74_075_svg__polygon62" d="M383.3 233v8.1h2.9v-4l5.1 4.1h3.2v-8.3h-2.9v4.2l-5.2-4.1z"/><path d="M386.6 230.3c-.5-.8-1.1-2-1.1-3.2 0-1.5.8-2.1 1.5-2.1h.3v1c0 3.9 1.3 5.8 3.8 5.8 2.1 0 3.6-1.4 3.6-3.4 0-1.4-.6-2.2-1.8-3.4.5 0 1-.1 1.5-.1v-3.4c-.7.1-1.6.1-2.5.1h-4.8c-2.3 0-4.1.8-4.1 4.7 0 1.9.4 3.3.7 4.2zm2.5-5.3h.4c1.1 0 2.9.2 2.9 2 0 .8-.4 1.3-1.4 1.3-1.3 0-1.8-1.1-1.8-2.9v-.4Z" id="WL_TI_74_075_svg__path64"/><path d="M386.7 220c1.4 0 2.5-.5 3.2-2.3l.4-1.2c.3-.9.6-1.2.9-1.2.5 0 .8.5.8 1.6 0 1.4-.5 2.3-.8 2.9l3 .1c.2-.6.5-2.2.5-3.4 0-3.3-1.4-4.8-3.7-4.8-2 0-2.6.8-3.1 2.2l-.5 1.3c-.3.9-.6 1.3-1 1.3-.6 0-.8-.6-.8-1.4 0-1 .4-2 .7-2.7l-2.8-.1c-.3.8-.5 2-.5 3.1 0 3.3 1.7 4.6 3.7 4.6z" id="WL_TI_74_075_svg__path66"/><path d="M388.9 210.3c3 0 5.8-1.5 5.8-5.6 0-.9-.3-2.5-.6-3.1l-2.8.1c.1.2.5 1.2.5 2.1 0 1.9-1.3 2.5-3 2.5-2.1 0-3-1.1-3-2.5 0-.8.3-1.5.5-1.9l-2.8-.2c-.2.5-.5 1.4-.5 3 0 4.2 2.9 5.6 5.9 5.6z" id="WL_TI_74_075_svg__path68"/><path d="M386.6 199.2c-.5-.8-1.1-2-1.1-3.2 0-1.5.8-2.1 1.5-2.1h.3v1c0 3.9 1.3 5.8 3.8 5.8 2.1 0 3.6-1.4 3.6-3.4 0-1.4-.6-2.2-1.8-3.4.5 0 1-.1 1.5-.1v-3.4c-.7.1-1.6.1-2.5.1h-4.8c-2.3 0-4.1.8-4.1 4.7 0 1.9.4 3.3.7 4.2zm2.5-5.3h.4c1.1 0 2.9.2 2.9 2 0 .8-.4 1.3-1.4 1.3-1.3 0-1.8-1.1-1.8-2.9v-.4z" id="WL_TI_74_075_svg__path70"/><path id="WL_TI_74_075_svg__polygon72" d="M198.5 386.1h3.4l.2-.9h-2.2l1-4.9h-1.2z"/><path d="M205 381.7c-.5 0-1 .1-1.4.3l-.2.9c.4-.2.9-.3 1.4-.3.4 0 .8.1.8.5v.4h-.4c-1 0-2.6.1-2.6 1.5 0 .8.5 1.2 1.3 1.2.6 0 1-.3 1.4-.7l-.1.6h.9c.1-.8.5-2.5.5-3 0-1.1-.8-1.4-1.6-1.4zm-.8 3.7c-.3 0-.6-.1-.6-.4 0-.7.9-.8 1.4-.8h.4c-.1.6-.4 1.2-1.2 1.2z" id="WL_TI_74_075_svg__path74"/><path d="M210.2 382c0 1.5 2 1.4 2 2.4 0 .6-.5.9-1.1.9-.5 0-1-.2-1.4-.4l-.3 1c.5.2 1.1.3 1.6.3 1.3 0 2.4-.5 2.4-1.9 0-1.6-2-1.5-2-2.5 0-.5.5-.7 1-.7.4 0 .9.1 1.2.3l.3-.9c-.5-.2-1-.3-1.5-.3-1.2 0-2.2.6-2.2 1.8z" id="WL_TI_74_075_svg__path76"/><path id="WL_TI_74_075_svg__polygon78" d="m215.9 384.9-.4-3.1h-1.1l.7 4.3h1.2l2.5-4.3h-1.2l-1.6 3.1z"/><path id="WL_TI_74_075_svg__polygon80" d="M219.6 381.1h1.1l.3-1.1h-1.1z"/><path id="WL_TI_74_075_svg__polygon82" d="m219.7 386.1.9-4.3h-1.1l-.9 4.3z"/><path id="WL_TI_74_075_svg__polygon84" d="m221.6 381.8-.2.9h1.9l-2.6 2.5-.1.9h3.5l.1-.9h-2.1l2.6-2.5.2-.9z"/><path id="WL_TI_74_075_svg__polygon86" d="m224.8 385.2-.1.9h3.5l.1-.9h-2.1l2.6-2.5.2-.9h-3.3l-.2.9h1.9z"/><path d="M231.5 381.7c-1.4 0-2.4 1.3-2.4 2.6s.8 1.8 2 1.8c.5 0 .9-.1 1.3-.2l.1-.9c-.4.2-.8.3-1.3.3-.8 0-1.2-.3-1.2-1.1h3c.1-.3.1-.6.1-.9.2-1-.5-1.6-1.6-1.6zm.7 1.8h-1.9c.2-.6.5-1 1.2-1 .5 0 .7.3.7.7v.3z" id="WL_TI_74_075_svg__path88"/><path d="M237 381.8h-.4c-.5 0-1 .4-1.2.9l.1-.8h-1c0 .2-.1.4-.1.6l-.8 3.7h1.1l.4-1.9c.1-.7.5-1.4 1.3-1.4.1 0 .3 0 .4.1z" id="WL_TI_74_075_svg__path90"/><path d="M239.2 381.7c-.5 0-1 .1-1.4.3l-.2.9c.4-.2.9-.3 1.4-.3.4 0 .8.1.8.5v.4h-.4c-1 0-2.6.1-2.6 1.5 0 .8.5 1.2 1.3 1.2.6 0 1-.3 1.4-.7l-.1.6h.9c.1-.8.5-2.5.5-3 0-1.1-.8-1.4-1.6-1.4zm-.8 3.7c-.3 0-.6-.1-.6-.4 0-.7.9-.8 1.4-.8h.4c-.1.6-.4 1.2-1.2 1.2z" id="WL_TI_74_075_svg__path92"/><path d="M246 381.7c-.5 0-1 .1-1.4.3l-.2.9c.4-.2.9-.3 1.4-.3.4 0 .8.1.8.5v.4h-.4c-1 0-2.6.1-2.6 1.5 0 .8.5 1.2 1.3 1.2.6 0 1-.3 1.4-.7l-.1.6h.9c.1-.8.5-2.5.5-3 .1-1.1-.7-1.4-1.6-1.4zm-.8 3.7c-.3 0-.6-.1-.6-.4 0-.7.9-.8 1.4-.8h.4c-.1.6-.3 1.2-1.2 1.2z" id="WL_TI_74_075_svg__path94"/><path d="M253.5 381.7c-.6 0-1 .2-1.3.7l.1-.6h-1c0 .2 0 .3-.1.5l-1.1 5.4h1.1l.5-2.4c.2.6.7.8 1.2.8 1.5 0 2.2-1.4 2.2-2.7 0-1-.5-1.7-1.6-1.7zm-.8 3.6c-.5 0-.7-.5-.7-1 0-.7.4-1.7 1.2-1.7.5 0 .8.4.8.9-.1.7-.4 1.8-1.3 1.8z" id="WL_TI_74_075_svg__path96"/><path id="WL_TI_74_075_svg__polygon98" d="m257.7 381.1.2-1.1h-1.1l-.2 1.1z"/><path id="WL_TI_74_075_svg__polygon100" d="M257.5 381.8h-1.1l-.9 4.3h1.1z"/><path d="M260.3 381.7c-1.4 0-2.4 1.3-2.4 2.6s.8 1.8 2 1.8c.5 0 .9-.1 1.3-.2l.1-.9c-.4.2-.8.3-1.3.3-.8 0-1.2-.3-1.2-1.1h3c.1-.3.1-.6.1-.9.1-1-.6-1.6-1.6-1.6zm.6 1.8H259c.2-.6.5-1 1.2-1 .5 0 .7.3.7.7v.3z" id="WL_TI_74_075_svg__path102"/><path d="m266.5 379.9-.5 2.4c-.3-.4-.8-.6-1.3-.6-1.4 0-2.1 1.4-2.1 2.7 0 .9.5 1.8 1.5 1.8.6 0 1-.3 1.4-.7l-.1.6h1c0-.2.1-.6.2-.9l1.1-5.2h-1.2zm-2.2 5.4c-.5 0-.7-.6-.7-1 0-.6.4-1.7 1.2-1.7.6 0 .8.5.8 1 0 .8-.5 1.7-1.3 1.7z" id="WL_TI_74_075_svg__path104"/><path id="WL_TI_74_075_svg__polygon106" d="M269.7 380h-1.1l-.2 1.1h1.1z"/><path id="WL_TI_74_075_svg__polygon108" d="M269.3 381.8h-1.1l-.9 4.3h1.1z"/><path id="WL_TI_74_075_svg__polygon110" style="fill:#e41b18" d="m356.9 394.6-15-43.6-18.6.1 15.2 43.5z"/><path id="WL_TI_74_075_svg__polygon112" style="fill:#00569a" d="M356.9 394.6h19L360.5 351h-18.6z"/></g></svg>