<svg version="1.1" id="WL_ZH_47_075_svg__LOGO_47" x="0" y="0" xml:space="preserve" xmlns="http://www.w3.org/2000/svg" viewBox="0 0 212.6 212.8"><style type="text/css" id="style2">.WL_ZH_47_075_svg__st0{fill:#52ae32}.WL_ZH_47_075_svg__st1{fill:#fff}</style><g id="WL_ZH_47_075_svg__g148" transform="translate(-190.1 -182)"><path class="WL_ZH_47_075_svg__st0" d="M306.9 361.3c1.4 0 1.7-1.4 1.7-3.4 0-2.1-.5-3.3-1.8-3.3-1.2 0-1.6 1.3-1.6 3.2 0 2.1.3 3.5 1.7 3.5z" id="WL_ZH_47_075_svg__path4"/><path class="WL_ZH_47_075_svg__st0" d="M334.8 376c-1.2 0-1.9 1.1-1.9 2.8h3.7v-.4c-.1-1.6-.5-2.4-1.8-2.4z" id="WL_ZH_47_075_svg__path6"/><path class="WL_ZH_47_075_svg__st0" d="M265.5 382.2c0 1.1.6 1.5 1.5 1.5 2 0 2.2-2 2.2-3.2v-.4h-.5c-2 0-3.2.6-3.2 2.1z" id="WL_ZH_47_075_svg__path8"/><path class="WL_ZH_47_075_svg__st0" d="M348.2 376.5c-1.2 0-1.6 1.3-1.6 3.2 0 2.1.3 3.6 1.7 3.6s1.7-1.4 1.7-3.4c0-2.2-.6-3.4-1.8-3.4z" id="WL_ZH_47_075_svg__path10"/><path class="WL_ZH_47_075_svg__st0" d="M392.6 260.3v.4c0 .5.1 1.4.8 1.4.3 0 .4-.3.4-.6 0-.7-.5-1-1.2-1.2z" id="WL_ZH_47_075_svg__path12"/><path class="WL_ZH_47_075_svg__st0" d="M348.7 360.3c0 1.1.6 1.5 1.5 1.5 2 0 2.2-2 2.2-3.2v-.4h-.5c-1.9 0-3.2.6-3.2 2.1z" id="WL_ZH_47_075_svg__path14"/><path class="WL_ZH_47_075_svg__st0" d="M392 247.3v-1.9h-.3c-.5 0-.7.2-.7.7 0 .7.4 1 1 1.2z" id="WL_ZH_47_075_svg__path16"/><path class="WL_ZH_47_075_svg__st0" id="WL_ZH_47_075_svg__polygon18" d="M207.6 250.3h26.3l11.2-46.3h-.4z"/><path class="WL_ZH_47_075_svg__st0" d="M203.9 372.7h-.7v4.4h.8c1.2 0 2.1-.8 2.1-2.2 0-1.5-.9-2.2-2.2-2.2z" id="WL_ZH_47_075_svg__path20"/><path class="WL_ZH_47_075_svg__st0" d="M322.5 356.6c0-1.7-.5-2.5-1.7-2.5s-1.9 1.1-1.9 2.8h3.7v-.3z" id="WL_ZH_47_075_svg__path22"/><path class="WL_ZH_47_075_svg__st0" id="WL_ZH_47_075_svg__polygon24" d="M242.3 182.1h-52.2V243z"/><path class="WL_ZH_47_075_svg__st0" d="M215.1 382.2c0 1.1.6 1.5 1.5 1.5 2 0 2.2-2 2.2-3.2v-.4h-.5c-1.9 0-3.2.6-3.2 2.1z" id="WL_ZH_47_075_svg__path26"/><path class="WL_ZH_47_075_svg__st0" d="M244.5 376.3c-1.5 0-1.7 1.8-1.7 3.6s.2 3.6 1.7 3.6 1.7-1.8 1.7-3.6-.2-3.6-1.7-3.6z" id="WL_ZH_47_075_svg__path28"/><path class="WL_ZH_47_075_svg__st0" d="M299.5 382.2c0 1.1.6 1.5 1.5 1.5 2 0 2.2-2 2.2-3.2v-.4h-.5c-2 0-3.2.6-3.2 2.1z" id="WL_ZH_47_075_svg__path30"/><path class="WL_ZH_47_075_svg__st0" d="M392.8 252.3c.4 0 1-.1 1-.7 0-.8-.9-1.3-1.7-1.3-.5 0-1 .2-1 .8 0 .8 1 1.2 1.7 1.2z" id="WL_ZH_47_075_svg__path32"/><path class="WL_ZH_47_075_svg__st0" d="M378.1 354.4c-1.3 0-1.7 1.4-1.7 3.5s.4 3.5 1.7 3.5c1.1 0 1.7-1.4 1.7-3.5-.1-2-.7-3.5-1.7-3.5z" id="WL_ZH_47_075_svg__path34"/><path class="WL_ZH_47_075_svg__st0" d="M373.6 206.2 318 291h-33.3l59.3-88.8h-49l4.2-20.1h-24.1l-14.9 68.3h15.4l-3.9 19.8H256l-4.6 20.9H224l4.4-20.9h-38.3v124.6h212.6V182.1h-23.9ZM217.7 346.7h3v3.2h-3zm-4.3 0h3v3.2h-3zm-15.3 13.8 6.4-9.6h-6.3v-3.3h11.2v3.6l-6.6 9.8h6.7v3.3h-11.4zm7.2 19.8h-1.9v5.8h-4.5v-16.7h5.5c3.5 0 6.1 1.3 6.1 5.5.1 3.4-2.1 5.4-5.2 5.4zm13.6 5.8c0-.6-.1-1.1-.1-1.7-1.2 1.4-2.2 2-3.7 2-2.2 0-3.8-1.6-3.8-4 0-2.8 2.1-4.2 6.4-4.2h1.1v-.4c0-.8-.6-1.7-2.3-1.7-1.3 0-2.7.6-3.6 1.2l-.1-3.1c1-.4 2.6-.8 4.7-.8 4.4 0 5.2 2.1 5.2 4.6v5.4c0 1 .1 2 .1 2.7zm-.1-21.8c-.1-.5-.1-1.4-.1-2.1-.2.7-1.1 2.4-3.5 2.4-2.1 0-3.8-1.3-3.8-4v-8.7h4.3v7.5c0 1.2.4 1.8 1.2 1.8 1.2 0 1.5-1.1 1.5-2.1v-7.2h4.3v10.4c0 .9.1 1.7.1 2.1h-4zm16.2-17.9h4.3v3.6H235Zm0 5.4h4.3v12.4H235Zm-6 0c.1.5.1 1.4.1 2.1.4-1 1.1-2.4 3.2-2.4.3 0 .5 0 .7.1v3.7c-.2-.1-.8-.1-1.3-.1-1.4 0-2.3 1.2-2.3 2.9v6.2h-4.3v-8.8c0-1.8-.1-3-.1-3.6h4zm7.3 34.3H232v-7.5c0-1.2-.4-1.8-1.2-1.8-1.1 0-1.6 1.1-1.6 2.4v6.8H225v-9.9c0-.9-.1-2-.1-2.5h4c.1.5.1 1.4.1 2.1.2-.7 1.1-2.4 3.5-2.4 2.1 0 3.8 1.3 3.8 4zm8.2.3c-4.5 0-6.2-3.1-6.2-6.5s1.6-6.5 6.2-6.5c4.5 0 6.2 3.1 6.2 6.5s-1.6 6.5-6.2 6.5zm3.3-21.9c-4.5 0-6.2-3.1-6.2-6.5s1.6-6.5 6.2-6.5c1.8 0 2.8.4 3.3.6l-.2 3.1c-.5-.2-1.2-.5-2.1-.5-1.6 0-2.8 1-2.8 3.3 0 1.9.6 3.3 2.7 3.3 1.1 0 2.1-.4 2.4-.5l.1 3.1c-.6.3-2.4.6-3.4.6zm70.3-29.3v-44.3H356v44.3zm24.6 11.2v17.9h-4.3v-17.9zm-22 5.1c3.9 0 5.7 3.1 5.7 6.5v1.2H319c.1 2 1.5 2.6 3.1 2.6 1.2 0 2.6-.5 3.6-1l.1 3c-1 .3-2.6.7-4.3.7-5 0-6.5-3.4-6.5-6.6 0-3.3 2-6.4 5.7-6.4zm-15.3 0c1.9 0 2.8 1.1 3.4 2.3 0-.6.1-1.4.2-2h4c-.1.7-.1 1.7-.1 2.9v8c0 4.4-1.9 6.9-6.8 6.9-1.9 0-4-.5-4.7-.8l.1-3.4c.8.5 2 1.1 3.8 1.1 2.5 0 3.4-1.4 3.4-3.7v-.9c-.6 1.6-1.8 2.5-3.3 2.5-3.4 0-4.7-2.7-4.7-6.6.1-3.4 1.7-6.3 4.7-6.3zm-39 4.2h6.2v3.3h-6.2zm-13.5-9.3h4.3v5.5c0 .5 0 1.1-.1 1.5h.1c.7-1.3 1.8-1.9 3.3-1.9 2.1 0 3.8 1.3 3.8 4v8.7H260v-7.5c0-1.2-.4-1.8-1.2-1.8-1.1 0-1.6 1.1-1.6 2.4v6.8h-4.3zm7.8 30.8c-.2-.1-.8-.1-1.3-.1-1.4 0-2.3 1.2-2.3 2.9v6.2h-4.3v-8.8c0-1.8-.1-3-.1-3.6h4c.1.5.1 1.4.1 2.1.4-1 1.1-2.4 3.2-2.4.3 0 .5 0 .7.1zm8.6 8.9c0-.6-.1-1.1-.1-1.7-1.2 1.4-2.2 2-3.7 2-2.2 0-3.8-1.6-3.8-4 0-2.8 2.1-4.2 6.4-4.2h1.1v-.4c0-.8-.6-1.7-2.3-1.7-1.3 0-2.7.6-3.6 1.2l-.1-3.1c1-.4 2.6-.8 4.7-.8 4.4 0 5.2 2.1 5.2 4.6v5.4c0 1 .1 2 .1 2.7zm4.8-25.6 6.4-9.6h-6.3v-3.3h11.2v3.6l-6.6 9.8h6.7v3.3h-11.4zm19.6 25.6h-4.3v-7.5c0-1.2-.4-1.8-1.2-1.8-1.2 0-1.5 1.1-1.5 2.1v7.2h-4.3v-7.5c0-1.2-.4-1.8-1.2-1.8-1.1 0-1.6 1.1-1.6 2.4v6.8h-4.3v-9.8c0-1.2-.1-2.3-.1-2.7h4c.1.5.1 1.4.1 2.1.2-.7 1.1-2.4 3.5-2.4 1.3 0 2.6.4 3.4 2.1.8-1.3 2-2.1 3.7-2.1 2 0 3.7 1.1 3.7 3.8v9.1zm1.1-23.9c-.3.7-1.1 2.4-3.6 2.4-2.1 0-3.8-1.3-3.8-4v-8.7h4.3v7.5c0 1.2.4 1.8 1.2 1.8 1.2 0 1.5-1.1 1.5-2.1v-7.2h4.3v10.4c0 .9.1 1.7.1 2.1h-4v-2.2zm8.5 23.9c0-.6-.1-1.1-.1-1.7-1.2 1.4-2.2 2-3.7 2-2.2 0-3.8-1.6-3.8-4 0-2.8 2.1-4.2 6.4-4.2h1.1v-.4c0-.8-.6-1.7-2.3-1.7-1.3 0-2.7.6-3.6 1.2l-.1-3.1c1-.4 2.6-.8 4.7-.8 4.4 0 5.2 2.1 5.2 4.6v5.4c0 1 .1 2 .1 2.7zm21.3 0H320l-1.7-8.9-1.8 8.9h-4.7l-3.3-12.4h4.4l1.6 8.6 1.6-8.6h4.9l1.5 8.6 1.5-8.6h4.1zm3.8-34.3h4c.1.5.1 1.4.1 2.1.4-1 1.1-2.4 3.2-2.4.3 0 .5 0 .7.1v3.7c-.2-.1-.8-.1-1.3-.1-1.4 0-2.3 1.2-2.3 2.9v6.2h-4.3v-8.8c0-1.8 0-3.1-.1-3.7zm12 29.3h-7.5c.1 2 1.5 2.6 3.1 2.6 1.2 0 2.6-.5 3.6-1l.1 3c-1 .3-2.6.7-4.3.7-5 0-6.5-3.4-6.5-6.6 0-3.4 2-6.4 5.8-6.4 3.9 0 5.7 3.1 5.7 6.5zm13.9-4.5v8c0 4.4-1.9 6.9-6.8 6.9-1.9 0-4-.5-4.7-.8l.1-3.4c.8.5 2 1.1 3.8 1.1 2.5 0 3.4-1.4 3.4-3.7v-.9c-.6 1.6-1.8 2.5-3.3 2.5-3.4 0-4.7-2.7-4.7-6.6 0-3.2 1.7-6.1 4.6-6.1 1.9 0 2.8 1.1 3.4 2.3 0-.6.1-1.4.2-2h4v2.7zm-1.8-12.3c0-.6-.1-1.1-.1-1.7-1.2 1.4-2.2 2-3.7 2-2.2 0-3.8-1.6-3.8-4 0-2.8 2.1-4.2 6.4-4.2h1.1v-.4c0-.8-.6-1.7-2.3-1.7-1.3 0-2.7.6-3.6 1.2l-.1-3.1c1-.4 2.6-.8 4.7-.8 4.4 0 5.2 2.1 5.2 4.6v5.4c0 1 .1 2 .1 2.7zm17.4 0h-4.3v-7.5c0-1.2-.4-1.8-1.2-1.8-1.1 0-1.6 1.1-1.6 2.4v6.8h-4.3v-9.9c0-.9-.1-2-.1-2.5h4c.1.5.1 1.4.1 2.1.2-.7 1.1-2.4 3.5-2.4 2.1 0 3.8 1.3 3.8 4v8.8zm24.6-97.6-4.6.1 4.6 2v1.4l-5.7.4v-1.1l4.4-.2-4.4-1.9v-1.5h4.4l-4.4-2v-1.2l5.7 2.7zm-1.1-3.5c-1.4 0-1.5-1.6-1.5-2.6v-.4h-.4c-.4 0-.5.5-.5.8 0 .5.1 1 .3 1.4l-.9-.2c-.2-.5-.3-.9-.3-1.4 0-.8.3-1.6 1.3-1.6.6 0 2.2.4 3 .5v.9l-.6-.1c.5.4.7.8.7 1.4.1.7-.3 1.3-1.1 1.3zm-1-6.1 2.1.5v1.1l-3.6-.8c-.3 0-.5-.1-.6-.1v-1.1l.4.1c-.3-.3-.5-.7-.5-1.2 0-.8.5-1.4 1.4-1.4.3 0 .7.1.9.1l2 .4v1.1l-2-.4c-.3-.1-.6-.1-.9-.1-.4 0-.6.2-.6.6.1.8.8 1 1.4 1.2zm.2-14.6 1.9.4v1.1l-3.7-.8c-.2 0-.4-.1-.6-.1v-1l.8.1c-.5-.2-.9-.7-.9-1.2v-.4l1.1.2c0 .1-.1.3-.1.4.2.8.9 1.2 1.5 1.3zm-.8 1.9c.3 0 .6 0 .9.1v3c.8 0 1.1-.4 1.1-1.2 0-.5-.1-.9-.3-1.3l.9.1c.1.4.2.9.2 1.3 0 1.2-.6 2-1.8 2-1.3 0-2.6-1-2.6-2.4 0-.9.5-1.6 1.6-1.6zm1.6-5.8c-1.4 0-1.5-1.6-1.5-2.6v-.4h-.4c-.4 0-.5.5-.5.8 0 .5.1 1 .3 1.4l-.9-.2c-.2-.5-.3-.9-.3-1.4 0-.8.3-1.6 1.3-1.6.6 0 2.2.4 3 .5v.9l-.6-.1c.5.4.7.8.7 1.4.1.7-.3 1.3-1.1 1.3zm-1-6.1 2.1.5v1.1l-3.6-.8c-.3 0-.5-.1-.6-.1v-1.1l.4.1c-.3-.3-.5-.7-.5-1.2 0-.8.5-1.4 1.4-1.4.3 0 .7.1.9.1l2 .4v1.1l-2-.4c-.3-.1-.6-.1-.9-.1-.4 0-.6.2-.6.6.1.7.8 1 1.4 1.2zm.4-13.5c-1 0-.9 2-2.4 2-1.2 0-1.7-1-1.7-2.1 0-.5.1-1 .3-1.5l.9.3c-.2.3-.3.8-.3 1.2 0 .4.2 1 .7 1 .9 0 .9-2 2.5-2 1.4 0 1.9 1.1 1.9 2.4 0 .5-.1 1.1-.3 1.6l-1-.3c.2-.4.4-.9.4-1.4-.1-.6-.3-1.2-1-1.2zm0-2c-1.5 0-2.6-1-2.6-2.5 0-.4.1-.8.2-1.1l.9.3c-.1.2-.2.5-.2.8 0 .9.8 1.4 1.6 1.4.5 0 1.1-.2 1.1-.9 0-.3-.1-.6-.2-.9l.9.1c.2.3.2.7.2 1.1-.1 1-.8 1.7-1.9 1.7zm-2.5-11.8V204l3.2-.2-3.2-1.6V201l4.2 2.3v1.2l-3.2.2 3.2 1.5v1.2l-4.2.6v-1l3.2-.3zm0-14.9.9.2 2.5 2.6V191l.9.2v3.5l-.9-.2-2.5-2.6v1.9l-.9-.2zm0 4.4 4.2.9v1.1l-4.2-.9zm1.5 2.3c.3 0 .6 0 .9.1v3c.8 0 1.1-.4 1.1-1.2 0-.5-.1-.9-.3-1.3l.9.1c.1.4.2.9.2 1.3 0 1.2-.6 2-1.8 2-1.3 0-2.6-1-2.6-2.4 0-.9.5-1.6 1.6-1.6zm-3.3-2.7 1 .2v1.1l-1-.2zm-.1 16.8 2.3.5c-.3-.3-.5-.7-.5-1.2 0-.8.5-1.4 1.4-1.4.3 0 .7.1.9.1l2 .4v1.1l-2-.4c-.3-.1-.6-.1-.9-.1-.4 0-.6.2-.6.6 0 .8.7 1 1.3 1.2l2.1.5v1.1l-6.2-1.3v-1.1zm0 12.7 5.2 1.1c.4.1.7.1.9.2v1l-.6-.1c.5.3.7.7.7 1.4 0 1-.8 1.5-1.8 1.5-1.3 0-2.7-.7-2.7-2.1 0-.5.2-1 .6-1.3l-2.4-.5v-1.2zm0 14.6 6.2 1.3v1.1l-6.2-1.3zm0 10 5.2 1.1c.4.1.7.1.9.2v1l-.6-.1c.5.3.7.7.7 1.4 0 1-.8 1.5-1.8 1.5-1.3 0-2.7-.7-2.7-2.1 0-.5.2-1 .6-1.3l-2.4-.5v-1.2zm-8.7 98h4.3v15.7c0 .7 0 1.5.1 2.2H380c0-.7-.1-1.3-.1-2-.9 1.7-2 2.2-3.3 2.2-3.3 0-4.7-2.9-4.7-6.7 0-2.9 1.3-6.2 4.4-6.2 1.6 0 2.6.7 3.4 2.1 0-.5-.1-1.3-.1-2.2v-5.1z" id="WL_ZH_47_075_svg__path36"/><path class="WL_ZH_47_075_svg__st0" d="M392 199.9V198h-.3c-.5 0-.7.2-.7.7 0 .7.4 1 1 1.2z" id="WL_ZH_47_075_svg__path38"/><path class="WL_ZH_47_075_svg__st0" d="M392.8 227.7c.4 0 1-.1 1-.7 0-.8-.9-1.3-1.7-1.3-.5 0-1 .2-1 .8 0 .8 1 1.2 1.7 1.2z" id="WL_ZH_47_075_svg__path40"/><path class="WL_ZH_47_075_svg__st0" d="M392.6 235.7v.4c0 .5.1 1.4.8 1.4.3 0 .4-.3.4-.6 0-.8-.5-1-1.2-1.2z" id="WL_ZH_47_075_svg__path42"/><path class="WL_ZH_47_075_svg__st1" d="M224 291h27.5l4.6-20.9h15.7l3.9-19.8h-15.4l14.9-68.3h-32.8l-52.2 61v27.1h38.3zm-16.4-40.7 37.2-46.3h.3L234 250.3Z" id="WL_ZH_47_075_svg__path44"/><path class="WL_ZH_47_075_svg__st1" id="WL_ZH_47_075_svg__polygon46" d="m318 291 55.6-84.8 5.2-24.1h-79.5l-4.2 20.1h49L284.8 291z"/><path id="WL_ZH_47_075_svg__polygon48" d="M209.5 351.2v-3.6h-11.3v3.3h6.3l-6.4 9.6v3.8h11.4V361h-6.7z"/><path d="M222.7 351.8h-4.3v7.2c0 .9-.3 2.1-1.5 2.1-.9 0-1.2-.6-1.2-1.8v-7.5h-4.3v8.7c0 2.7 1.6 4 3.8 4 2.4 0 3.3-1.7 3.5-2.4 0 .7 0 1.6.1 2.1h4c-.1-.3-.1-1.1-.1-2.1z" id="WL_ZH_47_075_svg__path50"/><path id="WL_ZH_47_075_svg__rect52" d="M217.7 346.7h3v3.2h-3z"/><path id="WL_ZH_47_075_svg__rect54" d="M213.4 346.7h3v3.2h-3z"/><path d="M225.1 364.3h4.3v-6.2c0-1.6 1-2.9 2.3-2.9.5 0 1.1.1 1.3.1v-3.7c-.3 0-.4-.1-.7-.1-2.1 0-2.8 1.4-3.2 2.4 0-.7 0-1.6-.1-2.1h-4c.1.6.1 1.8.1 3.6z" id="WL_ZH_47_075_svg__path56"/><path id="WL_ZH_47_075_svg__rect58" d="M235 346.4h4.3v3.6H235z"/><path id="WL_ZH_47_075_svg__rect60" d="M235 351.8h4.3v12.4H235z"/><path d="M248.7 361.3c-2.1 0-2.7-1.4-2.7-3.3 0-2.3 1.2-3.3 2.8-3.3.9 0 1.6.3 2.1.5l.2-3.1c-.5-.2-1.5-.6-3.3-.6-4.5 0-6.2 3.1-6.2 6.5s1.6 6.5 6.2 6.5c1 0 2.8-.3 3.5-.6l-.1-3.1c-.4.1-1.4.5-2.5.5z" id="WL_ZH_47_075_svg__path62"/><path d="M257.2 357.4c0-1.3.5-2.4 1.6-2.4.8 0 1.2.6 1.2 1.8v7.5h4.3v-8.7c0-2.7-1.6-4-3.8-4-1.5 0-2.6.6-3.3 1.9h-.1c0-.5.1-1 .1-1.5v-5.5h-4.3v17.9h4.3z" id="WL_ZH_47_075_svg__path64"/><path id="WL_ZH_47_075_svg__rect66" d="M266.4 355.7h6.2v3.3h-6.2z"/><path id="WL_ZH_47_075_svg__polygon68" d="M285.5 351.2v-3.6h-11.2v3.3h6.2l-6.4 9.6v3.8h11.4V361h-6.6z"/><path d="M298.7 362.2v-10.4h-4.3v7.2c0 .9-.3 2.1-1.5 2.1-.9 0-1.2-.6-1.2-1.8v-7.5h-4.3v8.7c0 2.7 1.6 4 3.8 4 2.4 0 3.3-1.7 3.5-2.4 0 .7 0 1.6.1 2.1h4c0-.3-.1-1.1-.1-2z" id="WL_ZH_47_075_svg__path70"/><path d="M305.5 364.3c1.5 0 2.7-.9 3.3-2.5v.9c0 2.3-.9 3.7-3.4 3.7-1.8 0-3.1-.7-3.8-1.1l-.1 3.4c.6.3 2.8.8 4.7.8 4.9 0 6.8-2.5 6.8-6.9v-8c0-1.2.1-2.2.1-2.9h-4c-.1.6-.2 1.4-.2 2-.5-1.2-1.5-2.3-3.4-2.3-2.9 0-4.6 2.9-4.6 6.1-.1 4 1.2 6.8 4.6 6.8zm1.3-9.7c1.2 0 1.8 1.2 1.8 3.3 0 2-.2 3.4-1.7 3.4-1.4 0-1.7-1.4-1.7-3.6 0-1.7.4-3.1 1.6-3.1z" id="WL_ZH_47_075_svg__path72"/><path d="M321.4 364.5c1.7 0 3.3-.4 4.3-.7l-.1-3c-1.1.5-2.5 1-3.6 1-1.6 0-3-.6-3.1-2.6h7.5V358c0-3.4-1.8-6.5-5.7-6.5-3.7 0-5.8 3-5.8 6.4.1 3.3 1.5 6.7 6.5 6.6zm-.6-10.3c1.3 0 1.7.8 1.7 2.5v.4h-3.7c.1-1.8.8-2.9 2-2.9z" id="WL_ZH_47_075_svg__path74"/><path d="M332.8 364.3v-6.2c0-1.6 1-2.9 2.3-2.9.5 0 1.1.1 1.3.1v-3.7c-.3 0-.4-.1-.7-.1-2.1 0-2.8 1.4-3.2 2.4 0-.7 0-1.6-.1-2.1h-4c.1.6.1 1.8.1 3.6v8.8h4.3z" id="WL_ZH_47_075_svg__path76"/><path id="WL_ZH_47_075_svg__rect78" d="M338.4 346.4h4.3v17.9h-4.3z"/><path d="M356.2 356.1c0-2.6-.9-4.6-5.2-4.6-2.1 0-3.6.4-4.7.8l.1 3.1c.9-.6 2.2-1.2 3.6-1.2 1.7 0 2.3.9 2.3 1.7v.4h-1.1c-4.3 0-6.4 1.5-6.4 4.2 0 2.4 1.6 4 3.8 4 1.5 0 2.5-.6 3.7-2 0 .6.1 1.1.1 1.7h3.8c-.1-.7-.1-1.7-.1-2.7v-5.4zm-3.8 2.6c0 1.2-.2 3.2-2.2 3.2-.9 0-1.5-.4-1.5-1.5 0-1.5 1.3-2.1 3.2-2.1h.5z" id="WL_ZH_47_075_svg__path80"/><path d="M366.1 351.5c-2.4 0-3.3 1.7-3.5 2.4 0-.7 0-1.6-.1-2.1h-4c.1.6.1 1.6.1 2.5v9.9h4.3v-6.8c0-1.3.5-2.4 1.6-2.4.8 0 1.2.6 1.2 1.8v7.5h4.3v-8.7c-.1-2.8-1.7-4.1-3.9-4.1z" id="WL_ZH_47_075_svg__path82"/><path d="M379.8 353.6c-.9-1.4-1.8-2.1-3.4-2.1-3.1 0-4.4 3.3-4.4 6.2 0 3.8 1.4 6.7 4.7 6.7 1.3 0 2.4-.5 3.3-2.2 0 .7.1 1.3.1 2h4.1c0-.7-.1-1.5-.1-2.2v-15.7h-4.3v5.1c-.1.9 0 1.7 0 2.2zm-1.7 7.8c-1.3 0-1.7-1.4-1.7-3.5s.4-3.5 1.7-3.5c1.1 0 1.7 1.4 1.7 3.5-.1 2.1-.7 3.5-1.7 3.5z" id="WL_ZH_47_075_svg__path84"/><path d="M204.4 369.5h-5.5v16.7h4.5v-5.8h1.9c3.2 0 5.3-2 5.3-5.3 0-4.3-2.7-5.6-6.2-5.6zm-.4 7.6h-.8v-4.4h.7c1.4 0 2.2.7 2.2 2.3 0 1.3-.9 2.1-2.1 2.1z" id="WL_ZH_47_075_svg__path86"/><path d="M222.6 378c0-2.6-.9-4.6-5.2-4.6-2.1 0-3.6.4-4.7.8l.1 3.1c.9-.6 2.2-1.2 3.6-1.2 1.7 0 2.3.9 2.3 1.7v.4h-1.1c-4.3 0-6.4 1.5-6.4 4.2 0 2.4 1.6 4 3.8 4 1.5 0 2.5-.6 3.7-2 0 .6.1 1.1.1 1.7h3.8c-.1-.7-.1-1.7-.1-2.7V378Zm-3.8 2.5c0 1.2-.2 3.2-2.2 3.2-.9 0-1.5-.4-1.5-1.5 0-1.5 1.3-2.1 3.2-2.1h.5z" id="WL_ZH_47_075_svg__path88"/><path d="M232.5 373.4c-2.4 0-3.3 1.7-3.5 2.4 0-.7 0-1.6-.1-2.1h-4c.1.6.1 1.6.1 2.5v9.9h4.3v-6.8c0-1.3.5-2.4 1.6-2.4.8 0 1.2.6 1.2 1.8v7.5h4.3v-8.7c-.1-2.8-1.8-4.1-3.9-4.1z" id="WL_ZH_47_075_svg__path90"/><path d="M244.5 373.4c-4.5 0-6.2 3.1-6.2 6.5s1.6 6.5 6.2 6.5c4.5 0 6.2-3.1 6.2-6.5s-1.6-6.5-6.2-6.5zm0 10.1c-1.5 0-1.7-1.8-1.7-3.6s.2-3.6 1.7-3.6 1.7 1.8 1.7 3.6-.2 3.6-1.7 3.6z" id="WL_ZH_47_075_svg__path92"/><path d="M256.8 375.8c0-.7-.1-1.6-.1-2.1h-4c.1.6.1 1.8.1 3.6v8.8h4.3v-6.2c0-1.6 1-2.9 2.3-2.9.5 0 1.1.1 1.3.1v-3.7c-.3 0-.4-.1-.7-.1-2 .1-2.8 1.5-3.2 2.5z" id="WL_ZH_47_075_svg__path94"/><path d="M273 378c0-2.6-.9-4.6-5.2-4.6-2.1 0-3.6.4-4.7.8l.1 3.1c.9-.6 2.2-1.2 3.6-1.2 1.7 0 2.3.9 2.3 1.7v.4H268c-4.3 0-6.4 1.5-6.4 4.2 0 2.4 1.6 4 3.8 4 1.5 0 2.5-.6 3.7-2 0 .6.1 1.1.1 1.7h3.8c-.1-.7-.1-1.7-.1-2.7V378Zm-3.8 2.5c0 1.2-.2 3.2-2.2 3.2-.9 0-1.5-.4-1.5-1.5 0-1.5 1.3-2.1 3.2-2.1h.5z" id="WL_ZH_47_075_svg__path96"/><path d="M290 373.4c-1.8 0-2.9.8-3.7 2.1-.8-1.7-2.1-2.1-3.4-2.1-2.4 0-3.3 1.7-3.5 2.4 0-.7 0-1.6-.1-2.1h-4c.1.4.1 1.4.1 2.7v9.8h4.3v-6.8c0-1.3.5-2.4 1.6-2.4.8 0 1.2.6 1.2 1.8v7.5h4.3v-7.2c0-.9.3-2.1 1.5-2.1.9 0 1.2.6 1.2 1.8v7.5h4.3v-8.9c-.1-2.9-1.8-4-3.8-4z" id="WL_ZH_47_075_svg__path98"/><path d="M307 378c0-2.6-.9-4.6-5.2-4.6-2.1 0-3.6.4-4.7.8l.1 3.1c.9-.6 2.2-1.2 3.6-1.2 1.7 0 2.3.9 2.3 1.7v.4H302c-4.3 0-6.4 1.5-6.4 4.2 0 2.4 1.6 4 3.8 4 1.5 0 2.5-.6 3.7-2 0 .6.1 1.1.1 1.7h3.8c-.1-.7-.1-1.7-.1-2.7V378Zm-3.9 2.5c0 1.2-.2 3.2-2.2 3.2-.9 0-1.5-.4-1.5-1.5 0-1.5 1.3-2.1 3.2-2.1h.5z" id="WL_ZH_47_075_svg__path100"/><path id="WL_ZH_47_075_svg__polygon102" d="M320.8 373.7h-4.9l-1.6 8.6h-.1l-1.5-8.6h-4.4l3.3 12.4h4.8l1.8-8.8 1.8 8.8h4.6l3.3-12.4h-4.1l-1.5 8.6h-.1z"/><path d="M334.7 373.4c-3.7 0-5.8 3-5.8 6.4 0 3.2 1.5 6.6 6.5 6.6 1.7 0 3.3-.4 4.3-.7l-.1-3c-1.1.5-2.5 1-3.6 1-1.6 0-3-.6-3.1-2.6h7.5v-1.2c0-3.4-1.8-6.5-5.7-6.5zm1.8 5.4h-3.7c0-1.7.7-2.8 1.9-2.8 1.3 0 1.7.8 1.7 2.5v.3z" id="WL_ZH_47_075_svg__path104"/><path d="M350.2 375.7c-.6-1.2-1.6-2.3-3.4-2.3-2.9 0-4.6 2.9-4.6 6.1 0 3.9 1.3 6.6 4.7 6.6 1.5 0 2.7-.9 3.3-2.5v.9c0 2.3-.9 3.7-3.4 3.7-1.8 0-3.1-.7-3.8-1.1l-.1 3.4c.6.3 2.8.8 4.7.8 4.9 0 6.8-2.5 6.8-6.9v-8c0-1.2.1-2.2.1-2.9h-4c-.2.8-.3 1.6-.3 2.2zm-1.9 7.5c-1.4 0-1.7-1.4-1.7-3.6 0-1.8.3-3.2 1.6-3.2 1.2 0 1.8 1.2 1.8 3.3 0 2.1-.3 3.5-1.7 3.5z" id="WL_ZH_47_075_svg__path106"/><path id="WL_ZH_47_075_svg__polygon108" d="M393.2 265.7h-4.4v1.6l4.4 1.9-4.4.2v1.1l5.7-.3v-1.4l-4.5-2.1h4.5v-1.5l-5.7-2.7v1.2l4.4 2z"/><path d="m393.9 260.5.6.1v-.9c-.8-.1-2.5-.5-3-.5-1 0-1.3.8-1.3 1.6 0 .5.1 1 .3 1.4l.9.2c-.2-.4-.3-.9-.3-1.4 0-.4.1-.8.5-.8h.4v.4c0 1 .1 2.6 1.5 2.6.8 0 1.2-.5 1.2-1.3-.1-.6-.3-1-.8-1.4zm-.5 1.6c-.7 0-.8-.9-.8-1.4v-.4c.7.2 1.2.4 1.2 1.2 0 .4-.1.6-.4.6z" id="WL_ZH_47_075_svg__path110"/><path d="M391.7 255.3c.3 0 .6.1.9.1l2 .4v-1.1l-2-.4c-.3-.1-.6-.1-.9-.1-.8 0-1.4.5-1.4 1.4 0 .5.2.9.5 1.2l-.4-.1v1.1c.1 0 .4.1.6.1l3.6.8v-1.1l-2.1-.5c-.6-.1-1.3-.4-1.3-1.2-.1-.4.1-.6.5-.6z" id="WL_ZH_47_075_svg__path112"/><path d="M390.2 251.3c0 1.4 1.4 2.1 2.7 2.1.9 0 1.8-.5 1.8-1.5 0-.6-.3-1-.7-1.4l.6.1v-1c-.2 0-.6-.1-.9-.2l-5.2-1.1v1.1l2.4.5c-.5.5-.7.9-.7 1.4zm1.9-1c.8 0 1.7.5 1.7 1.3 0 .5-.6.7-1 .7-.6 0-1.7-.4-1.7-1.2 0-.5.5-.8 1-.8z" id="WL_ZH_47_075_svg__path114"/><path d="M392.8 248.5c1.3 0 1.8-.8 1.8-2 0-.5-.1-.9-.2-1.3l-.9-.1c.2.4.3.8.3 1.3 0 .8-.3 1.2-1.1 1.2v-3c-.3-.1-.6-.1-.9-.1-1.1 0-1.6.7-1.6 1.7 0 1.3 1.3 2.3 2.6 2.3zm-1.1-3.1h.3v1.9c-.6-.2-1-.5-1-1.2 0-.4.3-.7.7-.7z" id="WL_ZH_47_075_svg__path116"/><path d="M390.3 240.6v.4c0 .5.4 1 .9 1.2l-.8-.1v1c.2 0 .4.1.6.1l3.7.8v-1.1l-1.9-.4c-.7-.1-1.4-.5-1.4-1.3 0-.1 0-.3.1-.4z" id="WL_ZH_47_075_svg__path118"/><path id="WL_ZH_47_075_svg__polygon120" d="m388.4 239.5 6.1 1.4v-1.1l-6.1-1.4z"/><path d="m393.9 235.9.6.1v-.9c-.8-.1-2.5-.5-3-.5-1 0-1.3.8-1.3 1.6 0 .5.1 1 .3 1.4l.9.2c-.2-.4-.3-.9-.3-1.4 0-.4.1-.8.5-.8h.4v.4c0 1 .1 2.6 1.5 2.6.8 0 1.2-.5 1.2-1.3-.1-.6-.3-1-.8-1.4zm-.5 1.6c-.7 0-.8-.9-.8-1.4v-.4c.7.2 1.2.4 1.2 1.2 0 .3-.1.6-.4.6z" id="WL_ZH_47_075_svg__path122"/><path d="M391.7 230.7c.3 0 .6.1.9.1l2 .4v-1.1l-2-.4c-.3-.1-.6-.1-.9-.1-.8 0-1.4.5-1.4 1.4 0 .5.2.9.5 1.2l-.4-.1v1.1c.1 0 .4.1.6.1l3.6.8V233l-2.1-.5c-.6-.1-1.3-.4-1.3-1.2-.1-.4.1-.6.5-.6z" id="WL_ZH_47_075_svg__path124"/><path d="M390.2 226.7c0 1.4 1.4 2.1 2.7 2.1.9 0 1.8-.5 1.8-1.5 0-.6-.3-1-.7-1.4l.6.1v-1c-.2 0-.6-.1-.9-.2l-5.2-1.1v1.1l2.4.5c-.5.5-.7.9-.7 1.4zm1.9-1c.8 0 1.7.5 1.7 1.3 0 .5-.6.7-1 .7-.6 0-1.7-.4-1.7-1.2 0-.5.5-.8 1-.8z" id="WL_ZH_47_075_svg__path126"/><path d="M394.3 221.8c.2-.5.3-1.1.3-1.6 0-1.3-.5-2.4-1.9-2.4-1.6 0-1.5 2-2.5 2-.5 0-.7-.5-.7-1 0-.4.1-.9.3-1.2l-.9-.3c-.2.5-.3 1-.3 1.5 0 1.1.5 2.1 1.7 2.1 1.5 0 1.4-2 2.4-2 .6 0 .9.5.9 1.1 0 .5-.2 1-.4 1.4z" id="WL_ZH_47_075_svg__path128"/><path d="M393.6 214c.1.3.2.6.2.9 0 .8-.5.9-1.1.9-.8 0-1.6-.5-1.6-1.4 0-.3.1-.6.2-.8l-.9-.3c-.1.3-.2.7-.2 1.1 0 1.5 1.1 2.5 2.6 2.5 1.1 0 1.8-.7 1.8-1.8 0-.4 0-.7-.2-1.1z" id="WL_ZH_47_075_svg__path130"/><path d="m394.5 212.4-2.1-.5c-.6-.1-1.3-.4-1.3-1.2 0-.4.2-.6.6-.6.3 0 .6.1.9.1l2 .4v-1.1l-2-.4c-.3-.1-.6-.1-.9-.1-.8 0-1.4.5-1.4 1.4 0 .5.2.9.5 1.2l-2.3-.5v1.1l6.2 1.3v-1.1z" id="WL_ZH_47_075_svg__path132"/><path id="WL_ZH_47_075_svg__polygon134" d="M394.5 207.6v-1.3l-3.2-1.5 3.2-.3v-1.2l-4.2-2.3v1.1l3.2 1.6-3.2.2v1.3l3.2 1.5-3.2.3v1.1z"/><path d="M392.8 201.1c1.3 0 1.8-.8 1.8-2 0-.5-.1-.9-.2-1.3l-.9-.1c.2.4.3.8.3 1.3 0 .8-.3 1.2-1.1 1.2v-3c-.3-.1-.6-.1-.9-.1-1.1 0-1.6.7-1.6 1.7 0 1.3 1.3 2.3 2.6 2.3zm-1.1-3.1h.3v1.9c-.6-.2-1-.5-1-1.2 0-.4.3-.7.7-.7z" id="WL_ZH_47_075_svg__path136"/><path id="WL_ZH_47_075_svg__polygon138" d="m390.3 195.8 4.2.9v-1.1l-4.2-.9z"/><path id="WL_ZH_47_075_svg__polygon140" d="m388.5 195.4 1 .2v-1.1l-1-.2z"/><path id="WL_ZH_47_075_svg__polygon142" d="M394.5 194.7v-3.6l-.8-.1v2.1l-2.5-2.6-.9-.2v3.4l.9.1v-1.9l2.5 2.6z"/><path class="WL_ZH_47_075_svg__st1" id="WL_ZH_47_075_svg__polygon144" d="m318.1 290.9 37.8 44.3v-44.3z"/><path id="WL_ZH_47_075_svg__polygon146" style="fill:#00569a" d="M318.1 335.2h37.8l-37.8-44.3z"/></g></svg>