<svg xmlns="http://www.w3.org/2000/svg" viewBox="0 0 512 512"><path d="M 196.381 17.910 C 191.761 20.726, 191 24.291, 191 43.112 C 191 62.629, 189.750 67.594, 182.868 75.413 C 176.948 82.138, 172.944 84.046, 148 92.026 C 135.625 95.985, 122.295 100.693, 118.378 102.488 C 91.491 114.809, 72.255 140.490, 67.972 169.782 C 65.940 183.675, 67.052 215.528, 69.775 221.433 L 72.049 226.365 68.635 229.933 C 66.757 231.895, 64.506 234.921, 63.632 236.658 C 62.085 239.734, 46.859 290.334, 44.970 298.679 C 43.051 307.152, 36 353.380, 36 357.486 C 36 365.643, 43.721 370.815, 51.220 367.681 C 57.061 365.241, 57.649 363.424, 62.550 332.677 C 68.078 297.992, 81.454 248.643, 86.518 244.250 C 89.572 241.600, 93.928 241.358, 100 243.500 C 112.541 247.925, 122.166 238.957, 116.544 228.085 C 114.948 224.999, 111.946 223.365, 101.778 220.048 C 90.371 216.327, 89.997 215.487, 90.017 193.673 C 90.046 164.010, 94.281 151.526, 109.416 136.498 C 119.912 126.077, 124.412 123.827, 153.500 114.460 C 181.677 105.385, 189.011 101.878, 197.444 93.444 C 210.438 80.450, 213.963 69.413, 213.985 41.650 L 214 22.800 210.600 19.400 C 206.579 15.379, 201.417 14.838, 196.381 17.910 M 301.400 19.400 L 298 22.800 298 42.006 C 298 69.446, 301.525 80.414, 314.520 93.409 C 322.885 101.774, 328.558 104.493, 357.500 114.011 C 387.900 124.008, 392.129 126.117, 402.584 136.498 C 417.719 151.526, 421.954 164.010, 421.983 193.673 C 422.003 215.487, 421.629 216.327, 410.222 220.048 C 396.708 224.456, 394 226.878, 394 234.550 C 394 237.368, 394.775 238.975, 397.400 241.600 C 401.289 245.489, 404.995 245.971, 412 243.500 C 418.072 241.358, 422.428 241.600, 425.482 244.250 C 430.546 248.643, 443.922 297.992, 449.450 332.677 C 454.351 363.424, 454.939 365.241, 460.780 367.681 C 468.279 370.815, 476 365.643, 476 357.486 C 476 353.380, 468.949 307.152, 467.030 298.679 C 465.141 290.334, 449.915 239.734, 448.368 236.658 C 447.494 234.921, 445.243 231.895, 443.365 229.933 L 439.951 226.365 442.225 221.433 C 445.932 213.395, 445.559 171.441, 441.669 158.703 C 433.944 133.415, 418.471 114.829, 395.500 103.249 C 392.200 101.585, 378.700 96.753, 365.500 92.510 C 338.945 83.975, 335.062 82.149, 329.132 75.413 C 322.234 67.576, 321 62.648, 321 42.930 C 321 23.862, 320.143 20.159, 315.128 17.566 C 309.959 14.893, 305.282 15.518, 301.400 19.400 M 206.522 99.278 C 202.564 103.236, 201.858 107.892, 204.456 112.915 C 205.861 115.632, 211.277 119, 214.241 119 C 221.117 119, 236.168 131.757, 240.527 141.278 C 244.763 150.531, 244.959 155.802, 244.980 260.850 L 245 361.200 248.400 364.600 C 253.223 369.423, 258.777 369.423, 263.600 364.600 L 267 361.200 267.020 260.850 C 267.041 155.802, 267.237 150.531, 271.473 141.278 C 275.832 131.757, 290.883 119, 297.759 119 C 300.723 119, 306.139 115.632, 307.544 112.915 C 311.962 104.372, 306.122 95.370, 296.728 96.241 C 285.284 97.302, 268.383 106.827, 260.725 116.533 C 258.401 119.478, 256.275 121.888, 256 121.888 C 255.725 121.888, 253.599 119.478, 251.275 116.533 C 243.617 106.827, 226.716 97.302, 215.272 96.241 C 210.343 95.784, 209.842 95.958, 206.522 99.278 M 147.230 219.551 C 143.647 222.061, 143.250 223.354, 132.383 267.890 C 120.783 315.431, 121.748 312.812, 103.029 347.500 C 90.985 369.817, 89.958 373.683, 94.669 378.956 C 96.893 381.444, 98.613 382.315, 102.078 382.705 C 109.282 383.517, 111.045 381.326, 126.195 352.736 C 143.155 320.730, 142.514 322.210, 146.971 304.734 C 151.300 287.761, 150.668 286.712, 154.066 316.500 C 157.911 350.198, 155.932 372.206, 146.291 402.993 C 137.295 431.721, 137.783 428.698, 137.272 458.813 C 136.774 488.181, 137.047 490.319, 141.770 494.034 C 146.634 497.860, 155.538 495.728, 158.483 490.033 C 159.649 487.779, 160 483.490, 160 471.518 C 160 459.972, 160.324 455.815, 161.250 455.465 C 168.903 452.577, 186.163 449.711, 198.500 449.280 C 210.958 448.845, 214.097 449.100, 227 451.593 C 247.354 455.526, 264.668 455.524, 285 451.587 C 304.114 447.886, 322.040 448.246, 340 452.693 L 351.500 455.540 352 472.020 C 352.324 482.715, 352.949 489.286, 353.780 490.740 C 356.525 495.545, 365.307 497.575, 369.783 494.439 C 374.618 491.053, 375.001 488.764, 374.992 463.300 C 374.983 434.801, 374.540 431.626, 367.331 408.500 C 355.996 372.136, 353.909 351.706, 357.931 316.500 C 361.334 286.710, 360.700 287.762, 365.029 304.734 C 369.482 322.195, 368.830 320.690, 385.861 352.778 C 401.031 381.360, 402.762 383.512, 409.922 382.705 C 413.387 382.315, 415.107 381.444, 417.331 378.956 C 422.042 373.683, 421.015 369.817, 408.971 347.500 C 390.252 312.812, 391.217 315.431, 379.617 267.890 C 373.899 244.455, 368.717 224.340, 368.102 223.191 C 365.260 217.880, 356.585 216.179, 351.747 219.984 C 345.956 224.539, 345.324 227.456, 339.396 277 C 330.262 353.326, 330.829 368.138, 344.574 412.355 C 347.626 422.175, 349.874 430.459, 349.569 430.764 C 349.264 431.070, 344.398 430.235, 338.757 428.910 C 323.743 425.382, 296.467 425.400, 280.500 428.947 C 271.823 430.875, 266.650 431.391, 256 431.391 C 245.350 431.391, 240.177 430.875, 231.500 428.947 C 215.533 425.400, 188.257 425.382, 173.243 428.910 C 167.602 430.235, 162.736 431.070, 162.431 430.764 C 162.126 430.459, 164.376 422.175, 167.431 412.355 C 181.195 368.116, 181.740 353.795, 172.584 277 C 166.676 227.447, 166.048 224.543, 160.253 219.984 C 157.179 217.566, 150.387 217.340, 147.230 219.551" fill="currentColor" fill-rule="evenodd"/></svg>