<svg xmlns="http://www.w3.org/2000/svg" viewBox="0 0 512 512"><path d="M 271.784 17.404 C 269.191 18.102, 264.294 20.386, 260.902 22.480 L 254.736 26.286 242.618 22.639 C 228.085 18.265, 221.741 17.976, 214.479 21.358 C 193.562 31.098, 192.058 57.588, 211.634 71.458 L 218.750 76.500 219.163 85.549 C 219.706 97.473, 220.267 98.367, 244.347 125.653 C 265.549 149.679, 268.491 152.003, 279.500 153.425 C 288.670 154.610, 301.256 149.575, 306.825 142.496 L 308.801 139.983 313.712 142.449 C 316.414 143.806, 320.464 145.210, 322.714 145.570 L 326.804 146.224 325.318 149.782 C 320.669 160.908, 315.033 216.894, 315.007 252.204 L 315 261.908 306.750 257.988 C 272.410 241.671, 231.353 244.438, 199.139 265.240 L 193.778 268.702 183.639 258.545 C 146.905 221.746, 93.948 213.042, 47.507 236.169 C 36.940 241.432, 22.608 251.924, 20.549 255.905 C 17.406 261.984, 19.650 268.657, 25.822 271.586 C 30.661 273.882, 33.887 272.885, 42.238 266.515 C 80.442 237.369, 133.396 240.359, 166.572 273.535 C 177.150 284.113, 177.024 283.515, 170.498 292.133 C 162.034 303.311, 155.691 316.478, 156.351 321.500 C 157.091 327.131, 161.547 331, 167.293 331 C 172.973 331, 175.442 329.057, 179.139 321.678 C 202.345 275.353, 255.656 257.127, 300.320 280.248 C 314.852 287.770, 318.931 291.721, 322.544 301.772 C 326.732 313.425, 333.418 326.479, 336.196 328.425 C 340.295 331.296, 346.718 330.482, 350.600 326.600 C 355.372 321.828, 355.119 318.600, 348.965 305.716 C 340.959 288.957, 336.522 266.852, 337.680 249.500 C 343.423 163.461, 343.156 165.855, 348.233 154.839 C 349.586 151.902, 352.291 147.419, 354.244 144.875 C 360.607 136.589, 361.189 134.307, 358.423 128.478 C 355.721 122.784, 351.685 121.615, 339.505 122.999 C 327.860 124.323, 322.561 122.977, 317.819 117.491 C 310.337 108.838, 303.049 110.172, 293.964 121.859 C 287.702 129.914, 284.430 131.866, 280.250 130.043 C 276.979 128.616, 242.774 89.899, 241.881 86.613 C 240.942 83.156, 242.427 80.624, 256.497 61.690 C 271.164 41.952, 273.599 39.801, 281.956 39.197 C 287.649 38.785, 288.349 39.059, 335.113 60.027 C 392.358 85.694, 393.230 86.124, 396.366 90.236 C 399.934 94.914, 398.041 88.441, 433.066 215.733 C 468.361 344.003, 468.712 345.407, 469.644 362.104 C 470.450 376.546, 470.454 376.541, 454.749 381.444 L 443.397 384.987 422.449 400.664 C 378.601 433.476, 355.352 445.563, 317.713 455.112 C 275.089 465.926, 243.256 465.402, 185.684 452.939 C 157.533 446.845, 158.268 446.846, 146.232 452.874 C 113.608 469.211, 76.692 475.879, 40.072 472.048 C 29.593 470.952, 27.911 470.995, 25.148 472.423 C 17.364 476.449, 17.135 488.469, 24.767 492.359 C 31.859 495.973, 67.047 497.151, 87.699 494.465 C 109.685 491.606, 130.441 485.582, 149.746 476.458 L 160.993 471.142 186.246 476.530 C 220.926 483.929, 232.075 485.302, 257.500 485.302 C 301.958 485.302, 339.091 476.474, 378.500 456.536 C 398.011 446.664, 405.553 441.789, 432.500 421.622 C 452.954 406.315, 453.760 405.826, 463.500 402.822 C 479.076 398.018, 484.835 394.024, 489.828 384.563 C 492.370 379.745, 492.496 378.821, 492.421 365.500 C 492.373 357.051, 491.666 347.733, 490.638 342 C 488.107 327.881, 422.414 89.751, 419.421 83.845 C 416.167 77.423, 409.868 70.559, 403.500 66.496 C 397.723 62.810, 299.489 18.679, 293.500 17.079 C 288.209 15.666, 277.655 15.824, 271.784 17.404 M 222.200 43.200 C 219.462 45.938, 220.812 49.842, 225.750 53.465 C 231.658 57.800, 230.889 57.916, 235.287 52.026 C 240.068 45.622, 240.068 45.625, 233.015 43.664 C 225.900 41.686, 223.804 41.596, 222.200 43.200" fill="currentColor" fill-rule="evenodd"/></svg>