<svg xmlns="http://www.w3.org/2000/svg" viewBox="0 0 1024 1024"><path d="M 378.299 32.901 C 374.846 35.069, 372 39.629, 372 42.993 C 372 48.915, 386.717 89.135, 396.519 110 C 412.023 143.003, 418.786 180.073, 414.950 211.026 C 412.248 232.822, 406.608 245.518, 384.632 279.277 C 360.972 315.620, 348.924 340.653, 339.551 372.947 C 321.443 435.335, 326.926 508.178, 354.071 565.848 C 356.232 570.440, 358 574.361, 358 574.563 C 358 574.764, 360.457 579.914, 363.460 586.008 C 371.972 603.280, 373.719 611.376, 378.454 655.500 C 389.110 754.782, 388.274 806.030, 375.404 842.500 C 360.114 885.830, 358.008 894.266, 357.245 915.231 C 355.950 950.810, 371.320 976.230, 400.584 986.907 C 424.491 995.629, 453.374 995.069, 497 985.039 C 542.524 974.572, 557.550 974.511, 607 984.597 C 646.495 992.653, 651.362 993, 724.743 993 C 795.269 993, 795.423 992.986, 806.469 985.652 C 827.126 971.936, 829.977 941.962, 812.312 924.209 C 804.260 916.115, 797.020 913.176, 780.802 911.418 C 736.021 906.562, 735.091 906.225, 691.500 879.025 C 678.850 871.131, 653.875 855.904, 636 845.187 C 598.047 822.432, 594.071 819.805, 587.800 813.343 C 577.225 802.448, 574.483 790.073, 574.541 753.500 C 574.609 709.724, 581.445 665.467, 604.967 556.500 C 630.233 439.456, 635.989 401.894, 635.998 354 C 636.004 327.735, 638.764 304.309, 643.717 288.500 C 645.941 281.398, 652.803 266.185, 654.992 263.500 C 657.153 260.849, 665.026 243.609, 667.321 236.500 C 678.847 200.810, 677.781 167.561, 663.640 121.692 C 659.180 107.224, 659.180 107.272, 663.533 94.767 C 670.786 73.929, 675.021 43.808, 671.621 37.234 C 666.013 26.390, 650.094 30.070, 648.581 42.560 C 641.794 98.574, 624.360 129.309, 587.659 149.964 C 584.446 151.772, 580.934 154.657, 579.854 156.375 C 574.967 164.151, 581.067 175, 590.326 175 C 598.341 175, 619.896 160.332, 633.945 145.316 L 641.827 136.891 643.390 142.269 C 650.281 165.973, 651.533 191.500, 646.923 214.302 C 644.174 227.897, 640.351 237.785, 632.076 252.705 C 628.173 259.742, 623.747 268.986, 622.240 273.247 C 620.733 277.508, 619.275 280.991, 619 280.986 C 618.476 280.978, 605.764 258.630, 602.039 251.169 C 598.867 244.815, 596 232.585, 596 225.405 C 596 215.080, 592.118 210.013, 584.200 210.004 C 575.040 209.993, 571.605 215.344, 571.685 229.500 C 571.777 245.989, 575.357 256.034, 590.880 283.356 C 607.209 312.099, 610.464 324.716, 610.394 359 C 610.310 400.695, 603.151 447.383, 582.489 540.986 C 557.224 655.440, 548.586 710.270, 548.693 755.500 C 548.789 796.089, 553.552 813.723, 568.892 830.272 C 575.908 837.842, 584.046 843.323, 624.500 867.728 C 645.400 880.337, 670.825 895.813, 681 902.120 C 727.316 930.829, 727.008 930.721, 780.891 936.863 C 790.633 937.974, 793.454 939.604, 796.807 946.059 C 799.500 951.245, 799.177 956.538, 795.886 961.160 C 791.599 967.180, 794.270 966.969, 721.826 967.017 C 646.501 967.067, 647.067 967.106, 607 959.022 C 557.907 949.116, 540.916 949.333, 491.500 960.499 C 459.368 967.760, 434.641 969.539, 418.241 965.771 C 379.519 956.876, 372.358 922.921, 396.037 860.500 C 406.465 833.012, 409.970 812.261, 410.734 773.500 C 411.483 735.509, 408.554 691.304, 401.444 633.275 C 397.602 601.920, 395.422 594.379, 381.995 566 C 360.945 521.508, 352.342 481.678, 354.457 438.500 C 357.072 385.119, 370.906 346.785, 408.391 289.051 C 435.074 247.954, 440.303 232.522, 440.430 194.500 C 440.469 182.950, 440.149 171.534, 439.719 169.131 L 438.938 164.762 444.006 169.005 C 462.626 184.595, 478.190 211.345, 483.275 236.500 C 485.972 249.841, 489.250 254, 497.067 254 C 510.796 254, 512.395 237.568, 501.493 208.500 C 493.762 187.886, 483.364 173.205, 459.829 149.671 C 424.723 114.567, 419.676 106.407, 402.502 57 C 394.794 34.827, 393.003 32.063, 385.872 31.336 C 382.650 31.008, 380.658 31.419, 378.299 32.901 M 513.308 316.664 C 510.128 317.331, 505.116 322.859, 504.455 326.428 C 504.142 328.117, 504.778 333.325, 505.867 338 C 514.497 375.035, 518.934 429.137, 516.079 462.500 C 511.292 518.417, 499.271 555.543, 471.309 600.768 C 449.258 636.433, 440.348 655.354, 433.528 681 C 429.159 697.428, 428.006 709.177, 430.322 713.656 C 433.338 719.488, 441.812 721.632, 447.686 718.050 C 451.906 715.477, 452.596 713.976, 454.439 703.349 C 459.431 674.581, 468.739 653.032, 493.249 613.500 C 519.240 571.579, 532.886 532.734, 539.593 481.579 C 541.725 465.317, 542.515 425.648, 541.097 406 C 539.057 377.704, 531.306 330.360, 527.515 323.028 C 524.947 318.063, 519.106 315.446, 513.308 316.664 M 464.452 748.358 C 460.467 750.156, 458.174 753.798, 456.961 760.256 C 455.474 768.176, 452.330 777.093, 445.816 791.868 C 438.563 808.320, 435.318 819.268, 434.468 830.155 C 432.232 858.785, 450.770 883.178, 478.988 888.737 C 491.840 891.269, 498.502 888.132, 499.731 878.969 C 500.847 870.652, 496.378 866.159, 484.884 864.042 C 468.690 861.060, 460 850.829, 460 834.745 C 460 825.393, 461.931 818.521, 469.504 800.914 C 480.312 775.789, 484.087 760.149, 480.804 754.096 C 477.758 748.482, 470.119 745.801, 464.452 748.358" fill="currentColor" fill-rule="evenodd"/></svg>