<svg xmlns="http://www.w3.org/2000/svg" viewBox="0 0 1024 1024"><path d="M 194.117 32.246 C 188.235 33.486, 180.453 41.095, 179.398 46.636 C 178.993 48.761, 179.203 56.350, 179.864 63.500 C 187.926 150.749, 185.124 205.890, 168.890 279.500 C 162.320 309.290, 161.156 314.821, 157.949 331.500 C 156.257 340.300, 153.815 352.900, 152.524 359.500 C 151.232 366.100, 149.463 375.550, 148.593 380.500 C 147.722 385.450, 146.127 394.450, 145.048 400.500 C 143.969 406.550, 140.804 425.675, 138.015 443 C 135.225 460.325, 132.286 478.550, 131.484 483.500 C 125.113 522.809, 116.861 586.946, 114.049 619 C 108.848 678.292, 107.979 751.296, 111.971 793.500 C 112.492 799, 113.422 809.575, 114.040 817 C 117.503 858.663, 127.084 915.045, 138.554 961.264 C 143.489 981.147, 144.411 983.397, 149.422 987.797 C 162.463 999.248, 183 989.759, 183 972.282 C 183 969.822, 180.792 958.740, 178.093 947.655 C 160.694 876.188, 151.021 794.798, 151.005 719.746 C 150.995 673.140, 154.904 621.686, 163.518 555 C 170.110 503.976, 170.106 504, 172.119 504 C 191.923 504, 247.961 517.872, 279.967 530.698 C 334.111 552.395, 370.336 578.689, 409.889 625 C 443.084 663.866, 460.656 679.249, 481.856 688.002 C 489.878 691.314, 490.012 691.426, 489.502 694.436 C 489.217 696.121, 487.855 705.150, 486.475 714.500 C 472.200 811.243, 449.057 882.414, 407.907 956.116 C 400.206 969.909, 400.023 978.532, 407.272 985.984 C 416.607 995.580, 432.140 994.812, 439.135 984.411 C 450.332 967.761, 474.222 918.517, 484.209 891.500 C 495.280 861.551, 504.995 830.667, 509.611 810.750 C 510.599 806.487, 511.655 803, 511.959 803 C 512.262 803, 514.015 808.962, 515.854 816.250 C 522.985 844.507, 535.348 881.087, 547.708 910.500 C 559.943 939.615, 581.165 980.793, 587 986.739 C 595.922 995.831, 611.132 994.551, 618.500 984.088 C 621.161 980.310, 621.500 979.014, 621.500 972.632 C 621.500 965.795, 621.243 964.987, 616.348 956.468 C 578.082 889.861, 551.392 808.336, 538.043 717.285 C 536.367 705.853, 534.796 695.324, 534.551 693.887 C 534.139 691.472, 534.621 691.072, 540.937 688.594 C 560.634 680.866, 577.894 666.573, 604.252 636.161 C 638.371 596.793, 654.191 581.552, 677 566.073 C 712.100 542.254, 746.481 527.093, 794 514.478 C 812.653 509.527, 842.981 504, 851.500 504 C 853.545 504, 853.807 505.118, 856.832 526.750 C 874.583 653.695, 877.232 731.510, 867.040 826.598 C 862.303 870.790, 852.869 923.252, 843.051 960 C 839.463 973.428, 841.050 981.599, 848.427 987.679 C 857.905 995.492, 872.126 993.811, 878.540 984.119 C 881.915 979.019, 893.995 928.586, 899.047 898.500 C 919.839 774.702, 920.074 683.524, 899.987 534.500 C 895.531 501.436, 893.628 489.004, 884.377 432.500 C 883.566 427.550, 882.463 420.575, 881.925 417 C 881.387 413.425, 879.819 404.425, 878.440 397 C 877.062 389.575, 873.911 372.475, 871.439 359 C 866.102 329.916, 863.245 315.687, 857.886 291.500 C 843.927 228.496, 839.889 195.393, 839.900 144.050 C 839.905 117.450, 841.652 84.732, 843.986 67.500 C 846.301 50.413, 844.904 42.757, 838.436 37.078 C 826.754 26.821, 809 32.042, 805.036 46.901 C 802.255 57.324, 798 116.321, 798 144.461 C 798 164.277, 799.285 189.699, 800.983 203.500 C 801.525 207.900, 802.452 216, 803.043 221.500 C 804.369 233.831, 808.357 258.532, 811.582 274.388 C 814.528 288.871, 814.525 288.618, 811.750 289.406 C 650.703 335.151, 466.429 342.177, 295.500 309.089 C 271.300 304.404, 211.815 290.148, 210.349 288.682 C 210.013 288.346, 210.921 282.093, 212.366 274.786 C 218.757 242.468, 222.004 219.048, 224.606 186.500 C 228.227 141.216, 223.255 52.936, 216.428 41.286 C 212.119 33.934, 203.217 30.326, 194.117 32.246 M 200.586 330.181 C 199.022 335.278, 184.264 417.282, 180.012 444.500 C 178.895 451.650, 177.732 458.706, 177.427 460.179 C 176.898 462.732, 177.100 462.888, 181.686 463.481 C 191.700 464.776, 200.655 466.126, 205 466.996 C 207.475 467.492, 213.325 468.621, 218 469.506 C 282.454 481.704, 347.952 511.358, 393.651 549.030 C 405.381 558.700, 427.662 581.379, 441.268 597.500 C 478.486 641.596, 498.586 655.970, 517.670 652.137 C 533.864 648.885, 549.787 635.921, 578.232 602.828 C 584.685 595.321, 590.535 588.575, 591.232 587.837 C 591.929 587.099, 596.510 582.090, 601.410 576.707 C 653.997 518.941, 740.189 477.440, 834.500 464.474 C 841.100 463.567, 846.621 462.705, 846.770 462.559 C 847.560 461.782, 824.712 331.078, 823.460 329.219 C 823.356 329.064, 810.497 332.080, 794.885 335.921 C 714.240 355.764, 644.637 366.313, 570 370.005 C 533.328 371.819, 448.324 370.916, 428 368.496 C 425.525 368.202, 415.625 367.290, 406 366.470 C 366.597 363.115, 330.432 357.700, 281.500 347.827 C 257.730 343.031, 213.186 332.610, 202.745 329.401 C 201.763 329.100, 200.812 329.443, 200.586 330.181" fill="currentColor" fill-rule="evenodd"/></svg>