<svg xmlns="http://www.w3.org/2000/svg" viewBox="0 0 512 512"><path d="M 56.396 1.429 C 48.690 4.784, 46.691 13.307, 48.944 33.208 C 53.624 74.545, 70.819 108.716, 102.924 140.479 L 112 149.458 112 231.983 L 112 314.507 57.435 369.003 C 27.425 398.977, 2.225 424.715, 1.435 426.200 C -4.947 438.209, 9.096 452.491, 21.300 446.404 C 23.060 445.525, 44.188 425.165, 68.250 401.158 L 112 357.509 112 372.353 C 112 384.043, 112.349 387.933, 113.641 390.655 C 119.280 402.538, 135.688 402.505, 141.095 390.599 C 142.871 386.688, 142.957 381.787, 142.978 283.570 L 143 180.641 157.750 195.148 C 189.940 226.808, 216.383 238.468, 256 238.468 C 295.665 238.468, 322.021 226.847, 354.250 195.148 L 369 180.641 369.022 283.570 C 369.043 381.787, 369.129 386.688, 370.905 390.599 C 375.935 401.674, 390.046 402.754, 397.276 392.618 C 399.309 389.768, 399.529 388.131, 399.841 373.595 L 400.181 357.690 443.841 401.248 C 467.853 425.206, 488.940 445.525, 490.700 446.404 C 497.769 449.929, 506.394 446.820, 510.621 439.223 C 513.002 434.943, 514.025 426.249, 512 427.500 C 511.450 427.840, 511 427.538, 511 426.830 C 511 426.121, 486.025 400.552, 455.500 370.009 L 400 314.476 400 231.967 L 400 149.458 409.076 140.479 C 432.131 117.670, 446.104 95.960, 455.019 69.099 C 462.895 45.371, 466.360 16.775, 462.377 8.381 C 458.749 0.737, 447.835 -2.445, 441.054 2.164 C 435.209 6.138, 434.053 9.285, 432.980 24.140 C 431.053 50.825, 423.611 72.364, 408.668 94.500 C 401.867 104.575, 329.144 178.855, 317 188.130 C 281.916 214.926, 230.084 214.926, 195 188.130 C 182.856 178.855, 110.133 104.575, 103.332 94.500 C 88.389 72.364, 80.947 50.825, 79.020 24.140 C 77.951 9.334, 76.778 6.115, 71.048 2.253 C 67.214 -0.330, 61.214 -0.668, 56.396 1.429 M 201.020 49.752 C 189.914 55.331, 190.452 72.217, 201.887 76.953 C 203.730 77.717, 220.777 77.968, 257.754 77.776 L 310.968 77.500 314.666 73.801 C 321.880 66.586, 319.994 54.280, 310.980 49.752 C 305.654 47.075, 206.346 47.075, 201.020 49.752 M 233.013 106.275 C 222.641 111.760, 222.291 124.969, 232.320 132.408 C 234.896 134.318, 236.728 134.528, 253.426 134.827 C 264.251 135.021, 273.314 134.723, 275.641 134.097 C 288.893 130.528, 291.044 112.650, 278.987 106.275 C 272.425 102.805, 239.575 102.805, 233.013 106.275 M 185.032 322.791 C 180.717 325.170, 178.107 328.590, 177.059 333.240 C 176.034 337.782, 192.581 405.618, 195.752 409.876 C 198.585 413.680, 205.810 416.446, 210.578 415.551 C 215.753 414.580, 221.590 408.696, 222.580 403.451 C 223.507 398.539, 207.789 333.504, 204.500 328.641 C 199.796 321.687, 191.536 319.205, 185.032 322.791 M 314.450 322.352 C 310.405 324.186, 306.283 329.218, 305.075 333.795 C 298.658 358.117, 289 398.691, 289 401.327 C 289 407.518, 295.457 414.551, 302.134 415.634 C 306.671 416.371, 314.148 413.229, 316.538 409.583 C 318.692 406.295, 335.007 341.933, 335.099 336.361 C 335.274 325.684, 323.988 318.027, 314.450 322.352 M 87.984 467.854 C 80.903 471.622, 78.342 480.022, 82.015 487.434 C 86.210 495.902, 83.302 495.464, 137.500 495.777 L 185.500 496.053 192.500 502.915 C 200.579 510.834, 202.508 512, 207.533 512 C 217.582 512, 224.445 503.517, 222.554 493.434 C 221.826 489.554, 208.491 474.623, 200.600 468.852 L 196.700 466 144.084 466 C 94.768 466, 91.250 466.116, 87.984 467.854 M 312.500 467.863 C 306.224 471.744, 290.179 489.528, 289.451 493.410 C 287.530 503.649, 294.299 512, 304.518 512 C 309.494 512, 312.498 510.168, 319.971 502.575 L 326.442 496 373.335 496 C 419.692 496, 420.272 495.975, 424.114 493.816 C 434.176 488.161, 434.119 473.230, 424.016 467.854 C 418.632 464.989, 317.133 464.997, 312.500 467.863" fill="currentColor" fill-rule="evenodd"/></svg>