<svg xmlns="http://www.w3.org/2000/svg" viewBox="0 0 512 512"><path d="M 185.314 19.950 C 180.425 22.931, 180.250 23.860, 179.772 49.500 C 179.259 76.986, 178.381 80.877, 170.730 89.569 C 163.936 97.288, 159.357 99.457, 129.520 109.092 C 94.367 120.443, 92.089 121.276, 83.300 125.997 C 55.935 140.693, 36.607 166.814, 30.390 197.500 C 29.610 201.350, 28.694 213.950, 28.355 225.500 C 27.558 252.648, 28.766 260.866, 34.994 270.659 C 36.241 272.619, 36.061 273.166, 33.039 276.608 C 26.869 283.636, 26.147 286.651, 20.910 327.299 C 18.209 348.255, 16 367.156, 16 369.301 C 16 379.734, 30.850 383.982, 36.607 375.196 C 37.763 373.432, 39.667 361.545, 43.110 334.601 C 45.787 313.645, 48.502 295.228, 49.142 293.673 C 51.016 289.123, 53.778 287.953, 62.090 288.190 C 70.299 288.424, 73.782 286.968, 75.846 282.439 C 79.204 275.069, 75.463 268.165, 66.711 265.581 C 53.188 261.588, 51.628 258.753, 51.174 237.350 C 50.378 199.816, 56.134 180.556, 73.721 161.913 C 86.645 148.212, 93.294 144.872, 133 132.132 C 167.117 121.186, 175.526 117.333, 184.214 108.672 C 199.227 93.704, 203.008 81.040, 202.926 46 C 202.882 27.196, 202.074 23.627, 197.102 20.285 C 192.948 17.492, 189.506 17.394, 185.314 19.950 M 314.898 20.285 C 309.926 23.627, 309.118 27.196, 309.074 46 C 308.992 81.040, 312.773 93.704, 327.786 108.672 C 336.446 117.306, 344.774 121.116, 379 132.104 C 418.621 144.825, 425.352 148.209, 438.279 161.913 C 455.806 180.493, 461.619 199.942, 460.826 237.350 C 460.372 258.753, 458.812 261.588, 445.289 265.581 C 436.296 268.236, 432.608 275.474, 436.456 282.915 C 438.674 287.205, 443.334 288.962, 450.718 288.292 C 457.838 287.646, 460.943 289.022, 462.858 293.673 C 463.498 295.228, 466.213 313.645, 468.890 334.601 C 472.333 361.545, 474.237 373.432, 475.393 375.196 C 481.150 383.982, 496 379.734, 496 369.301 C 496 367.156, 493.791 348.255, 491.090 327.299 C 485.876 286.834, 485.114 283.616, 479.116 276.785 L 475.943 273.171 478.910 267.333 C 483.927 257.461, 485.486 235.192, 482.999 208.958 C 479.666 173.810, 460.991 144.350, 431.315 127.422 C 421.608 121.885, 419.195 120.975, 383.763 109.507 C 352.377 99.348, 348.461 97.531, 341.670 89.977 C 333.632 81.037, 332.745 77.238, 332.228 49.500 C 331.750 23.860, 331.575 22.931, 326.686 19.950 C 322.494 17.394, 319.052 17.492, 314.898 20.285 M 140.198 142.631 C 132.156 146.696, 132.025 158.732, 139.977 162.988 C 143.666 164.962, 227.815 170.104, 231.467 168.578 C 239.968 165.026, 240.316 152.451, 232.036 148.019 C 231.041 147.487, 213.639 145.925, 193.364 144.550 C 173.089 143.174, 153.575 141.803, 150 141.505 C 145.079 141.094, 142.698 141.367, 140.198 142.631 M 319.015 144.166 C 288.963 146.328, 277.949 147.458, 276.279 148.553 C 268.604 153.582, 268.973 164.349, 276.961 168.480 C 280.892 170.513, 363.902 165.136, 368.958 162.522 C 377.042 158.341, 376.707 146.461, 368.393 142.516 C 364.600 140.716, 369.035 140.568, 319.015 144.166 M 250.500 192.916 C 249.400 193.392, 247.375 194.991, 246 196.470 L 243.500 199.158 243.205 226.541 C 242.954 249.811, 243.145 254.379, 244.472 256.946 C 248.509 264.752, 260.464 264.804, 264.483 257.033 C 266.492 253.149, 266.710 202.939, 264.735 199.096 C 262.196 194.156, 254.929 191.001, 250.500 192.916 M 111.418 232.922 C 107.987 234.387, 104 239.880, 104 243.142 C 104 247.104, 104.813 248.492, 115.164 262.209 C 120.024 268.649, 124 274.677, 124 275.603 C 124 278.340, 103.285 384.048, 100.964 393.154 C 97.691 405.998, 92.534 418.922, 83.372 437.239 C 73.710 456.558, 73.052 459.899, 77.951 464.797 C 82.832 469.678, 89.089 469.770, 93.799 465.029 C 96.836 461.972, 112.428 431.236, 116.388 420.500 C 121.169 407.536, 124.070 396.599, 128.034 376.595 C 130.203 365.646, 132.118 356.548, 132.290 356.376 C 132.462 356.205, 133.660 368.447, 134.953 383.583 C 138.149 421.004, 137.058 440.697, 130.372 466.328 C 125.732 484.114, 126.043 488.226, 132.314 492.050 C 136.382 494.530, 139.653 494.509, 143.810 491.974 C 147.860 489.505, 149.219 486.370, 153.020 470.720 C 161.238 436.880, 161.522 421.319, 155.205 351 C 152.512 321.025, 150.405 296.372, 150.522 296.215 C 150.640 296.059, 152.708 296.385, 155.118 296.941 C 162.967 298.750, 240.114 298.309, 242.783 296.439 C 247.746 292.963, 249.314 286.033, 246.294 280.920 C 242.866 275.118, 241.939 275.001, 199.349 274.990 C 149.358 274.978, 154.651 276.985, 134.780 250.500 C 129.003 242.800, 123.370 235.693, 122.262 234.707 C 119.876 232.584, 114.345 231.673, 111.418 232.922 M 393 232.664 C 390.115 233.813, 387.645 236.604, 377.220 250.500 C 363.765 268.434, 362.506 269.777, 356.500 272.617 C 351.512 274.975, 351.406 274.980, 312.651 274.990 C 270.061 275.001, 269.134 275.118, 265.706 280.920 C 262.686 286.033, 264.254 292.963, 269.217 296.439 C 271.886 298.309, 349.033 298.750, 356.882 296.941 C 359.292 296.385, 361.360 296.059, 361.478 296.215 C 361.595 296.372, 359.487 321.025, 356.794 351 C 350.439 421.721, 350.709 436.440, 358.995 470.720 C 362.773 486.354, 364.135 489.502, 368.190 491.974 C 372.347 494.509, 375.618 494.530, 379.686 492.050 C 385.807 488.317, 386.309 483.177, 382.034 468 C 375.118 443.445, 373.816 421.417, 377.046 383.591 C 378.339 368.451, 379.550 356.217, 379.738 356.404 C 379.925 356.591, 381.621 364.717, 383.506 374.460 C 387.541 395.310, 390.755 407.526, 395.550 420.237 C 400.313 432.863, 414.882 461.668, 418.201 465.020 C 422.904 469.770, 429.164 469.682, 434.049 464.797 C 438.994 459.852, 438.318 456.406, 428.619 437.144 C 419.501 419.035, 414.343 406.130, 411.036 393.154 C 408.715 384.048, 388 278.340, 388 275.603 C 388 274.677, 391.976 268.649, 396.836 262.209 C 407.224 248.444, 408 247.112, 408 243.051 C 408 236.796, 398.735 230.380, 393 232.664" fill="currentColor" fill-rule="evenodd"/></svg>