<svg version="1.1" id="WL_SG_68_075_svg__RF_SG_68" x="0" y="0" xml:space="preserve" xmlns="http://www.w3.org/2000/svg" viewBox="0 0 212.6 212.8"><style type="text/css" id="style2">.WL_SG_68_075_svg__st0{fill:#4aac24}.WL_SG_68_075_svg__st1{fill:#fff}</style><g id="WL_SG_68_075_svg__g106" transform="translate(-190.1 -181.9)"><g id="WL_SG_68_075_svg__g88"><path class="WL_SG_68_075_svg__st0" id="WL_SG_68_075_svg__polygon4" d="M334.4 357.5h3.3l-1.5-6.5z"/><path class="WL_SG_68_075_svg__st0" d="M233.3 382.7c-.8 0-1.2 1.1-1.2 1.7 0 .4.1 1 .7 1 .8 0 1.3-.9 1.3-1.7 0-.5-.2-1-.8-1z" id="WL_SG_68_075_svg__path6"/><path class="WL_SG_68_075_svg__st0" d="M257.9 382.7c-.8 0-1.2 1.1-1.2 1.7 0 .4.1 1 .7 1 .8 0 1.3-.9 1.3-1.7 0-.5-.2-1-.8-1z" id="WL_SG_68_075_svg__path8"/><path class="WL_SG_68_075_svg__st0" d="M334.9 376c-1.2 0-1.9 1.1-1.9 2.8h3.7v-.4c-.1-1.6-.5-2.4-1.8-2.4z" id="WL_SG_68_075_svg__path10"/><path class="WL_SG_68_075_svg__st0" d="M246.9 385c0 .3.3.4.6.4.8 0 1.1-.6 1.2-1.2h-.4c-.5 0-1.4.1-1.4.8z" id="WL_SG_68_075_svg__path12"/><path class="WL_SG_68_075_svg__st0" d="M285.7 382.7c-.7 0-1 .4-1.2 1h1.9v-.3c0-.5-.2-.7-.7-.7z" id="WL_SG_68_075_svg__path14"/><path class="WL_SG_68_075_svg__st0" d="M222.3 385c0 .3.3.4.6.4.8 0 1.1-.6 1.2-1.2h-.4c-.5 0-1.4.1-1.4.8z" id="WL_SG_68_075_svg__path16"/><path class="WL_SG_68_075_svg__st0" d="M238.3 382.7c-.7 0-1 .4-1.2 1h1.9v-.3c0-.5-.2-.7-.7-.7z" id="WL_SG_68_075_svg__path18"/><path class="WL_SG_68_075_svg__st0" d="M190.1 394.7h212.6V182.1H190.1Zm27.7-8.5-.1-4.6-2 4.6h-1.4l-.4-5.7h1.1l.2 4.4 1.9-4.4h1.5v4.4l2-4.4h1.2l-2.7 5.7zm7 0h-.9l.1-.6c-.4.5-.8.7-1.4.7-.8 0-1.3-.4-1.3-1.2 0-1.4 1.6-1.5 2.6-1.5h.4v-.4c0-.4-.5-.5-.8-.5-.5 0-1 .1-1.4.3l.2-.9c.5-.2.9-.3 1.4-.3.8 0 1.6.3 1.6 1.3 0 .6-.4 2.3-.5 3.1zm5.4-2.1-.4 2h-1.1l.4-2c.1-.3.1-.6.1-.9 0-.4-.2-.6-.6-.6-.8 0-1 .7-1.2 1.3l-.5 2.1h-1.1l.8-3.6c0-.3.1-.5.1-.6h1.1l-.1.4c.3-.3.7-.5 1.2-.5.8 0 1.4.5 1.4 1.4 0 .4-.1.8-.1 1zm4.6 2.1h-1l.1-.6c-.3.5-.7.7-1.4.7-1 0-1.5-.8-1.5-1.8 0-1.3.7-2.7 2.1-2.7.5 0 1 .2 1.3.6l.5-2.4h1.1l-1.1 5.2c0 .4-.1.8-.1 1zm5.2-1.8h-3c0 .8.4 1.1 1.2 1.1.5 0 .9-.1 1.3-.3l-.1.9c-.4.1-.9.2-1.3.2-1.2 0-2-.6-2-1.8 0-1.3 1-2.6 2.4-2.6 1 0 1.7.5 1.7 1.6-.1.3-.2.6-.2.9zm1.9-.1-.4 1.9h-1.1l.8-3.7c0-.2.1-.4.1-.6h1l-.1.8c.2-.5.7-.9 1.2-.9h.4l-.2 1.1c-.1 0-.3-.1-.4-.1-.8.1-1.1.8-1.3 1.5zm1.7 1.9 1.3-6.2h1.1l-1.3 6.2zm5.8 0h-.9l.1-.6c-.4.5-.8.7-1.4.7-.8 0-1.3-.4-1.3-1.2 0-1.4 1.6-1.5 2.6-1.5h.4v-.4c0-.4-.5-.5-.8-.5-.5 0-1 .1-1.4.3l.2-.9c.5-.2.9-.3 1.4-.3.8 0 1.6.3 1.6 1.3 0 .6-.4 2.3-.5 3.1zm5.4-2.1-.4 2h-1.1l.4-2c.1-.3.1-.6.1-.9 0-.4-.2-.6-.6-.6-.8 0-1 .7-1.2 1.3l-.5 2.1h-1.1l.8-3.6c0-.3.1-.5.1-.6h1.1l-.1.4c.3-.3.7-.5 1.2-.5.8 0 1.4.5 1.4 1.4 0 .4-.1.8-.1 1zm4.7 1.2c-.1.4-.1.7-.2.9h-1l.1-.6c-.3.5-.7.7-1.4.7-1 0-1.5-.8-1.5-1.8 0-1.3.7-2.7 2.1-2.7.5 0 1 .2 1.3.6l.5-2.4h1.1zm7.3-3.7c-.3-.2-.8-.3-1.2-.3-.4 0-1 .2-1 .7 0 .9 2 .9 2 2.5 0 1.4-1.1 1.9-2.4 1.9-.5 0-1.1-.1-1.6-.3l.3-1c.4.2.9.4 1.4.4.5 0 1.1-.3 1.1-.9 0-1-2-.9-2-2.4 0-1.2 1-1.7 2.1-1.7.5 0 1 .1 1.5.3zm2.8 3.8c.3 0 .6-.1.9-.2l-.1.9c-.3.2-.7.2-1.1.2-1.1 0-1.8-.7-1.8-1.8 0-1.5 1-2.6 2.5-2.6.4 0 .8.1 1.1.2l-.3.9c-.2-.1-.5-.2-.8-.2-.9 0-1.4.8-1.4 1.6 0 .5.2 1 1 1zm5.7-1.3-.4 2h-1.1l.4-2c.1-.3.1-.6.1-.9 0-.4-.2-.6-.6-.6-.8 0-1 .7-1.2 1.3l-.5 2.1h-1l1.3-6.2h1.1l-.5 2.3c.3-.3.7-.5 1.2-.5.8 0 1.4.5 1.4 1.4-.1.5-.2.9-.2 1.1zm4.6 2.1-.2-3.2-1.5 3.2H277l-.6-4.2h1.1l.3 3.2 1.5-3.2h1.2l.2 3.2 1.6-3.2h1.1l-2.3 4.2zm7.5-1.8h-3c0 .8.4 1.1 1.2 1.1.5 0 .9-.1 1.3-.3l-.1.9c-.4.1-.9.2-1.3.2-1.2 0-2-.6-2-1.8 0-1.3 1-2.6 2.4-2.6 1 0 1.7.5 1.7 1.6-.1.3-.2.6-.2.9zm.4 1.8.9-4.2h1.1l-.9 4.2zm1.1-5 .2-1h1.1l-.2 1zm5.1 1.6-2.6 2.5h2.1l-.2.9h-3.5l.2-.9 2.6-2.5h-1.9l.2-.9h3.3zm31.4 3.3h-5.3l-1.8-12.8-1.8 12.8h-5.2l-3.3-16.7h4.2l1.8 11.7 1.7-11.7h5.2l1.8 11.7 1.8-11.7h3.8zm0-21.8h-5.3l-1.8-12.8-1.8 12.8h-5.2l-3.3-16.7h4.2l1.8 11.7 1.7-11.7h5.2l1.8 11.7 1.8-11.7h3.8zm8.4-16.7h4.9l5.3 16.7h-4.6l-.9-3.5h-4.9l-1.1 3.5h-4.3zm6.7 33.5H333c.1 2 1.5 2.6 3.1 2.6 1.2 0 2.6-.5 3.6-1l.1 3c-1 .3-2.6.7-4.3.7-5 0-6.5-3.4-6.5-6.6 0-3.4 2-6.4 5.8-6.4 3.9 0 5.7 3.1 5.7 6.5zm13.9-4.5v8c0 4.4-1.9 6.9-6.8 6.9-1.9 0-4-.5-4.7-.8l.1-3.4c.8.5 2 1.1 3.8 1.1 2.5 0 3.4-1.4 3.4-3.7v-.9c-.6 1.6-1.8 2.5-3.3 2.5-3.4 0-4.7-2.7-4.7-6.6 0-3.2 1.7-6.1 4.6-6.1 1.9 0 2.8 1.1 3.4 2.3 0-.6.1-1.4.2-2h4v2.7zm1.2-12.3h-10v-16.7h4.5v13.3h5.5zm6.1.2c-2 0-3.6-.4-4.4-.6l.3-3.7c.5.3 2.2 1 3.8 1 1.7 0 2.3-.7 2.3-1.8s-.7-1.4-2-1.9l-1-.4c-2.7-1.1-3.6-2.6-3.6-4.9 0-3.2 2.5-4.9 6.1-4.9 1.3 0 2.8.1 4.2.7l-.2 3.3c-.8-.4-2.1-.8-3.4-.8-1.3 0-2.1.5-2.1 1.6 0 .9.4 1.2 1.9 1.9l2 .9c1.5.7 2.8 1.7 2.8 4.2-.1 3.6-2.8 5.4-6.7 5.4zm18.8-.2-.9-3.5h-4.9l-1.1 3.5h-4.3l5.5-16.7h4.9l5.3 16.7zm-50.3-99.1c-8.6-4.1-14.3-11.9-14.3-20.9 0-20.4 16.9-32.6 41.4-32.6 19.1 0 38 7.5 38 28.4 0 14.4-12.6 25.4-26.7 27.9v.2c11.5 3.9 18.7 11.8 18.7 24.2 0 10.5-6.4 32.6-43.1 32.6-21 0-40.5-11-40.5-28.9-.1-18.8 12.8-26.2 26.5-30.9zM270.1 225c10.7 0 21.8 2.7 31.1 8.2l-6.7 19.6c-6.7-4.5-15.4-7.1-23.5-7.1-18.8 0-25.9 12.6-29 26.8l.3.3c5.3-4.2 11.9-6.1 18.7-6.1 18.5 0 31.2 12.1 31.2 32.6 0 24-16.2 38.9-40.2 38.9-25.6 0-40.2-15.5-40.2-40.3 0-37.5 16-72.9 58.3-72.9z" id="WL_SG_68_075_svg__path20"/><path class="WL_SG_68_075_svg__st0" d="M250.5 319.4c10 0 14.9-10.5 14.9-19.3 0-8-4.2-14.6-12.2-14.6-11.5 0-16 10.8-16 18.7 0 8 3.6 15.2 13.3 15.2z" id="WL_SG_68_075_svg__path22"/><path class="WL_SG_68_075_svg__st0" d="M351.8 257.8c8.2-3 16.8-8.3 16.8-16.3 0-7.5-5.5-11-11.9-11-7.1 0-14.1 6.1-14.1 12.6 0 6.1 4.5 11.1 9.2 14.7z" id="WL_SG_68_075_svg__path24"/><path class="WL_SG_68_075_svg__st0" d="M348.3 376.5c-1.2 0-1.6 1.3-1.6 3.2 0 2.1.3 3.6 1.7 3.6s1.7-1.4 1.7-3.4c0-2.2-.6-3.4-1.8-3.4z" id="WL_SG_68_075_svg__path26"/><path class="WL_SG_68_075_svg__st0" id="WL_SG_68_075_svg__polygon28" d="m378.8 357.5-1.5-6.5-1.8 6.5z"/><path class="WL_SG_68_075_svg__st0" d="M344.6 305.2c8.8 0 16-5.8 16-14 0-7.4-5.2-11.9-13-15.4-8.6 2.8-17.3 8.8-17.3 17.7 0 7 6.1 11.7 14.3 11.7z" id="WL_SG_68_075_svg__path30"/><path class="WL_SG_68_075_svg__st1" d="M344.1 325c36.7 0 43.1-22.1 43.1-32.6 0-12.4-7.2-20.2-18.7-24.2v-.2c14.1-2.5 26.7-13.5 26.7-27.9 0-20.9-18.8-28.4-38-28.4-24.5 0-41.4 12.2-41.4 32.6 0 8.9 5.6 16.8 14.3 20.9-13.7 4.7-26.5 12.1-26.5 30.9 0 17.9 19.5 28.9 40.5 28.9zm12.6-94.5c6.4 0 11.9 3.5 11.9 11 0 8-8.6 13.3-16.8 16.3-4.7-3.6-9.3-8.6-9.3-14.7.1-6.5 7.1-12.6 14.2-12.6zm-9.1 45.4c7.8 3.5 13 8 13 15.4 0 8.2-7.2 14-16 14-8.2 0-14.3-4.7-14.3-11.6 0-9.1 8.6-15 17.3-17.8z" id="WL_SG_68_075_svg__path32"/><path class="WL_SG_68_075_svg__st1" d="M251.9 338.2c24 0 40.2-14.9 40.2-38.9 0-20.6-12.7-32.6-31.2-32.6-6.7 0-13.3 1.9-18.7 6.1l-.3-.3c3.1-14.3 10.2-26.8 29-26.8 8.2 0 16.8 2.5 23.5 7.1l6.7-19.6c-9.3-5.5-20.4-8.2-31.1-8.2-42.4 0-58.4 35.5-58.4 73 .2 24.7 14.8 40.2 40.3 40.2zm1.3-52.7c8 0 12.2 6.6 12.2 14.6 0 8.8-4.9 19.3-14.9 19.3-9.7 0-13.3-7.2-13.3-15.2 0-7.9 4.5-18.7 16-18.7z" id="WL_SG_68_075_svg__path34"/><path id="WL_SG_68_075_svg__polygon36" d="M218.7 384.9v-4.4h-1.5l-1.9 4.4-.2-4.4h-1.2l.4 5.7h1.4l2-4.6.1 4.6h1.4l2.8-5.7h-1.2l-2 4.4z"/><path d="M223.7 381.9c-.5 0-1 .1-1.4.3l-.2.9c.4-.2.9-.3 1.4-.3.4 0 .8.1.8.5v.4h-.4c-1 0-2.6.1-2.6 1.5 0 .8.5 1.2 1.3 1.2.6 0 1-.3 1.4-.7l-.1.6h.9c.1-.8.5-2.5.5-3 0-1.1-.8-1.4-1.6-1.4zm-.8 3.6c-.3 0-.6-.1-.6-.4 0-.7.9-.8 1.4-.8h.4c-.1.6-.4 1.2-1.2 1.2z" id="WL_SG_68_075_svg__path38"/><path d="M228.9 381.9c-.5 0-.9.2-1.2.5l.1-.4h-1.1c0 .1-.1.4-.1.6l-.8 3.6h1.1l.5-2.1c.1-.6.4-1.3 1.2-1.3.4 0 .6.2.6.6 0 .3-.1.6-.1.9l-.4 2h1.1l.4-2c.1-.3.1-.6.1-.9 0-1-.5-1.5-1.4-1.5z" id="WL_SG_68_075_svg__path40"/><path d="m235 380-.5 2.4c-.3-.4-.8-.6-1.3-.6-1.4 0-2.1 1.4-2.1 2.7 0 .9.5 1.8 1.5 1.8.6 0 1-.3 1.4-.7l-.1.6h1c0-.2.1-.6.2-.9l1.1-5.2H235Zm-2.2 5.4c-.5 0-.7-.6-.7-1 0-.6.4-1.7 1.2-1.7.6 0 .8.5.8 1 0 .8-.5 1.7-1.3 1.7z" id="WL_SG_68_075_svg__path42"/><path d="M238.4 381.9c-1.4 0-2.4 1.3-2.4 2.6s.8 1.8 2 1.8c.5 0 .9-.1 1.3-.2l.1-.9c-.4.2-.8.3-1.3.3-.8 0-1.2-.3-1.2-1.1h3c.1-.3.1-.6.1-.9.1-1.1-.6-1.6-1.6-1.6zm.6 1.8h-1.9c.2-.6.5-1 1.2-1 .5 0 .7.3.7.7v.3z" id="WL_SG_68_075_svg__path44"/><path d="M243.9 381.9h-.4c-.5 0-1 .4-1.2.9l.1-.8h-1c0 .2-.1.4-.1.6l-.8 3.7h1.1l.4-1.9c.1-.7.5-1.4 1.3-1.4.1 0 .3 0 .4.1z" id="WL_SG_68_075_svg__path46"/><path id="WL_SG_68_075_svg__polygon48" d="m244.7 386.2 1.3-6.2h-1.1l-1.3 6.2z"/><path d="M248.3 381.9c-.5 0-1 .1-1.4.3l-.2.9c.4-.2.9-.3 1.4-.3.4 0 .8.1.8.5v.4h-.4c-1 0-2.6.1-2.6 1.5 0 .8.5 1.2 1.3 1.2.6 0 1-.3 1.4-.7l-.1.6h.9c.1-.8.5-2.5.5-3 0-1.1-.8-1.4-1.6-1.4zm-.8 3.6c-.3 0-.6-.1-.6-.4 0-.7.9-.8 1.4-.8h.4c-.1.6-.4 1.2-1.2 1.2z" id="WL_SG_68_075_svg__path50"/><path d="M253.6 381.9c-.5 0-.9.2-1.2.5l.1-.4h-1.1c0 .1-.1.4-.1.6l-.8 3.6h1.1l.5-2.1c.1-.6.4-1.3 1.2-1.3.4 0 .6.2.6.6 0 .3-.1.6-.1.9l-.4 2h1.1l.4-2c.1-.3.1-.6.1-.9-.1-1-.6-1.5-1.4-1.5z" id="WL_SG_68_075_svg__path52"/><path d="M259.1 382.5c-.3-.4-.8-.6-1.3-.6-1.4 0-2.1 1.4-2.1 2.7 0 .9.5 1.8 1.5 1.8.6 0 1-.3 1.4-.7l-.1.6h1c0-.2.1-.6.2-.9l1.1-5.2h-1.1zm-1.7 2.9c-.5 0-.7-.6-.7-1 0-.6.4-1.7 1.2-1.7.6 0 .8.5.8 1 0 .8-.4 1.7-1.3 1.7z" id="WL_SG_68_075_svg__path54"/><path d="M263.5 382.1c0 1.5 2 1.4 2 2.4 0 .6-.5.9-1.1.9-.5 0-1-.2-1.4-.4l-.3 1c.5.2 1.1.3 1.6.3 1.3 0 2.4-.5 2.4-1.9 0-1.6-2-1.5-2-2.5 0-.5.5-.7 1-.7.4 0 .9.1 1.2.3l.3-.9c-.5-.2-1-.3-1.5-.3-1.2.1-2.2.6-2.2 1.8z" id="WL_SG_68_075_svg__path56"/><path d="M270 382.7c.3 0 .6.1.8.2l.3-.9c-.3-.1-.7-.2-1.1-.2-1.5 0-2.5 1.1-2.5 2.6 0 1.1.7 1.8 1.8 1.8.4 0 .7 0 1.1-.2l.1-.9c-.3.1-.6.2-.9.2-.8 0-.9-.5-.9-1.1-.1-.7.4-1.5 1.3-1.5z" id="WL_SG_68_075_svg__path58"/><path d="M274.1 381.9c-.5 0-.9.2-1.2.5l.5-2.3h-1.1l-1.3 6.2h1.1l.5-2.1c.1-.6.4-1.3 1.2-1.3.4 0 .6.2.6.6 0 .3-.1.6-.1.9l-.4 2h1.1l.4-2c.1-.3.1-.6.1-.9-.1-1.1-.6-1.6-1.4-1.6z" id="WL_SG_68_075_svg__path60"/><path id="WL_SG_68_075_svg__polygon62" d="m280.8 385.1-.3-3.1h-1.2l-1.5 3.1h-.1l-.3-3.1h-1.1l.6 4.2h1.2l1.6-3.2.2 3.2h1.3l2.3-4.2h-1.1l-1.6 3.1z"/><path d="M285.7 381.9c-1.4 0-2.4 1.3-2.4 2.6s.8 1.8 2 1.8c.5 0 .9-.1 1.3-.2l.1-.9c-.4.2-.8.3-1.3.3-.8 0-1.2-.3-1.2-1.1h3c.1-.3.1-.6.1-.9.2-1.1-.5-1.6-1.6-1.6zm.7 1.8h-1.9c.2-.6.5-1 1.2-1 .5 0 .7.3.7.7v.3z" id="WL_SG_68_075_svg__path64"/><path id="WL_SG_68_075_svg__polygon66" d="M288.9 381.2h1.1l.2-1.1h-1.1z"/><path id="WL_SG_68_075_svg__polygon68" d="m288.9 386.2.9-4.2h-1.1l-.9 4.2z"/><path id="WL_SG_68_075_svg__polygon70" d="m290 385.3-.2.9h3.5l.2-.9h-2.1l2.6-2.5.1-.8h-3.3l-.2.8h2z"/><path id="WL_SG_68_075_svg__polygon72" d="M320.9 347.6h-5.2l-1.7 11.7h-.1l-1.7-11.7H308l3.3 16.7h5.2l1.8-12.9 1.8 12.9h5.3l3-16.7h-3.8l-1.8 11.7h-.1z"/><path d="M333.6 360.7h4.9l.9 3.5h4.6l-5.3-16.7h-4.9l-5.5 16.7h4.3zm2.6-9.7 1.5 6.5h-3.3z" id="WL_SG_68_075_svg__path74"/><path id="WL_SG_68_075_svg__polygon76" d="M345.6 364.3h10v-3.4h-5.5v-13.3h-4.5z"/><path d="m365.4 354.8-2-.9c-1.5-.7-1.9-1.1-1.9-1.9 0-1 .8-1.6 2.1-1.6s2.6.4 3.4.8l.2-3.3c-1.4-.5-2.9-.7-4.2-.7-3.5 0-6.1 1.8-6.1 4.9 0 2.4.8 3.8 3.6 4.9l1 .4c1.3.5 2 .8 2 1.9 0 1.1-.6 1.8-2.3 1.8-1.6 0-3.2-.7-3.8-1l-.3 3.7c.8.2 2.4.6 4.4.6 3.9 0 6.5-1.9 6.5-5.5.3-2.4-1.1-3.4-2.6-4.1z" id="WL_SG_68_075_svg__path78"/><path d="m374.9 347.6-5.5 16.7h4.3l1.1-3.5h4.9l.9 3.5h4.6l-5.3-16.7zm.6 9.9 1.8-6.5 1.5 6.5z" id="WL_SG_68_075_svg__path80"/><path id="WL_SG_68_075_svg__polygon82" d="M320.9 369.5h-5.2l-1.7 11.7h-.1l-1.7-11.7H308l3.3 16.6h5.2l1.8-12.8 1.8 12.8h5.3l3-16.6h-3.8l-1.8 11.7h-.1z"/><path d="M334.8 373.4c-3.7 0-5.8 3-5.8 6.4 0 3.2 1.5 6.6 6.5 6.6 1.7 0 3.3-.4 4.3-.7l-.1-3c-1.1.5-2.5 1-3.6 1-1.6 0-3-.6-3.1-2.6h7.5v-1.2c0-3.4-1.8-6.5-5.7-6.5zm1.8 5.4H333c0-1.7.7-2.8 1.9-2.8 1.3 0 1.7.8 1.7 2.5z" id="WL_SG_68_075_svg__path84"/><path d="M350.3 375.7c-.6-1.2-1.6-2.3-3.4-2.3-2.9 0-4.6 2.9-4.6 6.1 0 3.9 1.3 6.6 4.7 6.6 1.5 0 2.7-.9 3.3-2.5v.9c0 2.3-.9 3.7-3.4 3.7-1.8 0-3.1-.7-3.8-1.1l-.1 3.4c.6.3 2.8.8 4.7.8 4.9 0 6.8-2.5 6.8-6.9v-8c0-1.2.1-2.2.1-2.9h-4c-.2.8-.3 1.6-.3 2.2zm-1.9 7.5c-1.4 0-1.7-1.4-1.7-3.6 0-1.8.3-3.2 1.6-3.2 1.2 0 1.8 1.2 1.8 3.3 0 2.1-.3 3.5-1.7 3.5z" id="WL_SG_68_075_svg__path86"/></g><g id="WL_SG_68_075_svg__g104"><g id="WL_SG_68_075_svg__g92"><path class="WL_SG_68_075_svg__st1" id="WL_SG_68_075_svg__polygon90" d="m321.5 226.2-37.9-.1 11.7-44.2h37.9z"/></g><g id="WL_SG_68_075_svg__g102"><path d="m295.3 181.9-11.8 44.3 38 .1 11.7-44.4m-20.5 3.1c.1-.4.4-.6.8-.6s.6.3.5.6l-.3 1.2h-1.3zm-6.2 2.2c.3-1.1.9-2.2 1.6-3.2 1 1.8 2.4 2.6 4.4 2.6h2.4l-.6 2.4h-2.5c-1.9 0-3.5.5-5.3 1.9-.4-1.1-.4-2.2 0-3.7zm6.3 2.4-.7 2.8c-.2-.1-.4-.1-.6-.1-.2 0-.5 0-.7.1l.7-2.8zm-7.8 15.5.9 1.6-1.7 1.6zm-4.4 14.8c-.1.3-.4.5-.7.5-.3 0-.5-.2-.4-.5l.4-1.4h1.1zm1.1-4.1h-1.1l.4-1.4 1.4-1.3zm1.8-7-1.4 1.3 1.8-6.8.8 1.3zm2.3-8.6-.8-1.3.4-1.4h1.1zm1.4-5.5h-1.1l.4-1.4c.1-.3.4-.5.7-.5.3 0 .5.2.4.5zm-4.6 25.1c-.1.4-.5.7-.9.7s-.7-.3-.6-.7l.3-1.3h1.5zm1.1-4h-1.5l.8-3.2 2-1.8zm3.4-13.3-1-1.8.8-3.2h1.5zm2.1-7.8h-1.5l.3-1.3c.1-.4.5-.7.9-.7s.7.3.6.7zm-6.3 30.2c-.4 0-.6-.3-.5-.7l.9-3.4c.2.1.4.1.6.1.2 0 .5 0 .7-.1l-.9 3.4c-.1.4-.4.7-.8.7zm2.7-5.6c-.2.7-.7 1.2-1.5 1.2s-1.1-.5-.9-1.2l.2-.8h2.4zm.9-3.5h-2.4l1.5-5.5 1.6-1.4.8 1.4zm3.4-12.8-1.6 1.4-.8-1.4 1.5-5.5h2.4zm2.1-8.3h-2.4l.2-.8c.2-.7.7-1.2 1.5-1.2s1.1.5.9 1.2zm-4.6 25.1c-.1.4-.5.7-.9.7s-.7-.3-.6-.7l.3-1.3h1.5zm1.1-4H307l1.3-5 1 1.8zm2-7.6-.9-1.6 1.7-1.6zm1.9-7.5-2 1.8 1.3-5h1.5zm1.6-6h-1.5l.3-1.3c.1-.4.5-.7.9-.7s.7.3.6.7zm-5.1 25.2c-.1.3-.4.5-.7.5-.3 0-.5-.2-.4-.5l.4-1.4h1.1zm1.1-4.1h-1.1l.7-2.7.8 1.3zm1.5-5.8-.8-1.3 1.1-4.2 1.4-1.3zm3-11.2-1.4 1.3.7-2.7h1.1zm1.1-4.1h-1.1l.4-1.4c.1-.3.4-.5.7-.5.3 0 .5.2.4.5z" id="WL_SG_68_075_svg__path94" style="fill:#008b55"/><g id="WL_SG_68_075_svg__g100"><g id="WL_SG_68_075_svg__g98"><path d="M316.2 194.7h-.2l.4-1.4c.1-.6-.1-1-.8-1-.3 0-.7.2-.9.4-.1-.3-.4-.4-.8-.4-.5 0-1 .3-1.2.6 0-.1-.1-.2-.2-.3l.8-3h1.3l.9-3.4h-1.3l.3-1.2c.2-.6-.2-1.1-.8-1.1-.7 0-1.2.5-1.4 1.1l-.3 1.1c-1.6-.2-2.9-1.2-3.7-3.1-1 1.3-1.9 2.6-2.3 4.2-.5 1.8-.4 3.2.2 4.6 1.5-1.3 3.1-2.1 4.9-2.2l-.8 3-.3.3c-.1-.3-.4-.6-.9-.6-.4 0-.8.2-1.1.4-.1-.2-.4-.4-.7-.4-.6 0-1.1.4-1.3 1l-.4 1.4h-.2c-.1 0-.3.1-.3.2l-.6 2.3c0 .1 0 .2.2.2h.2l-.2.8h-.2c-.1 0-.3.1-.3.2l-1 3.6.3.5-2.1 7.9-.6.5-.9 3.6c0 .1 0 .2.2.2h.2l-.2.8h-.2c-.1 0-.3.1-.3.2l-.6 2.3c0 .1 0 .2.2.2h.2l-.4 1.4c-.1.6.1 1 .8 1 .3 0 .7-.2.9-.4.1.3.4.4.8.4.5 0 1-.3 1.2-.6 0 .1.1.2.2.3l-1 3.6c-.2.6.2 1.1.8 1.1.7 0 1.2-.5 1.4-1.1l1-3.6.3-.3c.1.3.4.6.9.6.4 0 .8-.2 1.1-.4.1.2.4.4.7.4.6 0 1.1-.4 1.3-1l.4-1.4h.2c.1 0 .3-.1.3-.2l.6-2.3c0-.1 0-.2-.2-.2h-.2l.2-.8h.2c.1 0 .3-.1.3-.2l.9-3.6-.3-.5 2.1-7.9.6-.5 1-3.6c0-.1 0-.2-.2-.2h-.2l.2-.8h.2c.1 0 .3-.1.3-.2l.6-2.3c.1-.1 0-.2-.2-.2zm-3.4-1.3c.1-.4.5-.7.9-.7s.7.3.6.7l-.3 1.3h-1.5zm-.1-8.4c.1-.4.4-.6.8-.6s.6.3.5.6l-.3 1.2h-1.3zm-6.2 6c-.4-1.2-.3-2.3 0-3.7.3-1.1.9-2.2 1.6-3.2 1 1.8 2.4 2.6 4.4 2.6h2.4l-.6 2.4h-2.5c-2 0-3.6.5-5.3 1.9zm5-1.4h1.3l-.7 2.8c-.2-.1-.4-.1-.6-.1-.2 0-.5 0-.7.1zm-1.7 4.4c.2-.7.7-1.2 1.5-1.2s1.1.5.9 1.2l-.2.8h-2.4zm-1.8-.5c.1-.4.5-.7.9-.7s.7.3.6.7l-.3 1.3h-1.5zm-1.5-.2c.1-.3.4-.5.7-.5.3 0 .5.2.4.5l-.4 1.4h-1.1zm5.9 7.4-2 1.8 1.3-5h1.5zm1.3-3.2h1.1l-.4 1.4-1.4 1.3zm-3.8 5.5-1.6 1.4-.8-1.4 1.5-5.5h2.4zm-2.8-.5-1-1.8.8-3.2h1.5zm-1.3-2.3-.8-1.3.4-1.4h1.1zm-1.9 3.1.8 1.3-1.1 4.2-1.4 1.3zm1.1 1.8.9 1.6-1.7 1.6zm-3.7 6.2 4.8-4.3.9 1.5-6.4 5.8zm5.2 4.5h-2.4l1.5-5.5 1.6-1.4.8 1.4zm1.8-5 1 1.8-.8 3.2H307Zm-5.3 1.8 2-1.8-1.3 5h-1.5zm-1.3 3.2h-1.1l.4-1.4 1.4-1.3zm-1.1 4.1c-.1.3-.4.5-.7.5-.3 0-.5-.2-.4-.5l.4-1.4h1.1zm2-.1c-.1.4-.5.7-.9.7s-.7-.3-.6-.7l.3-1.3h1.5zm1.1 4.5c-.1.4-.4.7-.8.7s-.6-.3-.5-.7l.9-3.4c.2.1.4.1.6.1.2 0 .5 0 .7-.1zm1.9-5c-.2.7-.7 1.2-1.5 1.2s-1.1-.5-.9-1.2l.2-.8h2.4zm1.8.5c-.1.4-.5.7-.9.7s-.7-.3-.6-.7l.3-1.3h1.5zm1.5.1c-.1.3-.4.5-.7.5-.3 0-.5-.2-.4-.5l.4-1.4h1.1zm1-1.8h-10.4l.5-1.8h10.4zm.1-2.3h-1.1l.7-2.7.8 1.3zm.9-1.6-7.1-12.3.8-2.9 7.1 12.2zm-1.3-7.6 1.7-1.6-.8 3.1zm1.9 3.4-.8-1.3 1.1-4.2 1.4-1.3zm2.6-8.1-4.8 4.3-.8-1.5 6.4-5.8zm1.3-4.9H305l.5-1.8h10.4zm.5-3.7-.4 1.4h-1.1l.4-1.4c.1-.3.4-.5.7-.5.4 0 .5.2.4.5z" id="WL_SG_68_075_svg__path96"/></g></g></g></g></g></svg>